*
*
G04 PADS VX.2 Build Number: 5060570 generated Gerber (RS-274-X) file*
G04 PC Version=2.1*
*
%IN "HFC3100D_Module_Display"*%
*
%MOIN*%
*
%FSLAX35Y35*%
*
*
*
*
G04 PC Standard Apertures*
*
*
G04 Thermal Relief Aperture macro.*
%AMTER*
1,1,$1,0,0*
1,0,$1-$2,0,0*
21,0,$3,$4,0,0,45*
21,0,$3,$4,0,0,135*
%
*
*
G04 Annular Aperture macro.*
%AMANN*
1,1,$1,0,0*
1,0,$2,0,0*
%
*
*
G04 Odd Aperture macro.*
%AMODD*
1,1,$1,0,0*
1,0,$1-0.005,0,0*
%
*
*
G04 PC Custom Aperture Macros*
*
*
*
*
*
*
G04 PC Aperture Table*
*
%ADD010C,0.001*%
%ADD011C,0.012*%
%ADD014C,0.01*%
%ADD019C,0.06*%
%ADD020C,0.07*%
%ADD021C,0.11811*%
%ADD023C,0.06299*%
%ADD025R,0.06299X0.06299*%
%ADD026C,0.08661*%
%ADD027C,0.07087*%
%ADD031C,0.06693*%
%ADD033C,0.12*%
%ADD038C,0.08*%
%ADD039O,0.06X0.08*%
%ADD042O,0.08X0.06*%
%ADD049R,0.11811X0.11811*%
%ADD051O,0.07X0.09*%
%ADD066C,0.09*%
%ADD079R,0.07X0.07*%
%ADD089C,0.03*%
%ADD094C,0.12598*%
%ADD096C,0.02*%
%ADD098C,0.15*%
%ADD118C,0.18*%
%ADD119C,0.05*%
%ADD121C,0.04*%
%ADD122C,0.035*%
%ADD132C,0.01181*%
*
*
*
*
G04 PC Circuitry*
G04 Layer Name HFC3100D_Module_Display - circuitry*
%LPD*%
*
*
G04 PC Custom Flashes*
G04 Layer Name HFC3100D_Module_Display - flashes*
%LPD*%
*
*
G04 PC Circuitry*
G04 Layer Name HFC3100D_Module_Display - circuitry*
%LPD*%
*
G54D10*
G54D11*
G01X39370Y49370D02*
G75*
G03X49370Y39370I10000J0D01*
G01X39370Y49370D02*
Y214470D01*
X49370Y224470D02*
G03X39370Y214470I0J-10000D01*
G01Y234470D02*
G03X49370Y224470I10000J0D01*
G01X39370Y234470D02*
Y659370D01*
X49370Y669370D02*
G03X39370Y659370I0J-10000D01*
G01X49370Y669370D02*
X738070D01*
X748070Y659370D02*
G03X738070Y669370I-10000J0D01*
G01X748070Y659370D02*
Y234470D01*
X738070Y224470D02*
G03X748070Y234470I0J10000D01*
G01Y214470D02*
G03X738070Y224470I-10000J0D01*
G01X748070Y214470D02*
Y49370D01*
X738070Y39370D02*
G03X748070Y49370I0J10000D01*
G01X738070Y39370D02*
X49370D01*
X382370Y604370D02*
G03X377370Y599370I0J-5000D01*
G01X382370Y604370D02*
X386370D01*
G03X391370Y609370I0J5000*
G01Y622370*
X396370Y627370D02*
G03X391370Y622370I0J-5000D01*
G01X396370Y627370D02*
X706206D01*
X711206Y622370D02*
G03X706206Y627370I-5000J0D01*
G01X711206Y622370D02*
Y609370D01*
G03X716206Y604370I5000J0*
G01X731370*
X736370Y599370D02*
G03X731370Y604370I-5000J0D01*
G01X736370Y599370D02*
Y388370D01*
X731370Y383370D02*
G03X736370Y388370I0J5000D01*
G01X731370Y383370D02*
X382370D01*
X377370Y388370D02*
G03X382370Y383370I5000J0D01*
G01X377370Y388370D02*
Y599370D01*
G54D14*
X774370Y231495D02*
X778006Y218370D01*
X781643Y231495D02*
X778006Y218370D01*
X785734Y215870D02*
X795279D01*
X804825Y228370D02*
X804370Y229620D01*
X803461Y230870*
X802552Y231495*
X800734*
X799825Y230870*
X798916Y229620*
X798461Y228370*
X798006Y226495*
Y223370*
X798461Y221495*
X798916Y220245*
X799825Y218995*
X800734Y218370*
X802552*
X803461Y218995*
X804370Y220245*
X804825Y221495*
X808916Y231495D02*
Y222120D01*
X809370Y220245*
X810279Y218995*
X811643Y218370*
X812552*
X813916Y218995*
X814825Y220245*
X815279Y222120*
Y231495*
X822552D02*
Y218370D01*
X819370Y231495D02*
X825734D01*
X324617Y254809D02*
G03X324617I-6847J0D01*
G01X736840Y361870D02*
G03X736840I-12270J0D01*
G01X356870Y658670D02*
G03X356870I-6500J0D01*
G01X334870D02*
G03X334870I-6500J0D01*
G01X312870D02*
G03X312870I-6500J0D01*
G01X746370Y289595D02*
G03X745506Y289938I-500J0D01*
G01X745406Y289835D02*
G03X745506Y289938I-3536J3535D01*
G01X745406Y289835D02*
X731506Y275935D01*
X727969Y274470D02*
G03X731506Y275935I1J5000D01*
G01X727969Y274470D02*
X679498D01*
G03X678998Y273970I-0J-500*
X679182Y273583I500J0*
G01X680470Y270870D02*
G03X679182Y273583I-3500J0D01*
G01X680470Y270870D02*
Y263870D01*
X677887Y260492D02*
G03X680470Y263870I-917J3378D01*
G01X677887Y260492D02*
G03X677522Y260078I131J-482D01*
G01X676363Y257744D02*
G03X677522Y260078I-2893J2893D01*
G01X676363Y257744D02*
X674298Y255680D01*
X671403Y254480D02*
G03X674298Y255680I0J4090D01*
G01X671403Y254480D02*
X645570D01*
X642678Y255678D02*
G03X645570Y254480I2892J2892D01*
G01X642678Y255678D02*
X626938Y271417D01*
G03X626819Y271505I-354J-353*
G01X625566Y272171*
G03X625465Y272212I-235J-441*
G01X621692Y276403D02*
G03X625465Y272212I5178J867D01*
G01X621692Y276403D02*
G03X621199Y276820I-493J-83D01*
G01X571773*
G03X571643Y276803I0J-500*
G01X565369Y279989D02*
G03X571643Y276803I4901J1881D01*
G01X565369Y279989D02*
G03X564548Y280163I-467J-179D01*
G01X543064Y258680*
X540170Y257480D02*
G03X543064Y258680I0J4090D01*
G01X540170Y257480D02*
X483097D01*
G03X482597Y256980I0J-500*
G01X482597*
G03X482599Y256935I500J-0*
G01X482620Y256470D02*
G03X482599Y256935I-5250J0D01*
G01X479838Y251836D02*
G03X482620Y256470I-2468J4634D01*
G01X479838Y251836D02*
G03X479720Y251749I235J-441D01*
G01X467006Y239035*
X463469Y237570D02*
G03X467006Y239035I1J5000D01*
G01X463469Y237570D02*
X376070D01*
X372535Y239035D02*
G03X376070Y237570I3535J3535D01*
G01X372535Y239035D02*
X331985Y279584D01*
G03X331631Y279731I-354J-353*
G01X325120*
G03X325002Y279717I-0J-500*
G01X321237Y278804*
G03X321111Y278755I118J-486*
G01X310924Y284731D02*
G03X321111Y278755I6846J-0D01*
G01X311794Y288071D02*
G03X310924Y284731I5976J-3340D01*
G01X311794Y288071D02*
G03X311843Y288198I-436J244D01*
G01X312756Y291963*
G03X312770Y292081I-486J118*
G01Y295692*
G03X312624Y296045I-500J-0*
G01X295324Y313345*
G03X294470Y312992I-354J-353*
G01Y230070*
G03X294970Y229570I500J0*
G01X711797*
G03X712297Y230070I-0J500*
X712179Y230393I-500J0*
G01X707175Y244070D02*
G03X712179Y230393I21195J0D01*
G01X745467Y256597D02*
G03X707175Y244070I-17097J-12527D01*
G01X745467Y256597D02*
G03X746370Y256893I403J296D01*
G01Y289595*
Y382372D02*
G03X745870Y382872I-500J-0D01*
G01X735351Y382870*
G03X735074Y382787I-0J-500*
G01X731370Y381670D02*
G03X735074Y382787I0J6700D01*
G01X731370Y381670D02*
X382370D01*
X378723Y382750D02*
G03X382370Y381670I3647J5620D01*
G01X378723Y382750D02*
G03X378451Y382830I-272J-420D01*
G01X366870Y382829*
Y603470*
G03X365970Y603770I-500J0*
G01X363184Y601920D02*
G03X365970Y603770I-1214J4850D01*
G01X363184Y601920D02*
G03X362820Y601556I122J-485D01*
G01X353208Y601245D02*
G03X362820Y601556I4762J1525D01*
G01X353208Y601245D02*
G03X353166Y601341I-476J-152D01*
G01X352602Y602328*
G03X352521Y602434I-434J-248*
G01X334522Y620433*
G03X334169Y620580I-353J-353*
G01X281370*
X278478Y621778D02*
G03X281370Y620580I2892J2892D01*
G01X278478Y621778D02*
X266588Y633667D01*
X265390Y636560D02*
G03X266588Y633667I4090J-0D01*
G01X265390Y636560D02*
Y639744D01*
G03X265348Y639945I-500J0*
G01X263368Y644450*
G03X263304Y644556I-458J-202*
G01X261650Y649370D02*
G03X263304Y644556I7830J0D01*
G01X275957Y653772D02*
G03X261650Y649370I-6477J-4402D01*
G01X275957Y653772D02*
G03X276784I413J281D01*
G01X291091Y649370D02*
G03X276784Y653772I-7831J0D01*
G01X289436Y644556D02*
G03X291091Y649370I-6176J4814D01*
G01X289436Y644556D02*
G03X289373Y644450I394J-308D01*
G01X287393Y639945*
G03X287350Y639744I457J-201*
G01Y637882*
G03X287497Y637528I500J-0*
G01X293118Y631907*
G03X293472Y631761I354J354*
G01X341070*
X343963Y630563D02*
G03X341070Y631761I-2893J-2893D01*
G01X343963Y630563D02*
X362306Y612219D01*
G03X362412Y612138I354J353*
G01X363400Y611574*
G03X363495Y611532I248J434*
G01X365970Y609770D02*
G03X363495Y611532I-4000J-3000D01*
G01X365970Y609770D02*
G03X366870Y610070I400J300D01*
G01Y655064*
G03X366799Y655322I-500J0*
G01X365870Y658670D02*
G03X366799Y655322I6500J0D01*
G01X365870Y658670D02*
X365870D01*
X366799Y662018D02*
G03X365870Y658670I5571J-3348D01*
G01X366799Y662018D02*
G03X366870Y662276I-429J258D01*
G01Y667170*
G03X366370Y667670I-500J0*
G01X247524*
G03X247024Y667170I0J-500*
X247206Y666784I500J0*
G01X247666Y666366D02*
G03X247206Y666784I-4596J-4596D01*
G01X247666Y666366D02*
X251636Y662397D01*
X253539Y657801D02*
G03X251636Y662397I-6500J-0D01*
G01X253539Y657801D02*
Y653887D01*
G03X253619Y653616I500J-0*
G01X254870Y649370D02*
G03X253619Y653616I-7831J0D01*
G01X239209Y649370D02*
G03X254870I7830J0D01*
G01X240459Y653616D02*
G03X239209Y649370I6580J-4246D01*
G01X240459Y653616D02*
G03X240539Y653887I-420J271D01*
G01Y654770*
G03X240039Y655270I-500J0*
G01X225824*
G03X225324Y654770I-0J-500*
X225443Y654446I500J0*
G01X227311Y649370D02*
G03X225443Y654446I-7831J0D01*
G01X213004Y644968D02*
G03X227311Y649370I6476J4402D01*
G01X213004Y644968D02*
G03X212177I-413J-281D01*
G01X197870Y649370D02*
G03X212177Y644968I7831J0D01*
G01X199738Y654446D02*
G03X197870Y649370I5963J-5076D01*
G01X199738Y654446D02*
G03X199857Y654770I-381J324D01*
X199357Y655270I-500J0*
G01X189929*
G03X189429Y654770I0J-500*
G01Y653887*
G03X189509Y653616I500J-0*
G01X189267Y644771D02*
G03X189509Y653616I-6338J4599D01*
G01X189267Y644771D02*
G03X189205Y644658I404J-294D01*
G01X187963Y641461*
G03X187929Y641280I466J-181*
G01Y640089*
G03X188076Y639736I500J0*
G01X205695Y622117*
G03X206048Y621970I353J353*
G01X218486*
G03X218591Y621981I0J500*
G01X221978Y622709*
G03X222101Y622753I-105J488*
G01X225070Y623470D02*
G03X222101Y622753I0J-6500D01*
G01X225070Y623470D02*
X227070D01*
X231091Y622077D02*
G03X227070Y623470I-4021J-5107D01*
G01X231091Y622077D02*
G03X231400Y621970I309J393D01*
G01X231770*
X235306Y620506D02*
G03X231770Y621970I-3536J-3536D01*
G01X235306Y620506D02*
X236906Y618906D01*
X238370Y615370D02*
G03X236906Y618906I-5000J0D01*
G01X238370Y615370D02*
Y540648D01*
G03X238517Y540295I500J0*
G01X256220Y522591*
G03X256338Y522504I353J354*
G01X259120Y517870D02*
G03X256338Y522504I-5250J0D01*
G01X258883Y516309D02*
G03X259120Y517870I-5013J1561D01*
G01X258883Y516309D02*
G03X258860Y516161I477J-148D01*
X259360Y515661I500J-0*
G01X293469*
G03X293822Y515807I-0J500*
G01X318321Y540306*
G03X318402Y540412I-353J354*
G01X318966Y541400*
G03X319008Y541495I-434J248*
G01X327486Y543315D02*
G03X319008Y541495I-3716J-3345D01*
G01X327486Y543315D02*
G03X328211Y543296I372J335D01*
G01X330978Y546063*
X333870Y547261D02*
G03X330978Y546063I0J-4091D01*
G01X333870Y547261D02*
X345703D01*
X348598Y546061D02*
G03X345703Y547261I-2895J-2891D01*
G01X348598Y546061D02*
X350663Y543996D01*
X351209Y543318D02*
G03X350663Y543996I-3439J-2215D01*
G01X351209Y543318D02*
G03X351279Y543232I421J270D01*
G01X352770Y539670D02*
G03X351279Y543232I-5000J0D01*
G01X342869Y538679D02*
G03X352770Y539670I4901J991D01*
G01X342869Y538679D02*
G03X342379Y539080I-490J-99D01*
G01X341140*
G03X340652Y538688I-0J-500*
G01X337134Y534960D02*
G03X340652Y538688I-1364J4810D01*
G01X337134Y534960D02*
G03X336917Y534832I137J-481D01*
G01X314917Y512832*
G03X314771Y512479I354J-353*
X314984Y512069I500J-0*
G01X317220Y507770D02*
G03X314984Y512069I-5250J0D01*
G01X316424Y504990D02*
G03X317220Y507770I-4454J2780D01*
G01X316424Y504990D02*
G03X316348Y504725I424J-265D01*
X317177Y504349I500J0*
G01X319870Y505361D02*
G03X317177Y504349I0J-4091D01*
G01X319870Y505361D02*
X329170D01*
X330150Y505241D02*
G03X329170Y505361I-980J-3971D01*
G01X330150Y505241D02*
G03X330770Y505727I120J486D01*
G01Y514293*
G03X330748Y514439I-500J0*
G01X330520Y515970D02*
G03X330748Y514439I5250J0D01*
G01X330520Y515970D02*
X330520D01*
X341020D02*
G03X330520I-5250J0D01*
G01X341020D02*
X341020D01*
X340792Y514439D02*
G03X341020Y515970I-5022J1531D01*
G01X340792Y514439D02*
G03X340770Y514293I478J-146D01*
G01Y475370*
X339306Y471835D02*
G03X340770Y475370I-3536J3535D01*
G01X339306Y471835D02*
X331803Y464331D01*
G03X331656Y463978I353J-353*
X331983Y463509I500J-0*
G01X333464Y462561D02*
G03X331983Y463509I-2894J-2891D01*
G01X333464Y462561D02*
X339563Y456463D01*
X340761Y453570D02*
G03X339563Y456463I-4091J0D01*
G01X340761Y453570D02*
Y448372D01*
G03X340907Y448018I500J-0*
G01X342401Y446524*
G03X342982Y446432I354J353*
G01X344053Y446978*
G03X344325Y447423I-228J445*
X344248Y447690I-500J0*
G01X343039Y451870D02*
G03X344248Y447690I7831J0D01*
G01X358701Y451870D02*
G03X343039I-7831J0D01*
G01X357134Y447170D02*
G03X358701Y451870I-6264J4700D01*
G01X357134Y447170D02*
G03X357033Y446870I399J-300D01*
X357134Y446570I500J0*
G01X358701Y441870D02*
G03X357134Y446570I-7831J0D01*
G01X348688Y434349D02*
G03X358701Y441870I2182J7521D01*
G01X348688Y434349D02*
G03X348049Y433869I-139J-480D01*
X348196Y433516I500J0*
G01X359306Y422406*
X360770Y418870D02*
G03X359306Y422406I-5000J0D01*
G01X360770Y418870D02*
Y413156D01*
G03X360785Y413033I500J-0*
G01X361783Y409094*
G03X361834Y408967I484J122*
G01X362770Y405470D02*
G03X361834Y408967I-7000J0D01*
G01Y401973D02*
G03X362770Y405470I-6064J3497D01*
G01X361834Y401973D02*
G03X361783Y401846I433J-249D01*
G01X360785Y397907*
G03X360770Y397785I485J-122*
G01Y386156*
G03X360785Y386033I500J-0*
G01X361783Y382094*
G03X361834Y381967I484J122*
G01X362770Y378470D02*
G03X361834Y381967I-7000J0D01*
G01X351103Y373253D02*
G03X362770Y378470I4667J5217D01*
G01X351103Y373253D02*
G03X350437I-333J-373D01*
G01X338770Y378470D02*
G03X350437Y373253I7000J0D01*
G01X349632Y384308D02*
G03X338770Y378470I-3862J-5838D01*
G01X349632Y384308D02*
G03X350393Y384603I276J417D01*
G01X350755Y386033*
G03X350770Y386156I-485J123*
G01Y397785*
G03X350755Y397907I-500J-0*
G01X350393Y399338*
G03X349632Y399632I-485J-123*
G01X338770Y405470D02*
G03X349632Y399632I7000J0D01*
G01Y411308D02*
G03X338770Y405470I-3862J-5838D01*
G01X349632Y411308D02*
G03X350393Y411603I276J417D01*
G01X350755Y413033*
G03X350770Y413156I-485J123*
G01Y416592*
G03X350624Y416945I-500J-0*
G01X335945Y431624*
G03X335592Y431770I-353J-354*
G01X319820*
X316285Y433235D02*
G03X319820Y431770I3535J3535D01*
G01X316285Y433235D02*
X311035Y438485D01*
X309570Y442020D02*
G03X311035Y438485I5000J0D01*
G01X309570Y442020D02*
Y461420D01*
X311035Y464956D02*
G03X309570Y461420I3535J-3536D01*
G01X311035Y464956D02*
X316285Y470206D01*
X319820Y471670D02*
G03X316285Y470206I0J-5000D01*
G01X319820Y471670D02*
X324792D01*
G03X325145Y471817I-0J500*
G01X330624Y477295*
G03X330770Y477648I-354J353*
G01Y494185*
G03X330306Y494683I-500J-0*
G01X326474Y496951D02*
G03X330306Y494683I4196J2719D01*
G01X326474Y496951D02*
G03X326054Y497180I-420J-271D01*
G01X321772*
G03X321418Y497033I-0J-500*
G01X299125Y474740*
G03X298979Y474387I354J-353*
X299169Y473994I500J-0*
G01X300920Y471284D02*
G03X299169Y473994I-4850J-1214D01*
G01X300920Y471284D02*
G03X301284Y470920I486J122D01*
G01X305070Y466070D02*
G03X301284Y470920I-5000J0D01*
G01Y461220D02*
G03X305070Y466070I-1214J4850D01*
G01X301284Y461220D02*
G03X300920Y460856I122J-485D01*
G01X293781Y457625D02*
G03X300920Y460856I2289J4445D01*
G01X293781Y457625D02*
G03X293684Y457662I-229J-445D01*
G01X292587Y457962*
G03X292455Y457980I-132J-482*
G01X291538*
G03X291041Y457533I0J-500*
G01X289696Y454627D02*
G03X291041Y457533I-3626J3443D01*
G01X289696Y454627D02*
G03X289558Y454282I362J-345D01*
X289577Y454145I500J0*
G01X289770Y452770D02*
G03X289577Y454145I-5000J0D01*
G01X280764Y449779D02*
G03X289770Y452770I4006J2991D01*
G01X280764Y449779D02*
G03X280363Y449980I-401J-299D01*
G01X277434*
G03X276934Y449480I-0J-500*
X277324Y448992I500J-0*
G01X281420Y443870D02*
G03X277324Y448992I-5250J0D01*
G01X281420Y443870D02*
X281420D01*
X281192Y442339D02*
G03X281420Y443870I-5022J1531D01*
G01X281192Y442339D02*
G03X281170Y442193I478J-146D01*
G01Y437970*
X279706Y434435D02*
G03X281170Y437970I-3536J3535D01*
G01X279706Y434435D02*
X276417Y431145D01*
G03X276270Y430792I353J-353*
G01Y394747*
G03X276292Y394601I500J0*
G01X276520Y393070D02*
G03X276292Y394601I-5250J0D01*
G01X276520Y393070D02*
X276520D01*
X273738Y388436D02*
G03X276520Y393070I-2468J4634D01*
G01X273738Y388436D02*
G03X273620Y388349I235J-441D01*
G01X273617Y388345*
G03X273470Y387992I353J-353*
G01Y374347*
G03X273925Y373849I500J0*
G01X275759Y373316D02*
G03X273925Y373849I-2289J-4446D01*
G01X275759Y373316D02*
G03X275856Y373278I229J444D01*
G01X276954Y372978*
G03X277085Y372961I131J483*
G01X329470*
X332363Y371763D02*
G03X329470Y372961I-2893J-2893D01*
G01X332363Y371763D02*
X347318Y356807D01*
G03X347672Y356661I354J354*
G01X366324*
G03X366824Y357161I-0J500*
X366784Y357357I-500J-0*
G01X365800Y362170D02*
G03X366784Y357357I12270J0D01*
G01X390340Y362170D02*
G03X365800I-12270J0D01*
G01X389356Y357357D02*
G03X390340Y362170I-11286J4813D01*
G01X389356Y357357D02*
G03X389316Y357161I460J-196D01*
X389816Y356661I500J-0*
G01X492874*
G03X493374Y357161I-0J500*
X493307Y357410I-500J-0*
G01X492370Y360909D02*
G03X493307Y357410I7000J0D01*
G01X492370Y360909D02*
Y362909D01*
X504037Y368127D02*
G03X492370Y362909I-4667J-5218D01*
G01X504037Y368127D02*
G03X504703I333J372D01*
G01X514037D02*
G03X504703I-4667J-5218D01*
G01X514037D02*
G03X514703I333J372D01*
G01X524037D02*
G03X514703I-4667J-5218D01*
G01X524037D02*
G03X524703I333J372D01*
G01X534037D02*
G03X524703I-4667J-5218D01*
G01X534037D02*
G03X534703I333J372D01*
G01X544037D02*
G03X534703I-4667J-5218D01*
G01X544037D02*
G03X544703I333J372D01*
G01X554037D02*
G03X544703I-4667J-5218D01*
G01X554037D02*
G03X554703I333J372D01*
G01X564037D02*
G03X554703I-4667J-5218D01*
G01X564037D02*
G03X564703I333J372D01*
G01X574037D02*
G03X564703I-4667J-5218D01*
G01X574037D02*
G03X574703I333J372D01*
G01X584037D02*
G03X574703I-4667J-5218D01*
G01X584037D02*
G03X584703I333J372D01*
G01X594037D02*
G03X584703I-4667J-5218D01*
G01X594037D02*
G03X594703I333J372D01*
G01X604037D02*
G03X594703I-4667J-5218D01*
G01X604037D02*
G03X604703I333J372D01*
G01X614037D02*
G03X604703I-4667J-5218D01*
G01X614037D02*
G03X614703I333J372D01*
G01X624037D02*
G03X614703I-4667J-5218D01*
G01X624037D02*
G03X624703I333J372D01*
G01X634037D02*
G03X624703I-4667J-5218D01*
G01X634037D02*
G03X634703I333J372D01*
G01X644037D02*
G03X634703I-4667J-5218D01*
G01X644037D02*
G03X644703I333J372D01*
G01X654037D02*
G03X644703I-4667J-5218D01*
G01X654037D02*
G03X654703I333J372D01*
G01X664037D02*
G03X654703I-4667J-5218D01*
G01X664037D02*
G03X664703I333J372D01*
G01X674037D02*
G03X664703I-4667J-5218D01*
G01X674037D02*
G03X674703I333J372D01*
G01X686370Y362909D02*
G03X674703Y368127I-7000J0D01*
G01X686370Y362909D02*
Y360909D01*
X679239Y353910D02*
G03X686370Y360909I131J6999D01*
G01X679239Y353910D02*
G03X678729Y353410I-10J-500D01*
X678876Y353057I500J0*
G01X684979Y346954*
G03X685136Y346848I353J353*
G01X689413Y340370D02*
G03X685136Y346848I-7043J0D01*
G01X675893Y337604D02*
G03X689413Y340370I6477J2766D01*
G01X675892Y337604D02*
G03X675786Y337762I-459J-196D01*
G01X664774Y348774*
X662870Y353370D02*
G03X664774Y348774I6500J0D01*
G01X662870Y353370D02*
Y354035D01*
G03X662170Y354493I-500J0*
G01X655091Y355369D02*
G03X662170Y354493I4279J5540D01*
G01X655091Y355369D02*
G03X654324Y355166I-306J-396D01*
G01X653499Y353184*
G03X653461Y352992I462J-192*
G01Y350370*
X652263Y347478D02*
G03X653461Y350370I-2893J2892D01*
G01X652263Y347478D02*
X634599Y329814D01*
G03X634453Y329461I354J-353*
X634953Y328961I500J-0*
G01X681370*
X684327Y327696D02*
G03X681370Y328961I-2957J-2826D01*
G01X684327Y327696D02*
X686038Y325906D01*
G03X686209Y325789I362J345*
G01X690982Y323822*
G03X691102Y323790I191J463*
G01X694914Y322160D02*
G03X691102Y323790I-4944J-6290D01*
G01X694914Y322160D02*
G03X695020Y322096I309J393D01*
G01X699739Y320004*
G03X699942Y319961I203J457*
G01X705598*
G03X705801Y320004I0J500*
G01X710520Y322096*
G03X710626Y322160I-203J457*
G01X723570Y315870D02*
G03X710626Y322160I-8000J0D01*
G01Y309581D02*
G03X723570Y315870I4944J6289D01*
G01X710626Y309581D02*
G03X710520Y309645I-309J-394D01*
G01X705801Y311737*
G03X705598Y311780I-203J-457*
G01X699942*
G03X699739Y311737I0J-500*
G01X695020Y309645*
G03X694914Y309581I203J-458*
G01X682007Y315099D02*
G03X694914Y309581I7963J771D01*
G01X682007Y315099D02*
G03X681980Y315220I-497J-48D01*
G01X680232Y320078*
G03X680123Y320254I-470J-170*
G01X679769Y320625*
G03X679407Y320780I-362J-345*
G01X660261*
G03X659771Y320379I-0J-500*
G01X656395Y316608D02*
G03X659771Y320379I-1525J4762D01*
G01X656395Y316608D02*
G03X656300Y316566I153J-476D01*
G01X655312Y316002*
G03X655206Y315921I248J-434*
G01X640909Y301624*
G03X640762Y301270I353J-354*
X641262Y300770I500J0*
G01X661570*
X665106Y299306D02*
G03X661570Y300770I-3536J-3536D01*
G01X665106Y299306D02*
X672282Y292129D01*
G03X673056Y292212I353J354*
G01X679001Y294392D02*
G03X673056Y292212I-1531J-5022D01*
G01X679001Y294392D02*
G03X679147Y294370I146J478D01*
G01X721092*
G03X721445Y294517I-0J500*
G01X724724Y297795*
G03X724870Y298148I-354J353*
G01Y334948*
G03X724718Y335307I-500J-0*
G01X722571Y340370D02*
G03X724718Y335307I7043J0D01*
G01X736658Y340370D02*
G03X722571I-7044J0D01*
G01X734989Y335818D02*
G03X736657Y340370I-5375J4552D01*
G01X734989Y335818D02*
G03X734870Y335495I381J-323D01*
G01Y295870*
X734704Y294594D02*
G03X734870Y295870I-4834J1276D01*
G01X734704Y294594D02*
G03X734688Y294466I484J-128D01*
X735541Y294113I500J0*
G01X736724Y295295*
G03X736870Y295648I-354J353*
G01Y306793*
G03X736848Y306939I-500J0*
G01X736620Y308470D02*
G03X736848Y306939I5250J0D01*
G01X736620Y308470D02*
X736620D01*
X745522Y312242D02*
G03X736620Y308470I-3652J-3772D01*
G01X745522Y312242D02*
G03X746370Y312601I348J359D01*
G01Y382372*
X665313Y284749D02*
G03X665167Y285102I-500J-0D01*
G01X659645Y290624*
G03X659292Y290770I-353J-354*
G01X640478*
G03X640332Y290748I-0J-500*
G01X638194Y290555D02*
G03X640332Y290748I607J5215D01*
G01X638194Y290555D02*
G03X637783Y290412I-57J-496D01*
G01X629750Y282379*
G03X629603Y282025I353J-354*
X629822Y281612I500J0*
G01X631929Y278675D02*
G03X629822Y281612I-5059J-1405D01*
G01X631929Y278675D02*
G03X631969Y278574I481J134D01*
G01X632635Y277321*
G03X632723Y277202I441J235*
G01X646572Y263353*
G03X647426Y263706I354J353*
X647362Y263951I-500J0*
G01X646470Y267370D02*
G03X647362Y263951I7000J0D01*
G01X656487Y273687D02*
G03X646470Y267370I-3017J-6317D01*
G01X656487Y273687D02*
G03X657202Y274138I215J451D01*
X657153Y274353I-500J-0*
G01X656470Y277370D02*
G03X657153Y274353I7000J0D01*
G01X664724Y284257D02*
G03X656470Y277370I-1254J-6887D01*
G01X664724Y284257D02*
G03X665313Y284749I89J492D01*
G01X647788Y320280D02*
G03X647288Y320780I-500J-0D01*
G01X621737*
G03X621237Y320280I-0J-500*
X621309Y320020I500J-0*
G01X622470Y315870D02*
G03X621309Y320020I-8000J0D01*
G01X609526Y309581D02*
G03X622470Y315870I4944J6289D01*
G01X609526Y309581D02*
G03X609420Y309645I-309J-394D01*
G01X604701Y311737*
G03X604498Y311780I-203J-457*
G01X598842*
G03X598639Y311737I0J-500*
G01X593920Y309645*
G03X593814Y309581I203J-458*
G01X589822Y307927D02*
G03X593814Y309581I-952J7943D01*
G01X589822Y307927D02*
G03X589701Y307897I59J-497D01*
G01X584885Y306039*
G03X584711Y305926I180J-466*
G01X570899Y292114*
G03X570753Y291761I354J-353*
X571253Y291261I500J-0*
G01X618769*
G03X619122Y291407I-0J500*
G01X647641Y319926*
G03X647788Y320280I-353J354*
G01X558888Y323980D02*
G03X558388Y324480I-500J-0D01*
G01X517517*
G03X517017Y323980I-0J-500*
X517367Y323503I500J-0*
G01X522970Y315870D02*
G03X517367Y323503I-8000J0D01*
G01X510026Y309581D02*
G03X522970Y315870I4944J6289D01*
G01X510026Y309581D02*
G03X509920Y309645I-309J-394D01*
G01X505201Y311737*
G03X504998Y311780I-203J-457*
G01X499342*
G03X499139Y311737I0J-500*
G01X494420Y309645*
G03X494314Y309581I203J-458*
G01X490322Y307927D02*
G03X494314Y309581I-952J7943D01*
G01X490322Y307927D02*
G03X490201Y307897I59J-497D01*
G01X485385Y306039*
G03X485211Y305926I180J-466*
G01X482507Y303222*
G03X482361Y302869I354J-353*
G01Y297270*
X481163Y294378D02*
G03X482361Y297270I-2893J2892D01*
G01X481163Y294378D02*
X474299Y287514D01*
G03X474153Y287161I354J-353*
X474653Y286661I500J-0*
G01X521569*
G03X521922Y286807I-0J500*
G01X558741Y323626*
G03X558888Y323980I-353J354*
G01X470601Y256980D02*
G03X470101Y257480I-500J-0D01*
G01X376970*
X374078Y258678D02*
G03X376970Y257480I2892J2892D01*
G01X374078Y258678D02*
X335722Y297033D01*
G03X335369Y297180I-353J-353*
G01X323270*
G03X322770Y296680I0J-500*
G01Y292081*
G03X322784Y291963I500J-0*
G01X323145Y290474*
G03X323513Y290106I486J118*
G01X325002Y289745*
G03X325120Y289731I118J486*
G01X333909*
X337445Y288266D02*
G03X333909Y289731I-3536J-3535D01*
G01X337445Y288266D02*
X377995Y247717D01*
G03X378348Y247570I353J353*
G01X461192*
G03X461545Y247717I-0J500*
G01X470455Y256626*
G03X470601Y256980I-354J354*
G01X430588Y287161D02*
G03X430441Y287514I-500J-0D01*
G01X421578Y296378*
X420380Y299270D02*
G03X421578Y296378I4090J0D01*
G01X420380Y299270D02*
Y309760D01*
G03X419532Y310120I-500J0*
G01X409026Y309581D02*
G03X419532Y310120I4944J6289D01*
G01X409026Y309581D02*
G03X408920Y309645I-309J-394D01*
G01X404201Y311737*
G03X403998Y311780I-203J-457*
G01X398342*
G03X398139Y311737I0J-500*
G01X393420Y309645*
G03X393314Y309581I203J-458*
G01X380370Y315870D02*
G03X393314Y309581I8000J0D01*
G01X380371Y315973D02*
G03X380370Y315870I7999J-103D01*
G01X380371Y315973D02*
G03Y315980I-500J7D01*
X379871Y316480I-500J-0*
G01X365853*
G03X365353Y315980I-0J-500*
X365499Y315626I500J-0*
G01X394318Y286807*
G03X394672Y286661I354J354*
G01X430088*
G03X430588Y287161I-0J500*
G01X267555Y333970D02*
G03X267329Y334388I-500J0D01*
G01X266535Y335035D02*
G03X267329Y334388I3535J3535D01*
G01X266535Y335035D02*
X264120Y337449D01*
G03X264002Y337536I-353J-354*
G01X261299Y341266D02*
G03X264002Y337536I5171J904D01*
G01X261299Y341266D02*
G03X260806Y341680I-493J-86D01*
G01X238070*
X235178Y342878D02*
G03X238070Y341680I2892J2892D01*
G01X235178Y342878D02*
X210422Y367633D01*
G03X210069Y367780I-353J-353*
G01X196620*
G03X196120Y367280I0J-500*
G01Y367270*
X192875Y362418D02*
G03X196120Y367270I-2005J4852D01*
G01X192875Y362418D02*
G03X192780Y362366I191J-462D01*
G01X191332Y361357*
G03X191264Y361300I286J-411*
G01X185852Y355888*
X182670Y354570D02*
G03X185852Y355888I0J4500D01*
G01X182670Y354570D02*
X179684D01*
G03X179523Y354543I-0J-500*
G01X175818Y353284*
G03X175700Y353225I161J-474*
G01X164727Y359070D02*
G03X175700Y353225I7043J0D01*
G01X166496Y363739D02*
G03X164727Y359070I5274J-4669D01*
G01X166496Y363739D02*
G03X166622Y364070I-374J331D01*
X166496Y364401I-500J0*
G01X164727Y369070D02*
G03X166496Y364402I7043J0D01*
G01X165036Y371133D02*
G03X164727Y369070I6734J-2063D01*
G01X165036Y371133D02*
G03X165058Y371280I-478J147D01*
X164558Y371780I-500J-0*
G01X141970*
X139078Y372978D02*
G03X141970Y371780I2892J2892D01*
G01X139078Y372978D02*
X133814Y378241D01*
G03X132961Y377888I-353J-353*
G01Y360072*
G03X133107Y359718I500J-0*
G01X137063Y355763*
X138261Y352870D02*
G03X137063Y355763I-4091J0D01*
G01X138261Y352870D02*
Y352107D01*
G03X138307Y351898I500J0*
G01X139438Y349447*
G03X139492Y349357I454J210*
G01X140820Y345370D02*
G03X139492Y349357I-6650J0D01*
G01X129593Y340546D02*
G03X140820Y345370I4577J4824D01*
G01X129593Y340546D02*
G03X128905I-344J-362D01*
G01X117678Y345370D02*
G03X128905Y340546I6650J0D01*
G01X119413Y349849D02*
G03X117678Y345370I4915J-4479D01*
G01X119413Y349849D02*
G03X119478Y349939I-370J337D01*
G01X120172Y351163*
G03X120237Y351410I-435J247*
G01Y351970*
X120720Y353899D02*
G03X120237Y351970I3608J-1929D01*
G01X120720Y353899D02*
G03X120780Y354135I-440J236D01*
G01Y444555*
G03X120762Y444687I-500J0*
G01X120462Y445784*
G03X120425Y445881I-482J-132*
G01X119870Y448170D02*
G03X120425Y445881I5000J0D01*
G01X123656Y453020D02*
G03X119870Y448170I1214J-4850D01*
G01X123656Y453020D02*
G03X124020Y453384I-121J486D01*
G01X132506Y455602D02*
G03X124020Y453384I-3636J-3432D01*
G01X132506Y455602D02*
G03X133234I364J343D01*
G01X140506D02*
G03X133234I-3636J-3432D01*
G01X140506D02*
G03X141234I364J343D01*
G01X149870Y452170D02*
G03X141234Y455602I-5000J0D01*
G01X149870Y452170D02*
X149870D01*
X149316Y449881D02*
G03X149870Y452170I-4446J2289D01*
G01X149316Y449881D02*
G03X149278Y449784I444J-229D01*
G01X148978Y448687*
G03X148961Y448555I483J-132*
G01Y438748*
G03X149416Y438250I500J0*
G01X151259Y437716D02*
G03X149416Y438250I-2289J-4446D01*
G01X151259Y437716D02*
G03X151356Y437678I229J444D01*
G01X152454Y437378*
G03X152585Y437361I131J483*
G01X158570*
X161463Y436163D02*
G03X158570Y437361I-2893J-2893D01*
G01X161463Y436163D02*
X166263Y431363D01*
X166676Y430878D02*
G03X166263Y431363I-3306J-2408D01*
G01X166676Y430878D02*
G03X167581Y431173I405J295D01*
X167571Y431273I-500J-0*
G01X167470Y432270D02*
G03X167571Y431273I5000J0D01*
G01X167470Y432270D02*
X167470D01*
X174759Y436716D02*
G03X167470Y432270I-2289J-4446D01*
G01X174759Y436716D02*
G03X174856Y436678I229J444D01*
G01X175954Y436378*
G03X176085Y436361I131J483*
G01X195324*
G03X195810Y436743I-0J500*
G01X205531D02*
G03X195810I-4861J-1173D01*
G01X205531D02*
G03X206017Y436361I486J118D01*
G01X225288*
G03X225788Y436861I-0J500*
X225641Y437214I-500J-0*
G01X220578Y442278*
X219380Y445170D02*
G03X220578Y442278I4090J0D01*
G01X219380Y445170D02*
Y489470D01*
X220578Y492363D02*
G03X219380Y489470I2892J-2893D01*
G01X220578Y492363D02*
X228062Y499847D01*
G03X228209Y500201I-353J354*
X227987Y500616I-500J-0*
G01X225920Y503556D02*
G03X227987Y500616I4850J1214D01*
G01X225920Y503556D02*
G03X225556Y503920I-485J-121D01*
G01X221920Y507556D02*
G03X225556Y503920I4850J1214D01*
G01X221920Y507556D02*
G03X221556Y507920I-485J-121D01*
G01X220488Y508321D02*
G03X221556Y507920I2282J4449D01*
G01X220488Y508321D02*
G03X219967Y508282I-228J-445D01*
G01X210384Y510223D02*
G03X219967Y508282I5686J3447D01*
G01X210384Y510223D02*
G03X209602Y510318I-428J-259D01*
G01X200463Y501178*
X197570Y499980D02*
G03X200463Y501178I0J4090D01*
G01X197570Y499980D02*
X166072D01*
G03X165718Y499833I-0J-500*
G01X162230Y496345*
G03X162083Y495991I353J-354*
X162100Y495862I500J0*
G01X162270Y494570D02*
G03X162100Y495862I-5000J0D01*
G01X158484Y489720D02*
G03X162270Y494570I-1214J4850D01*
G01X158484Y489720D02*
G03X158120Y489356I122J-485D01*
G01X150171Y486647D02*
G03X158120Y489356I3099J3923D01*
G01X150171Y486647D02*
G03X149361Y486254I-310J-393D01*
G01Y477972*
G03X149507Y477618I500J-0*
G01X154481Y472644*
G03X155074Y472559I354J354*
G01X162320Y469384D02*
G03X155074Y472559I-4850J-1214D01*
G01X162320Y469384D02*
G03X162684Y469020I486J122D01*
G01X166470Y464170D02*
G03X162684Y469020I-5000J0D01*
G01X163692Y459691D02*
G03X166470Y464170I-2222J4479D01*
G01X163692Y459691D02*
G03X163414Y459243I222J-448D01*
X163499Y458965I500J-0*
G01X164620Y455270D02*
G03X163499Y458965I-6650J0D01*
G01X151320Y455270D02*
G03X164620I6650J0D01*
G01X152667Y459282D02*
G03X151320Y455270I5303J-4012D01*
G01X152667Y459282D02*
G03X152769Y459584I-398J302D01*
X152291Y460084I-500J-0*
G01X149578Y461278D02*
G03X152291Y460084I2892J2892D01*
G01X149578Y461278D02*
X139378Y471478D01*
X138180Y474370D02*
G03X139378Y471478I4090J0D01*
G01X138180Y474370D02*
Y498269D01*
G03X138033Y498622I-500J-0*
G01X110478Y526178*
X109280Y529070D02*
G03X110478Y526178I4090J0D01*
G01X109280Y529070D02*
Y530655D01*
G03X109262Y530787I-500J0*
G01X108962Y531884*
G03X108925Y531981I-482J-132*
G01X108370Y534270D02*
G03X108925Y531981I5000J0D01*
G01X112156Y539120D02*
G03X108370Y534270I1214J-4850D01*
G01X112156Y539120D02*
G03X112520Y539484I-121J486D01*
G01X121006Y541702D02*
G03X112520Y539484I-3636J-3432D01*
G01X121006Y541702D02*
G03X121734I364J343D01*
G01X130220Y539484D02*
G03X121734Y541702I-4850J-1214D01*
G01X130220Y539484D02*
G03X130584Y539120I486J122D01*
G01X134132Y535795D02*
G03X130584Y539120I-4762J-1525D01*
G01X134132Y535795D02*
G03X134174Y535700I476J153D01*
G01X134738Y534712*
G03X134819Y534606I434J248*
G01X137618Y531807*
G03X137972Y531661I354J354*
G01X156619*
G03X157119Y532161I0J500*
X157029Y532448I-500J-0*
G01X155820Y536270D02*
G03X157029Y532448I6650J0D01*
G01X169120Y536270D02*
G03X155820I-6650J0D01*
G01X167912Y532448D02*
G03X169120Y536270I-5442J3822D01*
G01X167912Y532448D02*
G03X167821Y532161I409J-287D01*
X168321Y531661I500J-0*
G01X176619*
G03X177119Y532161I0J500*
X177029Y532448I-500J-0*
G01X175820Y536270D02*
G03X177029Y532448I6650J0D01*
G01X189120Y536270D02*
G03X175820I-6650J0D01*
G01X187912Y532448D02*
G03X189120Y536270I-5442J3822D01*
G01X187912Y532448D02*
G03X187821Y532161I409J-287D01*
X188321Y531661I500J-0*
G01X201255*
G03X201387Y531678I0J500*
G01X202484Y531978*
G03X202581Y532016I-132J482*
G01X209502Y529454D02*
G03X202581Y532016I-4632J-1884D01*
G01X209502Y529454D02*
G03X210009Y529145I463J189D01*
G01X210370Y529161D02*
G03X210009Y529145I0J-4091D01*
G01X210370Y529161D02*
X234301D01*
G03X234801Y529661I0J500*
X234655Y530014I-500J-0*
G01X229835Y534835*
X228370Y538370D02*
G03X229835Y534835I5000J0D01*
G01X228370Y538370D02*
Y610016D01*
G03X227813Y610513I-500J-0*
G01X227070Y610470D02*
G03X227813Y610513I0J6500D01*
G01X227070Y610470D02*
X225070D01*
X222101Y611188D02*
G03X225070Y610470I2969J5782D01*
G01X222101Y611188D02*
G03X221978Y611232I-228J-445D01*
G01X218591Y611959*
G03X218486Y611970I-105J-489*
G01X203770*
X200235Y613435D02*
G03X203770Y611970I3535J3535D01*
G01X200235Y613435D02*
X179394Y634275D01*
X177929Y637811D02*
G03X179394Y634275I5000J0D01*
G01X177929Y637811D02*
Y641280D01*
G03X177895Y641461I-500J-0*
G01X176653Y644658*
G03X176591Y644771I-466J-181*
G01X176349Y653616D02*
G03X176591Y644771I6580J-4246D01*
G01X176349Y653616D02*
G03X176429Y653887I-420J271D01*
G01Y654770*
G03X175929Y655270I-500J0*
G01X161714*
G03X161214Y654770I-0J-500*
X161333Y654446I500J0*
G01X163201Y649370D02*
G03X161333Y654446I-7831J0D01*
G01X148894Y644968D02*
G03X163201Y649370I6476J4402D01*
G01X148894Y644968D02*
G03X148067I-414J-281D01*
G01X133760Y649370D02*
G03X148067Y644968I7831J0D01*
G01X135628Y654446D02*
G03X133760Y649370I5963J-5076D01*
G01X135628Y654446D02*
G03X135747Y654770I-381J324D01*
X135247Y655270I-500J0*
G01X112270*
G03X111770Y654770I0J-500*
G01Y653871*
G03X111849Y653601I500J-0*
G01X113091Y649370D02*
G03X111849Y653601I-7831J0D01*
G01X97429Y649370D02*
G03X113091I7831J0D01*
G01X98690Y653631D02*
G03X97429Y649370I6570J-4261D01*
G01X98690Y653631D02*
G03X98770Y653903I-420J272D01*
G01Y659070*
X100674Y663666D02*
G03X98770Y659070I4596J-4596D01*
G01X100674Y663666D02*
X103374Y666366D01*
X103834Y666784D02*
G03X103374Y666366I4136J-5014D01*
G01X103834Y666784D02*
G03X104016Y667170I-318J386D01*
X103516Y667670I-500J0*
G01X71077*
G03X70577Y667170I0J-500*
X70794Y666758I500J0*
G01X79793Y649670D02*
G03X70794Y666758I-20723J0D01*
G01X41982Y637946D02*
G03X79793Y649670I17088J11724D01*
G01X41982Y637946D02*
G03X41070Y637663I-412J-283D01*
G01Y333970*
G03X41570Y333470I500J0*
G01X267055*
G03X267555Y333970I0J500*
G01X315477Y502869D02*
G03X314715Y503295I-500J-0D01*
G01X313375Y502712D02*
G03X314715Y503295I-1405J5058D01*
G01X313375Y502712D02*
G03X313274Y502671I134J-482D01*
G01X312021Y502005*
G03X311902Y501917I235J-441*
G01X308463Y498478*
X305570Y497280D02*
G03X308463Y498478I0J4090D01*
G01X305570Y497280D02*
X277072D01*
G03X276718Y497133I-0J-500*
G01X270523Y490938*
G03X270435Y490819I353J-354*
G01X269769Y489566*
G03X269729Y489465I441J-235*
G01X259420Y490870D02*
G03X269729Y489465I5250J0D01*
G01X259420Y490870D02*
X259420D01*
X259422Y491001D02*
G03X259420Y490870I5248J-131D01*
G01X259422Y491001D02*
G03Y491013I-500J12D01*
G01X259422*
G03X259002Y491507I-500J0*
G01X257550Y491916D02*
G03X259002Y491507I2520J6154D01*
G01X257550Y491916D02*
G03X256861Y491454I-189J-462D01*
G01Y485870*
X256109Y483507D02*
G03X256861Y485870I-3339J2363D01*
G01X256109Y483507D02*
G03X256017Y483218I408J-289D01*
X256367Y482741I500J-0*
G01X257159Y482416D02*
G03X256367Y482741I-2289J-4446D01*
G01X257159Y482416D02*
G03X257256Y482378I229J444D01*
G01X258354Y482078*
G03X258485Y482061I131J483*
G01X286455*
G03X286587Y482078I0J500*
G01X287684Y482378*
G03X287781Y482416I-132J482*
G01X293609Y481502D02*
G03X287781Y482416I-3539J-3532D01*
G01X293609Y481502D02*
G03X294317I354J353D01*
G01X315330Y502515*
G03X315477Y502869I-353J354*
G01X227980Y387569D02*
G03X227833Y387922I-500J-0D01*
G01X224934Y390821*
G03X224828Y390902I-354J-353*
G01X223841Y391466*
G03X223745Y391508I-248J-434*
G01X220270Y396270D02*
G03X223745Y391508I5000J0D01*
G01X221347Y399370D02*
G03X220270Y396270I3923J-3100D01*
G01X221347Y399370D02*
G03X221454Y399680I-393J310D01*
X220954Y400180I-500J-0*
G01X213985*
G03X213854Y400162I0J-500*
G01X212756Y399862*
G03X212659Y399825I132J-482*
G01X205520Y403056D02*
G03X212659Y399825I4850J1214D01*
G01X205520Y403056D02*
G03X205156Y403420I-485J-121D01*
G01X201520Y407056D02*
G03X205156Y403420I4850J1214D01*
G01X201520Y407056D02*
G03X201156Y407420I-485J-121D01*
G01X197399Y411733D02*
G03X201156Y407420I4971J537D01*
G01X197399Y411733D02*
G03X196902Y412180I-497J-53D01*
G01X193085*
G03X192954Y412162I0J-500*
G01X191856Y411862*
G03X191759Y411825I132J-482*
G01X184620Y415056D02*
G03X191759Y411825I4850J1214D01*
G01X184620Y415056D02*
G03X184256Y415420I-485J-121D01*
G01X180620Y419056D02*
G03X184256Y415420I4850J1214D01*
G01X180620Y419056D02*
G03X180256Y419420I-485J-121D01*
G01X176620Y423056D02*
G03X180256Y419420I4850J1214D01*
G01X176620Y423056D02*
G03X176256Y423420I-485J-121D01*
G01X172658Y426914D02*
G03X176256Y423420I4812J1356D01*
G01X172658Y426914D02*
G03X172203Y427277I-482J-136D01*
G01X168316Y429487D02*
G03X172203Y427277I4154J2783D01*
G01X168316Y429487D02*
G03X167401Y429209I-415J-278D01*
X167407Y429128I500J-0*
G01X167461Y428470D02*
G03X167407Y429128I-4091J0D01*
G01X167461Y428470D02*
Y400972D01*
G03X167607Y400618I500J-0*
G01X168506Y399719*
G03X168612Y399638I354J353*
G01X169600Y399074*
G03X169695Y399032I248J434*
G01X169773Y399006D02*
G03X169695Y399032I-1603J-4736D01*
G01X169773Y399006D02*
G03X169867Y398984I161J474D01*
G01X171436Y398775*
G03X171503Y398770I67J495*
G01X180127*
G03X180215Y398778I0J500*
G01X181953Y399088*
G03X182057Y399119I-88J492*
G01X189320Y394270D02*
G03X182057Y399119I-5250J0D01*
G01X186947Y389879D02*
G03X189320Y394270I-2877J4391D01*
G01X186947Y389879D02*
G03X186722Y389461I275J-418D01*
X187222Y388961I500J-0*
G01X220470*
X223363Y387763D02*
G03X220470Y388961I-2893J-2893D01*
G01X223363Y387763D02*
X224406Y386719D01*
G03X224512Y386638I354J353*
G01X225500Y386074*
G03X225595Y386032I248J434*
G01X227170Y385193D02*
G03X225595Y386032I-3100J-3923D01*
G01X227170Y385193D02*
G03X227980Y385586I310J393D01*
G01Y387569*
X324617Y254809D02*
G03X324617I-6847J0D01*
G01X736840Y361870D02*
G03X736840I-12270J0D01*
G01X338912Y552365D02*
G03X349220Y553770I5058J1405D01*
G01X338912Y552365D02*
G03X338871Y552466I-482J-134D01*
G01X338474Y553214*
G03X338032Y553480I-442J-234*
G01X298418*
G03X297918Y552980I0J-500*
G01Y551665*
X294418Y548165D02*
G03X297918Y551665I0J3500D01*
G01X294418Y548165D02*
X282607D01*
X279107Y551665D02*
G03X282607Y548165I3500J-0D01*
G01X279107Y551665D02*
Y563476D01*
X282607Y566976D02*
G03X279107Y563476I0J-3500D01*
G01X282607Y566976D02*
X294418D01*
X297918Y563476D02*
G03X294418Y566976I-3500J-0D01*
G01X297918Y563476D02*
Y562161D01*
G03X298418Y561661I500J-0*
G01X340170*
X343063Y560463D02*
G03X340170Y561661I-2893J-2893D01*
G01X343063Y560463D02*
X343902Y559623D01*
G03X344021Y559535I354J353*
G01X345274Y558869*
G03X345375Y558829I235J441*
G01X349220Y553770D02*
G03X345375Y558829I-5250J0D01*
G01X347439Y565148D02*
G03X354220Y570170I1531J5022D01*
G01X347439Y565148D02*
G03X347293Y565170I-146J-478D01*
G01X328370*
X324835Y566635D02*
G03X328370Y565170I3535J3535D01*
G01X324835Y566635D02*
X320035Y571435D01*
X318570Y574970D02*
G03X320035Y571435I5000J0D01*
G01X318570Y574970D02*
Y580992D01*
G03X318424Y581345I-500J-0*
G01X302945Y596824*
G03X302592Y596970I-353J-354*
G01X302370*
X299401Y597688D02*
G03X302370Y596970I2969J5782D01*
G01X299401Y597688D02*
G03X299278Y597732I-228J-445D01*
G01X295891Y598459*
G03X295786Y598470I-105J-489*
G01X280870*
X277335Y599935D02*
G03X280870Y598470I3535J3535D01*
G01X277335Y599935D02*
X271745Y605524D01*
G03X271392Y605670I-353J-354*
G01X248247*
G03X248101Y605648I0J-500*
G01X241320Y610670D02*
G03X248101Y605648I5250J0D01*
G01Y615692D02*
G03X241320Y610670I-1531J-5022D01*
G01X248101Y615692D02*
G03X248247Y615670I146J478D01*
G01X273670*
X277206Y614206D02*
G03X273670Y615670I-3536J-3536D01*
G01X277206Y614206D02*
X282795Y608617D01*
G03X283148Y608470I353J353*
G01X295786*
G03X295891Y608481I0J500*
G01X299278Y609209*
G03X299401Y609253I-105J488*
G01X302370Y609970D02*
G03X299401Y609253I0J-6500D01*
G01X302370Y609970D02*
X304370D01*
X310870Y603470D02*
G03X304370Y609970I-6500J0D01*
G01X310870Y603470D02*
X310870D01*
X310867Y603267D02*
G03X310870Y603470I-6497J203D01*
G01X310867Y603267D02*
G03Y603252I500J-15D01*
X311013Y602898I500J-0*
G01X327106Y586806*
X327774Y585977D02*
G03X327106Y586806I-4204J-2707D01*
G01X327774Y585977D02*
G03X328408Y585796I420J271D01*
G01X335585Y584204D02*
G03X328408Y585796I-4615J-3834D01*
G01X335585Y584204D02*
G03X336355I385J319D01*
G01X346970Y580370D02*
G03X336355Y584204I-6000J0D01*
G01X345115Y576032D02*
G03X346970Y580370I-4145J4338D01*
G01X345115Y576032D02*
G03X344960Y575670I345J-362D01*
X345460Y575170I500J0*
G01X347293*
G03X347439Y575192I0J500*
G01X354220Y570170D02*
G03X347439Y575192I-5250J0D01*
G01X356870Y658670D02*
G03X356870I-6500J0D01*
G01X334870D02*
G03X334870I-6500J0D01*
G01X312870D02*
G03X312870I-6500J0D01*
G01X101027Y339789D02*
G03X111292Y345370I3616J5581D01*
G01X101027Y339789D02*
G03X100405Y339726I-272J-420D01*
G01X97950Y338720D02*
G03X100405Y339726I-0J3500D01*
G01X97950Y338720D02*
X91650D01*
X88150Y342220D02*
G03X91650Y338720I3500J0D01*
G01X88150Y342220D02*
Y348520D01*
X91650Y352020D02*
G03X88150Y348520I0J-3500D01*
G01X91650Y352020D02*
X97950D01*
X98556Y351967D02*
G03X97950Y352020I-606J-3447D01*
G01X98556Y351967D02*
G03X99142Y352459I86J492D01*
G01X99142D02*
Y370185D01*
X99142D02*
G03X98996Y370538I-500J-0D01*
G01X93511Y376024*
G03X93157Y376170I-354J-354*
G01X83502*
G03X83002Y375670I0J-500*
X83071Y375417I500J0*
G01X84170Y371370D02*
G03X83071Y375417I-8000J0D01*
G01X71226Y365081D02*
G03X84170Y371370I4944J6289D01*
G01X71226Y365081D02*
G03X71120Y365145I-309J-394D01*
G01X66401Y367237*
G03X66198Y367280I-203J-457*
G01X60542*
G03X60339Y367237I0J-500*
G01X55620Y365145*
G03X55514Y365081I203J-458*
G01X42570Y371370D02*
G03X55514Y365081I8000J0D01*
G01Y377660D02*
G03X42570Y371370I-4944J-6290D01*
G01X55514Y377660D02*
G03X55620Y377596I309J393D01*
G01X60339Y375504*
G03X60542Y375461I203J457*
G01X66198*
G03X66401Y375504I0J500*
G01X70486Y377315*
G03X70783Y377772I-203J457*
X70637Y378125I-500J-0*
G01X65981Y382781*
X64370Y386670D02*
G03X65981Y382781I5500J0D01*
G01X64370Y386670D02*
Y393370D01*
G03X64270Y393670I-500J0*
G01X62870Y397870D02*
G03X64270Y393670I7000J0D01*
G01X74537Y403088D02*
G03X62870Y397870I-4667J-5218D01*
G01X74537Y403088D02*
G03X75203I333J372D01*
G01X86870Y397870D02*
G03X75203Y403088I-7000J0D01*
G01X76137Y391949D02*
G03X86870Y397870I3733J5921D01*
G01X76137Y391949D02*
G03X75370Y391526I-267J-423D01*
G01Y389155*
G03X75517Y388802I500J0*
G01X77002Y387317*
G03X77355Y387170I353J353*
G01X95643*
X99532Y385559D02*
G03X95643Y387170I-3889J-3889D01*
G01X99532Y385559D02*
X108532Y376559D01*
X110143Y372670D02*
G03X108532Y376559I-5500J0D01*
G01X110143Y372670D02*
Y352111D01*
G03X110148Y352038I500J0*
G01X110735Y348077*
G03X110769Y347956I494J73*
G01X111292Y345370D02*
G03X110769Y347956I-6649J0D01*
G01X75203Y443653D02*
G03X86870Y448870I4667J5217D01*
G01X75203Y443653D02*
G03X74537I-333J-373D01*
G01X62870Y448870D02*
G03X74537Y443653I7000J0D01*
G01Y454088D02*
G03X62870Y448870I-4667J-5218D01*
G01X74537Y454088D02*
G03X75203I333J372D01*
G01X86870Y448870D02*
G03X75203Y454088I-7000J0D01*
G01X125681Y488935D02*
G03X135920Y490570I4989J1635D01*
G01X125681Y488935D02*
G03X125206Y489280I-475J-155D01*
G01X69870*
X65780Y493370D02*
G03X69870Y489280I4090J0D01*
G01X65780Y493370D02*
Y493749D01*
G03X65695Y494027I-500J0*
G01X65417Y494443*
G03X65326Y494545I-415J-278*
G01X62870Y499870D02*
G03X65326Y494545I7000J0D01*
G01X74537Y505088D02*
G03X62870Y499870I-4667J-5218D01*
G01X74537Y505088D02*
G03X75203I333J372D01*
G01X86870Y499870D02*
G03X75203Y505088I-7000J0D01*
G01X86639Y498088D02*
G03X86870Y499870I-6769J1782D01*
G01X86639Y498088D02*
G03X86623Y497961I484J-127D01*
X87123Y497461I500J-0*
G01X127870*
X130763Y496263D02*
G03X127870Y497461I-2893J-2893D01*
G01X130763Y496263D02*
X131114Y495911D01*
G03X131398Y495769I354J354*
G01X135920Y490570D02*
G03X131398Y495769I-5250J0D01*
G01X216470Y572170D02*
Y570170D01*
X215487Y566733D02*
G03X216470Y570170I-5517J3437D01*
G01X215487Y566733D02*
G03X215433Y566616I424J-265D01*
G01X214492Y563564*
G03X214470Y563417I478J-147*
G01Y561170*
X213152Y557988D02*
G03X214470Y561170I-3182J3182D01*
G01X213152Y557988D02*
X209653Y554489D01*
X206470Y553170D02*
G03X209653Y554489I0J4500D01*
G01X206470Y553170D02*
X181770D01*
X178588Y554488D02*
G03X181770Y553170I3182J3182D01*
G01X178588Y554488D02*
X176776Y556300D01*
G03X176708Y556357I-353J-354*
G01X175527Y557180*
G03X175241Y557270I-286J-410*
G01X84500*
G03X84000Y556770I0J-500*
X84192Y556377I500J0*
G01X86870Y550870D02*
G03X84192Y556377I-7000J0D01*
G01X75203Y545653D02*
G03X86870Y550870I4667J5217D01*
G01X75203Y545653D02*
G03X74537I-333J-373D01*
G01X62870Y550870D02*
G03X74537Y545653I7000J0D01*
G01Y556088D02*
G03X62870Y550870I-4667J-5218D01*
G01X74537Y556088D02*
G03X75203I333J372D01*
G01X76488Y556999D02*
G03X75203Y556088I3382J-6129D01*
G01X76488Y556999D02*
G03X76746Y557436I-242J437D01*
X76485Y557876I-500J0*
G01X75335Y558735D02*
G03X76485Y557876I3535J3535D01*
G01X75335Y558735D02*
X65845Y568224D01*
G03X65492Y568370I-353J-354*
G01X62954*
G03X62849Y568359I-0J-500*
G01X59462Y567632*
G03X59339Y567588I105J-489*
G01X56370Y566870D02*
G03X59339Y567588I0J6500D01*
G01X56370Y566870D02*
X54370D01*
X47870Y573370D02*
G03X54370Y566870I6500J0D01*
G01Y579870D02*
G03X47870Y573370I0J-6500D01*
G01X54370Y579870D02*
X56370D01*
X59339Y579153D02*
G03X56370Y579870I-2969J-5783D01*
G01X59339Y579153D02*
G03X59462Y579109I228J444D01*
G01X62849Y578381*
G03X62954Y578370I105J489*
G01X67770*
X71306Y576906D02*
G03X67770Y578370I-3536J-3536D01*
G01X71306Y576906D02*
X80795Y567417D01*
G03X81148Y567270I353J353*
G01X175493*
G03X175639Y567292I0J500*
G01X178038Y567448D02*
G03X175639Y567292I-868J-5178D01*
G01X178038Y567448D02*
G03X178621Y567941I83J493D01*
G01Y567943*
X178620Y567970D02*
G03X178621Y567943I6650J0D01*
G01X191920Y567970D02*
G03X178620I-6650J0D01*
G01X189733Y563041D02*
G03X191920Y567970I-4463J4929D01*
G01X189733Y563041D02*
G03X189569Y562670I336J-371D01*
X190069Y562170I500J0*
G01X204399*
G03X204753Y562317I0J500*
G01X205324Y562888*
G03X205470Y563241I-354J353*
G01Y563417*
G03X205448Y563564I-500J-0*
G01X204507Y566616*
G03X204453Y566733I-478J-148*
G01X203470Y570170D02*
G03X204453Y566733I6500J0D01*
G01X203470Y570170D02*
Y572170D01*
X216470D02*
G03X203470I-6500J0D01*
G01X183561Y626270D02*
Y604570D01*
X182496Y601817D02*
G03X183561Y604570I-3026J2753D01*
G01X182496Y601817D02*
G03X182370Y601550I370J-336D01*
G01X171920Y602270D02*
G03X182370Y601550I5250J0D01*
G01X175079Y607086D02*
G03X171920Y602270I2091J-4816D01*
G01X175079Y607086D02*
G03X175380Y607544I-199J458D01*
G01Y624369*
G03X175233Y624722I-500J-0*
G01X173622Y626333*
G03X173269Y626480I-353J-353*
G01X167900*
G03X167445Y626187I-0J-500*
G01X157420Y628370D02*
G03X167445Y626187I5250J0D01*
G01X161964Y633572D02*
G03X157420Y628370I706J-5202D01*
G01X161964Y633572D02*
G03X162221Y633687I-67J496D01*
G01X164870Y634661D02*
G03X162221Y633687I0J-4091D01*
G01X164870Y634661D02*
X175170D01*
X178064Y633461D02*
G03X175170Y634661I-2894J-2891D01*
G01X178064Y633461D02*
X182363Y629163D01*
X183561Y626270D02*
G03X182363Y629163I-4091J0D01*
G01X75203Y596653D02*
G03X86870Y601870I4667J5217D01*
G01X75203Y596653D02*
G03X74537I-333J-373D01*
G01X62870Y601870D02*
G03X74537Y596653I7000J0D01*
G01Y607088D02*
G03X62870Y601870I-4667J-5218D01*
G01X74537Y607088D02*
G03X75203I333J372D01*
G01X86870Y601870D02*
G03X75203Y607088I-7000J0D01*
G01X744540Y288969D02*
X746370D01*
X743640Y288069D02*
X746370D01*
X742740Y287169D02*
X746370D01*
X741840Y286269D02*
X746370D01*
X740940Y285369D02*
X746370D01*
X740040Y284469D02*
X746370D01*
X739140Y283569D02*
X746370D01*
X738240Y282669D02*
X746370D01*
X737340Y281769D02*
X746370D01*
X736440Y280869D02*
X746370D01*
X735540Y279969D02*
X746370D01*
X734640Y279069D02*
X746370D01*
X733740Y278169D02*
X746370D01*
X732840Y277269D02*
X746370D01*
X731940Y276369D02*
X746370D01*
X730968Y275469D02*
X746370D01*
X728959Y274569D02*
X746370D01*
X679099Y273669D02*
X746370D01*
X679910Y272769D02*
X746370D01*
X680325Y271869D02*
X746370D01*
X680469Y270969D02*
X746370D01*
X680470Y270069D02*
X746370D01*
X680470Y269169D02*
X746370D01*
X680470Y268269D02*
X746370D01*
X680470Y267369D02*
X746370D01*
X680470Y266469D02*
X746370D01*
X680470Y265569D02*
X746370D01*
X733363Y264669D02*
X746370D01*
X736193Y263769D02*
X746370D01*
X738160Y262869D02*
X746370D01*
X739722Y261969D02*
X746370D01*
X741030Y261069D02*
X746370D01*
X742156Y260169D02*
X746370D01*
X743143Y259269D02*
X746370D01*
X744015Y258369D02*
X746370D01*
X744793Y257469D02*
X746370D01*
X745440Y289869D02*
X746289D01*
X745489Y256569D02*
X746251D01*
X680470Y264669D02*
X723378D01*
X680469Y263769D02*
X720548D01*
X680324Y262869D02*
X718580D01*
X679909Y261969D02*
X717018D01*
X679068Y261069D02*
X715710D01*
X677544Y260169D02*
X714584D01*
X677325Y259269D02*
X713597D01*
X676874Y258369D02*
X712725D01*
X294470Y230469D02*
X712115D01*
X676087Y257469D02*
X711947D01*
X294470Y231369D02*
X711402D01*
X675187Y256569D02*
X711252D01*
X294470Y232269D02*
X710764D01*
X674287Y255669D02*
X710630D01*
X294470Y233169D02*
X710193D01*
X672914Y254769D02*
X710073D01*
X294470Y234069D02*
X709683D01*
X481930Y253869D02*
X709576D01*
X294470Y234969D02*
X709229D01*
X481282Y252969D02*
X709134D01*
X294470Y235869D02*
X708826D01*
X480232Y252069D02*
X708742D01*
X294470Y236769D02*
X708472D01*
X479140Y251169D02*
X708399D01*
X464459Y237669D02*
X708165D01*
X478240Y250269D02*
X708102D01*
X466468Y238569D02*
X707901D01*
X477340Y249369D02*
X707848D01*
X467440Y239469D02*
X707680D01*
X476440Y248469D02*
X707636D01*
X468340Y240369D02*
X707501D01*
X475540Y247569D02*
X707466D01*
X469240Y241269D02*
X707361D01*
X474640Y246669D02*
X707335D01*
X470140Y242169D02*
X707260D01*
X473740Y245769D02*
X707243D01*
X471040Y243069D02*
X707199D01*
X472840Y244869D02*
X707190D01*
X471940Y243969D02*
X707175D01*
X482337Y254769D02*
X644059D01*
X482559Y255669D02*
X642687D01*
X482619Y256569D02*
X641787D01*
X482994Y257469D02*
X640887D01*
X542716Y258369D02*
X639987D01*
X543654Y259269D02*
X639087D01*
X544554Y260169D02*
X638187D01*
X545454Y261069D02*
X637287D01*
X546354Y261969D02*
X636387D01*
X547254Y262869D02*
X635487D01*
X548154Y263769D02*
X634587D01*
X549054Y264669D02*
X633687D01*
X549954Y265569D02*
X632787D01*
X550854Y266469D02*
X631887D01*
X551754Y267369D02*
X630987D01*
X552654Y268269D02*
X630087D01*
X553554Y269169D02*
X629187D01*
X554454Y270069D02*
X628287D01*
X555354Y270969D02*
X627387D01*
X556254Y271869D02*
X626135D01*
X557154Y272769D02*
X624168D01*
X558054Y273669D02*
X623050D01*
X558954Y274569D02*
X622368D01*
X559854Y275469D02*
X621939D01*
X560754Y276369D02*
X621698D01*
X561654Y277269D02*
X567742D01*
X562554Y278169D02*
X566547D01*
X563454Y279069D02*
X565830D01*
X564354Y279969D02*
X565376D01*
X294470Y237669D02*
X375081D01*
X294470Y238569D02*
X373072D01*
X294470Y239469D02*
X372100D01*
X294470Y240369D02*
X371200D01*
X294470Y241269D02*
X370300D01*
X294470Y242169D02*
X369400D01*
X294470Y243069D02*
X368500D01*
X294470Y243969D02*
X367600D01*
X294470Y244869D02*
X366700D01*
X294470Y245769D02*
X365800D01*
X294470Y246669D02*
X364900D01*
X294470Y247569D02*
X364000D01*
X320353Y248469D02*
X363100D01*
X321926Y249369D02*
X362200D01*
X322894Y250269D02*
X361300D01*
X323568Y251169D02*
X360400D01*
X324044Y252069D02*
X359500D01*
X324364Y252969D02*
X358600D01*
X324552Y253869D02*
X357700D01*
X324616Y254769D02*
X356800D01*
X324562Y255669D02*
X355900D01*
X324387Y256569D02*
X355000D01*
X324079Y257469D02*
X354100D01*
X323619Y258369D02*
X353200D01*
X322965Y259269D02*
X352300D01*
X322031Y260169D02*
X351400D01*
X320544Y261069D02*
X350500D01*
X294470Y261969D02*
X349600D01*
X294470Y262869D02*
X348700D01*
X294470Y263769D02*
X347800D01*
X294470Y264669D02*
X346900D01*
X294470Y265569D02*
X346000D01*
X294470Y266469D02*
X345100D01*
X294470Y267369D02*
X344200D01*
X294470Y268269D02*
X343300D01*
X294470Y269169D02*
X342400D01*
X294470Y270069D02*
X341500D01*
X294470Y270969D02*
X340600D01*
X294470Y271869D02*
X339700D01*
X294470Y272769D02*
X338800D01*
X294470Y273669D02*
X337900D01*
X294470Y274569D02*
X337000D01*
X294470Y275469D02*
X336100D01*
X294470Y276369D02*
X335200D01*
X294470Y277269D02*
X334300D01*
X319723Y278169D02*
X333400D01*
X322329Y279069D02*
X332500D01*
X294470Y278169D02*
X315817D01*
X294470Y248469D02*
X315187D01*
X294470Y261069D02*
X314996D01*
X294470Y279069D02*
X313921D01*
X294470Y249369D02*
X313614D01*
X294470Y260169D02*
X313510D01*
X294470Y279969D02*
X312851D01*
X294470Y295269D02*
X312770D01*
X294470Y294369D02*
X312770D01*
X294470Y293469D02*
X312770D01*
X294470Y292569D02*
X312770D01*
X294470Y291669D02*
X312685D01*
X294470Y250269D02*
X312646D01*
X294470Y259269D02*
X312575D01*
X294470Y296169D02*
X312500D01*
X294470Y290769D02*
X312467D01*
X294470Y289869D02*
X312248D01*
X294470Y280869D02*
X312117D01*
X294470Y288969D02*
X312030D01*
X294470Y251169D02*
X311972D01*
X294470Y258369D02*
X311922D01*
X294470Y288069D02*
X311792D01*
X294470Y297069D02*
X311600D01*
X294470Y281769D02*
X311597D01*
X294470Y252069D02*
X311496D01*
X294470Y257469D02*
X311461D01*
X294470Y287169D02*
X311372D01*
X294470Y282669D02*
X311241D01*
X294470Y252969D02*
X311176D01*
X294470Y256569D02*
X311154D01*
X294470Y286269D02*
X311099D01*
X294470Y283569D02*
X311023D01*
X294470Y253869D02*
X310989D01*
X294470Y255669D02*
X310978D01*
X294470Y285369D02*
X310953D01*
X294470Y284469D02*
X310929D01*
X294470Y254769D02*
X310924D01*
X294470Y297969D02*
X310700D01*
X294470Y298869D02*
X309800D01*
X294470Y299769D02*
X308900D01*
X294470Y300669D02*
X308000D01*
X294470Y301569D02*
X307100D01*
X294470Y302469D02*
X306200D01*
X294470Y303369D02*
X305300D01*
X294470Y304269D02*
X304400D01*
X294470Y305169D02*
X303500D01*
X294470Y306069D02*
X302600D01*
X294470Y306969D02*
X301700D01*
X294470Y307869D02*
X300800D01*
X294470Y308769D02*
X299900D01*
X294470Y309669D02*
X299000D01*
X294470Y310569D02*
X298100D01*
X294470Y311469D02*
X297200D01*
X294470Y312369D02*
X296300D01*
X294554Y313269D02*
X295400D01*
X361997Y381669D02*
X746370D01*
X362382Y380769D02*
X746370D01*
X362629Y379869D02*
X746370D01*
X362752Y378969D02*
X746370D01*
X362759Y378069D02*
X746370D01*
X362648Y377169D02*
X746370D01*
X362415Y376269D02*
X746370D01*
X362046Y375369D02*
X746370D01*
X361514Y374469D02*
X746370D01*
X728270Y373569D02*
X746370D01*
X730396Y372669D02*
X746370D01*
X731820Y371769D02*
X746370D01*
X732911Y370869D02*
X746370D01*
X733788Y369969D02*
X746370D01*
X734506Y369069D02*
X746370D01*
X735100Y368169D02*
X746370D01*
X735588Y367269D02*
X746370D01*
X735986Y366369D02*
X746370D01*
X736300Y365469D02*
X746370D01*
X736540Y364569D02*
X746370D01*
X736707Y363669D02*
X746370D01*
X736807Y362769D02*
X746370D01*
X736840Y361869D02*
X746370D01*
X736807Y360969D02*
X746370D01*
X736707Y360069D02*
X746370D01*
X736539Y359169D02*
X746370D01*
X736300Y358269D02*
X746370D01*
X735984Y357369D02*
X746370D01*
X735587Y356469D02*
X746370D01*
X735098Y355569D02*
X746370D01*
X734504Y354669D02*
X746370D01*
X733785Y353769D02*
X746370D01*
X732908Y352869D02*
X746370D01*
X731817Y351969D02*
X746370D01*
X730391Y351069D02*
X746370D01*
X728262Y350169D02*
X746370D01*
X682664Y349269D02*
X746370D01*
X683564Y348369D02*
X746370D01*
X684464Y347469D02*
X746370D01*
X732959Y346569D02*
X746370D01*
X734254Y345669D02*
X746370D01*
X735115Y344769D02*
X746370D01*
X735727Y343869D02*
X746370D01*
X736161Y342969D02*
X746370D01*
X736450Y342069D02*
X746370D01*
X736612Y341169D02*
X746370D01*
X736657Y340269D02*
X746370D01*
X736586Y339369D02*
X746370D01*
X736396Y338469D02*
X746370D01*
X736076Y337569D02*
X746370D01*
X735607Y336669D02*
X746370D01*
X734952Y335769D02*
X746370D01*
X734870Y334869D02*
X746370D01*
X734870Y333969D02*
X746370D01*
X734870Y333069D02*
X746370D01*
X734870Y332169D02*
X746370D01*
X734870Y331269D02*
X746370D01*
X734870Y330369D02*
X746370D01*
X734870Y329469D02*
X746370D01*
X734870Y328569D02*
X746370D01*
X734870Y327669D02*
X746370D01*
X734870Y326769D02*
X746370D01*
X734870Y325869D02*
X746370D01*
X734870Y324969D02*
X746370D01*
X734870Y324069D02*
X746370D01*
X734870Y323169D02*
X746370D01*
X734870Y322269D02*
X746370D01*
X734870Y321369D02*
X746370D01*
X734870Y320469D02*
X746370D01*
X734870Y319569D02*
X746370D01*
X734870Y318669D02*
X746370D01*
X734870Y317769D02*
X746370D01*
X734870Y316869D02*
X746370D01*
X734870Y315969D02*
X746370D01*
X734870Y315069D02*
X746370D01*
X734870Y314169D02*
X746370D01*
X744000Y313269D02*
X746370D01*
X734722Y382569D02*
X746330D01*
X745386Y312369D02*
X746313D01*
X734870Y313269D02*
X739740D01*
X734870Y312369D02*
X738354D01*
X734870Y311469D02*
X737561D01*
X734870Y310569D02*
X737058D01*
X734870Y306069D02*
X736870D01*
X734870Y305169D02*
X736870D01*
X734870Y304269D02*
X736870D01*
X734870Y303369D02*
X736870D01*
X734870Y302469D02*
X736870D01*
X734870Y301569D02*
X736870D01*
X734870Y300669D02*
X736870D01*
X734870Y299769D02*
X736870D01*
X734870Y298869D02*
X736870D01*
X734870Y297969D02*
X736870D01*
X734870Y297069D02*
X736870D01*
X734870Y296169D02*
X736870D01*
X734870Y306969D02*
X736839D01*
X734870Y309669D02*
X736759D01*
X734834Y295269D02*
X736698D01*
X734870Y307869D02*
X736655D01*
X734870Y308769D02*
X736629D01*
X734697Y294369D02*
X735798D01*
X685714Y346569D02*
X726270D01*
X687010Y345669D02*
X724974D01*
X686768Y334869D02*
X724870D01*
X685308Y333969D02*
X724870D01*
X637854Y333069D02*
X724870D01*
X636954Y332169D02*
X724870D01*
X636054Y331269D02*
X724870D01*
X635154Y330369D02*
X724870D01*
X634453Y329469D02*
X724870D01*
X683117Y328569D02*
X724870D01*
X684354Y327669D02*
X724870D01*
X685214Y326769D02*
X724870D01*
X686078Y325869D02*
X724870D01*
X688200Y324969D02*
X724870D01*
X690384Y324069D02*
X724870D01*
X718846Y323169D02*
X724870D01*
X720372Y322269D02*
X724870D01*
X721381Y321369D02*
X724870D01*
X722116Y320469D02*
X724870D01*
X722664Y319569D02*
X724870D01*
X723065Y318669D02*
X724870D01*
X723342Y317769D02*
X724870D01*
X723508Y316869D02*
X724870D01*
X723569Y315969D02*
X724870D01*
X723530Y315069D02*
X724870D01*
X723387Y314169D02*
X724870D01*
X723135Y313269D02*
X724870D01*
X722763Y312369D02*
X724870D01*
X722251Y311469D02*
X724870D01*
X721561Y310569D02*
X724870D01*
X720624Y309669D02*
X724870D01*
X719254Y308769D02*
X724870D01*
X647154Y307869D02*
X724870D01*
X646254Y306969D02*
X724870D01*
X645354Y306069D02*
X724870D01*
X644454Y305169D02*
X724870D01*
X643554Y304269D02*
X724870D01*
X642654Y303369D02*
X724870D01*
X641754Y302469D02*
X724870D01*
X640861Y301569D02*
X724870D01*
X662572Y300669D02*
X724870D01*
X664572Y299769D02*
X724870D01*
X665542Y298869D02*
X724870D01*
X666442Y297969D02*
X724837D01*
X687703Y335769D02*
X724282D01*
X687871Y344769D02*
X724113D01*
X667342Y297069D02*
X723998D01*
X688362Y336669D02*
X723622D01*
X688483Y343869D02*
X723501D01*
X688832Y337569D02*
X723152D01*
X668242Y296169D02*
X723098D01*
X688916Y342969D02*
X723068D01*
X689152Y338469D02*
X722832D01*
X689205Y342069D02*
X722779D01*
X689342Y339369D02*
X722642D01*
X689368Y341169D02*
X722616D01*
X689413Y340269D02*
X722572D01*
X669142Y295269D02*
X722198D01*
X681764Y350169D02*
X720878D01*
X382611Y373569D02*
X720870D01*
X680864Y351069D02*
X718749D01*
X384420Y372669D02*
X718744D01*
X679964Y351969D02*
X717323D01*
X385713Y371769D02*
X717320D01*
X679064Y352869D02*
X716232D01*
X386724Y370869D02*
X716229D01*
X678881Y353769D02*
X715355D01*
X387543Y369969D02*
X715353D01*
X682542Y354669D02*
X714636D01*
X682696Y369069D02*
X714634D01*
X683896Y355569D02*
X714042D01*
X683989Y368169D02*
X714040D01*
X684782Y356469D02*
X713553D01*
X684847Y367269D02*
X713552D01*
X685409Y357369D02*
X713156D01*
X685455Y366369D02*
X713155D01*
X685853Y358269D02*
X712841D01*
X685885Y365469D02*
X712840D01*
X686150Y359169D02*
X712601D01*
X686171Y364569D02*
X712601D01*
X686319Y360069D02*
X712433D01*
X686329Y363669D02*
X712433D01*
X686370Y360969D02*
X712333D01*
X686370Y362769D02*
X712333D01*
X686370Y361869D02*
X712300D01*
X693246Y323169D02*
X712294D01*
X693654Y308769D02*
X711886D01*
X694772Y322269D02*
X710768D01*
X695075Y309669D02*
X710465D01*
X696660Y321369D02*
X708880D01*
X697105Y310569D02*
X708435D01*
X698690Y320469D02*
X706850D01*
X699135Y311469D02*
X706405D01*
X648054Y308769D02*
X686286D01*
X648954Y309669D02*
X684916D01*
X649854Y310569D02*
X683979D01*
X650754Y311469D02*
X683290D01*
X651654Y312369D02*
X682777D01*
X652554Y313269D02*
X682405D01*
X653454Y314169D02*
X682153D01*
X654354Y315069D02*
X682010D01*
X655261Y315969D02*
X681711D01*
X657047Y316869D02*
X681387D01*
X658339Y317769D02*
X681063D01*
X659078Y318669D02*
X680739D01*
X659534Y319569D02*
X680416D01*
X659798Y320469D02*
X679918D01*
X638754Y333969D02*
X679432D01*
X639654Y334869D02*
X677972D01*
X640554Y335769D02*
X677038D01*
X641454Y336669D02*
X676378D01*
X672696Y369069D02*
X676045D01*
X642354Y337569D02*
X675908D01*
X670042Y294369D02*
X675865D01*
X643254Y338469D02*
X675079D01*
X673989Y368169D02*
X674751D01*
X670942Y293469D02*
X674189D01*
X644154Y339369D02*
X674179D01*
X671842Y292569D02*
X673307D01*
X645054Y340269D02*
X673279D01*
X645954Y341169D02*
X672379D01*
X646854Y342069D02*
X671479D01*
X647754Y342969D02*
X670579D01*
X648654Y343869D02*
X669679D01*
X649554Y344769D02*
X668779D01*
X650454Y345669D02*
X667879D01*
X651354Y346569D02*
X666979D01*
X652254Y347469D02*
X666079D01*
X662696Y369069D02*
X666045D01*
X652938Y348369D02*
X665179D01*
X663989Y368169D02*
X664751D01*
X653310Y349269D02*
X664327D01*
X653456Y350169D02*
X663713D01*
X653461Y351069D02*
X663291D01*
X653461Y351969D02*
X663023D01*
X653461Y352869D02*
X662889D01*
X653742Y353769D02*
X662870D01*
X654117Y354669D02*
X656199D01*
X652696Y369069D02*
X656045D01*
X653989Y368169D02*
X654751D01*
X642696Y369069D02*
X646045D01*
X643989Y368169D02*
X644751D01*
X632696Y369069D02*
X636045D01*
X633989Y368169D02*
X634751D01*
X622696Y369069D02*
X626045D01*
X623989Y368169D02*
X624751D01*
X612696Y369069D02*
X616045D01*
X613989Y368169D02*
X614751D01*
X602696Y369069D02*
X606045D01*
X603989Y368169D02*
X604751D01*
X592696Y369069D02*
X596045D01*
X593989Y368169D02*
X594751D01*
X582696Y369069D02*
X586045D01*
X583989Y368169D02*
X584751D01*
X572696Y369069D02*
X576045D01*
X573989Y368169D02*
X574751D01*
X562696Y369069D02*
X566045D01*
X563989Y368169D02*
X564751D01*
X552696Y369069D02*
X556045D01*
X553989Y368169D02*
X554751D01*
X542696Y369069D02*
X546045D01*
X543989Y368169D02*
X544751D01*
X532696Y369069D02*
X536045D01*
X533989Y368169D02*
X534751D01*
X522696Y369069D02*
X526045D01*
X523989Y368169D02*
X524751D01*
X512696Y369069D02*
X516045D01*
X513989Y368169D02*
X514751D01*
X502696Y369069D02*
X506045D01*
X503989Y368169D02*
X504751D01*
X388217Y369069D02*
X496045D01*
X388774Y368169D02*
X494751D01*
X389230Y367269D02*
X493893D01*
X389362Y357369D02*
X493329D01*
X389599Y366369D02*
X493285D01*
X389703Y358269D02*
X492887D01*
X389888Y365469D02*
X492855D01*
X389967Y359169D02*
X492590D01*
X390103Y364569D02*
X492570D01*
X390159Y360069D02*
X492421D01*
X390248Y363669D02*
X492411D01*
X390325Y362769D02*
X492370D01*
X390336Y361869D02*
X492370D01*
X390281Y360969D02*
X492370D01*
X361662Y382569D02*
X379018D01*
X360768Y373569D02*
X373529D01*
X359687Y372669D02*
X371720D01*
X357793Y371769D02*
X370427D01*
X333256Y370869D02*
X369417D01*
X334156Y369969D02*
X368597D01*
X335056Y369069D02*
X367923D01*
X335956Y368169D02*
X367367D01*
X336856Y367269D02*
X366910D01*
X247067Y666969D02*
X366870D01*
X247964Y666069D02*
X366870D01*
X350502Y665169D02*
X366870D01*
X353672Y664269D02*
X366870D01*
X354861Y663369D02*
X366870D01*
X355645Y662469D02*
X366870D01*
X355243Y654369D02*
X366870D01*
X354268Y653469D02*
X366870D01*
X352612Y652569D02*
X366870D01*
X290746Y651669D02*
X366870D01*
X290965Y650769D02*
X366870D01*
X291075Y649869D02*
X366870D01*
X291080Y648969D02*
X366870D01*
X290982Y648069D02*
X366870D01*
X290775Y647169D02*
X366870D01*
X290450Y646269D02*
X366870D01*
X289991Y645369D02*
X366870D01*
X289381Y644469D02*
X366870D01*
X288985Y643569D02*
X366870D01*
X288590Y642669D02*
X366870D01*
X288194Y641769D02*
X366870D01*
X287798Y640869D02*
X366870D01*
X287403Y639969D02*
X366870D01*
X287350Y639069D02*
X366870D01*
X287350Y638169D02*
X366870D01*
X287756Y637269D02*
X366870D01*
X288656Y636369D02*
X366870D01*
X289556Y635469D02*
X366870D01*
X290456Y634569D02*
X366870D01*
X291356Y633669D02*
X366870D01*
X292256Y632769D02*
X366870D01*
X293161Y631869D02*
X366870D01*
X343489Y630969D02*
X366870D01*
X344456Y630069D02*
X366870D01*
X345356Y629169D02*
X366870D01*
X346256Y628269D02*
X366870D01*
X347156Y627369D02*
X366870D01*
X348056Y626469D02*
X366870D01*
X348956Y625569D02*
X366870D01*
X349856Y624669D02*
X366870D01*
X350756Y623769D02*
X366870D01*
X351656Y622869D02*
X366870D01*
X352556Y621969D02*
X366870D01*
X353456Y621069D02*
X366870D01*
X354356Y620169D02*
X366870D01*
X355256Y619269D02*
X366870D01*
X356156Y618369D02*
X366870D01*
X357056Y617469D02*
X366870D01*
X357956Y616569D02*
X366870D01*
X358856Y615669D02*
X366870D01*
X359756Y614769D02*
X366870D01*
X360656Y613869D02*
X366870D01*
X361556Y612969D02*
X366870D01*
X362533Y612069D02*
X366870D01*
X364347Y611169D02*
X366870D01*
X365542Y610269D02*
X366870D01*
X365332Y603069D02*
X366870D01*
X363927Y602169D02*
X366870D01*
X362739Y601269D02*
X366870D01*
X362356Y600369D02*
X366870D01*
X361725Y599469D02*
X366870D01*
X360681Y598569D02*
X366870D01*
X316242Y597669D02*
X366870D01*
X317142Y596769D02*
X366870D01*
X318042Y595869D02*
X366870D01*
X318942Y594969D02*
X366870D01*
X319842Y594069D02*
X366870D01*
X320742Y593169D02*
X366870D01*
X321642Y592269D02*
X366870D01*
X322542Y591369D02*
X366870D01*
X323442Y590469D02*
X366870D01*
X324342Y589569D02*
X366870D01*
X325242Y588669D02*
X366870D01*
X326142Y587769D02*
X366870D01*
X327042Y586869D02*
X366870D01*
X343128Y585969D02*
X366870D01*
X344701Y585069D02*
X366870D01*
X345614Y584169D02*
X366870D01*
X346223Y583269D02*
X366870D01*
X346627Y582369D02*
X366870D01*
X346869Y581469D02*
X366870D01*
X346967Y580569D02*
X366870D01*
X346929Y579669D02*
X366870D01*
X346752Y578769D02*
X366870D01*
X346424Y577869D02*
X366870D01*
X345913Y576969D02*
X366870D01*
X345153Y576069D02*
X366870D01*
X350575Y575169D02*
X366870D01*
X352251Y574269D02*
X366870D01*
X353133Y573369D02*
X366870D01*
X353690Y572469D02*
X366870D01*
X354030Y571569D02*
X366870D01*
X354196Y570669D02*
X366870D01*
X354205Y569769D02*
X366870D01*
X354056Y568869D02*
X366870D01*
X353736Y567969D02*
X366870D01*
X353206Y567069D02*
X366870D01*
X352369Y566169D02*
X366870D01*
X350852Y565269D02*
X366870D01*
X297802Y564369D02*
X366870D01*
X297918Y563469D02*
X366870D01*
X297918Y562569D02*
X366870D01*
X298328Y561669D02*
X366870D01*
X342720Y560769D02*
X366870D01*
X343656Y559869D02*
X366870D01*
X345086Y558969D02*
X366870D01*
X346984Y558069D02*
X366870D01*
X347972Y557169D02*
X366870D01*
X348587Y556269D02*
X366870D01*
X348971Y555369D02*
X366870D01*
X349173Y554469D02*
X366870D01*
X349216Y553569D02*
X366870D01*
X349103Y552669D02*
X366870D01*
X348824Y551769D02*
X366870D01*
X348346Y550869D02*
X366870D01*
X347591Y549969D02*
X366870D01*
X346307Y549069D02*
X366870D01*
X294590Y548169D02*
X366870D01*
X238370Y547269D02*
X366870D01*
X348253Y546369D02*
X366870D01*
X349190Y545469D02*
X366870D01*
X350090Y544569D02*
X366870D01*
X350956Y543669D02*
X366870D01*
X351694Y542769D02*
X366870D01*
X352261Y541869D02*
X366870D01*
X352598Y540969D02*
X366870D01*
X352754Y540069D02*
X366870D01*
X352745Y539169D02*
X366870D01*
X352570Y538269D02*
X366870D01*
X352209Y537369D02*
X366870D01*
X351611Y536469D02*
X366870D01*
X350630Y535569D02*
X366870D01*
X336754Y534669D02*
X366870D01*
X335854Y533769D02*
X366870D01*
X334954Y532869D02*
X366870D01*
X334054Y531969D02*
X366870D01*
X333154Y531069D02*
X366870D01*
X332254Y530169D02*
X366870D01*
X331354Y529269D02*
X366870D01*
X330454Y528369D02*
X366870D01*
X329554Y527469D02*
X366870D01*
X328654Y526569D02*
X366870D01*
X327754Y525669D02*
X366870D01*
X326854Y524769D02*
X366870D01*
X325954Y523869D02*
X366870D01*
X325054Y522969D02*
X366870D01*
X324154Y522069D02*
X366870D01*
X336502Y521169D02*
X366870D01*
X338784Y520269D02*
X366870D01*
X339772Y519369D02*
X366870D01*
X340387Y518469D02*
X366870D01*
X340771Y517569D02*
X366870D01*
X340973Y516669D02*
X366870D01*
X341016Y515769D02*
X366870D01*
X340903Y514869D02*
X366870D01*
X340770Y513969D02*
X366870D01*
X340770Y513069D02*
X366870D01*
X340770Y512169D02*
X366870D01*
X340770Y511269D02*
X366870D01*
X340770Y510369D02*
X366870D01*
X340770Y509469D02*
X366870D01*
X340770Y508569D02*
X366870D01*
X340770Y507669D02*
X366870D01*
X340770Y506769D02*
X366870D01*
X340770Y505869D02*
X366870D01*
X340770Y504969D02*
X366870D01*
X340770Y504069D02*
X366870D01*
X340770Y503169D02*
X366870D01*
X340770Y502269D02*
X366870D01*
X340770Y501369D02*
X366870D01*
X340770Y500469D02*
X366870D01*
X340770Y499569D02*
X366870D01*
X340770Y498669D02*
X366870D01*
X340770Y497769D02*
X366870D01*
X340770Y496869D02*
X366870D01*
X340770Y495969D02*
X366870D01*
X340770Y495069D02*
X366870D01*
X340770Y494169D02*
X366870D01*
X340770Y493269D02*
X366870D01*
X340770Y492369D02*
X366870D01*
X340770Y491469D02*
X366870D01*
X340770Y490569D02*
X366870D01*
X340770Y489669D02*
X366870D01*
X340770Y488769D02*
X366870D01*
X340770Y487869D02*
X366870D01*
X340770Y486969D02*
X366870D01*
X340770Y486069D02*
X366870D01*
X340770Y485169D02*
X366870D01*
X340770Y484269D02*
X366870D01*
X340770Y483369D02*
X366870D01*
X340770Y482469D02*
X366870D01*
X340770Y481569D02*
X366870D01*
X340770Y480669D02*
X366870D01*
X340770Y479769D02*
X366870D01*
X340770Y478869D02*
X366870D01*
X340770Y477969D02*
X366870D01*
X340770Y477069D02*
X366870D01*
X340770Y476169D02*
X366870D01*
X340769Y475269D02*
X366870D01*
X340669Y474369D02*
X366870D01*
X340394Y473469D02*
X366870D01*
X339912Y472569D02*
X366870D01*
X339140Y471669D02*
X366870D01*
X338240Y470769D02*
X366870D01*
X337340Y469869D02*
X366870D01*
X336440Y468969D02*
X366870D01*
X335540Y468069D02*
X366870D01*
X334640Y467169D02*
X366870D01*
X333740Y466269D02*
X366870D01*
X332840Y465369D02*
X366870D01*
X331940Y464469D02*
X366870D01*
X331869Y463569D02*
X366870D01*
X333352Y462669D02*
X366870D01*
X334256Y461769D02*
X366870D01*
X335156Y460869D02*
X366870D01*
X336056Y459969D02*
X366870D01*
X353952Y459069D02*
X366870D01*
X355523Y458169D02*
X366870D01*
X356542Y457269D02*
X366870D01*
X357280Y456369D02*
X366870D01*
X357825Y455469D02*
X366870D01*
X358221Y454569D02*
X366870D01*
X358491Y453669D02*
X366870D01*
X358649Y452769D02*
X366870D01*
X358701Y451869D02*
X366870D01*
X358649Y450969D02*
X366870D01*
X358491Y450069D02*
X366870D01*
X358220Y449169D02*
X366870D01*
X357824Y448269D02*
X366870D01*
X357278Y447369D02*
X366870D01*
X357208Y446469D02*
X366870D01*
X357772Y445569D02*
X366870D01*
X358184Y444669D02*
X366870D01*
X358467Y443769D02*
X366870D01*
X358637Y442869D02*
X366870D01*
X358700Y441969D02*
X366870D01*
X358660Y441069D02*
X366870D01*
X358514Y440169D02*
X366870D01*
X358256Y439269D02*
X366870D01*
X357874Y438369D02*
X366870D01*
X357347Y437469D02*
X366870D01*
X356633Y436569D02*
X366870D01*
X355652Y435669D02*
X366870D01*
X354170Y434769D02*
X366870D01*
X348049Y433869D02*
X366870D01*
X348742Y432969D02*
X366870D01*
X349642Y432069D02*
X366870D01*
X350542Y431169D02*
X366870D01*
X351442Y430269D02*
X366870D01*
X352342Y429369D02*
X366870D01*
X353242Y428469D02*
X366870D01*
X354142Y427569D02*
X366870D01*
X355042Y426669D02*
X366870D01*
X355942Y425769D02*
X366870D01*
X356842Y424869D02*
X366870D01*
X357742Y423969D02*
X366870D01*
X358642Y423069D02*
X366870D01*
X359528Y422169D02*
X366870D01*
X360157Y421269D02*
X366870D01*
X360540Y420369D02*
X366870D01*
X360734Y419469D02*
X366870D01*
X360770Y418569D02*
X366870D01*
X360770Y417669D02*
X366870D01*
X360770Y416769D02*
X366870D01*
X360770Y415869D02*
X366870D01*
X360770Y414969D02*
X366870D01*
X360770Y414069D02*
X366870D01*
X360770Y413169D02*
X366870D01*
X360979Y412269D02*
X366870D01*
X361207Y411369D02*
X366870D01*
X361435Y410469D02*
X366870D01*
X361662Y409569D02*
X366870D01*
X361997Y408669D02*
X366870D01*
X362382Y407769D02*
X366870D01*
X362629Y406869D02*
X366870D01*
X362752Y405969D02*
X366870D01*
X362759Y405069D02*
X366870D01*
X362648Y404169D02*
X366870D01*
X362415Y403269D02*
X366870D01*
X362046Y402369D02*
X366870D01*
X361687Y401469D02*
X366870D01*
X361459Y400569D02*
X366870D01*
X361231Y399669D02*
X366870D01*
X361003Y398769D02*
X366870D01*
X360777Y397869D02*
X366870D01*
X360770Y396969D02*
X366870D01*
X360770Y396069D02*
X366870D01*
X360770Y395169D02*
X366870D01*
X360770Y394269D02*
X366870D01*
X360770Y393369D02*
X366870D01*
X360770Y392469D02*
X366870D01*
X360770Y391569D02*
X366870D01*
X360770Y390669D02*
X366870D01*
X360770Y389769D02*
X366870D01*
X360770Y388869D02*
X366870D01*
X360770Y387969D02*
X366870D01*
X360770Y387069D02*
X366870D01*
X360770Y386169D02*
X366870D01*
X360979Y385269D02*
X366870D01*
X361207Y384369D02*
X366870D01*
X361435Y383469D02*
X366870D01*
X355909Y655269D02*
X366826D01*
X346756Y357369D02*
X366779D01*
X356188Y661569D02*
X366552D01*
X337756Y366369D02*
X366541D01*
X345856Y358269D02*
X366437D01*
X366334Y603969D02*
X366406D01*
X356370Y656169D02*
X366371D01*
X338656Y365469D02*
X366252D01*
X356555Y660669D02*
X366185D01*
X344956Y359169D02*
X366173D01*
X356670Y657069D02*
X366070D01*
X339556Y364569D02*
X366037D01*
X344056Y360069D02*
X365981D01*
X356777Y659769D02*
X365964D01*
X356832Y657969D02*
X365908D01*
X340456Y363669D02*
X365892D01*
X356867Y658869D02*
X365873D01*
X343156Y360969D02*
X365859D01*
X341356Y362769D02*
X365815D01*
X342256Y361869D02*
X365804D01*
X315342Y598569D02*
X355259D01*
X314442Y599469D02*
X354215D01*
X347793Y371769D02*
X353747D01*
X313542Y600369D02*
X353584D01*
X312642Y601269D02*
X353200D01*
X311742Y602169D02*
X352693D01*
X310901Y603069D02*
X351887D01*
X349687Y372669D02*
X351853D01*
X310851Y603969D02*
X350987D01*
X276270Y415869D02*
X350770D01*
X276270Y414969D02*
X350770D01*
X276270Y414069D02*
X350770D01*
X276270Y413169D02*
X350770D01*
X276270Y396969D02*
X350770D01*
X276270Y396069D02*
X350770D01*
X276270Y395169D02*
X350770D01*
X276381Y394269D02*
X350770D01*
X276512Y393369D02*
X350770D01*
X276486Y392469D02*
X350770D01*
X276301Y391569D02*
X350770D01*
X275939Y390669D02*
X350770D01*
X275352Y389769D02*
X350770D01*
X274418Y388869D02*
X350770D01*
X273470Y387969D02*
X350770D01*
X273470Y387069D02*
X350770D01*
X273470Y386169D02*
X350770D01*
X276270Y397869D02*
X350763D01*
X276270Y416769D02*
X350738D01*
X347437Y412269D02*
X350561D01*
X347437Y385269D02*
X350561D01*
X347793Y398769D02*
X350537D01*
X349539Y411369D02*
X350258D01*
X349539Y384369D02*
X350258D01*
X328502Y665169D02*
X350238D01*
X349698Y399669D02*
X350118D01*
X310718Y604869D02*
X350087D01*
X276270Y417669D02*
X349900D01*
X310450Y605769D02*
X349187D01*
X276270Y418569D02*
X349000D01*
X310029Y606669D02*
X348287D01*
X330612Y652569D02*
X348129D01*
X276270Y419469D02*
X348100D01*
X336956Y459069D02*
X347788D01*
X309415Y607569D02*
X347387D01*
X276270Y420369D02*
X347200D01*
X331672Y664269D02*
X347068D01*
X308525Y608469D02*
X346487D01*
X332268Y653469D02*
X346472D01*
X276270Y421269D02*
X346300D01*
X337856Y458169D02*
X346217D01*
X332861Y663369D02*
X345879D01*
X307101Y609369D02*
X345587D01*
X333243Y654369D02*
X345497D01*
X276270Y422169D02*
X345400D01*
X338756Y457269D02*
X345198D01*
X333645Y662469D02*
X345096D01*
X338481Y535569D02*
X344910D01*
X333909Y655269D02*
X344831D01*
X281142Y610269D02*
X344687D01*
X334188Y661569D02*
X344552D01*
X276270Y423069D02*
X344500D01*
X339653Y456369D02*
X344461D01*
X334370Y656169D02*
X344371D01*
X341556Y447369D02*
X344322D01*
X334555Y660669D02*
X344185D01*
X276270Y412269D02*
X344103D01*
X273470Y385269D02*
X344103D01*
X334670Y657069D02*
X344070D01*
X334777Y659769D02*
X343964D01*
X339525Y536469D02*
X343929D01*
X340771Y448269D02*
X343917D01*
X340293Y455469D02*
X343915D01*
X334832Y657969D02*
X343908D01*
X334867Y658869D02*
X343873D01*
X280242Y611169D02*
X343787D01*
X276270Y398769D02*
X343747D01*
X332356Y371769D02*
X343747D01*
X276270Y423969D02*
X343600D01*
X340761Y449169D02*
X343520D01*
X340637Y454569D02*
X343519D01*
X340156Y537369D02*
X343331D01*
X340761Y450069D02*
X343249D01*
X340759Y453669D02*
X343249D01*
X340761Y450969D02*
X343091D01*
X340761Y452769D02*
X343091D01*
X342467Y446469D02*
X343054D01*
X340761Y451869D02*
X343039D01*
X340539Y538269D02*
X342970D01*
X279342Y612069D02*
X342887D01*
X276270Y424869D02*
X342700D01*
X276270Y411369D02*
X342001D01*
X273470Y384369D02*
X342001D01*
X278442Y612969D02*
X341987D01*
X276270Y399669D02*
X341853D01*
X330987Y372669D02*
X341853D01*
X276270Y425769D02*
X341800D01*
X296766Y549069D02*
X341633D01*
X277542Y613869D02*
X341087D01*
X276270Y426669D02*
X340900D01*
X276270Y410469D02*
X340870D01*
X273470Y383469D02*
X340870D01*
X276270Y400569D02*
X340772D01*
X275180Y373569D02*
X340772D01*
X297480Y549969D02*
X340349D01*
X276534Y614769D02*
X340187D01*
X276270Y409569D02*
X340095D01*
X273470Y382569D02*
X340095D01*
X276270Y401469D02*
X340026D01*
X273470Y374469D02*
X340026D01*
X276270Y427569D02*
X340000D01*
X297826Y550869D02*
X339595D01*
X276270Y408669D02*
X339544D01*
X273470Y381669D02*
X339544D01*
X276270Y402369D02*
X339495D01*
X273470Y375369D02*
X339495D01*
X273786Y615669D02*
X339287D01*
X276270Y407769D02*
X339158D01*
X273470Y380769D02*
X339158D01*
X276270Y403269D02*
X339125D01*
X273470Y376269D02*
X339125D01*
X297918Y551769D02*
X339116D01*
X276270Y428469D02*
X339100D01*
X276270Y406869D02*
X338911D01*
X273470Y379869D02*
X338911D01*
X276270Y404169D02*
X338892D01*
X273470Y377169D02*
X338892D01*
X333128Y585969D02*
X338813D01*
X276270Y405969D02*
X338788D01*
X273470Y378969D02*
X338788D01*
X276270Y405069D02*
X338782D01*
X273470Y378069D02*
X338782D01*
X297918Y552669D02*
X338764D01*
X238224Y616569D02*
X338387D01*
X276270Y429369D02*
X338200D01*
X237908Y617469D02*
X337487D01*
X276270Y430269D02*
X337300D01*
X334701Y585069D02*
X337239D01*
X237371Y618369D02*
X336587D01*
X276440Y431169D02*
X336400D01*
X335618Y584169D02*
X336323D01*
X236542Y619269D02*
X335687D01*
X323254Y521169D02*
X335038D01*
X235642Y620169D02*
X334787D01*
X322354Y520269D02*
X332756D01*
X321454Y519369D02*
X331769D01*
X238370Y546369D02*
X331320D01*
X320554Y518469D02*
X331153D01*
X316054Y513969D02*
X330770D01*
X315154Y513069D02*
X330770D01*
X314878Y512169D02*
X330770D01*
X315884Y511269D02*
X330770D01*
X316532Y510369D02*
X330770D01*
X316938Y509469D02*
X330770D01*
X317159Y508569D02*
X330770D01*
X317219Y507669D02*
X330770D01*
X317124Y506769D02*
X330770D01*
X316864Y505869D02*
X330770D01*
X318554Y494169D02*
X330770D01*
X317654Y493269D02*
X330770D01*
X316754Y492369D02*
X330770D01*
X315854Y491469D02*
X330770D01*
X314954Y490569D02*
X330770D01*
X314054Y489669D02*
X330770D01*
X313154Y488769D02*
X330770D01*
X312254Y487869D02*
X330770D01*
X311354Y486969D02*
X330770D01*
X310454Y486069D02*
X330770D01*
X309554Y485169D02*
X330770D01*
X308654Y484269D02*
X330770D01*
X307754Y483369D02*
X330770D01*
X306854Y482469D02*
X330770D01*
X305954Y481569D02*
X330770D01*
X305054Y480669D02*
X330770D01*
X304154Y479769D02*
X330770D01*
X303254Y478869D02*
X330770D01*
X302354Y477969D02*
X330770D01*
X319654Y517569D02*
X330769D01*
X316954Y514869D02*
X330637D01*
X318754Y516669D02*
X330567D01*
X317854Y515769D02*
X330524D01*
X301454Y477069D02*
X330398D01*
X238370Y545469D02*
X330384D01*
X300554Y476169D02*
X329498D01*
X325733Y544569D02*
X329484D01*
X327779Y585969D02*
X328813D01*
X319454Y495069D02*
X328714D01*
X299654Y475269D02*
X328598D01*
X327135Y543669D02*
X328584D01*
X306502Y665169D02*
X328238D01*
X298979Y474369D02*
X327698D01*
X297424Y565269D02*
X327381D01*
X320354Y495969D02*
X327308D01*
X299737Y473469D02*
X326798D01*
X321254Y496869D02*
X326528D01*
X308612Y652569D02*
X326129D01*
X300401Y472569D02*
X325898D01*
X296653Y566169D02*
X325372D01*
X309672Y664269D02*
X325068D01*
X310268Y653469D02*
X324472D01*
X238370Y567069D02*
X324400D01*
X310861Y663369D02*
X323879D01*
X238370Y567969D02*
X323500D01*
X311243Y654369D02*
X323497D01*
X311645Y662469D02*
X323096D01*
X311909Y655269D02*
X322831D01*
X238370Y568869D02*
X322600D01*
X312188Y661569D02*
X322552D01*
X312370Y656169D02*
X322371D01*
X312555Y660669D02*
X322185D01*
X312670Y657069D02*
X322070D01*
X312777Y659769D02*
X321964D01*
X312832Y657969D02*
X321908D01*
X312867Y658869D02*
X321873D01*
X238370Y544569D02*
X321807D01*
X238370Y569769D02*
X321700D01*
X238370Y570669D02*
X320800D01*
X238370Y543669D02*
X320406D01*
X238370Y571569D02*
X319905D01*
X300808Y471669D02*
X319705D01*
X238370Y542769D02*
X319627D01*
X238370Y572469D02*
X319241D01*
X238370Y541869D02*
X319145D01*
X238370Y573369D02*
X318833D01*
X238370Y540969D02*
X318720D01*
X238370Y574269D02*
X318619D01*
X238370Y580569D02*
X318570D01*
X238370Y579669D02*
X318570D01*
X238370Y578769D02*
X318570D01*
X238370Y577869D02*
X318570D01*
X238370Y576969D02*
X318570D01*
X238370Y576069D02*
X318570D01*
X238370Y575169D02*
X318570D01*
X238370Y581469D02*
X318300D01*
X316411Y504969D02*
X318123D01*
X277340Y432069D02*
X318118D01*
X238742Y540069D02*
X318084D01*
X238370Y582369D02*
X317400D01*
X239642Y539169D02*
X317184D01*
X301780Y470769D02*
X316956D01*
X278240Y432969D02*
X316572D01*
X238370Y583269D02*
X316500D01*
X240542Y538269D02*
X316284D01*
X303321Y469869D02*
X315948D01*
X279140Y433869D02*
X315650D01*
X238370Y584169D02*
X315600D01*
X241442Y537369D02*
X315384D01*
X304144Y468969D02*
X315048D01*
X280011Y434769D02*
X314750D01*
X238370Y585069D02*
X314700D01*
X242342Y536469D02*
X314484D01*
X304653Y468069D02*
X314148D01*
X280609Y435669D02*
X313850D01*
X238370Y585969D02*
X313800D01*
X243242Y535569D02*
X313584D01*
X304948Y467169D02*
X313248D01*
X280970Y436569D02*
X312950D01*
X238370Y586869D02*
X312900D01*
X244142Y534669D02*
X312684D01*
X305066Y466269D02*
X312348D01*
X281145Y437469D02*
X312050D01*
X238370Y587769D02*
X312000D01*
X245042Y533769D02*
X311784D01*
X305021Y465369D02*
X311448D01*
X281170Y438369D02*
X311150D01*
X238370Y588669D02*
X311100D01*
X245942Y532869D02*
X310884D01*
X304807Y464469D02*
X310607D01*
X281170Y439269D02*
X310395D01*
X238370Y589569D02*
X310200D01*
X304399Y463569D02*
X310055D01*
X246842Y531969D02*
X309984D01*
X281170Y440169D02*
X309925D01*
X303735Y462669D02*
X309728D01*
X281170Y441069D02*
X309661D01*
X302619Y461769D02*
X309582D01*
X281170Y441969D02*
X309570D01*
X300924Y460869D02*
X309570D01*
X300607Y459969D02*
X309570D01*
X300069Y459069D02*
X309570D01*
X299197Y458169D02*
X309570D01*
X297466Y457269D02*
X309570D01*
X290772Y456369D02*
X309570D01*
X290340Y455469D02*
X309570D01*
X289648Y454569D02*
X309570D01*
X289689Y453669D02*
X309570D01*
X289770Y452769D02*
X309570D01*
X289688Y451869D02*
X309570D01*
X289434Y450969D02*
X309570D01*
X288978Y450069D02*
X309570D01*
X288239Y449169D02*
X309570D01*
X286947Y448269D02*
X309570D01*
X280084Y447369D02*
X309570D01*
X280732Y446469D02*
X309570D01*
X281138Y445569D02*
X309570D01*
X281359Y444669D02*
X309570D01*
X281419Y443769D02*
X309570D01*
X281324Y442869D02*
X309570D01*
X238370Y590469D02*
X309300D01*
X247742Y531069D02*
X309084D01*
X238370Y591369D02*
X308400D01*
X248642Y530169D02*
X308184D01*
X238370Y592269D02*
X307500D01*
X249542Y529269D02*
X307284D01*
X238370Y593169D02*
X306600D01*
X250442Y528369D02*
X306384D01*
X248864Y665169D02*
X306238D01*
X238370Y594069D02*
X305700D01*
X251342Y527469D02*
X305484D01*
X238370Y594969D02*
X304800D01*
X252242Y526569D02*
X304584D01*
X290407Y652569D02*
X304129D01*
X238370Y595869D02*
X303900D01*
X253142Y525669D02*
X303684D01*
X249764Y664269D02*
X303068D01*
X238370Y596769D02*
X303000D01*
X254042Y524769D02*
X302784D01*
X289932Y653469D02*
X302472D01*
X254942Y523869D02*
X301884D01*
X250664Y663369D02*
X301879D01*
X289288Y654369D02*
X301497D01*
X251564Y662469D02*
X301096D01*
X255842Y522969D02*
X300984D01*
X288410Y655269D02*
X300831D01*
X252336Y661569D02*
X300552D01*
X287145Y656169D02*
X300371D01*
X252872Y660669D02*
X300185D01*
X257022Y522069D02*
X300084D01*
X284692Y657069D02*
X300070D01*
X253234Y659769D02*
X299964D01*
X253537Y657969D02*
X299908D01*
X253451Y658869D02*
X299873D01*
X282042Y609369D02*
X299640D01*
X238370Y597669D02*
X299438D01*
X257954Y521169D02*
X299184D01*
X258540Y520269D02*
X298284D01*
X258902Y519369D02*
X297384D01*
X259086Y518469D02*
X296484D01*
X259111Y517569D02*
X295584D01*
X258981Y516669D02*
X294684D01*
X291005Y457269D02*
X294675D01*
X259050Y515769D02*
X293779D01*
X279036Y448269D02*
X282593D01*
X238370Y548169D02*
X282435D01*
X270912Y657069D02*
X281828D01*
X277042Y449169D02*
X281302D01*
X238370Y566169D02*
X280372D01*
X238370Y549069D02*
X280259D01*
X238370Y598569D02*
X279881D01*
X238370Y565269D02*
X279601D01*
X238370Y549969D02*
X279545D01*
X234634Y621069D02*
X279430D01*
X273366Y656169D02*
X279374D01*
X238370Y564369D02*
X279223D01*
X238370Y550869D02*
X279199D01*
X238370Y563469D02*
X279107D01*
X238370Y562569D02*
X279107D01*
X238370Y561669D02*
X279107D01*
X238370Y560769D02*
X279107D01*
X238370Y559869D02*
X279107D01*
X238370Y558969D02*
X279107D01*
X238370Y558069D02*
X279107D01*
X238370Y557169D02*
X279107D01*
X238370Y556269D02*
X279107D01*
X238370Y555369D02*
X279107D01*
X238370Y554469D02*
X279107D01*
X238370Y553569D02*
X279107D01*
X238370Y552669D02*
X279107D01*
X238370Y551769D02*
X279107D01*
X231886Y621969D02*
X278287D01*
X274631Y655269D02*
X278110D01*
X238370Y599469D02*
X277872D01*
X229801Y622869D02*
X277387D01*
X275508Y654369D02*
X277232D01*
X238370Y600369D02*
X276900D01*
X204042Y623769D02*
X276487D01*
X238370Y601269D02*
X276000D01*
X203142Y624669D02*
X275587D01*
X238370Y602169D02*
X275100D01*
X202242Y625569D02*
X274687D01*
X238370Y603069D02*
X274200D01*
X201342Y626469D02*
X273787D01*
X238370Y603969D02*
X273300D01*
X200442Y627369D02*
X272887D01*
X238370Y604869D02*
X272400D01*
X199542Y628269D02*
X271987D01*
X198642Y629169D02*
X271087D01*
X197742Y630069D02*
X270187D01*
X196842Y630969D02*
X269287D01*
X195942Y631869D02*
X268387D01*
X253539Y657069D02*
X268048D01*
X195042Y632769D02*
X267487D01*
X194142Y633669D02*
X266587D01*
X193242Y634569D02*
X265907D01*
X253539Y656169D02*
X265595D01*
X192342Y635469D02*
X265538D01*
X191442Y636369D02*
X265394D01*
X188742Y639069D02*
X265390D01*
X189642Y638169D02*
X265390D01*
X190542Y637269D02*
X265390D01*
X187944Y639969D02*
X265337D01*
X187929Y640869D02*
X264942D01*
X248921Y641769D02*
X264546D01*
X253539Y655269D02*
X264330D01*
X251091Y642669D02*
X264150D01*
X252299Y643569D02*
X263755D01*
X253539Y654369D02*
X263453D01*
X253147Y644469D02*
X263359D01*
X253712Y653469D02*
X262808D01*
X253771Y645369D02*
X262749D01*
X254187Y652569D02*
X262333D01*
X254230Y646269D02*
X262290D01*
X254525Y651669D02*
X261995D01*
X254554Y647169D02*
X261965D01*
X254744Y650769D02*
X261776D01*
X254761Y648069D02*
X261758D01*
X254854Y649869D02*
X261665D01*
X254860Y648969D02*
X261660D01*
X221362Y641769D02*
X245158D01*
X238361Y615669D02*
X244965D01*
X238370Y605769D02*
X244689D01*
X238370Y614769D02*
X243289D01*
X238370Y606669D02*
X243171D01*
X223532Y642669D02*
X242988D01*
X238370Y613869D02*
X242407D01*
X238370Y607569D02*
X242334D01*
X238370Y612969D02*
X241850D01*
X238370Y608469D02*
X241804D01*
X224740Y643569D02*
X241780D01*
X238370Y612069D02*
X241510D01*
X238370Y609369D02*
X241484D01*
X238370Y611169D02*
X241344D01*
X238370Y610269D02*
X241335D01*
X225587Y644469D02*
X240932D01*
X225508Y654369D02*
X240539D01*
X226153Y653469D02*
X240367D01*
X226212Y645369D02*
X240308D01*
X225788Y655269D02*
X240075D01*
X226628Y652569D02*
X239892D01*
X226671Y646269D02*
X239849D01*
X226966Y651669D02*
X239554D01*
X226995Y647169D02*
X239524D01*
X227185Y650769D02*
X239335D01*
X227202Y648069D02*
X239318D01*
X227295Y649869D02*
X239225D01*
X227301Y648969D02*
X239219D01*
X204942Y622869D02*
X222340D01*
X207582Y641769D02*
X217599D01*
X209752Y642669D02*
X215429D01*
X210961Y643569D02*
X214221D01*
X211808Y644469D02*
X213373D01*
X188083Y641769D02*
X203819D01*
X188432Y642669D02*
X201650D01*
X188782Y643569D02*
X200441D01*
X189429Y654369D02*
X199673D01*
X189132Y644469D02*
X199594D01*
X189893Y655269D02*
X199393D01*
X189602Y653469D02*
X199028D01*
X189660Y645369D02*
X198970D01*
X190077Y652569D02*
X198553D01*
X190120Y646269D02*
X198510D01*
X190415Y651669D02*
X198215D01*
X190444Y647169D02*
X198186D01*
X190634Y650769D02*
X197996D01*
X190651Y648069D02*
X197979D01*
X190744Y649869D02*
X197886D01*
X190750Y648969D02*
X197880D01*
X631840Y284469D02*
X665227D01*
X632740Y285369D02*
X664900D01*
X633640Y286269D02*
X664000D01*
X634540Y287169D02*
X663100D01*
X635440Y288069D02*
X662200D01*
X636340Y288969D02*
X661300D01*
X637240Y289869D02*
X660400D01*
X630940Y283569D02*
X660218D01*
X640442Y290769D02*
X659328D01*
X630040Y282669D02*
X658896D01*
X629674Y281769D02*
X658025D01*
X630693Y280869D02*
X657407D01*
X635356Y274569D02*
X657055D01*
X631373Y279969D02*
X656970D01*
X656529Y273669D02*
X656875D01*
X634456Y275469D02*
X656733D01*
X631802Y279069D02*
X656679D01*
X633556Y276369D02*
X656542D01*
X632184Y278169D02*
X656516D01*
X632667Y277269D02*
X656471D01*
X636256Y273669D02*
X650416D01*
X637156Y272769D02*
X649014D01*
X638056Y271869D02*
X648107D01*
X638956Y270969D02*
X647466D01*
X646156Y263769D02*
X647422D01*
X645256Y264669D02*
X647012D01*
X639856Y270069D02*
X647011D01*
X644356Y265569D02*
X646706D01*
X640756Y269169D02*
X646705D01*
X643456Y266469D02*
X646528D01*
X641656Y268269D02*
X646528D01*
X642556Y267369D02*
X646470D01*
X621274Y320469D02*
X647750D01*
X621564Y319569D02*
X647284D01*
X621965Y318669D02*
X646384D01*
X622242Y317769D02*
X645484D01*
X622408Y316869D02*
X644584D01*
X622469Y315969D02*
X643684D01*
X622430Y315069D02*
X642784D01*
X622287Y314169D02*
X641884D01*
X622035Y313269D02*
X640984D01*
X621663Y312369D02*
X640084D01*
X621151Y311469D02*
X639184D01*
X620461Y310569D02*
X638284D01*
X619524Y309669D02*
X637384D01*
X618154Y308769D02*
X636484D01*
X589628Y307869D02*
X635584D01*
X587295Y306969D02*
X634684D01*
X584961Y306069D02*
X633784D01*
X583954Y305169D02*
X632884D01*
X583054Y304269D02*
X631984D01*
X582154Y303369D02*
X631084D01*
X581254Y302469D02*
X630184D01*
X580354Y301569D02*
X629284D01*
X579454Y300669D02*
X628384D01*
X578554Y299769D02*
X627484D01*
X577654Y298869D02*
X626584D01*
X576754Y297969D02*
X625684D01*
X575854Y297069D02*
X624784D01*
X574954Y296169D02*
X623884D01*
X574054Y295269D02*
X622984D01*
X573154Y294369D02*
X622084D01*
X572254Y293469D02*
X621184D01*
X571354Y292569D02*
X620284D01*
X570761Y291669D02*
X619384D01*
X592554Y308769D02*
X610786D01*
X593975Y309669D02*
X609365D01*
X596005Y310569D02*
X607335D01*
X598035Y311469D02*
X605305D01*
X517025Y324069D02*
X558880D01*
X518246Y323169D02*
X558284D01*
X519772Y322269D02*
X557384D01*
X520781Y321369D02*
X556484D01*
X521516Y320469D02*
X555584D01*
X522064Y319569D02*
X554684D01*
X522465Y318669D02*
X553784D01*
X522742Y317769D02*
X552884D01*
X522908Y316869D02*
X551984D01*
X522969Y315969D02*
X551084D01*
X522930Y315069D02*
X550184D01*
X522787Y314169D02*
X549284D01*
X522535Y313269D02*
X548384D01*
X522163Y312369D02*
X547484D01*
X521651Y311469D02*
X546584D01*
X520961Y310569D02*
X545684D01*
X520024Y309669D02*
X544784D01*
X518654Y308769D02*
X543884D01*
X490128Y307869D02*
X542984D01*
X487795Y306969D02*
X542084D01*
X485461Y306069D02*
X541184D01*
X484454Y305169D02*
X540284D01*
X483554Y304269D02*
X539384D01*
X482654Y303369D02*
X538484D01*
X482361Y302469D02*
X537584D01*
X482361Y301569D02*
X536684D01*
X482361Y300669D02*
X535784D01*
X482361Y299769D02*
X534884D01*
X482361Y298869D02*
X533984D01*
X482361Y297969D02*
X533084D01*
X482356Y297069D02*
X532184D01*
X482210Y296169D02*
X531284D01*
X481838Y295269D02*
X530384D01*
X481154Y294369D02*
X529484D01*
X480254Y293469D02*
X528584D01*
X479354Y292569D02*
X527684D01*
X478454Y291669D02*
X526784D01*
X477554Y290769D02*
X525884D01*
X476654Y289869D02*
X524984D01*
X475754Y288969D02*
X524084D01*
X474854Y288069D02*
X523184D01*
X474153Y287169D02*
X522284D01*
X493054Y308769D02*
X511286D01*
X494475Y309669D02*
X509865D01*
X496505Y310569D02*
X507835D01*
X498535Y311469D02*
X505805D01*
X369142Y256569D02*
X470398D01*
X368242Y257469D02*
X470205D01*
X370042Y255669D02*
X469498D01*
X370942Y254769D02*
X468598D01*
X371842Y253869D02*
X467698D01*
X372742Y252969D02*
X466798D01*
X373642Y252069D02*
X465898D01*
X374542Y251169D02*
X464998D01*
X375442Y250269D02*
X464098D01*
X376342Y249369D02*
X463198D01*
X377242Y248469D02*
X462298D01*
X367342Y258369D02*
X374424D01*
X366442Y259269D02*
X373487D01*
X365542Y260169D02*
X372587D01*
X364642Y261069D02*
X371687D01*
X363742Y261969D02*
X370787D01*
X362842Y262869D02*
X369887D01*
X361942Y263769D02*
X368987D01*
X361042Y264669D02*
X368087D01*
X360142Y265569D02*
X367187D01*
X359242Y266469D02*
X366287D01*
X358342Y267369D02*
X365387D01*
X357442Y268269D02*
X364487D01*
X356542Y269169D02*
X363587D01*
X355642Y270069D02*
X362687D01*
X354742Y270969D02*
X361787D01*
X353842Y271869D02*
X360887D01*
X352942Y272769D02*
X359987D01*
X352042Y273669D02*
X359087D01*
X351142Y274569D02*
X358187D01*
X350242Y275469D02*
X357287D01*
X349342Y276369D02*
X356387D01*
X348442Y277269D02*
X355487D01*
X347542Y278169D02*
X354587D01*
X346642Y279069D02*
X353687D01*
X345742Y279969D02*
X352787D01*
X344842Y280869D02*
X351887D01*
X343942Y281769D02*
X350987D01*
X343042Y282669D02*
X350087D01*
X342142Y283569D02*
X349187D01*
X341242Y284469D02*
X348287D01*
X340342Y285369D02*
X347387D01*
X339442Y286269D02*
X346487D01*
X338542Y287169D02*
X345587D01*
X337642Y288069D02*
X344687D01*
X336563Y288969D02*
X343787D01*
X324491Y289869D02*
X342887D01*
X323074Y290769D02*
X341987D01*
X322855Y291669D02*
X341087D01*
X322770Y292569D02*
X340187D01*
X322770Y293469D02*
X339287D01*
X322770Y294369D02*
X338387D01*
X322770Y295269D02*
X337487D01*
X322770Y296169D02*
X336587D01*
X322956Y297069D02*
X335682D01*
X393956Y287169D02*
X430588D01*
X393056Y288069D02*
X429887D01*
X392156Y288969D02*
X428987D01*
X391256Y289869D02*
X428087D01*
X390356Y290769D02*
X427187D01*
X389456Y291669D02*
X426287D01*
X388556Y292569D02*
X425387D01*
X387656Y293469D02*
X424487D01*
X386756Y294369D02*
X423587D01*
X385856Y295269D02*
X422687D01*
X384956Y296169D02*
X421787D01*
X384056Y297069D02*
X421022D01*
X383156Y297969D02*
X420592D01*
X382256Y298869D02*
X420399D01*
X419024Y309669D02*
X420380D01*
X417654Y308769D02*
X420380D01*
X373256Y307869D02*
X420380D01*
X374156Y306969D02*
X420380D01*
X375056Y306069D02*
X420380D01*
X375956Y305169D02*
X420380D01*
X376856Y304269D02*
X420380D01*
X377756Y303369D02*
X420380D01*
X378656Y302469D02*
X420380D01*
X379556Y301569D02*
X420380D01*
X380456Y300669D02*
X420380D01*
X381356Y299769D02*
X420380D01*
X392054Y308769D02*
X410286D01*
X393475Y309669D02*
X408865D01*
X395505Y310569D02*
X406835D01*
X397535Y311469D02*
X404805D01*
X372356Y308769D02*
X384686D01*
X371456Y309669D02*
X383316D01*
X370556Y310569D02*
X382379D01*
X369656Y311469D02*
X381690D01*
X368756Y312369D02*
X381177D01*
X367856Y313269D02*
X380805D01*
X366956Y314169D02*
X380553D01*
X366056Y315069D02*
X380410D01*
X365353Y315969D02*
X380371D01*
X41070Y333969D02*
X267555D01*
X41070Y334869D02*
X266708D01*
X41070Y335769D02*
X265800D01*
X41070Y336669D02*
X264900D01*
X41070Y337569D02*
X263942D01*
X41070Y338469D02*
X262747D01*
X137034Y339369D02*
X262030D01*
X138436Y340269D02*
X261576D01*
X139324Y341169D02*
X261316D01*
X139942Y342069D02*
X236329D01*
X140371Y342969D02*
X235087D01*
X209633Y529269D02*
X234612D01*
X209142Y530169D02*
X234500D01*
X140648Y343869D02*
X234187D01*
X208442Y531069D02*
X233600D01*
X140792Y344769D02*
X233287D01*
X207247Y531969D02*
X232700D01*
X140813Y345669D02*
X232387D01*
X188184Y532869D02*
X231800D01*
X140711Y346569D02*
X231487D01*
X188631Y533769D02*
X230900D01*
X140480Y347469D02*
X230587D01*
X188924Y534669D02*
X230000D01*
X140105Y348369D02*
X229687D01*
X189083Y535569D02*
X229228D01*
X139557Y349269D02*
X228787D01*
X189117Y536469D02*
X228746D01*
X189028Y537369D02*
X228471D01*
X188812Y538269D02*
X228371D01*
X183561Y609369D02*
X228370D01*
X183561Y608469D02*
X228370D01*
X183561Y607569D02*
X228370D01*
X183561Y606669D02*
X228370D01*
X183561Y605769D02*
X228370D01*
X183561Y604869D02*
X228370D01*
X183516Y603969D02*
X228370D01*
X183275Y603069D02*
X228370D01*
X182782Y602169D02*
X228370D01*
X182324Y601269D02*
X228370D01*
X182064Y600369D02*
X228370D01*
X181610Y599469D02*
X228370D01*
X180893Y598569D02*
X228370D01*
X179698Y597669D02*
X228370D01*
X84663Y596769D02*
X228370D01*
X83473Y595869D02*
X228370D01*
X81041Y594969D02*
X228370D01*
X41070Y594069D02*
X228370D01*
X41070Y593169D02*
X228370D01*
X41070Y592269D02*
X228370D01*
X41070Y591369D02*
X228370D01*
X41070Y590469D02*
X228370D01*
X41070Y589569D02*
X228370D01*
X41070Y588669D02*
X228370D01*
X41070Y587769D02*
X228370D01*
X41070Y586869D02*
X228370D01*
X41070Y585969D02*
X228370D01*
X41070Y585069D02*
X228370D01*
X41070Y584169D02*
X228370D01*
X41070Y583269D02*
X228370D01*
X41070Y582369D02*
X228370D01*
X41070Y581469D02*
X228370D01*
X41070Y580569D02*
X228370D01*
X57975Y579669D02*
X228370D01*
X61044Y578769D02*
X228370D01*
X213097Y577869D02*
X228370D01*
X214354Y576969D02*
X228370D01*
X215171Y576069D02*
X228370D01*
X215737Y575169D02*
X228370D01*
X216122Y574269D02*
X228370D01*
X216359Y573369D02*
X228370D01*
X216463Y572469D02*
X228370D01*
X216470Y571569D02*
X228370D01*
X216470Y570669D02*
X228370D01*
X216458Y569769D02*
X228370D01*
X216339Y568869D02*
X228370D01*
X216086Y567969D02*
X228370D01*
X215683Y567069D02*
X228370D01*
X215296Y566169D02*
X228370D01*
X215018Y565269D02*
X228370D01*
X214741Y564369D02*
X228370D01*
X214473Y563469D02*
X228370D01*
X214470Y562569D02*
X228370D01*
X214470Y561669D02*
X228370D01*
X214452Y560769D02*
X228370D01*
X214278Y559869D02*
X228370D01*
X213895Y558969D02*
X228370D01*
X213231Y558069D02*
X228370D01*
X212333Y557169D02*
X228370D01*
X211433Y556269D02*
X228370D01*
X210533Y555369D02*
X228370D01*
X209633Y554469D02*
X228370D01*
X208322Y553569D02*
X228370D01*
X86635Y552669D02*
X228370D01*
X86812Y551769D02*
X228370D01*
X86870Y550869D02*
X228370D01*
X86812Y549969D02*
X228370D01*
X86634Y549069D02*
X228370D01*
X86328Y548169D02*
X228370D01*
X85873Y547269D02*
X228370D01*
X85231Y546369D02*
X228370D01*
X84323Y545469D02*
X228370D01*
X82919Y544569D02*
X228370D01*
X41070Y543669D02*
X228370D01*
X183879Y542769D02*
X228370D01*
X186058Y541869D02*
X228370D01*
X187175Y540969D02*
X228370D01*
X187928Y540069D02*
X228370D01*
X188455Y539169D02*
X228370D01*
X183561Y610269D02*
X228301D01*
X199510Y500469D02*
X228131D01*
X139105Y350169D02*
X227887D01*
X165454Y499569D02*
X227784D01*
X200654Y501369D02*
X227105D01*
X138689Y351069D02*
X226987D01*
X164554Y498669D02*
X226884D01*
X201554Y502269D02*
X226441D01*
X138280Y351969D02*
X226087D01*
X202454Y503169D02*
X226033D01*
X163654Y497769D02*
X225984D01*
X205611Y436569D02*
X225694D01*
X205296Y437469D02*
X225387D01*
X175110Y352869D02*
X225187D01*
X162754Y496869D02*
X225084D01*
X203354Y504069D02*
X225068D01*
X204813Y438369D02*
X224487D01*
X177245Y353769D02*
X224287D01*
X162084Y495969D02*
X224184D01*
X204035Y439269D02*
X223587D01*
X204254Y504969D02*
X223522D01*
X183607Y354669D02*
X223387D01*
X162245Y495069D02*
X223284D01*
X205154Y505869D02*
X222698D01*
X202633Y440169D02*
X222687D01*
X185497Y355569D02*
X222487D01*
X162254Y494169D02*
X222384D01*
X206054Y506769D02*
X222188D01*
X183561Y611169D02*
X222138D01*
X218934Y507669D02*
X221876D01*
X148961Y441069D02*
X221787D01*
X186433Y356469D02*
X221587D01*
X162098Y493269D02*
X221484D01*
X148961Y441969D02*
X220887D01*
X187333Y357369D02*
X220687D01*
X161759Y492369D02*
X220584D01*
X148961Y442869D02*
X220088D01*
X161192Y491469D02*
X219901D01*
X188233Y358269D02*
X219787D01*
X148961Y443769D02*
X219627D01*
X160268Y490569D02*
X219530D01*
X148961Y444669D02*
X219410D01*
X158357Y489669D02*
X219384D01*
X157934Y488769D02*
X219380D01*
X157478Y487869D02*
X219380D01*
X156739Y486969D02*
X219380D01*
X155447Y486069D02*
X219380D01*
X149361Y485169D02*
X219380D01*
X149361Y484269D02*
X219380D01*
X149361Y483369D02*
X219380D01*
X149361Y482469D02*
X219380D01*
X149361Y481569D02*
X219380D01*
X149361Y480669D02*
X219380D01*
X149361Y479769D02*
X219380D01*
X149361Y478869D02*
X219380D01*
X149361Y477969D02*
X219380D01*
X150056Y477069D02*
X219380D01*
X150956Y476169D02*
X219380D01*
X151856Y475269D02*
X219380D01*
X152756Y474369D02*
X219380D01*
X153656Y473469D02*
X219380D01*
X159847Y472569D02*
X219380D01*
X161042Y471669D02*
X219380D01*
X161742Y470769D02*
X219380D01*
X162173Y469869D02*
X219380D01*
X162875Y468969D02*
X219380D01*
X164601Y468069D02*
X219380D01*
X165471Y467169D02*
X219380D01*
X166008Y466269D02*
X219380D01*
X166324Y465369D02*
X219380D01*
X166461Y464469D02*
X219380D01*
X166434Y463569D02*
X219380D01*
X166239Y462669D02*
X219380D01*
X165856Y461769D02*
X219380D01*
X165225Y460869D02*
X219380D01*
X164181Y459969D02*
X219380D01*
X163446Y459069D02*
X219380D01*
X163955Y458169D02*
X219380D01*
X164312Y457269D02*
X219380D01*
X164528Y456369D02*
X219380D01*
X164617Y455469D02*
X219380D01*
X164583Y454569D02*
X219380D01*
X164424Y453669D02*
X219380D01*
X164131Y452769D02*
X219380D01*
X163684Y451869D02*
X219380D01*
X163041Y450969D02*
X219380D01*
X162113Y450069D02*
X219380D01*
X160614Y449169D02*
X219380D01*
X148961Y448269D02*
X219380D01*
X148961Y447369D02*
X219380D01*
X148961Y446469D02*
X219380D01*
X148961Y445569D02*
X219380D01*
X189133Y359169D02*
X218887D01*
X190033Y360069D02*
X217987D01*
X190933Y360969D02*
X217087D01*
X192066Y361869D02*
X216187D01*
X193572Y362769D02*
X215287D01*
X194690Y363669D02*
X214387D01*
X195372Y364569D02*
X213487D01*
X206954Y507669D02*
X213206D01*
X195801Y365469D02*
X212587D01*
X207854Y508569D02*
X211805D01*
X196042Y366369D02*
X211687D01*
X208754Y509469D02*
X210916D01*
X196120Y367269D02*
X210787D01*
X209662Y510369D02*
X210250D01*
X69952Y577869D02*
X206844D01*
X71241Y576969D02*
X205586D01*
X190165Y563469D02*
X205467D01*
X190860Y564369D02*
X205200D01*
X189579Y562569D02*
X205005D01*
X191346Y565269D02*
X204922D01*
X72142Y576069D02*
X204769D01*
X191671Y566169D02*
X204645D01*
X191858Y567069D02*
X204258D01*
X73042Y575169D02*
X204203D01*
X191920Y567969D02*
X203854D01*
X187402Y574269D02*
X203818D01*
X191859Y568869D02*
X203602D01*
X189152Y573369D02*
X203582D01*
X191672Y569769D02*
X203482D01*
X190167Y572469D02*
X203477D01*
X190862Y571569D02*
X203470D01*
X191347Y570669D02*
X203470D01*
X183561Y612069D02*
X202781D01*
X187859Y531969D02*
X202451D01*
X183561Y612969D02*
X200772D01*
X183561Y613869D02*
X199800D01*
X183561Y614769D02*
X198900D01*
X148961Y440169D02*
X198707D01*
X183561Y615669D02*
X198000D01*
X148961Y439269D02*
X197306D01*
X183561Y616569D02*
X197100D01*
X149135Y438369D02*
X196527D01*
X183561Y617469D02*
X196200D01*
X152122Y437469D02*
X196045D01*
X175255Y436569D02*
X195730D01*
X183561Y618369D02*
X195300D01*
X183561Y619269D02*
X194400D01*
X183561Y620169D02*
X193500D01*
X183561Y621069D02*
X192600D01*
X183561Y621969D02*
X191700D01*
X183561Y622869D02*
X190800D01*
X183561Y623769D02*
X189900D01*
X183561Y624669D02*
X189000D01*
X183561Y625569D02*
X188100D01*
X183556Y626469D02*
X187200D01*
X183410Y627369D02*
X186300D01*
X183039Y628269D02*
X185400D01*
X182356Y629169D02*
X184500D01*
X181456Y630069D02*
X183600D01*
X73942Y574269D02*
X183138D01*
X180556Y630969D02*
X182700D01*
X179656Y631869D02*
X181800D01*
X74842Y573369D02*
X181388D01*
X163879Y542769D02*
X181061D01*
X178756Y632769D02*
X180900D01*
X75742Y572469D02*
X180373D01*
X177840Y633669D02*
X180000D01*
X86329Y553569D02*
X179918D01*
X76642Y571569D02*
X179678D01*
X77542Y570669D02*
X179193D01*
X176032Y634569D02*
X179123D01*
X166058Y541869D02*
X178882D01*
X78442Y569769D02*
X178868D01*
X79342Y568869D02*
X178681D01*
X80242Y567969D02*
X178620D01*
X85874Y554469D02*
X178608D01*
X74162Y635469D02*
X178512D01*
X74961Y636369D02*
X178142D01*
X75673Y637269D02*
X177959D01*
X77831Y640869D02*
X177929D01*
X77382Y639969D02*
X177929D01*
X76876Y639069D02*
X177929D01*
X76309Y638169D02*
X177929D01*
X157252Y641769D02*
X177776D01*
X167175Y540969D02*
X177765D01*
X85233Y555369D02*
X177707D01*
X159421Y642669D02*
X177426D01*
X167859Y531969D02*
X177081D01*
X160630Y643569D02*
X177076D01*
X167928Y540069D02*
X177012D01*
X84326Y556269D02*
X176807D01*
X168184Y532869D02*
X176756D01*
X161477Y644469D02*
X176726D01*
X168455Y539169D02*
X176486D01*
X161398Y654369D02*
X176429D01*
X168631Y533769D02*
X176309D01*
X162042Y653469D02*
X176257D01*
X162101Y645369D02*
X176198D01*
X168812Y538269D02*
X176128D01*
X168924Y534669D02*
X176016D01*
X161678Y655269D02*
X175965D01*
X169028Y537369D02*
X175912D01*
X169083Y535569D02*
X175858D01*
X169117Y536469D02*
X175823D01*
X162518Y652569D02*
X175781D01*
X162561Y646269D02*
X175739D01*
X84199Y557169D02*
X175543D01*
X162856Y651669D02*
X175443D01*
X162885Y647169D02*
X175414D01*
X165198Y623769D02*
X175380D01*
X41070Y622869D02*
X175380D01*
X41070Y621969D02*
X175380D01*
X41070Y621069D02*
X175380D01*
X41070Y620169D02*
X175380D01*
X41070Y619269D02*
X175380D01*
X41070Y618369D02*
X175380D01*
X41070Y617469D02*
X175380D01*
X41070Y616569D02*
X175380D01*
X41070Y615669D02*
X175380D01*
X41070Y614769D02*
X175380D01*
X41070Y613869D02*
X175380D01*
X41070Y612969D02*
X175380D01*
X41070Y612069D02*
X175380D01*
X41070Y611169D02*
X175380D01*
X41070Y610269D02*
X175380D01*
X41070Y609369D02*
X175380D01*
X82206Y608469D02*
X175380D01*
X83935Y607569D02*
X175380D01*
X166393Y624669D02*
X175279D01*
X163075Y650769D02*
X175224D01*
X163092Y648069D02*
X175207D01*
X163185Y649869D02*
X175114D01*
X163191Y648969D02*
X175109D01*
X85469Y597669D02*
X174642D01*
X167110Y625569D02*
X174387D01*
X84966Y606669D02*
X174304D01*
X86043Y598569D02*
X173447D01*
X167796Y626469D02*
X173372D01*
X85684Y605769D02*
X173256D01*
X86445Y599469D02*
X172730D01*
X86195Y604869D02*
X172608D01*
X86707Y600369D02*
X172276D01*
X86548Y603969D02*
X172202D01*
X86844Y601269D02*
X172016D01*
X86767Y603069D02*
X171981D01*
X86864Y602169D02*
X171921D01*
X160989Y436569D02*
X169916D01*
X161956Y435669D02*
X168803D01*
X138261Y352869D02*
X168431D01*
X162856Y434769D02*
X168139D01*
X163756Y433869D02*
X167733D01*
X166444Y431169D02*
X167581D01*
X164656Y432969D02*
X167519D01*
X165556Y432069D02*
X167474D01*
X138161Y353769D02*
X167133D01*
X132961Y363669D02*
X166435D01*
X132961Y364569D02*
X166353D01*
X137844Y354669D02*
X166271D01*
X132961Y362769D02*
X165776D01*
X132961Y365469D02*
X165717D01*
X137244Y355569D02*
X165659D01*
X132961Y361869D02*
X165307D01*
X132961Y366369D02*
X165265D01*
X136356Y356469D02*
X165225D01*
X132961Y360969D02*
X164987D01*
X132961Y367269D02*
X164961D01*
X132961Y370869D02*
X164960D01*
X135456Y357369D02*
X164935D01*
X132961Y360069D02*
X164798D01*
X132961Y368169D02*
X164785D01*
X132961Y369969D02*
X164784D01*
X134556Y358269D02*
X164772D01*
X133656Y359169D02*
X164727D01*
X132961Y369069D02*
X164727D01*
X132961Y371769D02*
X164661D01*
X73262Y634569D02*
X164008D01*
X72238Y633669D02*
X162198D01*
X127552Y542769D02*
X161061D01*
X41070Y623769D02*
X160142D01*
X71061Y632769D02*
X159804D01*
X41070Y624669D02*
X158947D01*
X128841Y541869D02*
X158882D01*
X69680Y631869D02*
X158756D01*
X41070Y625569D02*
X158230D01*
X67998Y630969D02*
X158108D01*
X41070Y626469D02*
X157776D01*
X129579Y540969D02*
X157765D01*
X65796Y630069D02*
X157702D01*
X41070Y627369D02*
X157516D01*
X62094Y629169D02*
X157481D01*
X41070Y628269D02*
X157421D01*
X137456Y531969D02*
X157081D01*
X130035Y540069D02*
X157012D01*
X136556Y532869D02*
X156756D01*
X130462Y539169D02*
X156486D01*
X135656Y533769D02*
X156309D01*
X132372Y538269D02*
X156128D01*
X134766Y534669D02*
X156016D01*
X133294Y537369D02*
X155912D01*
X134249Y535569D02*
X155858D01*
X133861Y536469D02*
X155823D01*
X149110Y449169D02*
X155326D01*
X154577Y472569D02*
X155093D01*
X149407Y450069D02*
X153827D01*
X143472Y641769D02*
X153488D01*
X149724Y450969D02*
X152899D01*
X41070Y459969D02*
X152588D01*
X41070Y459069D02*
X152512D01*
X149861Y451869D02*
X152256D01*
X41070Y458169D02*
X151986D01*
X149834Y452769D02*
X151809D01*
X41070Y457269D02*
X151628D01*
X149640Y453669D02*
X151516D01*
X147585Y456369D02*
X151412D01*
X149257Y454569D02*
X151358D01*
X148628Y455469D02*
X151323D01*
X145642Y642669D02*
X151319D01*
X149361Y486069D02*
X151093D01*
X146850Y643569D02*
X150110D01*
X41070Y460869D02*
X150055D01*
X147698Y644469D02*
X149263D01*
X41070Y461769D02*
X149087D01*
X41070Y462669D02*
X148187D01*
X41070Y463569D02*
X147287D01*
X41070Y464469D02*
X146387D01*
X41070Y465369D02*
X145487D01*
X41070Y466269D02*
X144587D01*
X41070Y467169D02*
X143687D01*
X41070Y468069D02*
X142787D01*
X139585Y456369D02*
X142155D01*
X41070Y468969D02*
X141887D01*
X140718Y455469D02*
X141022D01*
X41070Y469869D02*
X140987D01*
X41070Y470769D02*
X140087D01*
X107141Y641769D02*
X139709D01*
X132961Y372669D02*
X139424D01*
X41070Y471669D02*
X139198D01*
X41070Y472569D02*
X138598D01*
X132961Y373569D02*
X138487D01*
X41070Y473469D02*
X138280D01*
X86661Y497769D02*
X138180D01*
X129989Y496869D02*
X138180D01*
X131056Y495969D02*
X138180D01*
X133376Y495069D02*
X138180D01*
X134493Y494169D02*
X138180D01*
X135173Y493269D02*
X138180D01*
X135602Y492369D02*
X138180D01*
X135843Y491469D02*
X138180D01*
X135920Y490569D02*
X138180D01*
X135842Y489669D02*
X138180D01*
X135601Y488769D02*
X138180D01*
X135172Y487869D02*
X138180D01*
X134490Y486969D02*
X138180D01*
X133372Y486069D02*
X138180D01*
X41070Y485169D02*
X138180D01*
X41070Y484269D02*
X138180D01*
X41070Y483369D02*
X138180D01*
X41070Y482469D02*
X138180D01*
X41070Y481569D02*
X138180D01*
X41070Y480669D02*
X138180D01*
X41070Y479769D02*
X138180D01*
X41070Y478869D02*
X138180D01*
X41070Y477969D02*
X138180D01*
X41070Y477069D02*
X138180D01*
X41070Y476169D02*
X138180D01*
X41070Y475269D02*
X138180D01*
X41070Y474369D02*
X138180D01*
X86766Y498669D02*
X137987D01*
X132961Y374469D02*
X137587D01*
X109311Y642669D02*
X137539D01*
X86864Y499569D02*
X137087D01*
X132961Y375369D02*
X136687D01*
X110520Y643569D02*
X136331D01*
X86844Y500469D02*
X136187D01*
X132961Y376269D02*
X135787D01*
X111770Y654369D02*
X135563D01*
X111367Y644469D02*
X135483D01*
X86708Y501369D02*
X135287D01*
X112234Y655269D02*
X135283D01*
X111932Y653469D02*
X134918D01*
X132961Y377169D02*
X134887D01*
X111991Y645369D02*
X134859D01*
X112407Y652569D02*
X134443D01*
X112450Y646269D02*
X134400D01*
X86446Y502269D02*
X134387D01*
X131585Y456369D02*
X134155D01*
X112746Y651669D02*
X134105D01*
X112775Y647169D02*
X134076D01*
X132995Y378069D02*
X133987D01*
X112965Y650769D02*
X133886D01*
X112982Y648069D02*
X133869D01*
X113075Y649869D02*
X133776D01*
X113080Y648969D02*
X133770D01*
X86044Y503169D02*
X133487D01*
X132718Y455469D02*
X133022D01*
X85471Y504069D02*
X132587D01*
X84666Y504969D02*
X131687D01*
X127191Y339369D02*
X131306D01*
X83478Y505869D02*
X130787D01*
X128593Y340269D02*
X129905D01*
X81057Y506769D02*
X129887D01*
X41070Y507669D02*
X128987D01*
X41070Y508569D02*
X128087D01*
X41070Y486069D02*
X127968D01*
X41070Y509469D02*
X127187D01*
X41070Y486969D02*
X126850D01*
X41070Y510369D02*
X126287D01*
X41070Y487869D02*
X126168D01*
X41070Y456369D02*
X126155D01*
X41070Y488769D02*
X125739D01*
X41070Y511269D02*
X125387D01*
X82206Y455469D02*
X125113D01*
X41070Y512169D02*
X124487D01*
X83935Y454569D02*
X124483D01*
X84966Y453669D02*
X124100D01*
X41070Y513069D02*
X123587D01*
X119552Y542769D02*
X123188D01*
X85684Y452769D02*
X122907D01*
X41070Y513969D02*
X122687D01*
X120841Y541869D02*
X121899D01*
X41070Y514869D02*
X121787D01*
X86195Y451869D02*
X121506D01*
X107506Y339369D02*
X121464D01*
X41070Y515769D02*
X120887D01*
X84663Y443769D02*
X120780D01*
X83473Y442869D02*
X120780D01*
X81041Y441969D02*
X120780D01*
X41070Y441069D02*
X120780D01*
X41070Y440169D02*
X120780D01*
X41070Y439269D02*
X120780D01*
X41070Y438369D02*
X120780D01*
X41070Y437469D02*
X120780D01*
X41070Y436569D02*
X120780D01*
X41070Y435669D02*
X120780D01*
X41070Y434769D02*
X120780D01*
X41070Y433869D02*
X120780D01*
X41070Y432969D02*
X120780D01*
X41070Y432069D02*
X120780D01*
X41070Y431169D02*
X120780D01*
X41070Y430269D02*
X120780D01*
X41070Y429369D02*
X120780D01*
X41070Y428469D02*
X120780D01*
X41070Y427569D02*
X120780D01*
X41070Y426669D02*
X120780D01*
X41070Y425769D02*
X120780D01*
X41070Y424869D02*
X120780D01*
X41070Y423969D02*
X120780D01*
X41070Y423069D02*
X120780D01*
X41070Y422169D02*
X120780D01*
X41070Y421269D02*
X120780D01*
X41070Y420369D02*
X120780D01*
X41070Y419469D02*
X120780D01*
X41070Y418569D02*
X120780D01*
X41070Y417669D02*
X120780D01*
X41070Y416769D02*
X120780D01*
X41070Y415869D02*
X120780D01*
X41070Y414969D02*
X120780D01*
X41070Y414069D02*
X120780D01*
X41070Y413169D02*
X120780D01*
X41070Y412269D02*
X120780D01*
X41070Y411369D02*
X120780D01*
X41070Y410469D02*
X120780D01*
X41070Y409569D02*
X120780D01*
X41070Y408669D02*
X120780D01*
X41070Y407769D02*
X120780D01*
X41070Y406869D02*
X120780D01*
X41070Y405969D02*
X120780D01*
X41070Y405069D02*
X120780D01*
X82924Y404169D02*
X120780D01*
X84326Y403269D02*
X120780D01*
X85233Y402369D02*
X120780D01*
X85874Y401469D02*
X120780D01*
X86329Y400569D02*
X120780D01*
X86635Y399669D02*
X120780D01*
X86812Y398769D02*
X120780D01*
X86870Y397869D02*
X120780D01*
X86812Y396969D02*
X120780D01*
X86634Y396069D02*
X120780D01*
X86328Y395169D02*
X120780D01*
X85873Y394269D02*
X120780D01*
X85231Y393369D02*
X120780D01*
X84323Y392469D02*
X120780D01*
X82919Y391569D02*
X120780D01*
X75370Y390669D02*
X120780D01*
X75370Y389769D02*
X120780D01*
X75460Y388869D02*
X120780D01*
X76350Y387969D02*
X120780D01*
X96693Y387069D02*
X120780D01*
X98807Y386169D02*
X120780D01*
X99822Y385269D02*
X120780D01*
X100722Y384369D02*
X120780D01*
X101622Y383469D02*
X120780D01*
X102522Y382569D02*
X120780D01*
X103422Y381669D02*
X120780D01*
X104322Y380769D02*
X120780D01*
X105222Y379869D02*
X120780D01*
X106122Y378969D02*
X120780D01*
X107022Y378069D02*
X120780D01*
X107922Y377169D02*
X120780D01*
X108802Y376269D02*
X120780D01*
X109435Y375369D02*
X120780D01*
X109840Y374469D02*
X120780D01*
X110069Y373569D02*
X120780D01*
X110143Y372669D02*
X120780D01*
X110143Y371769D02*
X120780D01*
X110143Y370869D02*
X120780D01*
X110143Y369969D02*
X120780D01*
X110143Y369069D02*
X120780D01*
X110143Y368169D02*
X120780D01*
X110143Y367269D02*
X120780D01*
X110143Y366369D02*
X120780D01*
X110143Y365469D02*
X120780D01*
X110143Y364569D02*
X120780D01*
X110143Y363669D02*
X120780D01*
X110143Y362769D02*
X120780D01*
X110143Y361869D02*
X120780D01*
X110143Y360969D02*
X120780D01*
X110143Y360069D02*
X120780D01*
X110143Y359169D02*
X120780D01*
X110143Y358269D02*
X120780D01*
X110143Y357369D02*
X120780D01*
X110143Y356469D02*
X120780D01*
X110143Y355569D02*
X120780D01*
X110143Y354669D02*
X120780D01*
X85469Y444669D02*
X120766D01*
X86548Y450969D02*
X120727D01*
X110143Y353769D02*
X120654D01*
X86043Y445569D02*
X120521D01*
X110143Y352869D02*
X120337D01*
X86767Y450069D02*
X120245D01*
X110158Y351969D02*
X120237D01*
X86445Y446469D02*
X120168D01*
X110292Y351069D02*
X120119D01*
X108908Y340269D02*
X120062D01*
X41070Y516669D02*
X119987D01*
X86864Y449169D02*
X119971D01*
X86707Y447369D02*
X119935D01*
X86844Y448269D02*
X119871D01*
X110425Y350169D02*
X119608D01*
X109797Y341169D02*
X119173D01*
X41070Y517569D02*
X119087D01*
X110558Y349269D02*
X118941D01*
X110415Y342069D02*
X118555D01*
X110692Y348369D02*
X118392D01*
X41070Y518469D02*
X118187D01*
X110843Y342969D02*
X118127D01*
X110952Y347469D02*
X118018D01*
X111120Y343869D02*
X117850D01*
X111183Y346569D02*
X117787D01*
X111265Y344769D02*
X117705D01*
X111285Y345669D02*
X117685D01*
X41070Y519369D02*
X117287D01*
X41070Y520269D02*
X116387D01*
X41070Y521169D02*
X115487D01*
X41070Y542769D02*
X115188D01*
X41070Y522069D02*
X114587D01*
X41070Y541869D02*
X113899D01*
X41070Y522969D02*
X113687D01*
X41070Y540969D02*
X113161D01*
X41070Y523869D02*
X112787D01*
X41070Y540069D02*
X112705D01*
X41070Y539169D02*
X112278D01*
X41070Y524769D02*
X111887D01*
X41070Y525669D02*
X110987D01*
X41070Y538269D02*
X110368D01*
X41070Y526569D02*
X110133D01*
X41070Y527469D02*
X109606D01*
X41070Y537369D02*
X109446D01*
X41070Y528369D02*
X109340D01*
X41070Y530169D02*
X109280D01*
X41070Y529269D02*
X109280D01*
X41070Y531069D02*
X109185D01*
X41070Y531969D02*
X108931D01*
X41070Y536469D02*
X108879D01*
X41070Y532869D02*
X108570D01*
X41070Y535569D02*
X108542D01*
X41070Y533769D02*
X108395D01*
X41070Y534669D02*
X108386D01*
X70620Y666969D02*
X103974D01*
X78228Y641769D02*
X103378D01*
X71740Y666069D02*
X103076D01*
X72826Y665169D02*
X102176D01*
X99979Y339369D02*
X101779D01*
X73778Y664269D02*
X101276D01*
X78575Y642669D02*
X101209D01*
X74620Y663369D02*
X100394D01*
X78875Y643569D02*
X100000D01*
X75369Y662469D02*
X99729D01*
X76037Y661569D02*
X99270D01*
X79130Y644469D02*
X99153D01*
X84046Y369969D02*
X99142D01*
X83832Y369069D02*
X99142D01*
X83502Y368169D02*
X99142D01*
X83039Y367269D02*
X99142D01*
X82414Y366369D02*
X99142D01*
X81571Y365469D02*
X99142D01*
X80382Y364569D02*
X99142D01*
X78336Y363669D02*
X99142D01*
X41070Y362769D02*
X99142D01*
X41070Y361869D02*
X99142D01*
X41070Y360969D02*
X99142D01*
X41070Y360069D02*
X99142D01*
X41070Y359169D02*
X99142D01*
X41070Y358269D02*
X99142D01*
X41070Y357369D02*
X99142D01*
X41070Y356469D02*
X99142D01*
X41070Y355569D02*
X99142D01*
X41070Y354669D02*
X99142D01*
X41070Y353769D02*
X99142D01*
X41070Y352869D02*
X99142D01*
X76634Y660669D02*
X98970D01*
X77166Y659769D02*
X98808D01*
X77640Y658869D02*
X98770D01*
X78059Y657969D02*
X98770D01*
X78427Y657069D02*
X98770D01*
X78748Y656169D02*
X98770D01*
X79023Y655269D02*
X98770D01*
X79253Y654369D02*
X98770D01*
X98545Y351969D02*
X98740D01*
X84154Y370869D02*
X98666D01*
X79442Y653469D02*
X98587D01*
X79342Y645369D02*
X98529D01*
X79589Y652569D02*
X98112D01*
X79512Y646269D02*
X98069D01*
X79697Y651669D02*
X97774D01*
X84160Y371769D02*
X97766D01*
X79642Y647169D02*
X97745D01*
X79764Y650769D02*
X97555D01*
X79731Y648069D02*
X97538D01*
X79792Y649869D02*
X97445D01*
X79781Y648969D02*
X97439D01*
X84064Y372669D02*
X96866D01*
X83862Y373569D02*
X95966D01*
X83546Y374469D02*
X95066D01*
X83099Y375369D02*
X94166D01*
X41070Y351969D02*
X91055D01*
X41070Y339369D02*
X89621D01*
X41070Y351069D02*
X89252D01*
X41070Y340269D02*
X88745D01*
X41070Y350169D02*
X88563D01*
X41070Y341169D02*
X88312D01*
X41070Y349269D02*
X88231D01*
X41070Y342069D02*
X88154D01*
X41070Y348369D02*
X88150D01*
X41070Y347469D02*
X88150D01*
X41070Y346569D02*
X88150D01*
X41070Y345669D02*
X88150D01*
X41070Y344769D02*
X88150D01*
X41070Y343869D02*
X88150D01*
X41070Y342969D02*
X88150D01*
X71041Y594969D02*
X78699D01*
X71041Y441969D02*
X78699D01*
X71057Y506769D02*
X78683D01*
X72206Y608469D02*
X77534D01*
X72206Y455469D02*
X77534D01*
X72919Y544569D02*
X76822D01*
X75372Y391569D02*
X76822D01*
X72924Y404169D02*
X76816D01*
X72924Y557169D02*
X76668D01*
X73473Y595869D02*
X76267D01*
X73473Y442869D02*
X76267D01*
X73478Y505869D02*
X76262D01*
X41070Y558069D02*
X76159D01*
X73935Y607569D02*
X75805D01*
X73935Y454569D02*
X75805D01*
X74323Y545469D02*
X75417D01*
X74326Y556269D02*
X75414D01*
X74326Y403269D02*
X75414D01*
X41070Y558969D02*
X75100D01*
X74765Y596769D02*
X74975D01*
X74765Y443769D02*
X74975D01*
X74778Y504969D02*
X74962D01*
X41070Y559869D02*
X74200D01*
X52736Y363669D02*
X74004D01*
X41070Y560769D02*
X73300D01*
X41070Y561669D02*
X72400D01*
X54782Y364569D02*
X71958D01*
X41070Y562569D02*
X71500D01*
X54944Y378069D02*
X70685D01*
X41070Y563469D02*
X70600D01*
X56352Y365469D02*
X70388D01*
X56583Y377169D02*
X70157D01*
X53072Y378969D02*
X69793D01*
X41070Y564369D02*
X69700D01*
X41070Y379869D02*
X68893D01*
X41070Y565269D02*
X68800D01*
X41070Y594969D02*
X68699D01*
X41070Y441969D02*
X68699D01*
X41070Y506769D02*
X68683D01*
X58382Y366369D02*
X68358D01*
X41070Y489669D02*
X68129D01*
X58613Y376269D02*
X68127D01*
X41070Y380769D02*
X67993D01*
X41070Y566169D02*
X67900D01*
X41070Y608469D02*
X67534D01*
X41070Y455469D02*
X67534D01*
X41070Y381669D02*
X67093D01*
X57965Y567069D02*
X67000D01*
X41070Y490569D02*
X66889D01*
X41070Y544569D02*
X66822D01*
X41070Y557169D02*
X66816D01*
X41070Y404169D02*
X66816D01*
X60439Y367269D02*
X66301D01*
X41070Y595869D02*
X66267D01*
X41070Y442869D02*
X66267D01*
X41070Y505869D02*
X66262D01*
X41070Y491469D02*
X66248D01*
X41070Y382569D02*
X66193D01*
X61032Y567969D02*
X66100D01*
X41070Y492369D02*
X65904D01*
X41070Y607569D02*
X65805D01*
X41070Y454569D02*
X65805D01*
X41070Y493269D02*
X65781D01*
X41070Y494169D02*
X65600D01*
X41070Y545469D02*
X65417D01*
X41070Y556269D02*
X65414D01*
X41070Y403269D02*
X65414D01*
X41070Y383469D02*
X65398D01*
X41070Y596769D02*
X65077D01*
X41070Y443769D02*
X65077D01*
X41070Y504969D02*
X65074D01*
X41070Y384369D02*
X64875D01*
X41070Y495069D02*
X64776D01*
X41070Y606669D02*
X64774D01*
X41070Y453669D02*
X64774D01*
X41070Y385269D02*
X64552D01*
X41070Y546369D02*
X64509D01*
X41070Y555369D02*
X64507D01*
X41070Y402369D02*
X64507D01*
X41070Y386169D02*
X64393D01*
X41070Y393369D02*
X64370D01*
X41070Y392469D02*
X64370D01*
X41070Y391569D02*
X64370D01*
X41070Y390669D02*
X64370D01*
X41070Y389769D02*
X64370D01*
X41070Y388869D02*
X64370D01*
X41070Y387969D02*
X64370D01*
X41070Y387069D02*
X64370D01*
X41070Y597669D02*
X64271D01*
X41070Y444669D02*
X64271D01*
X41070Y504069D02*
X64269D01*
X41070Y495969D02*
X64058D01*
X41070Y605769D02*
X64056D01*
X41070Y452769D02*
X64056D01*
X41070Y547269D02*
X63868D01*
X41070Y394269D02*
X63868D01*
X41070Y554469D02*
X63866D01*
X41070Y401469D02*
X63866D01*
X41070Y598569D02*
X63697D01*
X41070Y445569D02*
X63697D01*
X41070Y503169D02*
X63696D01*
X41070Y496869D02*
X63546D01*
X41070Y604869D02*
X63545D01*
X41070Y451869D02*
X63545D01*
X41070Y548169D02*
X63412D01*
X41070Y395169D02*
X63412D01*
X41070Y553569D02*
X63411D01*
X41070Y400569D02*
X63411D01*
X41070Y599469D02*
X63295D01*
X41070Y446469D02*
X63295D01*
X41070Y502269D02*
X63294D01*
X41070Y497769D02*
X63193D01*
X41070Y603969D02*
X63192D01*
X41070Y450969D02*
X63192D01*
X41070Y549069D02*
X63106D01*
X41070Y396069D02*
X63106D01*
X41070Y552669D02*
X63105D01*
X41070Y399669D02*
X63105D01*
X41070Y600369D02*
X63033D01*
X41070Y447369D02*
X63033D01*
X41070Y501369D02*
X63032D01*
X41070Y498669D02*
X62974D01*
X41070Y603069D02*
X62973D01*
X41070Y450069D02*
X62973D01*
X41070Y549969D02*
X62928D01*
X41070Y396969D02*
X62928D01*
X41070Y551769D02*
X62928D01*
X41070Y398769D02*
X62928D01*
X41070Y601269D02*
X62896D01*
X41070Y448269D02*
X62896D01*
X41070Y500469D02*
X62896D01*
X41070Y499569D02*
X62877D01*
X41070Y602169D02*
X62876D01*
X41070Y449169D02*
X62876D01*
X41070Y550869D02*
X62870D01*
X41070Y397869D02*
X62870D01*
X41070Y629169D02*
X56046D01*
X41070Y567069D02*
X52775D01*
X41070Y579669D02*
X52765D01*
X41070Y630069D02*
X52344D01*
X41070Y567969D02*
X50754D01*
X41070Y578769D02*
X50750D01*
X41070Y630969D02*
X50142D01*
X41070Y568869D02*
X49681D01*
X41070Y577869D02*
X49678D01*
X41070Y569769D02*
X48959D01*
X41070Y576969D02*
X48957D01*
X41070Y631869D02*
X48461D01*
X41070Y570669D02*
X48458D01*
X41070Y576069D02*
X48457D01*
X41070Y363669D02*
X48404D01*
X41070Y571569D02*
X48125D01*
X41070Y575169D02*
X48124D01*
X41070Y378969D02*
X48068D01*
X41070Y572469D02*
X47933D01*
X41070Y574269D02*
X47932D01*
X41070Y573369D02*
X47870D01*
X41070Y632769D02*
X47079D01*
X41070Y364569D02*
X46358D01*
X41070Y378069D02*
X46197D01*
X41070Y633669D02*
X45902D01*
X41070Y365469D02*
X45169D01*
X41070Y377169D02*
X45059D01*
X41070Y634569D02*
X44879D01*
X41070Y366369D02*
X44326D01*
X41070Y376269D02*
X44245D01*
X41070Y635469D02*
X43978D01*
X41070Y367269D02*
X43701D01*
X41070Y375369D02*
X43641D01*
X41070Y368169D02*
X43239D01*
X41070Y374469D02*
X43195D01*
X41070Y636369D02*
X43179D01*
X41070Y369069D02*
X42908D01*
X41070Y373569D02*
X42878D01*
X41070Y369969D02*
X42694D01*
X41070Y372669D02*
X42676D01*
X41070Y370869D02*
X42586D01*
X41070Y371769D02*
X42580D01*
X41070Y637269D02*
X42467D01*
X314498Y503169D02*
X315377D01*
X312517Y502269D02*
X315084D01*
X311354Y501369D02*
X314184D01*
X310454Y500469D02*
X313284D01*
X309554Y499569D02*
X312384D01*
X308654Y498669D02*
X311484D01*
X307510Y497769D02*
X310584D01*
X276454Y496869D02*
X309684D01*
X275554Y495969D02*
X308784D01*
X274654Y495069D02*
X307884D01*
X273754Y494169D02*
X306984D01*
X272854Y493269D02*
X306084D01*
X271954Y492369D02*
X305184D01*
X271054Y491469D02*
X304284D01*
X270302Y490569D02*
X303384D01*
X269823Y489669D02*
X302484D01*
X269481Y488769D02*
X301584D01*
X268978Y487869D02*
X300684D01*
X268183Y486969D02*
X299784D01*
X266794Y486069D02*
X298884D01*
X256800Y485169D02*
X297984D01*
X256534Y484269D02*
X297084D01*
X256040Y483369D02*
X296184D01*
X292252Y482469D02*
X295284D01*
X293541Y481569D02*
X294384D01*
X257052Y482469D02*
X287888D01*
X256861Y486069D02*
X262546D01*
X256861Y486969D02*
X261157D01*
X256861Y487869D02*
X260363D01*
X256861Y488769D02*
X259859D01*
X256861Y489669D02*
X259559D01*
X256861Y490569D02*
X259429D01*
X256861Y491469D02*
X259128D01*
X224056Y387069D02*
X227980D01*
X225333Y386169D02*
X227980D01*
X227072Y385269D02*
X227866D01*
X223140Y387969D02*
X227787D01*
X221332Y388869D02*
X226887D01*
X186828Y389769D02*
X225987D01*
X187890Y390669D02*
X225087D01*
X188572Y391569D02*
X223568D01*
X189001Y392469D02*
X222022D01*
X212327Y399669D02*
X221454D01*
X189242Y393369D02*
X221198D01*
X186776Y398769D02*
X220939D01*
X189320Y394269D02*
X220688D01*
X187893Y397869D02*
X220533D01*
X189243Y395169D02*
X220393D01*
X188573Y396969D02*
X220319D01*
X189002Y396069D02*
X220274D01*
X168565Y399669D02*
X208414D01*
X167656Y400569D02*
X207008D01*
X167461Y401469D02*
X206228D01*
X167461Y402369D02*
X205746D01*
X167461Y403269D02*
X205407D01*
X167461Y404169D02*
X203510D01*
X167461Y405069D02*
X202529D01*
X167461Y405969D02*
X201931D01*
X167461Y406869D02*
X201570D01*
X167461Y407769D02*
X200193D01*
X167461Y408669D02*
X198902D01*
X167461Y409569D02*
X198163D01*
X167461Y410469D02*
X197706D01*
X190459Y411369D02*
X197452D01*
X167461D02*
X188481D01*
X167461Y412269D02*
X186472D01*
X167461Y413169D02*
X185548D01*
X167461Y414069D02*
X184981D01*
X167461Y414969D02*
X184642D01*
X167461Y415869D02*
X183098D01*
X167461Y416769D02*
X181901D01*
X167461Y417669D02*
X181200D01*
X167461Y418569D02*
X180768D01*
X167461Y419469D02*
X180075D01*
X167461Y420369D02*
X178343D01*
X167461Y421269D02*
X177471D01*
X167461Y422169D02*
X176933D01*
X167461Y423069D02*
X176616D01*
X167461Y423969D02*
X174921D01*
X167461Y424869D02*
X173805D01*
X167461Y425769D02*
X173141D01*
X167461Y426669D02*
X172733D01*
X167461Y427569D02*
X170768D01*
X167461Y428469D02*
X169222D01*
X167427Y429369D02*
X168398D01*
G54D19*
X306370Y638670D03*
Y648670D03*
Y658670D03*
X328370Y638670D03*
Y648670D03*
Y658670D03*
X350370Y638670D03*
Y648670D03*
Y658670D03*
X372370Y638670D03*
Y648670D03*
Y658670D03*
X394370Y638670D03*
Y648670D03*
Y658670D03*
X416370Y638670D03*
Y648670D03*
Y658670D03*
X157519Y232770D02*
X129960D01*
Y244370*
Y232770D02*
X105970D01*
X102401Y236339*
Y244370*
X157519D02*
Y232770D01*
X257770*
X260309Y235309*
Y244370*
X268670*
X272370Y248070*
Y282570*
Y293570*
X300270*
X682370Y340370D02*
X669370Y353370D01*
Y361909*
X105260Y649370D02*
X105270D01*
Y659070*
X107970Y661770*
X182970*
X182929Y649370D02*
Y661729D01*
X182970Y661770*
X247039Y649370D02*
Y657801D01*
X243070Y661770*
X182970*
G54D20*
X69870Y601870D03*
X79870D03*
X69870Y550870D03*
X79870D03*
X69870Y499870D03*
X79870D03*
X69870Y448870D03*
X79870D03*
X69870Y397870D03*
X79870D03*
X355770Y378470D03*
X345770D03*
X355770Y405470D03*
X345770D03*
X663470Y277370D03*
X653470Y267370D03*
G54D21*
X268828Y557570D03*
G54D23*
X104643Y345370D03*
X114485D03*
X124328D03*
X134170D03*
X182470Y536270D03*
X162470D03*
X157970Y455270D03*
X260070Y498070D03*
X216070Y513670D03*
X185270Y567970D03*
X108670Y432470D03*
X289970Y491070D03*
G54D25*
X94800Y345370D03*
G54D26*
X350870Y451870D03*
Y441870D03*
X105260Y649370D03*
X91480D03*
X182929D03*
X169150D03*
X155370D03*
X141591D03*
X127811D03*
X247039D03*
X233260D03*
X219480D03*
X205701D03*
X283260D03*
X269480D03*
X59370Y159429D03*
Y145650D03*
Y131870D03*
Y118091D03*
Y104311D03*
X728370Y90531D03*
Y104311D03*
Y118091D03*
Y131870D03*
Y145650D03*
Y159429D03*
Y173209D03*
X177631Y244370D03*
X191411D03*
X205191D03*
X218970D03*
X232750D03*
X246529D03*
X260309D03*
X88621D03*
X102401D03*
X116180D03*
X129960D03*
X143739D03*
X157519D03*
G54D27*
X682370Y340370D03*
X729614D03*
X171770Y369070D03*
Y359070D03*
Y349070D03*
G54D31*
X317770Y284731D03*
Y254809D03*
G54D33*
X378189Y361909D03*
Y617815D03*
X724646D03*
Y361909D03*
G54D38*
X51370Y269570D03*
Y309570D03*
X93370Y269570D03*
Y309570D03*
X135370Y269570D03*
Y309570D03*
X257370Y274570D03*
Y314570D03*
X217370Y274570D03*
Y314570D03*
X177370Y274570D03*
Y314570D03*
X319770Y104370D02*
X316235Y92906D01*
X319770Y102370*
X323306Y92906*
X319770Y104370*
X316995Y95370D02*
X317155D01*
X322385D02*
X322546D01*
X319462Y103370D02*
X320078D01*
X319370Y101299D02*
Y103073D01*
X191370Y131870D02*
X178845Y134345D01*
X187870Y131870*
X178845Y129395*
X191370Y131870*
X183370Y130289D02*
Y130636D01*
Y133104D02*
Y133451D01*
X191370Y131870D02*
X191370D01*
X337770Y89370D02*
X323306Y92906D01*
X332770Y89370*
X323306Y85835*
X337770Y89370*
X327416Y87370D02*
X329588D01*
X327370Y86828D02*
Y87353D01*
Y91387D02*
Y91912D01*
X335370Y88783D02*
Y89957D01*
X393970Y89370D02*
X408435Y85835D01*
X398970Y89370*
X408435Y92906*
X393970Y89370*
X402152Y87370D02*
X404324D01*
X399370Y88050D02*
Y89221D01*
Y89520D02*
Y90690D01*
X407370Y86095D02*
Y86232D01*
Y92508D02*
Y92645D01*
X508770Y89370D02*
X494306Y92906D01*
X503770Y89370*
X494306Y85835*
X508770Y89370*
X498416Y87370D02*
X500588D01*
X495370Y86095D02*
Y86232D01*
Y92508D02*
Y92645D01*
X503370Y88050D02*
Y89221D01*
Y89520D02*
Y90690D01*
X564970Y89370D02*
X579435Y85835D01*
X569970Y89370*
X579435Y92906*
X564970Y89370*
X573152Y87370D02*
X575324D01*
X567370Y88783D02*
Y89957D01*
X575370Y86828D02*
Y87353D01*
Y91387D02*
Y91912D01*
X76370Y131870D02*
X88895Y129395D01*
X79870Y131870*
X88895Y134345*
X76370Y131870*
X79370Y131277D02*
Y132463D01*
X87370Y129697D02*
Y129813D01*
Y133927D02*
Y134044D01*
X482274Y56374D02*
X490770Y64870D01*
Y89370*
X482274Y56374D02*
X187768D01*
X176370Y67768*
Y88870*
X91370D02*
X74811D01*
X59370Y104311*
X319770Y89370D02*
Y116370D01*
X304270Y131870*
X176370*
X319770Y89370D02*
X411970D01*
X490770D02*
X582970D01*
X59370Y131870D02*
X91370D01*
X59370Y159429D02*
X74811Y174870D01*
X91370*
G54D39*
X66370Y318570D03*
X76370D03*
X108370D03*
X118370D03*
X150370D03*
X160370D03*
X282370Y282570D03*
X272370D03*
X242370D03*
X232370D03*
X202370D03*
X192370D03*
X209970Y571170D03*
X199970D03*
G54D42*
X55370Y573370D03*
Y583370D03*
X303370Y603470D03*
Y613470D03*
X226070Y616970D03*
Y626970D03*
G54D49*
X288513Y557570D03*
G54D51*
X489370Y361909D03*
X499370D03*
X509370D03*
X519370D03*
X529370D03*
X539370D03*
X549370D03*
X559370D03*
X569370D03*
X579370D03*
X589370D03*
X599370D03*
X609370D03*
X619370D03*
X629370D03*
X639370D03*
X649370D03*
X659370D03*
X669370D03*
X679370D03*
G54D66*
X50570Y371370D03*
Y353770D03*
X76170Y371370D03*
Y353770D03*
X413970Y315870D03*
Y298270D03*
X388370Y315870D03*
Y298270D03*
X514970Y315870D03*
Y298270D03*
X489370Y315870D03*
Y298270D03*
X614470Y315870D03*
Y298270D03*
X588870Y315870D03*
Y298270D03*
X715570Y315870D03*
Y298270D03*
X689970Y315870D03*
Y298270D03*
G54D79*
X673470Y267370D03*
G54D89*
X88621Y251819D02*
X86620Y246372D01*
X88621Y250201*
X90623Y246372*
X88621Y251819*
X87721Y249370D02*
X88187D01*
X89056D02*
X89521D01*
X87370Y247807D02*
Y248414D01*
X90370Y246855D02*
Y247060D01*
X116180Y253031D02*
X114179Y246372D01*
X116180Y250201*
X118182Y246372*
X116180Y253031*
X115080Y249370D02*
X115746D01*
X116615D02*
X117281D01*
X115982Y252370D02*
X116379D01*
X114370Y246738D02*
Y247008D01*
X117370Y247925D02*
Y249073D01*
X177631Y253031D02*
X175630Y246372D01*
X177631Y250201*
X179633Y246372*
X177631Y253031*
X176531Y249370D02*
X177197D01*
X178066D02*
X178732D01*
X177433Y252370D02*
X177830D01*
X177370Y249701D02*
Y252162D01*
X232750Y250970D02*
X230984Y246583D01*
X232750Y250201*
X234515Y246583*
X232750Y250970*
X232106Y249370D02*
X232344D01*
X233155D02*
X233393D01*
X231370Y247373D02*
Y247542D01*
X234370Y246880D02*
Y246943D01*
X324463Y284731D02*
X319076Y286036D01*
X322617Y284731*
X319076Y283425*
X324463Y284731*
X320883Y285370D02*
X321825D01*
X321370Y283981D02*
Y284271D01*
Y285190D02*
Y285480D01*
X324370Y284708D02*
Y284753D01*
X59370Y269570D02*
X53138Y271338D01*
X56870Y269570*
X53138Y267802*
X59370Y269570*
X55181Y270370D02*
X56550D01*
X54370Y268152D02*
Y268386D01*
Y270754D02*
Y270988D01*
X57370Y269003D02*
Y270137D01*
X140557Y264383D02*
X137870Y269570D01*
X139259Y265681*
X135370Y267070*
X140557Y264383*
X138656Y267370D02*
X139010D01*
X138370Y265516D02*
Y265999D01*
Y268170D02*
Y268605D01*
X101270Y269570D02*
X95138Y271338D01*
X98870Y269570*
X95138Y267802*
X101270Y269570*
X97181Y270370D02*
X98495D01*
X96370Y268158D02*
Y268386D01*
Y270754D02*
Y270983D01*
X99370Y269022D02*
Y270118D01*
X232370Y289070D02*
X231309Y284631D01*
X232370Y288070*
X233431Y284631*
X232370Y289070*
X231486Y285370D02*
X231537D01*
X233203D02*
X233254D01*
X232203Y288370D02*
X232537D01*
X231370Y284827D02*
Y284885D01*
X317770Y291424D02*
X316464Y286036D01*
X317770Y289577*
X319076Y286036*
X317770Y291424*
X317030Y288370D02*
X317325D01*
X318215D02*
X318510D01*
X317757Y291370D02*
X317783D01*
X318370Y287950D02*
Y288948D01*
X76370Y325570D02*
X75309Y320631D01*
X76370Y324070*
X77431Y320631*
X76370Y325570*
X75468Y321370D02*
X75537D01*
X77203D02*
X77272D01*
X76112Y324370D02*
X76628D01*
X75370Y320827D02*
Y320913D01*
X118370Y325570D02*
X117309Y320631D01*
X118370Y324070*
X119431Y320631*
X118370Y325570*
X117468Y321370D02*
X117537D01*
X119203D02*
X119272D01*
X118112Y324370D02*
X118628D01*
X117370Y320827D02*
Y320913D01*
X160370Y325570D02*
X159309Y320631D01*
X160370Y324070*
X161431Y320631*
X160370Y325570*
X159468Y321370D02*
X159537D01*
X161203D02*
X161272D01*
X160112Y324370D02*
X160628D01*
X159370Y320827D02*
Y320913D01*
X355770Y385470D02*
X354356Y379884D01*
X355770Y383470*
X357184Y379884*
X355770Y385470*
X354732Y381370D02*
X354942D01*
X356598D02*
X356808D01*
X355492Y384370D02*
X356049D01*
X354370Y379920D02*
Y379940D01*
X355770Y398470D02*
X357184Y404056D01*
X355770Y400470*
X354356Y404056*
X355770Y398470*
X355542Y399370D02*
X355998D01*
X354783Y402370D02*
X355021D01*
X356519D02*
X356757D01*
X354370Y404000D02*
Y404020D01*
X355770Y412470D02*
X354356Y406884D01*
X355770Y410470*
X357184Y406884*
X355770Y412470*
X354732Y408370D02*
X354942D01*
X356598D02*
X356808D01*
X355492Y411370D02*
X356049D01*
X354370Y406920D02*
Y406940D01*
X62370Y573370D02*
X57431Y574431D01*
X60870Y573370*
X57431Y572309*
X62370Y573370*
X60870D02*
X62370D01*
X60370Y572941D02*
Y573216D01*
Y573524D02*
Y573800D01*
X296370Y603470D02*
X301309Y602409D01*
X297870Y603470*
X301309Y604531*
X296370Y603470*
X296836Y603370D02*
X298194D01*
X297370Y603255D02*
Y603685D01*
X300370Y602611D02*
Y602699D01*
Y604241D02*
Y604329D01*
X219070Y616970D02*
X224009Y615909D01*
X220570Y616970*
X224009Y618031*
X219070Y616970*
X219370Y616906D02*
Y617035D01*
X222370Y616261D02*
Y616415D01*
Y617525D02*
Y617679D01*
X182929Y642311D02*
X184872Y647312D01*
X182929Y643539*
X180986Y647312*
X182929Y642311*
X182906Y642370D02*
X182952D01*
X181740Y645370D02*
X181986D01*
X183872D02*
X184118D01*
X183370Y643446D02*
Y644395D01*
X296370Y613470D02*
X301309Y612409D01*
X297870Y613470*
X301309Y614531*
X296370Y613470*
X297370Y613255D02*
Y613685D01*
X300370Y612611D02*
Y612699D01*
Y614241D02*
Y614329D01*
X233070Y626970D02*
X228131Y628031D01*
X231570Y626970*
X228131Y625909*
X233070Y626970*
X230273Y627370D02*
X231207D01*
X228370Y625961D02*
Y625983D01*
Y627957D02*
Y627979D01*
X231370Y626605D02*
Y626908D01*
Y627032D02*
Y627335D01*
X88621Y244370D02*
Y256319D01*
X77010Y267930*
X143739Y244370D02*
Y247833D01*
X116180Y244370D02*
Y258438D01*
X177631Y244370D02*
Y274309D01*
X177370Y274570*
X205191Y244370D02*
Y254004D01*
X232750Y244370D02*
Y255470D01*
X237100Y259821*
X477370Y256470D02*
X463470Y242570D01*
X376070*
X333909Y284731*
X317770*
X489370Y234370D02*
X489470Y253370D01*
X77010Y267930D02*
X75370Y269570D01*
X51370*
X143739Y247833D02*
Y261201D01*
X135370Y269570*
X116180Y258438D02*
Y259160D01*
X105770Y269570*
X93370*
X205191Y254004D02*
Y254791D01*
X217391Y266991*
Y274550*
X217370Y274570*
X192370Y282570D02*
Y290370D01*
X195570Y293570*
X207370*
X237100Y259821D02*
X239950Y262670D01*
X252120*
X257370Y267920*
Y274570*
X232370Y282570D02*
Y293570D01*
X317770Y284731D02*
Y297970D01*
X277170Y338570*
X270070*
X266470Y342170*
X622120Y281820D02*
X570320D01*
X570270Y281870*
X622120Y281820D02*
X636070Y295770D01*
X638801*
X727970Y279470D02*
X741870Y293370D01*
Y308470*
X727970Y279470D02*
X677870D01*
X661570Y295770*
X638801*
X76370Y318570D02*
Y335370D01*
X118370Y318570D02*
Y335370D01*
X160370Y318570D02*
Y335370D01*
X207370Y338570D02*
Y293570D01*
X232370*
X272370*
X677470Y289370D02*
X723370D01*
X729870Y295870*
Y340114*
X729614Y340370*
X76370Y335370D02*
Y353570D01*
X76170Y353770*
X207070Y338570D02*
X207370D01*
X268470Y355170D02*
Y390270D01*
X271270Y393070*
Y433070*
X355770Y378470D02*
Y405470D01*
X271270Y433070D02*
X276170Y437970D01*
Y443870*
X355770Y405470D02*
Y418870D01*
X337870Y436770*
X319820*
X314570Y442020*
Y461420*
X319820Y466670*
X327070*
X335770Y475370*
Y515970*
X253870Y517870D02*
X233370Y538370D01*
Y615370*
X231770Y616970*
X226070*
X177170Y562270D02*
X78870D01*
X67770Y573370*
X55370*
X303370Y603470D02*
X280870D01*
X273670Y610670*
X246570*
X348970Y570170D02*
X328370D01*
X323570Y574970*
Y583270*
X303370Y603470*
X226070Y616970D02*
X203770D01*
X182929Y637811*
Y649370*
X303370Y613470D02*
X284070D01*
X270570Y626970*
X226070*
X336970Y320570D03*
X332970Y324570D03*
X348770Y300370D03*
X352770Y296370D03*
X654870Y321370D03*
X262970Y359370D03*
X258970Y355370D03*
X254970Y359370D03*
X250970Y355370D03*
X246970Y359370D03*
X242970Y355370D03*
X238970Y359370D03*
X277370Y364870D03*
X281370Y360870D03*
X285370Y356070D03*
X289370Y352070D03*
X293370Y356070D03*
X297370Y352070D03*
X301370Y356070D03*
X305370Y352070D03*
X309370Y356070D03*
X280970Y346870D03*
X281370Y351370D03*
X313370Y352070D03*
X317370Y356070D03*
X321370Y352070D03*
X325370Y356070D03*
X149270Y392670D03*
X149470Y397670D03*
X184870Y371870D03*
X168170Y394270D03*
X228270Y404270D03*
X210370D03*
X225270Y396270D03*
X228070Y369270D03*
X224070Y373270D03*
X228070Y377270D03*
X224070Y381270D03*
X231270Y398270D03*
X273470Y368870D03*
X148970Y433270D03*
X172470Y432270D03*
X189470Y416270D03*
X185470Y420270D03*
X181470Y424270D03*
X177470Y428270D03*
X156870Y426570D03*
X152870Y422570D03*
X168170Y419770D03*
X228270Y420270D03*
Y428270D03*
X193370Y437670D03*
X200670Y435570D03*
X206370Y408270D03*
X228270Y412270D03*
X202370D03*
X230270Y432270D03*
X232270Y416270D03*
Y424270D03*
Y408270D03*
X136870Y452170D03*
X124870Y448170D03*
X128870Y452170D03*
X140870Y448170D03*
X132870D03*
X144870Y452170D03*
X157470Y468170D03*
X161470Y464170D03*
X262970Y447170D03*
X246470Y458070D03*
Y466070D03*
X242470Y462070D03*
X241870Y454070D03*
X246470Y474070D03*
X242470Y470070D03*
X254870Y477970D03*
X286070Y458070D03*
X300070Y466070D03*
X296070Y462070D03*
X270970Y481870D03*
X284770Y452770D03*
X296070Y470070D03*
X290070Y477970D03*
X149270Y494570D03*
X138370Y515770D03*
X143370Y511770D03*
X157270Y494570D03*
X153270Y490570D03*
X160470Y515770D03*
X156470Y511770D03*
X200870Y523570D03*
X196870Y519570D03*
X226770Y508770D03*
X222770Y512770D03*
X230770Y504770D03*
X242770Y492770D03*
X238770Y496770D03*
X234770Y500770D03*
X330670Y499670D03*
X129370Y534270D03*
X125370Y538270D03*
X117370D03*
X121370Y534270D03*
X113370D03*
X204870Y527570D03*
X335770Y539770D03*
X347770Y539670D03*
X323770Y539970D03*
X357970Y602770D03*
X361970Y606770D03*
G54D94*
X59070Y244070D03*
X451170Y307070D03*
X728370Y244070D03*
Y649670D03*
X59070D03*
Y59070D03*
Y204770D03*
X728370Y59070D03*
Y204770D03*
G54D96*
X178857Y359070D02*
X173568Y360868D01*
X176313Y359070*
X173568Y357272*
X178857Y359070*
X173719Y357370D02*
X173858D01*
X175855Y359370D02*
X177975D01*
X175370Y357884D02*
Y358452D01*
Y359688D02*
Y360256D01*
X177370Y358565D02*
Y359576D01*
X188395Y364795D02*
X190870Y366520D01*
X188926Y365326*
X190120Y367270*
X188395Y364795*
X188796Y365370D02*
X188953D01*
X188998D02*
X189220D01*
X189370Y365475D02*
Y365599D01*
Y366049D02*
Y366194D01*
X171170Y394270D02*
X168524Y394624D01*
X170670Y394270*
X168524Y393917*
X171170Y394270*
X169370Y394030D02*
Y394056D01*
Y394484D02*
Y394511D01*
X180570Y394270D02*
X183540Y393740D01*
X181320Y394270*
X183540Y394800*
X180570Y394270*
X181370Y394127D02*
Y394258D01*
Y394282D02*
Y394413D01*
X183370Y393770D02*
Y393780D01*
Y394760D02*
Y394770D01*
X209970Y564170D02*
X211384Y568756D01*
X209970Y566170*
X208556Y568756*
X209970Y564170*
X209600Y565370D02*
X210340D01*
X208983Y567370D02*
X209314D01*
X210626D02*
X210957D01*
X209370Y566116D02*
Y567267D01*
X211370Y568710D02*
Y568730D01*
X179645Y559795D02*
X177920Y562270D01*
X179115Y560326*
X177170Y561520*
X179645Y559795*
X177385Y561370D02*
X177414D01*
X178473D02*
X178547D01*
X177370Y561381D02*
Y561397D01*
X179370Y559987D02*
Y560190D01*
X171770Y359070D02*
X182670D01*
X190870Y367270*
X168170Y394270D02*
X184070D01*
X206470Y557670D02*
X209970Y561170D01*
Y571170*
X206470Y557670D02*
X181770D01*
X177170Y562270*
G54D98*
X176370Y174870D03*
X91370D03*
X176370Y131870D03*
X91370D03*
X176370Y88870D03*
X91370D03*
G54D118*
X240970Y89370D03*
X280370D03*
X319770D03*
Y180370D03*
X240970D03*
X411970Y89370D03*
X451370D03*
X490770D03*
Y180370D03*
X411970D03*
X582970Y89370D03*
X622370D03*
X661770D03*
Y180370D03*
X582970D03*
G54D119*
X330970Y580370D03*
X340970D03*
G54D121*
X719709Y118091D02*
X726722Y116442D01*
X722039Y118091*
X726722Y119739*
X719709Y118091*
X725154Y119370D02*
X725675D01*
X723370Y117230D02*
Y117622D01*
Y118559D02*
Y118951D01*
X719709Y90531D02*
X726722Y88883D01*
X722039Y90531*
X726722Y92180*
X719709Y90531*
X723277Y91370D02*
X724422D01*
X723370Y89671D02*
Y90063D01*
Y91000D02*
Y91392D01*
X676870Y180370D02*
X666720Y185320D01*
X672770Y180370*
X666720Y175420*
X676870Y180370*
X671548Y179370D02*
X674819D01*
X669103Y183370D02*
X670718D01*
X667370Y175737D02*
Y175952D01*
Y184788D02*
Y185003D01*
X671370Y177688D02*
Y179225D01*
Y181515D02*
Y183052D01*
X675370Y179639D02*
Y181102D01*
X720691Y145650D02*
X726722Y144002D01*
X722039Y145650*
X726722Y147298*
X720691Y145650*
X723370Y144917D02*
Y145181D01*
Y146118D02*
Y146382D01*
X319770Y198370D02*
X314820Y185320D01*
X319770Y191370*
X324720Y185320*
X319770Y198370*
X315598Y187370D02*
X316498D01*
X323043D02*
X323942D01*
X317115Y191370D02*
X319770D01*
X322425*
X318632Y195370D02*
X320908D01*
X315370Y185992D02*
Y186769D01*
X319370Y190881D02*
Y197315D01*
X323370Y186970D02*
Y188879D01*
X490770Y193470D02*
X486705Y186069D01*
X490770Y191370*
X494835Y186069*
X490770Y193470*
X487420Y187370D02*
X487703D01*
X493837D02*
X494120D01*
X489617Y191370D02*
X490770D01*
X491923*
X487370Y186936D02*
Y187280D01*
X491370Y190588D02*
Y192378D01*
X104643Y351669D02*
X103830Y346183D01*
X104643Y350520*
X105455Y346183*
X104643Y351669*
X104006Y347370D02*
X104052D01*
X105233D02*
X105280D01*
X104598Y351370D02*
X104687D01*
X728370Y118091D02*
X706870D01*
X699870Y125091*
Y187170*
X680570Y206470*
X728370Y90531D02*
X709709D01*
X689870Y110370*
Y173370*
X682870Y180370*
X661770*
X728370Y145650D02*
X714691D01*
X709870Y150470*
Y198270*
X691770Y216370*
X319770Y180370D02*
Y209370D01*
X326770Y216370*
X691770*
X490770Y180370D02*
Y199470D01*
X497770Y206470*
X680570*
X104643Y345370D02*
Y372670D01*
X95643Y381670*
X74870*
X69870Y386670*
Y397870*
G54D122*
X299370Y234370D03*
X314370D03*
X339370D03*
X364370D03*
X389370D03*
X414370D03*
X439370D03*
X464370D03*
X509370D03*
X489370D03*
X534370D03*
X584370D03*
X559370D03*
X609370D03*
X659370D03*
X634370D03*
X684370D03*
Y244370D03*
X299370Y249370D03*
X339370D03*
X369770Y260170D03*
X394170Y254370D03*
X450370D03*
X464370D03*
X436370D03*
X489470Y253370D03*
X477370Y256470D03*
X534370Y249370D03*
X584370Y264370D03*
X559370D03*
X570270Y281870D03*
X559370Y249370D03*
X626870Y277270D03*
X609370Y259370D03*
X632370Y282370D03*
X634370Y259370D03*
X643370Y268770D03*
X709370Y269370D03*
X684370D03*
X744370Y264370D03*
Y284370D03*
X734370Y269370D03*
X300270Y293570D03*
X333270Y293770D03*
X653770Y309370D03*
X638801Y295770D03*
X677470Y289370D03*
X741870Y308470D03*
X207070Y338570D03*
X268470Y355170D03*
X247670Y338570D03*
X266470Y342170D03*
X429370Y362370D03*
X404370D03*
X454370D03*
X479370D03*
X640970Y332070D03*
X704370Y329370D03*
Y354370D03*
X49370Y384370D03*
X88370Y374370D03*
X120570Y384970D03*
X184070Y394270D03*
X201370Y401370D03*
X209370Y394370D03*
X194370D03*
X204470Y366470D03*
X190870Y367270D03*
X278070Y389670D03*
X271270Y393070D03*
X335370Y399370D03*
X366370Y378370D03*
X363370Y397370D03*
Y387370D03*
X377370Y378370D03*
X429370Y374370D03*
X404370D03*
X454370D03*
X504370D03*
X479370D03*
X529370D03*
X579370D03*
X554370D03*
X629370D03*
X604370D03*
X654370D03*
X704370D03*
X679370D03*
X49370Y409370D03*
Y434370D03*
X283370Y442370D03*
X283570Y431870D03*
X276170Y443870D03*
X271270Y433070D03*
X335370Y414370D03*
X320370D03*
X322170Y427570D03*
X363370Y414370D03*
X49370Y459370D03*
Y484370D03*
X109370D03*
Y459370D03*
X184370Y471370D03*
Y481370D03*
X204370Y471370D03*
Y481370D03*
X194370D03*
Y471370D03*
X216470Y458170D03*
X307370Y470370D03*
X320670Y458070D03*
X343370Y469370D03*
X311370Y482370D03*
X362370Y445370D03*
Y460370D03*
Y476370D03*
X49370Y509370D03*
X109370Y499370D03*
Y519370D03*
X119370Y509370D03*
X137670Y491570D03*
X130670Y490570D03*
X184370Y491370D03*
X204370D03*
X194370D03*
X268770Y516570D03*
X253870Y517870D03*
X264670Y490870D03*
X349370Y494370D03*
Y509370D03*
X327570Y513370D03*
X311970Y507770D03*
X335770Y515970D03*
X49370Y534370D03*
Y559370D03*
X106370Y540370D03*
X172470Y550270D03*
X177170Y562270D03*
X200670Y547170D03*
X343970Y553770D03*
X324370Y564370D03*
X49370Y599370D03*
X149370Y584370D03*
X177170Y602270D03*
X159370Y584370D03*
X169370D03*
X272670Y601770D03*
X348970Y570170D03*
X351370Y599370D03*
Y589370D03*
Y579370D03*
X49370Y624370D03*
X94370D03*
X74370D03*
X114370D03*
X138670Y628770D03*
X162670Y628370D03*
X260370Y627370D03*
X246570Y610670D03*
X363370Y615370D03*
G54D132*
X390670Y254370D02*
X393350Y253550D01*
X391830Y254370*
X393350Y255190*
X390670Y254370*
X390861Y254312D02*
X391938D01*
X391307Y254175D02*
Y254565D01*
X392488Y253814D02*
Y254015D01*
Y254725D02*
Y254926D01*
X187870Y371870D02*
X185513Y372513D01*
X186961Y371870*
X185513Y371227*
X187870Y371870*
X185521Y371230D02*
X185526D01*
X185742Y372411D02*
X185886D01*
X185814Y371309D02*
Y371361D01*
Y372380D02*
Y372431D01*
X186995Y371631D02*
Y372109D01*
X652749Y319249D02*
X654870Y320461D01*
X653392Y319892*
X653961Y321370*
X652749Y319249*
X652759Y319266D02*
X652780D01*
X653434Y320447D02*
X653606D01*
X654836D02*
X654847D01*
X653489Y319671D02*
Y319929D01*
Y320144D02*
Y320544D01*
X654670Y320346D02*
Y320383D01*
X582506Y309506D02*
X588870Y311961D01*
X585271Y312271*
X584961Y315870*
X582506Y309506*
X582627Y309818D02*
X583316D01*
X583082Y310999D02*
X586378D01*
X583538Y312180D02*
X586317D01*
X583993Y313361D02*
X585177D01*
X584449Y314542D02*
X585075D01*
X584904Y315723D02*
X584973D01*
X582629Y309553D02*
Y309824D01*
X583810Y310009D02*
Y312887D01*
X584991Y310464D02*
Y315518D01*
X586172Y310920D02*
Y312193D01*
X587353Y311375D02*
Y312091D01*
X588534Y311831D02*
Y311990D01*
X348770Y297370D02*
X349413Y299727D01*
X348770Y298280*
X348127Y299727*
X348770Y297370*
X348596Y298009D02*
X348944D01*
X348274Y299190D02*
X348366D01*
X349174D02*
X349267D01*
X348791Y297448D02*
Y298328D01*
X354891Y294249D02*
X353680Y296370D01*
X354248Y294892*
X352770Y295461*
X354891Y294249*
X354512Y294466D02*
X354768D01*
X353958Y295647D02*
X354093D01*
X353515Y295035D02*
Y295174D01*
X354696Y294360D02*
Y294590D01*
X649370Y353909D02*
X651427Y358852D01*
X649370Y356819*
X647313Y358852*
X649370Y353909*
X649042Y354696D02*
X649698D01*
X648551Y355877D02*
X650189D01*
X648059Y357058D02*
X649127D01*
X649613D02*
X650681D01*
X647568Y358239D02*
X647932D01*
X650808D02*
X651173D01*
X647584Y358201D02*
Y358584D01*
X648765Y355363D02*
Y357417D01*
X649946Y355292D02*
Y357387D01*
X651127Y358129D02*
Y358555D01*
X285370Y353070D02*
X286013Y355427D01*
X285370Y353980*
X284727Y355427*
X285370Y353070*
X285249Y353515D02*
X285492D01*
X284926Y354696D02*
X285052D01*
X285689D02*
X285814D01*
X285018Y354362D02*
Y354773D01*
X639370Y353909D02*
X641427Y358852D01*
X639370Y356819*
X637313Y358852*
X639370Y353909*
X639042Y354696D02*
X639698D01*
X638551Y355877D02*
X640189D01*
X638059Y357058D02*
X639127D01*
X639613D02*
X640681D01*
X637568Y358239D02*
X637932D01*
X640808D02*
X641173D01*
X638136Y356875D02*
Y358038D01*
X639317Y354037D02*
Y356871D01*
X640498Y356618D02*
Y357933D01*
X289370Y349070D02*
X290013Y351427D01*
X289370Y349980*
X288727Y351427*
X289370Y349070*
X289124Y349972D02*
X289616D01*
X288802Y351153D02*
X288849D01*
X289892D02*
X289939D01*
X289742Y350431D02*
Y350816D01*
X629370Y353909D02*
X631427Y358852D01*
X629370Y356819*
X627313Y358852*
X629370Y353909*
X629042Y354696D02*
X629698D01*
X628551Y355877D02*
X630189D01*
X628059Y357058D02*
X629127D01*
X629613D02*
X630681D01*
X627568Y358239D02*
X627932D01*
X630808D02*
X631173D01*
X627507Y358386D02*
Y358660D01*
X628688Y355548D02*
Y357493D01*
X629869Y355107D02*
Y357311D01*
X631050Y357944D02*
Y358479D01*
X293370Y353070D02*
X294013Y355427D01*
X293370Y353980*
X292727Y355427*
X293370Y353070*
X293249Y353515D02*
X293492D01*
X292926Y354696D02*
X293052D01*
X293689D02*
X293814D01*
X293285Y353384D02*
Y354172D01*
X619370Y353909D02*
X621427Y358852D01*
X619370Y356819*
X617313Y358852*
X619370Y353909*
X619042Y354696D02*
X619698D01*
X618551Y355877D02*
X620189D01*
X618059Y357058D02*
X619127D01*
X619613D02*
X620681D01*
X617568Y358239D02*
X617932D01*
X620808D02*
X621173D01*
X618059Y357059D02*
Y358114D01*
X619240Y354222D02*
Y356947D01*
X620421Y356433D02*
Y357857D01*
X297370Y349070D02*
X298013Y351427D01*
X297370Y349980*
X296727Y351427*
X297370Y349070*
X297124Y349972D02*
X297616D01*
X296802Y351153D02*
X296849D01*
X297892D02*
X297939D01*
X296828Y351059D02*
Y351201D01*
X298009Y351410D02*
Y351416D01*
X609370Y353909D02*
X611427Y358852D01*
X609370Y356819*
X607313Y358852*
X609370Y353909*
X609042Y354696D02*
X609698D01*
X608551Y355877D02*
X610189D01*
X608059Y357058D02*
X609127D01*
X609613D02*
X610681D01*
X607568Y358239D02*
X607932D01*
X610808D02*
X611173D01*
X607430Y358571D02*
Y358736D01*
X608611Y355733D02*
Y357569D01*
X609792Y354922D02*
Y357235D01*
X610973Y357760D02*
Y358402D01*
X301370Y353070D02*
X302013Y355427D01*
X301370Y353980*
X300727Y355427*
X301370Y353070*
X301249Y353515D02*
X301492D01*
X300926Y354696D02*
X301052D01*
X301689D02*
X301814D01*
X301551Y353735D02*
Y354388D01*
X634845Y279895D02*
X633530Y282370D01*
X634025Y280715*
X632370Y281211*
X634845Y279895*
X634095Y280294D02*
X634633D01*
X633798Y281475D02*
X634006D01*
X633412Y280657D02*
Y280899D01*
X634593Y280029D02*
Y280370D01*
X629345Y274795D02*
X628030Y277270D01*
X628525Y275615*
X626870Y276111*
X629345Y274795*
X627888Y275570D02*
X628933D01*
X628185Y276751D02*
X628306D01*
X627507Y275772D02*
Y275920D01*
X628688Y275144D02*
Y276032D01*
X397370Y298270D02*
X391135Y301035D01*
X393461Y298270*
X391135Y295506*
X397370Y298270*
X391253Y295647D02*
X391452D01*
X392247Y296828D02*
X394116D01*
X393240Y298009D02*
X396780D01*
X392687Y299190D02*
X395296D01*
X391693Y300370D02*
X392632D01*
X391307Y295582D02*
Y295711D01*
Y300829D02*
Y300958D01*
X392488Y296106D02*
Y297115D01*
Y299426D02*
Y300434D01*
X393669Y296629D02*
Y299911D01*
X394850Y297153D02*
Y299387D01*
X396031Y297677D02*
Y298864D01*
X397212Y298200D02*
Y298340D01*
X404970Y298270D02*
X411206Y295506D01*
X408880Y298270*
X411206Y301035*
X404970Y298270*
X410888Y295647D02*
X411087D01*
X408224Y296828D02*
X410093D01*
X405560Y298009D02*
X409100D01*
X407044Y299190D02*
X409653D01*
X409708Y300370D02*
X410647D01*
X405479Y298044D02*
Y298496D01*
X406660Y297521D02*
Y299019D01*
X407841Y296997D02*
Y299543D01*
X409022Y296474D02*
Y298101D01*
Y298440D02*
Y300067D01*
X410203Y295950D02*
Y296697D01*
Y299843D02*
Y300590D01*
X397370Y315870D02*
X391135Y318635D01*
X393461Y315870*
X391135Y313106*
X397370Y315870*
X391350Y313361D02*
X391712D01*
X392343Y314542D02*
X394375D01*
X393337Y315723D02*
X397039D01*
X392590Y316904D02*
X395037D01*
X391597Y318085D02*
X392373D01*
X391307Y313182D02*
Y313311D01*
Y318429D02*
Y318558D01*
X392488Y313706D02*
Y314715D01*
Y317026D02*
Y318034D01*
X393669Y314229D02*
Y317511D01*
X394850Y314753D02*
Y316987D01*
X396031Y315277D02*
Y316464D01*
X397212Y315800D02*
Y315940D01*
X404970Y315870D02*
X411206Y313106D01*
X408880Y315870*
X411206Y318635*
X404970Y315870*
X410629Y313361D02*
X410990D01*
X407965Y314542D02*
X409997D01*
X405301Y315723D02*
X409003D01*
X407303Y316904D02*
X409750D01*
X409967Y318085D02*
X410744D01*
X405479Y315644D02*
Y316096D01*
X406660Y315121D02*
Y316619D01*
X407841Y314597D02*
Y317143D01*
X409022Y314074D02*
Y315701D01*
Y316040D02*
Y317667D01*
X410203Y313550D02*
Y314297D01*
Y317443D02*
Y318190D01*
X339970Y320570D02*
X337613Y321213D01*
X339061Y320570*
X337613Y319927*
X339970Y320570*
X338785Y320447D02*
X339521D01*
X338162Y320077D02*
Y320171D01*
Y320969D02*
Y321063D01*
X339343Y320399D02*
Y320741D01*
X335970Y324570D02*
X333613Y325213D01*
X335061Y324570*
X333613Y323927*
X335970Y324570*
X333756Y323990D02*
X333846D01*
X333707Y325171D02*
X333766D01*
X334619Y324202D02*
Y324374D01*
Y324766D02*
Y324939D01*
X335800Y324524D02*
Y324616D01*
X483006Y309506D02*
X489370Y311961D01*
X485771Y312271*
X485461Y315870*
X483006Y309506*
X483127Y309818D02*
X483816D01*
X483582Y310999D02*
X486878D01*
X484038Y312180D02*
X486817D01*
X484493Y313361D02*
X485677D01*
X484949Y314542D02*
X485575D01*
X485404Y315723D02*
X485473D01*
X483425Y309668D02*
Y310592D01*
X484606Y310123D02*
Y313655D01*
X485787Y310579D02*
Y312269D01*
X486968Y311034D02*
Y312167D01*
X488149Y311490D02*
Y312066D01*
X489330Y311945D02*
Y311964D01*
X498370Y298270D02*
X492135Y301035D01*
X494461Y298270*
X492135Y295506*
X498370Y298270*
X492253Y295647D02*
X492452D01*
X493247Y296828D02*
X495116D01*
X494240Y298009D02*
X497780D01*
X493687Y299190D02*
X496296D01*
X492693Y300370D02*
X493632D01*
X492873Y295833D02*
Y296383D01*
Y300157D02*
Y300707D01*
X494054Y296357D02*
Y297787D01*
Y298753D02*
Y300184D01*
X495235Y296880D02*
Y299660D01*
X496416Y297404D02*
Y299136D01*
X497597Y297927D02*
Y298613D01*
X505970Y298270D02*
X512206Y295506D01*
X509880Y298270*
X512206Y301035*
X505970Y298270*
X511888Y295647D02*
X512087D01*
X509224Y296828D02*
X511093D01*
X506560Y298009D02*
X510100D01*
X508044Y299190D02*
X510653D01*
X510708Y300370D02*
X511647D01*
X507045Y297794D02*
Y298747D01*
X508226Y297270D02*
Y299270D01*
X509407Y296746D02*
Y299794D01*
X510588Y296223D02*
Y297428D01*
Y299112D02*
Y300317D01*
X511769Y295699D02*
Y296025D01*
Y300516D02*
Y300841D01*
X498370Y315870D02*
X492135Y318635D01*
X494461Y315870*
X492135Y313106*
X498370Y315870*
X492350Y313361D02*
X492712D01*
X493343Y314542D02*
X495375D01*
X494337Y315723D02*
X498039D01*
X493590Y316904D02*
X496037D01*
X492597Y318085D02*
X493373D01*
X492873Y313433D02*
Y313983D01*
Y317757D02*
Y318307D01*
X494054Y313957D02*
Y315387D01*
Y316353D02*
Y317784D01*
X495235Y314480D02*
Y317260D01*
X496416Y315004D02*
Y316736D01*
X497597Y315527D02*
Y316213D01*
X505970Y315870D02*
X512206Y313106D01*
X509880Y315870*
X512206Y318635*
X505970Y315870*
X511629Y313361D02*
X511990D01*
X508965Y314542D02*
X510997D01*
X506301Y315723D02*
X510003D01*
X508303Y316904D02*
X510750D01*
X510967Y318085D02*
X511744D01*
X507045Y315394D02*
Y316347D01*
X508226Y314870D02*
Y316870D01*
X509407Y314346D02*
Y317394D01*
X510588Y313823D02*
Y315028D01*
Y316712D02*
Y317917D01*
X511769Y313299D02*
Y313625D01*
Y318116D02*
Y318441D01*
X597870Y298270D02*
X591635Y301035D01*
X593961Y298270*
X591635Y295506*
X597870Y298270*
X591753Y295647D02*
X591952D01*
X592747Y296828D02*
X594616D01*
X593740Y298009D02*
X597280D01*
X593187Y299190D02*
X595796D01*
X592193Y300370D02*
X593132D01*
X592077Y295702D02*
Y296031D01*
Y300509D02*
Y300838D01*
X593258Y296225D02*
Y297435D01*
Y299105D02*
Y300315D01*
X594439Y296749D02*
Y299791D01*
X595620Y297272D02*
Y299268D01*
X596801Y297796D02*
Y298744D01*
X605470Y298270D02*
X611706Y295506D01*
X609380Y298270*
X611706Y301035*
X605470Y298270*
X611388Y295647D02*
X611587D01*
X608724Y296828D02*
X610593D01*
X606060Y298009D02*
X609600D01*
X607544Y299190D02*
X610153D01*
X610208Y300370D02*
X611147D01*
X606249Y297925D02*
Y298615D01*
X607430Y297401D02*
Y299139D01*
X608611Y296878D02*
Y299662D01*
X609792Y296354D02*
Y297780D01*
Y298760D02*
Y300186D01*
X610973Y295831D02*
Y296377D01*
Y300164D02*
Y300710D01*
X597870Y315870D02*
X591635Y318635D01*
X593961Y315870*
X591635Y313106*
X597870Y315870*
X591850Y313361D02*
X592212D01*
X592843Y314542D02*
X594875D01*
X593837Y315723D02*
X597539D01*
X593090Y316904D02*
X595537D01*
X592097Y318085D02*
X592873D01*
X592077Y313302D02*
Y313631D01*
Y318109D02*
Y318438D01*
X593258Y313825D02*
Y315035D01*
Y316705D02*
Y317915D01*
X594439Y314349D02*
Y317391D01*
X595620Y314872D02*
Y316868D01*
X596801Y315396D02*
Y316344D01*
X605470Y315870D02*
X611706Y313106D01*
X609380Y315870*
X611706Y318635*
X605470Y315870*
X611129Y313361D02*
X611490D01*
X608465Y314542D02*
X610497D01*
X605801Y315723D02*
X609503D01*
X607803Y316904D02*
X610250D01*
X610467Y318085D02*
X611244D01*
X606249Y315525D02*
Y316215D01*
X607430Y315001D02*
Y316739D01*
X608611Y314478D02*
Y317262D01*
X609792Y313954D02*
Y315380D01*
Y316360D02*
Y317786D01*
X610973Y313431D02*
Y313977D01*
Y317764D02*
Y318310D01*
X683606Y304634D02*
X686061Y298270D01*
X686371Y301870*
X689970Y302180*
X683606Y304634*
X685706Y299190D02*
X686140D01*
X685250Y300370D02*
X686241D01*
X684795Y301551D02*
X686343D01*
X684340Y302732D02*
X688536D01*
X683884Y303913D02*
X685474D01*
X684195Y303108D02*
Y304407D01*
X685376Y300046D02*
Y303952D01*
X686557Y301886D02*
Y303496D01*
X687738Y301987D02*
Y303041D01*
X688919Y302089D02*
Y302585D01*
X657270Y309370D02*
X654590Y310190D01*
X656111Y309370*
X654590Y308550*
X657270Y309370*
X654752Y308637D02*
X654875D01*
X655279Y309818D02*
X655804D01*
X654670Y308575D02*
Y308593D01*
Y310147D02*
Y310166D01*
X655851Y308936D02*
Y309230D01*
Y309510D02*
Y309804D01*
X657032Y309297D02*
Y309443D01*
X698970Y298270D02*
X692735Y301035D01*
X695061Y298270*
X692735Y295506*
X698970Y298270*
X692853Y295647D02*
X693052D01*
X693847Y296828D02*
X695716D01*
X694840Y298009D02*
X698380D01*
X694287Y299190D02*
X696896D01*
X693293Y300370D02*
X694232D01*
X693643Y295908D02*
Y296585D01*
Y299955D02*
Y300632D01*
X694824Y296432D02*
Y297988D01*
Y298552D02*
Y300108D01*
X696005Y296955D02*
Y299585D01*
X697186Y297479D02*
Y299061D01*
X698367Y298003D02*
Y298538D01*
X706570Y298270D02*
X712806Y295506D01*
X710480Y298270*
X712806Y301035*
X706570Y298270*
X712488Y295647D02*
X712687D01*
X709824Y296828D02*
X711693D01*
X707160Y298009D02*
X710700D01*
X708644Y299190D02*
X711253D01*
X711308Y300370D02*
X712247D01*
X706634Y298242D02*
Y298298D01*
X707815Y297718D02*
Y298822D01*
X708996Y297195D02*
Y299345D01*
X710177Y296671D02*
Y299869D01*
X711358Y296148D02*
Y297227D01*
Y299314D02*
Y300393D01*
X712539Y295624D02*
Y295823D01*
Y300717D02*
Y300916D01*
X683752Y322377D02*
X686062Y315959D01*
X686453Y319550*
X690059Y319779*
X683752Y322377*
X685721Y316904D02*
X686165D01*
X685296Y318085D02*
X686294D01*
X684872Y319266D02*
X686422D01*
X684447Y320447D02*
X688435D01*
X684022Y321628D02*
X685569D01*
X684195Y321148D02*
Y322195D01*
X685376Y317865D02*
Y321708D01*
X686557Y319557D02*
Y321222D01*
X687738Y319632D02*
Y320735D01*
X688919Y319706D02*
Y320248D01*
X698970Y315870D02*
X692735Y318635D01*
X695061Y315870*
X692735Y313106*
X698970Y315870*
X692950Y313361D02*
X693312D01*
X693943Y314542D02*
X695975D01*
X694937Y315723D02*
X698639D01*
X694190Y316904D02*
X696637D01*
X693197Y318085D02*
X693973D01*
X693643Y313508D02*
Y314185D01*
Y317555D02*
Y318232D01*
X694824Y314032D02*
Y315588D01*
Y316152D02*
Y317708D01*
X696005Y314555D02*
Y317185D01*
X697186Y315079D02*
Y316661D01*
X698367Y315603D02*
Y316138D01*
X706570Y315870D02*
X712806Y313106D01*
X710480Y315870*
X712806Y318635*
X706570Y315870*
X712229Y313361D02*
X712590D01*
X709565Y314542D02*
X711597D01*
X706901Y315723D02*
X710603D01*
X708903Y316904D02*
X711350D01*
X711567Y318085D02*
X712344D01*
X706634Y315842D02*
Y315898D01*
X707815Y315318D02*
Y316422D01*
X708996Y314795D02*
Y316945D01*
X710177Y314271D02*
Y317469D01*
X711358Y313748D02*
Y314827D01*
Y316914D02*
Y317993D01*
X712539Y313224D02*
Y313423D01*
Y318317D02*
Y318516D01*
X59570Y353770D02*
X53335Y356535D01*
X55661Y353770*
X53335Y351006*
X59570Y353770*
X53459Y351153D02*
X53668D01*
X54453Y352334D02*
X56332D01*
X55446Y353515D02*
X58996D01*
X54881Y354696D02*
X57481D01*
X53887Y355877D02*
X54817D01*
X53542Y351098D02*
Y351252D01*
Y356288D02*
Y356443D01*
X54723Y351621D02*
Y352656D01*
Y354884D02*
Y355919D01*
X55904Y352145D02*
Y355395D01*
X57085Y352668D02*
Y354872D01*
X58266Y353192D02*
Y354348D01*
X59447Y353716D02*
Y353825D01*
X67170Y353770D02*
X73406Y351006D01*
X71080Y353770*
X73406Y356535*
X67170Y353770*
X73072Y351153D02*
X73281D01*
X70408Y352334D02*
X72288D01*
X67745Y353515D02*
X71294D01*
X69259Y354696D02*
X71859D01*
X71923Y355877D02*
X72853D01*
X67714Y353529D02*
Y354011D01*
X68895Y353005D02*
Y354535D01*
X70076Y352482D02*
Y355058D01*
X71257Y351958D02*
Y353559D01*
Y353981D02*
Y355582D01*
X72438Y351435D02*
Y352156D01*
Y355385D02*
Y356106D01*
X114485Y341242D02*
X115725Y343132D01*
X114485Y341630*
X113245Y343132*
X114485Y341242*
X114181Y341705D02*
X114423D01*
X114547D02*
X114789D01*
X113406Y342886D02*
X113447D01*
X115523D02*
X115564D01*
X113773Y342327D02*
Y342492D01*
X114954Y341956D02*
Y342198D01*
X134170Y351099D02*
X132361Y347180D01*
X134170Y349110*
X135980Y347180*
X134170Y351099*
X132559Y347610D02*
X132764D01*
X135576D02*
X135781D01*
X133105Y348791D02*
X133871D01*
X134469D02*
X135235D01*
X133650Y349972D02*
X134690D01*
X132669Y347509D02*
Y347847D01*
X133850Y348769D02*
Y350405D01*
X135031Y348192D02*
Y349234D01*
X128870Y449170D02*
X129513Y451527D01*
X128870Y450080*
X128227Y451527*
X128870Y449170*
X128868Y449176D02*
X128872D01*
X128546Y450357D02*
X128747D01*
X128993D02*
X129194D01*
X129126Y450108D02*
Y450655D01*
X124328Y350199D02*
X122718Y347359D01*
X124328Y349110*
X125938Y347359*
X124328Y350199*
X122860Y347610D02*
X122948D01*
X125707D02*
X125795D01*
X123530Y348791D02*
X124034D01*
X124621D02*
X125126D01*
X124199Y349972D02*
X124456D01*
X123221Y347907D02*
Y348247D01*
X124402Y349029D02*
Y350067D01*
X125583Y347745D02*
Y347985D01*
X124870Y445170D02*
X125513Y447527D01*
X124870Y446080*
X124227Y447527*
X124870Y445170*
X124744Y445633D02*
X124996D01*
X124421Y446814D02*
X124544D01*
X125196D02*
X125319D01*
X124402Y446886D02*
Y447133D01*
X114485Y351669D02*
X112675Y347180D01*
X114485Y349110*
X116295Y347180*
X114485Y351669*
X112849Y347610D02*
X113079D01*
X115891D02*
X116121D01*
X113325Y348791D02*
X114186D01*
X114784D02*
X115645D01*
X113801Y349972D02*
X115169D01*
X114277Y351153D02*
X114693D01*
X113773Y348350D02*
Y349902D01*
X114954Y348610D02*
Y350506D01*
X116135Y347350D02*
Y347576D01*
X117070Y384970D02*
X119750Y384150D01*
X118230Y384970*
X119750Y385790*
X117070Y384970*
X119518Y384221D02*
X119618D01*
X118483Y385402D02*
X119031D01*
X117316Y384895D02*
Y385045D01*
X118497Y384534D02*
Y384826D01*
Y385114D02*
Y385407D01*
X119678Y384172D02*
Y384189D01*
Y385751D02*
Y385768D01*
X171770Y342942D02*
X173858Y346982D01*
X171770Y344936*
X169682Y346982*
X171770Y342942*
X171188Y344067D02*
X172352D01*
X170578Y345248D02*
X171452D01*
X172089D02*
X172962D01*
X169968Y346429D02*
X170246D01*
X173294D02*
X173572D01*
X170461Y345475D02*
Y346219D01*
X171642Y343190D02*
Y345062D01*
X172823Y344979D02*
Y345968D01*
X178857Y349070D02*
X173858Y351158D01*
X175904Y349070*
X173858Y346982*
X178857Y349070*
X174474Y347610D02*
X175362D01*
X175631Y348791D02*
X178190D01*
X175020Y349972D02*
X176697D01*
X173863Y351153D02*
X173869D01*
X174004Y347043D02*
Y347131D01*
Y351009D02*
Y351097D01*
X175185Y347536D02*
Y348336D01*
Y349804D02*
Y350604D01*
X176366Y348030D02*
Y350111D01*
X177547Y348523D02*
Y349617D01*
X178728Y349016D02*
Y349124D01*
X244170Y338570D02*
X246850Y337750D01*
X245330Y338570*
X246850Y339390*
X244170Y338570*
X245503Y338162D02*
X246086D01*
X246698Y339343D02*
X246764D01*
X244864Y338358D02*
Y338782D01*
X246045Y337997D02*
Y338185D01*
Y338956D02*
Y339144D01*
X204470Y362970D02*
X205290Y365650D01*
X204470Y364130*
X203650Y365650*
X204470Y362970*
X204111Y364144D02*
X204462D01*
X204478D02*
X204829D01*
X203750Y365325D02*
X203825D01*
X205115D02*
X205191D01*
X204710Y363753D02*
Y364574D01*
X207070Y342070D02*
X206250Y339390D01*
X207070Y340911*
X207890Y339390*
X207070Y342070*
X206597Y340524D02*
X206862D01*
X207278D02*
X207543D01*
X206959Y341705D02*
X207182D01*
X207072Y340908D02*
Y342065D01*
X262970Y362370D02*
X262327Y360013D01*
X262970Y361461*
X263613Y360013*
X262970Y362370*
X262487Y360601D02*
X262588D01*
X263352D02*
X263453D01*
X262810Y361782D02*
X263130D01*
X262579Y360579D02*
Y360935D01*
X262970Y444170D02*
X263613Y446527D01*
X262970Y445080*
X262327Y446527*
X262970Y444170*
X262893Y444452D02*
X263047D01*
X262571Y445633D02*
X262724D01*
X263216D02*
X263369D01*
X262579Y445605D02*
Y445961D01*
X258970Y358370D02*
X258327Y356013D01*
X258970Y357461*
X259613Y356013*
X258970Y358370*
X258612Y357058D02*
X258791D01*
X259149D02*
X259328D01*
X258934Y358239D02*
X259006D01*
X259036Y357313D02*
Y358130D01*
X225770Y512770D02*
X223413Y513413D01*
X224861Y512770*
X223413Y512127*
X225770Y512770*
X224456Y512950D02*
X225111D01*
X223606Y512179D02*
Y512212D01*
Y513328D02*
Y513361D01*
X224787Y512502D02*
Y512737D01*
Y512803D02*
Y513038D01*
X254970Y362370D02*
X254327Y360013D01*
X254970Y361461*
X255613Y360013*
X254970Y362370*
X254487Y360601D02*
X254588D01*
X255352D02*
X255453D01*
X254810Y361782D02*
X255130D01*
X255493Y360285D02*
Y360455D01*
X229770Y508770D02*
X227413Y509413D01*
X228861Y508770*
X227413Y508127*
X229770Y508770*
X227636Y508226D02*
X227776D01*
X227427Y509407D02*
X227436D01*
X228330Y508377D02*
Y508534D01*
Y509006D02*
Y509163D01*
X229511Y508699D02*
Y508841D01*
X250970Y358370D02*
X250327Y356013D01*
X250970Y357461*
X251613Y356013*
X250970Y358370*
X250612Y357058D02*
X250791D01*
X251149D02*
X251328D01*
X250934Y358239D02*
X251006D01*
X250769Y357007D02*
Y357632D01*
X233770Y504770D02*
X231413Y505413D01*
X232861Y504770*
X231413Y504127*
X233770Y504770*
X232665Y504683D02*
X233451D01*
X231873Y504252D02*
Y504331D01*
Y505209D02*
Y505288D01*
X233054Y504575D02*
Y504966D01*
X246970Y362370D02*
X246327Y360013D01*
X246970Y361461*
X247613Y360013*
X246970Y362370*
X246487Y360601D02*
X246588D01*
X247352D02*
X247453D01*
X246810Y361782D02*
X247130D01*
X247226Y360885D02*
Y361434D01*
X240649Y490649D02*
X242770Y491861D01*
X241292Y491292*
X241861Y492770*
X240649Y490649*
X241245Y491692D02*
X241446D01*
X242332D02*
X242475D01*
X241321Y491033D02*
Y491303D01*
Y491367D02*
Y491825D01*
X242502Y491707D02*
Y491757D01*
X242970Y358370D02*
X242327Y356013D01*
X242970Y357461*
X243613Y356013*
X242970Y358370*
X242612Y357058D02*
X242791D01*
X243149D02*
X243328D01*
X242934Y358239D02*
X243006D01*
X242502Y356406D02*
Y356653D01*
X236649Y494649D02*
X238770Y495861D01*
X237292Y495292*
X237861Y496770*
X236649Y494649*
X236984Y495235D02*
X237675D01*
X237658Y496416D02*
X237724D01*
X237778Y495294D02*
Y495479D01*
Y496554D02*
Y496625D01*
X238970Y362370D02*
X238327Y360013D01*
X238970Y361461*
X239613Y360013*
X238970Y362370*
X238487Y360601D02*
X238588D01*
X239352D02*
X239453D01*
X238810Y361782D02*
X239130D01*
X238959Y361435D02*
Y362328D01*
X232649Y498649D02*
X234770Y499861D01*
X233292Y499292*
X233861Y500770*
X232649Y498649*
X232723Y498778D02*
X232875D01*
X233397Y499959D02*
X233549D01*
X233054Y498880D02*
Y499358D01*
X234235Y499555D02*
Y499655D01*
X227391Y394149D02*
X226180Y396270D01*
X226748Y394792*
X225270Y395361*
X227391Y394149*
X226163Y394850D02*
X226596D01*
X226726D02*
X226991D01*
X226271Y396031D02*
X226316D01*
X225968Y394962D02*
Y395092D01*
X227149Y394287D02*
Y394574D01*
X278370Y351370D02*
X280727Y350727D01*
X279280Y351370*
X280727Y352013*
X278370Y351370*
X279164Y351153D02*
X279767D01*
X279113Y351167D02*
Y351573D01*
X280294Y350845D02*
Y350920D01*
Y351821D02*
Y351895D01*
X233391Y396149D02*
X232180Y398270D01*
X232748Y396792*
X231270Y397361*
X233391Y396149*
X231530Y397212D02*
X231656D01*
X232587D02*
X232784D01*
X231873Y397016D02*
Y397129D01*
X233054Y396342D02*
Y396740D01*
X529370Y353909D02*
X531427Y358852D01*
X529370Y356819*
X527313Y358852*
X529370Y353909*
X529042Y354696D02*
X529698D01*
X528551Y355877D02*
X530189D01*
X528059Y357058D02*
X529127D01*
X529613D02*
X530681D01*
X527568Y358239D02*
X527932D01*
X530808D02*
X531173D01*
X528303Y356473D02*
Y357873D01*
X529484Y354183D02*
Y356931D01*
X530665Y357020D02*
Y358098D01*
X280370Y364870D02*
X278013Y365513D01*
X279461Y364870*
X278013Y364227*
X280370Y364870*
X278436Y365325D02*
X278702D01*
X279113Y364527D02*
Y364715D01*
Y365025D02*
Y365213D01*
X280294Y364849D02*
Y364891D01*
X539370Y353909D02*
X541427Y358852D01*
X539370Y356819*
X537313Y358852*
X539370Y353909*
X539042Y354696D02*
X539698D01*
X538551Y355877D02*
X540189D01*
X538059Y357058D02*
X539127D01*
X539613D02*
X540681D01*
X537568Y358239D02*
X537932D01*
X540808D02*
X541173D01*
X537751Y357799D02*
Y358419D01*
X538932Y354962D02*
Y357252D01*
X540113Y355694D02*
Y357553D01*
X541294Y358531D02*
Y358720D01*
X284370Y360870D02*
X282013Y361513D01*
X283461Y360870*
X282013Y360227*
X284370Y360870*
X282856Y360601D02*
X283385D01*
X282656Y360402D02*
Y360512D01*
Y361228D02*
Y361338D01*
X283837Y360724D02*
Y361016D01*
X519370Y356408D02*
X520730Y358337D01*
X519370Y356819*
X518010Y358337*
X519370Y356408*
X518912Y357058D02*
X519155D01*
X519585D02*
X519828D01*
X518079Y358239D02*
X518098D01*
X520643D02*
X520661D01*
X518855Y357139D02*
Y357394D01*
X520036Y357353D02*
Y357562D01*
X276470Y368870D02*
X274113Y369513D01*
X275561Y368870*
X274113Y368227*
X276470Y368870*
X275557Y368868D02*
X276464D01*
X274389Y368302D02*
Y368349D01*
Y369391D02*
Y369438D01*
X275570Y368624D02*
Y369116D01*
X549370Y353909D02*
X551427Y358852D01*
X549370Y356819*
X547313Y358852*
X549370Y353909*
X549042Y354696D02*
X549698D01*
X548551Y355877D02*
X550189D01*
X548059Y357058D02*
X549127D01*
X549613D02*
X550681D01*
X547568Y358239D02*
X547932D01*
X550808D02*
X551173D01*
X548380Y356288D02*
Y357797D01*
X549561Y354368D02*
Y357007D01*
X550742Y357205D02*
Y358174D01*
X327491Y353949D02*
X326280Y356070D01*
X326848Y354592*
X325370Y355161*
X327491Y353949*
X326183Y354696D02*
X326577D01*
X326808D02*
X327064D01*
X326354Y355877D02*
X326390D01*
X326352Y354599D02*
Y354783D01*
Y355881D02*
Y355943D01*
X589370Y353909D02*
X591427Y358852D01*
X589370Y356819*
X587313Y358852*
X589370Y353909*
X589042Y354696D02*
X589698D01*
X588551Y355877D02*
X590189D01*
X588059Y357058D02*
X589127D01*
X589613D02*
X590681D01*
X587568Y358239D02*
X587932D01*
X590808D02*
X591173D01*
X587353Y358755D02*
Y358812D01*
X588534Y355918D02*
Y357645D01*
X589715Y354737D02*
Y357159D01*
X590896Y357575D02*
Y358326D01*
X309370Y353070D02*
X310013Y355427D01*
X309370Y353980*
X308727Y355427*
X309370Y353070*
X309249Y353515D02*
X309492D01*
X308926Y354696D02*
X309052D01*
X309689D02*
X309814D01*
X309818Y354713D02*
Y354989D01*
X599370Y353909D02*
X601427Y358852D01*
X599370Y356819*
X597313Y358852*
X599370Y353909*
X599042Y354696D02*
X599698D01*
X598551Y355877D02*
X600189D01*
X598059Y357058D02*
X599127D01*
X599613D02*
X600681D01*
X597568Y358239D02*
X597932D01*
X600808D02*
X601173D01*
X597982Y357244D02*
Y358191D01*
X599163Y354407D02*
Y357023D01*
X600344Y356248D02*
Y357781D01*
X305370Y349070D02*
X306013Y351427D01*
X305370Y349980*
X304727Y351427*
X305370Y349070*
X305124Y349972D02*
X305616D01*
X304802Y351153D02*
X304849D01*
X305892D02*
X305939D01*
X305094Y350080D02*
Y350600D01*
X579370Y353909D02*
X581427Y358852D01*
X579370Y356819*
X577313Y358852*
X579370Y353909*
X579042Y354696D02*
X579698D01*
X578551Y355877D02*
X580189D01*
X578059Y357058D02*
X579127D01*
X579613D02*
X580681D01*
X577568Y358239D02*
X577932D01*
X580808D02*
X581173D01*
X577905Y357429D02*
Y358267D01*
X579086Y354592D02*
Y357099D01*
X580267Y356064D02*
Y357705D01*
X569370Y353909D02*
X571427Y358852D01*
X569370Y356819*
X567313Y358852*
X569370Y353909*
X569042Y354696D02*
X569698D01*
X568551Y355877D02*
X570189D01*
X568059Y357058D02*
X569127D01*
X569613D02*
X570681D01*
X567568Y358239D02*
X567932D01*
X570808D02*
X571173D01*
X568457Y356103D02*
Y357721D01*
X569638Y354553D02*
Y357083D01*
X570819Y357390D02*
Y358250D01*
X317370Y353070D02*
X318013Y355427D01*
X317370Y353980*
X316727Y355427*
X317370Y353070*
X317249Y353515D02*
X317492D01*
X316926Y354696D02*
X317052D01*
X317689D02*
X317814D01*
X316904Y354776D02*
Y355027D01*
X559370Y353909D02*
X561427Y358852D01*
X559370Y356819*
X557313Y358852*
X559370Y353909*
X559042Y354696D02*
X559698D01*
X558551Y355877D02*
X560189D01*
X558059Y357058D02*
X559127D01*
X559613D02*
X560681D01*
X557568Y358239D02*
X557932D01*
X560808D02*
X561173D01*
X557828Y357614D02*
Y358343D01*
X559009Y354777D02*
Y357175D01*
X560190Y355879D02*
Y357629D01*
X561371Y358716D02*
Y358796D01*
X323491Y349949D02*
X322280Y352070D01*
X322848Y350592*
X321370Y351161*
X323491Y349949*
X323450Y349972D02*
X323478D01*
X321383Y351153D02*
X321389D01*
X322632D02*
X322803D01*
X321628Y351013D02*
Y351061D01*
X322809Y350338D02*
Y350607D01*
Y350693D02*
Y351143D01*
X59570Y371370D02*
X53335Y374135D01*
X55661Y371370*
X53335Y368606*
X59570Y371370*
X53556Y368868D02*
X53927D01*
X54549Y370049D02*
X56591D01*
X55543Y371230D02*
X59255D01*
X54784Y372411D02*
X57221D01*
X53791Y373592D02*
X54557D01*
X53542Y368698D02*
Y368852D01*
Y373888D02*
Y374043D01*
X54723Y369221D02*
Y370256D01*
Y372484D02*
Y373519D01*
X55904Y369745D02*
Y372995D01*
X57085Y370268D02*
Y372472D01*
X58266Y370792D02*
Y371948D01*
X59447Y371316D02*
Y371425D01*
X67170Y371370D02*
X73406Y368606D01*
X71080Y371370*
X73406Y374135*
X67170Y371370*
X72813Y368868D02*
X73185D01*
X70149Y370049D02*
X72191D01*
X67485Y371230D02*
X71197D01*
X69519Y372411D02*
X71956D01*
X72183Y373592D02*
X72949D01*
X67714Y371129D02*
Y371611D01*
X68895Y370605D02*
Y372135D01*
X70076Y370082D02*
Y372658D01*
X71257Y369558D02*
Y371159D01*
Y371581D02*
Y373182D01*
X72438Y369035D02*
Y369756D01*
Y372985D02*
Y373706D01*
X156870Y423570D02*
X157513Y425927D01*
X156870Y424480*
X156227Y425927*
X156870Y423570*
X156650Y424375D02*
X157090D01*
X156328Y425556D02*
X156392D01*
X157348D02*
X157412D01*
X156289Y425700D02*
Y425788D01*
X157470Y425768D02*
Y425829D01*
X151591Y399791D02*
X149470Y398580D01*
X150948Y399148*
X150380Y397670*
X151591Y399791*
X150658Y398393D02*
X150793D01*
X151211Y399574D02*
X151467D01*
X150384Y397678D02*
Y397681D01*
Y398931D02*
Y399102D01*
X151565Y399745D02*
Y399776D01*
X152870Y419570D02*
X153513Y421927D01*
X152870Y420480*
X152227Y421927*
X152870Y419570*
X152848Y419651D02*
X152892D01*
X152526Y420832D02*
X152713D01*
X153027D02*
X153214D01*
X152746Y420025D02*
Y420759D01*
X166049Y396391D02*
X167261Y394270D01*
X166692Y395748*
X168170Y395180*
X166049Y396391*
X166929Y394850D02*
X167037D01*
X166254Y396031D02*
X166679D01*
X166918Y394870D02*
Y395161D01*
Y395661D02*
Y395895D01*
X168099Y395207D02*
Y395220D01*
X151970Y433270D02*
X149613Y433913D01*
X151061Y433270*
X149613Y432627*
X151970Y433270*
X149647Y432642D02*
X149669D01*
X149816Y433823D02*
X149943D01*
X150384Y432837D02*
Y432969D01*
Y433571D02*
Y433703D01*
X151565Y433160D02*
Y433381D01*
X213370Y404270D02*
X211013Y404913D01*
X212461Y404270*
X211013Y403627*
X213370Y404270*
X212397Y404298D02*
X213267D01*
X211796Y403840D02*
Y403975D01*
Y404566D02*
Y404700D01*
X212977Y404163D02*
Y404377D01*
X225270Y404270D02*
X227627Y403627D01*
X226180Y404270*
X227627Y404913*
X225270Y404270*
X225373Y404298D02*
X226243D01*
X225968Y404080D02*
Y404460D01*
X227149Y403757D02*
Y403839D01*
Y404701D02*
Y404783D01*
X225070Y369270D02*
X227427Y368627D01*
X225980Y369270*
X227427Y369913*
X225070Y369270*
X226542Y368868D02*
X226884D01*
X225968Y369025D02*
Y369515D01*
X227149Y368703D02*
Y368751D01*
Y369790D02*
Y369837D01*
X132870Y445170D02*
X133513Y447527D01*
X132870Y446080*
X132227Y447527*
X132870Y445170*
X132744Y445633D02*
X132996D01*
X132421Y446814D02*
X132544D01*
X133196D02*
X133319D01*
X132669Y445907D02*
Y446532D01*
X136870Y449170D02*
X137513Y451527D01*
X136870Y450080*
X136227Y451527*
X136870Y449170*
X136868Y449176D02*
X136872D01*
X136546Y450357D02*
X136747D01*
X136993D02*
X137194D01*
X137393Y451086D02*
Y451256D01*
X225070Y377270D02*
X227427Y376627D01*
X225980Y377270*
X227427Y377913*
X225070Y377270*
X225564Y377135D02*
X226283D01*
X225968Y377025D02*
Y377515D01*
X227149Y376703D02*
Y376751D01*
Y377790D02*
Y377837D01*
X140870Y445170D02*
X141513Y447527D01*
X140870Y446080*
X140227Y447527*
X140870Y445170*
X140744Y445633D02*
X140996D01*
X140421Y446814D02*
X140544D01*
X141196D02*
X141319D01*
X140936Y445411D02*
Y446228D01*
X221949Y383391D02*
X223161Y381270D01*
X222592Y382748*
X224070Y382180*
X221949Y383391*
X222824Y381859D02*
X222934D01*
X222149Y383040D02*
X222563D01*
X222425Y382558D02*
Y383120D01*
X223606Y382358D02*
Y382445D01*
X144870Y449170D02*
X145513Y451527D01*
X144870Y450080*
X144227Y451527*
X144870Y449170*
X144868Y449176D02*
X144872D01*
X144546Y450357D02*
X144747D01*
X144993D02*
X145194D01*
X144479Y450604D02*
Y450960D01*
X175470Y432270D02*
X173113Y432913D01*
X174561Y432270*
X173113Y431627*
X175470Y432270*
X173723Y432642D02*
X174106D01*
X174004Y431870D02*
Y432023D01*
Y432517D02*
Y432670D01*
X175185Y432192D02*
Y432348D01*
X227270Y432270D02*
X229627Y431627D01*
X228180Y432270*
X229627Y432913*
X227270Y432270*
X228634Y432642D02*
X229017D01*
X228330Y431981D02*
Y432203D01*
Y432337D02*
Y432559D01*
X229511Y431659D02*
Y431679D01*
Y432862D02*
Y432881D01*
X192470Y416270D02*
X190113Y416913D01*
X191561Y416270*
X190113Y415627*
X192470Y416270*
X191196Y416108D02*
X191877D01*
X190538Y415743D02*
Y415816D01*
Y416725D02*
Y416797D01*
X191719Y416065D02*
Y416475D01*
X229270Y416270D02*
X231627Y415627D01*
X230180Y416270*
X231627Y416913*
X229270Y416270*
X229863Y416108D02*
X230544D01*
X229511Y416204D02*
Y416336D01*
X230692Y415882D02*
Y416043D01*
Y416498D02*
Y416658D01*
X188470Y420270D02*
X186113Y420913D01*
X187561Y420270*
X186113Y419627*
X188470Y420270*
X186168Y419651D02*
X186202D01*
X186295Y420832D02*
X186410D01*
X186995Y419868D02*
Y420019D01*
Y420521D02*
Y420673D01*
X188176Y420190D02*
Y420350D01*
X225270Y420270D02*
X227627Y419627D01*
X226180Y420270*
X227627Y420913*
X225270Y420270*
X227538Y419651D02*
X227572D01*
X227330Y420832D02*
X227445D01*
X225968Y420080D02*
Y420460D01*
X227149Y419757D02*
Y419839D01*
Y420701D02*
Y420783D01*
X184470Y424270D02*
X182113Y424913D01*
X183561Y424270*
X182113Y423627*
X184470Y424270*
X183324Y424375D02*
X184085D01*
X182271Y423670D02*
Y423697D01*
Y424843D02*
Y424870D01*
X183452Y423992D02*
Y424222D01*
Y424318D02*
Y424548D01*
X229270Y424270D02*
X231627Y423627D01*
X230180Y424270*
X231627Y424913*
X229270Y424270*
X229655Y424375D02*
X230416D01*
X229511Y424204D02*
Y424336D01*
X230692Y423882D02*
Y424043D01*
Y424498D02*
Y424658D01*
X180470Y428270D02*
X178113Y428913D01*
X179561Y428270*
X178113Y427627*
X180470Y428270*
X178769Y427918D02*
X179181D01*
X178728Y427795D02*
Y427900D01*
Y428640D02*
Y428745D01*
X179909Y428117D02*
Y428423D01*
X225270Y428270D02*
X227627Y427627D01*
X226180Y428270*
X227627Y428913*
X225270Y428270*
X226560Y427918D02*
X226971D01*
X225968Y428080D02*
Y428460D01*
X227149Y427757D02*
Y427839D01*
Y428701D02*
Y428783D01*
X168170Y422770D02*
X167527Y420413D01*
X168170Y421861*
X168813Y420413*
X168170Y422770*
X167641Y420832D02*
X167713D01*
X168627D02*
X168699D01*
X167964Y422013D02*
X168377D01*
X168099Y421700D02*
Y422509D01*
X190370Y437670D02*
X192727Y437027D01*
X191280Y437670*
X192727Y438313*
X190370Y437670*
X191484Y437366D02*
X191963D01*
X190538Y437624D02*
Y437716D01*
X191719Y437302D02*
Y437475D01*
Y437865D02*
Y438038D01*
X209370Y408270D02*
X207013Y408913D01*
X208461Y408270*
X207013Y407627*
X209370Y408270*
X207495Y407841D02*
X207799D01*
X207072Y407643D02*
Y407653D01*
Y408887D02*
Y408897D01*
X208253Y407965D02*
Y408178D01*
Y408362D02*
Y408575D01*
X229270Y408270D02*
X231627Y407627D01*
X230180Y408270*
X231627Y408913*
X229270Y408270*
X230842Y407841D02*
X231145D01*
X229511Y408204D02*
Y408336D01*
X230692Y407882D02*
Y408043D01*
Y408498D02*
Y408658D01*
X205370Y412270D02*
X203013Y412913D01*
X204461Y412270*
X203013Y411627*
X205370Y412270*
X203796Y412565D02*
X204288D01*
X203529Y411768D02*
Y411856D01*
Y412684D02*
Y412773D01*
X204710Y412090D02*
Y412450D01*
X225270Y412270D02*
X227627Y411627D01*
X226180Y412270*
X227627Y412913*
X225270Y412270*
X226352Y412565D02*
X226844D01*
X225968Y412080D02*
Y412460D01*
X227149Y411757D02*
Y411839D01*
Y412701D02*
Y412783D01*
X319695Y430045D02*
X321011Y427570D01*
X320515Y429225*
X322170Y428730*
X319695Y430045*
X320826Y427918D02*
X320906D01*
X320198Y429099D02*
X320553D01*
X320935D02*
X321475D01*
X320447Y428630D02*
Y429645D01*
X321628Y428892D02*
Y429017D01*
X287070Y431870D02*
X284390Y432690D01*
X285911Y431870*
X284390Y431050*
X287070Y431870*
X285152Y431461D02*
X285734D01*
X284479Y432642D02*
X284546D01*
X285018Y431242D02*
Y431389D01*
Y432352D02*
Y432498D01*
X286199Y431603D02*
Y432137D01*
X343042Y441870D02*
X348225Y439225D01*
X345949Y441870*
X348225Y444515*
X343042Y441870*
X347240Y439728D02*
X347793D01*
X344925Y440909D02*
X346776D01*
X343473Y442090D02*
X346138D01*
X345788Y443271D02*
X347155D01*
X348103Y444452D02*
X348171D01*
X344067Y441347D02*
Y442393D01*
X345248Y440744D02*
Y442996D01*
X346429Y440142D02*
Y441312D01*
Y442428D02*
Y443599D01*
X347610Y439539D02*
Y439940D01*
Y443800D02*
Y444201D01*
X154942Y468170D02*
X156827Y467527D01*
X155380Y468170*
X156827Y468813*
X154942Y468170*
X155229Y468072D02*
X155600D01*
X155108Y468113D02*
Y468227D01*
X156289Y467711D02*
Y467766D01*
Y468574D02*
Y468630D01*
X117370Y535270D02*
X118013Y537627D01*
X117370Y536180*
X116727Y537627*
X117370Y535270*
X117338Y535389D02*
X117403D01*
X117015Y536570D02*
X117197D01*
X117544D02*
X117725D01*
X117316Y535469D02*
Y536301D01*
X158470Y464170D02*
X160827Y463527D01*
X159380Y464170*
X160827Y464813*
X158470Y464170*
X159786Y464529D02*
X160188D01*
X158651Y464121D02*
Y464219D01*
X159832Y463799D02*
Y463969D01*
Y464371D02*
Y464542D01*
X113370Y531270D02*
X114013Y533627D01*
X113370Y532180*
X112727Y533627*
X113370Y531270*
X113213Y531846D02*
X113527D01*
X112891Y533027D02*
X112994D01*
X113747D02*
X113849D01*
X113773Y532746D02*
Y533086D01*
X249470Y458070D02*
X247113Y458713D01*
X248561Y458070*
X247113Y457427*
X249470Y458070*
X247150Y457443D02*
X247173D01*
X247314Y458624D02*
X247440D01*
X247226Y457458D02*
Y457477D01*
Y458663D02*
Y458683D01*
X248407Y457780D02*
Y458002D01*
Y458138D02*
Y458360D01*
X283070Y458070D02*
X285427Y457427D01*
X283980Y458070*
X285427Y458713*
X283070Y458070*
X285368Y457443D02*
X285391D01*
X285101Y458624D02*
X285227D01*
X283837Y457861D02*
Y458279D01*
X285018Y457539D02*
Y457609D01*
Y458531D02*
Y458601D01*
X249470Y466070D02*
X247113Y466713D01*
X248561Y466070*
X247113Y465427*
X249470Y466070*
X247750Y465710D02*
X248151D01*
X247226Y465458D02*
Y465477D01*
Y466663D02*
Y466683D01*
X248407Y465780D02*
Y466002D01*
Y466138D02*
Y466360D01*
X297070Y466070D02*
X299427Y465427D01*
X297980Y466070*
X299427Y466713*
X297070Y466070*
X298389Y465710D02*
X298790D01*
X298009Y465814D02*
Y466057D01*
Y466083D02*
Y466326D01*
X299190Y465492D02*
Y465532D01*
Y466608D02*
Y466648D01*
X245470Y462070D02*
X243113Y462713D01*
X244561Y462070*
X243113Y461427*
X245470Y462070*
X244342Y462167D02*
X245114D01*
X243683Y461582D02*
Y461680D01*
Y462460D02*
Y462558D01*
X244864Y461905D02*
Y462236D01*
X293070Y462070D02*
X295427Y461427D01*
X293980Y462070*
X295427Y462713*
X293070Y462070*
X293426Y462167D02*
X294198D01*
X293285Y462012D02*
Y462129D01*
X294466Y461689D02*
Y461854D01*
Y462286D02*
Y462451D01*
X249470Y474070D02*
X247113Y474713D01*
X248561Y474070*
X247113Y473427*
X249470Y474070*
X248351Y473977D02*
X249129D01*
X247226Y473458D02*
Y473477D01*
Y474663D02*
Y474683D01*
X248407Y473780D02*
Y474002D01*
Y474138D02*
Y474360D01*
X245470Y470070D02*
X243113Y470713D01*
X244561Y470070*
X243113Y469427*
X245470Y470070*
X243741Y470434D02*
X244136D01*
X243683Y469582D02*
Y469680D01*
Y470460D02*
Y470558D01*
X244864Y469905D02*
Y470236D01*
X293070Y470070D02*
X295427Y469427D01*
X293980Y470070*
X295427Y470713*
X293070Y470070*
X294404Y470434D02*
X294799D01*
X293285Y470012D02*
Y470129D01*
X294466Y469689D02*
Y469854D01*
Y470286D02*
Y470451D01*
X257870Y477970D02*
X255513Y478613D01*
X256961Y477970*
X255513Y477327*
X257870Y477970*
X255948Y477520D02*
X256221D01*
X256674Y477644D02*
Y477843D01*
Y478098D02*
Y478297D01*
X257855Y477966D02*
Y477974D01*
X287070Y477970D02*
X289427Y477327D01*
X287980Y477970*
X289427Y478613*
X287070Y477970*
X288719Y477520D02*
X288992D01*
X287380Y477886D02*
Y478055D01*
X288561Y477563D02*
Y477712D01*
Y478228D02*
Y478377D01*
X270970Y484870D02*
X270327Y482513D01*
X270970Y483961*
X271613Y482513*
X270970Y484870*
X270576Y483425D02*
X270732D01*
X271208D02*
X271364D01*
X270898Y484606D02*
X271042D01*
X270846Y483680D02*
Y484414D01*
X244870Y454070D02*
X242513Y454713D01*
X243961Y454070*
X242513Y453427*
X244870Y454070*
X243578Y453900D02*
X244247D01*
X243683Y453746D02*
Y453947D01*
Y454194D02*
Y454394D01*
X244864Y454068D02*
Y454072D01*
X141370Y515770D02*
X139013Y516413D01*
X140461Y515770*
X139013Y515127*
X141370Y515770*
X139430Y515312D02*
X139691D01*
X139755Y515329D02*
Y515457D01*
Y516084D02*
Y516211D01*
X140936Y515652D02*
Y515889D01*
X157470Y515770D02*
X159827Y515127D01*
X158380Y515770*
X159827Y516413*
X157470Y515770*
X159149Y515312D02*
X159410D01*
X158651Y515448D02*
Y515650D01*
Y515891D02*
Y516092D01*
X146370Y511770D02*
X144013Y512413D01*
X145461Y511770*
X144013Y511127*
X146370Y511770*
X145458Y511769D02*
X146366D01*
X144479Y511254D02*
Y511334D01*
Y512206D02*
Y512286D01*
X145660Y511576D02*
Y511964D01*
X153470Y511770D02*
X155827Y511127D01*
X154380Y511770*
X155827Y512413*
X153470Y511770*
X153474Y511769D02*
X154382D01*
X153927Y511645D02*
Y511895D01*
X155108Y511323D02*
Y511446D01*
Y512094D02*
Y512217D01*
X69870Y495142D02*
X71360Y497371D01*
X69870Y495780*
X68381Y497371*
X69870Y495142*
X69808Y495235D02*
X69933D01*
X69018Y496416D02*
X69274D01*
X70466D02*
X70722D01*
X68895Y496601D02*
Y496821D01*
X70076Y495450D02*
Y496000D01*
X71257Y497217D02*
Y497261D01*
X153270Y493570D02*
X152627Y491213D01*
X153270Y492661*
X153913Y491213*
X153270Y493570*
X152758Y491692D02*
X152840D01*
X153700D02*
X153783D01*
X153080Y492873D02*
X153460D01*
X152746Y491481D02*
Y491649D01*
X197870Y523570D02*
X200227Y522927D01*
X198780Y523570*
X200227Y524213*
X197870Y523570*
X197903Y523579D02*
X198800D01*
X198805Y523315D02*
Y523559D01*
Y523581D02*
Y523825D01*
X199986Y522993D02*
Y523034D01*
Y524106D02*
Y524147D01*
X125370Y535270D02*
X126013Y537627D01*
X125370Y536180*
X124727Y537627*
X125370Y535270*
X125338Y535389D02*
X125403D01*
X125015Y536570D02*
X125197D01*
X125544D02*
X125725D01*
X125583Y536050D02*
Y536659D01*
X193870Y519570D02*
X196227Y518927D01*
X194780Y519570*
X196227Y520213*
X193870Y519570*
X195578Y520036D02*
X195828D01*
X194081Y519513D02*
Y519628D01*
X195262Y519190D02*
Y519356D01*
Y519784D02*
Y519950D01*
X268770Y520070D02*
X267950Y517390D01*
X268770Y518911*
X269590Y517390*
X268770Y520070*
X268037Y517674D02*
X268103D01*
X269437D02*
X269503D01*
X268398Y518855D02*
X268740D01*
X268800D02*
X269142D01*
X268760Y520036D02*
X268780D01*
X268484Y518379D02*
Y519134D01*
X267145Y493345D02*
X264670Y492030D01*
X266325Y492525*
X265830Y490870*
X267145Y493345*
X266076Y491692D02*
X266266D01*
X266257Y492873D02*
X266894D01*
X264941Y492111D02*
Y492173D01*
X266122Y491419D02*
Y491845D01*
Y492464D02*
Y492801D01*
X309495Y505295D02*
X311970Y506611D01*
X310315Y506115*
X310811Y507770*
X309495Y505295*
X309798Y505864D02*
X310565D01*
X310425Y507045D02*
X310594D01*
X309818Y505467D02*
Y505903D01*
X310999Y506095D02*
Y506320D01*
X321649Y537849D02*
X323770Y539061D01*
X322292Y538492*
X322861Y539970*
X321649Y537849*
X322268Y538932D02*
X322461D01*
X323436D02*
X323545D01*
X322809Y538512D02*
Y538691D01*
Y539837D02*
Y539881D01*
X201870Y527570D02*
X204227Y526927D01*
X202780Y527570*
X204227Y528213*
X201870Y527570*
X203512Y527122D02*
X203788D01*
X202348Y527440D02*
Y527700D01*
X203529Y527117D02*
Y527237D01*
Y527903D02*
Y528023D01*
X131491Y532149D02*
X130280Y534270D01*
X130848Y532792*
X129370Y533361*
X131491Y532149*
X129954Y533027D02*
X130237D01*
X130758D02*
X130990D01*
X130303Y534208D02*
X130315D01*
X130307Y532825D02*
Y533000D01*
Y534199D02*
Y534222D01*
X131488Y532151D02*
Y532155D01*
X197242Y547170D02*
X199850Y546350D01*
X198330Y547170*
X199850Y547990*
X197242Y547170*
X197333Y547199D02*
X198383D01*
X197624Y547050D02*
Y547290D01*
X198805Y546679D02*
Y546914D01*
Y547426D02*
Y547661D01*
X175970Y550270D02*
X173290Y551090D01*
X174811Y550270*
X173290Y549450*
X175970Y550270*
X173495Y549561D02*
X173652D01*
X173935Y550742D02*
X174428D01*
X174004Y549669D02*
Y549835D01*
Y550705D02*
Y550872D01*
X175185Y550030D02*
Y550510D01*
X268828Y569381D02*
X265069Y561328D01*
X268828Y564066*
X272586Y561328*
X268828Y569381*
X265089Y561371D02*
X265128D01*
X272527D02*
X272566D01*
X265640Y562552D02*
X266749D01*
X270906D02*
X272015D01*
X266192Y563733D02*
X268370D01*
X269285D02*
X271464D01*
X266743Y564914D02*
X270912D01*
X267294Y566095D02*
X270361D01*
X267845Y567276D02*
X269810D01*
X268396Y568457D02*
X269259D01*
X266122Y562095D02*
Y563583D01*
X267303Y562955D02*
Y566114D01*
X268484Y563816D02*
Y568644D01*
X269665Y563456D02*
Y567588D01*
X270846Y562596D02*
Y565057D01*
X272027Y561736D02*
Y562527D01*
X270195Y599295D02*
X272670Y600611D01*
X271015Y600115*
X271511Y601770*
X270195Y599295*
X270753Y600344D02*
X271084D01*
X271779D02*
X272168D01*
X271380Y601525D02*
X271437D01*
X270846Y599641D02*
Y600519D01*
X272027Y600269D02*
Y600418D01*
X341495Y556245D02*
X342811Y553770D01*
X342315Y555425*
X343970Y554930*
X341495Y556245*
X342537Y554285D02*
X342656D01*
X341909Y555466D02*
X342961D01*
X341705Y555849D02*
Y556133D01*
X342886Y555254D02*
Y555506D01*
X91480Y640709D02*
X94125Y646725D01*
X91480Y644449*
X88836Y646725*
X91480Y640709*
X91054Y641679D02*
X91907D01*
X90535Y642860D02*
X92426D01*
X90016Y644041D02*
X92945D01*
X89497Y645222D02*
X90582D01*
X92378D02*
X93464D01*
X88977Y646403D02*
X89210D01*
X93750D02*
X93983D01*
X88972Y646415D02*
Y646608D01*
X90153Y643728D02*
Y645591D01*
X91334Y641042D02*
Y644575D01*
X92515Y643062D02*
Y645339D01*
X93696Y645749D02*
Y646356D01*
X355849Y604891D02*
X357061Y602770D01*
X356492Y604248*
X357970Y603680*
X355849Y604891*
X356423Y603887D02*
X356631D01*
X357431D02*
X357607D01*
X355877Y604841D02*
Y604875D01*
X357058Y602774D02*
Y602776D01*
Y604030D02*
Y604200D01*
X269480Y640709D02*
X272125Y646725D01*
X269480Y644449*
X266836Y646725*
X269480Y640709*
X269054Y641679D02*
X269907D01*
X268535Y642860D02*
X270426D01*
X268016Y644041D02*
X270945D01*
X267497Y645222D02*
X268582D01*
X270378D02*
X271464D01*
X266977Y646403D02*
X267210D01*
X271750D02*
X271983D01*
X267303Y645663D02*
Y646323D01*
X268484Y642976D02*
Y645307D01*
X269665Y641128D02*
Y644607D01*
X270846Y643815D02*
Y645624D01*
X272027Y646501D02*
Y646641D01*
X138670Y632270D02*
X137850Y629590D01*
X138670Y631111*
X139490Y629590*
X138670Y632270*
X137935Y629869D02*
X138001D01*
X139340D02*
X139405D01*
X138297Y631050D02*
X138637D01*
X138703D02*
X139043D01*
X138658Y632231D02*
X138682D01*
X138574Y630932D02*
Y631956D01*
X127811Y640709D02*
X130456Y646725D01*
X127811Y644449*
X125166Y646725*
X127811Y640709*
X127385Y641679D02*
X128237D01*
X126865Y642860D02*
X128757D01*
X126346Y644041D02*
X129276D01*
X125827Y645222D02*
X126913D01*
X128709D02*
X129795D01*
X125308Y646403D02*
X125541D01*
X130081D02*
X130314D01*
X125583Y645778D02*
Y646367D01*
X126764Y643091D02*
Y645350D01*
X127945Y641013D02*
Y644564D01*
X129126Y643700D02*
Y645581D01*
X130307Y646387D02*
Y646597D01*
X312370Y638670D02*
X308074Y640374D01*
X309961Y638670*
X308074Y636966*
X312370Y638670*
X309369Y638136D02*
X311023D01*
X309244Y639317D02*
X310739D01*
X308637Y637190D02*
Y637475D01*
Y639865D02*
Y640150D01*
X309818Y637658D02*
Y638542D01*
Y638798D02*
Y639682D01*
X310999Y638127D02*
Y639214D01*
X312180Y638595D02*
Y638745D01*
X322370Y638670D02*
X326666Y636966D01*
X324780Y638670*
X326666Y640374*
X322370Y638670*
X323717Y638136D02*
X325371D01*
X324001Y639317D02*
X325496D01*
X322809Y638496D02*
Y638844D01*
X323990Y638027D02*
Y639313D01*
X325171Y637559D02*
Y638316D01*
Y639024D02*
Y639781D01*
X326352Y637091D02*
Y637250D01*
Y640090D02*
Y640249D01*
X334370Y638670D02*
X330074Y640374D01*
X331961Y638670*
X330074Y636966*
X334370Y638670*
X331369Y638136D02*
X333023D01*
X331244Y639317D02*
X332739D01*
X331076Y637364D02*
Y637872D01*
Y639468D02*
Y639976D01*
X332257Y637832D02*
Y639508D01*
X333438Y638301D02*
Y639040D01*
X344370Y638670D02*
X348666Y636966D01*
X346780Y638670*
X348666Y640374*
X344370Y638670*
X345717Y638136D02*
X347371D01*
X346001Y639317D02*
X347496D01*
X345248Y638322D02*
Y639018D01*
X346429Y637853D02*
Y639487D01*
X347610Y637385D02*
Y637920D01*
Y639420D02*
Y639955D01*
X359849Y608891D02*
X361061Y606770D01*
X360492Y608248*
X361970Y607680*
X359849Y608891*
X360684Y607430D02*
X360807D01*
X360009Y608611D02*
X360340D01*
X360601Y607574D02*
Y607964D01*
Y608206D02*
Y608461D01*
X361782Y607752D02*
Y607787D01*
X283260Y640709D02*
X285905Y646725D01*
X283260Y644449*
X280615Y646725*
X283260Y640709*
X282833Y641679D02*
X283686D01*
X282314Y642860D02*
X284205D01*
X281795Y644041D02*
X284725D01*
X281276Y645222D02*
X282362D01*
X284158D02*
X285244D01*
X280757Y646403D02*
X280990D01*
X285530D02*
X285763D01*
X281475Y644770D02*
Y645986D01*
X282656Y642083D02*
Y644969D01*
X283837Y642021D02*
Y644945D01*
X285018Y644707D02*
Y645962D01*
X378370Y638670D02*
X374074Y640374D01*
X375961Y638670*
X374074Y636966*
X378370Y638670*
X375369Y638136D02*
X377023D01*
X375244Y639317D02*
X376739D01*
X374773Y637244D02*
Y637598D01*
Y639742D02*
Y640096D01*
X375954Y637712D02*
Y638664D01*
Y638676D02*
Y639628D01*
X377135Y638180D02*
Y639160D01*
X378316Y638649D02*
Y638691D01*
X388370Y638670D02*
X392666Y636966D01*
X390780Y638670*
X392666Y640374*
X388370Y638670*
X389717Y638136D02*
X391371D01*
X390001Y639317D02*
X391496D01*
X388945Y638442D02*
Y638898D01*
X390126Y637974D02*
Y639367D01*
X391307Y637505D02*
Y638194D01*
Y639147D02*
Y639835D01*
X392488Y637037D02*
Y637127D01*
Y640213D02*
Y640303D01*
X356370Y638670D02*
X352074Y640374D01*
X353961Y638670*
X352074Y636966*
X356370Y638670*
X353369Y638136D02*
X355023D01*
X353244Y639317D02*
X354739D01*
X352334Y637070D02*
Y637202D01*
Y640139D02*
Y640271D01*
X353515Y637538D02*
Y638268D01*
Y639072D02*
Y639802D01*
X354696Y638006D02*
Y639334D01*
X355877Y638475D02*
Y638865D01*
X366370Y638670D02*
X370666Y636966D01*
X368780Y638670*
X370666Y640374*
X366370Y638670*
X367717Y638136D02*
X369371D01*
X368001Y639317D02*
X369496D01*
X366506Y638616D02*
Y638724D01*
X367687Y638148D02*
Y639192D01*
X368868Y637679D02*
Y638590D01*
Y638750D02*
Y639661D01*
X370049Y637211D02*
Y637523D01*
Y639817D02*
Y640129D01*
X400370Y638670D02*
X396074Y640374D01*
X397961Y638670*
X396074Y636966*
X400370Y638670*
X397369Y638136D02*
X399023D01*
X397244Y639317D02*
X398739D01*
X397212Y637418D02*
Y637994D01*
Y639346D02*
Y639922D01*
X398393Y637886D02*
Y639454D01*
X399574Y638354D02*
Y638986D01*
X410370Y638670D02*
X414666Y636966D01*
X412780Y638670*
X414666Y640374*
X410370Y638670*
X411717Y638136D02*
X413371D01*
X412001Y639317D02*
X413496D01*
X411384Y638268D02*
Y639072D01*
X412565Y637800D02*
Y639541D01*
X413746Y637331D02*
Y637797D01*
Y639543D02*
Y640009D01*
X394170Y254370D02*
X372770D01*
X369770Y257370*
Y260170*
X540170Y261570D02*
X376970D01*
X337270Y301270*
X321470*
X276970Y345770*
X238070*
X211970Y371870*
X184870*
X540170Y261570D02*
X565770Y287170D01*
X620670*
X654870Y321370*
X588870Y315870D02*
X537570Y264570D01*
X379170*
X348770Y294970*
Y300370*
X529570Y267570D02*
X586870Y324870D01*
X681370*
X529570Y267570D02*
X381570D01*
X352770Y296370*
X528370Y270570D02*
X585670Y327870D01*
X626870*
X649370Y350370*
Y361909*
X528370Y270570D02*
X385070D01*
X351170Y304470*
X323070*
X285370Y342170*
Y356070*
X527070Y273570D02*
X584370Y330870D01*
X619570*
X639370Y350670*
Y361909*
X527070Y273570D02*
X387170D01*
X353270Y307470*
X325170*
X289370Y343270*
Y352070*
X526270Y276570D02*
X583470Y333770D01*
X613070*
X629370Y350070*
Y361909*
X526270Y276570D02*
X389570D01*
X355570Y310570*
X326870*
X293370Y344070*
Y356070*
X524870Y279570D02*
X582070Y336770D01*
X605970*
X619370Y350170*
Y361909*
X524870Y279570D02*
X391370D01*
X357370Y313570*
X328970*
X297370Y345170*
Y352070*
X523470Y282570D02*
X580670Y339770D01*
X599170*
X609370Y349970*
Y361909*
X523470Y282570D02*
X392770D01*
X358770Y316570*
X330770*
X301370Y345970*
Y356070*
X643370Y268770D02*
Y271370D01*
X632370Y282370*
X671403Y258570D02*
X645570D01*
X626870Y277270*
X671403Y258570D02*
X673470Y260637D01*
Y267370*
X388370Y298270D02*
X413970D01*
Y315870D02*
X388370D01*
X383670Y320570*
X336970*
X466570Y285570D02*
X438170D01*
X424470Y299270*
Y319270*
X419170Y324570*
X332970*
X466570Y285570D02*
X478270Y297270D01*
Y304770*
X489370Y315870*
Y298270D02*
X514970D01*
X489370Y315870D02*
X514970D01*
X588870Y298270D02*
X614470D01*
X588870Y315870D02*
X614470D01*
X689970Y298270D02*
X678870Y309370D01*
X653770*
X689970Y298270D02*
X715570D01*
X681370Y324870D02*
X689970Y315870D01*
X715570*
X50570Y353770D02*
X76170D01*
X76370Y335370D02*
X118370D01*
X160370*
X118370D02*
Y339470D01*
X114485*
Y345370*
X134170D02*
Y352870D01*
X128870Y358170*
Y452170*
X124328Y345370D02*
Y351970D01*
X124870Y352513*
Y448170*
X114485Y345370D02*
Y384970D01*
X120570*
X160370Y335370D02*
Y341170D01*
X171770*
Y349070*
X204470*
X207370Y338570D02*
X247670D01*
X204470Y349070D02*
Y366470D01*
X207070Y338570D02*
Y344870D01*
X204470*
Y349070*
X262970Y359370D02*
Y447170D01*
X258970Y355370D02*
Y431470D01*
X238470Y451970*
Y471570*
X252770Y485870*
Y498270*
X238270Y512770*
X222770*
X254970Y359370D02*
Y431270D01*
X235470Y450770*
Y473070*
X249770Y487370*
Y496770*
X237770Y508770*
X226770*
X250970Y355370D02*
Y430870D01*
X232470Y449370*
Y474670*
X246770Y488970*
Y495370*
X237370Y504770*
X230770*
X246970Y359370D02*
Y430570D01*
X229370Y448170*
Y479370*
X242770Y492770*
X242970Y355370D02*
Y430170D01*
X226470Y446670*
Y484470*
X238770Y496770*
X238970Y359370D02*
Y429670D01*
X223470Y445170*
Y489470*
X234770Y500770*
X280970Y346870D02*
X279270Y348570D01*
X239770*
X232070Y356270*
Y389470*
X225270Y396270*
X281370Y351370D02*
X241370D01*
X234970Y357770*
Y394570*
X231270Y398270*
X527303Y349570D02*
X529370Y351637D01*
Y361909*
X527303Y349570D02*
X343470D01*
X328170Y364870*
X277370*
X535970Y346570D02*
X539370Y349970D01*
Y361909*
X535970Y346570D02*
X340970D01*
X326670Y360870*
X281370*
X517303Y352570D02*
X519370Y354637D01*
Y361909*
X517303Y352570D02*
X345770D01*
X329470Y368870*
X273470*
X542770Y343570D02*
X549370Y350170D01*
Y361909*
X542770Y343570D02*
X337870D01*
X325370Y356070*
X563470Y331570D02*
X577670Y345770D01*
X584770*
X589370Y350370*
Y361909*
X563470Y331570D02*
X325970D01*
X309370Y348170*
Y356070*
X565070Y328570D02*
X579270Y342770D01*
X591970*
X599370Y350170*
Y361909*
X565070Y328570D02*
X323770D01*
X305370Y346970*
Y352070*
X561970Y334570D02*
X579370Y351970D01*
Y361909*
X561970Y334570D02*
X328070D01*
X313370Y349270*
Y352070*
X556870Y337570D02*
X569370Y350070D01*
Y361909*
X556870Y337570D02*
X330370D01*
X317370Y350570*
Y356070*
X549870Y340570D02*
X559370Y350070D01*
Y361909*
X549870Y340570D02*
X332870D01*
X321370Y352070*
X50570Y371370D02*
X76170D01*
X149270Y392670D02*
X151470D01*
X156870Y398070*
Y426570*
X149470Y397670D02*
X152870Y401070D01*
Y422570*
X168170Y394270D02*
X163370Y399070D01*
Y428470*
X158570Y433270*
X148970*
X210370Y404270D02*
X228270D01*
X228070Y369270D02*
X220070D01*
X213470Y375870*
X141970*
X132870Y384970*
Y448170*
X224070Y373270D02*
X221270D01*
X215670Y378870*
X144770*
X136870Y386770*
Y452170*
X228070Y377270D02*
X222870D01*
X218270Y381870*
X147470*
X140870Y388470*
Y448170*
X224070Y381270D02*
X220470Y384870D01*
X149970*
X144870Y389970*
Y452170*
X172470Y432270D02*
X230270D01*
X189470Y416270D02*
X232270D01*
X185470Y420270D02*
X228270D01*
X181470Y424270D02*
X232270D01*
X177470Y428270D02*
X228270D01*
X168170Y419770D02*
Y432770D01*
X173070Y437670*
X193370*
X206370Y408270D02*
X232270D01*
X202370Y412270D02*
X228270D01*
X322170Y427570D02*
X317870Y431870D01*
X283570*
X350870Y441870D02*
X341270D01*
X336670Y446470*
Y453570*
X330570Y459670*
X157470Y468170D02*
X153170D01*
X145270Y476070*
Y502470*
X117370Y530370*
Y538270*
X161470Y464170D02*
X152470D01*
X142270Y474370*
Y500170*
X113370Y529070*
Y534270*
X246470Y458070D02*
X286070D01*
X246470Y466070D02*
X300070D01*
X242470Y462070D02*
X296070D01*
X246470Y474070D02*
X292670D01*
X319870Y501270*
X329170*
X242470Y470070D02*
X296070D01*
X254870Y477970D02*
X290070D01*
X270970Y481870D02*
Y487370D01*
X274670Y491070*
X290270*
X284770Y452770D02*
X283470Y454070D01*
X241870*
X320670Y458070D02*
X322270Y459670D01*
X330570*
X149270Y494570D02*
Y498370D01*
X160970Y510070*
X195370*
X210370Y525070*
X239770*
X138370Y515770D02*
X160470D01*
X143370Y511770D02*
X156470D01*
X130670Y490570D02*
X127870Y493370D01*
X69870*
Y499870*
X157270Y494570D02*
Y497170D01*
X164170Y504070*
X197570*
X212570Y519070*
X236570*
X153270Y490570D02*
Y497770D01*
X162570Y507070*
X196570*
X211570Y522070*
X237970*
X200870Y523570D02*
X134770D01*
X125370Y532970*
Y538270*
X196870Y519570D02*
X133270D01*
X121370Y531470*
Y534270*
X268770Y516570D02*
Y557570D01*
X268828*
X264670Y490870D02*
X275170Y501370D01*
X305570*
X311970Y507770*
X301670Y505370D02*
X335770Y539470D01*
Y539770*
X301670Y505370D02*
X250270D01*
X236570Y519070*
X323770Y539970D02*
X295370Y511570D01*
X253270*
X239770Y525070*
X299270Y508570D02*
X333870Y543170D01*
X345703*
X299270Y508570D02*
X251470D01*
X237970Y522070*
X290270Y491070D02*
X303070D01*
X325370Y513370*
X327570*
X289970Y491070D02*
X290270D01*
X330670Y499670D02*
Y499770D01*
X329170Y501270*
X204870Y527570D02*
X136070D01*
X129370Y534270*
X200670Y547170D02*
X195470D01*
X192370Y550270*
X172470*
X268828Y557570D02*
Y597928D01*
X272670Y601770*
X347770Y539670D02*
Y541103D01*
X345703Y543170*
X343970Y553770D02*
X340170Y557570D01*
X288513*
X55370Y583370D02*
Y620070D01*
X91480*
Y649370*
X179470Y604570D02*
Y626270D01*
X175170Y630570*
X177170Y602270D02*
X179470Y604570D01*
X357970Y602770D02*
X336070Y624670D01*
X281370*
X269480Y636560*
Y649370*
X138670Y628770D02*
Y635670D01*
X127811*
Y649370*
X162670Y628370D02*
X164870Y630570D01*
X175170*
X306370Y638670D02*
X328370D01*
X350370*
X361970Y606770D02*
X341070Y627670D01*
X291570*
X283260Y635980*
Y649370*
X394370Y638670D02*
X372370D01*
X350370*
X394370D02*
X416370D01*
G74*
X0Y0D02*
M02*
