*
*
G04 PADS VX.2 Build Number: 5060570 generated Gerber (RS-274-X) file*
G04 PC Version=2.1*
*
%IN "HFC3100D_Module_Display"*%
*
%MOIN*%
*
%FSLAX35Y35*%
*
*
*
*
G04 PC Standard Apertures*
*
*
G04 Thermal Relief Aperture macro.*
%AMTER*
1,1,$1,0,0*
1,0,$1-$2,0,0*
21,0,$3,$4,0,0,45*
21,0,$3,$4,0,0,135*
%
*
*
G04 Annular Aperture macro.*
%AMANN*
1,1,$1,0,0*
1,0,$2,0,0*
%
*
*
G04 Odd Aperture macro.*
%AMODD*
1,1,$1,0,0*
1,0,$1-0.005,0,0*
%
*
*
G04 PC Custom Aperture Macros*
*
*
*
*
*
*
G04 PC Aperture Table*
*
%ADD010C,0.001*%
%ADD011C,0.012*%
%ADD014C,0.01*%
*
*
*
*
G04 PC Circuitry*
G04 Layer Name HFC3100D_Module_Display - circuitry*
%LPD*%
*
*
G04 PC Custom Flashes*
G04 Layer Name HFC3100D_Module_Display - flashes*
%LPD*%
*
*
G04 PC Circuitry*
G04 Layer Name HFC3100D_Module_Display - circuitry*
%LPD*%
*
G54D10*
G01X39370Y679370D02*
X39373D01*
X748031D02*
X748034D01*
X758370Y224470D02*
X758373D01*
X758370Y669370D02*
X758373D01*
X758370Y39370D02*
X758373D01*
X758370Y224470D02*
X758373D01*
G54D11*
X39370Y49370D02*
G75*
G03X49370Y39370I10000J0D01*
G01X39370Y49370D02*
Y214470D01*
X49370Y224470D02*
G03X39370Y214470I0J-10000D01*
G01Y234470D02*
G03X49370Y224470I10000J0D01*
G01X39370Y234470D02*
Y659370D01*
X49370Y669370D02*
G03X39370Y659370I0J-10000D01*
G01X49370Y669370D02*
X738070D01*
X748070Y659370D02*
G03X738070Y669370I-10000J0D01*
G01X748070Y659370D02*
Y234470D01*
X738070Y224470D02*
G03X748070Y234470I0J10000D01*
G01Y214470D02*
G03X738070Y224470I-10000J0D01*
G01X748070Y214470D02*
Y49370D01*
X738070Y39370D02*
G03X748070Y49370I0J10000D01*
G01X738070Y39370D02*
X49370D01*
X382370Y604370D02*
G03X377370Y599370I0J-5000D01*
G01X382370Y604370D02*
X386370D01*
G03X391370Y609370I0J5000*
G01Y622370*
X396370Y627370D02*
G03X391370Y622370I0J-5000D01*
G01X396370Y627370D02*
X706206D01*
X711206Y622370D02*
G03X706206Y627370I-5000J0D01*
G01X711206Y622370D02*
Y609370D01*
G03X716206Y604370I5000J0*
G01X731370*
X736370Y599370D02*
G03X731370Y604370I-5000J0D01*
G01X736370Y599370D02*
Y388370D01*
X731370Y383370D02*
G03X736370Y388370I0J5000D01*
G01X731370Y383370D02*
X382370D01*
X377370Y388370D02*
G03X382370Y383370I5000J0D01*
G01X377370Y388370D02*
Y599370D01*
X450620Y286909D02*
X444370Y280659D01*
X448120*
Y275659*
X453120*
Y280659*
X456870*
X450620Y286909*
X708120Y648159D02*
X701870Y654409D01*
Y650659*
X696870*
Y645659*
X701870*
Y641909*
X708120Y648159*
X706870Y241909D02*
X700620Y248159D01*
Y244409*
X695620*
Y239409*
X700620*
Y235659*
X706870Y241909*
X59370Y265659D02*
X65620Y271909D01*
X61870*
Y276909*
X56870*
Y271909*
X53120*
X59370Y265659*
X58120Y629409D02*
X51870Y623159D01*
X55620*
Y618159*
X60620*
Y623159*
X64370*
X58120Y629409*
X19370Y224470D02*
X768070D01*
X19370D02*
X24370Y229470D01*
Y219470*
X19370Y224470*
X768070D02*
X763070Y229470D01*
Y219470*
X768070Y224470*
G54D14*
X774370Y231495D02*
X778006Y218370D01*
X781643Y231495D02*
X778006Y218370D01*
X785734Y215870D02*
X795279D01*
X804825Y228370D02*
X804370Y229620D01*
X803461Y230870*
X802552Y231495*
X800734*
X799825Y230870*
X798916Y229620*
X798461Y228370*
X798006Y226495*
Y223370*
X798461Y221495*
X798916Y220245*
X799825Y218995*
X800734Y218370*
X802552*
X803461Y218995*
X804370Y220245*
X804825Y221495*
X808916Y231495D02*
Y222120D01*
X809370Y220245*
X810279Y218995*
X811643Y218370*
X812552*
X813916Y218995*
X814825Y220245*
X815279Y222120*
Y231495*
X822552D02*
Y218370D01*
X819370Y231495D02*
X825734D01*
X46570Y371370D02*
X54570D01*
X50570Y367370D02*
Y375370D01*
X52570Y376651D02*
Y373370D01*
Y376651D02*
X53366D01*
X53706Y376495*
X53934Y376183*
X53934D02*
X54047Y375870D01*
X54161Y375401*
Y374620*
X54047Y374151*
X53934Y373839*
X53706Y373526*
X53366Y373370*
X52570*
X46570Y353770D02*
X54570D01*
X50570Y349770D02*
Y357770D01*
X52570Y359051D02*
Y355770D01*
Y359051D02*
X53366D01*
X53706Y358895*
X53934Y358583*
X53934D02*
X54047Y358270D01*
X54161Y357801*
Y357020*
X54047Y356551*
X53934Y356239*
X53706Y355926*
X53366Y355770*
X52570*
X72170Y371370D02*
X80170D01*
X76170Y367370D02*
Y375370D01*
X78170Y376651D02*
Y373370D01*
Y376651D02*
X78966D01*
X79306Y376495*
X79534Y376183*
X79534D02*
X79647Y375870D01*
X79761Y375401*
Y374620*
X79647Y374151*
X79534Y373839*
X79306Y373526*
X78966Y373370*
X78170*
X72170Y353770D02*
X80170D01*
X76170Y349770D02*
Y357770D01*
X78170Y359051D02*
Y355770D01*
Y359051D02*
X78966D01*
X79306Y358895*
X79534Y358583*
X79534D02*
X79647Y358270D01*
X79761Y357801*
Y357020*
X79647Y356551*
X79534Y356239*
X79306Y355926*
X78966Y355770*
X78170*
X485370Y357909D02*
X493370D01*
X485370Y365909*
X493370*
X485370Y357909*
X495370D02*
X503370D01*
X495370Y365909*
X503370*
X495370Y357909*
X505370D02*
X513370D01*
X505370Y365909*
X513370*
X505370Y357909*
X515370D02*
X523370D01*
X515370Y365909*
X523370*
X515370Y357909*
X525370D02*
X533370D01*
X525370Y365909*
X533370*
X525370Y357909*
X535370D02*
X543370D01*
X535370Y365909*
X543370*
X535370Y357909*
X545370D02*
X553370D01*
X545370Y365909*
X553370*
X545370Y357909*
X555370D02*
X563370D01*
X555370Y365909*
X563370*
X555370Y357909*
X565370D02*
X573370D01*
X565370Y365909*
X573370*
X565370Y357909*
X575370D02*
X583370D01*
X575370Y365909*
X583370*
X575370Y357909*
X585370D02*
X593370D01*
X585370Y365909*
X593370*
X585370Y357909*
X595370D02*
X603370D01*
X595370Y365909*
X603370*
X595370Y357909*
X605370D02*
X613370D01*
X605370Y365909*
X613370*
X605370Y357909*
X615370D02*
X623370D01*
X615370Y365909*
X623370*
X615370Y357909*
X625370D02*
X633370D01*
X625370Y365909*
X633370*
X625370Y357909*
X635370D02*
X643370D01*
X635370Y365909*
X643370*
X635370Y357909*
X645370D02*
X653370D01*
X645370Y365909*
X653370*
X645370Y357909*
X655370D02*
X663370D01*
X655370Y365909*
X663370*
X655370Y357909*
X665370D02*
X673370D01*
X665370Y365909*
X673370*
X665370Y357909*
X675370D02*
X683370D01*
X675370Y365909*
X683370*
X675370Y357909*
X374189Y361909D02*
X382189D01*
X378189Y357909D02*
Y365909D01*
X380189Y367190D02*
Y363909D01*
Y367190D02*
X381666D01*
X380189Y365628D02*
X381098D01*
X374189Y617815D02*
X382189D01*
X378189Y613815D02*
Y621815D01*
X380189Y623096D02*
Y619815D01*
Y623096D02*
X381666D01*
X380189Y621533D02*
X381098D01*
X720646Y617815D02*
X728646D01*
X724646Y613815D02*
Y621815D01*
X726646Y623096D02*
Y619815D01*
Y623096D02*
X728123D01*
X726646Y621533D02*
X727555D01*
X720646Y361909D02*
X728646D01*
X724646Y357909D02*
Y365909D01*
X726646Y367190D02*
Y363909D01*
Y367190D02*
X728123D01*
X726646Y365628D02*
X727555D01*
X172370Y170870D02*
X180370D01*
Y178870*
X172370*
Y170870*
X176370Y174870D02*
Y178870D01*
X87370Y170870D02*
X95370D01*
Y178870*
X87370*
Y170870*
X91370Y174870D02*
Y178870D01*
X172370Y127870D02*
X180370D01*
Y135870*
X172370*
Y127870*
X176370Y131870D02*
Y135870D01*
X87370Y127870D02*
X95370D01*
Y135870*
X87370*
Y127870*
X91370Y131870D02*
Y135870D01*
X172370Y84870D02*
X180370D01*
Y92870*
X172370*
Y84870*
X176370Y88870D02*
Y92870D01*
X87370Y84870D02*
X95370D01*
Y92870*
X87370*
Y84870*
X91370Y88870D02*
Y92870D01*
X90800Y345370D02*
X98800D01*
X94800Y341370D02*
Y349370D01*
X96800Y350651D02*
Y347370D01*
Y350651D02*
X98277D01*
X96800Y349089D02*
X97709D01*
X96800Y347370D02*
X98277D01*
X100643Y345370D02*
X108643D01*
X104643Y341370D02*
Y349370D01*
X106643Y350651D02*
Y347370D01*
Y350651D02*
X108120D01*
X106643Y349089D02*
X107552D01*
X106643Y347370D02*
X108120D01*
X110485Y345370D02*
X118485D01*
X114485Y341370D02*
Y349370D01*
X116485Y350651D02*
Y347370D01*
Y350651D02*
X117962D01*
X116485Y349089D02*
X117394D01*
X116485Y347370D02*
X117962D01*
X120328Y345370D02*
X128328D01*
X124328Y341370D02*
Y349370D01*
X126328Y350651D02*
Y347370D01*
Y350651D02*
X127805D01*
X126328Y349089D02*
X127237D01*
X126328Y347370D02*
X127805D01*
X130170Y345370D02*
X138170D01*
X134170Y341370D02*
Y349370D01*
X136170Y350651D02*
Y347370D01*
Y350651D02*
X137647D01*
X136170Y349089D02*
X137079D01*
X136170Y347370D02*
X137647D01*
X678370Y340370D02*
X686370D01*
X682370Y336370D02*
Y344370D01*
X684370Y345651D02*
Y342370D01*
Y345651D02*
X685847D01*
X684370Y344089D02*
X685279D01*
X684370Y342370D02*
X685847D01*
X725614Y340370D02*
X733614D01*
X729614Y336370D02*
Y344370D01*
X731614Y345651D02*
Y342370D01*
Y345651D02*
X733091D01*
X731614Y344089D02*
X732523D01*
X731614Y342370D02*
X733091D01*
X178470Y532270D02*
X186470Y540270D01*
Y532270*
X178470Y540270*
Y532270*
X158470D02*
X166470Y540270D01*
Y532270*
X158470Y540270*
Y532270*
X51370Y569370D02*
X59370Y577370D01*
Y569370*
X51370Y577370*
Y569370*
Y579370D02*
X59370Y587370D01*
Y579370*
X51370Y587370*
Y579370*
X299370Y599470D02*
X307370Y607470D01*
Y599470*
X299370Y607470*
Y599470*
Y609470D02*
X307370Y617470D01*
Y609470*
X299370Y617470*
Y609470*
X62370Y314570D02*
X70370Y322570D01*
Y314570*
X62370Y322570*
Y314570*
X72370D02*
X80370Y322570D01*
Y314570*
X72370Y322570*
Y314570*
X104370D02*
X112370Y322570D01*
Y314570*
X104370Y322570*
Y314570*
X114370D02*
X122370Y322570D01*
Y314570*
X114370Y322570*
Y314570*
X146370D02*
X154370Y322570D01*
Y314570*
X146370Y322570*
Y314570*
X156370D02*
X164370Y322570D01*
Y314570*
X156370Y322570*
Y314570*
X278370Y278570D02*
X286370Y286570D01*
Y278570*
X278370Y286570*
Y278570*
X268370D02*
X276370Y286570D01*
Y278570*
X268370Y286570*
Y278570*
X238370D02*
X246370Y286570D01*
Y278570*
X238370Y286570*
Y278570*
X228370D02*
X236370Y286570D01*
Y278570*
X228370Y286570*
Y278570*
X198370D02*
X206370Y286570D01*
Y278570*
X198370Y286570*
Y278570*
X188370D02*
X196370Y286570D01*
Y278570*
X188370Y286570*
Y278570*
X409970Y315870D02*
X417970D01*
X413970Y311870D02*
Y319870D01*
X415970Y321151D02*
Y317870D01*
Y321151D02*
X416766D01*
X417106Y320995*
X417334Y320683*
X417334D02*
X417447Y320370D01*
X417561Y319901*
Y319120*
X417447Y318651*
X417334Y318339*
X417106Y318026*
X416766Y317870*
X415970*
X409970Y298270D02*
X417970D01*
X413970Y294270D02*
Y302270D01*
X415970Y303551D02*
Y300270D01*
Y303551D02*
X416766D01*
X417106Y303395*
X417334Y303083*
X417334D02*
X417447Y302770D01*
X417561Y302301*
Y301520*
X417447Y301051*
X417334Y300739*
X417106Y300426*
X416766Y300270*
X415970*
X384370Y315870D02*
X392370D01*
X388370Y311870D02*
Y319870D01*
X390370Y321151D02*
Y317870D01*
Y321151D02*
X391166D01*
X391506Y320995*
X391734Y320683*
X391734D02*
X391847Y320370D01*
X391961Y319901*
Y319120*
X391847Y318651*
X391734Y318339*
X391506Y318026*
X391166Y317870*
X390370*
X384370Y298270D02*
X392370D01*
X388370Y294270D02*
Y302270D01*
X390370Y303551D02*
Y300270D01*
Y303551D02*
X391166D01*
X391506Y303395*
X391734Y303083*
X391734D02*
X391847Y302770D01*
X391961Y302301*
Y301520*
X391847Y301051*
X391734Y300739*
X391506Y300426*
X391166Y300270*
X390370*
X510970Y315870D02*
X518970D01*
X514970Y311870D02*
Y319870D01*
X516970Y321151D02*
Y317870D01*
Y321151D02*
X517766D01*
X518106Y320995*
X518334Y320683*
X518334D02*
X518447Y320370D01*
X518561Y319901*
Y319120*
X518447Y318651*
X518334Y318339*
X518106Y318026*
X517766Y317870*
X516970*
X510970Y298270D02*
X518970D01*
X514970Y294270D02*
Y302270D01*
X516970Y303551D02*
Y300270D01*
Y303551D02*
X517766D01*
X518106Y303395*
X518334Y303083*
X518334D02*
X518447Y302770D01*
X518561Y302301*
Y301520*
X518447Y301051*
X518334Y300739*
X518106Y300426*
X517766Y300270*
X516970*
X485370Y315870D02*
X493370D01*
X489370Y311870D02*
Y319870D01*
X491370Y321151D02*
Y317870D01*
Y321151D02*
X492166D01*
X492506Y320995*
X492734Y320683*
X492734D02*
X492847Y320370D01*
X492961Y319901*
Y319120*
X492847Y318651*
X492734Y318339*
X492506Y318026*
X492166Y317870*
X491370*
X485370Y298270D02*
X493370D01*
X489370Y294270D02*
Y302270D01*
X491370Y303551D02*
Y300270D01*
Y303551D02*
X492166D01*
X492506Y303395*
X492734Y303083*
X492734D02*
X492847Y302770D01*
X492961Y302301*
Y301520*
X492847Y301051*
X492734Y300739*
X492506Y300426*
X492166Y300270*
X491370*
X610470Y315870D02*
X618470D01*
X614470Y311870D02*
Y319870D01*
X616470Y321151D02*
Y317870D01*
Y321151D02*
X617266D01*
X617606Y320995*
X617834Y320683*
X617834D02*
X617947Y320370D01*
X618061Y319901*
Y319120*
X617947Y318651*
X617834Y318339*
X617606Y318026*
X617266Y317870*
X616470*
X610470Y298270D02*
X618470D01*
X614470Y294270D02*
Y302270D01*
X616470Y303551D02*
Y300270D01*
Y303551D02*
X617266D01*
X617606Y303395*
X617834Y303083*
X617834D02*
X617947Y302770D01*
X618061Y302301*
Y301520*
X617947Y301051*
X617834Y300739*
X617606Y300426*
X617266Y300270*
X616470*
X584870Y315870D02*
X592870D01*
X588870Y311870D02*
Y319870D01*
X590870Y321151D02*
Y317870D01*
Y321151D02*
X591666D01*
X592006Y320995*
X592234Y320683*
X592234D02*
X592347Y320370D01*
X592461Y319901*
Y319120*
X592347Y318651*
X592234Y318339*
X592006Y318026*
X591666Y317870*
X590870*
X584870Y298270D02*
X592870D01*
X588870Y294270D02*
Y302270D01*
X590870Y303551D02*
Y300270D01*
Y303551D02*
X591666D01*
X592006Y303395*
X592234Y303083*
X592234D02*
X592347Y302770D01*
X592461Y302301*
Y301520*
X592347Y301051*
X592234Y300739*
X592006Y300426*
X591666Y300270*
X590870*
X711570Y315870D02*
X719570D01*
X715570Y311870D02*
Y319870D01*
X717570Y321151D02*
Y317870D01*
Y321151D02*
X718366D01*
X718706Y320995*
X718934Y320683*
X718934D02*
X719047Y320370D01*
X719161Y319901*
Y319120*
X719047Y318651*
X718934Y318339*
X718706Y318026*
X718366Y317870*
X717570*
X711570Y298270D02*
X719570D01*
X715570Y294270D02*
Y302270D01*
X717570Y303551D02*
Y300270D01*
Y303551D02*
X718366D01*
X718706Y303395*
X718934Y303083*
X718934D02*
X719047Y302770D01*
X719161Y302301*
Y301520*
X719047Y301051*
X718934Y300739*
X718706Y300426*
X718366Y300270*
X717570*
X685970Y315870D02*
X693970D01*
X689970Y311870D02*
Y319870D01*
X691970Y321151D02*
Y317870D01*
Y321151D02*
X692766D01*
X693106Y320995*
X693334Y320683*
X693334D02*
X693447Y320370D01*
X693561Y319901*
Y319120*
X693447Y318651*
X693334Y318339*
X693106Y318026*
X692766Y317870*
X691970*
X685970Y298270D02*
X693970D01*
X689970Y294270D02*
Y302270D01*
X691970Y303551D02*
Y300270D01*
Y303551D02*
X692766D01*
X693106Y303395*
X693334Y303083*
X693334D02*
X693447Y302770D01*
X693561Y302301*
Y301520*
X693447Y301051*
X693334Y300739*
X693106Y300426*
X692766Y300270*
X691970*
X65870Y601870D02*
X73870D01*
X69870Y597870D02*
Y605870D01*
X71870Y607151D02*
Y603870D01*
Y607151D02*
X72893D01*
X73234Y606995*
X73347Y606839*
X73461Y606526*
Y606214*
X73347Y605901*
X73234Y605745*
X72893Y605589*
X71870D02*
X72893D01*
X73234Y605433*
X73234D02*
X73347Y605276D01*
X73461Y604964*
Y604495*
X73347Y604183*
X73347D02*
X73234Y604026D01*
X72893Y603870*
X71870*
X75870Y601870D02*
X83870D01*
X79870Y597870D02*
Y605870D01*
X81870Y607151D02*
Y603870D01*
Y607151D02*
X82893D01*
X83234Y606995*
X83347Y606839*
X83461Y606526*
Y606214*
X83347Y605901*
X83234Y605745*
X82893Y605589*
X81870D02*
X82893D01*
X83234Y605433*
X83234D02*
X83347Y605276D01*
X83461Y604964*
Y604495*
X83347Y604183*
X83347D02*
X83234Y604026D01*
X82893Y603870*
X81870*
X65870Y550870D02*
X73870D01*
X69870Y546870D02*
Y554870D01*
X71870Y556151D02*
Y552870D01*
Y556151D02*
X72893D01*
X73234Y555995*
X73347Y555839*
X73461Y555526*
Y555214*
X73347Y554901*
X73234Y554745*
X72893Y554589*
X71870D02*
X72893D01*
X73234Y554433*
X73234D02*
X73347Y554276D01*
X73461Y553964*
Y553495*
X73347Y553183*
X73347D02*
X73234Y553026D01*
X72893Y552870*
X71870*
X75870Y550870D02*
X83870D01*
X79870Y546870D02*
Y554870D01*
X81870Y556151D02*
Y552870D01*
Y556151D02*
X82893D01*
X83234Y555995*
X83347Y555839*
X83461Y555526*
Y555214*
X83347Y554901*
X83234Y554745*
X82893Y554589*
X81870D02*
X82893D01*
X83234Y554433*
X83234D02*
X83347Y554276D01*
X83461Y553964*
Y553495*
X83347Y553183*
X83347D02*
X83234Y553026D01*
X82893Y552870*
X81870*
X65870Y499870D02*
X73870D01*
X69870Y495870D02*
Y503870D01*
X71870Y505151D02*
Y501870D01*
Y505151D02*
X72893D01*
X73234Y504995*
X73347Y504839*
X73461Y504526*
Y504214*
X73347Y503901*
X73234Y503745*
X72893Y503589*
X71870D02*
X72893D01*
X73234Y503433*
X73234D02*
X73347Y503276D01*
X73461Y502964*
Y502495*
X73347Y502183*
X73347D02*
X73234Y502026D01*
X72893Y501870*
X71870*
X75870Y499870D02*
X83870D01*
X79870Y495870D02*
Y503870D01*
X81870Y505151D02*
Y501870D01*
Y505151D02*
X82893D01*
X83234Y504995*
X83347Y504839*
X83461Y504526*
Y504214*
X83347Y503901*
X83234Y503745*
X82893Y503589*
X81870D02*
X82893D01*
X83234Y503433*
X83234D02*
X83347Y503276D01*
X83461Y502964*
Y502495*
X83347Y502183*
X83347D02*
X83234Y502026D01*
X82893Y501870*
X81870*
X65870Y448870D02*
X73870D01*
X69870Y444870D02*
Y452870D01*
X71870Y454151D02*
Y450870D01*
Y454151D02*
X72893D01*
X73234Y453995*
X73347Y453839*
X73461Y453526*
Y453214*
X73347Y452901*
X73234Y452745*
X72893Y452589*
X71870D02*
X72893D01*
X73234Y452433*
X73234D02*
X73347Y452276D01*
X73461Y451964*
Y451495*
X73347Y451183*
X73347D02*
X73234Y451026D01*
X72893Y450870*
X71870*
X75870Y448870D02*
X83870D01*
X79870Y444870D02*
Y452870D01*
X81870Y454151D02*
Y450870D01*
Y454151D02*
X82893D01*
X83234Y453995*
X83347Y453839*
X83461Y453526*
Y453214*
X83347Y452901*
X83234Y452745*
X82893Y452589*
X81870D02*
X82893D01*
X83234Y452433*
X83234D02*
X83347Y452276D01*
X83461Y451964*
Y451495*
X83347Y451183*
X83347D02*
X83234Y451026D01*
X82893Y450870*
X81870*
X65870Y397870D02*
X73870D01*
X69870Y393870D02*
Y401870D01*
X71870Y403151D02*
Y399870D01*
Y403151D02*
X72893D01*
X73234Y402995*
X73347Y402839*
X73461Y402526*
Y402214*
X73347Y401901*
X73234Y401745*
X72893Y401589*
X71870D02*
X72893D01*
X73234Y401433*
X73234D02*
X73347Y401276D01*
X73461Y400964*
Y400495*
X73347Y400183*
X73347D02*
X73234Y400026D01*
X72893Y399870*
X71870*
X75870Y397870D02*
X83870D01*
X79870Y393870D02*
Y401870D01*
X81870Y403151D02*
Y399870D01*
Y403151D02*
X82893D01*
X83234Y402995*
X83347Y402839*
X83461Y402526*
Y402214*
X83347Y401901*
X83234Y401745*
X82893Y401589*
X81870D02*
X82893D01*
X83234Y401433*
X83234D02*
X83347Y401276D01*
X83461Y400964*
Y400495*
X83347Y400183*
X83347D02*
X83234Y400026D01*
X82893Y399870*
X81870*
X351770Y378470D02*
X359770D01*
X355770Y374470D02*
Y382470D01*
X357770Y383751D02*
Y380470D01*
Y383751D02*
X358793D01*
X359134Y383595*
X359247Y383439*
X359361Y383126*
Y382814*
X359247Y382501*
X359134Y382345*
X358793Y382189*
X357770D02*
X358793D01*
X359134Y382033*
X359134D02*
X359247Y381876D01*
X359361Y381564*
Y381095*
X359247Y380783*
X359247D02*
X359134Y380626D01*
X358793Y380470*
X357770*
X341770Y378470D02*
X349770D01*
X345770Y374470D02*
Y382470D01*
X347770Y383751D02*
Y380470D01*
Y383751D02*
X348793D01*
X349134Y383595*
X349247Y383439*
X349361Y383126*
Y382814*
X349247Y382501*
X349134Y382345*
X348793Y382189*
X347770D02*
X348793D01*
X349134Y382033*
X349134D02*
X349247Y381876D01*
X349361Y381564*
Y381095*
X349247Y380783*
X349247D02*
X349134Y380626D01*
X348793Y380470*
X347770*
X351770Y405470D02*
X359770D01*
X355770Y401470D02*
Y409470D01*
X357770Y410751D02*
Y407470D01*
Y410751D02*
X358793D01*
X359134Y410595*
X359247Y410439*
X359361Y410126*
Y409814*
X359247Y409501*
X359134Y409345*
X358793Y409189*
X357770D02*
X358793D01*
X359134Y409033*
X359134D02*
X359247Y408876D01*
X359361Y408564*
Y408095*
X359247Y407783*
X359247D02*
X359134Y407626D01*
X358793Y407470*
X357770*
X341770Y405470D02*
X349770D01*
X345770Y401470D02*
Y409470D01*
X347770Y410751D02*
Y407470D01*
Y410751D02*
X348793D01*
X349134Y410595*
X349247Y410439*
X349361Y410126*
Y409814*
X349247Y409501*
X349134Y409345*
X348793Y409189*
X347770D02*
X348793D01*
X349134Y409033*
X349134D02*
X349247Y408876D01*
X349361Y408564*
Y408095*
X349247Y407783*
X349247D02*
X349134Y407626D01*
X348793Y407470*
X347770*
X167770Y365070D02*
X175770Y373070D01*
Y365070*
X167770Y373070*
Y365070*
Y355070D02*
X175770Y363070D01*
Y355070*
X167770Y363070*
Y355070*
Y345070D02*
X175770Y353070D01*
Y345070*
X167770Y353070*
Y345070*
X346870Y447870D02*
X354870D01*
X346870Y455870*
X354870*
X346870Y447870*
Y437870D02*
X354870D01*
X346870Y445870*
X354870*
X346870Y437870*
X236970Y85370D02*
X244970D01*
Y93370*
X236970*
Y85370*
X240970Y89370D02*
Y93370D01*
X276370Y85370D02*
X284370D01*
Y93370*
X276370*
Y85370*
X280370Y89370D02*
Y93370D01*
X315770Y85370D02*
X323770D01*
Y93370*
X315770*
Y85370*
X319770Y89370D02*
Y93370D01*
X315770Y176370D02*
X323770D01*
Y184370*
X315770*
Y176370*
X319770Y180370D02*
Y184370D01*
X236970Y176370D02*
X244970D01*
Y184370*
X236970*
Y176370*
X240970Y180370D02*
Y184370D01*
X407970Y85370D02*
X415970D01*
Y93370*
X407970*
Y85370*
X411970Y89370D02*
Y93370D01*
X447370Y85370D02*
X455370D01*
Y93370*
X447370*
Y85370*
X451370Y89370D02*
Y93370D01*
X486770Y85370D02*
X494770D01*
Y93370*
X486770*
Y85370*
X490770Y89370D02*
Y93370D01*
X486770Y176370D02*
X494770D01*
Y184370*
X486770*
Y176370*
X490770Y180370D02*
Y184370D01*
X407970Y176370D02*
X415970D01*
Y184370*
X407970*
Y176370*
X411970Y180370D02*
Y184370D01*
X578970Y85370D02*
X586970D01*
Y93370*
X578970*
Y85370*
X582970Y89370D02*
Y93370D01*
X618370Y85370D02*
X626370D01*
Y93370*
X618370*
Y85370*
X622370Y89370D02*
Y93370D01*
X657770Y85370D02*
X665770D01*
Y93370*
X657770*
Y85370*
X661770Y89370D02*
Y93370D01*
X657770Y176370D02*
X665770D01*
Y184370*
X657770*
Y176370*
X661770Y180370D02*
Y184370D01*
X578970Y176370D02*
X586970D01*
Y184370*
X578970*
Y176370*
X582970Y180370D02*
Y184370D01*
X47370Y265570D02*
X55370D01*
X47370Y273570*
X55370*
X47370Y265570*
Y305570D02*
X55370D01*
X47370Y313570*
X55370*
X47370Y305570*
X153970Y451270D02*
X161970Y459270D01*
Y451270*
X153970Y459270*
Y451270*
X256070Y494070D02*
X264070Y502070D01*
Y494070*
X256070Y502070*
Y494070*
X212070Y509670D02*
X220070Y517670D01*
Y509670*
X212070Y517670*
Y509670*
X181270Y563970D02*
X189270Y571970D01*
Y563970*
X181270Y571970*
Y563970*
X89370Y265570D02*
X97370D01*
X89370Y273570*
X97370*
X89370Y265570*
Y305570D02*
X97370D01*
X89370Y313570*
X97370*
X89370Y305570*
X131370Y265570D02*
X139370D01*
X131370Y273570*
X139370*
X131370Y265570*
Y305570D02*
X139370D01*
X131370Y313570*
X139370*
X131370Y305570*
X253370Y270570D02*
X261370D01*
X253370Y278570*
X261370*
X253370Y270570*
Y310570D02*
X261370D01*
X253370Y318570*
X261370*
X253370Y310570*
X213370Y270570D02*
X221370D01*
X213370Y278570*
X221370*
X213370Y270570*
Y310570D02*
X221370D01*
X213370Y318570*
X221370*
X213370Y310570*
X173370Y270570D02*
X181370D01*
X173370Y278570*
X181370*
X173370Y270570*
Y310570D02*
X181370D01*
X173370Y318570*
X181370*
X173370Y310570*
X313770Y284731D02*
X321770D01*
X317770Y280731D02*
Y288731D01*
X320679Y290012D02*
X319770Y286731D01*
X320679Y290012D02*
X321588Y286731D01*
X320111Y287824D02*
X321247D01*
X313770Y254809D02*
X321770D01*
X317770Y250809D02*
Y258809D01*
X320679Y260091D02*
X319770Y256809D01*
X320679Y260091D02*
X321588Y256809D01*
X320111Y257903D02*
X321247D01*
X326970Y580370D02*
X334970D01*
X330970Y576370D02*
Y584370D01*
X332970Y585651D02*
Y582370D01*
X334561Y585651D02*
Y582370D01*
X332970Y584089D02*
X334561D01*
X336970Y580370D02*
X344970D01*
X340970Y576370D02*
Y584370D01*
X342970Y585651D02*
Y582370D01*
X344561Y585651D02*
Y582370D01*
X342970Y584089D02*
X344561D01*
X101260Y645370D02*
X109260Y653370D01*
X101260D02*
X109260Y645370D01*
X87480D02*
X95480Y653370D01*
X87480D02*
X95480Y645370D01*
X178929D02*
X186929Y653370D01*
X178929D02*
X186929Y645370D01*
X165150D02*
X173150Y653370D01*
X165150D02*
X173150Y645370D01*
X151370D02*
X159370Y653370D01*
X151370D02*
X159370Y645370D01*
X137591D02*
X145591Y653370D01*
X137591D02*
X145591Y645370D01*
X123811D02*
X131811Y653370D01*
X123811D02*
X131811Y645370D01*
X243039D02*
X251039Y653370D01*
X243039D02*
X251039Y645370D01*
X229260D02*
X237260Y653370D01*
X229260D02*
X237260Y645370D01*
X215480D02*
X223480Y653370D01*
X215480D02*
X223480Y645370D01*
X201701D02*
X209701Y653370D01*
X201701D02*
X209701Y645370D01*
X279260D02*
X287260Y653370D01*
X279260D02*
X287260Y645370D01*
X265480D02*
X273480Y653370D01*
X265480D02*
X273480Y645370D01*
X55370Y155429D02*
X63370Y163429D01*
X55370D02*
X63370Y155429D01*
X55370Y141650D02*
X63370Y149650D01*
X55370D02*
X63370Y141650D01*
X55370Y127870D02*
X63370Y135870D01*
X55370D02*
X63370Y127870D01*
X55370Y114090D02*
X63370Y122090D01*
X55370D02*
X63370Y114090D01*
X55370Y100311D02*
X63370Y108311D01*
X55370D02*
X63370Y100311D01*
X55070Y244070D02*
X63070D01*
X59070Y240070D02*
Y248070D01*
X447170Y307070D02*
X455170D01*
X451170Y303070D02*
Y311070D01*
X724370Y244070D02*
X732370D01*
X728370Y240070D02*
Y248070D01*
X724370Y649670D02*
X732370D01*
X728370Y645670D02*
Y653670D01*
X55070Y649670D02*
X63070D01*
X59070Y645670D02*
Y653670D01*
X55070Y59070D02*
X63070D01*
X59070Y55070D02*
Y63070D01*
X55070Y204770D02*
X63070D01*
X59070Y200770D02*
Y208770D01*
X724370Y59070D02*
X732370D01*
X728370Y55070D02*
Y63070D01*
X724370Y204770D02*
X732370D01*
X728370Y200770D02*
Y208770D01*
X724370Y86531D02*
X732370Y94531D01*
X724370D02*
X732370Y86531D01*
X724370Y100311D02*
X732370Y108311D01*
X724370D02*
X732370Y100311D01*
X724370Y114090D02*
X732370Y122090D01*
X724370D02*
X732370Y114090D01*
X724370Y127870D02*
X732370Y135870D01*
X724370D02*
X732370Y127870D01*
X724370Y141650D02*
X732370Y149650D01*
X724370D02*
X732370Y141650D01*
X724370Y155429D02*
X732370Y163429D01*
X724370D02*
X732370Y155429D01*
X724370Y169209D02*
X732370Y177209D01*
X724370D02*
X732370Y169209D01*
X173631Y240370D02*
X181631Y248370D01*
X173631D02*
X181631Y240370D01*
X187411D02*
X195411Y248370D01*
X187411D02*
X195411Y240370D01*
X201191D02*
X209191Y248370D01*
X201191D02*
X209191Y240370D01*
X214970D02*
X222970Y248370D01*
X214970D02*
X222970Y240370D01*
X228750D02*
X236750Y248370D01*
X228750D02*
X236750Y240370D01*
X242529D02*
X250529Y248370D01*
X242529D02*
X250529Y240370D01*
X256309D02*
X264309Y248370D01*
X256309D02*
X264309Y240370D01*
X84621D02*
X92621Y248370D01*
X84621D02*
X92621Y240370D01*
X98401D02*
X106401Y248370D01*
X98401D02*
X106401Y240370D01*
X112180D02*
X120180Y248370D01*
X112180D02*
X120180Y240370D01*
X125960D02*
X133960Y248370D01*
X125960D02*
X133960Y240370D01*
X139739D02*
X147739Y248370D01*
X139739D02*
X147739Y240370D01*
X153519D02*
X161519Y248370D01*
X153519D02*
X161519Y240370D01*
X302370Y638670D02*
X310370D01*
X306370Y634670D02*
Y642670D01*
X308370Y643951D02*
Y640670D01*
Y643951D02*
X309393D01*
X309734Y643795*
X309847Y643639*
X309961Y643326*
Y643014*
X309847Y642701*
X309734Y642545*
X309393Y642389*
X308370D02*
X309393D01*
X309734Y642233*
X309734D02*
X309847Y642076D01*
X309961Y641764*
Y641295*
X309847Y640983*
X309847D02*
X309734Y640826D01*
X309393Y640670*
X308370*
X302370Y648670D02*
X310370D01*
X306370Y644670D02*
Y652670D01*
X308370Y653951D02*
Y650670D01*
Y653951D02*
X309393D01*
X309734Y653795*
X309847Y653639*
X309961Y653326*
Y653014*
X309847Y652701*
X309734Y652545*
X309393Y652389*
X308370D02*
X309393D01*
X309734Y652233*
X309734D02*
X309847Y652076D01*
X309961Y651764*
Y651295*
X309847Y650983*
X309847D02*
X309734Y650826D01*
X309393Y650670*
X308370*
X302370Y658670D02*
X310370D01*
X306370Y654670D02*
Y662670D01*
X308370Y663951D02*
Y660670D01*
Y663951D02*
X309393D01*
X309734Y663795*
X309847Y663639*
X309961Y663326*
Y663014*
X309847Y662701*
X309734Y662545*
X309393Y662389*
X308370D02*
X309393D01*
X309734Y662233*
X309734D02*
X309847Y662076D01*
X309961Y661764*
Y661295*
X309847Y660983*
X309847D02*
X309734Y660826D01*
X309393Y660670*
X308370*
X324370Y638670D02*
X332370D01*
X328370Y634670D02*
Y642670D01*
X330370Y643951D02*
Y640670D01*
Y643951D02*
X331393D01*
X331734Y643795*
X331847Y643639*
X331961Y643326*
Y643014*
X331847Y642701*
X331734Y642545*
X331393Y642389*
X330370D02*
X331393D01*
X331734Y642233*
X331734D02*
X331847Y642076D01*
X331961Y641764*
Y641295*
X331847Y640983*
X331847D02*
X331734Y640826D01*
X331393Y640670*
X330370*
X324370Y648670D02*
X332370D01*
X328370Y644670D02*
Y652670D01*
X330370Y653951D02*
Y650670D01*
Y653951D02*
X331393D01*
X331734Y653795*
X331847Y653639*
X331961Y653326*
Y653014*
X331847Y652701*
X331734Y652545*
X331393Y652389*
X330370D02*
X331393D01*
X331734Y652233*
X331734D02*
X331847Y652076D01*
X331961Y651764*
Y651295*
X331847Y650983*
X331847D02*
X331734Y650826D01*
X331393Y650670*
X330370*
X324370Y658670D02*
X332370D01*
X328370Y654670D02*
Y662670D01*
X330370Y663951D02*
Y660670D01*
Y663951D02*
X331393D01*
X331734Y663795*
X331847Y663639*
X331961Y663326*
Y663014*
X331847Y662701*
X331734Y662545*
X331393Y662389*
X330370D02*
X331393D01*
X331734Y662233*
X331734D02*
X331847Y662076D01*
X331961Y661764*
Y661295*
X331847Y660983*
X331847D02*
X331734Y660826D01*
X331393Y660670*
X330370*
X346370Y638670D02*
X354370D01*
X350370Y634670D02*
Y642670D01*
X352370Y643951D02*
Y640670D01*
Y643951D02*
X353393D01*
X353734Y643795*
X353847Y643639*
X353961Y643326*
Y643014*
X353847Y642701*
X353734Y642545*
X353393Y642389*
X352370D02*
X353393D01*
X353734Y642233*
X353734D02*
X353847Y642076D01*
X353961Y641764*
Y641295*
X353847Y640983*
X353847D02*
X353734Y640826D01*
X353393Y640670*
X352370*
X346370Y648670D02*
X354370D01*
X350370Y644670D02*
Y652670D01*
X352370Y653951D02*
Y650670D01*
Y653951D02*
X353393D01*
X353734Y653795*
X353847Y653639*
X353961Y653326*
Y653014*
X353847Y652701*
X353734Y652545*
X353393Y652389*
X352370D02*
X353393D01*
X353734Y652233*
X353734D02*
X353847Y652076D01*
X353961Y651764*
Y651295*
X353847Y650983*
X353847D02*
X353734Y650826D01*
X353393Y650670*
X352370*
X346370Y658670D02*
X354370D01*
X350370Y654670D02*
Y662670D01*
X352370Y663951D02*
Y660670D01*
Y663951D02*
X353393D01*
X353734Y663795*
X353847Y663639*
X353961Y663326*
Y663014*
X353847Y662701*
X353734Y662545*
X353393Y662389*
X352370D02*
X353393D01*
X353734Y662233*
X353734D02*
X353847Y662076D01*
X353961Y661764*
Y661295*
X353847Y660983*
X353847D02*
X353734Y660826D01*
X353393Y660670*
X352370*
X368370Y638670D02*
X376370D01*
X372370Y634670D02*
Y642670D01*
X374370Y643951D02*
Y640670D01*
Y643951D02*
X375393D01*
X375734Y643795*
X375847Y643639*
X375961Y643326*
Y643014*
X375847Y642701*
X375734Y642545*
X375393Y642389*
X374370D02*
X375393D01*
X375734Y642233*
X375734D02*
X375847Y642076D01*
X375961Y641764*
Y641295*
X375847Y640983*
X375847D02*
X375734Y640826D01*
X375393Y640670*
X374370*
X368370Y648670D02*
X376370D01*
X372370Y644670D02*
Y652670D01*
X374370Y653951D02*
Y650670D01*
Y653951D02*
X375393D01*
X375734Y653795*
X375847Y653639*
X375961Y653326*
Y653014*
X375847Y652701*
X375734Y652545*
X375393Y652389*
X374370D02*
X375393D01*
X375734Y652233*
X375734D02*
X375847Y652076D01*
X375961Y651764*
Y651295*
X375847Y650983*
X375847D02*
X375734Y650826D01*
X375393Y650670*
X374370*
X368370Y658670D02*
X376370D01*
X372370Y654670D02*
Y662670D01*
X374370Y663951D02*
Y660670D01*
Y663951D02*
X375393D01*
X375734Y663795*
X375847Y663639*
X375961Y663326*
Y663014*
X375847Y662701*
X375734Y662545*
X375393Y662389*
X374370D02*
X375393D01*
X375734Y662233*
X375734D02*
X375847Y662076D01*
X375961Y661764*
Y661295*
X375847Y660983*
X375847D02*
X375734Y660826D01*
X375393Y660670*
X374370*
X390370Y638670D02*
X398370D01*
X394370Y634670D02*
Y642670D01*
X396370Y643951D02*
Y640670D01*
Y643951D02*
X397393D01*
X397734Y643795*
X397847Y643639*
X397961Y643326*
Y643014*
X397847Y642701*
X397734Y642545*
X397393Y642389*
X396370D02*
X397393D01*
X397734Y642233*
X397734D02*
X397847Y642076D01*
X397961Y641764*
Y641295*
X397847Y640983*
X397847D02*
X397734Y640826D01*
X397393Y640670*
X396370*
X390370Y648670D02*
X398370D01*
X394370Y644670D02*
Y652670D01*
X396370Y653951D02*
Y650670D01*
Y653951D02*
X397393D01*
X397734Y653795*
X397847Y653639*
X397961Y653326*
Y653014*
X397847Y652701*
X397734Y652545*
X397393Y652389*
X396370D02*
X397393D01*
X397734Y652233*
X397734D02*
X397847Y652076D01*
X397961Y651764*
Y651295*
X397847Y650983*
X397847D02*
X397734Y650826D01*
X397393Y650670*
X396370*
X390370Y658670D02*
X398370D01*
X394370Y654670D02*
Y662670D01*
X396370Y663951D02*
Y660670D01*
Y663951D02*
X397393D01*
X397734Y663795*
X397847Y663639*
X397961Y663326*
Y663014*
X397847Y662701*
X397734Y662545*
X397393Y662389*
X396370D02*
X397393D01*
X397734Y662233*
X397734D02*
X397847Y662076D01*
X397961Y661764*
Y661295*
X397847Y660983*
X397847D02*
X397734Y660826D01*
X397393Y660670*
X396370*
X412370Y638670D02*
X420370D01*
X416370Y634670D02*
Y642670D01*
X418370Y643951D02*
Y640670D01*
Y643951D02*
X419393D01*
X419734Y643795*
X419847Y643639*
X419961Y643326*
Y643014*
X419847Y642701*
X419734Y642545*
X419393Y642389*
X418370D02*
X419393D01*
X419734Y642233*
X419734D02*
X419847Y642076D01*
X419961Y641764*
Y641295*
X419847Y640983*
X419847D02*
X419734Y640826D01*
X419393Y640670*
X418370*
X412370Y648670D02*
X420370D01*
X416370Y644670D02*
Y652670D01*
X418370Y653951D02*
Y650670D01*
Y653951D02*
X419393D01*
X419734Y653795*
X419847Y653639*
X419961Y653326*
Y653014*
X419847Y652701*
X419734Y652545*
X419393Y652389*
X418370D02*
X419393D01*
X419734Y652233*
X419734D02*
X419847Y652076D01*
X419961Y651764*
Y651295*
X419847Y650983*
X419847D02*
X419734Y650826D01*
X419393Y650670*
X418370*
X412370Y658670D02*
X420370D01*
X416370Y654670D02*
Y662670D01*
X418370Y663951D02*
Y660670D01*
Y663951D02*
X419393D01*
X419734Y663795*
X419847Y663639*
X419961Y663326*
Y663014*
X419847Y662701*
X419734Y662545*
X419393Y662389*
X418370D02*
X419393D01*
X419734Y662233*
X419734D02*
X419847Y662076D01*
X419961Y661764*
Y661295*
X419847Y660983*
X419847D02*
X419734Y660826D01*
X419393Y660670*
X418370*
X222070Y612970D02*
X230070Y620970D01*
Y612970*
X222070Y620970*
Y612970*
Y622970D02*
X230070Y630970D01*
Y622970*
X222070Y630970*
Y622970*
X205970Y567170D02*
X213970Y575170D01*
Y567170*
X205970Y575170*
Y567170*
X195970D02*
X203970Y575170D01*
Y567170*
X195970Y575170*
Y567170*
X669470Y267370D02*
X677470D01*
X673470Y263370D02*
Y271370D01*
X675470Y272651D02*
Y269370D01*
Y272651D02*
X676493D01*
X676834Y272495*
X676947Y272339*
X677061Y272026*
Y271714*
X676947Y271401*
X676834Y271245*
X676493Y271089*
X675470D02*
X676493D01*
X676834Y270933*
X676834D02*
X676947Y270776D01*
X677061Y270464*
Y269995*
X676947Y269683*
X676947D02*
X676834Y269526D01*
X676493Y269370*
X675470*
X659470Y277370D02*
X667470D01*
X663470Y273370D02*
Y281370D01*
X665470Y282651D02*
Y279370D01*
Y282651D02*
X666493D01*
X666834Y282495*
X666947Y282339*
X667061Y282026*
Y281714*
X666947Y281401*
X666834Y281245*
X666493Y281089*
X665470D02*
X666493D01*
X666834Y280933*
X666834D02*
X666947Y280776D01*
X667061Y280464*
Y279995*
X666947Y279683*
X666947D02*
X666834Y279526D01*
X666493Y279370*
X665470*
X649470Y267370D02*
X657470D01*
X653470Y263370D02*
Y271370D01*
X655470Y272651D02*
Y269370D01*
Y272651D02*
X656493D01*
X656834Y272495*
X656947Y272339*
X657061Y272026*
Y271714*
X656947Y271401*
X656834Y271245*
X656493Y271089*
X655470D02*
X656493D01*
X656834Y270933*
X656834D02*
X656947Y270776D01*
X657061Y270464*
Y269995*
X656947Y269683*
X656947D02*
X656834Y269526D01*
X656493Y269370*
X655470*
X104670Y428470D02*
X112670Y436470D01*
Y428470*
X104670Y436470*
Y428470*
X285970Y487070D02*
X293970Y495070D01*
Y487070*
X285970Y495070*
Y487070*
X284513Y557570D02*
X292513D01*
X288513Y553570D02*
Y561570D01*
X292217Y562070D02*
X292104Y562383D01*
X292104D02*
X291876Y562695D01*
X291649Y562851*
X291194*
X290967Y562695*
X290740Y562383*
X290740D02*
X290626Y562070D01*
X290513Y561601*
Y560820*
X290626Y560351*
X290740Y560039*
X290967Y559726*
X291194Y559570*
X291649*
X291876Y559726*
X292104Y560039*
X292217Y560351*
Y560820*
X291649D02*
X292217D01*
X264828Y557570D02*
X272828D01*
X268828Y553570D02*
Y561570D01*
X272532Y562070D02*
X272418Y562383D01*
X272418D02*
X272191Y562695D01*
X271964Y562851*
X271509*
X271282Y562695*
X271055Y562383*
X271055D02*
X270941Y562070D01*
X270828Y561601*
Y560820*
X270941Y560351*
X271055Y560039*
X271282Y559726*
X271509Y559570*
X271964*
X272191Y559726*
X272418Y560039*
X272532Y560351*
Y560820*
X271964D02*
X272532D01*
X299370Y230370D02*
X303370Y234370D01*
X299370Y238370*
X295370Y234370*
X299370Y230370*
Y234370D02*
Y238370D01*
X314370Y230370D02*
X318370Y234370D01*
X314370Y238370*
X310370Y234370*
X314370Y230370*
Y234370D02*
Y238370D01*
X339370Y230370D02*
X343370Y234370D01*
X339370Y238370*
X335370Y234370*
X339370Y230370*
Y234370D02*
Y238370D01*
X364370Y230370D02*
X368370Y234370D01*
X364370Y238370*
X360370Y234370*
X364370Y230370*
Y234370D02*
Y238370D01*
X389370Y230370D02*
X393370Y234370D01*
X389370Y238370*
X385370Y234370*
X389370Y230370*
Y234370D02*
Y238370D01*
X414370Y230370D02*
X418370Y234370D01*
X414370Y238370*
X410370Y234370*
X414370Y230370*
Y234370D02*
Y238370D01*
X439370Y230370D02*
X443370Y234370D01*
X439370Y238370*
X435370Y234370*
X439370Y230370*
Y234370D02*
Y238370D01*
X464370Y230370D02*
X468370Y234370D01*
X464370Y238370*
X460370Y234370*
X464370Y230370*
Y234370D02*
Y238370D01*
X509370Y230370D02*
X513370Y234370D01*
X509370Y238370*
X505370Y234370*
X509370Y230370*
Y234370D02*
Y238370D01*
X489370Y230370D02*
X493370Y234370D01*
X489370Y238370*
X485370Y234370*
X489370Y230370*
Y234370D02*
Y238370D01*
X534370Y230370D02*
X538370Y234370D01*
X534370Y238370*
X530370Y234370*
X534370Y230370*
Y234370D02*
Y238370D01*
X584370Y230370D02*
X588370Y234370D01*
X584370Y238370*
X580370Y234370*
X584370Y230370*
Y234370D02*
Y238370D01*
X559370Y230370D02*
X563370Y234370D01*
X559370Y238370*
X555370Y234370*
X559370Y230370*
Y234370D02*
Y238370D01*
X609370Y230370D02*
X613370Y234370D01*
X609370Y238370*
X605370Y234370*
X609370Y230370*
Y234370D02*
Y238370D01*
X659370Y230370D02*
X663370Y234370D01*
X659370Y238370*
X655370Y234370*
X659370Y230370*
Y234370D02*
Y238370D01*
X634370Y230370D02*
X638370Y234370D01*
X634370Y238370*
X630370Y234370*
X634370Y230370*
Y234370D02*
Y238370D01*
X684370Y230370D02*
X688370Y234370D01*
X684370Y238370*
X680370Y234370*
X684370Y230370*
Y234370D02*
Y238370D01*
Y240370D02*
X688370Y244370D01*
X684370Y248370*
X680370Y244370*
X684370Y240370*
Y244370D02*
Y248370D01*
X299370Y245370D02*
X303370Y249370D01*
X299370Y253370*
X295370Y249370*
X299370Y245370*
Y249370D02*
Y253370D01*
X339370Y245370D02*
X343370Y249370D01*
X339370Y253370*
X335370Y249370*
X339370Y245370*
Y249370D02*
Y253370D01*
X369770Y256170D02*
X373770Y260170D01*
X369770Y264170*
X365770Y260170*
X369770Y256170*
Y260170D02*
Y264170D01*
X394170Y250370D02*
X398170Y254370D01*
X394170Y258370*
X390170Y254370*
X394170Y250370*
Y254370D02*
Y258370D01*
X450370Y250370D02*
X454370Y254370D01*
X450370Y258370*
X446370Y254370*
X450370Y250370*
Y254370D02*
Y258370D01*
X464370Y250370D02*
X468370Y254370D01*
X464370Y258370*
X460370Y254370*
X464370Y250370*
Y254370D02*
Y258370D01*
X436370Y250370D02*
X440370Y254370D01*
X436370Y258370*
X432370Y254370*
X436370Y250370*
Y254370D02*
Y258370D01*
X489470Y249370D02*
X493470Y253370D01*
X489470Y257370*
X485470Y253370*
X489470Y249370*
Y253370D02*
Y257370D01*
X477370Y252470D02*
X481370Y256470D01*
X477370Y260470*
X473370Y256470*
X477370Y252470*
Y256470D02*
Y260470D01*
X534370Y245370D02*
X538370Y249370D01*
X534370Y253370*
X530370Y249370*
X534370Y245370*
Y249370D02*
Y253370D01*
X584370Y260370D02*
X588370Y264370D01*
X584370Y268370*
X580370Y264370*
X584370Y260370*
Y264370D02*
Y268370D01*
X559370Y260370D02*
X563370Y264370D01*
X559370Y268370*
X555370Y264370*
X559370Y260370*
Y264370D02*
Y268370D01*
X570270Y277870D02*
X574270Y281870D01*
X570270Y285870*
X566270Y281870*
X570270Y277870*
Y281870D02*
Y285870D01*
X559370Y245370D02*
X563370Y249370D01*
X559370Y253370*
X555370Y249370*
X559370Y245370*
Y249370D02*
Y253370D01*
X626870Y273270D02*
X630870Y277270D01*
X626870Y281270*
X622870Y277270*
X626870Y273270*
Y277270D02*
Y281270D01*
X609370Y255370D02*
X613370Y259370D01*
X609370Y263370*
X605370Y259370*
X609370Y255370*
Y259370D02*
Y263370D01*
X632370Y278370D02*
X636370Y282370D01*
X632370Y286370*
X628370Y282370*
X632370Y278370*
Y282370D02*
Y286370D01*
X634370Y255370D02*
X638370Y259370D01*
X634370Y263370*
X630370Y259370*
X634370Y255370*
Y259370D02*
Y263370D01*
X643370Y264770D02*
X647370Y268770D01*
X643370Y272770*
X639370Y268770*
X643370Y264770*
Y268770D02*
Y272770D01*
X709370Y265370D02*
X713370Y269370D01*
X709370Y273370*
X705370Y269370*
X709370Y265370*
Y269370D02*
Y273370D01*
X684370Y265370D02*
X688370Y269370D01*
X684370Y273370*
X680370Y269370*
X684370Y265370*
Y269370D02*
Y273370D01*
X744370Y260370D02*
X748370Y264370D01*
X744370Y268370*
X740370Y264370*
X744370Y260370*
Y264370D02*
Y268370D01*
Y280370D02*
X748370Y284370D01*
X744370Y288370*
X740370Y284370*
X744370Y280370*
Y284370D02*
Y288370D01*
X734370Y265370D02*
X738370Y269370D01*
X734370Y273370*
X730370Y269370*
X734370Y265370*
Y269370D02*
Y273370D01*
X300270Y289570D02*
X304270Y293570D01*
X300270Y297570*
X296270Y293570*
X300270Y289570*
Y293570D02*
Y297570D01*
X333270Y289770D02*
X337270Y293770D01*
X333270Y297770*
X329270Y293770*
X333270Y289770*
Y293770D02*
Y297770D01*
X332970Y320570D02*
X340970D01*
X336970Y316570D02*
Y324570D01*
X340675Y325070D02*
X340561Y325383D01*
X340561D02*
X340334Y325695D01*
X340106Y325851*
X339652*
X339425Y325695*
X339197Y325383*
X339197D02*
X339084Y325070D01*
X338970Y324601*
Y323820*
X339084Y323351*
X339197Y323039*
X339425Y322726*
X339652Y322570*
X340106*
X340334Y322726*
X340561Y323039*
X340675Y323351*
X328970Y324570D02*
X336970D01*
X332970Y320570D02*
Y328570D01*
X336675Y329070D02*
X336561Y329383D01*
X336561D02*
X336334Y329695D01*
X336106Y329851*
X335652*
X335425Y329695*
X335197Y329383*
X335197D02*
X335084Y329070D01*
X334970Y328601*
Y327820*
X335084Y327351*
X335197Y327039*
X335425Y326726*
X335652Y326570*
X336106*
X336334Y326726*
X336561Y327039*
X336675Y327351*
X344770Y300370D02*
X352770D01*
X348770Y296370D02*
Y304370D01*
X352475Y304870D02*
X352361Y305183D01*
X352361D02*
X352134Y305495D01*
X351906Y305651*
X351452*
X351225Y305495*
X350997Y305183*
X350997D02*
X350884Y304870D01*
X350770Y304401*
Y303620*
X350884Y303151*
X350997Y302839*
X351225Y302526*
X351452Y302370*
X351906*
X352134Y302526*
X352361Y302839*
X352475Y303151*
X348770Y296370D02*
X356770D01*
X352770Y292370D02*
Y300370D01*
X356475Y300870D02*
X356361Y301183D01*
X356361D02*
X356134Y301495D01*
X355906Y301651*
X355452*
X355225Y301495*
X354997Y301183*
X354997D02*
X354884Y300870D01*
X354770Y300401*
Y299620*
X354884Y299151*
X354997Y298839*
X355225Y298526*
X355452Y298370*
X355906*
X356134Y298526*
X356361Y298839*
X356475Y299151*
X653770Y305370D02*
X657770Y309370D01*
X653770Y313370*
X649770Y309370*
X653770Y305370*
Y309370D02*
Y313370D01*
X650870Y321370D02*
X658870D01*
X654870Y317370D02*
Y325370D01*
X658575Y325870D02*
X658461Y326183D01*
X658461D02*
X658234Y326495D01*
X658006Y326651*
X657552*
X657325Y326495*
X657097Y326183*
X657097D02*
X656984Y325870D01*
X656870Y325401*
Y324620*
X656984Y324151*
X657097Y323839*
X657325Y323526*
X657552Y323370*
X658006*
X658234Y323526*
X658461Y323839*
X658575Y324151*
X638801Y291770D02*
X642801Y295770D01*
X638801Y299770*
X634801Y295770*
X638801Y291770*
Y295770D02*
Y299770D01*
X677470Y285370D02*
X681470Y289370D01*
X677470Y293370*
X673470Y289370*
X677470Y285370*
Y289370D02*
Y293370D01*
X741870Y304470D02*
X745870Y308470D01*
X741870Y312470*
X737870Y308470*
X741870Y304470*
Y308470D02*
Y312470D01*
X207070Y334570D02*
X211070Y338570D01*
X207070Y342570*
X203070Y338570*
X207070Y334570*
Y338570D02*
Y342570D01*
X268470Y351170D02*
X272470Y355170D01*
X268470Y359170*
X264470Y355170*
X268470Y351170*
Y355170D02*
Y359170D01*
X258970Y359370D02*
X266970D01*
X262970Y355370D02*
Y363370D01*
X266675Y363870D02*
X266561Y364183D01*
X266561D02*
X266334Y364495D01*
X266106Y364651*
X265652*
X265425Y364495*
X265197Y364183*
X265197D02*
X265084Y363870D01*
X264970Y363401*
Y362620*
X265084Y362151*
X265197Y361839*
X265425Y361526*
X265652Y361370*
X266106*
X266334Y361526*
X266561Y361839*
X266675Y362151*
X254970Y355370D02*
X262970D01*
X258970Y351370D02*
Y359370D01*
X262675Y359870D02*
X262561Y360183D01*
X262561D02*
X262334Y360495D01*
X262106Y360651*
X261652*
X261425Y360495*
X261197Y360183*
X261197D02*
X261084Y359870D01*
X260970Y359401*
Y358620*
X261084Y358151*
X261197Y357839*
X261425Y357526*
X261652Y357370*
X262106*
X262334Y357526*
X262561Y357839*
X262675Y358151*
X250970Y359370D02*
X258970D01*
X254970Y355370D02*
Y363370D01*
X258675Y363870D02*
X258561Y364183D01*
X258561D02*
X258334Y364495D01*
X258106Y364651*
X257652*
X257425Y364495*
X257197Y364183*
X257197D02*
X257084Y363870D01*
X256970Y363401*
Y362620*
X257084Y362151*
X257197Y361839*
X257425Y361526*
X257652Y361370*
X258106*
X258334Y361526*
X258561Y361839*
X258675Y362151*
X246970Y355370D02*
X254970D01*
X250970Y351370D02*
Y359370D01*
X254675Y359870D02*
X254561Y360183D01*
X254561D02*
X254334Y360495D01*
X254106Y360651*
X253652*
X253425Y360495*
X253197Y360183*
X253197D02*
X253084Y359870D01*
X252970Y359401*
Y358620*
X253084Y358151*
X253197Y357839*
X253425Y357526*
X253652Y357370*
X254106*
X254334Y357526*
X254561Y357839*
X254675Y358151*
X242970Y359370D02*
X250970D01*
X246970Y355370D02*
Y363370D01*
X250675Y363870D02*
X250561Y364183D01*
X250561D02*
X250334Y364495D01*
X250106Y364651*
X249652*
X249425Y364495*
X249197Y364183*
X249197D02*
X249084Y363870D01*
X248970Y363401*
Y362620*
X249084Y362151*
X249197Y361839*
X249425Y361526*
X249652Y361370*
X250106*
X250334Y361526*
X250561Y361839*
X250675Y362151*
X238970Y355370D02*
X246970D01*
X242970Y351370D02*
Y359370D01*
X246675Y359870D02*
X246561Y360183D01*
X246561D02*
X246334Y360495D01*
X246106Y360651*
X245652*
X245425Y360495*
X245197Y360183*
X245197D02*
X245084Y359870D01*
X244970Y359401*
Y358620*
X245084Y358151*
X245197Y357839*
X245425Y357526*
X245652Y357370*
X246106*
X246334Y357526*
X246561Y357839*
X246675Y358151*
X234970Y359370D02*
X242970D01*
X238970Y355370D02*
Y363370D01*
X242675Y363870D02*
X242561Y364183D01*
X242561D02*
X242334Y364495D01*
X242106Y364651*
X241652*
X241425Y364495*
X241197Y364183*
X241197D02*
X241084Y363870D01*
X240970Y363401*
Y362620*
X241084Y362151*
X241197Y361839*
X241425Y361526*
X241652Y361370*
X242106*
X242334Y361526*
X242561Y361839*
X242675Y362151*
X247670Y334570D02*
X251670Y338570D01*
X247670Y342570*
X243670Y338570*
X247670Y334570*
Y338570D02*
Y342570D01*
X266470Y338170D02*
X270470Y342170D01*
X266470Y346170*
X262470Y342170*
X266470Y338170*
Y342170D02*
Y346170D01*
X273370Y364870D02*
X281370D01*
X277370Y360870D02*
Y368870D01*
X281075Y369370D02*
X280961Y369683D01*
X280961D02*
X280734Y369995D01*
X280506Y370151*
X280052*
X279825Y369995*
X279597Y369683*
X279597D02*
X279484Y369370D01*
X279370Y368901*
Y368120*
X279484Y367651*
X279597Y367339*
X279825Y367026*
X280052Y366870*
X280506*
X280734Y367026*
X280961Y367339*
X281075Y367651*
X277370Y360870D02*
X285370D01*
X281370Y356870D02*
Y364870D01*
X285075Y365370D02*
X284961Y365683D01*
X284961D02*
X284734Y365995D01*
X284506Y366151*
X284052*
X283825Y365995*
X283597Y365683*
X283597D02*
X283484Y365370D01*
X283370Y364901*
Y364120*
X283484Y363651*
X283597Y363339*
X283825Y363026*
X284052Y362870*
X284506*
X284734Y363026*
X284961Y363339*
X285075Y363651*
X281370Y356070D02*
X289370D01*
X285370Y352070D02*
Y360070D01*
X289075Y360570D02*
X288961Y360883D01*
X288961D02*
X288734Y361195D01*
X288506Y361351*
X288052*
X287825Y361195*
X287597Y360883*
X287597D02*
X287484Y360570D01*
X287370Y360101*
Y359320*
X287484Y358851*
X287597Y358539*
X287825Y358226*
X288052Y358070*
X288506*
X288734Y358226*
X288961Y358539*
X289075Y358851*
X285370Y352070D02*
X293370D01*
X289370Y348070D02*
Y356070D01*
X293075Y356570D02*
X292961Y356883D01*
X292961D02*
X292734Y357195D01*
X292506Y357351*
X292052*
X291825Y357195*
X291597Y356883*
X291597D02*
X291484Y356570D01*
X291370Y356101*
Y355320*
X291484Y354851*
X291597Y354539*
X291825Y354226*
X292052Y354070*
X292506*
X292734Y354226*
X292961Y354539*
X293075Y354851*
X289370Y356070D02*
X297370D01*
X293370Y352070D02*
Y360070D01*
X297075Y360570D02*
X296961Y360883D01*
X296961D02*
X296734Y361195D01*
X296506Y361351*
X296052*
X295825Y361195*
X295597Y360883*
X295597D02*
X295484Y360570D01*
X295370Y360101*
Y359320*
X295484Y358851*
X295597Y358539*
X295825Y358226*
X296052Y358070*
X296506*
X296734Y358226*
X296961Y358539*
X297075Y358851*
X293370Y352070D02*
X301370D01*
X297370Y348070D02*
Y356070D01*
X301075Y356570D02*
X300961Y356883D01*
X300961D02*
X300734Y357195D01*
X300506Y357351*
X300052*
X299825Y357195*
X299597Y356883*
X299597D02*
X299484Y356570D01*
X299370Y356101*
Y355320*
X299484Y354851*
X299597Y354539*
X299825Y354226*
X300052Y354070*
X300506*
X300734Y354226*
X300961Y354539*
X301075Y354851*
X297370Y356070D02*
X305370D01*
X301370Y352070D02*
Y360070D01*
X305075Y360570D02*
X304961Y360883D01*
X304961D02*
X304734Y361195D01*
X304506Y361351*
X304052*
X303825Y361195*
X303597Y360883*
X303597D02*
X303484Y360570D01*
X303370Y360101*
Y359320*
X303484Y358851*
X303597Y358539*
X303825Y358226*
X304052Y358070*
X304506*
X304734Y358226*
X304961Y358539*
X305075Y358851*
X301370Y352070D02*
X309370D01*
X305370Y348070D02*
Y356070D01*
X309075Y356570D02*
X308961Y356883D01*
X308961D02*
X308734Y357195D01*
X308506Y357351*
X308052*
X307825Y357195*
X307597Y356883*
X307597D02*
X307484Y356570D01*
X307370Y356101*
Y355320*
X307484Y354851*
X307597Y354539*
X307825Y354226*
X308052Y354070*
X308506*
X308734Y354226*
X308961Y354539*
X309075Y354851*
X305370Y356070D02*
X313370D01*
X309370Y352070D02*
Y360070D01*
X313075Y360570D02*
X312961Y360883D01*
X312961D02*
X312734Y361195D01*
X312506Y361351*
X312052*
X311825Y361195*
X311597Y360883*
X311597D02*
X311484Y360570D01*
X311370Y360101*
Y359320*
X311484Y358851*
X311597Y358539*
X311825Y358226*
X312052Y358070*
X312506*
X312734Y358226*
X312961Y358539*
X313075Y358851*
X276970Y346870D02*
X284970D01*
X280970Y342870D02*
Y350870D01*
X284675Y351370D02*
X284561Y351683D01*
X284561D02*
X284334Y351995D01*
X284106Y352151*
X283652*
X283425Y351995*
X283197Y351683*
X283197D02*
X283084Y351370D01*
X282970Y350901*
Y350120*
X283084Y349651*
X283197Y349339*
X283425Y349026*
X283652Y348870*
X284106*
X284334Y349026*
X284561Y349339*
X284675Y349651*
X277370Y351370D02*
X285370D01*
X281370Y347370D02*
Y355370D01*
X285075Y355870D02*
X284961Y356183D01*
X284961D02*
X284734Y356495D01*
X284506Y356651*
X284052*
X283825Y356495*
X283597Y356183*
X283597D02*
X283484Y355870D01*
X283370Y355401*
Y354620*
X283484Y354151*
X283597Y353839*
X283825Y353526*
X284052Y353370*
X284506*
X284734Y353526*
X284961Y353839*
X285075Y354151*
X309370Y352070D02*
X317370D01*
X313370Y348070D02*
Y356070D01*
X317075Y356570D02*
X316961Y356883D01*
X316961D02*
X316734Y357195D01*
X316506Y357351*
X316052*
X315825Y357195*
X315597Y356883*
X315597D02*
X315484Y356570D01*
X315370Y356101*
Y355320*
X315484Y354851*
X315597Y354539*
X315825Y354226*
X316052Y354070*
X316506*
X316734Y354226*
X316961Y354539*
X317075Y354851*
X313370Y356070D02*
X321370D01*
X317370Y352070D02*
Y360070D01*
X321075Y360570D02*
X320961Y360883D01*
X320961D02*
X320734Y361195D01*
X320506Y361351*
X320052*
X319825Y361195*
X319597Y360883*
X319597D02*
X319484Y360570D01*
X319370Y360101*
Y359320*
X319484Y358851*
X319597Y358539*
X319825Y358226*
X320052Y358070*
X320506*
X320734Y358226*
X320961Y358539*
X321075Y358851*
X317370Y352070D02*
X325370D01*
X321370Y348070D02*
Y356070D01*
X325075Y356570D02*
X324961Y356883D01*
X324961D02*
X324734Y357195D01*
X324506Y357351*
X324052*
X323825Y357195*
X323597Y356883*
X323597D02*
X323484Y356570D01*
X323370Y356101*
Y355320*
X323484Y354851*
X323597Y354539*
X323825Y354226*
X324052Y354070*
X324506*
X324734Y354226*
X324961Y354539*
X325075Y354851*
X321370Y356070D02*
X329370D01*
X325370Y352070D02*
Y360070D01*
X329075Y360570D02*
X328961Y360883D01*
X328961D02*
X328734Y361195D01*
X328506Y361351*
X328052*
X327825Y361195*
X327597Y360883*
X327597D02*
X327484Y360570D01*
X327370Y360101*
Y359320*
X327484Y358851*
X327597Y358539*
X327825Y358226*
X328052Y358070*
X328506*
X328734Y358226*
X328961Y358539*
X329075Y358851*
X429370Y358370D02*
X433370Y362370D01*
X429370Y366370*
X425370Y362370*
X429370Y358370*
Y362370D02*
Y366370D01*
X404370Y358370D02*
X408370Y362370D01*
X404370Y366370*
X400370Y362370*
X404370Y358370*
Y362370D02*
Y366370D01*
X454370Y358370D02*
X458370Y362370D01*
X454370Y366370*
X450370Y362370*
X454370Y358370*
Y362370D02*
Y366370D01*
X479370Y358370D02*
X483370Y362370D01*
X479370Y366370*
X475370Y362370*
X479370Y358370*
Y362370D02*
Y366370D01*
X640970Y328070D02*
X644970Y332070D01*
X640970Y336070*
X636970Y332070*
X640970Y328070*
Y332070D02*
Y336070D01*
X704370Y325370D02*
X708370Y329370D01*
X704370Y333370*
X700370Y329370*
X704370Y325370*
Y329370D02*
Y333370D01*
Y350370D02*
X708370Y354370D01*
X704370Y358370*
X700370Y354370*
X704370Y350370*
Y354370D02*
Y358370D01*
X49370Y380370D02*
X53370Y384370D01*
X49370Y388370*
X45370Y384370*
X49370Y380370*
Y384370D02*
Y388370D01*
X88370Y370370D02*
X92370Y374370D01*
X88370Y378370*
X84370Y374370*
X88370Y370370*
Y374370D02*
Y378370D01*
X145270Y392670D02*
X153270D01*
X149270Y388670D02*
Y396670D01*
X152975Y397170D02*
X152861Y397483D01*
X152861D02*
X152634Y397795D01*
X152406Y397951*
X151952*
X151725Y397795*
X151497Y397483*
X151497D02*
X151384Y397170D01*
X151270Y396701*
Y395920*
X151384Y395451*
X151497Y395139*
X151725Y394826*
X151952Y394670*
X152406*
X152634Y394826*
X152861Y395139*
X152975Y395451*
X145470Y397670D02*
X153470D01*
X149470Y393670D02*
Y401670D01*
X153175Y402170D02*
X153061Y402483D01*
X153061D02*
X152834Y402795D01*
X152606Y402951*
X152152*
X151925Y402795*
X151697Y402483*
X151697D02*
X151584Y402170D01*
X151470Y401701*
Y400920*
X151584Y400451*
X151697Y400139*
X151925Y399826*
X152152Y399670*
X152606*
X152834Y399826*
X153061Y400139*
X153175Y400451*
X120570Y380970D02*
X124570Y384970D01*
X120570Y388970*
X116570Y384970*
X120570Y380970*
Y384970D02*
Y388970D01*
X180870Y371870D02*
X188870D01*
X184870Y367870D02*
Y375870D01*
X188575Y376370D02*
X188461Y376683D01*
X188461D02*
X188234Y376995D01*
X188006Y377151*
X187552*
X187325Y376995*
X187097Y376683*
X187097D02*
X186984Y376370D01*
X186870Y375901*
Y375120*
X186984Y374651*
X187097Y374339*
X187325Y374026*
X187552Y373870*
X188006*
X188234Y374026*
X188461Y374339*
X188575Y374651*
X184070Y390270D02*
X188070Y394270D01*
X184070Y398270*
X180070Y394270*
X184070Y390270*
Y394270D02*
Y398270D01*
X164170Y394270D02*
X172170D01*
X168170Y390270D02*
Y398270D01*
X171875Y398770D02*
X171761Y399083D01*
X171761D02*
X171534Y399395D01*
X171306Y399551*
X170852*
X170625Y399395*
X170397Y399083*
X170397D02*
X170284Y398770D01*
X170170Y398301*
Y397520*
X170284Y397051*
X170397Y396739*
X170625Y396426*
X170852Y396270*
X171306*
X171534Y396426*
X171761Y396739*
X171875Y397051*
X201370Y397370D02*
X205370Y401370D01*
X201370Y405370*
X197370Y401370*
X201370Y397370*
Y401370D02*
Y405370D01*
X209370Y390370D02*
X213370Y394370D01*
X209370Y398370*
X205370Y394370*
X209370Y390370*
Y394370D02*
Y398370D01*
X194370Y390370D02*
X198370Y394370D01*
X194370Y398370*
X190370Y394370*
X194370Y390370*
Y394370D02*
Y398370D01*
X224270Y404270D02*
X232270D01*
X228270Y400270D02*
Y408270D01*
X231975Y408770D02*
X231861Y409083D01*
X231861D02*
X231634Y409395D01*
X231406Y409551*
X230952*
X230725Y409395*
X230497Y409083*
X230497D02*
X230384Y408770D01*
X230270Y408301*
Y407520*
X230384Y407051*
X230497Y406739*
X230725Y406426*
X230952Y406270*
X231406*
X231634Y406426*
X231861Y406739*
X231975Y407051*
X206370Y404270D02*
X214370D01*
X210370Y400270D02*
Y408270D01*
X214075Y408770D02*
X213961Y409083D01*
X213961D02*
X213734Y409395D01*
X213506Y409551*
X213052*
X212825Y409395*
X212597Y409083*
X212597D02*
X212484Y408770D01*
X212370Y408301*
Y407520*
X212484Y407051*
X212597Y406739*
X212825Y406426*
X213052Y406270*
X213506*
X213734Y406426*
X213961Y406739*
X214075Y407051*
X221270Y396270D02*
X229270D01*
X225270Y392270D02*
Y400270D01*
X228975Y400770D02*
X228861Y401083D01*
X228861D02*
X228634Y401395D01*
X228406Y401551*
X227952*
X227725Y401395*
X227497Y401083*
X227497D02*
X227384Y400770D01*
X227270Y400301*
Y399520*
X227384Y399051*
X227497Y398739*
X227725Y398426*
X227952Y398270*
X228406*
X228634Y398426*
X228861Y398739*
X228975Y399051*
X224070Y369270D02*
X232070D01*
X228070Y365270D02*
Y373270D01*
X231775Y373770D02*
X231661Y374083D01*
X231661D02*
X231434Y374395D01*
X231206Y374551*
X230752*
X230525Y374395*
X230297Y374083*
X230297D02*
X230184Y373770D01*
X230070Y373301*
Y372520*
X230184Y372051*
X230297Y371739*
X230525Y371426*
X230752Y371270*
X231206*
X231434Y371426*
X231661Y371739*
X231775Y372051*
X220070Y373270D02*
X228070D01*
X224070Y369270D02*
Y377270D01*
X227775Y377770D02*
X227661Y378083D01*
X227661D02*
X227434Y378395D01*
X227206Y378551*
X226752*
X226525Y378395*
X226297Y378083*
X226297D02*
X226184Y377770D01*
X226070Y377301*
Y376520*
X226184Y376051*
X226297Y375739*
X226525Y375426*
X226752Y375270*
X227206*
X227434Y375426*
X227661Y375739*
X227775Y376051*
X224070Y377270D02*
X232070D01*
X228070Y373270D02*
Y381270D01*
X231775Y381770D02*
X231661Y382083D01*
X231661D02*
X231434Y382395D01*
X231206Y382551*
X230752*
X230525Y382395*
X230297Y382083*
X230297D02*
X230184Y381770D01*
X230070Y381301*
Y380520*
X230184Y380051*
X230297Y379739*
X230525Y379426*
X230752Y379270*
X231206*
X231434Y379426*
X231661Y379739*
X231775Y380051*
X220070Y381270D02*
X228070D01*
X224070Y377270D02*
Y385270D01*
X227775Y385770D02*
X227661Y386083D01*
X227661D02*
X227434Y386395D01*
X227206Y386551*
X226752*
X226525Y386395*
X226297Y386083*
X226297D02*
X226184Y385770D01*
X226070Y385301*
Y384520*
X226184Y384051*
X226297Y383739*
X226525Y383426*
X226752Y383270*
X227206*
X227434Y383426*
X227661Y383739*
X227775Y384051*
X204470Y362470D02*
X208470Y366470D01*
X204470Y370470*
X200470Y366470*
X204470Y362470*
Y366470D02*
Y370470D01*
X190870Y363270D02*
X194870Y367270D01*
X190870Y371270*
X186870Y367270*
X190870Y363270*
Y367270D02*
Y371270D01*
X227270Y398270D02*
X235270D01*
X231270Y394270D02*
Y402270D01*
X234975Y402770D02*
X234861Y403083D01*
X234861D02*
X234634Y403395D01*
X234406Y403551*
X233952*
X233725Y403395*
X233497Y403083*
X233497D02*
X233384Y402770D01*
X233270Y402301*
Y401520*
X233384Y401051*
X233497Y400739*
X233725Y400426*
X233952Y400270*
X234406*
X234634Y400426*
X234861Y400739*
X234975Y401051*
X269470Y368870D02*
X277470D01*
X273470Y364870D02*
Y372870D01*
X277175Y373370D02*
X277061Y373683D01*
X277061D02*
X276834Y373995D01*
X276606Y374151*
X276152*
X275925Y373995*
X275697Y373683*
X275697D02*
X275584Y373370D01*
X275470Y372901*
Y372120*
X275584Y371651*
X275697Y371339*
X275925Y371026*
X276152Y370870*
X276606*
X276834Y371026*
X277061Y371339*
X277175Y371651*
X278070Y385670D02*
X282070Y389670D01*
X278070Y393670*
X274070Y389670*
X278070Y385670*
Y389670D02*
Y393670D01*
X271270Y389070D02*
X275270Y393070D01*
X271270Y397070*
X267270Y393070*
X271270Y389070*
Y393070D02*
Y397070D01*
X335370Y395370D02*
X339370Y399370D01*
X335370Y403370*
X331370Y399370*
X335370Y395370*
Y399370D02*
Y403370D01*
X366370Y374370D02*
X370370Y378370D01*
X366370Y382370*
X362370Y378370*
X366370Y374370*
Y378370D02*
Y382370D01*
X363370Y393370D02*
X367370Y397370D01*
X363370Y401370*
X359370Y397370*
X363370Y393370*
Y397370D02*
Y401370D01*
Y383370D02*
X367370Y387370D01*
X363370Y391370*
X359370Y387370*
X363370Y383370*
Y387370D02*
Y391370D01*
X377370Y374370D02*
X381370Y378370D01*
X377370Y382370*
X373370Y378370*
X377370Y374370*
Y378370D02*
Y382370D01*
X429370Y370370D02*
X433370Y374370D01*
X429370Y378370*
X425370Y374370*
X429370Y370370*
Y374370D02*
Y378370D01*
X404370Y370370D02*
X408370Y374370D01*
X404370Y378370*
X400370Y374370*
X404370Y370370*
Y374370D02*
Y378370D01*
X454370Y370370D02*
X458370Y374370D01*
X454370Y378370*
X450370Y374370*
X454370Y370370*
Y374370D02*
Y378370D01*
X504370Y370370D02*
X508370Y374370D01*
X504370Y378370*
X500370Y374370*
X504370Y370370*
Y374370D02*
Y378370D01*
X479370Y370370D02*
X483370Y374370D01*
X479370Y378370*
X475370Y374370*
X479370Y370370*
Y374370D02*
Y378370D01*
X529370Y370370D02*
X533370Y374370D01*
X529370Y378370*
X525370Y374370*
X529370Y370370*
Y374370D02*
Y378370D01*
X579370Y370370D02*
X583370Y374370D01*
X579370Y378370*
X575370Y374370*
X579370Y370370*
Y374370D02*
Y378370D01*
X554370Y370370D02*
X558370Y374370D01*
X554370Y378370*
X550370Y374370*
X554370Y370370*
Y374370D02*
Y378370D01*
X629370Y370370D02*
X633370Y374370D01*
X629370Y378370*
X625370Y374370*
X629370Y370370*
Y374370D02*
Y378370D01*
X604370Y370370D02*
X608370Y374370D01*
X604370Y378370*
X600370Y374370*
X604370Y370370*
Y374370D02*
Y378370D01*
X654370Y370370D02*
X658370Y374370D01*
X654370Y378370*
X650370Y374370*
X654370Y370370*
Y374370D02*
Y378370D01*
X704370Y370370D02*
X708370Y374370D01*
X704370Y378370*
X700370Y374370*
X704370Y370370*
Y374370D02*
Y378370D01*
X679370Y370370D02*
X683370Y374370D01*
X679370Y378370*
X675370Y374370*
X679370Y370370*
Y374370D02*
Y378370D01*
X49370Y405370D02*
X53370Y409370D01*
X49370Y413370*
X45370Y409370*
X49370Y405370*
Y409370D02*
Y413370D01*
Y430370D02*
X53370Y434370D01*
X49370Y438370*
X45370Y434370*
X49370Y430370*
Y434370D02*
Y438370D01*
X144970Y433270D02*
X152970D01*
X148970Y429270D02*
Y437270D01*
X152675Y437770D02*
X152561Y438083D01*
X152561D02*
X152334Y438395D01*
X152106Y438551*
X151652*
X151425Y438395*
X151197Y438083*
X151197D02*
X151084Y437770D01*
X150970Y437301*
Y436520*
X151084Y436051*
X151197Y435739*
X151425Y435426*
X151652Y435270*
X152106*
X152334Y435426*
X152561Y435739*
X152675Y436051*
X168470Y432270D02*
X176470D01*
X172470Y428270D02*
Y436270D01*
X176175Y436770D02*
X176061Y437083D01*
X176061D02*
X175834Y437395D01*
X175606Y437551*
X175152*
X174925Y437395*
X174697Y437083*
X174697D02*
X174584Y436770D01*
X174470Y436301*
Y435520*
X174584Y435051*
X174697Y434739*
X174925Y434426*
X175152Y434270*
X175606*
X175834Y434426*
X176061Y434739*
X176175Y435051*
X185470Y416270D02*
X193470D01*
X189470Y412270D02*
Y420270D01*
X193175Y420770D02*
X193061Y421083D01*
X193061D02*
X192834Y421395D01*
X192606Y421551*
X192152*
X191925Y421395*
X191697Y421083*
X191697D02*
X191584Y420770D01*
X191470Y420301*
Y419520*
X191584Y419051*
X191697Y418739*
X191925Y418426*
X192152Y418270*
X192606*
X192834Y418426*
X193061Y418739*
X193175Y419051*
X181470Y420270D02*
X189470D01*
X185470Y416270D02*
Y424270D01*
X189175Y424770D02*
X189061Y425083D01*
X189061D02*
X188834Y425395D01*
X188606Y425551*
X188152*
X187925Y425395*
X187697Y425083*
X187697D02*
X187584Y424770D01*
X187470Y424301*
Y423520*
X187584Y423051*
X187697Y422739*
X187925Y422426*
X188152Y422270*
X188606*
X188834Y422426*
X189061Y422739*
X189175Y423051*
X177470Y424270D02*
X185470D01*
X181470Y420270D02*
Y428270D01*
X185175Y428770D02*
X185061Y429083D01*
X185061D02*
X184834Y429395D01*
X184606Y429551*
X184152*
X183925Y429395*
X183697Y429083*
X183697D02*
X183584Y428770D01*
X183470Y428301*
Y427520*
X183584Y427051*
X183697Y426739*
X183925Y426426*
X184152Y426270*
X184606*
X184834Y426426*
X185061Y426739*
X185175Y427051*
X173470Y428270D02*
X181470D01*
X177470Y424270D02*
Y432270D01*
X181175Y432770D02*
X181061Y433083D01*
X181061D02*
X180834Y433395D01*
X180606Y433551*
X180152*
X179925Y433395*
X179697Y433083*
X179697D02*
X179584Y432770D01*
X179470Y432301*
Y431520*
X179584Y431051*
X179697Y430739*
X179925Y430426*
X180152Y430270*
X180606*
X180834Y430426*
X181061Y430739*
X181175Y431051*
X152870Y426570D02*
X160870D01*
X156870Y422570D02*
Y430570D01*
X160575Y431070D02*
X160461Y431383D01*
X160461D02*
X160234Y431695D01*
X160006Y431851*
X159552*
X159325Y431695*
X159097Y431383*
X159097D02*
X158984Y431070D01*
X158870Y430601*
Y429820*
X158984Y429351*
X159097Y429039*
X159325Y428726*
X159552Y428570*
X160006*
X160234Y428726*
X160461Y429039*
X160575Y429351*
X148870Y422570D02*
X156870D01*
X152870Y418570D02*
Y426570D01*
X156575Y427070D02*
X156461Y427383D01*
X156461D02*
X156234Y427695D01*
X156006Y427851*
X155552*
X155325Y427695*
X155097Y427383*
X155097D02*
X154984Y427070D01*
X154870Y426601*
Y425820*
X154984Y425351*
X155097Y425039*
X155325Y424726*
X155552Y424570*
X156006*
X156234Y424726*
X156461Y425039*
X156575Y425351*
X164170Y419770D02*
X172170D01*
X168170Y415770D02*
Y423770D01*
X171875Y424270D02*
X171761Y424583D01*
X171761D02*
X171534Y424895D01*
X171306Y425051*
X170852*
X170625Y424895*
X170397Y424583*
X170397D02*
X170284Y424270D01*
X170170Y423801*
Y423020*
X170284Y422551*
X170397Y422239*
X170625Y421926*
X170852Y421770*
X171306*
X171534Y421926*
X171761Y422239*
X171875Y422551*
X224270Y420270D02*
X232270D01*
X228270Y416270D02*
Y424270D01*
X231975Y424770D02*
X231861Y425083D01*
X231861D02*
X231634Y425395D01*
X231406Y425551*
X230952*
X230725Y425395*
X230497Y425083*
X230497D02*
X230384Y424770D01*
X230270Y424301*
Y423520*
X230384Y423051*
X230497Y422739*
X230725Y422426*
X230952Y422270*
X231406*
X231634Y422426*
X231861Y422739*
X231975Y423051*
X224270Y428270D02*
X232270D01*
X228270Y424270D02*
Y432270D01*
X231975Y432770D02*
X231861Y433083D01*
X231861D02*
X231634Y433395D01*
X231406Y433551*
X230952*
X230725Y433395*
X230497Y433083*
X230497D02*
X230384Y432770D01*
X230270Y432301*
Y431520*
X230384Y431051*
X230497Y430739*
X230725Y430426*
X230952Y430270*
X231406*
X231634Y430426*
X231861Y430739*
X231975Y431051*
X189370Y437670D02*
X197370D01*
X193370Y433670D02*
Y441670D01*
X197075Y442170D02*
X196961Y442483D01*
X196961D02*
X196734Y442795D01*
X196506Y442951*
X196052*
X195825Y442795*
X195597Y442483*
X195597D02*
X195484Y442170D01*
X195370Y441701*
Y440920*
X195484Y440451*
X195597Y440139*
X195825Y439826*
X196052Y439670*
X196506*
X196734Y439826*
X196961Y440139*
X197075Y440451*
X196670Y435570D02*
X204670D01*
X200670Y431570D02*
Y439570D01*
X204375Y440070D02*
X204261Y440383D01*
X204261D02*
X204034Y440695D01*
X203806Y440851*
X203352*
X203125Y440695*
X202897Y440383*
X202897D02*
X202784Y440070D01*
X202670Y439601*
Y438820*
X202784Y438351*
X202897Y438039*
X203125Y437726*
X203352Y437570*
X203806*
X204034Y437726*
X204261Y438039*
X204375Y438351*
X202370Y408270D02*
X210370D01*
X206370Y404270D02*
Y412270D01*
X210075Y412770D02*
X209961Y413083D01*
X209961D02*
X209734Y413395D01*
X209506Y413551*
X209052*
X208825Y413395*
X208597Y413083*
X208597D02*
X208484Y412770D01*
X208370Y412301*
Y411520*
X208484Y411051*
X208597Y410739*
X208825Y410426*
X209052Y410270*
X209506*
X209734Y410426*
X209961Y410739*
X210075Y411051*
X224270Y412270D02*
X232270D01*
X228270Y408270D02*
Y416270D01*
X231975Y416770D02*
X231861Y417083D01*
X231861D02*
X231634Y417395D01*
X231406Y417551*
X230952*
X230725Y417395*
X230497Y417083*
X230497D02*
X230384Y416770D01*
X230270Y416301*
Y415520*
X230384Y415051*
X230497Y414739*
X230725Y414426*
X230952Y414270*
X231406*
X231634Y414426*
X231861Y414739*
X231975Y415051*
X198370Y412270D02*
X206370D01*
X202370Y408270D02*
Y416270D01*
X206075Y416770D02*
X205961Y417083D01*
X205961D02*
X205734Y417395D01*
X205506Y417551*
X205052*
X204825Y417395*
X204597Y417083*
X204597D02*
X204484Y416770D01*
X204370Y416301*
Y415520*
X204484Y415051*
X204597Y414739*
X204825Y414426*
X205052Y414270*
X205506*
X205734Y414426*
X205961Y414739*
X206075Y415051*
X226270Y432270D02*
X234270D01*
X230270Y428270D02*
Y436270D01*
X233975Y436770D02*
X233861Y437083D01*
X233861D02*
X233634Y437395D01*
X233406Y437551*
X232952*
X232725Y437395*
X232497Y437083*
X232497D02*
X232384Y436770D01*
X232270Y436301*
Y435520*
X232384Y435051*
X232497Y434739*
X232725Y434426*
X232952Y434270*
X233406*
X233634Y434426*
X233861Y434739*
X233975Y435051*
X228270Y416270D02*
X236270D01*
X232270Y412270D02*
Y420270D01*
X235975Y420770D02*
X235861Y421083D01*
X235861D02*
X235634Y421395D01*
X235406Y421551*
X234952*
X234725Y421395*
X234497Y421083*
X234497D02*
X234384Y420770D01*
X234270Y420301*
Y419520*
X234384Y419051*
X234497Y418739*
X234725Y418426*
X234952Y418270*
X235406*
X235634Y418426*
X235861Y418739*
X235975Y419051*
X228270Y424270D02*
X236270D01*
X232270Y420270D02*
Y428270D01*
X235975Y428770D02*
X235861Y429083D01*
X235861D02*
X235634Y429395D01*
X235406Y429551*
X234952*
X234725Y429395*
X234497Y429083*
X234497D02*
X234384Y428770D01*
X234270Y428301*
Y427520*
X234384Y427051*
X234497Y426739*
X234725Y426426*
X234952Y426270*
X235406*
X235634Y426426*
X235861Y426739*
X235975Y427051*
X228270Y408270D02*
X236270D01*
X232270Y404270D02*
Y412270D01*
X235975Y412770D02*
X235861Y413083D01*
X235861D02*
X235634Y413395D01*
X235406Y413551*
X234952*
X234725Y413395*
X234497Y413083*
X234497D02*
X234384Y412770D01*
X234270Y412301*
Y411520*
X234384Y411051*
X234497Y410739*
X234725Y410426*
X234952Y410270*
X235406*
X235634Y410426*
X235861Y410739*
X235975Y411051*
X283370Y438370D02*
X287370Y442370D01*
X283370Y446370*
X279370Y442370*
X283370Y438370*
Y442370D02*
Y446370D01*
X283570Y427870D02*
X287570Y431870D01*
X283570Y435870*
X279570Y431870*
X283570Y427870*
Y431870D02*
Y435870D01*
X276170Y439870D02*
X280170Y443870D01*
X276170Y447870*
X272170Y443870*
X276170Y439870*
Y443870D02*
Y447870D01*
X271270Y429070D02*
X275270Y433070D01*
X271270Y437070*
X267270Y433070*
X271270Y429070*
Y433070D02*
Y437070D01*
X335370Y410370D02*
X339370Y414370D01*
X335370Y418370*
X331370Y414370*
X335370Y410370*
Y414370D02*
Y418370D01*
X320370Y410370D02*
X324370Y414370D01*
X320370Y418370*
X316370Y414370*
X320370Y410370*
Y414370D02*
Y418370D01*
X322170Y423570D02*
X326170Y427570D01*
X322170Y431570*
X318170Y427570*
X322170Y423570*
Y427570D02*
Y431570D01*
X363370Y410370D02*
X367370Y414370D01*
X363370Y418370*
X359370Y414370*
X363370Y410370*
Y414370D02*
Y418370D01*
X49370Y455370D02*
X53370Y459370D01*
X49370Y463370*
X45370Y459370*
X49370Y455370*
Y459370D02*
Y463370D01*
Y480370D02*
X53370Y484370D01*
X49370Y488370*
X45370Y484370*
X49370Y480370*
Y484370D02*
Y488370D01*
X109370Y480370D02*
X113370Y484370D01*
X109370Y488370*
X105370Y484370*
X109370Y480370*
Y484370D02*
Y488370D01*
Y455370D02*
X113370Y459370D01*
X109370Y463370*
X105370Y459370*
X109370Y455370*
Y459370D02*
Y463370D01*
X132870Y452170D02*
X140870D01*
X136870Y448170D02*
Y456170D01*
X140575Y456670D02*
X140461Y456983D01*
X140461D02*
X140234Y457295D01*
X140006Y457451*
X139552*
X139325Y457295*
X139097Y456983*
X139097D02*
X138984Y456670D01*
X138870Y456201*
Y455420*
X138984Y454951*
X139097Y454639*
X139325Y454326*
X139552Y454170*
X140006*
X140234Y454326*
X140461Y454639*
X140575Y454951*
X120870Y448170D02*
X128870D01*
X124870Y444170D02*
Y452170D01*
X128575Y452670D02*
X128461Y452983D01*
X128461D02*
X128234Y453295D01*
X128006Y453451*
X127552*
X127325Y453295*
X127097Y452983*
X127097D02*
X126984Y452670D01*
X126870Y452201*
Y451420*
X126984Y450951*
X127097Y450639*
X127325Y450326*
X127552Y450170*
X128006*
X128234Y450326*
X128461Y450639*
X128575Y450951*
X124870Y452170D02*
X132870D01*
X128870Y448170D02*
Y456170D01*
X132575Y456670D02*
X132461Y456983D01*
X132461D02*
X132234Y457295D01*
X132006Y457451*
X131552*
X131325Y457295*
X131097Y456983*
X131097D02*
X130984Y456670D01*
X130870Y456201*
Y455420*
X130984Y454951*
X131097Y454639*
X131325Y454326*
X131552Y454170*
X132006*
X132234Y454326*
X132461Y454639*
X132575Y454951*
X136870Y448170D02*
X144870D01*
X140870Y444170D02*
Y452170D01*
X144575Y452670D02*
X144461Y452983D01*
X144461D02*
X144234Y453295D01*
X144006Y453451*
X143552*
X143325Y453295*
X143097Y452983*
X143097D02*
X142984Y452670D01*
X142870Y452201*
Y451420*
X142984Y450951*
X143097Y450639*
X143325Y450326*
X143552Y450170*
X144006*
X144234Y450326*
X144461Y450639*
X144575Y450951*
X128870Y448170D02*
X136870D01*
X132870Y444170D02*
Y452170D01*
X136575Y452670D02*
X136461Y452983D01*
X136461D02*
X136234Y453295D01*
X136006Y453451*
X135552*
X135325Y453295*
X135097Y452983*
X135097D02*
X134984Y452670D01*
X134870Y452201*
Y451420*
X134984Y450951*
X135097Y450639*
X135325Y450326*
X135552Y450170*
X136006*
X136234Y450326*
X136461Y450639*
X136575Y450951*
X140870Y452170D02*
X148870D01*
X144870Y448170D02*
Y456170D01*
X148575Y456670D02*
X148461Y456983D01*
X148461D02*
X148234Y457295D01*
X148006Y457451*
X147552*
X147325Y457295*
X147097Y456983*
X147097D02*
X146984Y456670D01*
X146870Y456201*
Y455420*
X146984Y454951*
X147097Y454639*
X147325Y454326*
X147552Y454170*
X148006*
X148234Y454326*
X148461Y454639*
X148575Y454951*
X153470Y468170D02*
X161470D01*
X157470Y464170D02*
Y472170D01*
X161175Y472670D02*
X161061Y472983D01*
X161061D02*
X160834Y473295D01*
X160606Y473451*
X160152*
X159925Y473295*
X159697Y472983*
X159697D02*
X159584Y472670D01*
X159470Y472201*
Y471420*
X159584Y470951*
X159697Y470639*
X159925Y470326*
X160152Y470170*
X160606*
X160834Y470326*
X161061Y470639*
X161175Y470951*
X157470Y464170D02*
X165470D01*
X161470Y460170D02*
Y468170D01*
X165175Y468670D02*
X165061Y468983D01*
X165061D02*
X164834Y469295D01*
X164606Y469451*
X164152*
X163925Y469295*
X163697Y468983*
X163697D02*
X163584Y468670D01*
X163470Y468201*
Y467420*
X163584Y466951*
X163697Y466639*
X163925Y466326*
X164152Y466170*
X164606*
X164834Y466326*
X165061Y466639*
X165175Y466951*
X184370Y467370D02*
X188370Y471370D01*
X184370Y475370*
X180370Y471370*
X184370Y467370*
Y471370D02*
Y475370D01*
Y477370D02*
X188370Y481370D01*
X184370Y485370*
X180370Y481370*
X184370Y477370*
Y481370D02*
Y485370D01*
X204370Y467370D02*
X208370Y471370D01*
X204370Y475370*
X200370Y471370*
X204370Y467370*
Y471370D02*
Y475370D01*
Y477370D02*
X208370Y481370D01*
X204370Y485370*
X200370Y481370*
X204370Y477370*
Y481370D02*
Y485370D01*
X194370Y477370D02*
X198370Y481370D01*
X194370Y485370*
X190370Y481370*
X194370Y477370*
Y481370D02*
Y485370D01*
Y467370D02*
X198370Y471370D01*
X194370Y475370*
X190370Y471370*
X194370Y467370*
Y471370D02*
Y475370D01*
X216470Y454170D02*
X220470Y458170D01*
X216470Y462170*
X212470Y458170*
X216470Y454170*
Y458170D02*
Y462170D01*
X258970Y447170D02*
X266970D01*
X262970Y443170D02*
Y451170D01*
X266675Y451670D02*
X266561Y451983D01*
X266561D02*
X266334Y452295D01*
X266106Y452451*
X265652*
X265425Y452295*
X265197Y451983*
X265197D02*
X265084Y451670D01*
X264970Y451201*
Y450420*
X265084Y449951*
X265197Y449639*
X265425Y449326*
X265652Y449170*
X266106*
X266334Y449326*
X266561Y449639*
X266675Y449951*
X242470Y458070D02*
X250470D01*
X246470Y454070D02*
Y462070D01*
X250175Y462570D02*
X250061Y462883D01*
X250061D02*
X249834Y463195D01*
X249606Y463351*
X249152*
X248925Y463195*
X248697Y462883*
X248697D02*
X248584Y462570D01*
X248470Y462101*
Y461320*
X248584Y460851*
X248697Y460539*
X248925Y460226*
X249152Y460070*
X249606*
X249834Y460226*
X250061Y460539*
X250175Y460851*
X242470Y466070D02*
X250470D01*
X246470Y462070D02*
Y470070D01*
X250175Y470570D02*
X250061Y470883D01*
X250061D02*
X249834Y471195D01*
X249606Y471351*
X249152*
X248925Y471195*
X248697Y470883*
X248697D02*
X248584Y470570D01*
X248470Y470101*
Y469320*
X248584Y468851*
X248697Y468539*
X248925Y468226*
X249152Y468070*
X249606*
X249834Y468226*
X250061Y468539*
X250175Y468851*
X238470Y462070D02*
X246470D01*
X242470Y458070D02*
Y466070D01*
X246175Y466570D02*
X246061Y466883D01*
X246061D02*
X245834Y467195D01*
X245606Y467351*
X245152*
X244925Y467195*
X244697Y466883*
X244697D02*
X244584Y466570D01*
X244470Y466101*
Y465320*
X244584Y464851*
X244697Y464539*
X244925Y464226*
X245152Y464070*
X245606*
X245834Y464226*
X246061Y464539*
X246175Y464851*
X237870Y454070D02*
X245870D01*
X241870Y450070D02*
Y458070D01*
X245575Y458570D02*
X245461Y458883D01*
X245461D02*
X245234Y459195D01*
X245006Y459351*
X244552*
X244325Y459195*
X244097Y458883*
X244097D02*
X243984Y458570D01*
X243870Y458101*
Y457320*
X243984Y456851*
X244097Y456539*
X244325Y456226*
X244552Y456070*
X245006*
X245234Y456226*
X245461Y456539*
X245575Y456851*
X242470Y474070D02*
X250470D01*
X246470Y470070D02*
Y478070D01*
X250175Y478570D02*
X250061Y478883D01*
X250061D02*
X249834Y479195D01*
X249606Y479351*
X249152*
X248925Y479195*
X248697Y478883*
X248697D02*
X248584Y478570D01*
X248470Y478101*
Y477320*
X248584Y476851*
X248697Y476539*
X248925Y476226*
X249152Y476070*
X249606*
X249834Y476226*
X250061Y476539*
X250175Y476851*
X238470Y470070D02*
X246470D01*
X242470Y466070D02*
Y474070D01*
X246175Y474570D02*
X246061Y474883D01*
X246061D02*
X245834Y475195D01*
X245606Y475351*
X245152*
X244925Y475195*
X244697Y474883*
X244697D02*
X244584Y474570D01*
X244470Y474101*
Y473320*
X244584Y472851*
X244697Y472539*
X244925Y472226*
X245152Y472070*
X245606*
X245834Y472226*
X246061Y472539*
X246175Y472851*
X250870Y477970D02*
X258870D01*
X254870Y473970D02*
Y481970D01*
X258575Y482470D02*
X258461Y482783D01*
X258461D02*
X258234Y483095D01*
X258006Y483251*
X257552*
X257325Y483095*
X257097Y482783*
X257097D02*
X256984Y482470D01*
X256870Y482001*
Y481220*
X256984Y480751*
X257097Y480439*
X257325Y480126*
X257552Y479970*
X258006*
X258234Y480126*
X258461Y480439*
X258575Y480751*
X282070Y458070D02*
X290070D01*
X286070Y454070D02*
Y462070D01*
X289775Y462570D02*
X289661Y462883D01*
X289661D02*
X289434Y463195D01*
X289206Y463351*
X288752*
X288525Y463195*
X288297Y462883*
X288297D02*
X288184Y462570D01*
X288070Y462101*
Y461320*
X288184Y460851*
X288297Y460539*
X288525Y460226*
X288752Y460070*
X289206*
X289434Y460226*
X289661Y460539*
X289775Y460851*
X296070Y466070D02*
X304070D01*
X300070Y462070D02*
Y470070D01*
X303775Y470570D02*
X303661Y470883D01*
X303661D02*
X303434Y471195D01*
X303206Y471351*
X302752*
X302525Y471195*
X302297Y470883*
X302297D02*
X302184Y470570D01*
X302070Y470101*
Y469320*
X302184Y468851*
X302297Y468539*
X302525Y468226*
X302752Y468070*
X303206*
X303434Y468226*
X303661Y468539*
X303775Y468851*
X292070Y462070D02*
X300070D01*
X296070Y458070D02*
Y466070D01*
X299775Y466570D02*
X299661Y466883D01*
X299661D02*
X299434Y467195D01*
X299206Y467351*
X298752*
X298525Y467195*
X298297Y466883*
X298297D02*
X298184Y466570D01*
X298070Y466101*
Y465320*
X298184Y464851*
X298297Y464539*
X298525Y464226*
X298752Y464070*
X299206*
X299434Y464226*
X299661Y464539*
X299775Y464851*
X307370Y466370D02*
X311370Y470370D01*
X307370Y474370*
X303370Y470370*
X307370Y466370*
Y470370D02*
Y474370D01*
X266970Y481870D02*
X274970D01*
X270970Y477870D02*
Y485870D01*
X274675Y486370D02*
X274561Y486683D01*
X274561D02*
X274334Y486995D01*
X274106Y487151*
X273652*
X273425Y486995*
X273197Y486683*
X273197D02*
X273084Y486370D01*
X272970Y485901*
Y485120*
X273084Y484651*
X273197Y484339*
X273425Y484026*
X273652Y483870*
X274106*
X274334Y484026*
X274561Y484339*
X274675Y484651*
X280770Y452770D02*
X288770D01*
X284770Y448770D02*
Y456770D01*
X288475Y457270D02*
X288361Y457583D01*
X288361D02*
X288134Y457895D01*
X287906Y458051*
X287452*
X287225Y457895*
X286997Y457583*
X286997D02*
X286884Y457270D01*
X286770Y456801*
Y456020*
X286884Y455551*
X286997Y455239*
X287225Y454926*
X287452Y454770*
X287906*
X288134Y454926*
X288361Y455239*
X288475Y455551*
X292070Y470070D02*
X300070D01*
X296070Y466070D02*
Y474070D01*
X299775Y474570D02*
X299661Y474883D01*
X299661D02*
X299434Y475195D01*
X299206Y475351*
X298752*
X298525Y475195*
X298297Y474883*
X298297D02*
X298184Y474570D01*
X298070Y474101*
Y473320*
X298184Y472851*
X298297Y472539*
X298525Y472226*
X298752Y472070*
X299206*
X299434Y472226*
X299661Y472539*
X299775Y472851*
X286070Y477970D02*
X294070D01*
X290070Y473970D02*
Y481970D01*
X293775Y482470D02*
X293661Y482783D01*
X293661D02*
X293434Y483095D01*
X293206Y483251*
X292752*
X292525Y483095*
X292297Y482783*
X292297D02*
X292184Y482470D01*
X292070Y482001*
Y481220*
X292184Y480751*
X292297Y480439*
X292525Y480126*
X292752Y479970*
X293206*
X293434Y480126*
X293661Y480439*
X293775Y480751*
X320670Y454070D02*
X324670Y458070D01*
X320670Y462070*
X316670Y458070*
X320670Y454070*
Y458070D02*
Y462070D01*
X343370Y465370D02*
X347370Y469370D01*
X343370Y473370*
X339370Y469370*
X343370Y465370*
Y469370D02*
Y473370D01*
X311370Y478370D02*
X315370Y482370D01*
X311370Y486370*
X307370Y482370*
X311370Y478370*
Y482370D02*
Y486370D01*
X362370Y441370D02*
X366370Y445370D01*
X362370Y449370*
X358370Y445370*
X362370Y441370*
Y445370D02*
Y449370D01*
Y456370D02*
X366370Y460370D01*
X362370Y464370*
X358370Y460370*
X362370Y456370*
Y460370D02*
Y464370D01*
Y472370D02*
X366370Y476370D01*
X362370Y480370*
X358370Y476370*
X362370Y472370*
Y476370D02*
Y480370D01*
X49370Y505370D02*
X53370Y509370D01*
X49370Y513370*
X45370Y509370*
X49370Y505370*
Y509370D02*
Y513370D01*
X109370Y495370D02*
X113370Y499370D01*
X109370Y503370*
X105370Y499370*
X109370Y495370*
Y499370D02*
Y503370D01*
Y515370D02*
X113370Y519370D01*
X109370Y523370*
X105370Y519370*
X109370Y515370*
Y519370D02*
Y523370D01*
X145270Y494570D02*
X153270D01*
X149270Y490570D02*
Y498570D01*
X152975Y499070D02*
X152861Y499383D01*
X152861D02*
X152634Y499695D01*
X152406Y499851*
X151952*
X151725Y499695*
X151497Y499383*
X151497D02*
X151384Y499070D01*
X151270Y498601*
Y497820*
X151384Y497351*
X151497Y497039*
X151725Y496726*
X151952Y496570*
X152406*
X152634Y496726*
X152861Y497039*
X152975Y497351*
X134370Y515770D02*
X142370D01*
X138370Y511770D02*
Y519770D01*
X142075Y520270D02*
X141961Y520583D01*
X141961D02*
X141734Y520895D01*
X141506Y521051*
X141052*
X140825Y520895*
X140597Y520583*
X140597D02*
X140484Y520270D01*
X140370Y519801*
Y519020*
X140484Y518551*
X140597Y518239*
X140825Y517926*
X141052Y517770*
X141506*
X141734Y517926*
X141961Y518239*
X142075Y518551*
X139370Y511770D02*
X147370D01*
X143370Y507770D02*
Y515770D01*
X147075Y516270D02*
X146961Y516583D01*
X146961D02*
X146734Y516895D01*
X146506Y517051*
X146052*
X145825Y516895*
X145597Y516583*
X145597D02*
X145484Y516270D01*
X145370Y515801*
Y515020*
X145484Y514551*
X145597Y514239*
X145825Y513926*
X146052Y513770*
X146506*
X146734Y513926*
X146961Y514239*
X147075Y514551*
X119370Y505370D02*
X123370Y509370D01*
X119370Y513370*
X115370Y509370*
X119370Y505370*
Y509370D02*
Y513370D01*
X137670Y487570D02*
X141670Y491570D01*
X137670Y495570*
X133670Y491570*
X137670Y487570*
Y491570D02*
Y495570D01*
X130670Y486570D02*
X134670Y490570D01*
X130670Y494570*
X126670Y490570*
X130670Y486570*
Y490570D02*
Y494570D01*
X153270D02*
X161270D01*
X157270Y490570D02*
Y498570D01*
X160975Y499070D02*
X160861Y499383D01*
X160861D02*
X160634Y499695D01*
X160406Y499851*
X159952*
X159725Y499695*
X159497Y499383*
X159497D02*
X159384Y499070D01*
X159270Y498601*
Y497820*
X159384Y497351*
X159497Y497039*
X159725Y496726*
X159952Y496570*
X160406*
X160634Y496726*
X160861Y497039*
X160975Y497351*
X149270Y490570D02*
X157270D01*
X153270Y486570D02*
Y494570D01*
X156975Y495070D02*
X156861Y495383D01*
X156861D02*
X156634Y495695D01*
X156406Y495851*
X155952*
X155725Y495695*
X155497Y495383*
X155497D02*
X155384Y495070D01*
X155270Y494601*
Y493820*
X155384Y493351*
X155497Y493039*
X155725Y492726*
X155952Y492570*
X156406*
X156634Y492726*
X156861Y493039*
X156975Y493351*
X156470Y515770D02*
X164470D01*
X160470Y511770D02*
Y519770D01*
X164175Y520270D02*
X164061Y520583D01*
X164061D02*
X163834Y520895D01*
X163606Y521051*
X163152*
X162925Y520895*
X162697Y520583*
X162697D02*
X162584Y520270D01*
X162470Y519801*
Y519020*
X162584Y518551*
X162697Y518239*
X162925Y517926*
X163152Y517770*
X163606*
X163834Y517926*
X164061Y518239*
X164175Y518551*
X152470Y511770D02*
X160470D01*
X156470Y507770D02*
Y515770D01*
X160175Y516270D02*
X160061Y516583D01*
X160061D02*
X159834Y516895D01*
X159606Y517051*
X159152*
X158925Y516895*
X158697Y516583*
X158697D02*
X158584Y516270D01*
X158470Y515801*
Y515020*
X158584Y514551*
X158697Y514239*
X158925Y513926*
X159152Y513770*
X159606*
X159834Y513926*
X160061Y514239*
X160175Y514551*
X184370Y487370D02*
X188370Y491370D01*
X184370Y495370*
X180370Y491370*
X184370Y487370*
Y491370D02*
Y495370D01*
X196870Y523570D02*
X204870D01*
X200870Y519570D02*
Y527570D01*
X204575Y528070D02*
X204461Y528383D01*
X204461D02*
X204234Y528695D01*
X204006Y528851*
X203552*
X203325Y528695*
X203097Y528383*
X203097D02*
X202984Y528070D01*
X202870Y527601*
Y526820*
X202984Y526351*
X203097Y526039*
X203325Y525726*
X203552Y525570*
X204006*
X204234Y525726*
X204461Y526039*
X204575Y526351*
X192870Y519570D02*
X200870D01*
X196870Y515570D02*
Y523570D01*
X200575Y524070D02*
X200461Y524383D01*
X200461D02*
X200234Y524695D01*
X200006Y524851*
X199552*
X199325Y524695*
X199097Y524383*
X199097D02*
X198984Y524070D01*
X198870Y523601*
Y522820*
X198984Y522351*
X199097Y522039*
X199325Y521726*
X199552Y521570*
X200006*
X200234Y521726*
X200461Y522039*
X200575Y522351*
X204370Y487370D02*
X208370Y491370D01*
X204370Y495370*
X200370Y491370*
X204370Y487370*
Y491370D02*
Y495370D01*
X194370Y487370D02*
X198370Y491370D01*
X194370Y495370*
X190370Y491370*
X194370Y487370*
Y491370D02*
Y495370D01*
X222770Y508770D02*
X230770D01*
X226770Y504770D02*
Y512770D01*
X230475Y513270D02*
X230361Y513583D01*
X230361D02*
X230134Y513895D01*
X229906Y514051*
X229452*
X229225Y513895*
X228997Y513583*
X228997D02*
X228884Y513270D01*
X228770Y512801*
Y512020*
X228884Y511551*
X228997Y511239*
X229225Y510926*
X229452Y510770*
X229906*
X230134Y510926*
X230361Y511239*
X230475Y511551*
X218770Y512770D02*
X226770D01*
X222770Y508770D02*
Y516770D01*
X226475Y517270D02*
X226361Y517583D01*
X226361D02*
X226134Y517895D01*
X225906Y518051*
X225452*
X225225Y517895*
X224997Y517583*
X224997D02*
X224884Y517270D01*
X224770Y516801*
Y516020*
X224884Y515551*
X224997Y515239*
X225225Y514926*
X225452Y514770*
X225906*
X226134Y514926*
X226361Y515239*
X226475Y515551*
X268770Y512570D02*
X272770Y516570D01*
X268770Y520570*
X264770Y516570*
X268770Y512570*
Y516570D02*
Y520570D01*
X226770Y504770D02*
X234770D01*
X230770Y500770D02*
Y508770D01*
X234475Y509270D02*
X234361Y509583D01*
X234361D02*
X234134Y509895D01*
X233906Y510051*
X233452*
X233225Y509895*
X232997Y509583*
X232997D02*
X232884Y509270D01*
X232770Y508801*
Y508020*
X232884Y507551*
X232997Y507239*
X233225Y506926*
X233452Y506770*
X233906*
X234134Y506926*
X234361Y507239*
X234475Y507551*
X238770Y492770D02*
X246770D01*
X242770Y488770D02*
Y496770D01*
X246475Y497270D02*
X246361Y497583D01*
X246361D02*
X246134Y497895D01*
X245906Y498051*
X245452*
X245225Y497895*
X244997Y497583*
X244997D02*
X244884Y497270D01*
X244770Y496801*
Y496020*
X244884Y495551*
X244997Y495239*
X245225Y494926*
X245452Y494770*
X245906*
X246134Y494926*
X246361Y495239*
X246475Y495551*
X234770Y496770D02*
X242770D01*
X238770Y492770D02*
Y500770D01*
X242475Y501270D02*
X242361Y501583D01*
X242361D02*
X242134Y501895D01*
X241906Y502051*
X241452*
X241225Y501895*
X240997Y501583*
X240997D02*
X240884Y501270D01*
X240770Y500801*
Y500020*
X240884Y499551*
X240997Y499239*
X241225Y498926*
X241452Y498770*
X241906*
X242134Y498926*
X242361Y499239*
X242475Y499551*
X230770Y500770D02*
X238770D01*
X234770Y496770D02*
Y504770D01*
X238475Y505270D02*
X238361Y505583D01*
X238361D02*
X238134Y505895D01*
X237906Y506051*
X237452*
X237225Y505895*
X236997Y505583*
X236997D02*
X236884Y505270D01*
X236770Y504801*
Y504020*
X236884Y503551*
X236997Y503239*
X237225Y502926*
X237452Y502770*
X237906*
X238134Y502926*
X238361Y503239*
X238475Y503551*
X253870Y513870D02*
X257870Y517870D01*
X253870Y521870*
X249870Y517870*
X253870Y513870*
Y517870D02*
Y521870D01*
X264670Y486870D02*
X268670Y490870D01*
X264670Y494870*
X260670Y490870*
X264670Y486870*
Y490870D02*
Y494870D01*
X349370Y490370D02*
X353370Y494370D01*
X349370Y498370*
X345370Y494370*
X349370Y490370*
Y494370D02*
Y498370D01*
Y505370D02*
X353370Y509370D01*
X349370Y513370*
X345370Y509370*
X349370Y505370*
Y509370D02*
Y513370D01*
X327570Y509370D02*
X331570Y513370D01*
X327570Y517370*
X323570Y513370*
X327570Y509370*
Y513370D02*
Y517370D01*
X326670Y499670D02*
X334670D01*
X330670Y495670D02*
Y503670D01*
X334375Y504170D02*
X334261Y504483D01*
X334261D02*
X334034Y504795D01*
X333806Y504951*
X333352*
X333125Y504795*
X332897Y504483*
X332897D02*
X332784Y504170D01*
X332670Y503701*
Y502920*
X332784Y502451*
X332897Y502139*
X333125Y501826*
X333352Y501670*
X333806*
X334034Y501826*
X334261Y502139*
X334375Y502451*
X311970Y503770D02*
X315970Y507770D01*
X311970Y511770*
X307970Y507770*
X311970Y503770*
Y507770D02*
Y511770D01*
X335770Y511970D02*
X339770Y515970D01*
X335770Y519970*
X331770Y515970*
X335770Y511970*
Y515970D02*
Y519970D01*
X49370Y530370D02*
X53370Y534370D01*
X49370Y538370*
X45370Y534370*
X49370Y530370*
Y534370D02*
Y538370D01*
Y555370D02*
X53370Y559370D01*
X49370Y563370*
X45370Y559370*
X49370Y555370*
Y559370D02*
Y563370D01*
X106370Y536370D02*
X110370Y540370D01*
X106370Y544370*
X102370Y540370*
X106370Y536370*
Y540370D02*
Y544370D01*
X125370Y534270D02*
X133370D01*
X129370Y530270D02*
Y538270D01*
X133075Y538770D02*
X132961Y539083D01*
X132961D02*
X132734Y539395D01*
X132506Y539551*
X132052*
X131825Y539395*
X131597Y539083*
X131597D02*
X131484Y538770D01*
X131370Y538301*
Y537520*
X131484Y537051*
X131597Y536739*
X131825Y536426*
X132052Y536270*
X132506*
X132734Y536426*
X132961Y536739*
X133075Y537051*
X121370Y538270D02*
X129370D01*
X125370Y534270D02*
Y542270D01*
X129075Y542770D02*
X128961Y543083D01*
X128961D02*
X128734Y543395D01*
X128506Y543551*
X128052*
X127825Y543395*
X127597Y543083*
X127597D02*
X127484Y542770D01*
X127370Y542301*
Y541520*
X127484Y541051*
X127597Y540739*
X127825Y540426*
X128052Y540270*
X128506*
X128734Y540426*
X128961Y540739*
X129075Y541051*
X113370Y538270D02*
X121370D01*
X117370Y534270D02*
Y542270D01*
X121075Y542770D02*
X120961Y543083D01*
X120961D02*
X120734Y543395D01*
X120506Y543551*
X120052*
X119825Y543395*
X119597Y543083*
X119597D02*
X119484Y542770D01*
X119370Y542301*
Y541520*
X119484Y541051*
X119597Y540739*
X119825Y540426*
X120052Y540270*
X120506*
X120734Y540426*
X120961Y540739*
X121075Y541051*
X117370Y534270D02*
X125370D01*
X121370Y530270D02*
Y538270D01*
X125075Y538770D02*
X124961Y539083D01*
X124961D02*
X124734Y539395D01*
X124506Y539551*
X124052*
X123825Y539395*
X123597Y539083*
X123597D02*
X123484Y538770D01*
X123370Y538301*
Y537520*
X123484Y537051*
X123597Y536739*
X123825Y536426*
X124052Y536270*
X124506*
X124734Y536426*
X124961Y536739*
X125075Y537051*
X109370Y534270D02*
X117370D01*
X113370Y530270D02*
Y538270D01*
X117075Y538770D02*
X116961Y539083D01*
X116961D02*
X116734Y539395D01*
X116506Y539551*
X116052*
X115825Y539395*
X115597Y539083*
X115597D02*
X115484Y538770D01*
X115370Y538301*
Y537520*
X115484Y537051*
X115597Y536739*
X115825Y536426*
X116052Y536270*
X116506*
X116734Y536426*
X116961Y536739*
X117075Y537051*
X172470Y546270D02*
X176470Y550270D01*
X172470Y554270*
X168470Y550270*
X172470Y546270*
Y550270D02*
Y554270D01*
X177170Y558270D02*
X181170Y562270D01*
X177170Y566270*
X173170Y562270*
X177170Y558270*
Y562270D02*
Y566270D01*
X200870Y527570D02*
X208870D01*
X204870Y523570D02*
Y531570D01*
X208575Y532070D02*
X208461Y532383D01*
X208461D02*
X208234Y532695D01*
X208006Y532851*
X207552*
X207325Y532695*
X207097Y532383*
X207097D02*
X206984Y532070D01*
X206870Y531601*
Y530820*
X206984Y530351*
X207097Y530039*
X207325Y529726*
X207552Y529570*
X208006*
X208234Y529726*
X208461Y530039*
X208575Y530351*
X200670Y543170D02*
X204670Y547170D01*
X200670Y551170*
X196670Y547170*
X200670Y543170*
Y547170D02*
Y551170D01*
X331770Y539770D02*
X339770D01*
X335770Y535770D02*
Y543770D01*
X339475Y544270D02*
X339361Y544583D01*
X339361D02*
X339134Y544895D01*
X338906Y545051*
X338452*
X338225Y544895*
X337997Y544583*
X337997D02*
X337884Y544270D01*
X337770Y543801*
Y543020*
X337884Y542551*
X337997Y542239*
X338225Y541926*
X338452Y541770*
X338906*
X339134Y541926*
X339361Y542239*
X339475Y542551*
X343770Y539670D02*
X351770D01*
X347770Y535670D02*
Y543670D01*
X351475Y544170D02*
X351361Y544483D01*
X351361D02*
X351134Y544795D01*
X350906Y544951*
X350452*
X350225Y544795*
X349997Y544483*
X349997D02*
X349884Y544170D01*
X349770Y543701*
Y542920*
X349884Y542451*
X349997Y542139*
X350225Y541826*
X350452Y541670*
X350906*
X351134Y541826*
X351361Y542139*
X351475Y542451*
X319770Y539970D02*
X327770D01*
X323770Y535970D02*
Y543970D01*
X327475Y544470D02*
X327361Y544783D01*
X327361D02*
X327134Y545095D01*
X326906Y545251*
X326452*
X326225Y545095*
X325997Y544783*
X325997D02*
X325884Y544470D01*
X325770Y544001*
Y543220*
X325884Y542751*
X325997Y542439*
X326225Y542126*
X326452Y541970*
X326906*
X327134Y542126*
X327361Y542439*
X327475Y542751*
X343970Y549770D02*
X347970Y553770D01*
X343970Y557770*
X339970Y553770*
X343970Y549770*
Y553770D02*
Y557770D01*
X324370Y560370D02*
X328370Y564370D01*
X324370Y568370*
X320370Y564370*
X324370Y560370*
Y564370D02*
Y568370D01*
X49370Y595370D02*
X53370Y599370D01*
X49370Y603370*
X45370Y599370*
X49370Y595370*
Y599370D02*
Y603370D01*
X149370Y580370D02*
X153370Y584370D01*
X149370Y588370*
X145370Y584370*
X149370Y580370*
Y584370D02*
Y588370D01*
X177170Y598270D02*
X181170Y602270D01*
X177170Y606270*
X173170Y602270*
X177170Y598270*
Y602270D02*
Y606270D01*
X159370Y580370D02*
X163370Y584370D01*
X159370Y588370*
X155370Y584370*
X159370Y580370*
Y584370D02*
Y588370D01*
X169370Y580370D02*
X173370Y584370D01*
X169370Y588370*
X165370Y584370*
X169370Y580370*
Y584370D02*
Y588370D01*
X272670Y597770D02*
X276670Y601770D01*
X272670Y605770*
X268670Y601770*
X272670Y597770*
Y601770D02*
Y605770D01*
X348970Y566170D02*
X352970Y570170D01*
X348970Y574170*
X344970Y570170*
X348970Y566170*
Y570170D02*
Y574170D01*
X351370Y595370D02*
X355370Y599370D01*
X351370Y603370*
X347370Y599370*
X351370Y595370*
Y599370D02*
Y603370D01*
Y585370D02*
X355370Y589370D01*
X351370Y593370*
X347370Y589370*
X351370Y585370*
Y589370D02*
Y593370D01*
Y575370D02*
X355370Y579370D01*
X351370Y583370*
X347370Y579370*
X351370Y575370*
Y579370D02*
Y583370D01*
X353970Y602770D02*
X361970D01*
X357970Y598770D02*
Y606770D01*
X361675Y607270D02*
X361561Y607583D01*
X361561D02*
X361334Y607895D01*
X361106Y608051*
X360652*
X360425Y607895*
X360197Y607583*
X360197D02*
X360084Y607270D01*
X359970Y606801*
Y606020*
X360084Y605551*
X360197Y605239*
X360425Y604926*
X360652Y604770*
X361106*
X361334Y604926*
X361561Y605239*
X361675Y605551*
X49370Y620370D02*
X53370Y624370D01*
X49370Y628370*
X45370Y624370*
X49370Y620370*
Y624370D02*
Y628370D01*
X94370Y620370D02*
X98370Y624370D01*
X94370Y628370*
X90370Y624370*
X94370Y620370*
Y624370D02*
Y628370D01*
X74370Y620370D02*
X78370Y624370D01*
X74370Y628370*
X70370Y624370*
X74370Y620370*
Y624370D02*
Y628370D01*
X114370Y620370D02*
X118370Y624370D01*
X114370Y628370*
X110370Y624370*
X114370Y620370*
Y624370D02*
Y628370D01*
X138670Y624770D02*
X142670Y628770D01*
X138670Y632770*
X134670Y628770*
X138670Y624770*
Y628770D02*
Y632770D01*
X162670Y624370D02*
X166670Y628370D01*
X162670Y632370*
X158670Y628370*
X162670Y624370*
Y628370D02*
Y632370D01*
X260370Y623370D02*
X264370Y627370D01*
X260370Y631370*
X256370Y627370*
X260370Y623370*
Y627370D02*
Y631370D01*
X246570Y606670D02*
X250570Y610670D01*
X246570Y614670*
X242570Y610670*
X246570Y606670*
Y610670D02*
Y614670D01*
X363370Y611370D02*
X367370Y615370D01*
X363370Y619370*
X359370Y615370*
X363370Y611370*
Y615370D02*
Y619370D01*
X357970Y606770D02*
X365970D01*
X361970Y602770D02*
Y610770D01*
X365675Y611270D02*
X365561Y611583D01*
X365561D02*
X365334Y611895D01*
X365106Y612051*
X364652*
X364425Y611895*
X364197Y611583*
X364197D02*
X364084Y611270D01*
X363970Y610801*
Y610020*
X364084Y609551*
X364197Y609239*
X364425Y608926*
X364652Y608770*
X365106*
X365334Y608926*
X365561Y609239*
X365675Y609551*
X39370Y679370D02*
X748031D01*
X39370D02*
X49370Y681870D01*
Y676870*
X39370Y679370*
X748031D02*
X738031Y676870D01*
Y681870*
X748031Y679370*
X374370Y687683D02*
X374825Y687995D01*
X375506Y688933*
X375506D02*
Y682370D01*
X378688Y688933D02*
X378006Y688620D01*
X377779Y687995*
Y687370*
X378006Y686745*
X378461Y686433*
X378461D02*
X379370Y686120D01*
X380052Y685808*
X380052D02*
X380506Y685183D01*
X380506D02*
X380734Y684558D01*
X380734D02*
Y683620D01*
X380506Y682995*
X380279Y682683*
X380279D02*
X379597Y682370D01*
X378688*
X378006Y682683*
X378006D02*
X377779Y682995D01*
X377552Y683620*
Y684558*
X377552D02*
X377779Y685183D01*
X377779D02*
X378234Y685808D01*
X378234D02*
X378916Y686120D01*
X379825Y686433*
X379825D02*
X380279Y686745D01*
X380506Y687370*
Y687995*
X380279Y688620*
X379597Y688933*
X379597D02*
X378688D01*
X384143D02*
X383461Y688620D01*
X383006Y687683*
X383006D02*
X382779Y686120D01*
Y685183*
X382779D02*
X383006Y683620D01*
X383461Y682683*
X383461D02*
X384143Y682370D01*
X384597*
X385279Y682683*
X385279D02*
X385734Y683620D01*
X385961Y685183*
X385961D02*
Y686120D01*
X385734Y687683*
X385734D02*
X385279Y688620D01*
X384597Y688933*
X384597D02*
X384143D01*
X388234Y682995D02*
X388006Y682683D01*
X388006D02*
X388234Y682370D01*
X388461Y682683*
X388461D02*
X388234Y682995D01*
X391870Y688933D02*
X391188Y688620D01*
X390734Y687683*
X390734D02*
X390506Y686120D01*
Y685183*
X390506D02*
X390734Y683620D01*
X391188Y682683*
X391188D02*
X391870Y682370D01*
X392325*
X393006Y682683*
X393006D02*
X393461Y683620D01*
X393688Y685183*
X393688D02*
Y686120D01*
X393461Y687683*
X393461D02*
X393006Y688620D01*
X392325Y688933*
X392325D02*
X391870D01*
X395734Y686745D02*
Y682370D01*
Y685495D02*
X396416Y686433D01*
X396416D02*
X396870Y686745D01*
X397552*
X398006Y686433*
X398006D02*
X398234Y685495D01*
Y682370*
Y685495D02*
X398916Y686433D01*
X398916D02*
X399370Y686745D01*
X400052*
X400506Y686433*
X400506D02*
X400734Y685495D01*
Y682370*
X402779Y686745D02*
Y682370D01*
Y685495D02*
X403461Y686433D01*
X403461D02*
X403916Y686745D01*
X404597*
X405052Y686433*
X405052D02*
X405279Y685495D01*
Y682370*
Y685495D02*
X405961Y686433D01*
X405961D02*
X406416Y686745D01*
X407097*
X407552Y686433*
X407552D02*
X407779Y685495D01*
Y682370*
X758370Y224470D02*
Y669370D01*
Y224470D02*
X755870Y234470D01*
X760870*
X758370Y224470*
Y669370D02*
X760870Y659370D01*
X755870*
X758370Y669370*
X763858Y435970D02*
X763545Y436425D01*
X762608Y437106*
X769170*
X763858Y439152D02*
X763545Y439606D01*
X762608Y440288*
X769170*
X762608Y442788D02*
Y445288D01*
X765108Y443925*
Y444606*
X765420Y445061*
X765733Y445288*
X766670Y445515*
X767295*
X768233Y445288*
X768858Y444834*
X769170Y444152*
Y443470*
X768858Y442788*
X768545Y442561*
X767920Y442334*
X768545Y447788D02*
X768858Y447561D01*
X769170Y447788*
X768858Y448015*
X768545Y447788*
X762608Y451425D02*
X762920Y450743D01*
X763858Y450288*
X765420Y450061*
X766358*
X767920Y450288*
X768858Y450743*
X769170Y451425*
Y451879*
X768858Y452561*
X767920Y453015*
X766358Y453243*
X765420*
X763858Y453015*
X762920Y452561*
X762608Y451879*
Y451425*
X764795Y455288D02*
X769170D01*
X766045D02*
X765108Y455970D01*
X764795Y456425*
Y457106*
X765108Y457561*
X766045Y457788*
X769170*
X766045D02*
X765108Y458470D01*
X764795Y458925*
Y459606*
X765108Y460061*
X766045Y460288*
X769170*
X764795Y462334D02*
X769170D01*
X766045D02*
X765108Y463015D01*
X764795Y463470*
Y464152*
X765108Y464606*
X766045Y464834*
X769170*
X766045D02*
X765108Y465515D01*
X764795Y465970*
Y466652*
X765108Y467106*
X766045Y467334*
X769170*
X758370Y39370D02*
Y224470D01*
Y39370D02*
X755870Y49370D01*
X760870*
X758370Y39370*
Y224470D02*
X760870Y214470D01*
X755870*
X758370Y224470*
X762008Y121843D02*
X766383Y119570D01*
Y122979*
X762008Y121843D02*
X768570D01*
X762008Y128206D02*
X768570Y125934D01*
X762008Y125025D02*
Y128206D01*
X767945Y130479D02*
X768258Y130252D01*
X768570Y130479*
X768258Y130706*
X767945Y130479*
X762008Y134115D02*
X762320Y133434D01*
X763258Y132979*
X764820Y132752*
X765758*
X767320Y132979*
X768258Y133434*
X768570Y134115*
Y134570*
X768258Y135252*
X767320Y135706*
X765758Y135934*
X764820*
X763258Y135706*
X762320Y135252*
X762008Y134570*
Y134115*
X764195Y137979D02*
X768570D01*
X765445D02*
X764508Y138661D01*
X764195Y139115*
Y139797*
X764508Y140252*
X765445Y140479*
X768570*
X765445D02*
X764508Y141161D01*
X764195Y141615*
Y142297*
X764508Y142752*
X765445Y142979*
X768570*
X764195Y145025D02*
X768570D01*
X765445D02*
X764508Y145706D01*
X764195Y146161*
Y146843*
X764508Y147297*
X765445Y147525*
X768570*
X765445D02*
X764508Y148206D01*
X764195Y148661*
Y149343*
X764508Y149797*
X765445Y150025*
X768570*
X44370Y399370D02*
X302370D01*
X44370Y375370D02*
X302370D01*
X44370Y351370D02*
X302370D01*
X44370Y327370D02*
X302370D01*
X44370Y303370D02*
X302370D01*
X44370Y279370D02*
X302370D01*
X44370Y255370D02*
X302370D01*
X44370Y231370D02*
X302370D01*
X44370Y207370D02*
X302370D01*
X44370Y183370D02*
X302370D01*
X44370Y159370D02*
X302370D01*
X44370Y135370D02*
X302370D01*
X44370Y111370D02*
X302370D01*
X44370Y87370D02*
X302370D01*
X44370Y63370D02*
X302370D01*
X44370Y39370D02*
X302370D01*
X44370Y399370D02*
Y39370D01*
X128370Y399370D02*
Y39370D01*
X164370Y399370D02*
Y39370D01*
X200370Y399370D02*
Y39370D01*
X254370Y399370D02*
Y39370D01*
X302370Y399370D02*
Y39370D01*
X79870Y388120D02*
X79325Y388870D01*
X78506Y389245*
X77416*
X76597Y388870*
X76052Y388120*
Y387370*
X76325Y386620*
X76597Y386245*
X77143Y385870*
X78779Y385120*
X79325Y384745*
X79597Y384370*
X79870Y383620*
Y382495*
X79325Y381745*
X78506Y381370*
X77416*
X76597Y381745*
X76052Y382495*
X82325Y389245D02*
Y381370D01*
X88597Y389245D02*
X84779Y381370D01*
Y389245D02*
X88597D01*
X84779Y381370D02*
X88597D01*
X91052Y389245D02*
Y381370D01*
Y389245D02*
X94597D01*
X91052Y385495D02*
X93234D01*
X91052Y381370D02*
X94597D01*
X138234Y389245D02*
X137688Y388870D01*
X137143Y388120*
X136870Y387370*
X136597Y386245*
Y384370*
X136870Y383245*
X137143Y382495*
X137688Y381745*
X138234Y381370*
X139325*
X139870Y381745*
X140416Y382495*
X140688Y383245*
X140961Y384370*
Y386245*
X140688Y387370*
X140416Y388120*
X139870Y388870*
X139325Y389245*
X138234*
X139052Y382870D02*
X140688Y380620D01*
X145325Y389245D02*
Y381370D01*
X143416Y389245D02*
X147234D01*
X149688D02*
X151870Y385495D01*
Y381370*
X154052Y389245D02*
X151870Y385495D01*
X176416Y388120D02*
X175870Y388870D01*
X175052Y389245*
X173961*
X173143Y388870*
X172597Y388120*
Y387370*
X172870Y386620*
X173143Y386245*
X173688Y385870*
X175325Y385120*
X175870Y384745*
X176143Y384370*
X176416Y383620*
Y382495*
X175870Y381745*
X175052Y381370*
X173961*
X173143Y381745*
X172597Y382495*
X178870Y389245D02*
X181052Y385495D01*
Y381370*
X183234Y389245D02*
X181052Y385495D01*
X185688Y389245D02*
Y381370D01*
Y389245D02*
X187870Y381370D01*
X190052Y389245D02*
X187870Y381370D01*
X190052Y389245D02*
Y381370D01*
X211870Y389245D02*
Y381370D01*
Y389245D02*
X214325D01*
X215143Y388870*
X215416Y388495*
X215688Y387745*
Y386620*
X215416Y385870*
X215143Y385495*
X214325Y385120*
X211870*
X218143Y389245D02*
Y381370D01*
X221416*
X226052Y389245D02*
X223870Y381370D01*
X226052Y389245D02*
X228234Y381370D01*
X224688Y383995D02*
X227416D01*
X232597Y389245D02*
Y381370D01*
X230688Y389245D02*
X234506D01*
X236961D02*
Y381370D01*
Y389245D02*
X240506D01*
X236961Y385495D02*
X239143D01*
X236961Y381370D02*
X240506D01*
X242961Y389245D02*
Y381370D01*
Y389245D02*
X244870D01*
X245688Y388870*
X246234Y388120*
X246506Y387370*
X246779Y386245*
Y384370*
X246506Y383245*
X246234Y382495*
X245688Y381745*
X244870Y381370*
X242961*
X271052Y389245D02*
Y381370D01*
X269143Y389245D02*
X272961D01*
X277052D02*
X276506Y388870D01*
X275961Y388120*
X275688Y387370*
X275416Y386245*
Y384370*
X275688Y383245*
X275961Y382495*
X276506Y381745*
X277052Y381370*
X278143*
X278688Y381745*
X279234Y382495*
X279506Y383245*
X279779Y384370*
Y386245*
X279506Y387370*
X279234Y388120*
X278688Y388870*
X278143Y389245*
X277052*
X282234D02*
Y381370D01*
X285506*
X50370Y363745D02*
X50916Y364120D01*
X51734Y365245*
Y357370*
X54461Y363370D02*
Y363745D01*
X54734Y364495*
X55006Y364870*
X55552Y365245*
X56643*
X57188Y364870*
X57461Y364495*
X57734Y363745*
Y362995*
X57461Y362245*
X56916Y361120*
X54188Y357370*
X58006*
X64006Y365245D02*
X61279D01*
X61006Y361870*
X61279Y362245*
X62097Y362620*
X62916*
X63734Y362245*
X64279Y361495*
X64552Y360370*
X64279Y359620*
X64006Y358495*
X63461Y357745*
X62643Y357370*
X61825*
X61006Y357745*
X60734Y358120*
X60461Y358870*
X67279Y358120D02*
X67006Y357745D01*
X67279Y357370*
X67552Y357745*
X67279Y358120*
X73552Y362620D02*
X73279Y361495D01*
X72734Y360745*
X71916Y360370*
X71643*
X70825Y360745*
X70279Y361495*
X70006Y362620*
Y362995*
X70279Y364120*
X70825Y364870*
X71643Y365245*
X71916*
X72734Y364870*
X73279Y364120*
X73552Y362620*
Y360745*
X73279Y358870*
X72734Y357745*
X71916Y357370*
X71370*
X70552Y357745*
X70279Y358495*
X77370Y365245D02*
X76552Y364870D01*
X76279Y364120*
Y363370*
X76552Y362620*
X77097Y362245*
X78188Y361870*
X79006Y361495*
X79552Y360745*
X79825Y359995*
Y358870*
X79552Y358120*
X79279Y357745*
X78461Y357370*
X77370*
X76552Y357745*
X76279Y358120*
X76006Y358870*
Y359995*
X76279Y360745*
X76825Y361495*
X77643Y361870*
X78734Y362245*
X79279Y362620*
X79552Y363370*
Y364120*
X79279Y364870*
X78461Y365245*
X77370*
X147097Y362620D02*
X146825Y361495D01*
X146279Y360745*
X145461Y360370*
X145188*
X144370Y360745*
X143825Y361495*
X143552Y362620*
Y362995*
X143825Y364120*
X144370Y364870*
X145188Y365245*
X145461*
X146279Y364870*
X146825Y364120*
X147097Y362620*
Y360745*
X146825Y358870*
X146279Y357745*
X145461Y357370*
X144916*
X144097Y357745*
X143825Y358495*
X176370Y363370D02*
X188370D01*
X182370Y357370D02*
Y369370D01*
X209006Y365245D02*
X211188Y361495D01*
Y357370*
X213370Y365245D02*
X211188Y361495D01*
X215825Y365245D02*
Y357370D01*
Y365245D02*
X219370D01*
X215825Y361495D02*
X218006D01*
X215825Y357370D02*
X219370D01*
X225643Y364120D02*
X225097Y364870D01*
X224279Y365245*
X223188*
X222370Y364870*
X221825Y364120*
Y363370*
X222097Y362620*
X222370Y362245*
X222916Y361870*
X224552Y361120*
X225097Y360745*
X225370Y360370*
X225643Y359620*
Y358495*
X225097Y357745*
X224279Y357370*
X223188*
X222370Y357745*
X221825Y358495*
X262188Y364120D02*
Y357370D01*
X259734Y360745D02*
X264643D01*
X272006Y366745D02*
X267097Y354745D01*
X274461Y360745D02*
X279370D01*
X283461Y365245D02*
X282643Y364870D01*
X282097Y363745*
X281825Y361870*
Y360745*
X282097Y358870*
X282643Y357745*
X283461Y357370*
X284006*
X284825Y357745*
X285370Y358870*
X285643Y360745*
Y361870*
X285370Y363745*
X284825Y364870*
X284006Y365245*
X283461*
X288370Y358120D02*
X288097Y357745D01*
X288370Y357370*
X288643Y357745*
X288370Y358120*
X292734Y365245D02*
X291916Y364870D01*
X291370Y363745*
X291097Y361870*
Y360745*
X291370Y358870*
X291916Y357745*
X292734Y357370*
X293279*
X294097Y357745*
X294643Y358870*
X294916Y360745*
Y361870*
X294643Y363745*
X294097Y364870*
X293279Y365245*
X292734*
X53097Y341245D02*
X50370Y335995D01*
X54461*
X53097Y341245D02*
Y333370D01*
X60734Y341245D02*
X58006Y333370D01*
X56916Y341245D02*
X60734D01*
X63461Y334120D02*
X63188Y333745D01*
X63461Y333370*
X63734Y333745*
X63461Y334120*
X66461Y339370D02*
Y339745D01*
X66734Y340495*
X67006Y340870*
X67552Y341245*
X68643*
X69188Y340870*
X69461Y340495*
X69734Y339745*
Y338995*
X69461Y338245*
X68916Y337120*
X66188Y333370*
X70006*
X75188Y341245D02*
X72461Y335995D01*
X76552*
X75188Y341245D02*
Y333370D01*
X140825Y341245D02*
X143825D01*
X142188Y338245*
X143006*
X143552Y337870*
X143825Y337495*
X144097Y336370*
Y335620*
X143825Y334495*
X143279Y333745*
X142461Y333370*
X141643*
X140825Y333745*
X140552Y334120*
X140279Y334870*
X147916Y341245D02*
X147097Y340870D01*
X146825Y340120*
Y339370*
X147097Y338620*
X147643Y338245*
X148734Y337870*
X149552Y337495*
X150097Y336745*
X150370Y335995*
Y334870*
X150097Y334120*
X149825Y333745*
X149006Y333370*
X147916*
X147097Y333745*
X146825Y334120*
X146552Y334870*
Y335995*
X146825Y336745*
X147370Y337495*
X148188Y337870*
X149279Y338245*
X149825Y338620*
X150097Y339370*
Y340120*
X149825Y340870*
X149006Y341245*
X147916*
X176370Y333370D02*
X188370Y345370D01*
X176370D02*
X188370Y333370D01*
X209006Y341245D02*
X211188Y337495D01*
Y333370*
X213370Y341245D02*
X211188Y337495D01*
X215825Y341245D02*
Y333370D01*
Y341245D02*
X219370D01*
X215825Y337495D02*
X218006D01*
X215825Y333370D02*
X219370D01*
X225643Y340120D02*
X225097Y340870D01*
X224279Y341245*
X223188*
X222370Y340870*
X221825Y340120*
Y339370*
X222097Y338620*
X222370Y338245*
X222916Y337870*
X224552Y337120*
X225097Y336745*
X225370Y336370*
X225643Y335620*
Y334495*
X225097Y333745*
X224279Y333370*
X223188*
X222370Y333745*
X221825Y334495*
X262188Y340120D02*
Y333370D01*
X259734Y336745D02*
X264643D01*
X272006Y342745D02*
X267097Y330745D01*
X274461Y336745D02*
X279370D01*
X283461Y341245D02*
X282643Y340870D01*
X282097Y339745*
X281825Y337870*
Y336745*
X282097Y334870*
X282643Y333745*
X283461Y333370*
X284006*
X284825Y333745*
X285370Y334870*
X285643Y336745*
Y337870*
X285370Y339745*
X284825Y340870*
X284006Y341245*
X283461*
X288370Y334120D02*
X288097Y333745D01*
X288370Y333370*
X288643Y333745*
X288370Y334120*
X292734Y341245D02*
X291916Y340870D01*
X291370Y339745*
X291097Y337870*
Y336745*
X291370Y334870*
X291916Y333745*
X292734Y333370*
X293279*
X294097Y333745*
X294643Y334870*
X294916Y336745*
Y337870*
X294643Y339745*
X294097Y340870*
X293279Y341245*
X292734*
X51734Y317245D02*
X50916Y316870D01*
X50643Y316120*
Y315370*
X50916Y314620*
X51461Y314245*
X52552Y313870*
X53370Y313495*
X53916Y312745*
X54188Y311995*
Y310870*
X53916Y310120*
X53643Y309745*
X52825Y309370*
X51734*
X50916Y309745*
X50643Y310120*
X50370Y310870*
Y311995*
X50643Y312745*
X51188Y313495*
X52006Y313870*
X53097Y314245*
X53643Y314620*
X53916Y315370*
Y316120*
X53643Y316870*
X52825Y317245*
X51734*
X58279D02*
X57461Y316870D01*
X56916Y315745*
X56643Y313870*
Y312745*
X56916Y310870*
X57461Y309745*
X58279Y309370*
X58825*
X59643Y309745*
X60188Y310870*
X60461Y312745*
Y313870*
X60188Y315745*
X59643Y316870*
X58825Y317245*
X58279*
X141779Y315370D02*
Y315745D01*
X142052Y316495*
X142325Y316870*
X142870Y317245*
X143961*
X144506Y316870*
X144779Y316495*
X145052Y315745*
Y314995*
X144779Y314245*
X144234Y313120*
X141506Y309370*
X145325*
X147779Y315745D02*
X148325Y316120D01*
X149143Y317245*
Y309370*
X176370D02*
X188370D01*
Y321370*
X176370*
Y309370*
X182370Y315370D02*
Y321370D01*
X209006Y317245D02*
X211188Y313495D01*
Y309370*
X213370Y317245D02*
X211188Y313495D01*
X215825Y317245D02*
Y309370D01*
Y317245D02*
X219370D01*
X215825Y313495D02*
X218006D01*
X215825Y309370D02*
X219370D01*
X225643Y316120D02*
X225097Y316870D01*
X224279Y317245*
X223188*
X222370Y316870*
X221825Y316120*
Y315370*
X222097Y314620*
X222370Y314245*
X222916Y313870*
X224552Y313120*
X225097Y312745*
X225370Y312370*
X225643Y311620*
Y310495*
X225097Y309745*
X224279Y309370*
X223188*
X222370Y309745*
X221825Y310495*
X262188Y316120D02*
Y309370D01*
X259734Y312745D02*
X264643D01*
X272006Y318745D02*
X267097Y306745D01*
X274461Y312745D02*
X279370D01*
X283461Y317245D02*
X282643Y316870D01*
X282097Y315745*
X281825Y313870*
Y312745*
X282097Y310870*
X282643Y309745*
X283461Y309370*
X284006*
X284825Y309745*
X285370Y310870*
X285643Y312745*
Y313870*
X285370Y315745*
X284825Y316870*
X284006Y317245*
X283461*
X288370Y310120D02*
X288097Y309745D01*
X288370Y309370*
X288643Y309745*
X288370Y310120*
X292734Y317245D02*
X291916Y316870D01*
X291370Y315745*
X291097Y313870*
Y312745*
X291370Y310870*
X291916Y309745*
X292734Y309370*
X293279*
X294097Y309745*
X294643Y310870*
X294916Y312745*
Y313870*
X294643Y315745*
X294097Y316870*
X293279Y317245*
X292734*
X50643Y291370D02*
Y291745D01*
X50916Y292495*
X51188Y292870*
X51734Y293245*
X52825*
X53370Y292870*
X53643Y292495*
X53916Y291745*
Y290995*
X53643Y290245*
X53097Y289120*
X50370Y285370*
X54188*
X58279Y293245D02*
X57461Y292870D01*
X56916Y291745*
X56643Y289870*
Y288745*
X56916Y286870*
X57461Y285745*
X58279Y285370*
X58825*
X59643Y285745*
X60188Y286870*
X60461Y288745*
Y289870*
X60188Y291745*
X59643Y292870*
X58825Y293245*
X58279*
X138506Y291745D02*
X139052Y292120D01*
X139870Y293245*
Y285370*
X145597Y292120D02*
X145325Y292870D01*
X144506Y293245*
X143961*
X143143Y292870*
X142597Y291745*
X142325Y289870*
Y287995*
X142597Y286495*
X143143Y285745*
X143961Y285370*
X144234*
X145052Y285745*
X145597Y286495*
X145870Y287620*
Y287995*
X145597Y289120*
X145052Y289870*
X144234Y290245*
X143961*
X143143Y289870*
X142597Y289120*
X142325Y287995*
X149961Y293245D02*
X149143Y292870D01*
X148597Y291745*
X148325Y289870*
Y288745*
X148597Y286870*
X149143Y285745*
X149961Y285370*
X150506*
X151325Y285745*
X151870Y286870*
X152143Y288745*
Y289870*
X151870Y291745*
X151325Y292870*
X150506Y293245*
X149961*
X182370Y285370D02*
X188370Y291370D01*
X182370Y297370*
X176370Y291370*
X182370Y285370*
Y291370D02*
Y297370D01*
X209006Y293245D02*
X211188Y289495D01*
Y285370*
X213370Y293245D02*
X211188Y289495D01*
X215825Y293245D02*
Y285370D01*
Y293245D02*
X219370D01*
X215825Y289495D02*
X218006D01*
X215825Y285370D02*
X219370D01*
X225643Y292120D02*
X225097Y292870D01*
X224279Y293245*
X223188*
X222370Y292870*
X221825Y292120*
Y291370*
X222097Y290620*
X222370Y290245*
X222916Y289870*
X224552Y289120*
X225097Y288745*
X225370Y288370*
X225643Y287620*
Y286495*
X225097Y285745*
X224279Y285370*
X223188*
X222370Y285745*
X221825Y286495*
X262188Y292120D02*
Y285370D01*
X259734Y288745D02*
X264643D01*
X272006Y294745D02*
X267097Y282745D01*
X274461Y288745D02*
X279370D01*
X283461Y293245D02*
X282643Y292870D01*
X282097Y291745*
X281825Y289870*
Y288745*
X282097Y286870*
X282643Y285745*
X283461Y285370*
X284006*
X284825Y285745*
X285370Y286870*
X285643Y288745*
Y289870*
X285370Y291745*
X284825Y292870*
X284006Y293245*
X283461*
X288370Y286120D02*
X288097Y285745D01*
X288370Y285370*
X288643Y285745*
X288370Y286120*
X292734Y293245D02*
X291916Y292870D01*
X291370Y291745*
X291097Y289870*
Y288745*
X291370Y286870*
X291916Y285745*
X292734Y285370*
X293279*
X294097Y285745*
X294643Y286870*
X294916Y288745*
Y289870*
X294643Y291745*
X294097Y292870*
X293279Y293245*
X292734*
X53097Y269245D02*
X50370Y263995D01*
X54461*
X53097Y269245D02*
Y261370D01*
X57188Y267370D02*
Y267745D01*
X57461Y268495*
X57734Y268870*
X58279Y269245*
X59370*
X59916Y268870*
X60188Y268495*
X60461Y267745*
Y266995*
X60188Y266245*
X59643Y265120*
X56916Y261370*
X60734*
X140688Y269245D02*
X143688D01*
X142052Y266245*
X142870*
X143416Y265870*
X143688Y265495*
X143961Y264370*
Y263620*
X143688Y262495*
X143143Y261745*
X142325Y261370*
X141506*
X140688Y261745*
X140416Y262120*
X140143Y262870*
X149143Y269245D02*
X146416Y263995D01*
X150506*
X149143Y269245D02*
Y261370D01*
X176370D02*
X188370D01*
X176370Y273370*
X188370*
X176370Y261370*
X209006Y269245D02*
X211188Y265495D01*
Y261370*
X213370Y269245D02*
X211188Y265495D01*
X215825Y269245D02*
Y261370D01*
Y269245D02*
X219370D01*
X215825Y265495D02*
X218006D01*
X215825Y261370D02*
X219370D01*
X225643Y268120D02*
X225097Y268870D01*
X224279Y269245*
X223188*
X222370Y268870*
X221825Y268120*
Y267370*
X222097Y266620*
X222370Y266245*
X222916Y265870*
X224552Y265120*
X225097Y264745*
X225370Y264370*
X225643Y263620*
Y262495*
X225097Y261745*
X224279Y261370*
X223188*
X222370Y261745*
X221825Y262495*
X262188Y268120D02*
Y261370D01*
X259734Y264745D02*
X264643D01*
X272006Y270745D02*
X267097Y258745D01*
X274461Y264745D02*
X279370D01*
X283461Y269245D02*
X282643Y268870D01*
X282097Y267745*
X281825Y265870*
Y264745*
X282097Y262870*
X282643Y261745*
X283461Y261370*
X284006*
X284825Y261745*
X285370Y262870*
X285643Y264745*
Y265870*
X285370Y267745*
X284825Y268870*
X284006Y269245*
X283461*
X288370Y262120D02*
X288097Y261745D01*
X288370Y261370*
X288643Y261745*
X288370Y262120*
X292734Y269245D02*
X291916Y268870D01*
X291370Y267745*
X291097Y265870*
Y264745*
X291370Y262870*
X291916Y261745*
X292734Y261370*
X293279*
X294097Y261745*
X294643Y262870*
X294916Y264745*
Y265870*
X294643Y267745*
X294097Y268870*
X293279Y269245*
X292734*
X50916Y245245D02*
X53916D01*
X52279Y242245*
X53097*
X53643Y241870*
X53916Y241495*
X54188Y240370*
Y239620*
X53916Y238495*
X53370Y237745*
X52552Y237370*
X51734*
X50916Y237745*
X50643Y238120*
X50370Y238870*
X60188Y245245D02*
X57461D01*
X57188Y241870*
X57461Y242245*
X58279Y242620*
X59097*
X59916Y242245*
X60461Y241495*
X60734Y240370*
X60461Y239620*
X60188Y238495*
X59643Y237745*
X58825Y237370*
X58006*
X57188Y237745*
X56916Y238120*
X56643Y238870*
X63461Y238120D02*
X63188Y237745D01*
X63461Y237370*
X63734Y237745*
X63461Y238120*
X68916Y245245D02*
X66188Y239995D01*
X70279*
X68916Y245245D02*
Y237370D01*
X73279Y245245D02*
X76279D01*
X74643Y242245*
X75461*
X76006Y241870*
X76279Y241495*
X76552Y240370*
Y239620*
X76279Y238495*
X75734Y237745*
X74916Y237370*
X74097*
X73279Y237745*
X73006Y238120*
X72734Y238870*
X142052Y245245D02*
X145052D01*
X143416Y242245*
X144234*
X144779Y241870*
X145052Y241495*
X145325Y240370*
Y239620*
X145052Y238495*
X144506Y237745*
X143688Y237370*
X142870*
X142052Y237745*
X141779Y238120*
X141506Y238870*
X147779Y243745D02*
X148325Y244120D01*
X149143Y245245*
Y237370*
X176370D02*
X188370Y249370D01*
Y237370*
X176370Y249370*
Y237370*
X209006Y245245D02*
X211188Y241495D01*
Y237370*
X213370Y245245D02*
X211188Y241495D01*
X215825Y245245D02*
Y237370D01*
Y245245D02*
X219370D01*
X215825Y241495D02*
X218006D01*
X215825Y237370D02*
X219370D01*
X225643Y244120D02*
X225097Y244870D01*
X224279Y245245*
X223188*
X222370Y244870*
X221825Y244120*
Y243370*
X222097Y242620*
X222370Y242245*
X222916Y241870*
X224552Y241120*
X225097Y240745*
X225370Y240370*
X225643Y239620*
Y238495*
X225097Y237745*
X224279Y237370*
X223188*
X222370Y237745*
X221825Y238495*
X262188Y244120D02*
Y237370D01*
X259734Y240745D02*
X264643D01*
X272006Y246745D02*
X267097Y234745D01*
X274461Y240745D02*
X279370D01*
X283461Y245245D02*
X282643Y244870D01*
X282097Y243745*
X281825Y241870*
Y240745*
X282097Y238870*
X282643Y237745*
X283461Y237370*
X284006*
X284825Y237745*
X285370Y238870*
X285643Y240745*
Y241870*
X285370Y243745*
X284825Y244870*
X284006Y245245*
X283461*
X288370Y238120D02*
X288097Y237745D01*
X288370Y237370*
X288643Y237745*
X288370Y238120*
X292734Y245245D02*
X291916Y244870D01*
X291370Y243745*
X291097Y241870*
Y240745*
X291370Y238870*
X291916Y237745*
X292734Y237370*
X293279*
X294097Y237745*
X294643Y238870*
X294916Y240745*
Y241870*
X294643Y243745*
X294097Y244870*
X293279Y245245*
X292734*
X50916Y221245D02*
X53916D01*
X52279Y218245*
X53097*
X53643Y217870*
X53916Y217495*
X54188Y216370*
Y215620*
X53916Y214495*
X53370Y213745*
X52552Y213370*
X51734*
X50916Y213745*
X50643Y214120*
X50370Y214870*
X56643Y219745D02*
X57188Y220120D01*
X58006Y221245*
Y213370*
X60734Y214120D02*
X60461Y213745D01*
X60734Y213370*
X61006Y213745*
X60734Y214120*
X67006Y221245D02*
X64279D01*
X64006Y217870*
X64279Y218245*
X65097Y218620*
X65916*
X66734Y218245*
X67279Y217495*
X67552Y216370*
X67279Y215620*
X67006Y214495*
X66461Y213745*
X65643Y213370*
X64825*
X64006Y213745*
X63734Y214120*
X63461Y214870*
X143688Y219370D02*
Y219745D01*
X143961Y220495*
X144234Y220870*
X144779Y221245*
X145870*
X146416Y220870*
X146688Y220495*
X146961Y219745*
Y218995*
X146688Y218245*
X146143Y217120*
X143416Y213370*
X147234*
X176370Y219370D02*
X188370D01*
X182370Y213370D02*
Y225370D01*
X187116Y228670D02*
X185370Y222370D01*
X187116Y228670D02*
X188861Y222370D01*
X186025Y224470D02*
X188206D01*
X209006Y221245D02*
X211188Y217495D01*
Y213370*
X213370Y221245D02*
X211188Y217495D01*
X215825Y221245D02*
Y213370D01*
Y221245D02*
X219370D01*
X215825Y217495D02*
X218006D01*
X215825Y213370D02*
X219370D01*
X225643Y220120D02*
X225097Y220870D01*
X224279Y221245*
X223188*
X222370Y220870*
X221825Y220120*
Y219370*
X222097Y218620*
X222370Y218245*
X222916Y217870*
X224552Y217120*
X225097Y216745*
X225370Y216370*
X225643Y215620*
Y214495*
X225097Y213745*
X224279Y213370*
X223188*
X222370Y213745*
X221825Y214495*
X262188Y220120D02*
Y213370D01*
X259734Y216745D02*
X264643D01*
X272006Y222745D02*
X267097Y210745D01*
X274461Y216745D02*
X279370D01*
X283461Y221245D02*
X282643Y220870D01*
X282097Y219745*
X281825Y217870*
Y216745*
X282097Y214870*
X282643Y213745*
X283461Y213370*
X284006*
X284825Y213745*
X285370Y214870*
X285643Y216745*
Y217870*
X285370Y219745*
X284825Y220870*
X284006Y221245*
X283461*
X288370Y214120D02*
X288097Y213745D01*
X288370Y213370*
X288643Y213745*
X288370Y214120*
X292734Y221245D02*
X291916Y220870D01*
X291370Y219745*
X291097Y217870*
Y216745*
X291370Y214870*
X291916Y213745*
X292734Y213370*
X293279*
X294097Y213745*
X294643Y214870*
X294916Y216745*
Y217870*
X294643Y219745*
X294097Y220870*
X293279Y221245*
X292734*
X50916Y197245D02*
X53916D01*
X52279Y194245*
X53097*
X53643Y193870*
X53916Y193495*
X54188Y192370*
Y191620*
X53916Y190495*
X53370Y189745*
X52552Y189370*
X51734*
X50916Y189745*
X50643Y190120*
X50370Y190870*
X60461Y197245D02*
X57734Y189370D01*
X56643Y197245D02*
X60461D01*
X140688D02*
X143688D01*
X142052Y194245*
X142870*
X143416Y193870*
X143688Y193495*
X143961Y192370*
Y191620*
X143688Y190495*
X143143Y189745*
X142325Y189370*
X141506*
X140688Y189745*
X140416Y190120*
X140143Y190870*
X149961Y197245D02*
X147234D01*
X146961Y193870*
X147234Y194245*
X148052Y194620*
X148870*
X149688Y194245*
X150234Y193495*
X150506Y192370*
X150234Y191620*
X149961Y190495*
X149416Y189745*
X148597Y189370*
X147779*
X146961Y189745*
X146688Y190120*
X146416Y190870*
X176370Y195370D02*
X188370D01*
X182370Y189370D02*
Y201370D01*
X185370Y204670D02*
Y198370D01*
Y204670D02*
X187334D01*
X187988Y204370*
X188206Y204070*
X188425Y203470*
Y202870*
X188206Y202270*
X187988Y201970*
X187334Y201670*
X185370D02*
X187334D01*
X187988Y201370*
X188206Y201070*
X188425Y200470*
Y199570*
X188206Y198970*
X187988Y198670*
X187334Y198370*
X185370*
X209006Y197245D02*
X211188Y193495D01*
Y189370*
X213370Y197245D02*
X211188Y193495D01*
X215825Y197245D02*
Y189370D01*
Y197245D02*
X219370D01*
X215825Y193495D02*
X218006D01*
X215825Y189370D02*
X219370D01*
X225643Y196120D02*
X225097Y196870D01*
X224279Y197245*
X223188*
X222370Y196870*
X221825Y196120*
Y195370*
X222097Y194620*
X222370Y194245*
X222916Y193870*
X224552Y193120*
X225097Y192745*
X225370Y192370*
X225643Y191620*
Y190495*
X225097Y189745*
X224279Y189370*
X223188*
X222370Y189745*
X221825Y190495*
X262188Y196120D02*
Y189370D01*
X259734Y192745D02*
X264643D01*
X272006Y198745D02*
X267097Y186745D01*
X274461Y192745D02*
X279370D01*
X283461Y197245D02*
X282643Y196870D01*
X282097Y195745*
X281825Y193870*
Y192745*
X282097Y190870*
X282643Y189745*
X283461Y189370*
X284006*
X284825Y189745*
X285370Y190870*
X285643Y192745*
Y193870*
X285370Y195745*
X284825Y196870*
X284006Y197245*
X283461*
X288370Y190120D02*
X288097Y189745D01*
X288370Y189370*
X288643Y189745*
X288370Y190120*
X292734Y197245D02*
X291916Y196870D01*
X291370Y195745*
X291097Y193870*
Y192745*
X291370Y190870*
X291916Y189745*
X292734Y189370*
X293279*
X294097Y189745*
X294643Y190870*
X294916Y192745*
Y193870*
X294643Y195745*
X294097Y196870*
X293279Y197245*
X292734*
X50370Y171745D02*
X50916Y172120D01*
X51734Y173245*
Y165370*
X57734Y173245D02*
X55006D01*
X54734Y169870*
X55006Y170245*
X55825Y170620*
X56643*
X57461Y170245*
X58006Y169495*
X58279Y168370*
X58006Y167620*
X57734Y166495*
X57188Y165745*
X56370Y165370*
X55552*
X54734Y165745*
X54461Y166120*
X54188Y166870*
X139597Y171745D02*
X140143Y172120D01*
X140961Y173245*
Y165370*
X143416Y171745D02*
X143961Y172120D01*
X144779Y173245*
Y165370*
X148870Y173245D02*
X148052Y172870D01*
X147506Y171745*
X147234Y169870*
Y168745*
X147506Y166870*
X148052Y165745*
X148870Y165370*
X149416*
X150234Y165745*
X150779Y166870*
X151052Y168745*
Y169870*
X150779Y171745*
X150234Y172870*
X149416Y173245*
X148870*
X176370Y171370D02*
X188370D01*
X182370Y165370D02*
Y177370D01*
X188643Y179170D02*
X188425Y179770D01*
X187988Y180370*
X187552Y180670*
X186679*
X186243Y180370*
X185806Y179770*
X185588Y179170*
X185370Y178270*
Y176770*
X185588Y175870*
X185806Y175270*
X186243Y174670*
X186679Y174370*
X187552*
X187988Y174670*
X188425Y175270*
X188643Y175870*
X209006Y173245D02*
X211188Y169495D01*
Y165370*
X213370Y173245D02*
X211188Y169495D01*
X215825Y173245D02*
Y165370D01*
Y173245D02*
X219370D01*
X215825Y169495D02*
X218006D01*
X215825Y165370D02*
X219370D01*
X225643Y172120D02*
X225097Y172870D01*
X224279Y173245*
X223188*
X222370Y172870*
X221825Y172120*
Y171370*
X222097Y170620*
X222370Y170245*
X222916Y169870*
X224552Y169120*
X225097Y168745*
X225370Y168370*
X225643Y167620*
Y166495*
X225097Y165745*
X224279Y165370*
X223188*
X222370Y165745*
X221825Y166495*
X262188Y172120D02*
Y165370D01*
X259734Y168745D02*
X264643D01*
X272006Y174745D02*
X267097Y162745D01*
X274461Y168745D02*
X279370D01*
X283461Y173245D02*
X282643Y172870D01*
X282097Y171745*
X281825Y169870*
Y168745*
X282097Y166870*
X282643Y165745*
X283461Y165370*
X284006*
X284825Y165745*
X285370Y166870*
X285643Y168745*
Y169870*
X285370Y171745*
X284825Y172870*
X284006Y173245*
X283461*
X288370Y166120D02*
X288097Y165745D01*
X288370Y165370*
X288643Y165745*
X288370Y166120*
X292734Y173245D02*
X291916Y172870D01*
X291370Y171745*
X291097Y169870*
Y168745*
X291370Y166870*
X291916Y165745*
X292734Y165370*
X293279*
X294097Y165745*
X294643Y166870*
X294916Y168745*
Y169870*
X294643Y171745*
X294097Y172870*
X293279Y173245*
X292734*
X53097Y149245D02*
X50370Y143995D01*
X54461*
X53097Y149245D02*
Y141370D01*
X60734Y149245D02*
X58006Y141370D01*
X56916Y149245D02*
X60734D01*
X140552Y147370D02*
Y147745D01*
X140825Y148495*
X141097Y148870*
X141643Y149245*
X142734*
X143279Y148870*
X143552Y148495*
X143825Y147745*
Y146995*
X143552Y146245*
X143006Y145120*
X140279Y141370*
X144097*
X148188Y149245D02*
X147370Y148870D01*
X146825Y147745*
X146552Y145870*
Y144745*
X146825Y142870*
X147370Y141745*
X148188Y141370*
X148734*
X149552Y141745*
X150097Y142870*
X150370Y144745*
Y145870*
X150097Y147745*
X149552Y148870*
X148734Y149245*
X148188*
X176370Y147370D02*
X188370D01*
X182370Y141370D02*
Y153370D01*
X185370Y156670D02*
Y150370D01*
Y156670D02*
X186897D01*
X187552Y156370*
X187988Y155770*
X188206Y155170*
X188425Y154270*
Y152770*
X188206Y151870*
X187988Y151270*
X187552Y150670*
X186897Y150370*
X185370*
X209006Y149245D02*
X211188Y145495D01*
Y141370*
X213370Y149245D02*
X211188Y145495D01*
X215825Y149245D02*
Y141370D01*
Y149245D02*
X219370D01*
X215825Y145495D02*
X218006D01*
X215825Y141370D02*
X219370D01*
X225643Y148120D02*
X225097Y148870D01*
X224279Y149245*
X223188*
X222370Y148870*
X221825Y148120*
Y147370*
X222097Y146620*
X222370Y146245*
X222916Y145870*
X224552Y145120*
X225097Y144745*
X225370Y144370*
X225643Y143620*
Y142495*
X225097Y141745*
X224279Y141370*
X223188*
X222370Y141745*
X221825Y142495*
X262188Y148120D02*
Y141370D01*
X259734Y144745D02*
X264643D01*
X272006Y150745D02*
X267097Y138745D01*
X274461Y144745D02*
X279370D01*
X283461Y149245D02*
X282643Y148870D01*
X282097Y147745*
X281825Y145870*
Y144745*
X282097Y142870*
X282643Y141745*
X283461Y141370*
X284006*
X284825Y141745*
X285370Y142870*
X285643Y144745*
Y145870*
X285370Y147745*
X284825Y148870*
X284006Y149245*
X283461*
X288370Y142120D02*
X288097Y141745D01*
X288370Y141370*
X288643Y141745*
X288370Y142120*
X292734Y149245D02*
X291916Y148870D01*
X291370Y147745*
X291097Y145870*
Y144745*
X291370Y142870*
X291916Y141745*
X292734Y141370*
X293279*
X294097Y141745*
X294643Y142870*
X294916Y144745*
Y145870*
X294643Y147745*
X294097Y148870*
X293279Y149245*
X292734*
X50916Y125245D02*
X53916D01*
X52279Y122245*
X53097*
X53643Y121870*
X53916Y121495*
X54188Y120370*
Y119620*
X53916Y118495*
X53370Y117745*
X52552Y117370*
X51734*
X50916Y117745*
X50643Y118120*
X50370Y118870*
X60188Y122620D02*
X59916Y121495D01*
X59370Y120745*
X58552Y120370*
X58279*
X57461Y120745*
X56916Y121495*
X56643Y122620*
Y122995*
X56916Y124120*
X57461Y124870*
X58279Y125245*
X58552*
X59370Y124870*
X59916Y124120*
X60188Y122620*
Y120745*
X59916Y118870*
X59370Y117745*
X58552Y117370*
X58006*
X57188Y117745*
X56916Y118495*
X62916Y118120D02*
X62643Y117745D01*
X62916Y117370*
X63188Y117745*
X62916Y118120*
X66188Y125245D02*
X69188D01*
X67552Y122245*
X68370*
X68916Y121870*
X69188Y121495*
X69461Y120370*
Y119620*
X69188Y118495*
X68643Y117745*
X67825Y117370*
X67006*
X66188Y117745*
X65916Y118120*
X65643Y118870*
X75734Y125245D02*
X73006Y117370D01*
X71916Y125245D02*
X75734D01*
X147234D02*
X144506Y117370D01*
X143416Y125245D02*
X147234D01*
X176370Y123370D02*
X188370D01*
X182370Y117370D02*
Y129370D01*
X185370Y132670D02*
Y126370D01*
Y132670D02*
X188206D01*
X185370Y129670D02*
X187116D01*
X185370Y126370D02*
X188206D01*
X209006Y125245D02*
X211188Y121495D01*
Y117370*
X213370Y125245D02*
X211188Y121495D01*
X215825Y125245D02*
Y117370D01*
Y125245D02*
X219370D01*
X215825Y121495D02*
X218006D01*
X215825Y117370D02*
X219370D01*
X225643Y124120D02*
X225097Y124870D01*
X224279Y125245*
X223188*
X222370Y124870*
X221825Y124120*
Y123370*
X222097Y122620*
X222370Y122245*
X222916Y121870*
X224552Y121120*
X225097Y120745*
X225370Y120370*
X225643Y119620*
Y118495*
X225097Y117745*
X224279Y117370*
X223188*
X222370Y117745*
X221825Y118495*
X262188Y124120D02*
Y117370D01*
X259734Y120745D02*
X264643D01*
X272006Y126745D02*
X267097Y114745D01*
X274461Y120745D02*
X279370D01*
X283461Y125245D02*
X282643Y124870D01*
X282097Y123745*
X281825Y121870*
Y120745*
X282097Y118870*
X282643Y117745*
X283461Y117370*
X284006*
X284825Y117745*
X285370Y118870*
X285643Y120745*
Y121870*
X285370Y123745*
X284825Y124870*
X284006Y125245*
X283461*
X288370Y118120D02*
X288097Y117745D01*
X288370Y117370*
X288643Y117745*
X288370Y118120*
X292734Y125245D02*
X291916Y124870D01*
X291370Y123745*
X291097Y121870*
Y120745*
X291370Y118870*
X291916Y117745*
X292734Y117370*
X293279*
X294097Y117745*
X294643Y118870*
X294916Y120745*
Y121870*
X294643Y123745*
X294097Y124870*
X293279Y125245*
X292734*
X50370Y99745D02*
X50916Y100120D01*
X51734Y101245*
Y93370*
X54461Y99370D02*
Y99745D01*
X54734Y100495*
X55006Y100870*
X55552Y101245*
X56643*
X57188Y100870*
X57461Y100495*
X57734Y99745*
Y98995*
X57461Y98245*
X56916Y97120*
X54188Y93370*
X58006*
X62097Y101245D02*
X61279Y100870D01*
X60734Y99745*
X60461Y97870*
Y96745*
X60734Y94870*
X61279Y93745*
X62097Y93370*
X62643*
X63461Y93745*
X64006Y94870*
X64279Y96745*
Y97870*
X64006Y99745*
X63461Y100870*
X62643Y101245*
X62097*
X146006D02*
X143279Y95995D01*
X147370*
X146006Y101245D02*
Y93370D01*
X176370Y99370D02*
X188370D01*
X182370Y93370D02*
Y105370D01*
X185370Y108670D02*
Y102370D01*
Y108670D02*
X188206D01*
X185370Y105670D02*
X187116D01*
X209006Y101245D02*
X211188Y97495D01*
Y93370*
X213370Y101245D02*
X211188Y97495D01*
X215825Y101245D02*
Y93370D01*
Y101245D02*
X219370D01*
X215825Y97495D02*
X218006D01*
X215825Y93370D02*
X219370D01*
X225643Y100120D02*
X225097Y100870D01*
X224279Y101245*
X223188*
X222370Y100870*
X221825Y100120*
Y99370*
X222097Y98620*
X222370Y98245*
X222916Y97870*
X224552Y97120*
X225097Y96745*
X225370Y96370*
X225643Y95620*
Y94495*
X225097Y93745*
X224279Y93370*
X223188*
X222370Y93745*
X221825Y94495*
X262188Y100120D02*
Y93370D01*
X259734Y96745D02*
X264643D01*
X272006Y102745D02*
X267097Y90745D01*
X274461Y96745D02*
X279370D01*
X283461Y101245D02*
X282643Y100870D01*
X282097Y99745*
X281825Y97870*
Y96745*
X282097Y94870*
X282643Y93745*
X283461Y93370*
X284006*
X284825Y93745*
X285370Y94870*
X285643Y96745*
Y97870*
X285370Y99745*
X284825Y100870*
X284006Y101245*
X283461*
X288370Y94120D02*
X288097Y93745D01*
X288370Y93370*
X288643Y93745*
X288370Y94120*
X292734Y101245D02*
X291916Y100870D01*
X291370Y99745*
X291097Y97870*
Y96745*
X291370Y94870*
X291916Y93745*
X292734Y93370*
X293279*
X294097Y93745*
X294643Y94870*
X294916Y96745*
Y97870*
X294643Y99745*
X294097Y100870*
X293279Y101245*
X292734*
X53097Y77245D02*
X50370Y71995D01*
X54461*
X53097Y77245D02*
Y69370D01*
X60461Y74620D02*
X60188Y73495D01*
X59643Y72745*
X58825Y72370*
X58552*
X57734Y72745*
X57188Y73495*
X56916Y74620*
Y74995*
X57188Y76120*
X57734Y76870*
X58552Y77245*
X58825*
X59643Y76870*
X60188Y76120*
X60461Y74620*
Y72745*
X60188Y70870*
X59643Y69745*
X58825Y69370*
X58279*
X57461Y69745*
X57188Y70495*
X63188Y70120D02*
X62916Y69745D01*
X63188Y69370*
X63461Y69745*
X63188Y70120*
X66188Y75370D02*
Y75745D01*
X66461Y76495*
X66734Y76870*
X67279Y77245*
X68370*
X68916Y76870*
X69188Y76495*
X69461Y75745*
Y74995*
X69188Y74245*
X68643Y73120*
X65916Y69370*
X69734*
X72188Y75745D02*
X72734Y76120D01*
X73552Y77245*
Y69370*
X143688Y75370D02*
Y75745D01*
X143961Y76495*
X144234Y76870*
X144779Y77245*
X145870*
X146416Y76870*
X146688Y76495*
X146961Y75745*
Y74995*
X146688Y74245*
X146143Y73120*
X143416Y69370*
X147234*
X176370Y75370D02*
X188370D01*
X182370Y69370D02*
Y81370D01*
X188643Y83170D02*
X188425Y83770D01*
X187988Y84370*
X187552Y84670*
X186679*
X186243Y84370*
X185806Y83770*
X185588Y83170*
X185370Y82270*
Y80770*
X185588Y79870*
X185806Y79270*
X186243Y78670*
X186679Y78370*
X187552*
X187988Y78670*
X188425Y79270*
X188643Y79870*
Y80770*
X187552D02*
X188643D01*
X209006Y77245D02*
X211188Y73495D01*
Y69370*
X213370Y77245D02*
X211188Y73495D01*
X215825Y77245D02*
Y69370D01*
Y77245D02*
X219370D01*
X215825Y73495D02*
X218006D01*
X215825Y69370D02*
X219370D01*
X225643Y76120D02*
X225097Y76870D01*
X224279Y77245*
X223188*
X222370Y76870*
X221825Y76120*
Y75370*
X222097Y74620*
X222370Y74245*
X222916Y73870*
X224552Y73120*
X225097Y72745*
X225370Y72370*
X225643Y71620*
Y70495*
X225097Y69745*
X224279Y69370*
X223188*
X222370Y69745*
X221825Y70495*
X262188Y76120D02*
Y69370D01*
X259734Y72745D02*
X264643D01*
X272006Y78745D02*
X267097Y66745D01*
X274461Y72745D02*
X279370D01*
X283461Y77245D02*
X282643Y76870D01*
X282097Y75745*
X281825Y73870*
Y72745*
X282097Y70870*
X282643Y69745*
X283461Y69370*
X284006*
X284825Y69745*
X285370Y70870*
X285643Y72745*
Y73870*
X285370Y75745*
X284825Y76870*
X284006Y77245*
X283461*
X288370Y70120D02*
X288097Y69745D01*
X288370Y69370*
X288643Y69745*
X288370Y70120*
X292734Y77245D02*
X291916Y76870D01*
X291370Y75745*
X291097Y73870*
Y72745*
X291370Y70870*
X291916Y69745*
X292734Y69370*
X293279*
X294097Y69745*
X294643Y70870*
X294916Y72745*
Y73870*
X294643Y75745*
X294097Y76870*
X293279Y77245*
X292734*
X50643Y51370D02*
Y51745D01*
X50916Y52495*
X51188Y52870*
X51734Y53245*
X52825*
X53370Y52870*
X53643Y52495*
X53916Y51745*
Y50995*
X53643Y50245*
X53097Y49120*
X50370Y45370*
X54188*
X60461Y53245D02*
X57734Y45370D01*
X56643Y53245D02*
X60461D01*
X143688Y51370D02*
Y51745D01*
X143961Y52495*
X144234Y52870*
X144779Y53245*
X145870*
X146416Y52870*
X146688Y52495*
X146961Y51745*
Y50995*
X146688Y50245*
X146143Y49120*
X143416Y45370*
X147234*
X176370Y51370D02*
X188370D01*
X182370Y45370D02*
Y57370D01*
X185370Y60670D02*
Y54370D01*
X188425Y60670D02*
Y54370D01*
X185370Y57670D02*
X188425D01*
X209006Y53245D02*
X211188Y49495D01*
Y45370*
X213370Y53245D02*
X211188Y49495D01*
X215825Y53245D02*
Y45370D01*
Y53245D02*
X219370D01*
X215825Y49495D02*
X218006D01*
X215825Y45370D02*
X219370D01*
X225643Y52120D02*
X225097Y52870D01*
X224279Y53245*
X223188*
X222370Y52870*
X221825Y52120*
Y51370*
X222097Y50620*
X222370Y50245*
X222916Y49870*
X224552Y49120*
X225097Y48745*
X225370Y48370*
X225643Y47620*
Y46495*
X225097Y45745*
X224279Y45370*
X223188*
X222370Y45745*
X221825Y46495*
X262188Y52120D02*
Y45370D01*
X259734Y48745D02*
X264643D01*
X272006Y54745D02*
X267097Y42745D01*
X274461Y48745D02*
X279370D01*
X283461Y53245D02*
X282643Y52870D01*
X282097Y51745*
X281825Y49870*
Y48745*
X282097Y46870*
X282643Y45745*
X283461Y45370*
X284006*
X284825Y45745*
X285370Y46870*
X285643Y48745*
Y49870*
X285370Y51745*
X284825Y52870*
X284006Y53245*
X283461*
X288370Y46120D02*
X288097Y45745D01*
X288370Y45370*
X288643Y45745*
X288370Y46120*
X292734Y53245D02*
X291916Y52870D01*
X291370Y51745*
X291097Y49870*
Y48745*
X291370Y46870*
X291916Y45745*
X292734Y45370*
X293279*
X294097Y45745*
X294643Y46870*
X294916Y48745*
Y49870*
X294643Y51745*
X294097Y52870*
X293279Y53245*
X292734*
G74*
X0Y0D02*
M02*
