M48
;FILE_FORMAT=2:4
INCH,LZ
FMAT,2
ICI,OFF
;TYPE=PLATED
T1C.015
T2C.02
T3C.027
T4C.0315
T5C.03543
T6C.037
T7C.03937
T8C.042
T9C.047
T10C.04724
T11C.04921
T12C.08
T13C.12
T14C.12598
%
M72
G90
G93X0Y0
T1C.015F095S3
X033297Y032457
X033697Y032057
X034877Y030037
X035277Y029637
X065487Y032137
X032537Y035607
X032137Y035207
X031737Y035607
X031337Y035207
X030937Y035607
X030537Y035207
X030137Y035607
X029737Y035207
X029337Y035607
X028937Y035207
X028537Y035607
X028137Y035137
X028137Y036087
X028097Y034687
X027737Y036487
X027347Y036887
X026297Y035937
X025897Y035537
X025497Y035937
X025097Y035537
X024697Y035937
X024297Y035537
X023897Y035937
X022807Y036927
X022807Y037727
X022407Y037327
X022407Y038127
X018487Y037187
X014897Y043327
X014927Y039267
X014947Y039767
X015287Y042257
X015687Y042657
X016817Y039427
X016817Y041977
X017247Y043227
X017747Y042827
X018147Y042427
X018547Y042027
X018947Y041627
X020237Y041227
X020637Y040827
X021037Y040427
X022527Y039627
X022827Y042027
X022827Y042827
X022827Y041227
X022827Y040427
X023027Y043227
X023127Y039827
X023227Y041627
X023227Y042427
X023227Y040827
X030007Y046607
X029607Y046207
X029607Y047007
X029007Y047797
X028607Y045807
X028477Y045277
X027097Y048187
X026297Y044717
X025487Y047797
X024647Y045807
X024647Y047407
X024647Y046607
X024247Y046207
X024247Y047007
X024187Y045407
X020067Y043557
X019337Y043767
X016147Y046417
X015747Y046817
X014487Y045217
X014087Y044817
X013687Y045217
X013287Y044817
X012887Y045217
X012487Y044817
X013837Y051577
X014337Y051177
X014927Y049457
X015327Y049057
X015647Y051177
X015727Y049457
X016047Y051577
X019687Y051957
X020087Y052357
X020487Y052757
X022277Y051277
X022677Y050877
X023077Y050477
X023477Y050077
X023877Y049677
X024277Y049277
X033067Y049967
X036197Y060677
X035797Y060277
X034777Y053967
X033577Y053977
X032377Y053997
X012937Y053427
X012537Y053827
X012137Y053427
X011737Y053827
X011337Y053427
T2C.02F197S55
X029937Y023437
X029937Y024937
X031437Y023437
X033937Y023437
X033937Y024937
X036437Y023437
X038937Y023437
X039417Y025437
X041437Y023437
X043637Y025437
X043937Y023437
X045037Y025437
X046437Y023437
X046437Y025437
X047737Y025647
X048937Y023437
X048947Y025337
X050937Y023437
X053437Y023437
X053437Y024937
X055937Y023437
X055937Y024937
X058437Y023437
X060937Y023437
X063437Y023437
X065937Y023437
X068437Y024437
X068437Y023437
X074437Y026437
X074437Y028437
X074187Y030847
X073437Y026937
X070937Y026937
X068437Y026937
X067747Y028937
X064337Y026877
X06388Y029577
X063437Y025937
X063237Y028237
X062687Y027727
X060937Y025937
X058437Y026437
X057027Y028187
X055937Y026437
X036977Y026017
X033327Y029377
X030027Y029357
X008837Y037437
X019087Y036727
X020447Y036647
X020707Y033857
X024767Y033857
X026647Y034217
X026847Y035517
X036637Y037837
X037737Y037837
X040437Y036237
X040437Y037437
X042937Y037437
X042937Y036237
X045437Y036237
X045437Y037437
X047937Y036237
X047937Y037437
X050437Y037437
X052937Y037437
X055437Y037437
X057937Y037437
X060437Y037437
X062937Y037437
X064097Y033207
X065377Y030937
X065437Y037437
X067937Y037437
X070437Y032937
X070437Y037437
X070437Y035437
X036337Y039737
X036337Y038737
X036337Y041437
X033537Y039937
X033537Y041437
X032217Y042757
X032037Y041437
X028357Y043187
X027807Y038967
X027127Y043307
X027127Y039307
X020937Y039437
X020137Y040137
X019437Y039437
X018407Y039427
X012057Y038497
X004937Y040937
X004937Y038437
X004937Y043437
X004937Y045937
X010937Y045937
X018437Y047137
X018437Y048137
X019437Y048137
X019437Y047137
X020437Y047137
X020437Y048137
X021647Y045817
X027617Y044387
X028337Y044237
X030737Y047037
X031137Y048237
X032067Y045807
X034337Y046937
X036237Y044537
X036237Y046037
X036237Y047637
X034937Y049437
X034937Y050937
X033577Y051597
X032757Y051337
X031197Y050777
X026877Y051657
X026467Y049087
X025387Y051787
X020437Y049137
X019437Y049137
X018437Y049137
X013767Y049157
X013067Y049057
X011937Y050937
X010937Y048437
X010937Y051937
X010937Y049937
X004937Y050937
X004937Y048437
X004937Y053437
X004937Y055937
X004937Y059937
X010637Y054037
X014937Y058437
X015937Y058437
X016937Y058437
X017247Y055027
X017717Y060227
X017717Y056227
X020067Y054717
X027267Y060177
X032437Y056437
X034397Y055377
X034897Y057017
X035137Y059937
X035137Y058937
X035137Y057937
X036337Y061537
X026037Y062737
X024657Y061067
X016267Y062837
X013867Y062877
X011437Y062437
X009437Y062437
X007437Y062437
X004937Y062437
T3C.027F197S55
X033097Y058037
X034097Y058037
T4C.0315F197S55
X031777Y025481
X031777Y028473
T5C.03543F197S55
X019237Y028257
X020237Y028257
X023237Y028257
X024237Y028257
X027237Y028257
X028237Y028257
X017177Y034907
X017177Y036907
X017177Y035907
X016037Y031857
X015037Y031857
X011837Y031857
X010837Y031857
X007637Y031857
X006637Y031857
X010867Y043247
X015797Y045527
X021607Y051367
X026007Y049807
X028997Y049107
X030337Y060347
X030337Y061347
X022607Y061697
X022607Y062697
X020997Y057117
X019997Y057117
X018527Y056797
X018247Y053627
X016247Y053627
X005537Y058337
X005537Y057337
T6C.037F197S55
X065347Y026737
X066347Y027737
X067347Y026737
X035577Y037847
X035577Y040547
X034577Y037847
X034577Y040547
X007987Y039787
X006987Y039787
X006987Y044887
X006987Y049987
X006987Y055087
X007987Y049987
X007987Y055087
X007987Y044887
X041637Y063867
X041637Y064867
X041637Y065867
X039437Y063867
X039437Y064867
X039437Y065867
X037237Y063867
X037237Y064867
X037237Y065867
X035037Y065867
X035037Y064867
X035037Y063867
X032837Y065867
X032837Y064867
X032837Y063867
X030637Y064867
X030637Y065867
X030637Y063867
X007987Y060187
X006987Y060187
T7C.03937F197S55
X00948Y034537
X010464Y034537
X011448Y034537
X012433Y034537
X013417Y034537
X068237Y034037
X072961Y034037
T8C.042F139S55
X005137Y026957
X009337Y026957
X013537Y026957
X017737Y027457
X021737Y027457
X025737Y027457
X067937Y036191
X066937Y036191
X065937Y036191
X064937Y036191
X063937Y036191
X062937Y036191
X061937Y036191
X060937Y036191
X059937Y036191
X058937Y036191
X057937Y036191
X056937Y036191
X055937Y036191
X054937Y036191
X053937Y036191
X052937Y036191
X051937Y036191
X050937Y036191
X049937Y036191
X048937Y036191
X025737Y031457
X021737Y031457
X017737Y031457
X013537Y030957
X009337Y030957
X005137Y030957
X035087Y045187
X035087Y044187
T9C.047F139S55
X038837Y029827
X041397Y029827
X048937Y029827
X051497Y029827
X058887Y029827
X061447Y029827
X068997Y029827
X071557Y029827
X071557Y031587
X068997Y031587
X061447Y031587
X058887Y031587
X051497Y031587
X048937Y031587
X041397Y031587
X038837Y031587
X007617Y035377
X007617Y037137
X005057Y037137
X005057Y035377
T10C.04724F139S55
X005937Y010431
X005937Y013187
X005937Y011809
X005937Y014565
X072837Y010431
X072837Y011809
X072837Y013187
X072837Y009053
X072837Y014565
X072837Y015943
X072837Y017321
X026031Y024437
X024653Y024437
X023275Y024437
X021897Y024437
X020519Y024437
X019141Y024437
X017763Y024437
X015752Y024437
X014374Y024437
X012996Y024437
X011618Y024437
X01024Y024437
X008862Y024437
X005937Y015943
X009148Y064937
X010526Y064937
X012781Y064937
X014159Y064937
X015537Y064937
X016915Y064937
X018293Y064937
X02057Y064937
X021948Y064937
X023326Y064937
X024704Y064937
X026948Y064937
X028326Y064937
T11C.04921F139S55
X026883Y055757
X028851Y055757
T12C.08F074S55
X009137Y008887
X009137Y013187
X017637Y013187
X017637Y008887
X024097Y008937
X028037Y008937
X031977Y008937
X041197Y008937
X045137Y008937
X049077Y008937
X058297Y008937
X062237Y008937
X066177Y008937
X066177Y018037
X058297Y018037
X049077Y018037
X041197Y018037
X031977Y018037
X024097Y018037
X017637Y017487
X009137Y017487
T13C.12F035S794
X037819Y036191
X072465Y036191
X072465Y061781
X037819Y061781
T14C.12598F035S794
X005907Y005907
X005907Y020477
X072837Y005907
X072837Y020477
X072837Y024407
X045117Y030707
X005907Y024407
X005907Y064967
X072837Y064967
M30
