*
*
G04 PADS VX.2 Build Number: 5060570 generated Gerber (RS-274-X) file*
G04 PC Version=2.1*
*
%IN "HFC3100D_Module_Display"*%
*
%MOIN*%
*
%FSLAX35Y35*%
*
*
*
*
G04 PC Standard Apertures*
*
*
G04 Thermal Relief Aperture macro.*
%AMTER*
1,1,$1,0,0*
1,0,$1-$2,0,0*
21,0,$3,$4,0,0,45*
21,0,$3,$4,0,0,135*
%
*
*
G04 Annular Aperture macro.*
%AMANN*
1,1,$1,0,0*
1,0,$2,0,0*
%
*
*
G04 Odd Aperture macro.*
%AMODD*
1,1,$1,0,0*
1,0,$1-0.005,0,0*
%
*
*
G04 PC Custom Aperture Macros*
*
*
*
*
*
*
G04 PC Aperture Table*
*
%ADD010C,0.001*%
%ADD011C,0.012*%
%ADD014C,0.01*%
%ADD019C,0.06*%
%ADD020C,0.07*%
%ADD038C,0.08*%
%ADD051O,0.07X0.09*%
%ADD053C,0.07299*%
%ADD059C,0.12811*%
%ADD060O,0.09X0.07*%
%ADD064C,0.08087*%
%ADD066C,0.09*%
%ADD067R,0.07299X0.07299*%
%ADD069R,0.12811X0.12811*%
%ADD082C,0.09661*%
%ADD086C,0.1*%
%ADD097R,0.08X0.08*%
%ADD099C,0.13598*%
%ADD111R,0.05724X0.08087*%
%ADD112R,0.08087X0.05724*%
%ADD113R,0.05X0.05*%
%ADD114R,0.05921X0.04937*%
%ADD115R,0.04937X0.05921*%
%ADD116O,0.0352X0.09504*%
%ADD117O,0.084X0.034*%
%ADD124O,0.08X0.1*%
%ADD125C,0.13*%
%ADD126C,0.16*%
%ADD127C,0.19*%
%ADD128O,0.034X0.084*%
%ADD133O,0.02181X0.06906*%
%ADD134O,0.06906X0.02181*%
%ADD138R,0.095X0.048*%
%ADD139R,0.095X0.138*%
%ADD140O,0.06X0.0242*%
*
*
*
*
G04 PC Circuitry*
G04 Layer Name HFC3100D_Module_Display - circuitry*
%LPD*%
*
*
G04 PC Custom Flashes*
G04 Layer Name HFC3100D_Module_Display - flashes*
%LPD*%
*
*
G04 PC Circuitry*
G04 Layer Name HFC3100D_Module_Display - circuitry*
%LPD*%
*
G54D10*
G54D11*
G01X39370Y49370D02*
G75*
G03X49370Y39370I10000J0D01*
G01X39370Y49370D02*
Y214470D01*
X49370Y224470D02*
G03X39370Y214470I0J-10000D01*
G01Y234470D02*
G03X49370Y224470I10000J0D01*
G01X39370Y234470D02*
Y659370D01*
X49370Y669370D02*
G03X39370Y659370I0J-10000D01*
G01X49370Y669370D02*
X738070D01*
X748070Y659370D02*
G03X738070Y669370I-10000J0D01*
G01X748070Y659370D02*
Y234470D01*
X738070Y224470D02*
G03X748070Y234470I0J10000D01*
G01Y214470D02*
G03X738070Y224470I-10000J0D01*
G01X748070Y214470D02*
Y49370D01*
X738070Y39370D02*
G03X748070Y49370I0J10000D01*
G01X738070Y39370D02*
X49370D01*
X382370Y604370D02*
G03X377370Y599370I0J-5000D01*
G01X382370Y604370D02*
X386370D01*
G03X391370Y609370I0J5000*
G01Y622370*
X396370Y627370D02*
G03X391370Y622370I0J-5000D01*
G01X396370Y627370D02*
X706206D01*
X711206Y622370D02*
G03X706206Y627370I-5000J0D01*
G01X711206Y622370D02*
Y609370D01*
G03X716206Y604370I5000J0*
G01X731370*
X736370Y599370D02*
G03X731370Y604370I-5000J0D01*
G01X736370Y599370D02*
Y388370D01*
X731370Y383370D02*
G03X736370Y388370I0J5000D01*
G01X731370Y383370D02*
X382370D01*
X377370Y388370D02*
G03X382370Y383370I5000J0D01*
G01X377370Y388370D02*
Y599370D01*
X19370Y224470D02*
X768070D01*
X19370D02*
X24370Y229470D01*
Y219470*
X19370Y224470*
X768070D02*
X763070Y229470D01*
Y219470*
X768070Y224470*
G54D14*
X774370Y231495D02*
X778006Y218370D01*
X781643Y231495D02*
X778006Y218370D01*
X785734Y215870D02*
X795279D01*
X804825Y228370D02*
X804370Y229620D01*
X803461Y230870*
X802552Y231495*
X800734*
X799825Y230870*
X798916Y229620*
X798461Y228370*
X798006Y226495*
Y223370*
X798461Y221495*
X798916Y220245*
X799825Y218995*
X800734Y218370*
X802552*
X803461Y218995*
X804370Y220245*
X804825Y221495*
X808916Y231495D02*
Y222120D01*
X809370Y220245*
X810279Y218995*
X811643Y218370*
X812552*
X813916Y218995*
X814825Y220245*
X815279Y222120*
Y231495*
X822552D02*
Y218370D01*
X819370Y231495D02*
X825734D01*
G54D19*
X330970Y580370D03*
X340970D03*
G54D20*
X306370Y638670D03*
Y648670D03*
Y658670D03*
X328370Y638670D03*
Y648670D03*
Y658670D03*
X350370Y638670D03*
Y648670D03*
Y658670D03*
X372370Y638670D03*
Y648670D03*
Y658670D03*
X394370Y638670D03*
Y648670D03*
Y658670D03*
X416370Y638670D03*
Y648670D03*
Y658670D03*
G54D38*
X69870Y601870D03*
X79870D03*
X69870Y550870D03*
X79870D03*
X69870Y499870D03*
X79870D03*
X69870Y448870D03*
X79870D03*
X69870Y397870D03*
X79870D03*
X355770Y378470D03*
X345770D03*
X355770Y405470D03*
X345770D03*
X663470Y277370D03*
X653470Y267370D03*
G54D51*
X66370Y318570D03*
X76370D03*
X108370D03*
X118370D03*
X150370D03*
X160370D03*
X282370Y282570D03*
X272370D03*
X242370D03*
X232370D03*
X202370D03*
X192370D03*
X209970Y571170D03*
X199970D03*
G54D53*
X104643Y345370D03*
X114485D03*
X124328D03*
X134170D03*
X182470Y536270D03*
X162470D03*
X171770Y369070D03*
Y359070D03*
Y349070D03*
X157970Y455270D03*
X260070Y498070D03*
X216070Y513670D03*
X185270Y567970D03*
X317770Y284731D03*
Y254809D03*
X108670Y432470D03*
X289970Y491070D03*
G54D59*
X268828Y557570D03*
G54D60*
X55370Y573370D03*
Y583370D03*
X303370Y603470D03*
Y613470D03*
X226070Y616970D03*
Y626970D03*
G54D64*
X682370Y340370D03*
X729614D03*
G54D66*
X350870Y451870D03*
Y441870D03*
X51370Y269570D03*
Y309570D03*
X93370Y269570D03*
Y309570D03*
X135370Y269570D03*
Y309570D03*
X257370Y274570D03*
Y314570D03*
X217370Y274570D03*
Y314570D03*
X177370Y274570D03*
Y314570D03*
G54D67*
X94800Y345370D03*
G54D69*
X288513Y557570D03*
G54D82*
X105260Y649370D03*
X91480D03*
X182929D03*
X169150D03*
X155370D03*
X141591D03*
X127811D03*
X247039D03*
X233260D03*
X219480D03*
X205701D03*
X283260D03*
X269480D03*
X59370Y159429D03*
Y145650D03*
Y131870D03*
Y118091D03*
Y104311D03*
X728370Y90531D03*
Y104311D03*
Y118091D03*
Y131870D03*
Y145650D03*
Y159429D03*
Y173209D03*
X177631Y244370D03*
X191411D03*
X205191D03*
X218970D03*
X232750D03*
X246529D03*
X260309D03*
X88621D03*
X102401D03*
X116180D03*
X129960D03*
X143739D03*
X157519D03*
G54D86*
X50570Y371370D03*
Y353770D03*
X76170Y371370D03*
Y353770D03*
X413970Y315870D03*
Y298270D03*
X388370Y315870D03*
Y298270D03*
X514970Y315870D03*
Y298270D03*
X489370Y315870D03*
Y298270D03*
X614470Y315870D03*
Y298270D03*
X588870Y315870D03*
Y298270D03*
X715570Y315870D03*
Y298270D03*
X689970Y315870D03*
Y298270D03*
G54D97*
X673470Y267370D03*
G54D99*
X59070Y244070D03*
X451170Y307070D03*
X728370Y244070D03*
Y649670D03*
X59070D03*
Y59070D03*
Y204770D03*
X728370Y59070D03*
Y204770D03*
G54D111*
X741869Y315870D03*
X729271D03*
X657171Y289370D03*
X669769D03*
X660271Y309370D03*
X672869D03*
X660271Y321370D03*
X672869D03*
X640769Y315870D03*
X628171D03*
X541269D03*
X528671D03*
X191071Y302570D03*
X203669D03*
X191071Y314570D03*
X203669D03*
Y326570D03*
X191071D03*
X231071Y314570D03*
X243669D03*
X231071Y302570D03*
X243669D03*
Y326570D03*
X231071D03*
X271071Y302570D03*
X283669D03*
X271071Y314570D03*
X283669D03*
Y326570D03*
X271071D03*
X357069Y425570D03*
X344471D03*
X357069Y358470D03*
X344471D03*
X362071Y315870D03*
X374669D03*
X99071Y601870D03*
X111669D03*
X99071Y589870D03*
X111669D03*
X99071Y577870D03*
X111669D03*
X99071Y565870D03*
X111669D03*
X99071Y553870D03*
X111669D03*
X93371Y366170D03*
X105969D03*
X363269Y265670D03*
X350671D03*
X363269Y253670D03*
X350671D03*
X108169Y388170D03*
X95571D03*
X108169Y400170D03*
X95571D03*
X108169Y412170D03*
X95571D03*
X168169Y400170D03*
X155571D03*
X168169Y388170D03*
X155571D03*
Y412170D03*
X168169D03*
G54D112*
X347770Y521671D03*
Y534269D03*
X335770Y521671D03*
Y534269D03*
X323770Y521671D03*
Y534269D03*
X308670Y440071D03*
Y452669D03*
X320670Y440071D03*
Y452669D03*
X332670Y440071D03*
Y452669D03*
X153770Y352771D03*
Y365369D03*
X161370Y287271D03*
Y299869D03*
X149370D03*
Y287271D03*
X119370D03*
Y299869D03*
X107370D03*
Y287271D03*
X77370D03*
Y299869D03*
X65370D03*
Y287271D03*
G54D113*
X670901Y333870D03*
X662239D03*
X666570Y343370D03*
X361301Y278170D03*
X352639D03*
X356970Y287670D03*
G54D114*
X212670Y541501D03*
Y532839D03*
X264670Y485301D03*
Y476639D03*
X182870Y577939D03*
Y586601D03*
X321470Y603239D03*
Y611901D03*
X138670Y623201D03*
Y614539D03*
X150670Y623201D03*
Y614539D03*
X174670Y623201D03*
Y614539D03*
X162670Y623201D03*
Y614539D03*
X246570Y616439D03*
Y625101D03*
X200670Y532839D03*
Y541501D03*
X201070Y626301D03*
Y617639D03*
G54D115*
X202001Y427570D03*
X193339D03*
X318939Y507770D03*
X327601D03*
X158139Y550270D03*
X166801D03*
X178139D03*
X186801D03*
X130639Y484470D03*
X139301D03*
X273039Y338570D03*
X281701D03*
X233039D03*
X241701D03*
X193039D03*
X201701D03*
X117139Y366170D03*
X125801D03*
X408301Y254370D03*
X399639D03*
X308639Y427570D03*
X317301D03*
X638801Y289370D03*
X630139D03*
X136201Y420170D03*
X127539D03*
X249539Y438970D03*
X258201D03*
X249739Y397370D03*
X258401D03*
X200639Y553170D03*
X209301D03*
G54D116*
X172370Y602270D03*
X167370D03*
X162370D03*
X157370D03*
X152370D03*
X147370D03*
X142370D03*
X137370D03*
Y562270D03*
X142370D03*
X147370D03*
X152370D03*
X157370D03*
X162370D03*
X167370D03*
X172370D03*
G54D117*
X120570Y407670D03*
Y402670D03*
Y397670D03*
Y392670D03*
X143170D03*
Y397670D03*
Y402670D03*
Y407670D03*
G54D124*
X489370Y361909D03*
X499370D03*
X509370D03*
X519370D03*
X529370D03*
X539370D03*
X549370D03*
X559370D03*
X569370D03*
X579370D03*
X589370D03*
X599370D03*
X609370D03*
X619370D03*
X629370D03*
X639370D03*
X649370D03*
X659370D03*
X669370D03*
X679370D03*
G54D125*
X378189D03*
Y617815D03*
X724646D03*
Y361909D03*
G54D126*
X176370Y174870D03*
X91370D03*
X176370Y131870D03*
X91370D03*
X176370Y88870D03*
X91370D03*
G54D127*
X240970Y89370D03*
X280370D03*
X319770D03*
Y180370D03*
X240970D03*
X411970Y89370D03*
X451370D03*
X490770D03*
Y180370D03*
X411970D03*
X582970Y89370D03*
X622370D03*
X661770D03*
Y180370D03*
X582970D03*
G54D128*
X330670Y494070D03*
X325670D03*
X320670D03*
X315670D03*
Y471470D03*
X320670D03*
X325670D03*
X330670D03*
X343970Y570170D03*
X338970D03*
X333970D03*
X328970D03*
Y547570D03*
X333970D03*
X338970D03*
X343970D03*
G54D133*
X209134Y503511D03*
X207165D03*
X205197D03*
X203228D03*
X201260D03*
X199291D03*
X197323D03*
X195354D03*
X193386D03*
X191417D03*
X189449D03*
X187480D03*
X185512D03*
X183543D03*
X181575D03*
X179606D03*
Y458629D03*
X181575D03*
X183543D03*
X185512D03*
X187480D03*
X189449D03*
X191417D03*
X193386D03*
X195354D03*
X197323D03*
X199291D03*
X201260D03*
X203228D03*
X205197D03*
X207165D03*
X209134D03*
G54D134*
X216811Y466306D03*
Y468275D03*
Y470243D03*
Y472212D03*
Y474180D03*
Y476149D03*
Y478117D03*
Y480086D03*
Y482054D03*
Y484023D03*
Y485991D03*
Y487960D03*
Y489928D03*
Y491897D03*
Y493865D03*
Y495834D03*
X171929D03*
Y493865D03*
Y491897D03*
Y489928D03*
Y487960D03*
Y485991D03*
Y484023D03*
Y482054D03*
Y480086D03*
Y478117D03*
Y476149D03*
Y474180D03*
Y472212D03*
Y470243D03*
Y468275D03*
Y466306D03*
G54D138*
X215170Y589870D03*
Y598870D03*
Y607870D03*
G54D139*
X192370Y598870D03*
G54D140*
X242670Y389070D03*
Y386470D03*
Y383870D03*
Y381270D03*
Y378670D03*
Y376070D03*
Y373470D03*
Y370870D03*
Y368270D03*
Y365670D03*
X265470D03*
Y368270D03*
Y370870D03*
Y373470D03*
Y376070D03*
Y378670D03*
Y381270D03*
Y383870D03*
Y386470D03*
Y389070D03*
X242470Y430670D03*
Y428070D03*
Y425470D03*
Y422870D03*
Y420270D03*
Y417670D03*
Y415070D03*
Y412470D03*
Y409870D03*
Y407270D03*
X265270D03*
Y409870D03*
Y412470D03*
Y415070D03*
Y417670D03*
Y420270D03*
Y422870D03*
Y425470D03*
Y428070D03*
Y430670D03*
G74*
X0Y0D02*
M02*
