*
*
G04 PADS VX.2 Build Number: 5060570 generated Gerber (RS-274-X) file*
G04 PC Version=2.1*
*
%IN "HFC3100D_Module_Display"*%
*
%MOIN*%
*
%FSLAX35Y35*%
*
*
*
*
G04 PC Standard Apertures*
*
*
G04 Thermal Relief Aperture macro.*
%AMTER*
1,1,$1,0,0*
1,0,$1-$2,0,0*
21,0,$3,$4,0,0,45*
21,0,$3,$4,0,0,135*
%
*
*
G04 Annular Aperture macro.*
%AMANN*
1,1,$1,0,0*
1,0,$2,0,0*
%
*
*
G04 Odd Aperture macro.*
%AMODD*
1,1,$1,0,0*
1,0,$1-0.005,0,0*
%
*
*
G04 PC Custom Aperture Macros*
*
*
*
*
*
*
G04 PC Aperture Table*
*
%ADD010C,0.001*%
%ADD011C,0.012*%
%ADD014C,0.01*%
%ADD016C,0.01181*%
%ADD129C,0.006*%
*
*
*
*
G04 PC Circuitry*
G04 Layer Name HFC3100D_Module_Display - circuitry*
%LPD*%
*
*
G04 PC Custom Flashes*
G04 Layer Name HFC3100D_Module_Display - flashes*
%LPD*%
*
*
G04 PC Circuitry*
G04 Layer Name HFC3100D_Module_Display - circuitry*
%LPD*%
*
G54D10*
G54D11*
G01X366378Y629626D02*
X736457D01*
Y350098*
X366378*
Y629626*
X382126Y389350D02*
X386693D01*
Y383563*
X715039*
Y389350*
X720709*
Y591948*
X715039*
Y596161*
X386693*
Y591948*
X382126*
Y389350*
X413622Y422463D02*
G75*
G03X423178Y412107I10254J-126D01*
G01X423189Y412106D02*
X679016D01*
X679025D02*
G03X689213Y422474I-524J10705D01*
G01Y422460D02*
Y557539D01*
Y557540D02*
G03X679011Y567618I-10292J-215D01*
G01X679016D02*
X423189D01*
X423196D02*
G03X413622Y557547I603J-10160D01*
G01Y557539D02*
Y422460D01*
X685827Y390295D02*
X401339D01*
Y398169D02*
G03Y390295I497J-3937D01*
G01Y398169D02*
X685827D01*
X685831Y390296D02*
G03X685824Y398169I-610J3936D01*
G01X701535Y580846D02*
X401339D01*
Y588720D02*
G03Y580846I497J-3937D01*
G01Y588720D02*
X701535D01*
X701539Y580847D02*
G03X701533Y588721I-609J3936D01*
G01X494370Y368159D02*
Y355659D01*
X504370Y368159D02*
Y355659D01*
X514370Y368159D02*
Y355659D01*
X524370Y368159D02*
Y355659D01*
X534370Y368159D02*
Y355659D01*
X544370Y368159D02*
Y355659D01*
X554370Y368159D02*
Y355659D01*
X564370Y368159D02*
Y355659D01*
X574370Y368159D02*
Y355659D01*
X584370Y368159D02*
Y355659D01*
X594370Y368159D02*
Y355659D01*
X604370Y368159D02*
Y355659D01*
X614370Y368159D02*
Y355659D01*
X624370Y368159D02*
Y355659D01*
X634370Y368159D02*
Y355659D01*
X644370Y368159D02*
Y355659D01*
X654370Y368159D02*
Y355659D01*
X664370Y368159D02*
Y355659D01*
X674370Y368159D02*
Y355659D01*
X494370Y376909D02*
X489370Y371909D01*
X484370Y376909*
X494370*
X581870D02*
Y370659D01*
X579370Y375909D02*
Y371509D01*
X576870D02*
G03X579370I1250J250D01*
G01X576870D02*
Y375909D01*
X579370D02*
G03X576870I-1250J-250D01*
G01X385471Y362009D02*
G03X385471I-7301J0D01*
G01X731871Y361809D02*
G03X731871I-7301J0D01*
G01Y617809D02*
G03X731871I-7301J0D01*
G01X385471D02*
G03X385471I-7301J0D01*
G01X410070Y312771D02*
G03X406971Y315870I-3423J-324D01*
G01X406970D02*
X395370D01*
G03X392370Y312769I262J-3255*
G01Y312770D02*
Y301270D01*
Y301269D02*
G03X395369Y298270I3042J43D01*
G01X395370D02*
X406970D01*
X406973Y298271D02*
G03X410071Y301374I-583J3679D01*
G01X410070Y301370D02*
Y312770D01*
X404971Y307270D02*
G03X404971I-3801J0D01*
G01X511070Y312771D02*
G03X507971Y315870I-3423J-324D01*
G01X507970D02*
X496370D01*
G03X493370Y312769I262J-3255*
G01Y312770D02*
Y301270D01*
Y301269D02*
G03X496369Y298270I3042J43D01*
G01X496370D02*
X507970D01*
X507973Y298271D02*
G03X511071Y301374I-583J3679D01*
G01X511070Y301370D02*
Y312770D01*
X505971Y307270D02*
G03X505971I-3801J0D01*
G01X610570Y312771D02*
G03X607471Y315870I-3423J-324D01*
G01X607470D02*
X595870D01*
G03X592870Y312769I262J-3255*
G01Y312770D02*
Y301270D01*
Y301269D02*
G03X595869Y298270I3042J43D01*
G01X595870D02*
X607470D01*
X607473Y298271D02*
G03X610571Y301374I-583J3679D01*
G01X610570Y301370D02*
Y312770D01*
X605471Y307270D02*
G03X605471I-3801J0D01*
G01X711670Y312771D02*
G03X708571Y315870I-3423J-324D01*
G01X708570D02*
X696970D01*
G03X693970Y312769I262J-3255*
G01Y312770D02*
Y301270D01*
Y301269D02*
G03X696969Y298270I3042J43D01*
G01X696970D02*
X708570D01*
X708573Y298271D02*
G03X711671Y301374I-583J3679D01*
G01X711670Y301370D02*
Y312770D01*
X706571Y307270D02*
G03X706571I-3801J0D01*
G01X84970Y601870D02*
G03X84970I-10100J0D01*
G01X85570Y607270D02*
Y596470D01*
X85570*
Y607270D02*
G03Y596470I-10690J-5400D01*
G01Y607270D02*
X85570D01*
X69870Y597495D02*
Y596245D01*
X79870*
Y597495*
X76120Y596245D02*
X73620Y593745D01*
Y598745*
X76120Y596245*
Y593745*
Y596245D02*
Y598745D01*
X74245Y594370D02*
Y598120D01*
X74870Y597495D02*
Y594995D01*
X84970Y550870D02*
G03X84970I-10100J0D01*
G01X85570Y556270D02*
Y545470D01*
X85570*
Y556270D02*
G03Y545470I-10690J-5400D01*
G01Y556270D02*
X85570D01*
X69870Y546495D02*
Y545245D01*
X79870*
Y546495*
X76120Y545245D02*
X73620Y542745D01*
Y547745*
X76120Y545245*
Y542745*
Y545245D02*
Y547745D01*
X74245Y543370D02*
Y547120D01*
X74870Y546495D02*
Y543995D01*
X84970Y499870D02*
G03X84970I-10100J0D01*
G01X85570Y505270D02*
Y494470D01*
X85570*
Y505270D02*
G03Y494470I-10690J-5400D01*
G01Y505270D02*
X85570D01*
X69870Y495495D02*
Y494245D01*
X79870*
Y495495*
X76120Y494245D02*
X73620Y491745D01*
Y496745*
X76120Y494245*
Y491745*
Y494245D02*
Y496745D01*
X74245Y492370D02*
Y496120D01*
X74870Y495495D02*
Y492995D01*
X84970Y448870D02*
G03X84970I-10100J0D01*
G01X85570Y454270D02*
Y443470D01*
X85570*
Y454270D02*
G03Y443470I-10690J-5400D01*
G01Y454270D02*
X85570D01*
X69870Y444495D02*
Y443245D01*
X79870*
Y444495*
X76120Y443245D02*
X73620Y440745D01*
Y445745*
X76120Y443245*
Y440745*
Y443245D02*
Y445745D01*
X74245Y441370D02*
Y445120D01*
X74870Y444495D02*
Y441995D01*
X84970Y397870D02*
G03X84970I-10100J0D01*
G01X85570Y403270D02*
Y392470D01*
X85570*
Y403270D02*
G03Y392470I-10690J-5400D01*
G01Y403270D02*
X85570D01*
X69870Y393495D02*
Y392245D01*
X79870*
Y393495*
X76120Y392245D02*
X73620Y389745D01*
Y394745*
X76120Y392245*
Y389745*
Y392245D02*
Y394745D01*
X74245Y390370D02*
Y394120D01*
X74870Y393495D02*
Y390995D01*
X677170Y280570D02*
Y253070D01*
X649670*
Y280570*
X677170*
X669470Y267370D02*
G03X669470I-6000J0D01*
G01X657470*
X663470Y273370D02*
Y261370D01*
X558370Y407933D02*
Y401370D01*
X555643*
X550188Y406370D02*
X550416Y406995D01*
X550870Y407620*
X551325Y407933*
X552234*
X552688Y407620*
X553143Y406995*
X553370Y406370*
X553597Y405433*
Y403870*
X553370Y402933*
X553143Y402308*
X552688Y401683*
X552234Y401370*
X551325*
X550870Y401683*
X550416Y402308*
X550188Y402933*
X548143Y407933D02*
Y401370D01*
Y407933D02*
X546552D01*
X545870Y407620*
X545416Y406995*
X545188Y406370*
X544961Y405433*
Y403870*
X545188Y402933*
X545416Y402308*
X545870Y401683*
X546552Y401370*
X548143*
X542916Y406683D02*
X542461Y406995D01*
X541779Y407933*
Y401370*
X405688Y327495D02*
X406143Y328120D01*
X406825Y328433*
X407734*
X408416Y328120*
X408870Y327495*
Y326870*
X408643Y326245*
X408416Y325933*
X407961Y325620*
X406597Y324995*
X406143Y324683*
X405916Y324370*
X405688Y323745*
Y322808*
X406143Y322183*
X406825Y321870*
X407734*
X408416Y322183*
X408870Y322808*
X403643Y328433D02*
X402506Y321870D01*
X401370Y328433D02*
X402506Y321870D01*
X401370Y328433D02*
X400234Y321870D01*
X399097Y328433D02*
X400234Y321870D01*
X394779Y328433D02*
X397052Y324058D01*
X393643*
X394779Y328433D02*
Y321870D01*
X506688Y327395D02*
X507143Y328020D01*
X507825Y328333*
X508734*
X509416Y328020*
X509870Y327395*
Y326770*
X509643Y326145*
X509416Y325833*
X508961Y325520*
X507597Y324895*
X507143Y324583*
X506916Y324270*
X506688Y323645*
Y322708*
X507143Y322083*
X507825Y321770*
X508734*
X509416Y322083*
X509870Y322708*
X504643Y328333D02*
X503506Y321770D01*
X502370Y328333D02*
X503506Y321770D01*
X502370Y328333D02*
X501234Y321770D01*
X500097Y328333D02*
X501234Y321770D01*
X497597Y328333D02*
X495097D01*
X496461Y325833*
X495779*
X495325Y325520*
X495097Y325208*
X494870Y324270*
Y323645*
X495097Y322708*
X495552Y322083*
X496234Y321770*
X496916*
X497597Y322083*
X497825Y322395*
X498052Y323020*
X605888Y327995D02*
X606343Y328620D01*
X607025Y328933*
X607934*
X608616Y328620*
X609070Y327995*
Y327370*
X608843Y326745*
X608616Y326433*
X608161Y326120*
X606797Y325495*
X606343Y325183*
X606116Y324870*
X605888Y324245*
Y323308*
X606343Y322683*
X607025Y322370*
X607934*
X608616Y322683*
X609070Y323308*
X603843Y328933D02*
X602706Y322370D01*
X601570Y328933D02*
X602706Y322370D01*
X601570Y328933D02*
X600434Y322370D01*
X599297Y328933D02*
X600434Y322370D01*
X597025Y327370D02*
Y327683D01*
X596797Y328308*
X596570Y328620*
X596116Y328933*
X595206*
X594752Y328620*
X594525Y328308*
X594297Y327683*
Y327058*
X594525Y326433*
X594979Y325495*
X597252Y322370*
X594070*
X705588Y327695D02*
X706043Y328320D01*
X706725Y328633*
X707634*
X708316Y328320*
X708770Y327695*
Y327070*
X708543Y326445*
X708316Y326133*
X707861Y325820*
X706497Y325195*
X706043Y324883*
X705816Y324570*
X705588Y323945*
Y323008*
X706043Y322383*
X706725Y322070*
X707634*
X708316Y322383*
X708770Y323008*
X703543Y328633D02*
X702406Y322070D01*
X701270Y328633D02*
X702406Y322070D01*
X701270Y328633D02*
X700134Y322070D01*
X698997Y328633D02*
X700134Y322070D01*
X696952Y327383D02*
X696497Y327695D01*
X695816Y328633*
Y322070*
X707070Y292733D02*
Y288045D01*
X706843Y287108*
X706388Y286483*
X705706Y286170*
X705252*
X704570Y286483*
X704116Y287108*
X703888Y288045*
Y292733*
X701843D02*
Y286170D01*
Y292733D02*
X699797D01*
X699116Y292420*
X698888Y292108*
X698661Y291483*
Y290545*
X698888Y289920*
X699116Y289608*
X699797Y289295*
X701843*
X612370Y290733D02*
Y284170D01*
Y290733D02*
X610779D01*
X610097Y290420*
X609643Y289795*
X609416Y289170*
X609188Y288233*
Y286670*
X609416Y285733*
X609643Y285108*
X610097Y284483*
X610779Y284170*
X612370*
X605779Y290733D02*
X606234Y290420D01*
X606688Y289795*
X606916Y289170*
X607143Y288233*
Y286670*
X606916Y285733*
X606688Y285108*
X606234Y284483*
X605779Y284170*
X604870*
X604416Y284483*
X603961Y285108*
X603734Y285733*
X603506Y286670*
Y288233*
X603734Y289170*
X603961Y289795*
X604416Y290420*
X604870Y290733*
X605779*
X601461D02*
X600325Y284170D01*
X599188Y290733D02*
X600325Y284170D01*
X599188Y290733D02*
X598052Y284170D01*
X596916Y290733D02*
X598052Y284170D01*
X594870Y290733D02*
Y284170D01*
Y290733D02*
X591688Y284170D01*
Y290733D02*
Y284170D01*
X514070Y291733D02*
Y285170D01*
Y291733D02*
X511116D01*
X514070Y288608D02*
X512252D01*
X514070Y285170D02*
X511116D01*
X509070Y291733D02*
Y285170D01*
Y291733D02*
X505888Y285170D01*
Y291733D02*
Y285170D01*
X502252Y291733D02*
Y285170D01*
X503843Y291733D02*
X500661D01*
X498616D02*
Y285170D01*
Y291733D02*
X495661D01*
X498616Y288608D02*
X496797D01*
X498616Y285170D02*
X495661D01*
X493616Y291733D02*
Y285170D01*
Y291733D02*
X491570D01*
X490888Y291420*
X490661Y291108*
X490434Y290483*
Y289858*
X490661Y289233*
X490888Y288920*
X491570Y288608*
X493616*
X492025D02*
X490434Y285170D01*
X406870Y291833D02*
Y285270D01*
Y291833D02*
X403916D01*
X406870Y288708D02*
X405052D01*
X406870Y285270D02*
X403916D01*
X398688Y290895D02*
X399143Y291520D01*
X399825Y291833*
X400734*
X401416Y291520*
X401870Y290895*
Y290270*
X401643Y289645*
X401416Y289333*
X400961Y289020*
X399597Y288395*
X399143Y288083*
X398916Y287770*
X398688Y287145*
Y286208*
X399143Y285583*
X399825Y285270*
X400734*
X401416Y285583*
X401870Y286208*
X393234Y290270D02*
X393461Y290895D01*
X393916Y291520*
X394370Y291833*
X395279*
X395734Y291520*
X396188Y290895*
X396416Y290270*
X396643Y289333*
Y287770*
X396416Y286833*
X396188Y286208*
X395734Y285583*
X395279Y285270*
X394370*
X393916Y285583*
X393461Y286208*
X393234Y286833*
X39370Y49370D02*
G03X49370Y39370I10000J0D01*
G01X39370Y49370D02*
Y214470D01*
X49370Y224470D02*
G03X39370Y214470I0J-10000D01*
G01Y234470D02*
G03X49370Y224470I10000J0D01*
G01X39370Y234470D02*
Y659370D01*
X49370Y669370D02*
G03X39370Y659370I0J-10000D01*
G01X49370Y669370D02*
X738070D01*
X748070Y659370D02*
G03X738070Y669370I-10000J0D01*
G01X748070Y659370D02*
Y234470D01*
X738070Y224470D02*
G03X748070Y234470I0J10000D01*
G01Y214470D02*
G03X738070Y224470I-10000J0D01*
G01X748070Y214470D02*
Y49370D01*
X738070Y39370D02*
G03X748070Y49370I0J10000D01*
G01X738070Y39370D02*
X49370D01*
X382370Y604370D02*
G03X377370Y599370I0J-5000D01*
G01X382370Y604370D02*
X386370D01*
G03X391370Y609370I0J5000*
G01Y622370*
X396370Y627370D02*
G03X391370Y622370I0J-5000D01*
G01X396370Y627370D02*
X706206D01*
X711206Y622370D02*
G03X706206Y627370I-5000J0D01*
G01X711206Y622370D02*
Y609370D01*
G03X716206Y604370I5000J0*
G01X731370*
X736370Y599370D02*
G03X731370Y604370I-5000J0D01*
G01X736370Y599370D02*
Y388370D01*
X731370Y383370D02*
G03X736370Y388370I0J5000D01*
G01X731370Y383370D02*
X382370D01*
X377370Y388370D02*
G03X382370Y383370I5000J0D01*
G01X377370Y388370D02*
Y599370D01*
X19370Y224470D02*
X768070D01*
X19370D02*
X24370Y229470D01*
Y219470*
X19370Y224470*
X768070D02*
X763070Y229470D01*
Y219470*
X768070Y224470*
G54D14*
X774370Y231495D02*
X778006Y218370D01*
X781643Y231495D02*
X778006Y218370D01*
X785734Y215870D02*
X795279D01*
X804825Y228370D02*
X804370Y229620D01*
X803461Y230870*
X802552Y231495*
X800734*
X799825Y230870*
X798916Y229620*
X798461Y228370*
X798006Y226495*
Y223370*
X798461Y221495*
X798916Y220245*
X799825Y218995*
X800734Y218370*
X802552*
X803461Y218995*
X804370Y220245*
X804825Y221495*
X808916Y231495D02*
Y222120D01*
X809370Y220245*
X810279Y218995*
X811643Y218370*
X812552*
X813916Y218995*
X814825Y220245*
X815279Y222120*
Y231495*
X822552D02*
Y218370D01*
X819370Y231495D02*
X825734D01*
G54D16*
X87477Y354120D02*
X84831D01*
Y357870*
X144170*
Y354120*
X141670*
Y350370*
X144170*
Y337870*
X91365*
X85115Y344120*
Y350370*
X87477*
Y354120*
X87457Y355370D02*
X141670D01*
Y345370*
X136670Y340370*
X92457*
X87457Y345370*
Y355370*
X94800Y359839D02*
X97300Y362339D01*
X92300*
X94800Y359839*
G54D129*
X116661Y365370D02*
X116888Y365995D01*
X117343Y366620*
X117797Y366933*
X118706*
X119161Y366620*
X119616Y365995*
X119843Y365370*
X120070Y364433*
Y362870*
X119843Y361933*
X119616Y361308*
X119161Y360683*
X118706Y360370*
X117797*
X117343Y360683*
X116888Y361308*
X116661Y361933*
X114616Y366933D02*
Y360370D01*
Y366933D02*
X111434Y360370D01*
Y366933D02*
Y360370D01*
X109388Y365683D02*
X108934Y365995D01*
X108252Y366933*
Y360370*
X80170Y588233D02*
Y581670D01*
X77443*
X75397Y588233D02*
Y581670D01*
Y588233D02*
X73806D01*
X73125Y587920*
X72670Y587295*
X72443Y586670*
X72216Y585733*
Y584170*
X72443Y583233*
X72670Y582608*
X73125Y581983*
X73806Y581670*
X75397*
X70170Y586983D02*
X69716Y587295D01*
X69034Y588233*
Y581670*
X81270Y536933D02*
Y530370D01*
X78543*
X76497Y536933D02*
Y530370D01*
Y536933D02*
X74906D01*
X74225Y536620*
X73770Y535995*
X73543Y535370*
X73316Y534433*
Y532870*
X73543Y531933*
X73770Y531308*
X74225Y530683*
X74906Y530370*
X76497*
X71043Y535370D02*
Y535683D01*
X70816Y536308*
X70588Y536620*
X70134Y536933*
X69225*
X68770Y536620*
X68543Y536308*
X68316Y535683*
Y535058*
X68543Y534433*
X68997Y533495*
X71270Y530370*
X68088*
X81770Y484833D02*
Y478270D01*
X79043*
X76997Y484833D02*
Y478270D01*
Y484833D02*
X75406D01*
X74725Y484520*
X74270Y483895*
X74043Y483270*
X73816Y482333*
Y480770*
X74043Y479833*
X74270Y479208*
X74725Y478583*
X75406Y478270*
X76997*
X71316Y484833D02*
X68816D01*
X70179Y482333*
X69497*
X69043Y482020*
X68816Y481708*
X68588Y480770*
Y480145*
X68816Y479208*
X69270Y478583*
X69952Y478270*
X70634*
X71316Y478583*
X71543Y478895*
X71770Y479520*
X81470Y434633D02*
Y428070D01*
X78743*
X76697Y434633D02*
Y428070D01*
Y434633D02*
X75106D01*
X74425Y434320*
X73970Y433695*
X73743Y433070*
X73516Y432133*
Y430570*
X73743Y429633*
X73970Y429008*
X74425Y428383*
X75106Y428070*
X76697*
X68516Y434633D02*
X70788D01*
X71016Y431820*
X70788Y432133*
X70106Y432445*
X69425*
X68743Y432133*
X68288Y431508*
X68061Y430570*
X68288Y429945*
X68516Y429008*
X68970Y428383*
X69652Y428070*
X70334*
X71016Y428383*
X71243Y428695*
X71470Y429320*
X81070Y384633D02*
Y378070D01*
X78343*
X76297Y384633D02*
Y378070D01*
Y384633D02*
X74706D01*
X74025Y384320*
X73570Y383695*
X73343Y383070*
X73116Y382133*
Y380570*
X73343Y379633*
X73570Y379008*
X74025Y378383*
X74706Y378070*
X76297*
X68343Y383695D02*
X68570Y384320D01*
X69252Y384633*
X69706*
X70388Y384320*
X70843Y383383*
X71070Y381820*
Y380258*
X70843Y379008*
X70388Y378383*
X69706Y378070*
X69479*
X68797Y378383*
X68343Y379008*
X68116Y379945*
Y380258*
X68343Y381195*
X68797Y381820*
X69479Y382133*
X69706*
X70388Y381820*
X70843Y381195*
X71070Y380258*
X670470Y249933D02*
X668652Y243370D01*
X666834Y249933D02*
X668652Y243370D01*
X664788Y249933D02*
Y243370D01*
Y249933D02*
X662743D01*
X662061Y249620*
X661834Y249308*
X661606Y248683*
Y248058*
X661834Y247433*
X662061Y247120*
X662743Y246808*
X664788*
X663197D02*
X661606Y243370D01*
X656379Y249933D02*
X658652Y243370D01*
X659561Y249933D02*
X656379D01*
X92633Y335570D02*
X96570D01*
X92633D02*
X96570Y334479D01*
X92633Y333388D02*
X96570Y334479D01*
X92633Y333388D02*
X96570D01*
X92633Y332161D02*
X96570D01*
Y330525*
X93570Y327252D02*
X93195Y327388D01*
X92820Y327661*
X92633Y327934*
Y328479*
X92820Y328752*
X93195Y329025*
X93570Y329161*
X94133Y329297*
X95070*
X95633Y329161*
X96008Y329025*
X96383Y328752*
X96570Y328479*
Y327934*
X96383Y327661*
X96008Y327388*
X95633Y327252*
X92633Y326025D02*
X96570D01*
X92633D02*
Y324797D01*
X92820Y324388*
X93008Y324252*
X93383Y324116*
X93758*
X94133Y324252*
X94320Y324388*
X94508Y324797*
Y326025*
Y325070D02*
X96570Y324116D01*
X102795Y334743D02*
X106170D01*
X104483Y335970D02*
Y333516D01*
X102233Y332016D02*
Y330516D01*
X103733Y331334*
Y330925*
X103920Y330652*
X104108Y330516*
X104670Y330379*
X105045*
X105608Y330516*
X105983Y330788*
X106170Y331197*
Y331606*
X105983Y332016*
X105795Y332152*
X105420Y332288*
X105795Y329016D02*
X105983Y329152D01*
X106170Y329016*
X105983Y328879*
X105795Y329016*
X102233Y327379D02*
Y325879D01*
X103733Y326697*
Y326288*
X103920Y326016*
X104108Y325879*
X104670Y325743*
X105045*
X105608Y325879*
X105983Y326152*
X106170Y326561*
Y326970*
X105983Y327379*
X105795Y327516*
X105420Y327652*
X102233Y324516D02*
X106170Y323425D01*
X102233Y322334D02*
X106170Y323425D01*
X113270Y333325D02*
X112895Y333461D01*
X112520Y333734*
X112333Y334006*
Y334552*
X112520Y334825*
X112895Y335097*
X113270Y335234*
X113833Y335370*
X114770*
X115333Y335234*
X115708Y335097*
X116083Y334825*
X116270Y334552*
Y334006*
X116083Y333734*
X115708Y333461*
X115333Y333325*
X114770*
Y334006D02*
Y333325D01*
X112333Y332097D02*
X116270D01*
X112333D02*
X116270Y330188D01*
X112333D02*
X116270D01*
X112333Y328961D02*
X116270D01*
X112333D02*
Y328006D01*
X112520Y327597*
X112895Y327325*
X113270Y327188*
X113833Y327052*
X114770*
X115333Y327188*
X115708Y327325*
X116083Y327597*
X116270Y328006*
Y328961*
X122733Y335170D02*
X126670D01*
X122733D02*
Y333943D01*
X122920Y333534*
X123108Y333397*
X123483Y333261*
X124045*
X124420Y333397*
X124608Y333534*
X124795Y333943*
Y335170*
X123670Y329988D02*
X123295Y330125D01*
X122920Y330397*
X122733Y330670*
Y331216*
X122920Y331488*
X123295Y331761*
X123670Y331897*
X124233Y332034*
X125170*
X125733Y331897*
X126108Y331761*
X126483Y331488*
X126670Y331216*
Y330670*
X126483Y330397*
X126108Y330125*
X125733Y329988*
X125170*
Y330670D02*
Y329988D01*
X122733Y328761D02*
X126670D01*
X122733D02*
Y327806D01*
X122920Y327397*
X123295Y327125*
X123670Y326988*
X124233Y326852*
X125170*
X125733Y326988*
X126108Y327125*
X126483Y327397*
X126670Y327806*
Y328761*
X132433Y335170D02*
X136370D01*
X132433D02*
Y333943D01*
X132620Y333534*
X132808Y333397*
X133183Y333261*
X133745*
X134120Y333397*
X134308Y333534*
X134495Y333943*
Y335170*
X133370Y329988D02*
X132995Y330125D01*
X132620Y330397*
X132433Y330670*
Y331216*
X132620Y331488*
X132995Y331761*
X133370Y331897*
X133933Y332034*
X134870*
X135433Y331897*
X135808Y331761*
X136183Y331488*
X136370Y331216*
Y330670*
X136183Y330397*
X135808Y330125*
X135433Y329988*
X134870*
Y330670D02*
Y329988D01*
X133370Y326716D02*
X132995Y326852D01*
X132620Y327125*
X132433Y327397*
Y327943*
X132620Y328216*
X132995Y328488*
X133370Y328625*
X133933Y328761*
X134870*
X135433Y328625*
X135808Y328488*
X136183Y328216*
X136370Y327943*
Y327397*
X136183Y327125*
X135808Y326852*
X135433Y326716*
X59770Y602008D02*
Y598070D01*
Y602008D02*
X57861Y598070D01*
Y602008D02*
Y598070D01*
X55952Y600695D02*
X56225Y600508D01*
X56497Y600133*
X56634Y599570*
Y599195*
X56497Y598633*
X56225Y598258*
X55952Y598070*
X55543*
X55270Y598258*
X54997Y598633*
X54861Y599195*
Y599570*
X54997Y600133*
X55270Y600508*
X55543Y600695*
X55952*
X53634D02*
Y598070D01*
Y599570D02*
X53497Y600133D01*
X53225Y600508*
X52952Y600695*
X52543*
X51316D02*
Y598070D01*
Y599945D02*
X50906Y600508D01*
X50634Y600695*
X50225*
X49952Y600508*
X49816Y599945*
Y598070*
Y599945D02*
X49406Y600508D01*
X49134Y600695*
X48725*
X48452Y600508*
X48316Y599945*
Y598070*
X45452Y600695D02*
Y598070D01*
Y600133D02*
X45725Y600508D01*
X45997Y600695*
X46406*
X46679Y600508*
X46952Y600133*
X47088Y599570*
Y599195*
X46952Y598633*
X46679Y598258*
X46406Y598070*
X45997*
X45725Y598258*
X45452Y598633*
X44225Y602008D02*
Y598070D01*
X60170Y552908D02*
Y548970D01*
Y552908D02*
X58397D01*
X60170Y551033D02*
X59079D01*
X55534Y551595D02*
Y548970D01*
Y551033D02*
X55806Y551408D01*
X56079Y551595*
X56488*
X56761Y551408*
X57034Y551033*
X57170Y550470*
Y550095*
X57034Y549533*
X56761Y549158*
X56488Y548970*
X56079*
X55806Y549158*
X55534Y549533*
X54306Y551595D02*
Y549720D01*
X54170Y549158*
X53897Y548970*
X53488*
X53216Y549158*
X52806Y549720*
Y551595D02*
Y548970D01*
X51579Y552908D02*
Y548970D01*
X49943Y552908D02*
Y549720D01*
X49806Y549158*
X49534Y548970*
X49261*
X50352Y551595D02*
X49397D01*
X57525Y495470D02*
X57661Y495845D01*
X57934Y496220*
X58206Y496408*
X58752*
X59025Y496220*
X59297Y495845*
X59434Y495470*
X59570Y494908*
Y493970*
X59434Y493408*
X59297Y493033*
X59025Y492658*
X58752Y492470*
X58206*
X57934Y492658*
X57661Y493033*
X57525Y493408*
X56297Y496408D02*
Y492470D01*
Y494345D02*
X55888Y494908D01*
X55616Y495095*
X55206*
X54934Y494908*
X54797Y494345*
Y492470*
X51934Y495095D02*
Y492470D01*
Y494533D02*
X52206Y494908D01*
X52479Y495095*
X52888*
X53161Y494908*
X53434Y494533*
X53570Y493970*
Y493595*
X53434Y493033*
X53161Y492658*
X52888Y492470*
X52479*
X52206Y492658*
X51934Y493033*
X50706Y495095D02*
Y492470D01*
Y493970D02*
X50570Y494533D01*
X50297Y494908*
X50025Y495095*
X49616*
X46752D02*
Y492095D01*
X46888Y491533*
X47025Y491345*
X47297Y491158*
X47706*
X47979Y491345*
X46752Y494533D02*
X47025Y494908D01*
X47297Y495095*
X47706*
X47979Y494908*
X48252Y494533*
X48388Y493970*
Y493595*
X48252Y493033*
X47979Y492658*
X47706Y492470*
X47297*
X47025Y492658*
X46752Y493033*
X45525Y493970D02*
X43888D01*
Y494345*
X44025Y494720*
X44161Y494908*
X44434Y495095*
X44843*
X45116Y494908*
X45388Y494533*
X45525Y493970*
Y493595*
X45388Y493033*
X45116Y492658*
X44843Y492470*
X44434*
X44161Y492658*
X43888Y493033*
X59270Y452808D02*
Y448870D01*
Y452808D02*
X58179Y448870D01*
X57088Y452808D02*
X58179Y448870D01*
X57088Y452808D02*
Y448870D01*
X54225Y451495D02*
Y448870D01*
Y450933D02*
X54497Y451308D01*
X54770Y451495*
X55179*
X55452Y451308*
X55725Y450933*
X55861Y450370*
Y449995*
X55725Y449433*
X55452Y449058*
X55179Y448870*
X54770*
X54497Y449058*
X54225Y449433*
X52997Y451495D02*
Y448870D01*
Y450745D02*
X52588Y451308D01*
X52316Y451495*
X51906*
X51634Y451308*
X51497Y450745*
Y448870*
X50270Y451495D02*
Y449620D01*
X50134Y449058*
X49861Y448870*
X49452*
X49179Y449058*
X48770Y449620*
Y451495D02*
Y448870D01*
X45906Y451495D02*
Y448870D01*
Y450933D02*
X46179Y451308D01*
X46452Y451495*
X46861*
X47134Y451308*
X47406Y450933*
X47543Y450370*
Y449995*
X47406Y449433*
X47134Y449058*
X46861Y448870*
X46452*
X46179Y449058*
X45906Y449433*
X44679Y452808D02*
Y448870D01*
X57225Y445870D02*
X57361Y446245D01*
X57634Y446620*
X57906Y446808*
X58452*
X58725Y446620*
X58997Y446245*
X59134Y445870*
X59270Y445308*
Y444370*
X59134Y443808*
X58997Y443433*
X58725Y443058*
X58452Y442870*
X57906*
X57634Y443058*
X57361Y443433*
X57225Y443808*
X55997Y446808D02*
Y442870D01*
Y444745D02*
X55588Y445308D01*
X55316Y445495*
X54906*
X54634Y445308*
X54497Y444745*
Y442870*
X51634Y445495D02*
Y442870D01*
Y444933D02*
X51906Y445308D01*
X52179Y445495*
X52588*
X52861Y445308*
X53134Y444933*
X53270Y444370*
Y443995*
X53134Y443433*
X52861Y443058*
X52588Y442870*
X52179*
X51906Y443058*
X51634Y443433*
X50406Y445495D02*
Y442870D01*
Y444370D02*
X50270Y444933D01*
X49997Y445308*
X49725Y445495*
X49316*
X46452D02*
Y442495D01*
X46588Y441933*
X46725Y441745*
X46997Y441558*
X47406*
X47679Y441745*
X46452Y444933D02*
X46725Y445308D01*
X46997Y445495*
X47406*
X47679Y445308*
X47952Y444933*
X48088Y444370*
Y443995*
X47952Y443433*
X47679Y443058*
X47406Y442870*
X46997*
X46725Y443058*
X46452Y443433*
X45225Y444370D02*
X43588D01*
Y444745*
X43725Y445120*
X43861Y445308*
X44134Y445495*
X44543*
X44816Y445308*
X45088Y444933*
X45225Y444370*
Y443995*
X45088Y443433*
X44816Y443058*
X44543Y442870*
X44134*
X43861Y443058*
X43588Y443433*
X57379Y396708D02*
X58470Y392770D01*
X57379Y396708D02*
X56288Y392770D01*
X58061Y394083D02*
X56697D01*
X55061Y396708D02*
Y392770D01*
X52197Y395395D02*
Y392770D01*
Y394833D02*
X52470Y395208D01*
X52743Y395395*
X53152*
X53425Y395208*
X53697Y394833*
X53834Y394270*
Y393895*
X53697Y393333*
X53425Y392958*
X53152Y392770*
X52743*
X52470Y392958*
X52197Y393333*
X50970Y395395D02*
Y392770D01*
Y394270D02*
X50834Y394833D01*
X50561Y395208*
X50288Y395395*
X49879*
X48652D02*
Y392770D01*
Y394645D02*
X48243Y395208D01*
X47970Y395395*
X47561*
X47288Y395208*
X47152Y394645*
Y392770*
Y394645D02*
X46743Y395208D01*
X46470Y395395*
X46061*
X45788Y395208*
X45652Y394645*
Y392770*
G74*
X0Y0D02*
M02*
