*
*
G04 PADS VX.2 Build Number: 5060570 generated Gerber (RS-274-X) file*
G04 PC Version=2.1*
*
%IN "HFC3100D_Module_Display"*%
*
%MOIN*%
*
%FSLAX35Y35*%
*
*
*
*
G04 PC Standard Apertures*
*
*
G04 Thermal Relief Aperture macro.*
%AMTER*
1,1,$1,0,0*
1,0,$1-$2,0,0*
21,0,$3,$4,0,0,45*
21,0,$3,$4,0,0,135*
%
*
*
G04 Annular Aperture macro.*
%AMANN*
1,1,$1,0,0*
1,0,$2,0,0*
%
*
*
G04 Odd Aperture macro.*
%AMODD*
1,1,$1,0,0*
1,0,$1-0.005,0,0*
%
*
*
G04 PC Custom Aperture Macros*
*
*
*
*
*
*
G04 PC Aperture Table*
*
%ADD010C,0.001*%
%ADD011C,0.012*%
%ADD013C,0.008*%
%ADD014C,0.01*%
%ADD015C,0.00984*%
%ADD036C,0.00787*%
%ADD086C,0.1*%
%ADD091C,0.00787*%
%ADD129C,0.006*%
*
*
*
*
G04 PC Circuitry*
G04 Layer Name HFC3100D_Module_Display - circuitry*
%LPD*%
*
*
G04 PC Custom Flashes*
G04 Layer Name HFC3100D_Module_Display - flashes*
%LPD*%
*
*
G04 PC Circuitry*
G04 Layer Name HFC3100D_Module_Display - circuitry*
%LPD*%
*
G54D10*
G54D11*
G01X57569Y371370D02*
G75*
G03X54470Y368271I324J-3423D01*
G01X57570Y371370D02*
X69170D01*
X72170Y368269D02*
G03X69170Y371370I-3262J-154D01*
G01X72170Y368270D02*
Y356770D01*
X69171Y353770D02*
G03X72170Y356769I-43J3042D01*
G01X69170Y353770D02*
X57570D01*
X54470Y356874D02*
G03X57567Y353771I3680J576D01*
G01X54470Y356870D02*
Y368270D01*
X67171Y362770D02*
G03X67171I-3801J0D01*
G01X695370Y345370D02*
X717199D01*
Y335370D02*
G03Y345370I-0J5000D01*
G01Y335370D02*
X695370D01*
Y345370D02*
G03Y335370I0J-5000D01*
G01X690370Y340370D02*
X686370D01*
X726181D02*
X722244D01*
X50870Y582270D02*
Y585470D01*
X53169Y587770D02*
G03X50870Y585471I301J-2600D01*
G01X53170Y587770D02*
X57770D01*
X60070Y585469D02*
G03X57769Y587770I-2350J-49D01*
G01X60070Y585470D02*
Y582270D01*
X65770*
G03X44970I-10400J-3765*
G01X50870*
X45970Y582070D02*
G03X64970I9500J-3704D01*
G01X49070Y582270D02*
X46470Y584870D01*
X50870Y583470D02*
X47870Y586470D01*
X51070Y586070D02*
X49470Y587670D01*
X52370D02*
X51370Y588670D01*
X54970Y588070D02*
X53870Y589170D01*
X57770Y587770D02*
X56170Y589370D01*
X62870Y582270D02*
X60170Y584970D01*
X64870Y582470D02*
X58170Y589170D01*
X298870Y612370D02*
Y615570D01*
X301169Y617870D02*
G03X298870Y615571I301J-2600D01*
G01X301170Y617870D02*
X305770D01*
X308070Y615569D02*
G03X305769Y617870I-2350J-49D01*
G01X308070Y615570D02*
Y612370D01*
X313770*
G03X292970I-10400J-3765*
G01X298870*
X293970Y612170D02*
G03X312970I9500J-3704D01*
G01X297070Y612370D02*
X294470Y614970D01*
X298870Y613570D02*
X295870Y616570D01*
X299070Y616170D02*
X297470Y617770D01*
X300370D02*
X299370Y618770D01*
X302970Y618170D02*
X301870Y619270D01*
X305770Y617870D02*
X304170Y619470D01*
X310870Y612370D02*
X308170Y615070D01*
X312870Y612570D02*
X306170Y619270D01*
X75270Y323070D02*
X78470D01*
X80770Y320771D02*
G03X78471Y323070I-2600J-301D01*
G01X80770Y320770D02*
Y316170D01*
X78469Y313870D02*
G03X80770Y316171I-49J2350D01*
G01X78470Y313870D02*
X75270D01*
Y308170*
G03Y328970I-3765J10400*
G01Y323070*
X75070Y327970D02*
G03Y308970I-3704J-9500D01*
G01X75270Y324870D02*
X77870Y327470D01*
X76470Y323070D02*
X79470Y326070D01*
X79070Y322870D02*
X80670Y324470D01*
Y321570D02*
X81670Y322570D01*
X81070Y318970D02*
X82170Y320070D01*
X80770Y316170D02*
X82370Y317770D01*
X75270Y311070D02*
X77970Y313770D01*
X75470Y309070D02*
X82170Y315770D01*
X117270Y323070D02*
X120470D01*
X122770Y320771D02*
G03X120471Y323070I-2600J-301D01*
G01X122770Y320770D02*
Y316170D01*
X120469Y313870D02*
G03X122770Y316171I-49J2350D01*
G01X120470Y313870D02*
X117270D01*
Y308170*
G03Y328970I-3765J10400*
G01Y323070*
X117070Y327970D02*
G03Y308970I-3704J-9500D01*
G01X117270Y324870D02*
X119870Y327470D01*
X118470Y323070D02*
X121470Y326070D01*
X121070Y322870D02*
X122670Y324470D01*
Y321570D02*
X123670Y322570D01*
X123070Y318970D02*
X124170Y320070D01*
X122770Y316170D02*
X124370Y317770D01*
X117270Y311070D02*
X119970Y313770D01*
X117470Y309070D02*
X124170Y315770D01*
X159270Y323070D02*
X162470D01*
X164770Y320771D02*
G03X162471Y323070I-2600J-301D01*
G01X164770Y320770D02*
Y316170D01*
X162469Y313870D02*
G03X164770Y316171I-49J2350D01*
G01X162470Y313870D02*
X159270D01*
Y308170*
G03Y328970I-3765J10400*
G01Y323070*
X159070Y327970D02*
G03Y308970I-3704J-9500D01*
G01X159270Y324870D02*
X161870Y327470D01*
X160470Y323070D02*
X163470Y326070D01*
X163070Y322870D02*
X164670Y324470D01*
Y321570D02*
X165670Y322570D01*
X165070Y318970D02*
X166170Y320070D01*
X164770Y316170D02*
X166370Y317770D01*
X159270Y311070D02*
X161970Y313770D01*
X159470Y309070D02*
X166170Y315770D01*
X273470Y278070D02*
X270270D01*
X267970Y280369D02*
G03X270269Y278070I2600J301D01*
G01X267970Y280370D02*
Y284970D01*
X270271Y287270D02*
G03X267970Y284969I49J-2350D01*
G01X270270Y287270D02*
X273470D01*
Y292970*
G03Y272170I3765J-10400*
G01Y278070*
X273670Y273170D02*
G03Y292170I3704J9500D01*
G01X273470Y276270D02*
X270870Y273670D01*
X272270Y278070D02*
X269270Y275070D01*
X269670Y278270D02*
X268070Y276670D01*
Y279570D02*
X267070Y278570D01*
X267670Y282170D02*
X266570Y281070D01*
X267970Y284970D02*
X266370Y283370D01*
X273470Y290070D02*
X270770Y287370D01*
X273270Y292070D02*
X266570Y285370D01*
X233470Y278070D02*
X230270D01*
X227970Y280369D02*
G03X230269Y278070I2600J301D01*
G01X227970Y280370D02*
Y284970D01*
X230271Y287270D02*
G03X227970Y284969I49J-2350D01*
G01X230270Y287270D02*
X233470D01*
Y292970*
G03Y272170I3765J-10400*
G01Y278070*
X233670Y273170D02*
G03Y292170I3704J9500D01*
G01X233470Y276270D02*
X230870Y273670D01*
X232270Y278070D02*
X229270Y275070D01*
X229670Y278270D02*
X228070Y276670D01*
Y279570D02*
X227070Y278570D01*
X227670Y282170D02*
X226570Y281070D01*
X227970Y284970D02*
X226370Y283370D01*
X233470Y290070D02*
X230770Y287370D01*
X233270Y292070D02*
X226570Y285370D01*
X193470Y278070D02*
X190270D01*
X187970Y280369D02*
G03X190269Y278070I2600J301D01*
G01X187970Y280370D02*
Y284970D01*
X190271Y287270D02*
G03X187970Y284969I49J-2350D01*
G01X190270Y287270D02*
X193470D01*
Y292970*
G03Y272170I3765J-10400*
G01Y278070*
X193670Y273170D02*
G03Y292170I3704J9500D01*
G01X193470Y276270D02*
X190870Y273670D01*
X192270Y278070D02*
X189270Y275070D01*
X189670Y278270D02*
X188070Y276670D01*
Y279570D02*
X187070Y278570D01*
X187670Y282170D02*
X186570Y281070D01*
X187970Y284970D02*
X186370Y283370D01*
X193470Y290070D02*
X190770Y287370D01*
X193270Y292070D02*
X186570Y285370D01*
X360870Y378470D02*
G03X360870I-10100J0D01*
G01X340070Y383870D02*
Y373070D01*
X340070*
G03Y383870I10690J5400*
G01X340070*
X355770Y374095D02*
Y372845D01*
X345770*
Y374095*
X349520Y372845D02*
X352020Y370345D01*
Y375345*
X349520Y372845*
Y370345*
Y372845D02*
Y375345D01*
X351395Y370970D02*
Y374720D01*
X350770Y374095D02*
Y371595D01*
X360870Y405470D02*
G03X360870I-10100J0D01*
G01X340070Y410870D02*
Y400070D01*
X340070*
G03Y410870I10690J5400*
G01X340070*
X355770Y401095D02*
Y399845D01*
X345770*
Y401095*
X349520Y399845D02*
X352020Y397345D01*
Y402345*
X349520Y399845*
Y397345*
Y399845D02*
Y402345D01*
X351395Y397970D02*
Y401720D01*
X350770Y401095D02*
Y398595D01*
X273825Y137433D02*
X276325D01*
X274961Y134933*
X275643*
X276097Y134620*
X276325Y134308*
X276552Y133370*
Y132745*
X276325Y131808*
X275870Y131183*
X275188Y130870*
X274506*
X273825Y131183*
X273597Y131495*
X273370Y132120*
X279734Y137433D02*
X279052Y137120D01*
X278825Y136495*
Y135870*
X279052Y135245*
X279506Y134933*
X280416Y134620*
X281097Y134308*
X281552Y133683*
X281779Y133058*
Y132120*
X281552Y131495*
X281325Y131183*
X280643Y130870*
X279734*
X279052Y131183*
X278825Y131495*
X278597Y132120*
Y133058*
X278825Y133683*
X279279Y134308*
X279961Y134620*
X280870Y134933*
X281325Y135245*
X281552Y135870*
Y136495*
X281325Y137120*
X280643Y137433*
X279734*
X285188D02*
X284506Y137120D01*
X284052Y136183*
X283825Y134620*
Y133683*
X284052Y132120*
X284506Y131183*
X285188Y130870*
X285643*
X286325Y131183*
X286779Y132120*
X287006Y133683*
Y134620*
X286779Y136183*
X286325Y137120*
X285643Y137433*
X285188*
X289052D02*
X290870Y130870D01*
X292688Y137433D02*
X290870Y130870D01*
X444825Y137433D02*
X447325D01*
X445961Y134933*
X446643*
X447097Y134620*
X447325Y134308*
X447552Y133370*
Y132745*
X447325Y131808*
X446870Y131183*
X446188Y130870*
X445506*
X444825Y131183*
X444597Y131495*
X444370Y132120*
X450734Y137433D02*
X450052Y137120D01*
X449825Y136495*
Y135870*
X450052Y135245*
X450506Y134933*
X451416Y134620*
X452097Y134308*
X452552Y133683*
X452779Y133058*
Y132120*
X452552Y131495*
X452325Y131183*
X451643Y130870*
X450734*
X450052Y131183*
X449825Y131495*
X449597Y132120*
Y133058*
X449825Y133683*
X450279Y134308*
X450961Y134620*
X451870Y134933*
X452325Y135245*
X452552Y135870*
Y136495*
X452325Y137120*
X451643Y137433*
X450734*
X456188D02*
X455506Y137120D01*
X455052Y136183*
X454825Y134620*
Y133683*
X455052Y132120*
X455506Y131183*
X456188Y130870*
X456643*
X457325Y131183*
X457779Y132120*
X458006Y133683*
Y134620*
X457779Y136183*
X457325Y137120*
X456643Y137433*
X456188*
X460052D02*
X461870Y130870D01*
X463688Y137433D02*
X461870Y130870D01*
X615825Y137433D02*
X618325D01*
X616961Y134933*
X617643*
X618097Y134620*
X618325Y134308*
X618552Y133370*
Y132745*
X618325Y131808*
X617870Y131183*
X617188Y130870*
X616506*
X615825Y131183*
X615597Y131495*
X615370Y132120*
X621734Y137433D02*
X621052Y137120D01*
X620825Y136495*
Y135870*
X621052Y135245*
X621506Y134933*
X622416Y134620*
X623097Y134308*
X623552Y133683*
X623779Y133058*
Y132120*
X623552Y131495*
X623325Y131183*
X622643Y130870*
X621734*
X621052Y131183*
X620825Y131495*
X620597Y132120*
Y133058*
X620825Y133683*
X621279Y134308*
X621961Y134620*
X622870Y134933*
X623325Y135245*
X623552Y135870*
Y136495*
X623325Y137120*
X622643Y137433*
X621734*
X627188D02*
X626506Y137120D01*
X626052Y136183*
X625825Y134620*
Y133683*
X626052Y132120*
X626506Y131183*
X627188Y130870*
X627643*
X628325Y131183*
X628779Y132120*
X629006Y133683*
Y134620*
X628779Y136183*
X628325Y137120*
X627643Y137433*
X627188*
X631052D02*
X632870Y130870D01*
X634688Y137433D02*
X632870Y130870D01*
X328970Y590370D02*
X342970D01*
Y620370*
X328970*
Y590370*
X330970Y585370D02*
Y590370D01*
X340970Y585370D02*
Y590370D01*
X72850Y244070D02*
G03X72850I-13780J0D01*
G01X464950Y307070D02*
G03X464950I-13780J0D01*
G01X742150Y244070D02*
G03X742150I-13780J0D01*
G01Y649670D02*
G03X742150I-13780J0D01*
G01X72850D02*
G03X72850I-13780J0D01*
G01Y59070D02*
G03X72850I-13780J0D01*
G01Y204770D02*
G03X72850I-13780J0D01*
G01X742150Y59070D02*
G03X742150I-13780J0D01*
G01Y204770D02*
G03X742150I-13780J0D01*
G01X221570Y625870D02*
Y629070D01*
X223869Y631370D02*
G03X221570Y629071I301J-2600D01*
G01X223870Y631370D02*
X228470D01*
X230770Y629069D02*
G03X228469Y631370I-2350J-49D01*
G01X230770Y629070D02*
Y625870D01*
X236470*
G03X215670I-10400J-3765*
G01X221570*
X216670Y625670D02*
G03X235670I9500J-3704D01*
G01X219770Y625870D02*
X217170Y628470D01*
X221570Y627070D02*
X218570Y630070D01*
X221770Y629670D02*
X220170Y631270D01*
X223070D02*
X222070Y632270D01*
X225670Y631670D02*
X224570Y632770D01*
X228470Y631370D02*
X226870Y632970D01*
X233570Y625870D02*
X230870Y628570D01*
X235570Y626070D02*
X228870Y632770D01*
X201070Y566670D02*
X197870D01*
X195570Y568969D02*
G03X197869Y566670I2600J301D01*
G01X195570Y568970D02*
Y573570D01*
X197871Y575870D02*
G03X195570Y573569I49J-2350D01*
G01X197870Y575870D02*
X201070D01*
Y581570*
G03Y560770I3765J-10400*
G01Y566670*
X201270Y561770D02*
G03Y580770I3704J9500D01*
G01X201070Y564870D02*
X198470Y562270D01*
X199870Y566670D02*
X196870Y563670D01*
X197270Y566870D02*
X195670Y565270D01*
Y568170D02*
X194670Y567170D01*
X195270Y570770D02*
X194170Y569670D01*
X195570Y573570D02*
X193970Y571970D01*
X201070Y578670D02*
X198370Y575970D01*
X200870Y580670D02*
X194170Y573970D01*
X366870Y345972D02*
Y339409D01*
X369597*
X375052Y344409D02*
X374825Y345034D01*
X374370Y345659*
X373916Y345972*
X373006*
X372552Y345659*
X372097Y345034*
X371870Y344409*
X371643Y343472*
Y341909*
X371870Y340972*
X372097Y340347*
X372552Y339722*
X373006Y339409*
X373916*
X374370Y339722*
X374825Y340347*
X375052Y340972*
X377097Y345972D02*
Y339409D01*
Y345972D02*
X378688D01*
X379370Y345659*
X379825Y345034*
X380052Y344409*
X380279Y343472*
Y341909*
X380052Y340972*
X379825Y340347*
X379370Y339722*
X378688Y339409*
X377097*
X382325Y344722D02*
X382779Y345034D01*
X383461Y345972*
Y339409*
X51470Y346233D02*
Y339670D01*
Y346233D02*
X53516D01*
X54197Y345920*
X54425Y345608*
X54652Y344983*
Y344358*
X54425Y343733*
X54197Y343420*
X53516Y343108*
X51470*
X53061D02*
X54652Y339670D01*
X56697Y346233D02*
Y339670D01*
Y346233D02*
X59652D01*
X56697Y343108D02*
X58516D01*
X56697Y339670D02*
X59652D01*
X64879Y345295D02*
X64425Y345920D01*
X63743Y346233*
X62834*
X62152Y345920*
X61697Y345295*
Y344670*
X61925Y344045*
X62152Y343733*
X62606Y343420*
X63970Y342795*
X64425Y342483*
X64652Y342170*
X64879Y341545*
Y340608*
X64425Y339983*
X63743Y339670*
X62834*
X62152Y339983*
X61697Y340608*
X66925Y346233D02*
Y339670D01*
Y346233D02*
X69879D01*
X66925Y343108D02*
X68743D01*
X66925Y339670D02*
X69879D01*
X73516Y346233D02*
Y339670D01*
X71925Y346233D02*
X75106D01*
X39370Y49370D02*
G03X49370Y39370I10000J0D01*
G01X39370Y49370D02*
Y214470D01*
X49370Y224470D02*
G03X39370Y214470I0J-10000D01*
G01Y234470D02*
G03X49370Y224470I10000J0D01*
G01X39370Y234470D02*
Y659370D01*
X49370Y669370D02*
G03X39370Y659370I0J-10000D01*
G01X49370Y669370D02*
X738070D01*
X748070Y659370D02*
G03X738070Y669370I-10000J0D01*
G01X748070Y659370D02*
Y234470D01*
X738070Y224470D02*
G03X748070Y234470I0J10000D01*
G01Y214470D02*
G03X738070Y224470I-10000J0D01*
G01X748070Y214470D02*
Y49370D01*
X738070Y39370D02*
G03X748070Y49370I0J10000D01*
G01X738070Y39370D02*
X49370D01*
X382370Y604370D02*
G03X377370Y599370I0J-5000D01*
G01X382370Y604370D02*
X386370D01*
G03X391370Y609370I0J5000*
G01Y622370*
X396370Y627370D02*
G03X391370Y622370I0J-5000D01*
G01X396370Y627370D02*
X706206D01*
X711206Y622370D02*
G03X706206Y627370I-5000J0D01*
G01X711206Y622370D02*
Y609370D01*
G03X716206Y604370I5000J0*
G01X731370*
X736370Y599370D02*
G03X731370Y604370I-5000J0D01*
G01X736370Y599370D02*
Y388370D01*
X731370Y383370D02*
G03X736370Y388370I0J5000D01*
G01X731370Y383370D02*
X382370D01*
X377370Y388370D02*
G03X382370Y383370I5000J0D01*
G01X377370Y388370D02*
Y599370D01*
X450620Y286909D02*
X444370Y280659D01*
X448120*
Y275659*
X453120*
Y280659*
X456870*
X450620Y286909*
X708120Y648159D02*
X701870Y654409D01*
Y650659*
X696870*
Y645659*
X701870*
Y641909*
X708120Y648159*
X706870Y241909D02*
X700620Y248159D01*
Y244409*
X695620*
Y239409*
X700620*
Y235659*
X706870Y241909*
X59370Y265659D02*
X65620Y271909D01*
X61870*
Y276909*
X56870*
Y271909*
X53120*
X59370Y265659*
X58120Y629409D02*
X51870Y623159D01*
X55620*
Y618159*
X60620*
Y623159*
X64370*
X58120Y629409*
X76193Y244070D02*
G03X76193I-17123J0D01*
G01X468293Y307070D02*
G03X468293I-17123J0D01*
G01X745493Y244070D02*
G03X745493I-17123J0D01*
G01Y649670D02*
G03X745493I-17123J0D01*
G01X76193D02*
G03X76193I-17123J0D01*
G01X19370Y224470D02*
X768070D01*
X19370D02*
X24370Y229470D01*
Y219470*
X19370Y224470*
X768070D02*
X763070Y229470D01*
Y219470*
X768070Y224470*
G54D13*
X181370Y194870D02*
Y154870D01*
X86370*
Y194870*
X181370*
X179370Y156870D02*
X88370D01*
Y192870*
X179370*
Y156870*
X166370Y174870D02*
X146370D01*
X122370D02*
X101370D01*
X146370D02*
G03X146370I-2000J0D01*
G01X126370D02*
G03X126370I-2000J0D01*
G01X142370D02*
X142370D01*
X134370D02*
G03X142370I4000J0D01*
G01X134370D02*
Y174170D01*
G03X126370I-4000J0*
G01Y174870*
X181370Y151870D02*
Y111870D01*
X86370*
Y151870*
X181370*
X179370Y113870D02*
X88370D01*
Y149870*
X179370*
Y113870*
X166370Y131870D02*
X146370D01*
X122370D02*
X101370D01*
X146370D02*
G03X146370I-2000J0D01*
G01X126370D02*
G03X126370I-2000J0D01*
G01X142370D02*
X142370D01*
X134370D02*
G03X142370I4000J0D01*
G01X134370D02*
Y131170D01*
G03X126370I-4000J0*
G01Y131870*
X181370Y108870D02*
Y68870D01*
X86370*
Y108870*
X181370*
X179370Y70870D02*
X88370D01*
Y106870*
X179370*
Y70870*
X166370Y88870D02*
X146370D01*
X122370D02*
X101370D01*
X146370D02*
G03X146370I-2000J0D01*
G01X126370D02*
G03X126370I-2000J0D01*
G01X142370D02*
X142370D01*
X134370D02*
G03X142370I4000J0D01*
G01X134370D02*
Y88170D01*
G03X126370I-4000J0*
G01Y88870*
X199370Y89870D02*
X220370Y68870D01*
X199370*
Y89870*
X218370Y154870D02*
X344370D01*
X218370Y192870D02*
X344370D01*
Y76870*
X218370*
Y192870*
X199370Y200870D02*
X364370D01*
Y68870*
X199370*
Y200870*
X370370Y89870D02*
X391370Y68870D01*
X370370*
Y89870*
X389370Y154870D02*
X515370D01*
X389370Y192870D02*
X515370D01*
Y76870*
X389370*
Y192870*
X370370Y200870D02*
X535370D01*
Y68870*
X370370*
Y200870*
X541370Y89870D02*
X562370Y68870D01*
X541370*
Y89870*
X560370Y154870D02*
X686370D01*
X560370Y192870D02*
X686370D01*
Y76870*
X560370*
Y192870*
X541370Y200870D02*
X706370D01*
Y68870*
X541370*
Y200870*
X51370Y304945D02*
Y301945D01*
X46370*
Y275945*
X51370*
Y273945*
Y275945D02*
X56370D01*
Y301945*
X46370*
Y296945*
X56370*
Y293945*
X46370*
Y294545*
X56370*
Y295245*
X46370*
Y295945*
X56370*
X46470Y296445D02*
X56270D01*
X93370Y304945D02*
Y301945D01*
X88370*
Y275945*
X93370*
Y273945*
Y275945D02*
X98370D01*
Y301945*
X88370*
Y296945*
X98370*
Y293945*
X88370*
Y294545*
X98370*
Y295245*
X88370*
Y295945*
X98370*
X88470Y296445D02*
X98270D01*
X135370Y304945D02*
Y301945D01*
X130370*
Y275945*
X135370*
Y273945*
Y275945D02*
X140370D01*
Y301945*
X130370*
Y296945*
X140370*
Y293945*
X130370*
Y294545*
X140370*
Y295245*
X130370*
Y295945*
X140370*
X130470Y296445D02*
X140270D01*
X257370Y309945D02*
Y306945D01*
X252370*
Y280945*
X257370*
Y278945*
Y280945D02*
X262370D01*
Y306945*
X252370*
Y301945*
X262370*
Y298945*
X252370*
Y299545*
X262370*
Y300245*
X252370*
Y300945*
X262370*
X252470Y301445D02*
X262270D01*
X217370Y309945D02*
Y306945D01*
X212370*
Y280945*
X217370*
Y278945*
Y280945D02*
X222370D01*
Y306945*
X212370*
Y301945*
X222370*
Y298945*
X212370*
Y299545*
X222370*
Y300245*
X212370*
Y300945*
X222370*
X212470Y301445D02*
X222270D01*
X177370Y309945D02*
Y306945D01*
X172370*
Y280945*
X177370*
Y278945*
Y280945D02*
X182370D01*
Y306945*
X172370*
Y301945*
X182370*
Y298945*
X172370*
Y299545*
X182370*
Y300245*
X172370*
Y300945*
X182370*
X172470Y301445D02*
X182270D01*
X296370Y628670D02*
X316370D01*
Y631670*
X315370*
Y665670*
X316370*
Y668670*
X306370*
Y665670*
X296370*
Y628670*
X301370Y665670D02*
Y628670D01*
X298370Y665670D02*
Y668670D01*
X301370*
Y667670*
X303370*
Y668670*
X306370*
Y665670*
X298370*
X318370Y628670D02*
X338370D01*
Y631670*
X337370*
Y665670*
X338370*
Y668670*
X328370*
Y665670*
X318370*
Y628670*
X323370Y665670D02*
Y628670D01*
X320370Y665670D02*
Y668670D01*
X323370*
Y667670*
X325370*
Y668670*
X328370*
Y665670*
X320370*
X340370Y628670D02*
X360370D01*
Y631670*
X359370*
Y665670*
X360370*
Y668670*
X350370*
Y665670*
X340370*
Y628670*
X345370Y665670D02*
Y628670D01*
X342370Y665670D02*
Y668670D01*
X345370*
Y667670*
X347370*
Y668670*
X350370*
Y665670*
X342370*
X362370Y628670D02*
X382370D01*
Y631670*
X381370*
Y665670*
X382370*
Y668670*
X372370*
Y665670*
X362370*
Y628670*
X367370Y665670D02*
Y628670D01*
X364370Y665670D02*
Y668670D01*
X367370*
Y667670*
X369370*
Y668670*
X372370*
Y665670*
X364370*
X384370Y628670D02*
X404370D01*
Y631670*
X403370*
Y665670*
X404370*
Y668670*
X394370*
Y665670*
X384370*
Y628670*
X389370Y665670D02*
Y628670D01*
X386370Y665670D02*
Y668670D01*
X389370*
Y667670*
X391370*
Y668670*
X394370*
Y665670*
X386370*
X406370Y628670D02*
X426370D01*
Y631670*
X425370*
Y665670*
X426370*
Y668670*
X416370*
Y665670*
X406370*
Y628670*
X411370Y665670D02*
Y628670D01*
X408370Y665670D02*
Y668670D01*
X411370*
Y667670*
X413370*
Y668670*
X416370*
Y665670*
X408370*
G54D14*
X189970Y543770D02*
X154970D01*
X154973Y543771D02*
G03Y528769I3122J-7501D01*
G01X154970Y528770D02*
X189970D01*
X189967Y528769D02*
G03Y543771I-3122J7501D01*
G01X164770Y374070D02*
Y344070D01*
X164786Y344038D02*
G03X164760Y374040I4359J15005D01*
G01X342870Y451870D02*
X339870Y453870D01*
Y449870*
X342870Y451870*
X355870Y458870D02*
X357870Y456870D01*
Y436870*
X355870Y434870*
X345870*
X343870Y436870*
Y456870*
X345870Y458870*
X355870*
X162694Y455270D02*
G03X162694I-4724J0D01*
G01X264794Y498070D02*
G03X264794I-4724J0D01*
G01X220794Y513670D02*
G03X220794I-4724J0D01*
G01X189994Y567970D02*
G03X189994I-4724J0D01*
G01X341786Y269770D02*
G03X341786I-24016J0D01*
G01X313833Y297329D02*
X321707D01*
X317770Y301266D02*
Y293392D01*
X172405Y593342D02*
G03X172405I-1473J0D01*
G01X174870Y597270D02*
X134870D01*
Y567270*
X174870*
Y579770*
X172839*
Y584770D02*
G03Y579770I2068J-2500D01*
G01Y584770D02*
X174870D01*
Y597270*
X108213Y636772D02*
X116087D01*
Y668268*
X80654*
Y636772*
X88331*
Y640709*
X94236*
Y636772*
X102307*
Y640709*
X108213*
Y636772*
X105277Y634670D02*
X100277Y629670D01*
X110277*
X105277Y634670*
X180567Y636772D02*
X193756D01*
Y668268*
X116984*
Y636772*
X130173*
Y640709*
X139228*
Y636772*
X171512*
Y640709*
X180567*
Y636772*
X182929Y635276D02*
X176929Y629276D01*
X188929*
X182929Y635276*
X246055Y636772D02*
X257866D01*
Y668268*
X194874*
Y636772*
X206685*
Y640709*
X214559*
Y636772*
X238181*
Y640709*
X246055*
Y636772*
X247057Y634670D02*
X242057Y629670D01*
X252057*
X247057Y634670*
X286213Y636772D02*
X294087D01*
Y668268*
X258654*
Y636772*
X266331*
Y640709*
X272236*
Y636772*
X280307*
Y640709*
X286213*
Y636772*
X283277Y634670D02*
X278277Y629670D01*
X288277*
X283277Y634670*
X71969Y157067D02*
Y170256D01*
X40472*
Y93484*
X71969*
Y106673*
X68031*
Y115728*
X71969*
Y148012*
X68031*
Y157067*
X71969*
X73465Y159429D02*
X79465Y153429D01*
Y165429*
X73465Y159429*
X715772Y108248D02*
Y79705D01*
X747268*
Y184035*
X715772*
Y155492*
X719709*
Y147618*
X715772*
Y116122*
X719709*
Y108248*
X715772*
X713670Y90702D02*
X707670Y96702D01*
Y84702*
X713670Y90702*
X195348Y256969D02*
X166805D01*
Y225472*
X271135*
Y256969*
X242592*
Y253031*
X234718*
Y256969*
X203222*
Y253031*
X195348*
Y256969*
X177802Y259070D02*
X183802Y265070D01*
X171802*
X177802Y259070*
X97873Y256969D02*
X80747D01*
Y225472*
X165393*
Y256969*
X148267*
Y253031*
X139212*
Y256969*
X106928*
Y253031*
X97873*
Y256969*
X88621Y258268D02*
X94621Y264268D01*
X82621*
X88621Y258268*
X332670Y489270D02*
X313670D01*
Y476270*
X332670*
Y481270*
X331436*
X331437Y484270D02*
G03Y481270I1249J-1500D01*
G01X331436Y484270D02*
X332670D01*
Y489270*
X331221Y486670D02*
G03X331221I-1101J0D01*
G01X210118Y463354D02*
X212087Y465322D01*
Y498787*
X176654*
Y463354*
X210118*
X209607Y466661D02*
G03X209607I-946J0D01*
G01X216654Y464810D02*
X218622Y462842D01*
X214685*
X216654Y464810*
X345970Y565370D02*
X326970D01*
Y552370*
X345970*
Y557370*
X344736*
X344737Y560370D02*
G03Y557370I1249J-1500D01*
G01X344736Y560370D02*
X345970D01*
Y565370*
X344521Y562770D02*
G03X344521I-1101J0D01*
G01X209770Y585670D02*
Y612070D01*
X197770*
Y585670*
X209770*
X125370Y409670D02*
Y390670D01*
X138370*
Y409670*
X133370*
Y408436*
X130370Y408437D02*
G03X133370I1500J1249D01*
G01X130370Y408436D02*
Y409670D01*
X125370*
X129071Y407120D02*
G03X129071I-1101J0D01*
G01X250971Y387432D02*
G03X250971I-1473J0D01*
G01X246670Y390370D02*
Y364370D01*
X261770*
Y390370*
X255670*
Y388339*
X252470D02*
G03X255670I1600J1323D01*
G01X252470D02*
Y390370D01*
X246670*
X250771Y429032D02*
G03X250771I-1473J0D01*
G01X246470Y431970D02*
Y405970D01*
X261570*
Y431970*
X255470*
Y429939*
X252270D02*
G03X255470I1600J1323D01*
G01X252270D02*
Y431970D01*
X246470*
X113394Y432470D02*
G03X113394I-4724J0D01*
G01X294694Y491070D02*
G03X294694I-4724J0D01*
G01X321977Y557570D02*
G03X321977I-43307J0D01*
G01X247139Y585087D02*
G03X247187Y529995I33500J-27517D01*
G01X243202Y585087D02*
G03X243250Y529995I33500J-27517D01*
G01X247174Y530011D02*
Y585129D01*
X243237Y530011D02*
Y585129D01*
X245206Y533948D02*
Y581192D01*
X241269Y541822D02*
Y575287D01*
X239300Y549696D02*
Y567413D01*
X580270Y651320D02*
Y646070D01*
Y651320D02*
X581906D01*
X582452Y651070*
X582634Y650820*
X582816Y650320*
Y649570*
X582634Y649070*
X582452Y648820*
X581906Y648570*
X580270*
X585906Y651320D02*
X584452Y646070D01*
X585906Y651320D02*
X587361Y646070D01*
X584997Y647820D02*
X586816D01*
X588997Y651320D02*
Y646070D01*
Y651320D02*
X590634D01*
X591179Y651070*
X591361Y650820*
X591543Y650320*
Y649820*
X591361Y649320*
X591179Y649070*
X590634Y648820*
X588997*
X590270D02*
X591543Y646070D01*
X594452Y651320D02*
Y646070D01*
X593179Y651320D02*
X595725D01*
X605906Y649570D02*
X605725Y649320D01*
X605906Y649070*
X606088Y649320*
X605906Y649570*
Y646570D02*
X605725Y646320D01*
X605906Y646070*
X606088Y646320*
X605906Y646570*
X611906Y651320D02*
Y646070D01*
Y651320D02*
X613361Y646070D01*
X614816Y651320D02*
X613361Y646070D01*
X614816Y651320D02*
Y646070D01*
X617361Y649570D02*
X616997Y649320D01*
X616634Y648820*
X616452Y648070*
Y647570*
X616634Y646820*
X616997Y646320*
X617361Y646070*
X617906*
X618270Y646320*
X618634Y646820*
X618816Y647570*
Y648070*
X618634Y648820*
X618270Y649320*
X617906Y649570*
X617361*
X622634Y651320D02*
Y646070D01*
Y648820D02*
X622270Y649320D01*
X621906Y649570*
X621361*
X620997Y649320*
X620634Y648820*
X620452Y648070*
Y647570*
X620634Y646820*
X620997Y646320*
X621361Y646070*
X621906*
X622270Y646320*
X622634Y646820*
X624270Y649570D02*
Y647070D01*
X624452Y646320*
X624816Y646070*
X625361*
X625725Y646320*
X626270Y647070*
Y649570D02*
Y646070D01*
X627906Y651320D02*
Y646070D01*
X629543Y648070D02*
X631725D01*
Y648570*
X631543Y649070*
X631361Y649320*
X630997Y649570*
X630452*
X630088Y649320*
X629725Y648820*
X629543Y648070*
Y647570*
X629725Y646820*
X630088Y646320*
X630452Y646070*
X630997*
X631361Y646320*
X631725Y646820*
X637543Y651320D02*
Y646070D01*
X639725*
X644088Y650070D02*
X643906Y650570D01*
X643543Y651070*
X643179Y651320*
X642452*
X642088Y651070*
X641725Y650570*
X641543Y650070*
X641361Y649320*
Y648070*
X641543Y647320*
X641725Y646820*
X642088Y646320*
X642452Y646070*
X643179*
X643543Y646320*
X643906Y646820*
X644088Y647320*
X645725Y651320D02*
Y646070D01*
Y651320D02*
X646997D01*
X647543Y651070*
X647906Y650570*
X648088Y650070*
X648270Y649320*
Y648070*
X648088Y647320*
X647906Y646820*
X647543Y646320*
X646997Y646070*
X645725*
X654088Y651320D02*
Y646070D01*
Y651320D02*
X655361D01*
X655906Y651070*
X656270Y650570*
X656452Y650070*
X656634Y649320*
Y648070*
X656452Y647320*
X656270Y646820*
X655906Y646320*
X655361Y646070*
X654088*
X658270Y651320D02*
X658452Y651070D01*
X658634Y651320*
X658452Y651570*
X658270Y651320*
X658452Y649570D02*
Y646070D01*
X662270Y648820D02*
X662088Y649320D01*
X661543Y649570*
X660997*
X660452Y649320*
X660270Y648820*
X660452Y648320*
X660816Y648070*
X661725Y647820*
X662088Y647570*
X662270Y647070*
Y646820*
X662088Y646320*
X661543Y646070*
X660997*
X660452Y646320*
X660270Y646820*
X663906Y649570D02*
Y644320D01*
Y648820D02*
X664270Y649320D01*
X664634Y649570*
X665179*
X665543Y649320*
X665906Y648820*
X666088Y648070*
Y647570*
X665906Y646820*
X665543Y646320*
X665179Y646070*
X664634*
X664270Y646320*
X663906Y646820*
X667725Y651320D02*
Y646070D01*
X671543Y649570D02*
Y646070D01*
Y648820D02*
X671179Y649320D01*
X670816Y649570*
X670270*
X669906Y649320*
X669543Y648820*
X669361Y648070*
Y647570*
X669543Y646820*
X669906Y646320*
X670270Y646070*
X670816*
X671179Y646320*
X671543Y646820*
X673361Y649570D02*
X674452Y646070D01*
X675543Y649570D02*
X674452Y646070D01*
X674088Y645070*
X673725Y644570*
X673361Y644320*
X673179*
X681361Y651320D02*
Y646070D01*
Y651320D02*
X682997D01*
X683543Y651070*
X683725Y650820*
X683906Y650320*
Y649820*
X683725Y649320*
X683543Y649070*
X682997Y648820*
X681361D02*
X682997D01*
X683543Y648570*
X683725Y648320*
X683906Y647820*
Y647070*
X683725Y646570*
X683543Y646320*
X682997Y646070*
X681361*
X688816Y652320D02*
X685543Y644320D01*
X690452Y651320D02*
Y646070D01*
Y651320D02*
X691725D01*
X692270Y651070*
X692634Y650570*
X692816Y650070*
X692997Y649320*
Y648070*
X692816Y647320*
X692634Y646820*
X692270Y646320*
X691725Y646070*
X690452*
X580270Y662320D02*
Y657070D01*
Y662320D02*
X581725Y657070D01*
X583179Y662320D02*
X581725Y657070D01*
X583179Y662320D02*
Y657070D01*
X585906Y662320D02*
X585543Y662070D01*
X585179Y661570*
X584997Y661070*
X584816Y660320*
Y659070*
X584997Y658320*
X585179Y657820*
X585543Y657320*
X585906Y657070*
X586634*
X586997Y657320*
X587361Y657820*
X587543Y658320*
X587725Y659070*
Y660320*
X587543Y661070*
X587361Y661570*
X586997Y662070*
X586634Y662320*
X585906*
X589361D02*
Y657070D01*
Y662320D02*
X590634D01*
X591179Y662070*
X591543Y661570*
X591725Y661070*
X591906Y660320*
Y659070*
X591725Y658320*
X591543Y657820*
X591179Y657320*
X590634Y657070*
X589361*
X593543Y662320D02*
Y657070D01*
Y662320D02*
X595906D01*
X593543Y659820D02*
X594997D01*
X593543Y657070D02*
X595906D01*
X597543Y662320D02*
Y657070D01*
X599725*
X605725Y660570D02*
X605543Y660320D01*
X605725Y660070*
X605906Y660320*
X605725Y660570*
Y657570D02*
X605543Y657320D01*
X605725Y657070*
X605906Y657320*
X605725Y657570*
X611725Y662320D02*
Y657070D01*
X614270Y662320D02*
Y657070D01*
X611725Y659820D02*
X614270D01*
X615906Y662320D02*
Y657070D01*
Y662320D02*
X618270D01*
X615906Y659820D02*
X617361D01*
X622634Y661070D02*
X622452Y661570D01*
X622088Y662070*
X621725Y662320*
X620997*
X620634Y662070*
X620270Y661570*
X620088Y661070*
X619906Y660320*
Y659070*
X620088Y658320*
X620270Y657820*
X620634Y657320*
X620997Y657070*
X621725*
X622088Y657320*
X622452Y657820*
X622634Y658320*
X624270Y659320D02*
X627543D01*
X629543Y662320D02*
X631543D01*
X630452Y660320*
X630997*
X631361Y660070*
X631543Y659820*
X631725Y659070*
Y658570*
X631543Y657820*
X631179Y657320*
X630634Y657070*
X630088*
X629543Y657320*
X629361Y657570*
X629179Y658070*
X633361Y661320D02*
X633725Y661570D01*
X634270Y662320*
Y657070*
X636997Y662320D02*
X636452Y662070D01*
X636088Y661320*
X635906Y660070*
Y659320*
X636088Y658070*
X636452Y657320*
X636997Y657070*
X637361*
X637906Y657320*
X638270Y658070*
X638452Y659320*
Y660070*
X638270Y661320*
X637906Y662070*
X637361Y662320*
X636997*
X641179D02*
X640634Y662070D01*
X640270Y661320*
X640088Y660070*
Y659320*
X640270Y658070*
X640634Y657320*
X641179Y657070*
X641543*
X642088Y657320*
X642452Y658070*
X642634Y659320*
Y660070*
X642452Y661320*
X642088Y662070*
X641543Y662320*
X641179*
X644270D02*
Y657070D01*
Y662320D02*
X645543D01*
X646088Y662070*
X646452Y661570*
X646634Y661070*
X646816Y660320*
Y659070*
X646634Y658320*
X646452Y657820*
X646088Y657320*
X645543Y657070*
X644270*
X474099Y660974D02*
X473562Y661712D01*
X472757Y662081*
X471683*
X470878Y661712*
X470341Y660974*
Y660235*
X470609Y659497*
X470878Y659128*
X471415Y658759*
X473025Y658021*
X473562Y657652*
X473831Y657283*
X474099Y656544*
Y655437*
X473562Y654699*
X472757Y654330*
X471683*
X470878Y654699*
X470341Y655437*
X476515Y657283D02*
X479736D01*
Y658021*
X479468Y658759*
X479199Y659128*
X478662Y659497*
X477857*
X477320Y659128*
X476783Y658390*
X476515Y657283*
Y656544*
X476783Y655437*
X477320Y654699*
X477857Y654330*
X478662*
X479199Y654699*
X479736Y655437*
X483494Y659497D02*
X482957Y659128D01*
X482420Y658390*
X482152Y657283*
Y656544*
X482420Y655437*
X482957Y654699*
X483494Y654330*
X484299*
X484836Y654699*
X485373Y655437*
X485642Y656544*
Y657283*
X485373Y658390*
X484836Y659128*
X484299Y659497*
X483494*
X488057D02*
Y655806D01*
X488326Y654699*
X488863Y654330*
X489668*
X490205Y654699*
X491010Y655806*
Y659497D02*
Y654330D01*
X493426Y662081D02*
Y654330D01*
X502016Y662081D02*
Y654330D01*
Y662081D02*
X505506D01*
X502016Y658390D02*
X504163D01*
X502016Y654330D02*
X505506D01*
X507921Y662081D02*
Y654330D01*
X510337Y657283D02*
X513559D01*
Y658021*
X513290Y658759*
X513022Y659128*
X512485Y659497*
X511680*
X511143Y659128*
X510606Y658390*
X510337Y657283*
Y656544*
X510606Y655437*
X511143Y654699*
X511680Y654330*
X512485*
X513022Y654699*
X513559Y655437*
X519196Y658390D02*
X518659Y659128D01*
X518122Y659497*
X517317*
X516780Y659128*
X516243Y658390*
X515974Y657283*
Y656544*
X516243Y655437*
X516780Y654699*
X517317Y654330*
X518122*
X518659Y654699*
X519196Y655437*
X522417Y662081D02*
Y655806D01*
X522685Y654699*
X523222Y654330*
X523759*
X521612Y659497D02*
X523491D01*
X526175D02*
Y654330D01*
Y657283D02*
X526443Y658390D01*
X526980Y659128*
X527517Y659497*
X528322*
X530738Y662081D02*
X531007Y661712D01*
X531275Y662081*
X531007Y662450*
X530738Y662081*
X531007Y659497D02*
Y654330D01*
X536912Y658390D02*
X536375Y659128D01*
X535838Y659497*
X535033*
X534496Y659128*
X533959Y658390*
X533691Y657283*
Y656544*
X533959Y655437*
X534496Y654699*
X535033Y654330*
X535838*
X536375Y654699*
X536912Y655437*
X545502Y662081D02*
Y654330D01*
Y662081D02*
X547918D01*
X548723Y661712*
X548992Y661343*
X549260Y660605*
Y659497*
X548992Y658759*
X548723Y658390*
X547918Y658021*
X545502*
X553018Y659497D02*
X552481Y659128D01*
X551944Y658390*
X551676Y657283*
Y656544*
X551944Y655437*
X552481Y654699*
X553018Y654330*
X553823*
X554360Y654699*
X554897Y655437*
X555166Y656544*
Y657283*
X554897Y658390*
X554360Y659128*
X553823Y659497*
X553018*
X557581D02*
X558655Y654330D01*
X559729Y659497D02*
X558655Y654330D01*
X559729Y659497D02*
X560803Y654330D01*
X561876Y659497D02*
X560803Y654330D01*
X564292Y657283D02*
X567513D01*
Y658021*
X567245Y658759*
X566977Y659128*
X566440Y659497*
X565634*
X565098Y659128*
X564561Y658390*
X564292Y657283*
Y656544*
X564561Y655437*
X565098Y654699*
X565634Y654330*
X566440*
X566977Y654699*
X567513Y655437*
X569929Y659497D02*
Y654330D01*
Y657283D02*
X570198Y658390D01*
X570735Y659128*
X571272Y659497*
X572077*
X474099Y648974D02*
X473562Y649712D01*
X472757Y650081*
X471683*
X470878Y649712*
X470341Y648974*
Y648235*
X470609Y647497*
X470878Y647128*
X471415Y646759*
X473025Y646021*
X473562Y645652*
X473831Y645283*
X474099Y644544*
Y643437*
X473562Y642699*
X472757Y642330*
X471683*
X470878Y642699*
X470341Y643437*
X476783Y647497D02*
X478394Y642330D01*
X480005Y647497D02*
X478394Y642330D01*
X477857Y640854*
X477320Y640115*
X476783Y639746*
X476515*
X485373Y646390D02*
X485105Y647128D01*
X484299Y647497*
X483494*
X482689Y647128*
X482420Y646390*
X482689Y645652*
X483226Y645283*
X484568Y644914*
X485105Y644544*
X485373Y643806*
Y643437*
X485105Y642699*
X484299Y642330*
X483494*
X482689Y642699*
X482420Y643437*
X488594Y650081D02*
Y643806D01*
X488863Y642699*
X489400Y642330*
X489937*
X487789Y647497D02*
X489668D01*
X492352Y645283D02*
X495574D01*
Y646021*
X495305Y646759*
X495037Y647128*
X494500Y647497*
X493695*
X493158Y647128*
X492621Y646390*
X492352Y645283*
Y644544*
X492621Y643437*
X493158Y642699*
X493695Y642330*
X494500*
X495037Y642699*
X495574Y643437*
X497989Y647497D02*
Y642330D01*
Y646021D02*
X498795Y647128D01*
X499332Y647497*
X500137*
X500674Y647128*
X500942Y646021*
Y642330*
Y646021D02*
X501748Y647128D01*
X502284Y647497*
X503090*
X503627Y647128*
X503895Y646021*
Y642330*
X516511Y648235D02*
X516243Y648974D01*
X515706Y649712*
X515169Y650081*
X514095*
X513559Y649712*
X513022Y648974*
X512753Y648235*
X512485Y647128*
Y645283*
X512753Y644175*
X513022Y643437*
X513559Y642699*
X514095Y642330*
X515169*
X515706Y642699*
X516243Y643437*
X516511Y644175*
X520269Y647497D02*
X519732Y647128D01*
X519732D02*
X519196Y646390D01*
X518927Y645283*
Y644544*
X519196Y643437*
X519732Y642699*
X519732D02*
X520269Y642330D01*
X521075*
X521612Y642699*
X522148Y643437*
X522417Y644544*
Y645283*
X522148Y646390*
X521612Y647128*
X521075Y647497*
X520269*
X525101Y643068D02*
X524833Y642699D01*
X525101Y642330*
X525370Y642699*
X525101Y643068*
X533959Y650081D02*
Y642330D01*
X537181Y650081D02*
Y643806D01*
X537449Y642699*
X537986Y642330*
X538523*
X536375Y647497D02*
X538254D01*
X544160Y650081D02*
Y642330D01*
Y646390D02*
X543623Y647128D01*
X543086Y647497*
X542281*
X541744Y647128*
X541207Y646390*
X540939Y645283*
Y644544*
X541207Y643437*
X541744Y642699*
X542281Y642330*
X543086*
X543623Y642699*
X544160Y643437*
X546844Y643068D02*
X546576Y642699D01*
X546844Y642330*
X547113Y642699*
X546844Y643068*
X550065Y642699D02*
X549797Y642330D01*
X549528Y642699*
X549797Y643068*
X550065Y642699*
Y641961*
X549797Y641223*
X549528Y640854*
X506497Y247092D02*
X505924Y247880D01*
X505065Y248273*
X503920*
X503061Y247880*
X502488Y247092*
Y246305*
X502774Y245517*
X503061Y245124*
X503633Y244730*
X505351Y243943*
X505924Y243549*
X506210Y243155*
X506497Y242368*
Y241187*
X505924Y240399*
X505065Y240006*
X503920*
X503061Y240399*
X502488Y241187*
X514227Y249848D02*
X509074Y237250D01*
X516804Y248273D02*
Y240006D01*
Y248273D02*
X520813Y240006D01*
Y248273D02*
Y240006D01*
X580270Y640320D02*
Y635070D01*
Y640320D02*
X582816Y635070D01*
Y640320D02*
Y635070D01*
X585543Y640320D02*
X585179Y640070D01*
X584816Y639570*
X584634Y639070*
X584452Y638320*
Y637070*
X584634Y636320*
X584816Y635820*
X585179Y635320*
X585543Y635070*
X586270*
X586634Y635320*
X586997Y635820*
X587179Y636320*
X587361Y637070*
Y638320*
X587179Y639070*
X586997Y639570*
X586634Y640070*
X586270Y640320*
X585543*
X605906Y638570D02*
X605725Y638320D01*
X605906Y638070*
X606088Y638320*
X605906Y638570*
Y635570D02*
X605725Y635320D01*
X605906Y635070*
X606088Y635320*
X605906Y635570*
X612088Y639070D02*
Y639320D01*
X612270Y639820*
X612452Y640070*
X612816Y640320*
X613543*
X613906Y640070*
X614088Y639820*
X614270Y639320*
Y638820*
X614088Y638320*
X613725Y637570*
X611906Y635070*
X614452*
X616270Y639070D02*
Y639320D01*
X616452Y639820*
X616634Y640070*
X616997Y640320*
X617725*
X618088Y640070*
X618270Y639820*
X618452Y639320*
Y638820*
X618270Y638320*
X617906Y637570*
X616088Y635070*
X618634*
X620270Y637320D02*
X623543D01*
X626270Y640320D02*
X625725Y640070D01*
X625361Y639320*
X625179Y638070*
Y637320*
X625361Y636070*
X625725Y635320*
X626270Y635070*
X626634*
X627179Y635320*
X627543Y636070*
X627725Y637320*
Y638070*
X627543Y639320*
X627179Y640070*
X626634Y640320*
X626270*
X631179D02*
X629361Y636820D01*
X632088*
X631179Y640320D02*
Y635070D01*
X633725Y637320D02*
X636997D01*
X638816Y639070D02*
Y639320D01*
X638997Y639820*
X639179Y640070*
X639543Y640320*
X640270*
X640634Y640070*
X640816Y639820*
X640997Y639320*
Y638820*
X640816Y638320*
X640452Y637570*
X638634Y635070*
X641179*
X645179Y640320D02*
X643361D01*
X643179Y638070*
X643361Y638320*
X643906Y638570*
X644452*
X644997Y638320*
X645361Y637820*
X645543Y637070*
X645361Y636570*
X645179Y635820*
X644816Y635320*
X644270Y635070*
X643725*
X643179Y635320*
X642997Y635570*
X642816Y636070*
X651361Y640320D02*
Y635070D01*
Y640320D02*
X652997D01*
X653543Y640070*
X653725Y639820*
X653906Y639320*
Y638820*
X653725Y638320*
X653543Y638070*
X652997Y637820*
X651361*
X652634D02*
X653906Y635070D01*
X655543Y637070D02*
X657725D01*
Y637570*
X657543Y638070*
X657361Y638320*
X656997Y638570*
X656452*
X656088Y638320*
X655725Y637820*
X655543Y637070*
Y636570*
X655725Y635820*
X656088Y635320*
X656452Y635070*
X656997*
X657361Y635320*
X657725Y635820*
X659361Y638570D02*
X660452Y635070D01*
X661543Y638570D02*
X660452Y635070D01*
X663543Y640320D02*
X665543D01*
X664452Y638320*
X664997*
X665361Y638070*
X665543Y637820*
X665725Y637070*
Y636570*
X665543Y635820*
X665179Y635320*
X664634Y635070*
X664088*
X663543Y635320*
X663361Y635570*
X663179Y636070*
X667543Y635570D02*
X667361Y635320D01*
X667543Y635070*
X667725Y635320*
X667543Y635570*
X670452Y640320D02*
X669906Y640070D01*
X669543Y639320*
X669361Y638070*
Y637320*
X669543Y636070*
X669906Y635320*
X670452Y635070*
X670816*
X671361Y635320*
X671725Y636070*
X671906Y637320*
Y638070*
X671725Y639320*
X671361Y640070*
X670816Y640320*
X670452*
X774370Y231495D02*
X778006Y218370D01*
X781643Y231495D02*
X778006Y218370D01*
X785734Y215870D02*
X795279D01*
X804825Y228370D02*
X804370Y229620D01*
X803461Y230870*
X802552Y231495*
X800734*
X799825Y230870*
X798916Y229620*
X798461Y228370*
X798006Y226495*
Y223370*
X798461Y221495*
X798916Y220245*
X799825Y218995*
X800734Y218370*
X802552*
X803461Y218995*
X804370Y220245*
X804825Y221495*
X808916Y231495D02*
Y222120D01*
X809370Y220245*
X810279Y218995*
X811643Y218370*
X812552*
X813916Y218995*
X814825Y220245*
X815279Y222120*
Y231495*
X822552D02*
Y218370D01*
X819370Y231495D02*
X825734D01*
X118599Y217374D02*
X118062Y218112D01*
X117257Y218481*
X116183*
X115378Y218112*
X114841Y217374*
Y216635*
X115109Y215897*
X115378Y215528*
X115915Y215159*
X117525Y214421*
X118062Y214052*
X118331Y213683*
X118599Y212944*
Y211837*
X118062Y211099*
X117257Y210730*
X116183*
X115378Y211099*
X114841Y211837*
X121015Y213683D02*
X124236D01*
Y214421*
X123968Y215159*
X123699Y215528*
X123162Y215897*
X122357*
X121820Y215528*
X121283Y214790*
X121015Y213683*
Y212944*
X121283Y211837*
X121820Y211099*
X122357Y210730*
X123162*
X123699Y211099*
X124236Y211837*
X127994Y215897D02*
X127457Y215528D01*
X126920Y214790*
X126652Y213683*
Y212944*
X126920Y211837*
X127457Y211099*
X127994Y210730*
X128799*
X129336Y211099*
X129873Y211837*
X130142Y212944*
Y213683*
X129873Y214790*
X129336Y215528*
X128799Y215897*
X127994*
X132557D02*
Y212206D01*
X132826Y211099*
X133363Y210730*
X134168*
X134705Y211099*
X135510Y212206*
Y215897D02*
Y210730D01*
X137926Y218481D02*
Y210730D01*
X146516Y218481D02*
Y210730D01*
Y218481D02*
X150006D01*
X146516Y214790D02*
X148663D01*
X146516Y210730D02*
X150006D01*
X152421Y218481D02*
Y210730D01*
X154837Y213683D02*
X158059D01*
Y214421*
X157790Y215159*
X157522Y215528*
X156985Y215897*
X156180*
X155643Y215528*
X155106Y214790*
X154837Y213683*
Y212944*
X155106Y211837*
X155643Y211099*
X156180Y210730*
X156985*
X157522Y211099*
X158059Y211837*
X163696Y214790D02*
X163159Y215528D01*
X162622Y215897*
X161817*
X161280Y215528*
X160743Y214790*
X160474Y213683*
Y212944*
X160743Y211837*
X161280Y211099*
X161817Y210730*
X162622*
X163159Y211099*
X163696Y211837*
X166917Y218481D02*
Y212206D01*
X167185Y211099*
X167722Y210730*
X168259*
X166112Y215897D02*
X167991D01*
X170675D02*
Y210730D01*
Y213683D02*
X170943Y214790D01*
X171480Y215528*
X172017Y215897*
X172822*
X175238Y218481D02*
X175507Y218112D01*
X175775Y218481*
X175507Y218850*
X175238Y218481*
X175507Y215897D02*
Y210730D01*
X181412Y214790D02*
X180875Y215528D01*
X180338Y215897*
X179533*
X178996Y215528*
X178459Y214790*
X178191Y213683*
Y212944*
X178459Y211837*
X178996Y211099*
X179533Y210730*
X180338*
X180875Y211099*
X181412Y211837*
X190002Y218481D02*
Y210730D01*
Y218481D02*
X192418D01*
X193223Y218112*
X193492Y217743*
X193760Y217005*
Y215897*
X193492Y215159*
X193223Y214790*
X192418Y214421*
X190002*
X197518Y215897D02*
X196981Y215528D01*
X196444Y214790*
X196176Y213683*
Y212944*
X196444Y211837*
X196981Y211099*
X197518Y210730*
X198323*
X198860Y211099*
X199397Y211837*
X199666Y212944*
Y213683*
X199397Y214790*
X198860Y215528*
X198323Y215897*
X197518*
X202081D02*
X203155Y210730D01*
X204229Y215897D02*
X203155Y210730D01*
X204229Y215897D02*
X205303Y210730D01*
X206376Y215897D02*
X205303Y210730D01*
X208792Y213683D02*
X212013D01*
Y214421*
X211745Y215159*
X211477Y215528*
X210940Y215897*
X210134*
X209598Y215528*
X209061Y214790*
X208792Y213683*
Y212944*
X209061Y211837*
X209598Y211099*
X210134Y210730*
X210940*
X211477Y211099*
X212013Y211837*
X214429Y215897D02*
Y210730D01*
Y213683D02*
X214698Y214790D01*
X215235Y215528*
X215772Y215897*
X216577*
X118599Y205374D02*
X118062Y206112D01*
X117257Y206481*
X116183*
X115378Y206112*
X114841Y205374*
Y204635*
X115109Y203897*
X115378Y203528*
X115915Y203159*
X117525Y202421*
X118062Y202052*
X118331Y201683*
X118599Y200944*
Y199837*
X118062Y199099*
X117257Y198730*
X116183*
X115378Y199099*
X114841Y199837*
X121283Y203897D02*
X122894Y198730D01*
X124505Y203897D02*
X122894Y198730D01*
X122357Y197254*
X121820Y196515*
X121283Y196146*
X121015*
X129873Y202790D02*
X129605Y203528D01*
X128799Y203897*
X127994*
X127189Y203528*
X126920Y202790*
X127189Y202052*
X127726Y201683*
X129068Y201314*
X129605Y200944*
X129873Y200206*
Y199837*
X129605Y199099*
X128799Y198730*
X127994*
X127189Y199099*
X126920Y199837*
X133094Y206481D02*
Y200206D01*
X133363Y199099*
X133900Y198730*
X134437*
X132289Y203897D02*
X134168D01*
X136852Y201683D02*
X140074D01*
Y202421*
X139805Y203159*
X139537Y203528*
X139000Y203897*
X138195*
X137658Y203528*
X137121Y202790*
X136852Y201683*
Y200944*
X137121Y199837*
X137658Y199099*
X138195Y198730*
X139000*
X139537Y199099*
X140074Y199837*
X142489Y203897D02*
Y198730D01*
Y202421D02*
X143295Y203528D01*
X143832Y203897*
X144637*
X145174Y203528*
X145442Y202421*
Y198730*
Y202421D02*
X146248Y203528D01*
X146784Y203897*
X147590*
X148127Y203528*
X148395Y202421*
Y198730*
X161011Y204635D02*
X160743Y205374D01*
X160206Y206112*
X159669Y206481*
X158595*
X158059Y206112*
X157522Y205374*
X157253Y204635*
X156985Y203528*
Y201683*
X157253Y200575*
X157522Y199837*
X158059Y199099*
X158595Y198730*
X159669*
X160206Y199099*
X160743Y199837*
X161011Y200575*
X164769Y203897D02*
X164232Y203528D01*
X164232D02*
X163696Y202790D01*
X163427Y201683*
Y200944*
X163696Y199837*
X164232Y199099*
X164232D02*
X164769Y198730D01*
X165575*
X166112Y199099*
X166648Y199837*
X166917Y200944*
Y201683*
X166648Y202790*
X166112Y203528*
X165575Y203897*
X164769*
X169601Y199468D02*
X169333Y199099D01*
X169601Y198730*
X169870Y199099*
X169601Y199468*
X178459Y206481D02*
Y198730D01*
X181681Y206481D02*
Y200206D01*
X181949Y199099*
X182486Y198730*
X183023*
X180875Y203897D02*
X182754D01*
X188660Y206481D02*
Y198730D01*
Y202790D02*
X188123Y203528D01*
X187586Y203897*
X186781*
X186244Y203528*
X185707Y202790*
X185439Y201683*
Y200944*
X185707Y199837*
X186244Y199099*
X186781Y198730*
X187586*
X188123Y199099*
X188660Y199837*
X191344Y199468D02*
X191076Y199099D01*
X191344Y198730*
X191613Y199099*
X191344Y199468*
X194565Y199099D02*
X194297Y198730D01*
X194028Y199099*
X194297Y199468*
X194565Y199099*
Y198361*
X194297Y197623*
X194028Y197254*
X93370Y50320D02*
Y45070D01*
Y50320D02*
X95916Y45070D01*
Y50320D02*
Y45070D01*
X98643Y50320D02*
X98279Y50070D01*
X97916Y49570*
X97734Y49070*
X97552Y48320*
Y47070*
X97734Y46320*
X97916Y45820*
X98279Y45320*
X98643Y45070*
X99370*
X99734Y45320*
X100097Y45820*
X100279Y46320*
X100461Y47070*
Y48320*
X100279Y49070*
X100097Y49570*
X99734Y50070*
X99370Y50320*
X98643*
X119006Y48570D02*
X118825Y48320D01*
X119006Y48070*
X119188Y48320*
X119006Y48570*
Y45570D02*
X118825Y45320D01*
X119006Y45070*
X119188Y45320*
X119006Y45570*
X125006Y49320D02*
X125370Y49570D01*
X125916Y50320*
Y45070*
X128461Y50320D02*
X127916Y50070D01*
X127734Y49570*
Y49070*
X127916Y48570*
X128279Y48320*
X129006Y48070*
X129552Y47820*
X129916Y47320*
X130097Y46820*
Y46070*
X129916Y45570*
X129734Y45320*
X129188Y45070*
X128461*
X127916Y45320*
X127734Y45570*
X127552Y46070*
Y46820*
X127734Y47320*
X128097Y47820*
X128643Y48070*
X129370Y48320*
X129734Y48570*
X129916Y49070*
Y49570*
X129734Y50070*
X129188Y50320*
X128461*
X131734Y47320D02*
X135006D01*
X137734Y50320D02*
X137188Y50070D01*
X136825Y49320*
X136643Y48070*
Y47320*
X136825Y46070*
X137188Y45320*
X137734Y45070*
X138097*
X138643Y45320*
X139006Y46070*
X139188Y47320*
Y48070*
X139006Y49320*
X138643Y50070*
X138097Y50320*
X137734*
X143188D02*
X141370D01*
X141188Y48070*
X141370Y48320*
X141916Y48570*
X142461*
X143006Y48320*
X143370Y47820*
X143552Y47070*
X143370Y46570*
X143188Y45820*
X142825Y45320*
X142279Y45070*
X141734*
X141188Y45320*
X141006Y45570*
X140825Y46070*
X145188Y47320D02*
X148461D01*
X150279Y49070D02*
Y49320D01*
X150461Y49820*
X150643Y50070*
X151006Y50320*
X151734*
X152097Y50070*
X152279Y49820*
X152461Y49320*
Y48820*
X152279Y48320*
X151916Y47570*
X150097Y45070*
X152643*
X154643Y50320D02*
X156643D01*
X155552Y48320*
X156097*
X156461Y48070*
X156643Y47820*
X156825Y47070*
Y46570*
X156643Y45820*
X156279Y45320*
X155734Y45070*
X155188*
X154643Y45320*
X154461Y45570*
X154279Y46070*
X162643Y50320D02*
Y45070D01*
Y50320D02*
X164279D01*
X164825Y50070*
X165006Y49820*
X165188Y49320*
Y48820*
X165006Y48320*
X164825Y48070*
X164279Y47820*
X162643*
X163916D02*
X165188Y45070D01*
X166825Y47070D02*
X169006D01*
Y47570*
X168825Y48070*
X168643Y48320*
X168279Y48570*
X167734*
X167370Y48320*
X167006Y47820*
X166825Y47070*
Y46570*
X167006Y45820*
X167370Y45320*
X167734Y45070*
X168279*
X168643Y45320*
X169006Y45820*
X170643Y48570D02*
X171734Y45070D01*
X172825Y48570D02*
X171734Y45070D01*
X174461Y49320D02*
X174825Y49570D01*
X175370Y50320*
Y45070*
X177188Y45570D02*
X177006Y45320D01*
X177188Y45070*
X177370Y45320*
X177188Y45570*
X180097Y50320D02*
X179552Y50070D01*
X179188Y49320*
X179006Y48070*
Y47320*
X179188Y46070*
X179552Y45320*
X180097Y45070*
X180461*
X181006Y45320*
X181370Y46070*
X181552Y47320*
Y48070*
X181370Y49320*
X181006Y50070*
X180461Y50320*
X180097*
X93370Y57320D02*
Y52070D01*
Y57320D02*
X95006D01*
X95552Y57070*
X95734Y56820*
X95916Y56320*
Y55570*
X95734Y55070*
X95552Y54820*
X95006Y54570*
X93370*
X99006Y57320D02*
X97552Y52070D01*
X99006Y57320D02*
X100461Y52070D01*
X98097Y53820D02*
X99916D01*
X102097Y57320D02*
Y52070D01*
Y57320D02*
X103734D01*
X104279Y57070*
X104461Y56820*
X104643Y56320*
Y55820*
X104461Y55320*
X104279Y55070*
X103734Y54820*
X102097*
X103370D02*
X104643Y52070D01*
X107552Y57320D02*
Y52070D01*
X106279Y57320D02*
X108825D01*
X119006Y55570D02*
X118825Y55320D01*
X119006Y55070*
X119188Y55320*
X119006Y55570*
Y52570D02*
X118825Y52320D01*
X119006Y52070*
X119188Y52320*
X119006Y52570*
X127552Y56570D02*
X127188Y57070D01*
X126643Y57320*
X125916*
X125370Y57070*
X125006Y56570*
Y56070*
X125188Y55570*
X125370Y55320*
X125734Y55070*
X126825Y54570*
X127188Y54320*
X127370Y54070*
X127552Y53570*
Y52820*
X127188Y52320*
X126643Y52070*
X125916*
X125370Y52320*
X125006Y52820*
X129188Y54070D02*
X131370D01*
Y54570*
X131188Y55070*
X131006Y55320*
X130643Y55570*
X130097*
X129734Y55320*
X129370Y54820*
X129188Y54070*
Y53570*
X129370Y52820*
X129734Y52320*
X130097Y52070*
X130643*
X131006Y52320*
X131370Y52820*
X133006Y55570D02*
Y52070D01*
Y54570D02*
X133552Y55320D01*
X133916Y55570*
X134461*
X134825Y55320*
X135006Y54570*
Y52070*
X138643Y54820D02*
X138461Y55320D01*
X137916Y55570*
X137370*
X136825Y55320*
X136643Y54820*
X136825Y54320*
X137188Y54070*
X138097Y53820*
X138461Y53570*
X138643Y53070*
Y52820*
X138461Y52320*
X137916Y52070*
X137370*
X136825Y52320*
X136643Y52820*
X140279Y57320D02*
X140461Y57070D01*
X140643Y57320*
X140461Y57570*
X140279Y57320*
X140461Y55570D02*
Y52070D01*
X142279Y55570D02*
Y52070D01*
Y54570D02*
X142825Y55320D01*
X143188Y55570*
X143734*
X144097Y55320*
X144279Y54570*
Y52070*
X148097Y55570D02*
Y51570D01*
X147916Y50820*
X147734Y50570*
X147370Y50320*
X146825*
X146461Y50570*
X148097Y54820D02*
X147734Y55320D01*
X147370Y55570*
X146825*
X146461Y55320*
X146097Y54820*
X145916Y54070*
Y53570*
X146097Y52820*
X146461Y52320*
X146825Y52070*
X147370*
X147734Y52320*
X148097Y52820*
X153916Y57320D02*
Y52070D01*
Y57320D02*
X155552D01*
X156097Y57070*
X156279Y56820*
X156461Y56320*
Y55820*
X156279Y55320*
X156097Y55070*
X155552Y54820*
X153916D02*
X155552D01*
X156097Y54570*
X156279Y54320*
X156461Y53820*
Y53070*
X156279Y52570*
X156097Y52320*
X155552Y52070*
X153916*
X161370Y58320D02*
X158097Y50320D01*
X163006Y57320D02*
Y52070D01*
Y57320D02*
X164279D01*
X164825Y57070*
X165188Y56570*
X165370Y56070*
X165552Y55320*
Y54070*
X165370Y53320*
X165188Y52820*
X164825Y52320*
X164279Y52070*
X163006*
X93370Y64320D02*
Y59070D01*
Y64320D02*
X94825Y59070D01*
X96279Y64320D02*
X94825Y59070D01*
X96279Y64320D02*
Y59070D01*
X99006Y64320D02*
X98643Y64070D01*
X98279Y63570*
X98097Y63070*
X97916Y62320*
Y61070*
X98097Y60320*
X98279Y59820*
X98643Y59320*
X99006Y59070*
X99734*
X100097Y59320*
X100461Y59820*
X100643Y60320*
X100825Y61070*
Y62320*
X100643Y63070*
X100461Y63570*
X100097Y64070*
X99734Y64320*
X99006*
X102461D02*
Y59070D01*
Y64320D02*
X103734D01*
X104279Y64070*
X104643Y63570*
X104825Y63070*
X105006Y62320*
Y61070*
X104825Y60320*
X104643Y59820*
X104279Y59320*
X103734Y59070*
X102461*
X106643Y64320D02*
Y59070D01*
Y64320D02*
X109006D01*
X106643Y61820D02*
X108097D01*
X106643Y59070D02*
X109006D01*
X110643Y64320D02*
Y59070D01*
X112825*
X118825Y62570D02*
X118643Y62320D01*
X118825Y62070*
X119006Y62320*
X118825Y62570*
Y59570D02*
X118643Y59320D01*
X118825Y59070*
X119006Y59320*
X118825Y59570*
X124825Y64320D02*
Y59070D01*
X127370Y64320D02*
Y59070D01*
X124825Y61820D02*
X127370D01*
X129006Y64320D02*
Y59070D01*
Y64320D02*
X131370D01*
X129006Y61820D02*
X130461D01*
X135734Y63070D02*
X135552Y63570D01*
X135188Y64070*
X134825Y64320*
X134097*
X133734Y64070*
X133370Y63570*
X133188Y63070*
X133006Y62320*
Y61070*
X133188Y60320*
X133370Y59820*
X133734Y59320*
X134097Y59070*
X134825*
X135188Y59320*
X135552Y59820*
X135734Y60320*
X137370Y61320D02*
X140643D01*
X142643Y64320D02*
X144643D01*
X143552Y62320*
X144097*
X144461Y62070*
X144643Y61820*
X144825Y61070*
Y60570*
X144643Y59820*
X144279Y59320*
X143734Y59070*
X143188*
X142643Y59320*
X142461Y59570*
X142279Y60070*
X146461Y63320D02*
X146825Y63570D01*
X147370Y64320*
Y59070*
X150097Y64320D02*
X149552Y64070D01*
X149188Y63320*
X149006Y62070*
Y61320*
X149188Y60070*
X149552Y59320*
X150097Y59070*
X150461*
X151006Y59320*
X151370Y60070*
X151552Y61320*
Y62070*
X151370Y63320*
X151006Y64070*
X150461Y64320*
X150097*
X154279D02*
X153734Y64070D01*
X153370Y63320*
X153188Y62070*
Y61320*
X153370Y60070*
X153734Y59320*
X154279Y59070*
X154643*
X155188Y59320*
X155552Y60070*
X155734Y61320*
Y62070*
X155552Y63320*
X155188Y64070*
X154643Y64320*
X154279*
X157370D02*
Y59070D01*
Y64320D02*
X158643D01*
X159188Y64070*
X159552Y63570*
X159734Y63070*
X159916Y62320*
Y61070*
X159734Y60320*
X159552Y59820*
X159188Y59320*
X158643Y59070*
X157370*
X454585Y649936D02*
X454972Y649291D01*
X459746Y650581D02*
X459359Y649807D01*
X459617Y652001D02*
X459876Y650969D01*
X457553Y653549D02*
X459359Y652388D01*
X454972Y654840D02*
X457037Y653549D01*
X454843Y657291D02*
X454456Y655098D01*
X458843Y657678D02*
X459101Y657291D01*
X451359Y649549D02*
X450714Y649162D01*
X446972Y649291D02*
X447101Y649162D01*
X450585Y657807D02*
X451101Y657420D01*
X449295Y653549D02*
X449811D01*
X446327Y657678D02*
X447230D01*
X446327Y657420D02*
Y649420D01*
X436907Y650065D02*
X437423Y649291D01*
X442198Y650452D02*
X441939Y649936D01*
X442069Y651743D02*
X442198Y651098D01*
X440649Y653291D02*
X442069Y652259D01*
X438298Y653980D02*
X440133Y653420D01*
X437294Y654840D02*
X438068Y654065D01*
X437036Y656904D02*
Y655356D01*
X442585Y644130D02*
X442198D01*
X443746Y644001D02*
X442972D01*
X440391Y645033D02*
X440133D01*
X453553Y644130D02*
X453811D01*
X451617Y644001D02*
X453166D01*
X455617Y645033D02*
X455875D01*
X444133Y643613D02*
X451488D01*
X440778Y644775D02*
X455230D01*
X439230Y645678D02*
X456650D01*
X457940Y646710D02*
X458327D01*
X437810Y646839D02*
X438585D01*
X438068Y646452D02*
X457811D01*
X441165Y657549D02*
X441552D01*
X453682Y663227D02*
X454069D01*
X450327Y664130D02*
X450843D01*
X445423D02*
X449553D01*
X442714Y663356D02*
X453166D01*
X455746Y662324D02*
X455359D01*
X457424Y661420D02*
X456908D01*
X458327Y660259D02*
X458972D01*
X440133Y662453D02*
X440649D01*
X437423Y660388D02*
X437939D01*
X441036Y662582D02*
X454843D01*
X438714Y661679D02*
X456521D01*
X438326Y660646D02*
X456521D01*
X458327*
X460323Y651119D02*
X460295Y650878D01*
X460250Y650646*
X460185Y650424*
X460101Y650211*
X460001Y650007*
X459881Y649812*
X459743Y649628*
X459585Y649452*
X459410Y649286*
X459223Y649134*
X459029Y648998*
X458829Y648881*
X458624Y648783*
X458412Y648701*
X458195Y648638*
X457972Y648593*
X457743Y648566*
X457508Y648557*
X457254Y648570*
X456977Y648608*
X456678Y648670*
X456355Y648759*
X455801Y648945*
X455524Y649039*
X455345Y649020*
X455176Y648962*
X455017Y648865*
X454937Y648796*
X454838Y648692*
X454717Y648557*
X454590*
X453679Y651239*
X453900Y651357*
X454086Y651089*
X454262Y650842*
X454433Y650618*
X454594Y650416*
X454746Y650237*
X454891Y650079*
X455028Y649945*
X455155Y649833*
X455317Y649705*
X455487Y649585*
X455665Y649476*
X455851Y649374*
X456047Y649281*
X456250Y649197*
X456461Y649122*
X456682Y649055*
X456910Y648998*
X457148Y648949*
X457393Y648909*
X457553*
X457821Y648928*
X458069Y648988*
X458296Y649086*
X458505Y649225*
X458695Y649403*
X458833Y649576*
X458949Y649768*
X459045Y649980*
X459119Y650211*
X459172Y650460*
X459203Y650730*
X459214Y651018*
X459201Y651223*
X459159Y651418*
X459092Y651601*
X458997Y651772*
X458874Y651932*
X458725Y652082*
X458548Y652220*
X458344Y652348*
X458112Y652463*
X457854Y652567*
X457642Y652640*
X457432Y652711*
X457220Y652783*
X457010Y652855*
X456798Y652927*
X456588Y653000*
X456377Y653073*
X456167Y653145*
X455958Y653219*
X455748Y653292*
X455537Y653366*
X455328Y653440*
X455140Y653549*
X454964Y653669*
X454803Y653798*
X454657Y653936*
X454524Y654082*
X454404Y654238*
X454300Y654403*
X454208Y654576*
X454132Y654760*
X454069Y654952*
X454020Y655152*
X453985Y655362*
X453963Y655582*
X453957Y655810*
X453966Y656062*
X453993Y656300*
X454039Y656529*
X454104Y656745*
X454186Y656951*
X454287Y657143*
X454406Y657325*
X454544Y657494*
X454700Y657651*
X454855Y657782*
X455021Y657898*
X455199Y658000*
X455390Y658089*
X455593Y658164*
X455807Y658226*
X456033Y658273*
X456270Y658308*
X456519Y658329*
X456781Y658335*
X457041Y658324*
X457294Y658289*
X457543Y658231*
X458030Y658094*
X458326Y658011*
X458430Y657983*
X458565Y658000*
X458691Y658047*
X458810Y658126*
X459099Y658387*
X459225*
X459987Y655797*
X459757Y655718*
X459612Y655944*
X459468Y656157*
X459325Y656360*
X459180Y656549*
X459034Y656726*
X458890Y656893*
X458744Y657047*
X458598Y657189*
X458452Y657320*
X458243Y657485*
X458030Y657627*
X457814Y657748*
X457594Y657847*
X457371Y657924*
X457143Y657979*
X456912Y658011*
X456677Y658023*
X456410Y658002*
X456162Y657940*
X455932Y657837*
X455722Y657693*
X455530Y657508*
X455392Y657326*
X455277Y657125*
X455189Y656902*
X455126Y656658*
X455087Y656393*
X455075Y656108*
X455088Y655911*
X455130Y655724*
X455197Y655547*
X455292Y655379*
X455415Y655223*
X455564Y655077*
X455741Y654942*
X455945Y654816*
X456177Y654703*
X456435Y654598*
X456644Y654525*
X456855Y654451*
X457065Y654378*
X457274Y654304*
X457484Y654232*
X457695Y654158*
X457905Y654086*
X458117Y654014*
X458327Y653942*
X458537Y653869*
X458749Y653798*
X458961Y653726*
X459163Y653607*
X459350Y653477*
X459521Y653336*
X459674Y653187*
X459812Y653025*
X459935Y652855*
X460039Y652673*
X460130Y652482*
X460202Y652280*
X460259Y652068*
X460300Y651846*
X460325Y651612*
X460332Y651370*
X460323Y651119*
X442790D02*
X442763Y650878D01*
X442716Y650646*
X442652Y650424*
X442569Y650211*
X442469Y650007*
X442349Y649812*
X442210Y649628*
X442053Y649452*
X441879Y649286*
X441690Y649134*
X441497Y648998*
X441298Y648881*
X441093Y648783*
X440881Y648701*
X440663Y648638*
X440440Y648593*
X440212Y648566*
X439976Y648557*
X439723Y648570*
X439445Y648608*
X439146Y648670*
X438822Y648759*
X438546Y648852*
X438268Y648945*
X437992Y649039*
X437813Y649020*
X437644Y648962*
X437485Y648865*
X437406Y648796*
X437306Y648692*
X437186Y648557*
X437058*
X436147Y651239*
X436368Y651357*
X436553Y651089*
X436730Y650842*
X436901Y650618*
X437062Y650416*
X437214Y650237*
X437359Y650079*
X437495Y649945*
X437624Y649833*
X437786Y649705*
X437955Y649585*
X438133Y649476*
X438320Y649374*
X438515Y649281*
X438717Y649197*
X438930Y649122*
X439150Y649055*
X439378Y648998*
X439616Y648949*
X439861Y648909*
X440022*
X440289Y648928*
X440537Y648988*
X440765Y649086*
X440974Y649225*
X441163Y649403*
X441301Y649576*
X441417Y649768*
X441512Y649980*
X441586Y650211*
X441639Y650460*
X441671Y650730*
X441681Y651018*
X441667Y651223*
X441627Y651418*
X441559Y651601*
X441463Y651772*
X441341Y651932*
X441192Y652082*
X441014Y652220*
X440810Y652348*
X440579Y652463*
X440321Y652567*
X440110Y652640*
X439899Y652711*
X439688Y652783*
X439477Y652855*
X439267Y652927*
X439057Y653000*
X438846Y653073*
X438636Y653145*
X438426Y653219*
X438215Y653292*
X438005Y653366*
X437796Y653440*
X437608Y653549*
X437432Y653669*
X437271Y653798*
X437124Y653936*
X436991Y654082*
X436872Y654238*
X436766Y654403*
X436676Y654576*
X436599Y654760*
X436535Y654952*
X436486Y655152*
X436452Y655362*
X436431Y655582*
X436424Y655810*
X436433Y656062*
X436461Y656300*
X436507Y656529*
X436572Y656745*
X436654Y656951*
X436755Y657143*
X436875Y657325*
X437012Y657494*
X437168Y657651*
X437323Y657782*
X437489Y657898*
X437668Y658000*
X437858Y658089*
X438061Y658164*
X438275Y658226*
X438501Y658273*
X438738Y658308*
X438988Y658329*
X439250Y658335*
X439508Y658324*
X439761Y658289*
X440009Y658231*
X440498Y658094*
X440794Y658011*
X440898Y657983*
X441032Y658000*
X441159Y658047*
X441278Y658126*
X441567Y658387*
X441693*
X442454Y655797*
X442223Y655718*
X442080Y655944*
X441936Y656157*
X441792Y656360*
X441648Y656549*
X441503Y656726*
X441358Y656893*
X441213Y657047*
X441067Y657189*
X440921Y657320*
X440712Y657485*
X440499Y657627*
X440283Y657748*
X440062Y657847*
X439839Y657924*
X439612Y657979*
X439381Y658011*
X439146Y658023*
X438877Y658002*
X438630Y657940*
X438400Y657837*
X438190Y657693*
X437999Y657508*
X437859Y657326*
X437746Y657125*
X437657Y656902*
X437594Y656658*
X437555Y656393*
X437543Y656108*
X437556Y655911*
X437597Y655724*
X437664Y655547*
X437760Y655379*
X437883Y655223*
X438032Y655077*
X438209Y654942*
X438414Y654816*
X438645Y654703*
X438903Y654598*
X439112Y654525*
X439323Y654451*
X439532Y654378*
X439742Y654304*
X439952Y654232*
X440163Y654158*
X440373Y654086*
X440583Y654014*
X441007Y653869*
X441217Y653798*
X441428Y653726*
X441632Y653607*
X441818Y653477*
X441989Y653336*
X442143Y653187*
X442280Y653025*
X442403Y652855*
X442507Y652673*
X442596Y652482*
X442670Y652280*
X442727Y652068*
X442767Y651846*
X442791Y651612*
X442800Y651370*
X442790Y651119*
X459430Y660202D02*
X459304Y660331D01*
X459175Y660459*
X459043Y660586*
X458909Y660711*
X458772Y660833*
X458634Y660955*
X458492Y661076*
X458349Y661193*
X458205Y661311*
X458056Y661426*
X457906Y661539*
X457754Y661651*
X457601Y661761*
X457444Y661870*
X457286Y661977*
X457126Y662081*
X456964Y662184*
X456799Y662286*
X456633Y662386*
X456465Y662482*
X456295Y662579*
X456123Y662672*
X455949Y662764*
X455773Y662854*
X455597Y662942*
X455417Y663028*
X455237Y663112*
X455053Y663195*
X454869Y663275*
X454683Y663352*
X454495Y663428*
X454306Y663502*
X454115Y663573*
X453923Y663642*
X453728Y663711*
X453533Y663775*
X453336Y663839*
X453137Y663899*
X452937Y663957*
X452736Y664014*
X452533Y664068*
X452329Y664120*
X452124Y664169*
X451917Y664215*
X451709Y664261*
X451500Y664303*
X451289Y664342*
X451078Y664379*
X450865Y664414*
X450651Y664448*
X450437Y664477*
X450220Y664504*
X450003Y664530*
X449784Y664552*
X449566Y664572*
X449345Y664590*
X449123Y664604*
X448901Y664617*
X448678Y664626*
X448455Y664632*
X448230Y664636*
X448004Y664637*
X447778Y664636*
X447554Y664632*
X447329Y664626*
X447106Y664617*
X446884Y664604*
X446662Y664590*
X446443Y664572*
X446223Y664552*
X446005Y664530*
X445787Y664504*
X445572Y664477*
X445356Y664448*
X445142Y664414*
X444929Y664379*
X444718Y664342*
X444507Y664303*
X444298Y664261*
X444091Y664215*
X443884Y664169*
X443678Y664120*
X443474Y664068*
X443271Y664014*
X443070Y663957*
X442870Y663899*
X442671Y663839*
X442475Y663775*
X442279Y663711*
X442085Y663642*
X441893Y663573*
X441702Y663502*
X441512Y663428*
X441324Y663352*
X441138Y663275*
X440954Y663195*
X440772Y663112*
X440590Y663028*
X440412Y662942*
X440234Y662854*
X440058Y662764*
X439884Y662672*
X439712Y662579*
X439542Y662482*
X439374Y662386*
X439208Y662286*
X439044Y662184*
X438881Y662081*
X438721Y661977*
X438563Y661870*
X438406Y661761*
X438253Y661651*
X438101Y661539*
X437951Y661426*
X437804Y661311*
X437658Y661193*
X437515Y661076*
X437374Y660955*
X437235Y660833*
X437099Y660711*
X436965Y660586*
X436833Y660459*
X436833D02*
X436704Y660331D01*
X436577Y660202*
X436453Y660071*
X436330Y659939*
X436212Y659805*
X459797*
X459677Y659939*
X459556Y660071*
X459430Y660202*
X458877Y646648D02*
X458740Y646526D01*
X458602Y646404*
X458461Y646286*
X458318Y646167*
X458172Y646051*
X458025Y645937*
X457875Y645824*
X457723Y645713*
X457570Y645604*
X457414Y645496*
X457256Y645390*
X457096Y645286*
X456934Y645184*
X456770Y645083*
X456604Y644985*
X456437Y644888*
X456266Y644793*
X456095Y644700*
X455922Y644608*
X455746Y644519*
X455570Y644432*
X455390Y644346*
X455211Y644262*
X455028Y644181*
X454844Y644102*
X454659Y644025*
X454471Y643949*
X454283Y643877*
X454092Y643806*
X453901Y643736*
X453708Y643669*
X453513Y643604*
X453315Y643542*
X453118Y643482*
X452919Y643424*
X452718Y643368*
X452517Y643315*
X452313Y643264*
X452108Y643215*
X451902Y643168*
X451695Y643123*
X451487Y643082*
X451277Y643042*
X451066Y643006*
X450853Y642971*
X450640Y642939*
X450426Y642909*
X450211Y642882*
X449995Y642856*
X449777Y642834*
X449559Y642815*
X449340Y642797*
X449119Y642782*
X448897Y642771*
X448675Y642762*
X448452Y642754*
X448229Y642750*
X448004Y642749*
X447778Y642750*
X447555Y642754*
X447332Y642762*
X447110Y642771*
X446888Y642782*
X446669Y642797*
X446449Y642815*
X446230Y642834*
X446013Y642856*
X445796Y642882*
X445581Y642909*
X445367Y642939*
X445154Y642971*
X444942Y643006*
X444731Y643042*
X444521Y643082*
X444312Y643123*
X444105Y643168*
X443900Y643215*
X443694Y643264*
X443492Y643315*
X443289Y643368*
X443089Y643424*
X442889Y643482*
X442692Y643542*
X442496Y643604*
X442301Y643669*
X442107Y643736*
X441915Y643806*
X441724Y643877*
X441536Y643949*
X441348Y644025*
X441163Y644102*
X440979Y644181*
X440797Y644262*
X440797D02*
X440617Y644346D01*
X440437Y644432*
X440261Y644519*
X440085Y644608*
X439912Y644700*
X439741Y644793*
X439570Y644888*
X439403Y644985*
X439237Y645083*
X439074Y645184*
X438911Y645286*
X438751Y645390*
X438594Y645496*
X438437Y645604*
X438284Y645713*
X438132Y645824*
X437982Y645937*
X437835Y646051*
X437689Y646167*
X437546Y646286*
X437405Y646404*
X437266Y646526*
X437130Y646648*
X436996Y646772*
X436864Y646897*
X436735Y647024*
X436608Y647153*
X459398*
X459272Y647024*
X459143Y646897*
X459011Y646772*
X458877Y646648*
X448439Y665803D02*
X448657Y665797D01*
X448873Y665788*
X449088Y665779*
X449302Y665766*
X449516Y665751*
X449729Y665734*
X449942Y665716*
X450153Y665694*
X450364Y665671*
X450573Y665645*
X450782Y665618*
X450990Y665588*
X451197Y665556*
X451402Y665523*
X451607Y665486*
X451811Y665448*
X452013Y665408*
X452216Y665366*
X452416Y665323*
X452616Y665276*
X452815Y665228*
X453012Y665178*
X453208Y665126*
X453403Y665072*
X453597Y665015*
X453789Y664959*
X453981Y664899*
X454171Y664837*
X454361Y664774*
X454548Y664708*
X454733Y664641*
X454919Y664573*
X455102Y664502*
X455284Y664430*
X455466Y664356*
X455646Y664280*
X455824Y664202*
X456001Y664122*
X456176Y664041*
X456349Y663959*
X456522Y663875*
X456692Y663788*
X456861Y663701*
X457029Y663612*
X457029D02*
X457195Y663520D01*
X457359Y663427*
X457523Y663333*
X457683Y663237*
X457843Y663141*
X458002Y663041*
X458158Y662941*
X458312Y662839*
X458465Y662735*
X458616Y662631*
X458766Y662525*
X458913Y662417*
X459059Y662308*
X459202Y662197*
X459344Y662085*
X459485Y661971*
X459623Y661857*
X459759Y661740*
X459894Y661623*
X460025Y661504*
X460157Y661384*
X460285Y661263*
X460411Y661139*
X460536Y661015*
X460659Y660890*
X460779Y660764*
X460898Y660636*
X460898D02*
X461014Y660507D01*
X461127Y660377*
X461239Y660246*
X461349Y660113*
X461456Y659979*
X461562Y659845*
X461665Y659709*
X461766Y659571*
X461865Y659433*
X461961Y659294*
X462055Y659155*
X462148Y659013*
X462237Y658871*
X462323Y658727*
X462409Y658583*
X462491Y658437*
X462571Y658291*
X462649Y658144*
X462723Y657996*
X462796Y657846*
X462867Y657696*
X462934Y657545*
X462934D02*
X463000Y657395D01*
X463061Y657241*
X463121Y657087*
X463179Y656934*
X463233Y656778*
X463286Y656622*
X463335Y656465*
X463381Y656308*
X463427Y656149*
X463468Y655991*
X463507Y655831*
X463541Y655671*
X463575Y655509*
X463606Y655347*
X463633Y655184*
X463658Y655022*
X463680Y654858*
X463699Y654693*
X463716Y654527*
X463729Y654362*
X463739Y654196*
X463747Y654029*
X463750Y653862*
X463752Y653694*
X463750Y653526*
X463747Y653358*
X463739Y653192*
X463729Y653025*
X463716Y652859*
X463699Y652694*
X463680Y652530*
X463658Y652366*
X463633Y652202*
X463606Y652040*
X463575Y651878*
X463541Y651717*
X463507Y651557*
X463468Y651397*
X463427Y651237*
X463381Y651079*
X463335Y650922*
X463286Y650765*
X463233Y650609*
X463233D02*
X463179Y650454D01*
X463121Y650299*
X463061Y650145*
X463000Y649993*
X462934Y649841*
X462867Y649690*
X462796Y649540*
X462723Y649392*
X462649Y649243*
X462571Y649096*
X462491Y648949*
X462409Y648805*
X462323Y648660*
X462237Y648517*
X462148Y648374*
X462055Y648233*
X461961Y648092*
X461865Y647953*
X461766Y647815*
X461665Y647678*
X461562Y647543*
X461456Y647407*
X461349Y647274*
X461239Y647141*
X461127Y647010*
X461014Y646879*
X460898Y646750*
X460898D02*
X460779Y646623D01*
X460659Y646496*
X460536Y646371*
X460411Y646247*
X460285Y646124*
X460157Y646003*
X460025Y645883*
X459894Y645764*
X459759Y645647*
X459623Y645531*
X459485Y645416*
X459344Y645303*
X459202Y645190*
X459059Y645079*
X458913Y644970*
X458766Y644863*
X458616Y644757*
X458465Y644651*
X458312Y644548*
X458158Y644446*
X458002Y644345*
X457843Y644247*
X457683Y644149*
X457523Y644053*
X457359Y643959*
X457195Y643866*
X457029Y643776*
X456861Y643687*
X456692Y643599*
X456522Y643513*
X456349Y643428*
X456176Y643345*
X456001Y643264*
X455824Y643185*
X455646Y643108*
X455466Y643031*
X455284Y642957*
X455102Y642884*
X454919Y642815*
X454733Y642745*
X454548Y642678*
X454361Y642613*
X454171Y642550*
X453981Y642488*
X453789Y642429*
X453597Y642371*
X453403Y642315*
X453208Y642261*
X453012Y642210*
X452815Y642159*
X452616Y642111*
X452416Y642065*
X452216Y642021*
X452013Y641979*
X451811Y641939*
X451607Y641901*
X451402Y641865*
X451197Y641830*
X450990Y641799*
X450782Y641770*
X450573Y641741*
X450364Y641717*
X450153Y641692*
X449942Y641671*
X449729Y641652*
X449516Y641635*
X449302Y641621*
X449088Y641608*
X448873Y641598*
X448657Y641590*
X448439Y641585*
X448222Y641581*
X448004Y641580*
X447785Y641581*
X447568Y641585*
X447351Y641590*
X447134Y641598*
X446919Y641608*
X446705Y641621*
X446491Y641635*
X446278Y641652*
X446065Y641671*
X445854Y641692*
X445644Y641717*
X445434Y641741*
X445225Y641770*
X445017Y641799*
X444811Y641830*
X444605Y641865*
X444400Y641901*
X444196Y641939*
X443994Y641979*
X443791Y642021*
X443591Y642065*
X443391Y642111*
X443192Y642159*
X442995Y642210*
X442799Y642261*
X442604Y642315*
X442410Y642371*
X442218Y642429*
X442026Y642488*
X441836Y642550*
X441647Y642613*
X441459Y642678*
X441274Y642745*
X441088Y642815*
X440905Y642884*
X440723Y642957*
X440541Y643031*
X440361Y643108*
X440183Y643185*
X440007Y643264*
X439831Y643345*
X439658Y643428*
X439485Y643513*
X439315Y643599*
X439146Y643687*
X438978Y643776*
X438812Y643866*
X438648Y643959*
X438484Y644053*
X438323Y644149*
X438164Y644247*
X438005Y644345*
X437849Y644446*
X437695Y644548*
X437542Y644651*
X437391Y644757*
X437241Y644863*
X437094Y644970*
X436948Y645079*
X436805Y645190*
X436663Y645303*
X436523Y645416*
X436384Y645531*
X436248Y645647*
X436113Y645764*
X435982Y645883*
X435850Y646003*
X435722Y646124*
X435596Y646247*
X435471Y646371*
X435348Y646496*
X435228Y646623*
X435110Y646750*
X434993Y646879*
X434880Y647010*
X434768Y647141*
X434658Y647274*
X434551Y647407*
X434445Y647543*
X434342Y647678*
X434241Y647815*
X434142Y647953*
X434046Y648092*
X433952Y648233*
X433861Y648374*
X433861D02*
X433770Y648517D01*
X433684Y648660*
X433599Y648805*
X433516Y648949*
X433436Y649096*
X433359Y649243*
X433284Y649392*
X433211Y649540*
X433140Y649690*
X433073Y649841*
X433009Y649993*
X432946Y650145*
X432886Y650299*
X432828Y650454*
X432774Y650609*
X432774D02*
X432722Y650765D01*
X432672Y650922*
X432626Y651079*
X432582Y651237*
X432540Y651397*
X432502Y651557*
X432466Y651717*
X432432Y651878*
X432402Y652040*
X432374Y652202*
X432349Y652366*
X432328Y652530*
X432308Y652694*
X432293Y652859*
X432279Y653025*
X432268Y653192*
X432262Y653358*
X432257Y653526*
X432255Y653694*
X432257Y653862*
X432262Y654029*
X432268Y654196*
X432279Y654362*
X432293Y654527*
X432308Y654693*
X432328Y654858*
X432349Y655022*
X432374Y655184*
X432402Y655347*
X432432Y655509*
X432466Y655671*
X432502Y655831*
X432540Y655991*
X432582Y656149*
X432626Y656308*
X432672Y656465*
X432722Y656622*
X432774Y656778*
X432828Y656934*
X432886Y657087*
X432946Y657241*
X433009Y657395*
X433073Y657545*
X433073D02*
X433140Y657696D01*
X433211Y657846*
X433284Y657996*
X433359Y658144*
X433436Y658291*
X433516Y658437*
X433599Y658583*
X433684Y658727*
X433770Y658871*
X433861Y659013*
X433861D02*
X433952Y659155D01*
X434046Y659294*
X434142Y659433*
X434241Y659571*
X434342Y659709*
X434445Y659845*
X434551Y659979*
X434658Y660113*
X434768Y660246*
X434880Y660377*
X434993Y660507*
X435110Y660636*
X435228Y660764*
X435348Y660890*
X435471Y661015*
X435596Y661139*
X435722Y661263*
X435850Y661384*
X435982Y661504*
X436113Y661623*
X436248Y661740*
X436384Y661857*
X436523Y661971*
X436663Y662085*
X436805Y662197*
X436948Y662308*
X437094Y662417*
X437241Y662525*
X437391Y662631*
X437542Y662735*
X437695Y662839*
X437849Y662941*
X438005Y663041*
X438164Y663141*
X438323Y663237*
X438484Y663333*
X438648Y663427*
X438812Y663520*
X438978Y663612*
X438978D02*
X439146Y663701D01*
X439315Y663788*
X439485Y663875*
X439658Y663959*
X439831Y664041*
X440007Y664122*
X440183Y664202*
X440361Y664280*
X440541Y664356*
X440723Y664430*
X440905Y664502*
X441088Y664573*
X441274Y664641*
X441459Y664708*
X441647Y664774*
X441836Y664837*
X442026Y664899*
X442218Y664959*
X442410Y665015*
X442604Y665072*
X442799Y665126*
X442995Y665178*
X443192Y665228*
X443391Y665276*
X443591Y665323*
X443791Y665366*
X443994Y665408*
X444196Y665448*
X444400Y665486*
X444605Y665523*
X444811Y665556*
X445017Y665588*
X445225Y665618*
X445434Y665645*
X445644Y665671*
X445854Y665694*
X446065Y665716*
X446278Y665734*
X446491Y665751*
X446705Y665766*
X446919Y665779*
X447134Y665788*
X447351Y665797*
X447568Y665803*
X447785Y665806*
X448004Y665808*
X448222Y665806*
X448439Y665803*
X451429Y648766D02*
X444349D01*
Y649091*
X444679Y649097*
X444933Y649114*
X445110Y649143*
X445342Y649243*
X445507Y649411*
X445607Y649648*
X445640Y649953*
Y656953*
X445617Y657218*
X445547Y657423*
X445432Y657566*
X445261Y657664*
X445023Y657733*
X444719Y657775*
X444349Y657788*
Y658126*
X451336*
X452119Y655900*
X451935Y655770*
X451794Y655976*
X451647Y656171*
X451493Y656357*
X451333Y656531*
X451167Y656695*
X450995Y656849*
X450817Y656992*
X450633Y657124*
X450437Y657250*
X450238Y657364*
X450034Y657463*
X449827Y657549*
X449617Y657623*
X449403Y657682*
X449186Y657729*
X448964Y657762*
X448740Y657782*
X448511Y657788*
X448211Y657776*
X447946Y657738*
X447715Y657675*
X447519Y657587*
X447320Y657414*
X447202Y657164*
X447162Y656838*
Y653726*
X448500*
X448812Y653749*
X449080Y653819*
X449305Y653935*
X449486Y654098*
X449585Y654237*
X449671Y654410*
X449746Y654616*
X449808Y654855*
X449858Y655127*
X449895Y655432*
X450172*
Y651618*
X449883*
X449839Y651965*
X449780Y652269*
X449706Y652530*
X449617Y652745*
X449514Y652918*
X449335Y653101*
X449107Y653232*
X448833Y653309*
X448511Y653335*
X447162*
Y650107*
X447194Y649823*
X447288Y649578*
X447288D02*
X447445Y649371D01*
X447666Y649215*
X447953Y649122*
X448304Y649091*
X448960*
X449169Y649101*
X449381Y649132*
X449595Y649183*
X449813Y649252*
X450034Y649344*
X450256Y649455*
X450483Y649585*
X450661Y649703*
X450835Y649829*
X451007Y649965*
X451175Y650110*
X451338Y650267*
X451500Y650432*
X451657Y650606*
X451811Y650790*
X451962Y650984*
X452109Y651188*
X452362Y651070*
X451429Y648766*
X438914Y660679D02*
X458214D01*
X444133Y644007D02*
X451488D01*
X99085Y206336D02*
X99472Y205691D01*
X104246Y206981D02*
X103859Y206207D01*
X104117Y208401D02*
X104376Y207369D01*
X102053Y209949D02*
X103859Y208788D01*
X99472Y211240D02*
X101537Y209949D01*
X99343Y213691D02*
X98956Y211498D01*
X103343Y214078D02*
X103601Y213691D01*
X95859Y205949D02*
X95214Y205562D01*
X91472Y205691D02*
X91601Y205562D01*
X95085Y214207D02*
X95601Y213820D01*
X93795Y209949D02*
X94311D01*
X90827Y214078D02*
X91730D01*
X90827Y213820D02*
Y205820D01*
X81407Y206465D02*
X81923Y205691D01*
X86698Y206852D02*
X86439Y206336D01*
X86569Y208143D02*
X86698Y207498D01*
X85149Y209691D02*
X86569Y208659D01*
X82798Y210380D02*
X84633Y209820D01*
X81794Y211240D02*
X82568Y210465D01*
X81536Y213304D02*
Y211756D01*
X87085Y200530D02*
X86698D01*
X88246Y200401D02*
X87472D01*
X84891Y201433D02*
X84633D01*
X98053Y200530D02*
X98311D01*
X96117Y200401D02*
X97666D01*
X100117Y201433D02*
X100375D01*
X88633Y200013D02*
X95988D01*
X85278Y201175D02*
X99730D01*
X83730Y202078D02*
X101150D01*
X102440Y203110D02*
X102827D01*
X82310Y203239D02*
X83085D01*
X82568Y202852D02*
X102311D01*
X85665Y213949D02*
X86052D01*
X98182Y219627D02*
X98569D01*
X94827Y220530D02*
X95343D01*
X89923D02*
X94053D01*
X87214Y219756D02*
X97666D01*
X100246Y218724D02*
X99859D01*
X101924Y217820D02*
X101408D01*
X102827Y216659D02*
X103472D01*
X84633Y218853D02*
X85149D01*
X81923Y216788D02*
X82439D01*
X85536Y218982D02*
X99343D01*
X83214Y218079D02*
X101021D01*
X82826Y217046D02*
X101021D01*
X102827*
X104823Y207519D02*
X104795Y207278D01*
X104750Y207046*
X104685Y206824*
X104601Y206611*
X104501Y206407*
X104381Y206212*
X104243Y206028*
X104085Y205852*
X103910Y205686*
X103723Y205534*
X103529Y205398*
X103329Y205281*
X103124Y205183*
X102912Y205101*
X102695Y205038*
X102472Y204993*
X102243Y204966*
X102008Y204957*
X101754Y204970*
X101477Y205008*
X101178Y205070*
X100855Y205159*
X100301Y205345*
X100024Y205439*
X99845Y205420*
X99676Y205362*
X99517Y205265*
X99437Y205196*
X99338Y205092*
X99217Y204957*
X99090*
X98179Y207639*
X98400Y207757*
X98586Y207489*
X98762Y207242*
X98933Y207018*
X99094Y206816*
X99246Y206637*
X99391Y206479*
X99528Y206345*
X99655Y206233*
X99817Y206105*
X99987Y205985*
X100165Y205876*
X100351Y205774*
X100547Y205681*
X100750Y205597*
X100961Y205522*
X101182Y205455*
X101410Y205398*
X101648Y205349*
X101893Y205309*
X102053*
X102321Y205328*
X102569Y205388*
X102796Y205486*
X103005Y205625*
X103195Y205803*
X103333Y205976*
X103449Y206168*
X103545Y206380*
X103619Y206611*
X103672Y206860*
X103703Y207130*
X103714Y207418*
X103701Y207623*
X103659Y207818*
X103592Y208001*
X103497Y208172*
X103374Y208332*
X103225Y208482*
X103048Y208620*
X102844Y208748*
X102612Y208863*
X102354Y208967*
X102142Y209040*
X101932Y209111*
X101720Y209183*
X101510Y209255*
X101298Y209327*
X101088Y209400*
X100877Y209473*
X100667Y209545*
X100458Y209619*
X100248Y209692*
X100037Y209766*
X99828Y209840*
X99640Y209949*
X99464Y210069*
X99303Y210198*
X99157Y210336*
X99024Y210482*
X98904Y210638*
X98800Y210803*
X98708Y210976*
X98632Y211160*
X98569Y211352*
X98520Y211552*
X98485Y211762*
X98463Y211982*
X98457Y212210*
X98466Y212462*
X98493Y212700*
X98539Y212929*
X98604Y213145*
X98686Y213351*
X98787Y213543*
X98906Y213725*
X99044Y213894*
X99200Y214051*
X99355Y214182*
X99521Y214298*
X99699Y214400*
X99890Y214489*
X100093Y214564*
X100307Y214626*
X100533Y214673*
X100770Y214708*
X101019Y214729*
X101281Y214735*
X101541Y214724*
X101794Y214689*
X102043Y214631*
X102530Y214494*
X102826Y214411*
X102930Y214383*
X103065Y214400*
X103191Y214447*
X103310Y214526*
X103599Y214787*
X103725*
X104487Y212197*
X104257Y212118*
X104112Y212344*
X103968Y212557*
X103825Y212760*
X103680Y212949*
X103534Y213126*
X103390Y213293*
X103244Y213447*
X103098Y213589*
X102952Y213720*
X102743Y213885*
X102530Y214027*
X102314Y214148*
X102094Y214247*
X101871Y214324*
X101643Y214379*
X101412Y214411*
X101177Y214423*
X100910Y214402*
X100662Y214340*
X100432Y214237*
X100222Y214093*
X100030Y213908*
X99892Y213726*
X99777Y213525*
X99689Y213302*
X99626Y213058*
X99587Y212793*
X99575Y212508*
X99588Y212311*
X99630Y212124*
X99697Y211947*
X99792Y211779*
X99915Y211623*
X100064Y211477*
X100241Y211342*
X100445Y211216*
X100677Y211103*
X100935Y210998*
X101144Y210925*
X101355Y210851*
X101565Y210778*
X101774Y210704*
X101984Y210632*
X102195Y210558*
X102405Y210486*
X102617Y210414*
X102827Y210342*
X103037Y210269*
X103249Y210198*
X103461Y210126*
X103663Y210007*
X103850Y209877*
X104021Y209736*
X104174Y209587*
X104312Y209425*
X104435Y209255*
X104539Y209073*
X104630Y208882*
X104702Y208680*
X104759Y208468*
X104800Y208246*
X104825Y208012*
X104832Y207770*
X104823Y207519*
X87290D02*
X87263Y207278D01*
X87216Y207046*
X87152Y206824*
X87069Y206611*
X86969Y206407*
X86849Y206212*
X86710Y206028*
X86553Y205852*
X86379Y205686*
X86190Y205534*
X85997Y205398*
X85798Y205281*
X85593Y205183*
X85381Y205101*
X85163Y205038*
X84940Y204993*
X84712Y204966*
X84476Y204957*
X84223Y204970*
X83945Y205008*
X83646Y205070*
X83322Y205159*
X83046Y205252*
X82768Y205345*
X82492Y205439*
X82313Y205420*
X82144Y205362*
X81985Y205265*
X81906Y205196*
X81806Y205092*
X81686Y204957*
X81558*
X80647Y207639*
X80868Y207757*
X81053Y207489*
X81230Y207242*
X81401Y207018*
X81562Y206816*
X81714Y206637*
X81859Y206479*
X81995Y206345*
X82124Y206233*
X82286Y206105*
X82455Y205985*
X82633Y205876*
X82820Y205774*
X83015Y205681*
X83217Y205597*
X83430Y205522*
X83650Y205455*
X83878Y205398*
X84116Y205349*
X84361Y205309*
X84522*
X84789Y205328*
X85037Y205388*
X85265Y205486*
X85474Y205625*
X85663Y205803*
X85801Y205976*
X85917Y206168*
X86012Y206380*
X86086Y206611*
X86139Y206860*
X86171Y207130*
X86181Y207418*
X86167Y207623*
X86127Y207818*
X86059Y208001*
X85963Y208172*
X85841Y208332*
X85692Y208482*
X85514Y208620*
X85310Y208748*
X85079Y208863*
X84821Y208967*
X84610Y209040*
X84399Y209111*
X84188Y209183*
X83977Y209255*
X83767Y209327*
X83557Y209400*
X83346Y209473*
X83136Y209545*
X82926Y209619*
X82715Y209692*
X82505Y209766*
X82296Y209840*
X82108Y209949*
X81932Y210069*
X81771Y210198*
X81624Y210336*
X81491Y210482*
X81372Y210638*
X81266Y210803*
X81176Y210976*
X81099Y211160*
X81035Y211352*
X80986Y211552*
X80952Y211762*
X80931Y211982*
X80924Y212210*
X80933Y212462*
X80961Y212700*
X81007Y212929*
X81072Y213145*
X81154Y213351*
X81255Y213543*
X81375Y213725*
X81512Y213894*
X81668Y214051*
X81823Y214182*
X81989Y214298*
X82168Y214400*
X82358Y214489*
X82561Y214564*
X82775Y214626*
X83001Y214673*
X83238Y214708*
X83488Y214729*
X83750Y214735*
X84008Y214724*
X84261Y214689*
X84509Y214631*
X84998Y214494*
X85294Y214411*
X85398Y214383*
X85532Y214400*
X85659Y214447*
X85778Y214526*
X86067Y214787*
X86193*
X86954Y212197*
X86723Y212118*
X86580Y212344*
X86436Y212557*
X86292Y212760*
X86148Y212949*
X86003Y213126*
X85858Y213293*
X85713Y213447*
X85567Y213589*
X85421Y213720*
X85212Y213885*
X84999Y214027*
X84783Y214148*
X84562Y214247*
X84339Y214324*
X84112Y214379*
X83881Y214411*
X83646Y214423*
X83377Y214402*
X83130Y214340*
X82900Y214237*
X82690Y214093*
X82499Y213908*
X82359Y213726*
X82246Y213525*
X82157Y213302*
X82094Y213058*
X82055Y212793*
X82043Y212508*
X82056Y212311*
X82097Y212124*
X82164Y211947*
X82260Y211779*
X82383Y211623*
X82532Y211477*
X82709Y211342*
X82914Y211216*
X83145Y211103*
X83403Y210998*
X83612Y210925*
X83823Y210851*
X84032Y210778*
X84242Y210704*
X84452Y210632*
X84663Y210558*
X84873Y210486*
X85083Y210414*
X85507Y210269*
X85717Y210198*
X85928Y210126*
X86132Y210007*
X86318Y209877*
X86489Y209736*
X86643Y209587*
X86780Y209425*
X86903Y209255*
X87007Y209073*
X87096Y208882*
X87170Y208680*
X87227Y208468*
X87267Y208246*
X87291Y208012*
X87300Y207770*
X87290Y207519*
X103930Y216602D02*
X103804Y216731D01*
X103675Y216859*
X103543Y216986*
X103409Y217111*
X103272Y217233*
X103134Y217355*
X102992Y217476*
X102849Y217593*
X102705Y217711*
X102556Y217826*
X102406Y217939*
X102254Y218051*
X102101Y218161*
X101944Y218270*
X101786Y218377*
X101626Y218481*
X101464Y218584*
X101299Y218686*
X101133Y218786*
X100965Y218882*
X100795Y218979*
X100623Y219072*
X100449Y219164*
X100273Y219254*
X100097Y219342*
X99917Y219428*
X99737Y219512*
X99553Y219595*
X99369Y219675*
X99183Y219752*
X98995Y219828*
X98806Y219902*
X98615Y219973*
X98423Y220042*
X98228Y220111*
X98033Y220175*
X97836Y220239*
X97637Y220299*
X97437Y220357*
X97236Y220414*
X97033Y220468*
X96829Y220520*
X96624Y220569*
X96417Y220615*
X96209Y220661*
X96000Y220703*
X95789Y220742*
X95578Y220779*
X95365Y220814*
X95151Y220848*
X94937Y220877*
X94720Y220904*
X94503Y220930*
X94284Y220952*
X94066Y220972*
X93845Y220990*
X93623Y221004*
X93401Y221017*
X93178Y221026*
X92955Y221032*
X92730Y221036*
X92504Y221037*
X92278Y221036*
X92054Y221032*
X91829Y221026*
X91606Y221017*
X91384Y221004*
X91162Y220990*
X90943Y220972*
X90723Y220952*
X90505Y220930*
X90287Y220904*
X90072Y220877*
X89856Y220848*
X89642Y220814*
X89429Y220779*
X89218Y220742*
X89007Y220703*
X88798Y220661*
X88591Y220615*
X88384Y220569*
X88178Y220520*
X87974Y220468*
X87771Y220414*
X87570Y220357*
X87370Y220299*
X87171Y220239*
X86975Y220175*
X86779Y220111*
X86585Y220042*
X86393Y219973*
X86202Y219902*
X86012Y219828*
X85824Y219752*
X85638Y219675*
X85454Y219595*
X85272Y219512*
X85090Y219428*
X84912Y219342*
X84734Y219254*
X84558Y219164*
X84384Y219072*
X84212Y218979*
X84042Y218882*
X83874Y218786*
X83708Y218686*
X83544Y218584*
X83381Y218481*
X83221Y218377*
X83063Y218270*
X82906Y218161*
X82753Y218051*
X82601Y217939*
X82451Y217826*
X82304Y217711*
X82158Y217593*
X82015Y217476*
X81874Y217355*
X81735Y217233*
X81599Y217111*
X81465Y216986*
X81333Y216859*
X81333D02*
X81204Y216731D01*
X81077Y216602*
X80953Y216471*
X80830Y216339*
X80712Y216205*
X104297*
X104177Y216339*
X104056Y216471*
X103930Y216602*
X103377Y203048D02*
X103240Y202926D01*
X103102Y202804*
X102961Y202686*
X102818Y202567*
X102672Y202451*
X102525Y202337*
X102375Y202224*
X102223Y202113*
X102070Y202004*
X101914Y201896*
X101756Y201790*
X101596Y201686*
X101434Y201584*
X101270Y201483*
X101104Y201385*
X100937Y201288*
X100766Y201193*
X100595Y201100*
X100422Y201008*
X100246Y200919*
X100070Y200832*
X99890Y200746*
X99711Y200662*
X99528Y200581*
X99344Y200502*
X99159Y200425*
X98971Y200349*
X98783Y200277*
X98592Y200206*
X98401Y200136*
X98208Y200069*
X98013Y200004*
X97815Y199942*
X97618Y199882*
X97419Y199824*
X97218Y199768*
X97017Y199715*
X96813Y199664*
X96608Y199615*
X96402Y199568*
X96195Y199523*
X95987Y199482*
X95777Y199442*
X95566Y199406*
X95353Y199371*
X95140Y199339*
X94926Y199309*
X94711Y199282*
X94495Y199256*
X94277Y199234*
X94059Y199215*
X93840Y199197*
X93619Y199182*
X93397Y199171*
X93175Y199162*
X92952Y199154*
X92729Y199150*
X92504Y199149*
X92278Y199150*
X92055Y199154*
X91832Y199162*
X91610Y199171*
X91388Y199182*
X91169Y199197*
X90949Y199215*
X90730Y199234*
X90513Y199256*
X90296Y199282*
X90081Y199309*
X89867Y199339*
X89654Y199371*
X89442Y199406*
X89231Y199442*
X89021Y199482*
X88812Y199523*
X88605Y199568*
X88400Y199615*
X88194Y199664*
X87992Y199715*
X87789Y199768*
X87589Y199824*
X87389Y199882*
X87192Y199942*
X86996Y200004*
X86801Y200069*
X86607Y200136*
X86415Y200206*
X86224Y200277*
X86036Y200349*
X85848Y200425*
X85663Y200502*
X85479Y200581*
X85297Y200662*
X85297D02*
X85117Y200746D01*
X84937Y200832*
X84761Y200919*
X84585Y201008*
X84412Y201100*
X84241Y201193*
X84070Y201288*
X83903Y201385*
X83737Y201483*
X83574Y201584*
X83411Y201686*
X83251Y201790*
X83094Y201896*
X82937Y202004*
X82784Y202113*
X82632Y202224*
X82482Y202337*
X82335Y202451*
X82189Y202567*
X82046Y202686*
X81905Y202804*
X81766Y202926*
X81630Y203048*
X81496Y203172*
X81364Y203297*
X81235Y203424*
X81108Y203553*
X103898*
X103772Y203424*
X103643Y203297*
X103511Y203172*
X103377Y203048*
X92939Y222203D02*
X93157Y222197D01*
X93373Y222188*
X93588Y222179*
X93802Y222166*
X94016Y222151*
X94229Y222134*
X94442Y222116*
X94653Y222094*
X94864Y222071*
X95073Y222045*
X95282Y222018*
X95490Y221988*
X95697Y221956*
X95902Y221923*
X96107Y221886*
X96311Y221848*
X96513Y221808*
X96716Y221766*
X96916Y221723*
X97116Y221676*
X97315Y221628*
X97512Y221578*
X97708Y221526*
X97903Y221472*
X98097Y221415*
X98289Y221359*
X98481Y221299*
X98671Y221237*
X98861Y221174*
X99048Y221108*
X99233Y221041*
X99419Y220973*
X99602Y220902*
X99784Y220830*
X99966Y220756*
X100146Y220680*
X100324Y220602*
X100501Y220522*
X100676Y220441*
X100849Y220359*
X101022Y220275*
X101192Y220188*
X101361Y220101*
X101529Y220012*
X101529D02*
X101695Y219920D01*
X101859Y219827*
X102023Y219733*
X102183Y219637*
X102343Y219541*
X102502Y219441*
X102658Y219341*
X102812Y219239*
X102965Y219135*
X103116Y219031*
X103266Y218925*
X103413Y218817*
X103559Y218708*
X103702Y218597*
X103844Y218485*
X103985Y218371*
X104123Y218257*
X104259Y218140*
X104394Y218023*
X104525Y217904*
X104657Y217784*
X104785Y217663*
X104911Y217539*
X105036Y217415*
X105159Y217290*
X105279Y217164*
X105398Y217036*
X105398D02*
X105514Y216907D01*
X105627Y216777*
X105739Y216646*
X105849Y216513*
X105956Y216379*
X106062Y216245*
X106165Y216109*
X106266Y215971*
X106365Y215833*
X106461Y215694*
X106555Y215555*
X106648Y215413*
X106737Y215271*
X106823Y215127*
X106909Y214983*
X106991Y214837*
X107071Y214691*
X107149Y214544*
X107223Y214396*
X107296Y214246*
X107367Y214096*
X107434Y213945*
X107434D02*
X107500Y213795D01*
X107561Y213641*
X107621Y213487*
X107679Y213334*
X107733Y213178*
X107786Y213022*
X107835Y212865*
X107881Y212708*
X107927Y212549*
X107968Y212391*
X108007Y212231*
X108041Y212071*
X108075Y211909*
X108106Y211747*
X108133Y211584*
X108158Y211422*
X108180Y211258*
X108199Y211093*
X108216Y210927*
X108229Y210762*
X108239Y210596*
X108247Y210429*
X108250Y210262*
X108252Y210094*
X108250Y209926*
X108247Y209758*
X108239Y209592*
X108229Y209425*
X108216Y209259*
X108199Y209094*
X108180Y208930*
X108158Y208766*
X108133Y208602*
X108106Y208440*
X108075Y208278*
X108041Y208117*
X108007Y207957*
X107968Y207797*
X107927Y207637*
X107881Y207479*
X107835Y207322*
X107786Y207165*
X107733Y207009*
X107733D02*
X107679Y206854D01*
X107621Y206699*
X107561Y206545*
X107500Y206393*
X107434Y206241*
X107367Y206090*
X107296Y205940*
X107223Y205792*
X107149Y205643*
X107071Y205496*
X106991Y205349*
X106909Y205205*
X106823Y205060*
X106737Y204917*
X106648Y204774*
X106555Y204633*
X106461Y204492*
X106365Y204353*
X106266Y204215*
X106165Y204078*
X106062Y203943*
X105956Y203807*
X105849Y203674*
X105739Y203541*
X105627Y203410*
X105514Y203279*
X105398Y203150*
X105398D02*
X105279Y203023D01*
X105159Y202896*
X105036Y202771*
X104911Y202647*
X104785Y202524*
X104657Y202403*
X104525Y202283*
X104394Y202164*
X104259Y202047*
X104123Y201931*
X103985Y201816*
X103844Y201703*
X103702Y201590*
X103559Y201479*
X103413Y201370*
X103266Y201263*
X103116Y201157*
X102965Y201051*
X102812Y200948*
X102658Y200846*
X102502Y200745*
X102343Y200647*
X102183Y200549*
X102023Y200453*
X101859Y200359*
X101695Y200266*
X101529Y200176*
X101361Y200087*
X101192Y199999*
X101022Y199913*
X100849Y199828*
X100676Y199745*
X100501Y199664*
X100324Y199585*
X100146Y199508*
X99966Y199431*
X99784Y199357*
X99602Y199284*
X99419Y199215*
X99233Y199145*
X99048Y199078*
X98861Y199013*
X98671Y198950*
X98481Y198888*
X98289Y198829*
X98097Y198771*
X97903Y198715*
X97708Y198661*
X97512Y198610*
X97315Y198559*
X97116Y198511*
X96916Y198465*
X96716Y198421*
X96513Y198379*
X96311Y198339*
X96107Y198301*
X95902Y198265*
X95697Y198230*
X95490Y198199*
X95282Y198170*
X95073Y198141*
X94864Y198117*
X94653Y198092*
X94442Y198071*
X94229Y198052*
X94016Y198035*
X93802Y198021*
X93588Y198008*
X93373Y197998*
X93157Y197990*
X92939Y197985*
X92722Y197981*
X92504Y197980*
X92285Y197981*
X92068Y197985*
X91851Y197990*
X91634Y197998*
X91419Y198008*
X91205Y198021*
X90991Y198035*
X90778Y198052*
X90565Y198071*
X90354Y198092*
X90144Y198117*
X89934Y198141*
X89725Y198170*
X89517Y198199*
X89311Y198230*
X89105Y198265*
X88900Y198301*
X88696Y198339*
X88494Y198379*
X88291Y198421*
X88091Y198465*
X87891Y198511*
X87692Y198559*
X87495Y198610*
X87299Y198661*
X87104Y198715*
X86910Y198771*
X86718Y198829*
X86526Y198888*
X86336Y198950*
X86147Y199013*
X85959Y199078*
X85774Y199145*
X85588Y199215*
X85405Y199284*
X85223Y199357*
X85041Y199431*
X84861Y199508*
X84683Y199585*
X84507Y199664*
X84331Y199745*
X84158Y199828*
X83985Y199913*
X83815Y199999*
X83646Y200087*
X83478Y200176*
X83312Y200266*
X83148Y200359*
X82984Y200453*
X82823Y200549*
X82664Y200647*
X82505Y200745*
X82349Y200846*
X82195Y200948*
X82042Y201051*
X81891Y201157*
X81741Y201263*
X81594Y201370*
X81448Y201479*
X81305Y201590*
X81163Y201703*
X81023Y201816*
X80884Y201931*
X80748Y202047*
X80613Y202164*
X80482Y202283*
X80350Y202403*
X80222Y202524*
X80096Y202647*
X79971Y202771*
X79848Y202896*
X79728Y203023*
X79610Y203150*
X79493Y203279*
X79380Y203410*
X79268Y203541*
X79158Y203674*
X79051Y203807*
X78945Y203943*
X78842Y204078*
X78741Y204215*
X78642Y204353*
X78546Y204492*
X78452Y204633*
X78361Y204774*
X78361D02*
X78270Y204917D01*
X78184Y205060*
X78099Y205205*
X78016Y205349*
X77936Y205496*
X77859Y205643*
X77784Y205792*
X77711Y205940*
X77640Y206090*
X77573Y206241*
X77509Y206393*
X77446Y206545*
X77386Y206699*
X77328Y206854*
X77274Y207009*
X77274D02*
X77222Y207165D01*
X77172Y207322*
X77126Y207479*
X77082Y207637*
X77040Y207797*
X77002Y207957*
X76966Y208117*
X76932Y208278*
X76902Y208440*
X76874Y208602*
X76849Y208766*
X76828Y208930*
X76808Y209094*
X76793Y209259*
X76779Y209425*
X76768Y209592*
X76762Y209758*
X76757Y209926*
X76755Y210094*
X76757Y210262*
X76762Y210429*
X76768Y210596*
X76779Y210762*
X76793Y210927*
X76808Y211093*
X76828Y211258*
X76849Y211422*
X76874Y211584*
X76902Y211747*
X76932Y211909*
X76966Y212071*
X77002Y212231*
X77040Y212391*
X77082Y212549*
X77126Y212708*
X77172Y212865*
X77222Y213022*
X77274Y213178*
X77328Y213334*
X77386Y213487*
X77446Y213641*
X77509Y213795*
X77573Y213945*
X77573D02*
X77640Y214096D01*
X77711Y214246*
X77784Y214396*
X77859Y214544*
X77936Y214691*
X78016Y214837*
X78099Y214983*
X78184Y215127*
X78270Y215271*
X78361Y215413*
X78361D02*
X78452Y215555D01*
X78546Y215694*
X78642Y215833*
X78741Y215971*
X78842Y216109*
X78945Y216245*
X79051Y216379*
X79158Y216513*
X79268Y216646*
X79380Y216777*
X79493Y216907*
X79610Y217036*
X79728Y217164*
X79848Y217290*
X79971Y217415*
X80096Y217539*
X80222Y217663*
X80350Y217784*
X80482Y217904*
X80613Y218023*
X80748Y218140*
X80884Y218257*
X81023Y218371*
X81163Y218485*
X81305Y218597*
X81448Y218708*
X81594Y218817*
X81741Y218925*
X81891Y219031*
X82042Y219135*
X82195Y219239*
X82349Y219341*
X82505Y219441*
X82664Y219541*
X82823Y219637*
X82984Y219733*
X83148Y219827*
X83312Y219920*
X83478Y220012*
X83478D02*
X83646Y220101D01*
X83815Y220188*
X83985Y220275*
X84158Y220359*
X84331Y220441*
X84507Y220522*
X84683Y220602*
X84861Y220680*
X85041Y220756*
X85223Y220830*
X85405Y220902*
X85588Y220973*
X85774Y221041*
X85959Y221108*
X86147Y221174*
X86336Y221237*
X86526Y221299*
X86718Y221359*
X86910Y221415*
X87104Y221472*
X87299Y221526*
X87495Y221578*
X87692Y221628*
X87891Y221676*
X88091Y221723*
X88291Y221766*
X88494Y221808*
X88696Y221848*
X88900Y221886*
X89105Y221923*
X89311Y221956*
X89517Y221988*
X89725Y222018*
X89934Y222045*
X90144Y222071*
X90354Y222094*
X90565Y222116*
X90778Y222134*
X90991Y222151*
X91205Y222166*
X91419Y222179*
X91634Y222188*
X91851Y222197*
X92068Y222203*
X92285Y222206*
X92504Y222208*
X92722Y222206*
X92939Y222203*
X95929Y205166D02*
X88849D01*
Y205491*
X89179Y205497*
X89433Y205514*
X89610Y205543*
X89842Y205643*
X90007Y205811*
X90107Y206048*
X90140Y206353*
Y213353*
X90117Y213618*
X90047Y213823*
X89932Y213966*
X89761Y214064*
X89523Y214133*
X89219Y214175*
X88849Y214188*
Y214526*
X95836*
X96619Y212300*
X96435Y212170*
X96294Y212376*
X96147Y212571*
X95993Y212757*
X95833Y212931*
X95667Y213095*
X95495Y213249*
X95317Y213392*
X95133Y213524*
X94937Y213650*
X94738Y213764*
X94534Y213863*
X94327Y213949*
X94117Y214023*
X93903Y214082*
X93686Y214129*
X93464Y214162*
X93240Y214182*
X93011Y214188*
X92711Y214176*
X92446Y214138*
X92215Y214075*
X92019Y213987*
X91820Y213814*
X91702Y213564*
X91662Y213238*
Y210126*
X93000*
X93312Y210149*
X93580Y210219*
X93805Y210335*
X93986Y210498*
X94085Y210637*
X94171Y210810*
X94246Y211016*
X94308Y211255*
X94358Y211527*
X94395Y211832*
X94672*
Y208018*
X94383*
X94339Y208365*
X94280Y208669*
X94206Y208930*
X94117Y209145*
X94014Y209318*
X93835Y209501*
X93607Y209632*
X93333Y209709*
X93011Y209735*
X91662*
Y206507*
X91694Y206223*
X91788Y205978*
X91788D02*
X91945Y205771D01*
X92166Y205615*
X92453Y205522*
X92804Y205491*
X93460*
X93669Y205501*
X93881Y205532*
X94095Y205583*
X94313Y205652*
X94534Y205744*
X94756Y205855*
X94983Y205985*
X95161Y206103*
X95335Y206229*
X95507Y206365*
X95675Y206510*
X95838Y206667*
X96000Y206832*
X96157Y207006*
X96311Y207190*
X96462Y207384*
X96609Y207588*
X96862Y207470*
X95929Y205166*
X83414Y217079D02*
X102714D01*
X88633Y200407D02*
X95988D01*
G54D15*
X669570Y346362D02*
Y337870D01*
X674050*
Y330614*
X659090*
Y337870*
X663570*
Y346362*
X669570*
X359970Y290662D02*
Y282170D01*
X364450*
Y274914*
X349490*
Y282170*
X353970*
Y290662*
X359970*
G54D36*
X215820Y537170D02*
X209520D01*
X216420Y539532D02*
Y544920D01*
X208920*
Y539532*
X216420Y534808D02*
Y529420D01*
X208920*
Y534808*
X197670Y424420D02*
Y430720D01*
X200032Y423820D02*
X205420D01*
Y431320*
X200032*
X195308Y423820D02*
X189920D01*
Y431320*
X195308*
X267820Y480970D02*
X261520D01*
X268420Y483332D02*
Y488720D01*
X260920*
Y483332*
X268420Y478608D02*
Y473220D01*
X260920*
Y478608*
X179720Y582270D02*
X186020D01*
X179120Y579908D02*
Y574520D01*
X186620*
Y579908*
X179120Y584632D02*
Y590020D01*
X186620*
Y584632*
X318320Y607570D02*
X324620D01*
X317720Y605208D02*
Y599820D01*
X325220*
Y605208*
X317720Y609932D02*
Y615320D01*
X325220*
Y609932*
X323270Y510920D02*
Y504620D01*
X320908Y511520D02*
X315520D01*
Y504020*
X320908*
X325632Y511520D02*
X331020D01*
Y504020*
X325632*
X162470Y553420D02*
Y547120D01*
X160108Y554020D02*
X154720D01*
Y546520*
X160108*
X164832Y554020D02*
X170220D01*
Y546520*
X164832*
X182470Y553420D02*
Y547120D01*
X180108Y554020D02*
X174720D01*
Y546520*
X180108*
X184832Y554020D02*
X190220D01*
Y546520*
X184832*
X134970Y487620D02*
Y481320D01*
X132608Y488220D02*
X127220D01*
Y480720*
X132608*
X137332Y488220D02*
X142720D01*
Y480720*
X137332*
X141820Y618870D02*
X135520D01*
X142420Y621232D02*
Y626620D01*
X134920*
Y621232*
X142420Y616508D02*
Y611120D01*
X134920*
Y616508*
X153820Y618870D02*
X147520D01*
X154420Y621232D02*
Y626620D01*
X146920*
Y621232*
X154420Y616508D02*
Y611120D01*
X146920*
Y616508*
X177820Y618870D02*
X171520D01*
X178420Y621232D02*
Y626620D01*
X170920*
Y621232*
X178420Y616508D02*
Y611120D01*
X170920*
Y616508*
X165820Y618870D02*
X159520D01*
X166420Y621232D02*
Y626620D01*
X158920*
Y621232*
X166420Y616508D02*
Y611120D01*
X158920*
Y616508*
X277370Y341720D02*
Y335420D01*
X275008Y342320D02*
X269620D01*
Y334820*
X275008*
X279732Y342320D02*
X285120D01*
Y334820*
X279732*
X237370Y341720D02*
Y335420D01*
X235008Y342320D02*
X229620D01*
Y334820*
X235008*
X239732Y342320D02*
X245120D01*
Y334820*
X239732*
X197370Y341720D02*
Y335420D01*
X195008Y342320D02*
X189620D01*
Y334820*
X195008*
X199732Y342320D02*
X205120D01*
Y334820*
X199732*
X243420Y620770D02*
X249720D01*
X242820Y618408D02*
Y613020D01*
X250320*
Y618408*
X242820Y623132D02*
Y628520D01*
X250320*
Y623132*
X121470Y369320D02*
Y363020D01*
X119108Y369920D02*
X113720D01*
Y362420*
X119108*
X123832Y369920D02*
X129220D01*
Y362420*
X123832*
X403970Y251220D02*
Y257520D01*
X406332Y250620D02*
X411720D01*
Y258120*
X406332*
X401608Y250620D02*
X396220D01*
Y258120*
X401608*
X312970Y430720D02*
Y424420D01*
X310608Y431320D02*
X305220D01*
Y423820*
X310608*
X315332Y431320D02*
X320720D01*
Y423820*
X315332*
X634470Y286220D02*
Y292520D01*
X636832Y285620D02*
X642220D01*
Y293120*
X636832*
X632108Y285620D02*
X626720D01*
Y293120*
X632108*
X197520Y537170D02*
X203820D01*
X196920Y534808D02*
Y529420D01*
X204420*
Y534808*
X196920Y539532D02*
Y544920D01*
X204420*
Y539532*
X131870Y417020D02*
Y423320D01*
X134232Y416420D02*
X139620D01*
Y423920*
X134232*
X129508Y416420D02*
X124120D01*
Y423920*
X129508*
X253870Y442120D02*
Y435820D01*
X251508Y442720D02*
X246120D01*
Y435220*
X251508*
X256232Y442720D02*
X261620D01*
Y435220*
X256232*
X254070Y400520D02*
Y394220D01*
X251708Y401120D02*
X246320D01*
Y393620*
X251708*
X256432Y401120D02*
X261820D01*
Y393620*
X256432*
X204970Y556320D02*
Y550020D01*
X202608Y556920D02*
X197220D01*
Y549420*
X202608*
X207332Y556920D02*
X212720D01*
Y549420*
X207332*
X204220Y621970D02*
X197920D01*
X204820Y624332D02*
Y629720D01*
X197320*
Y624332*
X204820Y619608D02*
Y614220D01*
X197320*
Y619608*
G54D86*
X532048Y248659D02*
X631048D01*
Y239801*
X532048*
Y248659*
G54D91*
X745413Y311146D02*
X725728D01*
Y320594*
X745413*
Y311146*
X653628Y294094D02*
X673313D01*
Y284646*
X653628*
Y294094*
X656728Y314094D02*
X676413D01*
Y304646*
X656728*
Y314094*
Y326094D02*
X676413D01*
Y316646*
X656728*
Y326094*
X644313Y311146D02*
X624628D01*
Y320594*
X644313*
Y311146*
X544813D02*
X525128D01*
Y320594*
X544813*
Y311146*
X187528Y307294D02*
X207213D01*
Y297846*
X187528*
Y307294*
Y319294D02*
X207213D01*
Y309846*
X187528*
Y319294*
X207213Y321846D02*
X187528D01*
Y331294*
X207213*
Y321846*
X227528Y319294D02*
X247213D01*
Y309846*
X227528*
Y319294*
Y307294D02*
X247213D01*
Y297846*
X227528*
Y307294*
X247213Y321846D02*
X227528D01*
Y331294*
X247213*
Y321846*
X267528Y307294D02*
X287213D01*
Y297846*
X267528*
Y307294*
Y319294D02*
X287213D01*
Y309846*
X267528*
Y319294*
X287213Y321846D02*
X267528D01*
Y331294*
X287213*
Y321846*
X360613Y420846D02*
X340928D01*
Y430294*
X360613*
Y420846*
Y353746D02*
X340928D01*
Y363194*
X360613*
Y353746*
X358528Y320594D02*
X378213D01*
Y311146*
X358528*
Y320594*
X95528Y606594D02*
X115213D01*
Y597146*
X95528*
Y606594*
Y594594D02*
X115213D01*
Y585146*
X95528*
Y594594*
Y582594D02*
X115213D01*
Y573146*
X95528*
Y582594*
Y570594D02*
X115213D01*
Y561146*
X95528*
Y570594*
Y558594D02*
X115213D01*
Y549146*
X95528*
Y558594*
X343046Y518128D02*
Y537813D01*
X352494*
Y518128*
X343046*
X331046D02*
Y537813D01*
X340494*
Y518128*
X331046*
X319046D02*
Y537813D01*
X328494*
Y518128*
X319046*
X89828Y370894D02*
X109513D01*
Y361446*
X89828*
Y370894*
X366813Y260946D02*
X347128D01*
Y270394*
X366813*
Y260946*
Y248946D02*
X347128D01*
Y258394*
X366813*
Y248946*
X303946Y436528D02*
Y456213D01*
X313394*
Y436528*
X303946*
X315946D02*
Y456213D01*
X325394*
Y436528*
X315946*
X327946D02*
Y456213D01*
X337394*
Y436528*
X327946*
X149046Y349228D02*
Y368913D01*
X158494*
Y349228*
X149046*
X156646Y283728D02*
Y303413D01*
X166094*
Y283728*
X156646*
X154094Y303413D02*
Y283728D01*
X144646*
Y303413*
X154094*
X114646Y283728D02*
Y303413D01*
X124094*
Y283728*
X114646*
X112094Y303413D02*
Y283728D01*
X102646*
Y303413*
X112094*
X72646Y283728D02*
Y303413D01*
X82094*
Y283728*
X72646*
X70094Y303413D02*
Y283728D01*
X60646*
Y303413*
X70094*
X111713Y383446D02*
X92028D01*
Y392894*
X111713*
Y383446*
Y395446D02*
X92028D01*
Y404894*
X111713*
Y395446*
Y407446D02*
X92028D01*
Y416894*
X111713*
Y407446*
X171713Y395446D02*
X152028D01*
Y404894*
X171713*
Y395446*
Y383446D02*
X152028D01*
Y392894*
X171713*
Y383446*
X152028Y416894D02*
X171713D01*
Y407446*
X152028*
Y416894*
G54D129*
X59352Y381395D02*
X58897Y382020D01*
X58216Y382333*
X57306*
X56625Y382020*
X56170Y381395*
Y380770*
X56397Y380145*
X56625Y379833*
X57079Y379520*
X58443Y378895*
X58897Y378583*
X59125Y378270*
X59352Y377645*
Y376708*
X58897Y376083*
X58216Y375770*
X57306*
X56625Y376083*
X56170Y376708*
X61397Y382333D02*
X62534Y375770D01*
X63670Y382333D02*
X62534Y375770D01*
X63670Y382333D02*
X64806Y375770D01*
X65943Y382333D02*
X64806Y375770D01*
X70943Y382333D02*
X68670D01*
X68443Y379520*
X68670Y379833*
X69352Y380145*
X70034*
X70716Y379833*
X71170Y379208*
X71397Y378270*
X71170Y377645*
X70943Y376708*
X70488Y376083*
X69806Y375770*
X69125*
X68443Y376083*
X68216Y376395*
X67988Y377020*
X188870Y178933D02*
Y172370D01*
Y178933D02*
X191825D01*
X188870Y175808D02*
X190688D01*
X193870Y177683D02*
X194325Y177995D01*
X195006Y178933*
Y172370*
X188870Y135933D02*
Y129370D01*
Y135933D02*
X191825D01*
X188870Y132808D02*
X190688D01*
X194097Y134370D02*
Y134683D01*
X194325Y135308*
X194552Y135620*
X195006Y135933*
X195916*
X196370Y135620*
X196597Y135308*
X196825Y134683*
Y134058*
X196597Y133433*
X196143Y132495*
X193870Y129370*
X197052*
X188870Y92933D02*
Y86370D01*
Y92933D02*
X191825D01*
X188870Y89808D02*
X190688D01*
X194325Y92933D02*
X196825D01*
X195461Y90433*
X196143*
X196597Y90120*
X196825Y89808*
X197052Y88870*
Y88245*
X196825Y87308*
X196370Y86683*
X195688Y86370*
X195006*
X194325Y86683*
X194097Y86995*
X193870Y87620*
X701370Y332933D02*
Y326370D01*
Y332933D02*
X703416D01*
X704097Y332620*
X704325Y332308*
X704552Y331683*
Y331058*
X704325Y330433*
X704097Y330120*
X703416Y329808*
X701370*
X702961D02*
X704552Y326370D01*
X709325Y331995D02*
X709097Y332620D01*
X708416Y332933*
X707961*
X707279Y332620*
X706825Y331683*
X706597Y330120*
Y328558*
X706825Y327308*
X707279Y326683*
X707961Y326370*
X708188*
X708870Y326683*
X709325Y327308*
X709552Y328245*
Y328558*
X709325Y329495*
X708870Y330120*
X708188Y330433*
X707961*
X707279Y330120*
X706825Y329495*
X706597Y328558*
X175470Y520708D02*
X173652Y523833D01*
Y527270*
X171834Y520708D02*
X173652Y523833D01*
X169788Y521958D02*
X169334Y521645D01*
X168652Y520708*
Y527270*
X53779Y564370D02*
X53552Y564995D01*
X53097Y565620*
X52643Y565933*
X51734*
X51279Y565620*
X50825Y564995*
X50597Y564370*
X50370Y563433*
Y561870*
X50597Y560933*
X50825Y560308*
X51279Y559683*
X51734Y559370*
X52643*
X53097Y559683*
X53552Y560308*
X53779Y560933*
X58779Y565933D02*
X56506D01*
X56279Y563120*
X56506Y563433*
X57188Y563745*
X57870*
X58552Y563433*
X59006Y562808*
X59234Y561870*
X59006Y561245*
X58779Y560308*
X58325Y559683*
X57643Y559370*
X56961*
X56279Y559683*
X56052Y559995*
X55825Y560620*
X310079Y596470D02*
X309852Y597095D01*
X309397Y597720*
X308943Y598033*
X308034*
X307579Y597720*
X307125Y597095*
X306897Y596470*
X306670Y595533*
Y593970*
X306897Y593033*
X307125Y592408*
X307579Y591783*
X308034Y591470*
X308943*
X309397Y591783*
X309852Y592408*
X310079Y593033*
X314852Y597095D02*
X314625Y597720D01*
X313943Y598033*
X313488*
X312806Y597720*
X312352Y596783*
X312125Y595220*
Y593658*
X312352Y592408*
X312806Y591783*
X313488Y591470*
X313716*
X314397Y591783*
X314852Y592408*
X315079Y593345*
Y593658*
X314852Y594595*
X314397Y595220*
X313716Y595533*
X313488*
X312806Y595220*
X312352Y594595*
X312125Y593658*
X69279Y335170D02*
X69052Y335795D01*
X68597Y336420*
X68143Y336733*
X67234*
X66779Y336420*
X66325Y335795*
X66097Y335170*
X65870Y334233*
Y332670*
X66097Y331733*
X66325Y331108*
X66779Y330483*
X67234Y330170*
X68143*
X68597Y330483*
X69052Y331108*
X69279Y331733*
X72461Y336733D02*
X71779Y336420D01*
X71552Y335795*
Y335170*
X71779Y334545*
X72234Y334233*
X73143Y333920*
X73825Y333608*
X74279Y332983*
X74506Y332358*
Y331420*
X74279Y330795*
X74052Y330483*
X73370Y330170*
X72461*
X71779Y330483*
X71552Y330795*
X71325Y331420*
Y332358*
X71552Y332983*
X72006Y333608*
X72688Y333920*
X73597Y334233*
X74052Y334545*
X74279Y335170*
Y335795*
X74052Y336420*
X73370Y336733*
X72461*
X112779Y334970D02*
X112552Y335595D01*
X112097Y336220*
X111643Y336533*
X110734*
X110279Y336220*
X109825Y335595*
X109597Y334970*
X109370Y334033*
Y332470*
X109597Y331533*
X109825Y330908*
X110279Y330283*
X110734Y329970*
X111643*
X112097Y330283*
X112552Y330908*
X112779Y331533*
X117779Y334345D02*
X117552Y333408D01*
X117097Y332783*
X116416Y332470*
X116188*
X115506Y332783*
X115052Y333408*
X114825Y334345*
Y334658*
X115052Y335595*
X115506Y336220*
X116188Y336533*
X116416*
X117097Y336220*
X117552Y335595*
X117779Y334345*
Y332783*
X117552Y331220*
X117097Y330283*
X116416Y329970*
X115961*
X115279Y330283*
X115052Y330908*
X153079Y335270D02*
X152852Y335895D01*
X152397Y336520*
X151943Y336833*
X151034*
X150579Y336520*
X150125Y335895*
X149897Y335270*
X149670Y334333*
Y332770*
X149897Y331833*
X150125Y331208*
X150579Y330583*
X151034Y330270*
X151943*
X152397Y330583*
X152852Y331208*
X153079Y331833*
X155125Y335583D02*
X155579Y335895D01*
X156261Y336833*
Y330270*
X159670Y336833D02*
X158988Y336520D01*
X158534Y335583*
X158306Y334020*
Y333083*
X158534Y331520*
X158988Y330583*
X159670Y330270*
X160125*
X160806Y330583*
X161261Y331520*
X161488Y333083*
Y334020*
X161261Y335583*
X160806Y336520*
X160125Y336833*
X159670*
X275179Y268170D02*
X274952Y268795D01*
X274497Y269420*
X274043Y269733*
X273134*
X272679Y269420*
X272225Y268795*
X271997Y268170*
X271770Y267233*
Y265670*
X271997Y264733*
X272225Y264108*
X272679Y263483*
X273134Y263170*
X274043*
X274497Y263483*
X274952Y264108*
X275179Y264733*
X277225Y268483D02*
X277679Y268795D01*
X278361Y269733*
Y263170*
X280406Y268483D02*
X280861Y268795D01*
X281543Y269733*
Y263170*
X233279Y268270D02*
X233052Y268895D01*
X232597Y269520*
X232143Y269833*
X231234*
X230779Y269520*
X230325Y268895*
X230097Y268270*
X229870Y267333*
Y265770*
X230097Y264833*
X230325Y264208*
X230779Y263583*
X231234Y263270*
X232143*
X232597Y263583*
X233052Y264208*
X233279Y264833*
X235325Y268583D02*
X235779Y268895D01*
X236461Y269833*
Y263270*
X238734Y268270D02*
Y268583D01*
X238961Y269208*
X239188Y269520*
X239643Y269833*
X240552*
X241006Y269520*
X241234Y269208*
X241461Y268583*
Y267958*
X241234Y267333*
X240779Y266395*
X238506Y263270*
X241688*
X197979Y269670D02*
X197752Y270295D01*
X197297Y270920*
X196843Y271233*
X195934*
X195479Y270920*
X195025Y270295*
X194797Y269670*
X194570Y268733*
Y267170*
X194797Y266233*
X195025Y265608*
X195479Y264983*
X195934Y264670*
X196843*
X197297Y264983*
X197752Y265608*
X197979Y266233*
X200025Y269983D02*
X200479Y270295D01*
X201161Y271233*
Y264670*
X203661Y271233D02*
X206161D01*
X204797Y268733*
X205479*
X205934Y268420*
X206161Y268108*
X206388Y267170*
Y266545*
X206161Y265608*
X205706Y264983*
X205025Y264670*
X204343*
X203661Y264983*
X203434Y265295*
X203206Y265920*
X330508Y373170D02*
X337070D01*
Y375897*
X330508Y377943D02*
X337070D01*
X330508D02*
Y379534D01*
X330820Y380216*
X331445Y380670*
X332070Y380897*
X333008Y381125*
X334570*
X335508Y380897*
X336133Y380670*
X336758Y380216*
X337070Y379534*
Y377943*
X330508Y386352D02*
X337070Y384079D01*
X330508Y383170D02*
Y386352D01*
X330908Y402270D02*
X337470D01*
Y404997*
X330908Y407043D02*
X337470D01*
X330908D02*
Y408634D01*
X331220Y409316*
X331845Y409770*
X332470Y409997*
X333408Y410225*
X334970*
X335908Y409997*
X336533Y409770*
X337158Y409316*
X337470Y408634*
Y407043*
X330908Y413406D02*
X331220Y412725D01*
X331845Y412497*
X332470*
X333095Y412725*
X333408Y413179*
X333720Y414088*
X334033Y414770*
X334658Y415225*
X335283Y415452*
X336220*
X336845Y415225*
X337158Y414997*
X337470Y414316*
Y413406*
X337158Y412725*
X336845Y412497*
X336220Y412270*
X335283*
X334658Y412497*
X334033Y412952*
X333720Y413634*
X333408Y414543*
X333095Y414997*
X332470Y415225*
X331845*
X331220Y414997*
X330908Y414316*
Y413406*
X166070Y341533D02*
Y336845D01*
X166297Y335908*
X166752Y335283*
X167434Y334970*
X167888*
X168570Y335283*
X169025Y335908*
X169252Y336845*
Y341533*
X171752D02*
X174252D01*
X172888Y339033*
X173570*
X174025Y338720*
X174252Y338408*
X174479Y337470*
Y336845*
X174252Y335908*
X173797Y335283*
X173116Y334970*
X172434*
X171752Y335283*
X171525Y335595*
X171297Y336220*
X347643Y466733D02*
Y461733D01*
X347416Y460795*
X347188Y460483*
X346734Y460170*
X346279*
X345825Y460483*
X345597Y460795*
X345370Y461733*
Y462358*
X349688Y466733D02*
Y460170D01*
Y466733D02*
X351734D01*
X352416Y466420*
X352643Y466108*
X352870Y465483*
Y464545*
X352643Y463920*
X352416Y463608*
X351734Y463295*
X349688*
X354916Y465483D02*
X355370Y465795D01*
X356052Y466733*
Y460170*
X269961Y66433D02*
Y59870D01*
X268370Y66433D02*
X271552D01*
X273597Y65183D02*
X274052Y65495D01*
X274734Y66433*
Y59870*
X447961Y66433D02*
Y59870D01*
X446370Y66433D02*
X449552D01*
X451825Y64870D02*
Y65183D01*
X452052Y65808*
X452279Y66120*
X452734Y66433*
X453643*
X454097Y66120*
X454325Y65808*
X454552Y65183*
Y64558*
X454325Y63933*
X453870Y62995*
X451597Y59870*
X454779*
X618961Y66433D02*
Y59870D01*
X617370Y66433D02*
X620552D01*
X623052D02*
X625552D01*
X624188Y63933*
X624870*
X625325Y63620*
X625552Y63308*
X625779Y62370*
Y61745*
X625552Y60808*
X625097Y60183*
X624416Y59870*
X623734*
X623052Y60183*
X622825Y60495*
X622597Y61120*
X48570Y321833D02*
Y315270D01*
Y321833D02*
X50161D01*
X50843Y321520*
X51297Y320895*
X51525Y320270*
X51752Y319333*
Y317770*
X51525Y316833*
X51297Y316208*
X50843Y315583*
X50161Y315270*
X48570*
X53797Y320583D02*
X54252Y320895D01*
X54934Y321833*
Y315270*
X152961Y447633D02*
Y441070D01*
X151370Y447633D02*
X154552D01*
X156597D02*
Y441070D01*
Y447633D02*
X158643D01*
X159325Y447320*
X159552Y447008*
X159779Y446383*
Y445445*
X159552Y444820*
X159325Y444508*
X158643Y444195*
X156597*
X161825Y446383D02*
X162279Y446695D01*
X162961Y447633*
Y441070*
X255661Y510633D02*
Y504070D01*
X254070Y510633D02*
X257252D01*
X259297D02*
Y504070D01*
Y510633D02*
X261343D01*
X262025Y510320*
X262252Y510008*
X262479Y509383*
Y508445*
X262252Y507820*
X262025Y507508*
X261343Y507195*
X259297*
X264752Y509070D02*
Y509383D01*
X264979Y510008*
X265206Y510320*
X265661Y510633*
X266570*
X267025Y510320*
X267252Y510008*
X267479Y509383*
Y508758*
X267252Y508133*
X266797Y507195*
X264525Y504070*
X267706*
X210961Y506233D02*
Y499670D01*
X209370Y506233D02*
X212552D01*
X214597D02*
Y499670D01*
Y506233D02*
X216643D01*
X217325Y505920*
X217552Y505608*
X217779Y504983*
Y504045*
X217552Y503420*
X217325Y503108*
X216643Y502795*
X214597*
X220279Y506233D02*
X222779D01*
X221416Y503733*
X222097*
X222552Y503420*
X222779Y503108*
X223006Y502170*
Y501545*
X222779Y500608*
X222325Y499983*
X221643Y499670*
X220961*
X220279Y499983*
X220052Y500295*
X219825Y500920*
X178261Y562433D02*
Y555870D01*
X176670Y562433D02*
X179852D01*
X181897D02*
Y555870D01*
Y562433D02*
X183943D01*
X184625Y562120*
X184852Y561808*
X185079Y561183*
Y560245*
X184852Y559620*
X184625Y559308*
X183943Y558995*
X181897*
X189397Y562433D02*
X187125Y558058D01*
X190534*
X189397Y562433D02*
Y555870D01*
X90170Y321033D02*
Y314470D01*
Y321033D02*
X91761D01*
X92443Y320720*
X92897Y320095*
X93125Y319470*
X93352Y318533*
Y316970*
X93125Y316033*
X92897Y315408*
X92443Y314783*
X91761Y314470*
X90170*
X95625Y319470D02*
Y319783D01*
X95852Y320408*
X96079Y320720*
X96534Y321033*
X97443*
X97897Y320720*
X98125Y320408*
X98352Y319783*
Y319158*
X98125Y318533*
X97670Y317595*
X95397Y314470*
X98579*
X131670Y321733D02*
Y315170D01*
Y321733D02*
X133261D01*
X133943Y321420*
X134397Y320795*
X134625Y320170*
X134852Y319233*
Y317670*
X134625Y316733*
X134397Y316108*
X133943Y315483*
X133261Y315170*
X131670*
X137352Y321733D02*
X139852D01*
X138488Y319233*
X139170*
X139625Y318920*
X139852Y318608*
X140079Y317670*
Y317045*
X139852Y316108*
X139397Y315483*
X138716Y315170*
X138034*
X137352Y315483*
X137125Y315795*
X136897Y316420*
X252770Y268533D02*
Y261970D01*
Y268533D02*
X254361D01*
X255043Y268220*
X255497Y267595*
X255725Y266970*
X255952Y266033*
Y264470*
X255725Y263533*
X255497Y262908*
X255043Y262283*
X254361Y261970*
X252770*
X260270Y268533D02*
X257997Y264158D01*
X261406*
X260270Y268533D02*
Y261970D01*
X213670Y269233D02*
Y262670D01*
Y269233D02*
X215261D01*
X215943Y268920*
X216397Y268295*
X216625Y267670*
X216852Y266733*
Y265170*
X216625Y264233*
X216397Y263608*
X215943Y262983*
X215261Y262670*
X213670*
X221852Y269233D02*
X219579D01*
X219352Y266420*
X219579Y266733*
X220261Y267045*
X220943*
X221625Y266733*
X222079Y266108*
X222306Y265170*
X222079Y264545*
X221852Y263608*
X221397Y262983*
X220716Y262670*
X220034*
X219352Y262983*
X219125Y263295*
X218897Y263920*
X173570Y326533D02*
Y319970D01*
Y326533D02*
X175161D01*
X175843Y326220*
X176297Y325595*
X176525Y324970*
X176752Y324033*
Y322470*
X176525Y321533*
X176297Y320908*
X175843Y320283*
X175161Y319970*
X173570*
X181525Y325595D02*
X181297Y326220D01*
X180616Y326533*
X180161*
X179479Y326220*
X179025Y325283*
X178797Y323720*
Y322158*
X179025Y320908*
X179479Y320283*
X180161Y319970*
X180388*
X181070Y320283*
X181525Y320908*
X181752Y321845*
Y322158*
X181525Y323095*
X181070Y323720*
X180388Y324033*
X180161*
X179479Y323720*
X179025Y323095*
X178797Y322158*
X314370Y243933D02*
Y237370D01*
Y243933D02*
X316416D01*
X317097Y243620*
X317325Y243308*
X317552Y242683*
Y242058*
X317325Y241433*
X317097Y241120*
X316416Y240808*
X314370D02*
X316416D01*
X317097Y240495*
X317325Y240183*
X317552Y239558*
Y238620*
X317325Y237995*
X317097Y237683*
X316416Y237370*
X314370*
X322779Y243933D02*
X319597Y237370D01*
Y243933D02*
X322779D01*
X319597Y237370D02*
X322779D01*
X324825Y242683D02*
X325279Y242995D01*
X325961Y243933*
Y237370*
X732370Y309833D02*
Y303270D01*
Y309833D02*
X734416D01*
X735097Y309520*
X735325Y309208*
X735552Y308583*
Y307958*
X735325Y307333*
X735097Y307020*
X734416Y306708*
X732370*
X733961D02*
X735552Y303270D01*
X737597Y308583D02*
X738052Y308895D01*
X738734Y309833*
Y303270*
X677208Y284970D02*
X683770D01*
X677208D02*
Y287016D01*
X677520Y287697*
X677833Y287925*
X678458Y288152*
X679083*
X679708Y287925*
X680020Y287697*
X680333Y287016*
Y284970*
Y286561D02*
X683770Y288152D01*
X677208Y293152D02*
Y290879D01*
X680020Y290652*
X679708Y290879*
X679395Y291561*
Y292243*
X679708Y292925*
X680333Y293379*
X681270Y293606*
X681895Y293379*
X682833Y293152*
X683458Y292697*
X683770Y292016*
Y291334*
X683458Y290652*
X683145Y290425*
X682520Y290197*
X677408Y305170D02*
X683970D01*
X677408D02*
Y307216D01*
X677720Y307897*
X678033Y308125*
X678658Y308352*
X679283*
X679908Y308125*
X680220Y307897*
X680533Y307216*
Y305170*
Y306761D02*
X683970Y308352D01*
X677408Y311534D02*
X677720Y310852D01*
X678345Y310625*
X678970*
X679595Y310852*
X679908Y311306*
X680220Y312216*
X680533Y312897*
X681158Y313352*
X681783Y313579*
X682720*
X683345Y313352*
X683658Y313125*
X683970Y312443*
Y311534*
X683658Y310852*
X683345Y310625*
X682720Y310397*
X681783*
X681158Y310625*
X680533Y311079*
X680220Y311761*
X679908Y312670*
X679595Y313125*
X678970Y313352*
X678345*
X677720Y313125*
X677408Y312443*
Y311534*
X677908Y317370D02*
X684470D01*
X677908D02*
Y319416D01*
X678220Y320097*
X678533Y320325*
X679158Y320552*
X679783*
X680408Y320325*
X680720Y320097*
X681033Y319416*
Y317370*
Y318961D02*
X684470Y320552D01*
X677908Y325779D02*
X684470Y323506D01*
X677908Y322597D02*
Y325779D01*
X630370Y309933D02*
Y303370D01*
Y309933D02*
X632416D01*
X633097Y309620*
X633325Y309308*
X633552Y308683*
Y308058*
X633325Y307433*
X633097Y307120*
X632416Y306808*
X630370*
X631961D02*
X633552Y303370D01*
X635825Y308370D02*
Y308683D01*
X636052Y309308*
X636279Y309620*
X636734Y309933*
X637643*
X638097Y309620*
X638325Y309308*
X638552Y308683*
Y308058*
X638325Y307433*
X637870Y306495*
X635597Y303370*
X638779*
X530870Y309833D02*
Y303270D01*
Y309833D02*
X532916D01*
X533597Y309520*
X533825Y309208*
X534052Y308583*
Y307958*
X533825Y307333*
X533597Y307020*
X532916Y306708*
X530870*
X532461D02*
X534052Y303270D01*
X536552Y309833D02*
X539052D01*
X537688Y307333*
X538370*
X538825Y307020*
X539052Y306708*
X539279Y305770*
Y305145*
X539052Y304208*
X538597Y303583*
X537916Y303270*
X537234*
X536552Y303583*
X536325Y303895*
X536097Y304520*
X210770Y326733D02*
Y320170D01*
Y326733D02*
X212816D01*
X213497Y326420*
X213725Y326108*
X213952Y325483*
Y324858*
X213725Y324233*
X213497Y323920*
X212816Y323608*
X210770*
X212361D02*
X213952Y320170D01*
X216452Y326733D02*
X218952D01*
X217588Y324233*
X218270*
X218725Y323920*
X218952Y323608*
X219179Y322670*
Y322045*
X218952Y321108*
X218497Y320483*
X217816Y320170*
X217134*
X216452Y320483*
X216225Y320795*
X215997Y321420*
X222361Y326733D02*
X221679Y326420D01*
X221452Y325795*
Y325170*
X221679Y324545*
X222134Y324233*
X223043Y323920*
X223725Y323608*
X224179Y322983*
X224406Y322358*
Y321420*
X224179Y320795*
X223952Y320483*
X223270Y320170*
X222361*
X221679Y320483*
X221452Y320795*
X221225Y321420*
Y322358*
X221452Y322983*
X221906Y323608*
X222588Y323920*
X223497Y324233*
X223952Y324545*
X224179Y325170*
Y325795*
X223952Y326420*
X223270Y326733*
X222361*
X210870Y334433D02*
Y327870D01*
Y334433D02*
X212916D01*
X213597Y334120*
X213825Y333808*
X214052Y333183*
Y332558*
X213825Y331933*
X213597Y331620*
X212916Y331308*
X210870*
X212461D02*
X214052Y327870D01*
X216552Y334433D02*
X219052D01*
X217688Y331933*
X218370*
X218825Y331620*
X219052Y331308*
X219279Y330370*
Y329745*
X219052Y328808*
X218597Y328183*
X217916Y327870*
X217234*
X216552Y328183*
X216325Y328495*
X216097Y329120*
X224052Y333495D02*
X223825Y334120D01*
X223143Y334433*
X222688*
X222006Y334120*
X221552Y333183*
X221325Y331620*
Y330058*
X221552Y328808*
X222006Y328183*
X222688Y327870*
X222916*
X223597Y328183*
X224052Y328808*
X224279Y329745*
Y330058*
X224052Y330995*
X223597Y331620*
X222916Y331933*
X222688*
X222006Y331620*
X221552Y330995*
X221325Y330058*
X210870Y342133D02*
Y335570D01*
Y342133D02*
X212916D01*
X213597Y341820*
X213825Y341508*
X214052Y340883*
Y340258*
X213825Y339633*
X213597Y339320*
X212916Y339008*
X210870*
X212461D02*
X214052Y335570D01*
X216552Y342133D02*
X219052D01*
X217688Y339633*
X218370*
X218825Y339320*
X219052Y339008*
X219279Y338070*
Y337445*
X219052Y336508*
X218597Y335883*
X217916Y335570*
X217234*
X216552Y335883*
X216325Y336195*
X216097Y336820*
X224506Y342133D02*
X222234Y335570D01*
X221325Y342133D02*
X224506D01*
X250870Y333733D02*
Y327170D01*
Y333733D02*
X252916D01*
X253597Y333420*
X253825Y333108*
X254052Y332483*
Y331858*
X253825Y331233*
X253597Y330920*
X252916Y330608*
X250870*
X252461D02*
X254052Y327170D01*
X256552Y333733D02*
X259052D01*
X257688Y331233*
X258370*
X258825Y330920*
X259052Y330608*
X259279Y329670*
Y329045*
X259052Y328108*
X258597Y327483*
X257916Y327170*
X257234*
X256552Y327483*
X256325Y327795*
X256097Y328420*
X261779Y333733D02*
X264279D01*
X262916Y331233*
X263597*
X264052Y330920*
X264279Y330608*
X264506Y329670*
Y329045*
X264279Y328108*
X263825Y327483*
X263143Y327170*
X262461*
X261779Y327483*
X261552Y327795*
X261325Y328420*
X250970Y325533D02*
Y318970D01*
Y325533D02*
X253016D01*
X253697Y325220*
X253925Y324908*
X254152Y324283*
Y323658*
X253925Y323033*
X253697Y322720*
X253016Y322408*
X250970*
X252561D02*
X254152Y318970D01*
X256652Y325533D02*
X259152D01*
X257788Y323033*
X258470*
X258925Y322720*
X259152Y322408*
X259379Y321470*
Y320845*
X259152Y319908*
X258697Y319283*
X258016Y318970*
X257334*
X256652Y319283*
X256425Y319595*
X256197Y320220*
X264379Y325533D02*
X262106D01*
X261879Y322720*
X262106Y323033*
X262788Y323345*
X263470*
X264152Y323033*
X264606Y322408*
X264834Y321470*
X264606Y320845*
X264379Y319908*
X263925Y319283*
X263243Y318970*
X262561*
X261879Y319283*
X261652Y319595*
X261425Y320220*
X250970Y341733D02*
Y335170D01*
Y341733D02*
X253016D01*
X253697Y341420*
X253925Y341108*
X254152Y340483*
Y339858*
X253925Y339233*
X253697Y338920*
X253016Y338608*
X250970*
X252561D02*
X254152Y335170D01*
X256652Y341733D02*
X259152D01*
X257788Y339233*
X258470*
X258925Y338920*
X259152Y338608*
X259379Y337670*
Y337045*
X259152Y336108*
X258697Y335483*
X258016Y335170*
X257334*
X256652Y335483*
X256425Y335795*
X256197Y336420*
X263697Y341733D02*
X261425Y337358D01*
X264834*
X263697Y341733D02*
Y335170D01*
X289670Y305833D02*
Y299270D01*
Y305833D02*
X291716D01*
X292397Y305520*
X292625Y305208*
X292852Y304583*
Y303958*
X292625Y303333*
X292397Y303020*
X291716Y302708*
X289670*
X291261D02*
X292852Y299270D01*
X295352Y305833D02*
X297852D01*
X296488Y303333*
X297170*
X297625Y303020*
X297852Y302708*
X298079Y301770*
Y301145*
X297852Y300208*
X297397Y299583*
X296716Y299270*
X296034*
X295352Y299583*
X295125Y299895*
X294897Y300520*
X300352Y304270D02*
Y304583D01*
X300579Y305208*
X300806Y305520*
X301261Y305833*
X302170*
X302625Y305520*
X302852Y305208*
X303079Y304583*
Y303958*
X302852Y303333*
X302397Y302395*
X300125Y299270*
X303306*
X289570Y317933D02*
Y311370D01*
Y317933D02*
X291616D01*
X292297Y317620*
X292525Y317308*
X292752Y316683*
Y316058*
X292525Y315433*
X292297Y315120*
X291616Y314808*
X289570*
X291161D02*
X292752Y311370D01*
X295252Y317933D02*
X297752D01*
X296388Y315433*
X297070*
X297525Y315120*
X297752Y314808*
X297979Y313870*
Y313245*
X297752Y312308*
X297297Y311683*
X296616Y311370*
X295934*
X295252Y311683*
X295025Y311995*
X294797Y312620*
X301388Y317933D02*
X300706Y317620D01*
X300252Y316683*
X300025Y315120*
Y314183*
X300252Y312620*
X300706Y311683*
X301388Y311370*
X301843*
X302525Y311683*
X302979Y312620*
X303206Y314183*
Y315120*
X302979Y316683*
X302525Y317620*
X301843Y317933*
X301388*
X289470Y330433D02*
Y323870D01*
Y330433D02*
X291516D01*
X292197Y330120*
X292425Y329808*
X292652Y329183*
Y328558*
X292425Y327933*
X292197Y327620*
X291516Y327308*
X289470*
X291061D02*
X292652Y323870D01*
X295152Y330433D02*
X297652D01*
X296288Y327933*
X296970*
X297425Y327620*
X297652Y327308*
X297879Y326370*
Y325745*
X297652Y324808*
X297197Y324183*
X296516Y323870*
X295834*
X295152Y324183*
X294925Y324495*
X294697Y325120*
X299925Y329183D02*
X300379Y329495D01*
X301061Y330433*
Y323870*
X333408Y420070D02*
X339970D01*
X333408D02*
Y422116D01*
X333720Y422797*
X334033Y423025*
X334658Y423252*
X335283*
X335908Y423025*
X336220Y422797*
X336533Y422116*
Y420070*
Y421661D02*
X339970Y423252D01*
X334658Y425297D02*
X334345Y425752D01*
X333408Y426434*
X339970*
X334345Y431206D02*
X333720Y430979D01*
X333408Y430297*
Y429843*
X333720Y429161*
X334658Y428706*
X336220Y428479*
X337783*
X339033Y428706*
X339658Y429161*
X339970Y429843*
Y430070*
X339658Y430752*
X339033Y431206*
X338095Y431434*
X337783*
X336845Y431206*
X336220Y430752*
X335908Y430070*
Y429843*
X336220Y429161*
X336845Y428706*
X337783Y428479*
X345270Y352533D02*
Y345970D01*
Y352533D02*
X347316D01*
X347997Y352220*
X348225Y351908*
X348452Y351283*
Y350658*
X348225Y350033*
X347997Y349720*
X347316Y349408*
X345270*
X346861D02*
X348452Y345970D01*
X350497Y351283D02*
X350952Y351595D01*
X351634Y352533*
Y345970*
X356634Y352533D02*
X354361D01*
X354134Y349720*
X354361Y350033*
X355043Y350345*
X355725*
X356406Y350033*
X356861Y349408*
X357088Y348470*
X356861Y347845*
X356634Y346908*
X356179Y346283*
X355497Y345970*
X354816*
X354134Y346283*
X353906Y346595*
X353679Y347220*
X364870Y309233D02*
Y302670D01*
Y309233D02*
X366916D01*
X367597Y308920*
X367825Y308608*
X368052Y307983*
Y307358*
X367825Y306733*
X367597Y306420*
X366916Y306108*
X364870*
X366461D02*
X368052Y302670D01*
X372370Y309233D02*
X370097Y304858D01*
X373506*
X372370Y309233D02*
Y302670D01*
X116770Y604533D02*
Y597970D01*
Y604533D02*
X118816D01*
X119497Y604220*
X119725Y603908*
X119952Y603283*
Y602658*
X119725Y602033*
X119497Y601720*
X118816Y601408*
X116770*
X118361D02*
X119952Y597970D01*
X124952Y602345D02*
X124725Y601408D01*
X124270Y600783*
X123588Y600470*
X123361*
X122679Y600783*
X122225Y601408*
X121997Y602345*
Y602658*
X122225Y603595*
X122679Y604220*
X123361Y604533*
X123588*
X124270Y604220*
X124725Y603595*
X124952Y602345*
Y600783*
X124725Y599220*
X124270Y598283*
X123588Y597970*
X123134*
X122452Y598283*
X122225Y598908*
X116770Y592533D02*
Y585970D01*
Y592533D02*
X118816D01*
X119497Y592220*
X119725Y591908*
X119952Y591283*
Y590658*
X119725Y590033*
X119497Y589720*
X118816Y589408*
X116770*
X118361D02*
X119952Y585970D01*
X121997Y591283D02*
X122452Y591595D01*
X123134Y592533*
Y585970*
X126543Y592533D02*
X125861Y592220D01*
X125406Y591283*
X125179Y589720*
Y588783*
X125406Y587220*
X125861Y586283*
X126543Y585970*
X126997*
X127679Y586283*
X128134Y587220*
X128361Y588783*
Y589720*
X128134Y591283*
X127679Y592220*
X126997Y592533*
X126543*
X116770Y580533D02*
Y573970D01*
Y580533D02*
X118816D01*
X119497Y580220*
X119725Y579908*
X119952Y579283*
Y578658*
X119725Y578033*
X119497Y577720*
X118816Y577408*
X116770*
X118361D02*
X119952Y573970D01*
X121997Y579283D02*
X122452Y579595D01*
X123134Y580533*
Y573970*
X125179Y579283D02*
X125634Y579595D01*
X126316Y580533*
Y573970*
X116770Y568533D02*
Y561970D01*
Y568533D02*
X118816D01*
X119497Y568220*
X119725Y567908*
X119952Y567283*
Y566658*
X119725Y566033*
X119497Y565720*
X118816Y565408*
X116770*
X118361D02*
X119952Y561970D01*
X121997Y567283D02*
X122452Y567595D01*
X123134Y568533*
Y561970*
X125634Y568533D02*
X128134D01*
X126770Y566033*
X127452*
X127906Y565720*
X128134Y565408*
X128361Y564470*
Y563845*
X128134Y562908*
X127679Y562283*
X126997Y561970*
X126316*
X125634Y562283*
X125406Y562595*
X125179Y563220*
X116770Y557533D02*
Y550970D01*
Y557533D02*
X118816D01*
X119497Y557220*
X119725Y556908*
X119952Y556283*
Y555658*
X119725Y555033*
X119497Y554720*
X118816Y554408*
X116770*
X118361D02*
X119952Y550970D01*
X121997Y556283D02*
X122452Y556595D01*
X123134Y557533*
Y550970*
X127452Y557533D02*
X125179Y553158D01*
X128588*
X127452Y557533D02*
Y550970D01*
X353108Y521370D02*
X359670D01*
X353108D02*
Y523416D01*
X353420Y524097*
X353733Y524325*
X354358Y524552*
X354983*
X355608Y524325*
X355920Y524097*
X356233Y523416*
Y521370*
Y522961D02*
X359670Y524552D01*
X354670Y526825D02*
X354358D01*
X353733Y527052*
X353420Y527279*
X353108Y527734*
Y528643*
X353420Y529097*
X353733Y529325*
X354358Y529552*
X354983*
X355608Y529325*
X356545Y528870*
X359670Y526597*
Y529779*
X353108Y532279D02*
Y534779D01*
X355608Y533416*
Y534097*
X355920Y534552*
X356233Y534779*
X357170Y535006*
X357795*
X358733Y534779*
X359358Y534325*
X359670Y533643*
Y532961*
X359358Y532279*
X359045Y532052*
X358420Y531825*
X332570Y517133D02*
Y510570D01*
Y517133D02*
X334616D01*
X335297Y516820*
X335525Y516508*
X335752Y515883*
Y515258*
X335525Y514633*
X335297Y514320*
X334616Y514008*
X332570*
X334161D02*
X335752Y510570D01*
X338025Y515570D02*
Y515883D01*
X338252Y516508*
X338479Y516820*
X338934Y517133*
X339843*
X340297Y516820*
X340525Y516508*
X340752Y515883*
Y515258*
X340525Y514633*
X340070Y513695*
X337797Y510570*
X340979*
X343252Y515570D02*
Y515883D01*
X343479Y516508*
X343706Y516820*
X344161Y517133*
X345070*
X345525Y516820*
X345752Y516508*
X345979Y515883*
Y515258*
X345752Y514633*
X345297Y513695*
X343025Y510570*
X346206*
X311708Y515970D02*
X318270D01*
X311708D02*
Y518016D01*
X312020Y518697*
X312333Y518925*
X312958Y519152*
X313583*
X314208Y518925*
X314520Y518697*
X314833Y518016*
Y515970*
Y517561D02*
X318270Y519152D01*
X313270Y521425D02*
X312958D01*
X312333Y521652*
X312020Y521879*
X311708Y522334*
Y523243*
X312020Y523697*
X312333Y523925*
X312958Y524152*
X313583*
X314208Y523925*
X315145Y523470*
X318270Y521197*
Y524379*
X312958Y526425D02*
X312645Y526879D01*
X311708Y527561*
X318270*
X81508Y360770D02*
X88070D01*
X81508D02*
Y362816D01*
X81820Y363497*
X82133Y363725*
X82758Y363952*
X83383*
X84008Y363725*
X84320Y363497*
X84633Y362816*
Y360770*
Y362361D02*
X88070Y363952D01*
X82758Y365997D02*
X82445Y366452D01*
X81508Y367134*
X88070*
X83695Y372134D02*
X84633Y371906D01*
X85258Y371452*
X85570Y370770*
Y370543*
X85258Y369861*
X84633Y369406*
X83695Y369179*
X83383*
X82445Y369406*
X81820Y369861*
X81508Y370543*
Y370770*
X81820Y371452*
X82445Y371906*
X83695Y372134*
X85258*
X86820Y371906*
X87758Y371452*
X88070Y370770*
Y370316*
X87758Y369634*
X87133Y369406*
X370708Y260970D02*
X377270D01*
X370708D02*
Y263016D01*
X371020Y263697*
X371333Y263925*
X371958Y264152*
X372583*
X373208Y263925*
X373520Y263697*
X373833Y263016*
Y260970*
Y262561D02*
X377270Y264152D01*
X371958Y266197D02*
X371645Y266652D01*
X370708Y267334*
X377270*
X370708Y270516D02*
X371020Y269834D01*
X371645Y269606*
X372270*
X372895Y269834*
X373208Y270288*
X373520Y271197*
X373833Y271879*
X374458Y272334*
X375083Y272561*
X376020*
X376645Y272334*
X376958Y272106*
X377270Y271425*
Y270516*
X376958Y269834*
X376645Y269606*
X376020Y269379*
X375083*
X374458Y269606*
X373833Y270061*
X373520Y270743*
X373208Y271652*
X372895Y272106*
X372270Y272334*
X371645*
X371020Y272106*
X370708Y271425*
Y270516*
X371308Y247370D02*
X377870D01*
X371308D02*
Y249416D01*
X371620Y250097*
X371933Y250325*
X372558Y250552*
X373183*
X373808Y250325*
X374120Y250097*
X374433Y249416*
Y247370*
Y248961D02*
X377870Y250552D01*
X372558Y252597D02*
X372245Y253052D01*
X371308Y253734*
X377870*
X371308Y258961D02*
X377870Y256688D01*
X371308Y255779D02*
Y258961D01*
X295908Y440570D02*
X302470D01*
X295908D02*
Y442616D01*
X296220Y443297*
X296533Y443525*
X297158Y443752*
X297783*
X298408Y443525*
X298720Y443297*
X299033Y442616*
Y440570*
Y442161D02*
X302470Y443752D01*
X295908Y448070D02*
X300283Y445797D01*
Y449206*
X295908Y448070D02*
X302470D01*
X297158Y451252D02*
X296845Y451706D01*
X295908Y452388*
X302470*
X312670Y466733D02*
Y460170D01*
Y466733D02*
X314716D01*
X315397Y466420*
X315625Y466108*
X315852Y465483*
Y464858*
X315625Y464233*
X315397Y463920*
X314716Y463608*
X312670*
X314261D02*
X315852Y460170D01*
X320170Y466733D02*
X317897Y462358D01*
X321306*
X320170Y466733D02*
Y460170D01*
X324716Y466733D02*
X324034Y466420D01*
X323579Y465483*
X323352Y463920*
Y462983*
X323579Y461420*
X324034Y460483*
X324716Y460170*
X325170*
X325852Y460483*
X326306Y461420*
X326534Y462983*
Y463920*
X326306Y465483*
X325852Y466420*
X325170Y466733*
X324716*
X328370Y466833D02*
Y460270D01*
Y466833D02*
X330416D01*
X331097Y466520*
X331325Y466208*
X331552Y465583*
Y464958*
X331325Y464333*
X331097Y464020*
X330416Y463708*
X328370*
X329961D02*
X331552Y460270D01*
X334052Y466833D02*
X336552D01*
X335188Y464333*
X335870*
X336325Y464020*
X336552Y463708*
X336779Y462770*
Y462145*
X336552Y461208*
X336097Y460583*
X335416Y460270*
X334734*
X334052Y460583*
X333825Y460895*
X333597Y461520*
X341779Y464645D02*
X341552Y463708D01*
X341097Y463083*
X340416Y462770*
X340188*
X339506Y463083*
X339052Y463708*
X338825Y464645*
Y464958*
X339052Y465895*
X339506Y466520*
X340188Y466833*
X340416*
X341097Y466520*
X341552Y465895*
X341779Y464645*
Y463083*
X341552Y461520*
X341097Y460583*
X340416Y460270*
X339961*
X339279Y460583*
X339052Y461208*
X219370Y533779D02*
X218745Y533552D01*
X218120Y533097*
X217808Y532643*
Y531734*
X218120Y531279*
X218745Y530825*
X219370Y530597*
X220308Y530370*
X221870*
X222808Y530597*
X223433Y530825*
X224058Y531279*
X224370Y531734*
Y532643*
X224058Y533097*
X223433Y533552*
X222808Y533779*
X219370Y536052D02*
X219058D01*
X218433Y536279*
X218120Y536506*
X217808Y536961*
Y537870*
X218120Y538325*
X218433Y538552*
X219058Y538779*
X219683*
X220308Y538552*
X221245Y538097*
X224370Y535825*
Y539006*
X217808Y543325D02*
X222183Y541052D01*
Y544461*
X217808Y543325D02*
X224370D01*
X194679Y421670D02*
X194452Y422295D01*
X193997Y422920*
X193543Y423233*
X192634*
X192179Y422920*
X191725Y422295*
X191497Y421670*
X191270Y420733*
Y419170*
X191497Y418233*
X191725Y417608*
X192179Y416983*
X192634Y416670*
X193543*
X193997Y416983*
X194452Y417608*
X194679Y418233*
X196952Y421670D02*
Y421983D01*
X197179Y422608*
X197406Y422920*
X197861Y423233*
X198770*
X199225Y422920*
X199452Y422608*
X199679Y421983*
Y421358*
X199452Y420733*
X198997Y419795*
X196725Y416670*
X199906*
X202179Y421670D02*
Y421983D01*
X202406Y422608*
X202634Y422920*
X203088Y423233*
X203997*
X204452Y422920*
X204679Y422608*
X204906Y421983*
Y421358*
X204679Y420733*
X204225Y419795*
X201952Y416670*
X205134*
X260979Y470470D02*
X260752Y471095D01*
X260297Y471720*
X259843Y472033*
X258934*
X258479Y471720*
X258025Y471095*
X257797Y470470*
X257570Y469533*
Y467970*
X257797Y467033*
X258025Y466408*
X258479Y465783*
X258934Y465470*
X259843*
X260297Y465783*
X260752Y466408*
X260979Y467033*
X263252Y470470D02*
Y470783D01*
X263479Y471408*
X263706Y471720*
X264161Y472033*
X265070*
X265525Y471720*
X265752Y471408*
X265979Y470783*
Y470158*
X265752Y469533*
X265297Y468595*
X263025Y465470*
X266206*
X268706Y472033D02*
X271206D01*
X269843Y469533*
X270525*
X270979Y469220*
X271206Y468908*
X271434Y467970*
Y467345*
X271206Y466408*
X270752Y465783*
X270070Y465470*
X269388*
X268706Y465783*
X268479Y466095*
X268252Y466720*
X188570Y579779D02*
X187945Y579552D01*
X187320Y579097*
X187008Y578643*
Y577734*
X187320Y577279*
X187945Y576825*
X188570Y576597*
X189508Y576370*
X191070*
X192008Y576597*
X192633Y576825*
X193258Y577279*
X193570Y577734*
Y578643*
X193258Y579097*
X192633Y579552*
X192008Y579779*
X188570Y582052D02*
X188258D01*
X187633Y582279*
X187320Y582506*
X187008Y582961*
Y583870*
X187320Y584325*
X187633Y584552*
X188258Y584779*
X188883*
X189508Y584552*
X190445Y584097*
X193570Y581825*
Y585006*
X188258Y587052D02*
X187945Y587506D01*
X187008Y588188*
X193570*
X320879Y596970D02*
X320652Y597595D01*
X320197Y598220*
X319743Y598533*
X318834*
X318379Y598220*
X317925Y597595*
X317697Y596970*
X317470Y596033*
Y594470*
X317697Y593533*
X317925Y592908*
X318379Y592283*
X318834Y591970*
X319743*
X320197Y592283*
X320652Y592908*
X320879Y593533*
X326106Y598533D02*
X323834Y591970D01*
X322925Y598533D02*
X326106D01*
X305579Y509270D02*
X305352Y509895D01*
X304897Y510520*
X304443Y510833*
X303534*
X303079Y510520*
X302625Y509895*
X302397Y509270*
X302170Y508333*
Y506770*
X302397Y505833*
X302625Y505208*
X303079Y504583*
X303534Y504270*
X304443*
X304897Y504583*
X305352Y505208*
X305579Y505833*
X308079Y510833D02*
X310579D01*
X309216Y508333*
X309897*
X310352Y508020*
X310579Y507708*
X310806Y506770*
Y506145*
X310579Y505208*
X310125Y504583*
X309443Y504270*
X308761*
X308079Y504583*
X307852Y504895*
X307625Y505520*
X312852Y509583D02*
X313306Y509895D01*
X313988Y510833*
Y504270*
X142679Y551470D02*
X142452Y552095D01*
X141997Y552720*
X141543Y553033*
X140634*
X140179Y552720*
X139725Y552095*
X139497Y551470*
X139270Y550533*
Y548970*
X139497Y548033*
X139725Y547408*
X140179Y546783*
X140634Y546470*
X141543*
X141997Y546783*
X142452Y547408*
X142679Y548033*
X144952Y551470D02*
Y551783D01*
X145179Y552408*
X145406Y552720*
X145861Y553033*
X146770*
X147225Y552720*
X147452Y552408*
X147679Y551783*
Y551158*
X147452Y550533*
X146997Y549595*
X144725Y546470*
X147906*
X151088Y553033D02*
X150406Y552720D01*
X150179Y552095*
Y551470*
X150406Y550845*
X150861Y550533*
X151770Y550220*
X152452Y549908*
X152906Y549283*
X153134Y548658*
Y547720*
X152906Y547095*
X152679Y546783*
X151997Y546470*
X151088*
X150406Y546783*
X150179Y547095*
X149952Y547720*
Y548658*
X150179Y549283*
X150634Y549908*
X151316Y550220*
X152225Y550533*
X152679Y550845*
X152906Y551470*
Y552095*
X152679Y552720*
X151997Y553033*
X151088*
X191970Y547779D02*
X191345Y547552D01*
X190720Y547097*
X190408Y546643*
Y545734*
X190720Y545279*
X191345Y544825*
X191970Y544597*
X192908Y544370*
X194470*
X195408Y544597*
X196033Y544825*
X196658Y545279*
X196970Y545734*
Y546643*
X196658Y547097*
X196033Y547552*
X195408Y547779*
X191970Y550052D02*
X191658D01*
X191033Y550279*
X190720Y550506*
X190408Y550961*
Y551870*
X190720Y552325*
X191033Y552552*
X191658Y552779*
X192283*
X192908Y552552*
X193845Y552097*
X196970Y549825*
Y553006*
X190408Y558234D02*
X196970Y555961D01*
X190408Y555052D02*
Y558234D01*
X131479Y477870D02*
X131252Y478495D01*
X130797Y479120*
X130343Y479433*
X129434*
X128979Y479120*
X128525Y478495*
X128297Y477870*
X128070Y476933*
Y475370*
X128297Y474433*
X128525Y473808*
X128979Y473183*
X129434Y472870*
X130343*
X130797Y473183*
X131252Y473808*
X131479Y474433*
X133752Y477870D02*
Y478183D01*
X133979Y478808*
X134206Y479120*
X134661Y479433*
X135570*
X136025Y479120*
X136252Y478808*
X136479Y478183*
Y477558*
X136252Y476933*
X135797Y475995*
X133525Y472870*
X136706*
X141706Y477245D02*
X141479Y476308D01*
X141025Y475683*
X140343Y475370*
X140116*
X139434Y475683*
X138979Y476308*
X138752Y477245*
Y477558*
X138979Y478495*
X139434Y479120*
X140116Y479433*
X140343*
X141025Y479120*
X141479Y478495*
X141706Y477245*
Y475683*
X141479Y474120*
X141025Y473183*
X140343Y472870*
X139888*
X139206Y473183*
X138979Y473808*
X135579Y632870D02*
X135352Y633495D01*
X134897Y634120*
X134443Y634433*
X133534*
X133079Y634120*
X132625Y633495*
X132397Y632870*
X132170Y631933*
Y630370*
X132397Y629433*
X132625Y628808*
X133079Y628183*
X133534Y627870*
X134443*
X134897Y628183*
X135352Y628808*
X135579Y629433*
X137625Y633183D02*
X138079Y633495D01*
X138761Y634433*
Y627870*
X143761Y632245D02*
X143534Y631308D01*
X143079Y630683*
X142397Y630370*
X142170*
X141488Y630683*
X141034Y631308*
X140806Y632245*
Y632558*
X141034Y633495*
X141488Y634120*
X142170Y634433*
X142397*
X143079Y634120*
X143534Y633495*
X143761Y632245*
Y630683*
X143534Y629120*
X143079Y628183*
X142397Y627870*
X141943*
X141261Y628183*
X141034Y628808*
X148479Y632570D02*
X148252Y633195D01*
X147797Y633820*
X147343Y634133*
X146434*
X145979Y633820*
X145525Y633195*
X145297Y632570*
X145070Y631633*
Y630070*
X145297Y629133*
X145525Y628508*
X145979Y627883*
X146434Y627570*
X147343*
X147797Y627883*
X148252Y628508*
X148479Y629133*
X150525Y632883D02*
X150979Y633195D01*
X151661Y634133*
Y627570*
X154843Y634133D02*
X154161Y633820D01*
X153934Y633195*
Y632570*
X154161Y631945*
X154616Y631633*
X155525Y631320*
X156206Y631008*
X156661Y630383*
X156888Y629758*
Y628820*
X156661Y628195*
X156434Y627883*
X155752Y627570*
X154843*
X154161Y627883*
X153934Y628195*
X153706Y628820*
Y629758*
X153934Y630383*
X154388Y631008*
X155070Y631320*
X155979Y631633*
X156434Y631945*
X156661Y632570*
Y633195*
X156434Y633820*
X155752Y634133*
X154843*
X181170Y608979D02*
X180545Y608752D01*
X179920Y608297*
X179608Y607843*
Y606934*
X179920Y606479*
X180545Y606025*
X181170Y605797*
X182108Y605570*
X183670*
X184608Y605797*
X185233Y606025*
X185858Y606479*
X186170Y606934*
Y607843*
X185858Y608297*
X185233Y608752*
X184608Y608979*
X181170Y611252D02*
X180858D01*
X180233Y611479*
X179920Y611706*
X179608Y612161*
Y613070*
X179920Y613525*
X180233Y613752*
X180858Y613979*
X181483*
X182108Y613752*
X183045Y613297*
X186170Y611025*
Y614206*
X179608Y617616D02*
X179920Y616934D01*
X180858Y616479*
X182420Y616252*
X183358*
X184920Y616479*
X185858Y616934*
X186170Y617616*
Y618070*
X185858Y618752*
X184920Y619206*
X183358Y619434*
X182420*
X180858Y619206*
X179920Y618752*
X179608Y618070*
Y617616*
X161579Y632570D02*
X161352Y633195D01*
X160897Y633820*
X160443Y634133*
X159534*
X159079Y633820*
X158625Y633195*
X158397Y632570*
X158170Y631633*
Y630070*
X158397Y629133*
X158625Y628508*
X159079Y627883*
X159534Y627570*
X160443*
X160897Y627883*
X161352Y628508*
X161579Y629133*
X163625Y632883D02*
X164079Y633195D01*
X164761Y634133*
Y627570*
X169988Y634133D02*
X167716Y627570D01*
X166806Y634133D02*
X169988D01*
X182733Y598870D02*
X178045D01*
X177108Y598643*
X176483Y598188*
X176170Y597506*
Y597052*
X176483Y596370*
X177108Y595916*
X178045Y595688*
X182733*
X181170Y593416D02*
X181483D01*
X182108Y593188*
X182420Y592961*
X182733Y592506*
Y591597*
X182420Y591143*
X182108Y590916*
X181483Y590688*
X180858*
X180233Y590916*
X179295Y591370*
X176170Y593643*
Y590461*
X274779Y348370D02*
X274552Y348995D01*
X274097Y349620*
X273643Y349933*
X272734*
X272279Y349620*
X271825Y348995*
X271597Y348370*
X271370Y347433*
Y345870*
X271597Y344933*
X271825Y344308*
X272279Y343683*
X272734Y343370*
X273643*
X274097Y343683*
X274552Y344308*
X274779Y344933*
X276825Y348683D02*
X277279Y348995D01*
X277961Y349933*
Y343370*
X282279Y349933D02*
X280006Y345558D01*
X283416*
X282279Y349933D02*
Y343370D01*
X230479Y348170D02*
X230252Y348795D01*
X229797Y349420*
X229343Y349733*
X228434*
X227979Y349420*
X227525Y348795*
X227297Y348170*
X227070Y347233*
Y345670*
X227297Y344733*
X227525Y344108*
X227979Y343483*
X228434Y343170*
X229343*
X229797Y343483*
X230252Y344108*
X230479Y344733*
X232525Y348483D02*
X232979Y348795D01*
X233661Y349733*
Y343170*
X238661Y349733D02*
X236388D01*
X236161Y346920*
X236388Y347233*
X237070Y347545*
X237752*
X238434Y347233*
X238888Y346608*
X239116Y345670*
X238888Y345045*
X238661Y344108*
X238206Y343483*
X237525Y343170*
X236843*
X236161Y343483*
X235934Y343795*
X235706Y344420*
X194679Y349070D02*
X194452Y349695D01*
X193997Y350320*
X193543Y350633*
X192634*
X192179Y350320*
X191725Y349695*
X191497Y349070*
X191270Y348133*
Y346570*
X191497Y345633*
X191725Y345008*
X192179Y344383*
X192634Y344070*
X193543*
X193997Y344383*
X194452Y345008*
X194679Y345633*
X196725Y349383D02*
X197179Y349695D01*
X197861Y350633*
Y344070*
X202634Y349695D02*
X202406Y350320D01*
X201725Y350633*
X201270*
X200588Y350320*
X200134Y349383*
X199906Y347820*
Y346258*
X200134Y345008*
X200588Y344383*
X201270Y344070*
X201497*
X202179Y344383*
X202634Y345008*
X202861Y345945*
Y346258*
X202634Y347195*
X202179Y347820*
X201497Y348133*
X201270*
X200588Y347820*
X200134Y347195*
X199906Y346258*
X147670Y347933D02*
Y341370D01*
Y347933D02*
X149716D01*
X150397Y347620*
X150625Y347308*
X150852Y346683*
Y346058*
X150625Y345433*
X150397Y345120*
X149716Y344808*
X147670*
X149261D02*
X150852Y341370D01*
X153125Y346370D02*
Y346683D01*
X153352Y347308*
X153579Y347620*
X154034Y347933*
X154943*
X155397Y347620*
X155625Y347308*
X155852Y346683*
Y346058*
X155625Y345433*
X155170Y344495*
X152897Y341370*
X156079*
X159488Y347933D02*
X158806Y347620D01*
X158352Y346683*
X158125Y345120*
Y344183*
X158352Y342620*
X158806Y341683*
X159488Y341370*
X159943*
X160625Y341683*
X161079Y342620*
X161306Y344183*
Y345120*
X161079Y346683*
X160625Y347620*
X159943Y347933*
X159488*
X252970Y620579D02*
X252345Y620352D01*
X251720Y619897*
X251408Y619443*
Y618534*
X251720Y618079*
X252345Y617625*
X252970Y617397*
X253908Y617170*
X255470*
X256408Y617397*
X257033Y617625*
X257658Y618079*
X257970Y618534*
Y619443*
X257658Y619897*
X257033Y620352*
X256408Y620579*
X252658Y622625D02*
X252345Y623079D01*
X251408Y623761*
X257970*
X131770Y365279D02*
X131145Y365052D01*
X130520Y364597*
X130208Y364143*
Y363234*
X130520Y362779*
X131145Y362325*
X131770Y362097*
X132708Y361870*
X134270*
X135208Y362097*
X135833Y362325*
X136458Y362779*
X136770Y363234*
Y364143*
X136458Y364597*
X135833Y365052*
X135208Y365279*
X131770Y367552D02*
X131458D01*
X130833Y367779*
X130520Y368006*
X130208Y368461*
Y369370*
X130520Y369825*
X130833Y370052*
X131458Y370279*
X132083*
X132708Y370052*
X133645Y369597*
X136770Y367325*
Y370506*
X414570Y253179D02*
X413945Y252952D01*
X413320Y252497*
X413008Y252043*
Y251134*
X413320Y250679*
X413945Y250225*
X414570Y249997*
X415508Y249770*
X417070*
X418008Y249997*
X418633Y250225*
X419258Y250679*
X419570Y251134*
Y252043*
X419258Y252497*
X418633Y252952*
X418008Y253179*
X413008Y255679D02*
Y258179D01*
X415508Y256816*
Y257497*
X415820Y257952*
X416133Y258179*
X417070Y258406*
X417695*
X418633Y258179*
X419258Y257725*
X419570Y257043*
Y256361*
X419258Y255679*
X418945Y255452*
X418320Y255225*
X310379Y420170D02*
X310152Y420795D01*
X309697Y421420*
X309243Y421733*
X308334*
X307879Y421420*
X307425Y420795*
X307197Y420170*
X306970Y419233*
Y417670*
X307197Y416733*
X307425Y416108*
X307879Y415483*
X308334Y415170*
X309243*
X309697Y415483*
X310152Y416108*
X310379Y416733*
X312879Y421733D02*
X315379D01*
X314016Y419233*
X314697*
X315152Y418920*
X315379Y418608*
X315606Y417670*
Y417045*
X315379Y416108*
X314925Y415483*
X314243Y415170*
X313561*
X312879Y415483*
X312652Y415795*
X312425Y416420*
X319016Y421733D02*
X318334Y421420D01*
X317879Y420483*
X317652Y418920*
Y417983*
X317879Y416420*
X318334Y415483*
X319016Y415170*
X319470*
X320152Y415483*
X320606Y416420*
X320834Y417983*
Y418920*
X320606Y420483*
X320152Y421420*
X319470Y421733*
X319016*
X636679Y282870D02*
X636452Y283495D01*
X635997Y284120*
X635543Y284433*
X634634*
X634179Y284120*
X633725Y283495*
X633497Y282870*
X633270Y281933*
Y280370*
X633497Y279433*
X633725Y278808*
X634179Y278183*
X634634Y277870*
X635543*
X635997Y278183*
X636452Y278808*
X636679Y279433*
X640997Y284433D02*
X638725Y280058D01*
X642134*
X640997Y284433D02*
Y277870D01*
X197279Y526770D02*
X197052Y527395D01*
X196597Y528020*
X196143Y528333*
X195234*
X194779Y528020*
X194325Y527395*
X194097Y526770*
X193870Y525833*
Y524270*
X194097Y523333*
X194325Y522708*
X194779Y522083*
X195234Y521770*
X196143*
X196597Y522083*
X197052Y522708*
X197279Y523333*
X199552Y526770D02*
Y527083D01*
X199779Y527708*
X200006Y528020*
X200461Y528333*
X201370*
X201825Y528020*
X202052Y527708*
X202279Y527083*
Y526458*
X202052Y525833*
X201597Y524895*
X199325Y521770*
X202506*
X207506Y528333D02*
X205234D01*
X205006Y525520*
X205234Y525833*
X205916Y526145*
X206597*
X207279Y525833*
X207734Y525208*
X207961Y524270*
X207734Y523645*
X207506Y522708*
X207052Y522083*
X206370Y521770*
X205688*
X205006Y522083*
X204779Y522395*
X204552Y523020*
X347108Y608970D02*
X350233Y610788D01*
X353670*
X347108Y612606D02*
X350233Y610788D01*
X347108Y615106D02*
Y617606D01*
X349608Y616243*
Y616925*
X349920Y617379*
X350233Y617606*
X351170Y617834*
X351795*
X352733Y617606*
X353358Y617152*
X353670Y616470*
Y615788*
X353358Y615106*
X353045Y614879*
X352420Y614652*
X92943Y634433D02*
Y629433D01*
X92716Y628495*
X92488Y628183*
X92034Y627870*
X91579*
X91125Y628183*
X90897Y628495*
X90670Y629433*
Y630058*
X97943Y634433D02*
X95670D01*
X95443Y631620*
X95670Y631933*
X96352Y632245*
X97034*
X97716Y631933*
X98170Y631308*
X98397Y630370*
X98170Y629745*
X97943Y628808*
X97488Y628183*
X96806Y627870*
X96125*
X95443Y628183*
X95216Y628495*
X94988Y629120*
X183543Y628033D02*
Y623033D01*
X183316Y622095*
X183088Y621783*
X182634Y621470*
X182179*
X181725Y621783*
X181497Y622095*
X181270Y623033*
Y623658*
X185816Y626470D02*
Y626783D01*
X186043Y627408*
X186270Y627720*
X186725Y628033*
X187634*
X188088Y627720*
X188316Y627408*
X188543Y626783*
Y626158*
X188316Y625533*
X187861Y624595*
X185588Y621470*
X188770*
X237643Y635533D02*
Y630533D01*
X237416Y629595*
X237188Y629283*
X236734Y628970*
X236279*
X235825Y629283*
X235597Y629595*
X235370Y630533*
Y631158*
X239688Y634283D02*
X240143Y634595D01*
X240825Y635533*
Y628970*
X269343Y634233D02*
Y629233D01*
X269116Y628295*
X268888Y627983*
X268434Y627670*
X267979*
X267525Y627983*
X267297Y628295*
X267070Y629233*
Y629858*
X274116Y633295D02*
X273888Y633920D01*
X273206Y634233*
X272752*
X272070Y633920*
X271616Y632983*
X271388Y631420*
Y629858*
X271616Y628608*
X272070Y627983*
X272752Y627670*
X272979*
X273661Y627983*
X274116Y628608*
X274343Y629545*
Y629858*
X274116Y630795*
X273661Y631420*
X272979Y631733*
X272752*
X272070Y631420*
X271616Y630795*
X271388Y629858*
X80933Y149097D02*
X75933D01*
X74995Y149325*
X74683Y149552*
X74370Y150006*
Y150461*
X74683Y150916*
X74995Y151143*
X75933Y151370*
X76558*
X80933Y144779D02*
X76558Y147052D01*
Y143643*
X80933Y144779D02*
X74370D01*
X707608Y101543D02*
X712608D01*
X713545Y101316*
X713858Y101088*
X714170Y100634*
Y100179*
X713858Y99725*
X713545Y99497*
X712608Y99270*
X711983*
X707608Y106770D02*
X714170Y104497D01*
X707608Y103588D02*
Y106770D01*
X186543Y266633D02*
Y261633D01*
X186316Y260695*
X186088Y260383*
X185634Y260070*
X185179*
X184725Y260383*
X184497Y260695*
X184270Y261633*
Y262258*
X189725Y266633D02*
X189043Y266320D01*
X188816Y265695*
Y265070*
X189043Y264445*
X189497Y264133*
X190406Y263820*
X191088Y263508*
X191543Y262883*
X191770Y262258*
Y261320*
X191543Y260695*
X191316Y260383*
X190634Y260070*
X189725*
X189043Y260383*
X188816Y260695*
X188588Y261320*
Y262258*
X188816Y262883*
X189270Y263508*
X189952Y263820*
X190861Y264133*
X191316Y264445*
X191543Y265070*
Y265695*
X191316Y266320*
X190634Y266633*
X189725*
X108643Y264933D02*
Y259933D01*
X108416Y258995*
X108188Y258683*
X107734Y258370*
X107279*
X106825Y258683*
X106597Y258995*
X106370Y259933*
Y260558*
X111143Y264933D02*
X113643D01*
X112279Y262433*
X112961*
X113416Y262120*
X113643Y261808*
X113870Y260870*
Y260245*
X113643Y259308*
X113188Y258683*
X112506Y258370*
X111825*
X111143Y258683*
X110916Y258995*
X110688Y259620*
X157508Y268370D02*
X164070D01*
X157508D02*
Y270416D01*
X157820Y271097*
X158133Y271325*
X158758Y271552*
X159383*
X160008Y271325*
X160320Y271097*
X160633Y270416*
Y268370*
Y269961D02*
X164070Y271552D01*
X159070Y273825D02*
X158758D01*
X158133Y274052*
X157820Y274279*
X157508Y274734*
Y275643*
X157820Y276097*
X158133Y276325*
X158758Y276552*
X159383*
X160008Y276325*
X160945Y275870*
X164070Y273597*
Y276779*
X159695Y281779D02*
X160633Y281552D01*
X161258Y281097*
X161570Y280416*
Y280188*
X161258Y279506*
X160633Y279052*
X159695Y278825*
X159383*
X158445Y279052*
X157820Y279506*
X157508Y280188*
Y280416*
X157820Y281097*
X158445Y281552*
X159695Y281779*
X161258*
X162820Y281552*
X163758Y281097*
X164070Y280416*
Y279961*
X163758Y279279*
X163133Y279052*
X146608Y268670D02*
X153170D01*
X146608D02*
Y270716D01*
X146920Y271397*
X147233Y271625*
X147858Y271852*
X148483*
X149108Y271625*
X149420Y271397*
X149733Y270716*
Y268670*
Y270261D02*
X153170Y271852D01*
X148170Y274125D02*
X147858D01*
X147233Y274352*
X146920Y274579*
X146608Y275034*
Y275943*
X146920Y276397*
X147233Y276625*
X147858Y276852*
X148483*
X149108Y276625*
X150045Y276170*
X153170Y273897*
Y277079*
X147545Y281852D02*
X146920Y281625D01*
X146608Y280943*
Y280488*
X146920Y279806*
X147858Y279352*
X149420Y279125*
X150983*
X152233Y279352*
X152858Y279806*
X153170Y280488*
Y280716*
X152858Y281397*
X152233Y281852*
X151295Y282079*
X150983*
X150045Y281852*
X149420Y281397*
X149108Y280716*
Y280488*
X149420Y279806*
X150045Y279352*
X150983Y279125*
X115608Y268770D02*
X122170D01*
X115608D02*
Y270816D01*
X115920Y271497*
X116233Y271725*
X116858Y271952*
X117483*
X118108Y271725*
X118420Y271497*
X118733Y270816*
Y268770*
Y270361D02*
X122170Y271952D01*
X117170Y274225D02*
X116858D01*
X116233Y274452*
X115920Y274679*
X115608Y275134*
Y276043*
X115920Y276497*
X116233Y276725*
X116858Y276952*
X117483*
X118108Y276725*
X119045Y276270*
X122170Y273997*
Y277179*
X115608Y280361D02*
X115920Y279679D01*
X116545Y279452*
X117170*
X117795Y279679*
X118108Y280134*
X118420Y281043*
X118733Y281725*
X119358Y282179*
X119983Y282406*
X120920*
X121545Y282179*
X121858Y281952*
X122170Y281270*
Y280361*
X121858Y279679*
X121545Y279452*
X120920Y279225*
X119983*
X119358Y279452*
X118733Y279906*
X118420Y280588*
X118108Y281497*
X117795Y281952*
X117170Y282179*
X116545*
X115920Y281952*
X115608Y281270*
Y280361*
X104208Y268570D02*
X110770D01*
X104208D02*
Y270616D01*
X104520Y271297*
X104833Y271525*
X105458Y271752*
X106083*
X106708Y271525*
X107020Y271297*
X107333Y270616*
Y268570*
Y270161D02*
X110770Y271752D01*
X105770Y274025D02*
X105458D01*
X104833Y274252*
X104520Y274479*
X104208Y274934*
Y275843*
X104520Y276297*
X104833Y276525*
X105458Y276752*
X106083*
X106708Y276525*
X107645Y276070*
X110770Y273797*
Y276979*
X104208Y281979D02*
Y279706D01*
X107020Y279479*
X106708Y279706*
X106395Y280388*
Y281070*
X106708Y281752*
X107333Y282206*
X108270Y282434*
X108895Y282206*
X109833Y281979*
X110458Y281525*
X110770Y280843*
Y280161*
X110458Y279479*
X110145Y279252*
X109520Y279025*
X78308Y269370D02*
X84870D01*
X78308D02*
Y271416D01*
X78620Y272097*
X78933Y272325*
X79558Y272552*
X80183*
X80808Y272325*
X81120Y272097*
X81433Y271416*
Y269370*
Y270961D02*
X84870Y272552D01*
X79870Y274825D02*
X79558D01*
X78933Y275052*
X78620Y275279*
X78308Y275734*
Y276643*
X78620Y277097*
X78933Y277325*
X79558Y277552*
X80183*
X80808Y277325*
X81745Y276870*
X84870Y274597*
Y277779*
X78308Y283006D02*
X84870Y280734D01*
X78308Y279825D02*
Y283006D01*
X66208Y268270D02*
X72770D01*
X66208D02*
Y270316D01*
X66520Y270997*
X66833Y271225*
X67458Y271452*
X68083*
X68708Y271225*
X69020Y270997*
X69333Y270316*
Y268270*
Y269861D02*
X72770Y271452D01*
X67770Y273725D02*
X67458D01*
X66833Y273952*
X66520Y274179*
X66208Y274634*
Y275543*
X66520Y275997*
X66833Y276225*
X67458Y276452*
X68083*
X68708Y276225*
X69645Y275770*
X72770Y273497*
Y276679*
X66208Y280997D02*
X70583Y278725D01*
Y282134*
X66208Y280997D02*
X72770D01*
X302370Y627308D02*
X303461Y623370D01*
X304552Y627308D02*
X303461Y623370D01*
X305779Y627308D02*
Y623370D01*
Y627308D02*
X307006D01*
X307416Y627120*
X307552Y626933*
X307688Y626558*
Y626183*
X307552Y625808*
X307416Y625620*
X307006Y625433*
X305779*
X306734D02*
X307688Y623370D01*
X310279Y627308D02*
X308916Y624683D01*
X310961*
X310279Y627308D02*
Y623370D01*
X324370Y627308D02*
X325461Y623370D01*
X326552Y627308D02*
X325461Y623370D01*
X327779Y627308D02*
Y623370D01*
Y627308D02*
X329006D01*
X329416Y627120*
X329552Y626933*
X329688Y626558*
Y626183*
X329552Y625808*
X329416Y625620*
X329006Y625433*
X327779*
X328734D02*
X329688Y623370D01*
X332688Y627308D02*
X331325D01*
X331188Y625620*
X331325Y625808*
X331734Y625995*
X332143*
X332552Y625808*
X332825Y625433*
X332961Y624870*
X332825Y624495*
X332688Y623933*
X332416Y623558*
X332006Y623370*
X331597*
X331188Y623558*
X331052Y623745*
X330916Y624120*
X346370Y627308D02*
X347461Y623370D01*
X348552Y627308D02*
X347461Y623370D01*
X349779Y627308D02*
Y623370D01*
Y627308D02*
X351006D01*
X351416Y627120*
X351552Y626933*
X351688Y626558*
Y626183*
X351552Y625808*
X351416Y625620*
X351006Y625433*
X349779*
X350734D02*
X351688Y623370D01*
X354552Y626745D02*
X354416Y627120D01*
X354006Y627308*
X353734*
X353325Y627120*
X353052Y626558*
X352916Y625620*
Y624683*
X353052Y623933*
X353325Y623558*
X353734Y623370*
X353870*
X354279Y623558*
X354552Y623933*
X354688Y624495*
Y624683*
X354552Y625245*
X354279Y625620*
X353870Y625808*
X353734*
X353325Y625620*
X353052Y625245*
X352916Y624683*
X364370Y627308D02*
X365461Y623370D01*
X366552Y627308D02*
X365461Y623370D01*
X367779Y627308D02*
Y623370D01*
Y627308D02*
X369006D01*
X369416Y627120*
X369552Y626933*
X369688Y626558*
Y626183*
X369552Y625808*
X369416Y625620*
X369006Y625433*
X367779*
X368734D02*
X369688Y623370D01*
X370916Y626558D02*
X371188Y626745D01*
X371597Y627308*
Y623370*
X382370Y627308D02*
X383461Y623370D01*
X384552Y627308D02*
X383461Y623370D01*
X385779Y627308D02*
Y623370D01*
Y627308D02*
X387006D01*
X387416Y627120*
X387552Y626933*
X387688Y626558*
Y626183*
X387552Y625808*
X387416Y625620*
X387006Y625433*
X385779*
X386734D02*
X387688Y623370D01*
X389052Y626370D02*
Y626558D01*
X389188Y626933*
X389325Y627120*
X389597Y627308*
X390143*
X390416Y627120*
X390552Y626933*
X390688Y626558*
Y626183*
X390552Y625808*
X390279Y625245*
X388916Y623370*
X390825*
X427433Y643370D02*
X431370Y644461D01*
X427433Y645552D02*
X431370Y644461D01*
X427433Y646779D02*
X431370D01*
X427433D02*
Y648006D01*
X427620Y648416*
X427808Y648552*
X428183Y648688*
X428558*
X428933Y648552*
X429120Y648416*
X429308Y648006*
Y646779*
Y647734D02*
X431370Y648688D01*
X427433Y650188D02*
Y651688D01*
X428933Y650870*
Y651279*
X429120Y651552*
X429308Y651688*
X429870Y651825*
X430245*
X430808Y651688*
X431183Y651416*
X431370Y651006*
Y650597*
X431183Y650188*
X430995Y650052*
X430620Y649916*
X341533Y489370D02*
X336845D01*
X335908Y489143*
X335283Y488688*
X334970Y488006*
Y487552*
X335283Y486870*
X335908Y486416*
X336845Y486188*
X341533*
Y481870D02*
X337158Y484143D01*
Y480734*
X341533Y481870D02*
X334970D01*
X213170Y455433D02*
Y450745D01*
X213397Y449808*
X213852Y449183*
X214534Y448870*
X214988*
X215670Y449183*
X216125Y449808*
X216352Y450745*
Y455433*
X218397Y454183D02*
X218852Y454495D01*
X219534Y455433*
Y448870*
X355733Y564670D02*
X351045D01*
X350108Y564443*
X349483Y563988*
X349170Y563306*
Y562852*
X349483Y562170*
X350108Y561716*
X351045Y561488*
X355733*
Y556488D02*
Y558761D01*
X352920Y558988*
X353233Y558761*
X353545Y558079*
Y557397*
X353233Y556716*
X352608Y556261*
X351670Y556034*
X351045Y556261*
X350108Y556488*
X349483Y556943*
X349170Y557625*
Y558306*
X349483Y558988*
X349795Y559216*
X350420Y559443*
X220708Y595170D02*
X225395D01*
X226333Y595397*
X226958Y595852*
X227270Y596534*
Y596988*
X226958Y597670*
X226333Y598125*
X225395Y598352*
X220708*
X222895Y603352D02*
X223833Y603125D01*
X224458Y602670*
X224770Y601988*
Y601761*
X224458Y601079*
X223833Y600625*
X222895Y600397*
X222583*
X221645Y600625*
X221020Y601079*
X220708Y601761*
Y601988*
X221020Y602670*
X221645Y603125*
X222895Y603352*
X224458*
X226020Y603125*
X226958Y602670*
X227270Y601988*
Y601534*
X226958Y600852*
X226333Y600625*
X128479Y430870D02*
X128252Y431495D01*
X127797Y432120*
X127343Y432433*
X126434*
X125979Y432120*
X125525Y431495*
X125297Y430870*
X125070Y429933*
Y428370*
X125297Y427433*
X125525Y426808*
X125979Y426183*
X126434Y425870*
X127343*
X127797Y426183*
X128252Y426808*
X128479Y427433*
X130979Y432433D02*
X133479D01*
X132116Y429933*
X132797*
X133252Y429620*
X133479Y429308*
X133706Y428370*
Y427745*
X133479Y426808*
X133025Y426183*
X132343Y425870*
X131661*
X130979Y426183*
X130752Y426495*
X130525Y427120*
X135979Y430870D02*
Y431183D01*
X136206Y431808*
X136434Y432120*
X136888Y432433*
X137797*
X138252Y432120*
X138479Y431808*
X138706Y431183*
Y430558*
X138479Y429933*
X138025Y428995*
X135752Y425870*
X138934*
X250279Y449570D02*
X250052Y450195D01*
X249597Y450820*
X249143Y451133*
X248234*
X247779Y450820*
X247325Y450195*
X247097Y449570*
X246870Y448633*
Y447070*
X247097Y446133*
X247325Y445508*
X247779Y444883*
X248234Y444570*
X249143*
X249597Y444883*
X250052Y445508*
X250279Y446133*
X252779Y451133D02*
X255279D01*
X253916Y448633*
X254597*
X255052Y448320*
X255279Y448008*
X255506Y447070*
Y446445*
X255279Y445508*
X254825Y444883*
X254143Y444570*
X253461*
X252779Y444883*
X252552Y445195*
X252325Y445820*
X258006Y451133D02*
X260506D01*
X259143Y448633*
X259825*
X260279Y448320*
X260506Y448008*
X260734Y447070*
Y446445*
X260506Y445508*
X260052Y444883*
X259370Y444570*
X258688*
X258006Y444883*
X257779Y445195*
X257552Y445820*
X264470Y395179D02*
X263845Y394952D01*
X263220Y394497*
X262908Y394043*
Y393134*
X263220Y392679*
X263845Y392225*
X264470Y391997*
X265408Y391770*
X266970*
X267908Y391997*
X268533Y392225*
X269158Y392679*
X269470Y393134*
Y394043*
X269158Y394497*
X268533Y394952*
X267908Y395179*
X262908Y397679D02*
Y400179D01*
X265408Y398816*
Y399497*
X265720Y399952*
X266033Y400179*
X266970Y400406*
X267595*
X268533Y400179*
X269158Y399725*
X269470Y399043*
Y398361*
X269158Y397679*
X268845Y397452*
X268220Y397225*
X262908Y404725D02*
X267283Y402452D01*
Y405861*
X262908Y404725D02*
X269470D01*
X215770Y549679D02*
X215145Y549452D01*
X214520Y548997*
X214208Y548543*
Y547634*
X214520Y547179*
X215145Y546725*
X215770Y546497*
X216708Y546270*
X218270*
X219208Y546497*
X219833Y546725*
X220458Y547179*
X220770Y547634*
Y548543*
X220458Y548997*
X219833Y549452*
X219208Y549679*
X214208Y552179D02*
Y554679D01*
X216708Y553316*
Y553997*
X217020Y554452*
X217333Y554679*
X218270Y554906*
X218895*
X219833Y554679*
X220458Y554225*
X220770Y553543*
Y552861*
X220458Y552179*
X220145Y551952*
X219520Y551725*
X214208Y559906D02*
Y557634D01*
X217020Y557406*
X216708Y557634*
X216395Y558316*
Y558997*
X216708Y559679*
X217333Y560134*
X218270Y560361*
X218895Y560134*
X219833Y559906*
X220458Y559452*
X220770Y558770*
Y558088*
X220458Y557406*
X220145Y557179*
X219520Y556952*
X230779Y609270D02*
X230552Y609895D01*
X230097Y610520*
X229643Y610833*
X228734*
X228279Y610520*
X227825Y609895*
X227597Y609270*
X227370Y608333*
Y606770*
X227597Y605833*
X227825Y605208*
X228279Y604583*
X228734Y604270*
X229643*
X230097Y604583*
X230552Y605208*
X230779Y605833*
X233279Y610833D02*
X235779D01*
X234416Y608333*
X235097*
X235552Y608020*
X235779Y607708*
X236006Y606770*
Y606145*
X235779Y605208*
X235325Y604583*
X234643Y604270*
X233961*
X233279Y604583*
X233052Y604895*
X232825Y605520*
X240779Y609895D02*
X240552Y610520D01*
X239870Y610833*
X239416*
X238734Y610520*
X238279Y609583*
X238052Y608020*
Y606458*
X238279Y605208*
X238734Y604583*
X239416Y604270*
X239643*
X240325Y604583*
X240779Y605208*
X241006Y606145*
Y606458*
X240779Y607395*
X240325Y608020*
X239643Y608333*
X239416*
X238734Y608020*
X238279Y607395*
X238052Y606458*
X207670Y618279D02*
X207045Y618052D01*
X206420Y617597*
X206108Y617143*
Y616234*
X206420Y615779*
X207045Y615325*
X207670Y615097*
X208608Y614870*
X210170*
X211108Y615097*
X211733Y615325*
X212358Y615779*
X212670Y616234*
Y617143*
X212358Y617597*
X211733Y618052*
X211108Y618279*
X206108Y620779D02*
Y623279D01*
X208608Y621916*
Y622597*
X208920Y623052*
X209233Y623279*
X210170Y623506*
X210795*
X211733Y623279*
X212358Y622825*
X212670Y622143*
Y621461*
X212358Y620779*
X212045Y620552*
X211420Y620325*
X206108Y628734D02*
X212670Y626461D01*
X206108Y625552D02*
Y628734D01*
X218570Y567879D02*
X217945Y567652D01*
X217320Y567197*
X217008Y566743*
Y565834*
X217320Y565379*
X217945Y564925*
X218570Y564697*
X219508Y564470*
X221070*
X222008Y564697*
X222633Y564925*
X223258Y565379*
X223570Y565834*
Y566743*
X223258Y567197*
X222633Y567652*
X222008Y567879*
X217008Y570379D02*
Y572879D01*
X219508Y571516*
Y572197*
X219820Y572652*
X220133Y572879*
X221070Y573106*
X221695*
X222633Y572879*
X223258Y572425*
X223570Y571743*
Y571061*
X223258Y570379*
X222945Y570152*
X222320Y569925*
X217008Y576288D02*
X217320Y575606D01*
X217945Y575379*
X218570*
X219195Y575606*
X219508Y576061*
X219820Y576970*
X220133Y577652*
X220758Y578106*
X221383Y578334*
X222320*
X222945Y578106*
X223258Y577879*
X223570Y577197*
Y576288*
X223258Y575606*
X222945Y575379*
X222320Y575152*
X221383*
X220758Y575379*
X220133Y575834*
X219820Y576516*
X219508Y577425*
X219195Y577879*
X218570Y578106*
X217945*
X217320Y577879*
X217008Y577197*
Y576288*
X114870Y416433D02*
Y411745D01*
X115097Y410808*
X115552Y410183*
X116234Y409870*
X116688*
X117370Y410183*
X117825Y410808*
X118052Y411745*
Y416433*
X122825Y415495D02*
X122597Y416120D01*
X121916Y416433*
X121461*
X120779Y416120*
X120325Y415183*
X120097Y413620*
Y412058*
X120325Y410808*
X120779Y410183*
X121461Y409870*
X121688*
X122370Y410183*
X122825Y410808*
X123052Y411745*
Y412058*
X122825Y412995*
X122370Y413620*
X121688Y413933*
X121461*
X120779Y413620*
X120325Y412995*
X120097Y412058*
X84208Y377970D02*
X90770D01*
X84208D02*
Y380016D01*
X84520Y380697*
X84833Y380925*
X85458Y381152*
X86083*
X86708Y380925*
X87020Y380697*
X87333Y380016*
Y377970*
Y379561D02*
X90770Y381152D01*
X84208Y385470D02*
X88583Y383197D01*
Y386606*
X84208Y385470D02*
X90770D01*
X85770Y388879D02*
X85458D01*
X84833Y389106*
X84520Y389334*
X84208Y389788*
Y390697*
X84520Y391152*
X84833Y391379*
X85458Y391606*
X86083*
X86708Y391379*
X87645Y390925*
X90770Y388652*
Y391834*
X84708Y393670D02*
X91270D01*
X84708D02*
Y395716D01*
X85020Y396397*
X85333Y396625*
X85958Y396852*
X86583*
X87208Y396625*
X87520Y396397*
X87833Y395716*
Y393670*
Y395261D02*
X91270Y396852D01*
X84708Y401170D02*
X89083Y398897D01*
Y402306*
X84708Y401170D02*
X91270D01*
X84708Y404806D02*
Y407306D01*
X87208Y405943*
Y406625*
X87520Y407079*
X87833Y407306*
X88770Y407534*
X89395*
X90333Y407306*
X90958Y406852*
X91270Y406170*
Y405488*
X90958Y404806*
X90645Y404579*
X90020Y404352*
X84908Y409670D02*
X91470D01*
X84908D02*
Y411716D01*
X85220Y412397*
X85533Y412625*
X86158Y412852*
X86783*
X87408Y412625*
X87720Y412397*
X88033Y411716*
Y409670*
Y411261D02*
X91470Y412852D01*
X84908Y417170D02*
X89283Y414897D01*
Y418306*
X84908Y417170D02*
X91470D01*
X84908Y422625D02*
X89283Y420352D01*
Y423761*
X84908Y422625D02*
X91470D01*
X173008Y393570D02*
X179570D01*
X173008D02*
Y395616D01*
X173320Y396297*
X173633Y396525*
X174258Y396752*
X174883*
X175508Y396525*
X175820Y396297*
X176133Y395616*
Y393570*
Y395161D02*
X179570Y396752D01*
X173008Y401070D02*
X177383Y398797D01*
Y402206*
X173008Y401070D02*
X179570D01*
X173008Y407206D02*
Y404934D01*
X175820Y404706*
X175508Y404934*
X175195Y405616*
Y406297*
X175508Y406979*
X176133Y407434*
X177070Y407661*
X177695Y407434*
X178633Y407206*
X179258Y406752*
X179570Y406070*
Y405388*
X179258Y404706*
X178945Y404479*
X178320Y404252*
X172708Y378270D02*
X179270D01*
X172708D02*
Y380316D01*
X173020Y380997*
X173333Y381225*
X173958Y381452*
X174583*
X175208Y381225*
X175520Y380997*
X175833Y380316*
Y378270*
Y379861D02*
X179270Y381452D01*
X172708Y385770D02*
X177083Y383497D01*
Y386906*
X172708Y385770D02*
X179270D01*
X173645Y391679D02*
X173020Y391452D01*
X172708Y390770*
Y390316*
X173020Y389634*
X173958Y389179*
X175520Y388952*
X177083*
X178333Y389179*
X178958Y389634*
X179270Y390316*
Y390543*
X178958Y391225*
X178333Y391679*
X177395Y391906*
X177083*
X176145Y391679*
X175520Y391225*
X175208Y390543*
Y390316*
X175520Y389634*
X176145Y389179*
X177083Y388952*
X173008Y408970D02*
X179570D01*
X173008D02*
Y411016D01*
X173320Y411697*
X173633Y411925*
X174258Y412152*
X174883*
X175508Y411925*
X175820Y411697*
X176133Y411016*
Y408970*
Y410561D02*
X179570Y412152D01*
X173008Y416470D02*
X177383Y414197D01*
Y417606*
X173008Y416470D02*
X179570D01*
X173008Y422834D02*
X179570Y420561D01*
X173008Y419652D02*
Y422834D01*
X236270Y397833D02*
Y393145D01*
X236497Y392208*
X236952Y391583*
X237634Y391270*
X238088*
X238770Y391583*
X239225Y392208*
X239452Y393145*
Y397833*
X242634D02*
X241952Y397520D01*
X241725Y396895*
Y396270*
X241952Y395645*
X242406Y395333*
X243316Y395020*
X243997Y394708*
X244452Y394083*
X244679Y393458*
Y392520*
X244452Y391895*
X244225Y391583*
X243543Y391270*
X242634*
X241952Y391583*
X241725Y391895*
X241497Y392520*
Y393458*
X241725Y394083*
X242179Y394708*
X242861Y395020*
X243770Y395333*
X244225Y395645*
X244452Y396270*
Y396895*
X244225Y397520*
X243543Y397833*
X242634*
X236870Y439733D02*
Y435045D01*
X237097Y434108*
X237552Y433483*
X238234Y433170*
X238688*
X239370Y433483*
X239825Y434108*
X240052Y435045*
Y439733*
X245279D02*
X243006Y433170D01*
X242097Y439733D02*
X245279D01*
X675808Y331434D02*
X676120Y330979D01*
X676745Y330525*
X677370Y330297*
X678308Y330070*
X679870*
X680808Y330297*
X681433Y330525*
X682058Y330979*
X682370Y331434*
Y332343*
X682058Y332797*
X681433Y333252*
X680808Y333479*
X679870Y333706*
X678308*
X677370Y333479*
X676745Y333252*
X676120Y332797*
X675808Y332343*
Y331434*
X681120Y332116D02*
X682995Y333479D01*
X677058Y335752D02*
X676745Y336206D01*
X675808Y336888*
X682370*
X354334Y300233D02*
X353879Y299920D01*
X353425Y299295*
X353197Y298670*
X352970Y297733*
Y296170*
X353197Y295233*
X353425Y294608*
X353879Y293983*
X354334Y293670*
X355243*
X355697Y293983*
X356152Y294608*
X356379Y295233*
X356606Y296170*
Y297733*
X356379Y298670*
X356152Y299295*
X355697Y299920*
X355243Y300233*
X354334*
X355016Y294920D02*
X356379Y293045D01*
X358879Y298670D02*
Y298983D01*
X359106Y299608*
X359334Y299920*
X359788Y300233*
X360697*
X361152Y299920*
X361379Y299608*
X361606Y298983*
Y298358*
X361379Y297733*
X360925Y296795*
X358652Y293670*
X361834*
X105179Y443570D02*
X104952Y444195D01*
X104497Y444820*
X104043Y445133*
X103134*
X102679Y444820*
X102225Y444195*
X101997Y443570*
X101770Y442633*
Y441070*
X101997Y440133*
X102225Y439508*
X102679Y438883*
X103134Y438570*
X104043*
X104497Y438883*
X104952Y439508*
X105179Y440133*
Y441070*
X104043D02*
X105179D01*
X107225Y445133D02*
Y438570D01*
Y445133D02*
X110406Y438570D01*
Y445133D02*
Y438570D01*
X112452Y445133D02*
Y438570D01*
Y445133D02*
X114043D01*
X114725Y444820*
X115179Y444195*
X115406Y443570*
X115634Y442633*
Y441070*
X115406Y440133*
X115179Y439508*
X114725Y438883*
X114043Y438570*
X112452*
X117679Y443883D02*
X118134Y444195D01*
X118816Y445133*
Y438570*
X285079Y482970D02*
X284852Y483595D01*
X284397Y484220*
X283943Y484533*
X283034*
X282579Y484220*
X282125Y483595*
X281897Y482970*
X281670Y482033*
Y480470*
X281897Y479533*
X282125Y478908*
X282579Y478283*
X283034Y477970*
X283943*
X284397Y478283*
X284852Y478908*
X285079Y479533*
Y480470*
X283943D02*
X285079D01*
X287125Y484533D02*
Y477970D01*
Y484533D02*
X290306Y477970D01*
Y484533D02*
Y477970D01*
X292352Y484533D02*
Y477970D01*
Y484533D02*
X293943D01*
X294625Y484220*
X295079Y483595*
X295306Y482970*
X295534Y482033*
Y480470*
X295306Y479533*
X295079Y478908*
X294625Y478283*
X293943Y477970*
X292352*
X297806Y482970D02*
Y483283D01*
X298034Y483908*
X298261Y484220*
X298716Y484533*
X299625*
X300079Y484220*
X300306Y483908*
X300534Y483283*
Y482658*
X300306Y482033*
X299852Y481095*
X297579Y477970*
X300761*
X273270Y512533D02*
Y505970D01*
Y512533D02*
X275316D01*
X275997Y512220*
X276225Y511908*
X276452Y511283*
Y510658*
X276225Y510033*
X275997Y509720*
X275316Y509408*
X273270D02*
X275316D01*
X275997Y509095*
X276225Y508783*
X276452Y508158*
Y507220*
X276225Y506595*
X275997Y506283*
X275316Y505970*
X273270*
X280088Y512533D02*
Y505970D01*
X278497Y512533D02*
X281679D01*
X283725Y511283D02*
X284179Y511595D01*
X284861Y512533*
Y505970*
X282370Y618734D02*
X282120Y618643D01*
X281870Y618461*
X281745Y618279*
Y617916*
X281870Y617734*
X282120Y617552*
X282370Y617461*
X282745Y617370*
X283370*
X283745Y617461*
X283995Y617552*
X284245Y617734*
X284370Y617916*
Y618279*
X284245Y618461*
X283995Y618643*
X283745Y618734*
X281745Y620279D02*
X284370Y619552D01*
X281745Y620279D02*
X284370Y621006D01*
X283495Y619825D02*
Y620734D01*
X281745Y621825D02*
X284370D01*
X281745D02*
X284370Y623097D01*
X281745D02*
X284370D01*
X284870Y623916D02*
Y625825D01*
X281745Y626370D02*
X284370D01*
X281745Y627643D02*
X284370D01*
X282995Y626370D02*
Y627643D01*
X268370Y618734D02*
X268120Y618643D01*
X267870Y618461*
X267745Y618279*
Y617916*
X267870Y617734*
X268120Y617552*
X268370Y617461*
X268745Y617370*
X269370*
X269745Y617461*
X269995Y617552*
X270245Y617734*
X270370Y617916*
Y618279*
X270245Y618461*
X269995Y618643*
X269745Y618734*
X267745Y620279D02*
X270370Y619552D01*
X267745Y620279D02*
X270370Y621006D01*
X269495Y619825D02*
Y620734D01*
X267745Y621825D02*
X270370D01*
X267745D02*
X270370Y623097D01*
X267745D02*
X270370D01*
X270870Y623916D02*
Y625825D01*
X267745Y626370D02*
X270370D01*
Y627461*
X103795Y619197D02*
X107170D01*
X105483Y617970D02*
Y620425D01*
X103233Y623425D02*
Y622061D01*
X104920Y621925*
X104733Y622061*
X104545Y622470*
Y622879*
X104733Y623288*
X105108Y623561*
X105670Y623697*
X106045Y623561*
X106608Y623425*
X106983Y623152*
X107170Y622743*
Y622334*
X106983Y621925*
X106795Y621788*
X106420Y621652*
X103233Y624925D02*
X107170Y626016D01*
X103233Y627106D02*
X107170Y626016D01*
X89870Y620616D02*
X89495Y620479D01*
X89120Y620206*
X88933Y619934*
Y619388*
X89120Y619116*
X89495Y618843*
X89870Y618706*
X90433Y618570*
X91370*
X91933Y618706*
X92308Y618843*
X92683Y619116*
X92870Y619388*
Y619934*
X92683Y620206*
X92308Y620479*
X91933Y620616*
X91370*
Y619934D02*
Y620616D01*
X88933Y621843D02*
X92870D01*
X88933D02*
X92870Y623752D01*
X88933D02*
X92870D01*
X88933Y624979D02*
X92870D01*
X88933D02*
Y625934D01*
X89120Y626343*
X89495Y626616*
X89870Y626752*
X90433Y626888*
X91370*
X91933Y626752*
X92308Y626616*
X92683Y626343*
X92870Y625934*
Y624979*
X129370Y260734D02*
X129120Y260643D01*
X128870Y260461*
X128745Y260279*
Y259916*
X128870Y259734*
X129120Y259552*
X129370Y259461*
X129745Y259370*
X130370*
X130745Y259461*
X130995Y259552*
X131245Y259734*
X131370Y259916*
Y260279*
X131245Y260461*
X130995Y260643*
X130745Y260734*
X130370*
Y260279D02*
Y260734D01*
X128745Y261552D02*
X131370D01*
X128745D02*
X131370Y262825D01*
X128745D02*
X131370D01*
X128745Y263643D02*
X131370D01*
X128745D02*
Y264279D01*
X128870Y264552*
X129120Y264734*
X129370Y264825*
X129745Y264916*
X130370*
X130745Y264825*
X130995Y264734*
X131245Y264552*
X131370Y264279*
Y263643*
X80995Y180370D02*
X78370Y179643D01*
X80995Y178916D02*
X78370Y179643D01*
X80995Y177370D02*
X78370Y178097D01*
X80995Y177370D02*
X78370Y176643D01*
X79245Y177825D02*
Y176916D01*
X80370Y174461D02*
X80620Y174552D01*
X80870Y174734*
X80995Y174916*
Y175279*
X80870Y175461*
X80620Y175643*
X80370Y175734*
X79995Y175825*
X79370*
X78995Y175734*
X78745Y175643*
X78495Y175461*
X78370Y175279*
Y174916*
X78495Y174734*
X78745Y174552*
X78995Y174461*
X77870Y173643D02*
Y171734D01*
X80995Y171188D02*
X78370D01*
X80995D02*
Y170370D01*
X80870Y170097*
X80745Y170006*
X80495Y169916*
X80245*
X79995Y170006*
X79870Y170097*
X79745Y170370*
Y171188*
Y170552D02*
X78370Y169916D01*
X81995Y136370D02*
X79370Y135643D01*
X81995Y134916D02*
X79370Y135643D01*
X81995Y133370D02*
X79370Y134097D01*
X81995Y133370D02*
X79370Y132643D01*
X80245Y133825D02*
Y132916D01*
X81370Y130461D02*
X81620Y130552D01*
X81870Y130734*
X81995Y130916*
Y131279*
X81870Y131461*
X81620Y131643*
X81370Y131734*
X80995Y131825*
X80370*
X79995Y131734*
X79745Y131643*
X79495Y131461*
X79370Y131279*
Y130916*
X79495Y130734*
X79745Y130552*
X79995Y130461*
X78870Y129643D02*
Y127734D01*
X81620Y125916D02*
X81870Y126097D01*
X81995Y126370*
Y126734*
X81870Y127006*
X81620Y127188*
X81370*
X81120Y127097*
X80995Y127006*
X80870Y126825*
X80620Y126279*
X80495Y126097*
X80370Y126006*
X80120Y125916*
X79745*
X79495Y126097*
X79370Y126370*
Y126734*
X79495Y127006*
X79745Y127188*
X80995Y94370D02*
X78370Y93643D01*
X80995Y92916D02*
X78370Y93643D01*
X80995Y91370D02*
X78370Y92097D01*
X80995Y91370D02*
X78370Y90643D01*
X79245Y91825D02*
Y90916D01*
X80370Y88461D02*
X80620Y88552D01*
X80870Y88734*
X80995Y88916*
Y89279*
X80870Y89461*
X80620Y89643*
X80370Y89734*
X79995Y89825*
X79370*
X78995Y89734*
X78745Y89643*
X78495Y89461*
X78370Y89279*
Y88916*
X78495Y88734*
X78745Y88552*
X78995Y88461*
X77870Y87643D02*
Y85734D01*
X80995Y84552D02*
X78370D01*
X80995Y85188D02*
Y83916D01*
X77745Y259097D02*
X80370Y258370D01*
X77745Y259097D02*
X80370Y259825D01*
X79495Y258643D02*
Y259552D01*
X78370Y262006D02*
X78120Y261916D01*
X77870Y261734*
X77745Y261552*
Y261188*
X77870Y261006*
X78120Y260825*
X78370Y260734*
X78745Y260643*
X79370*
X79745Y260734*
X79995Y260825*
X80245Y261006*
X80370Y261188*
Y261552*
X80245Y261734*
X79995Y261916*
X79745Y262006*
X77745Y262825D02*
X80370D01*
X80870Y263643D02*
Y265552D01*
X77745Y266097D02*
X80370D01*
X77745D02*
Y266916D01*
X77870Y267188*
X77995Y267279*
X78245Y267370*
X78495*
X78745Y267279*
X78870Y267188*
X78995Y266916*
Y266097*
Y266734D02*
X80370Y267370D01*
X114745Y259097D02*
X117370Y258370D01*
X114745Y259097D02*
X117370Y259825D01*
X116495Y258643D02*
Y259552D01*
X115370Y262006D02*
X115120Y261916D01*
X114870Y261734*
X114745Y261552*
Y261188*
X114870Y261006*
X115120Y260825*
X115370Y260734*
X115745Y260643*
X116370*
X116745Y260734*
X116995Y260825*
X117245Y261006*
X117370Y261188*
Y261552*
X117245Y261734*
X116995Y261916*
X116745Y262006*
X114745Y262825D02*
X117370D01*
X117870Y263643D02*
Y265552D01*
X115120Y267370D02*
X114870Y267188D01*
X114745Y266916*
Y266552*
X114870Y266279*
X115120Y266097*
X115370*
X115620Y266188*
X115745Y266279*
X115870Y266461*
X116120Y267006*
X116245Y267188*
X116370Y267279*
X116620Y267370*
X116995*
X117245Y267188*
X117370Y266916*
Y266552*
X117245Y266279*
X116995Y266097*
X141745Y259097D02*
X144370Y258370D01*
X141745Y259097D02*
X144370Y259825D01*
X143495Y258643D02*
Y259552D01*
X142370Y262006D02*
X142120Y261916D01*
X141870Y261734*
X141745Y261552*
Y261188*
X141870Y261006*
X142120Y260825*
X142370Y260734*
X142745Y260643*
X143370*
X143745Y260734*
X143995Y260825*
X144245Y261006*
X144370Y261188*
Y261552*
X144245Y261734*
X143995Y261916*
X143745Y262006*
X141745Y262825D02*
X144370D01*
X144870Y263643D02*
Y265552D01*
X141745Y266734D02*
X144370D01*
X141745Y266097D02*
Y267370D01*
X710145Y141497D02*
X712770Y140770D01*
X710145Y141497D02*
X712770Y142225D01*
X711895Y141043D02*
Y141952D01*
X710770Y144406D02*
X710520Y144316D01*
X710270Y144134*
X710145Y143952*
Y143588*
X710270Y143406*
X710520Y143225*
X710770Y143134*
X711145Y143043*
X711770*
X712145Y143134*
X712395Y143225*
X712645Y143406*
X712770Y143588*
Y143952*
X712645Y144134*
X712395Y144316*
X712145Y144406*
X710145Y145225D02*
X712770Y145952D01*
X710145Y146679D02*
X712770Y145952D01*
X713270Y147497D02*
Y149406D01*
X710145Y149952D02*
X712770D01*
X710145D02*
Y150770D01*
X710270Y151043*
X710395Y151134*
X710645Y151225*
X710895*
X711145Y151134*
X711270Y151043*
X711395Y150770*
Y149952*
Y150588D02*
X712770Y151225D01*
X336079Y368045D02*
X335806Y368420D01*
X335397Y368608*
X334852*
X334443Y368420*
X334170Y368045*
Y367670*
X334306Y367295*
X334443Y367108*
X334716Y366920*
X335534Y366545*
X335806Y366358*
X335943Y366170*
X336079Y365795*
Y365233*
X335806Y364858*
X335397Y364670*
X334852*
X334443Y364858*
X334170Y365233*
X337306Y368608D02*
Y364670D01*
Y368608D02*
X338534D01*
X338943Y368420*
X339079Y368233*
X339216Y367858*
Y367295*
X339079Y366920*
X338943Y366733*
X338534Y366545*
X337306*
X340443Y367858D02*
X340716Y368045D01*
X341125Y368608*
Y364670*
X335079Y395545D02*
X334806Y395920D01*
X334397Y396108*
X333852*
X333443Y395920*
X333170Y395545*
Y395170*
X333306Y394795*
X333443Y394608*
X333716Y394420*
X334534Y394045*
X334806Y393858*
X334943Y393670*
X335079Y393295*
Y392733*
X334806Y392358*
X334397Y392170*
X333852*
X333443Y392358*
X333170Y392733*
X336306Y396108D02*
Y392170D01*
Y396108D02*
X337534D01*
X337943Y395920*
X338079Y395733*
X338216Y395358*
Y394795*
X338079Y394420*
X337943Y394233*
X337534Y394045*
X336306*
X339579Y395170D02*
Y395358D01*
X339716Y395733*
X339852Y395920*
X340125Y396108*
X340670*
X340943Y395920*
X341079Y395733*
X341216Y395358*
Y394983*
X341079Y394608*
X340806Y394045*
X339443Y392170*
X341352*
X156370Y260734D02*
X156120Y260643D01*
X155870Y260461*
X155745Y260279*
Y259916*
X155870Y259734*
X156120Y259552*
X156370Y259461*
X156745Y259370*
X157370*
X157745Y259461*
X157995Y259552*
X158245Y259734*
X158370Y259916*
Y260279*
X158245Y260461*
X157995Y260643*
X157745Y260734*
X157370*
Y260279D02*
Y260734D01*
X155745Y261552D02*
X158370D01*
X155745D02*
X158370Y262825D01*
X155745D02*
X158370D01*
X155745Y263643D02*
X158370D01*
X155745D02*
Y264279D01*
X155870Y264552*
X156120Y264734*
X156370Y264825*
X156745Y264916*
X157370*
X157745Y264825*
X157995Y264734*
X158245Y264552*
X158370Y264279*
Y263643*
X262370Y260734D02*
X262120Y260643D01*
X261870Y260461*
X261745Y260279*
Y259916*
X261870Y259734*
X262120Y259552*
X262370Y259461*
X262745Y259370*
X263370*
X263745Y259461*
X263995Y259552*
X264245Y259734*
X264370Y259916*
Y260279*
X264245Y260461*
X263995Y260643*
X263745Y260734*
X263370*
Y260279D02*
Y260734D01*
X261745Y261552D02*
X264370D01*
X261745D02*
X264370Y262825D01*
X261745D02*
X264370D01*
X261745Y263643D02*
X264370D01*
X261745D02*
Y264279D01*
X261870Y264552*
X262120Y264734*
X262370Y264825*
X262745Y264916*
X263370*
X263745Y264825*
X263995Y264734*
X264245Y264552*
X264370Y264279*
Y263643*
X101370Y260734D02*
X101120Y260643D01*
X100870Y260461*
X100745Y260279*
Y259916*
X100870Y259734*
X101120Y259552*
X101370Y259461*
X101745Y259370*
X102370*
X102745Y259461*
X102995Y259552*
X103245Y259734*
X103370Y259916*
Y260279*
X103245Y260461*
X102995Y260643*
X102745Y260734*
X102370*
Y260279D02*
Y260734D01*
X100745Y261552D02*
X103370D01*
X100745D02*
X103370Y262825D01*
X100745D02*
X103370D01*
X100745Y263643D02*
X103370D01*
X100745D02*
Y264279D01*
X100870Y264552*
X101120Y264734*
X101370Y264825*
X101745Y264916*
X102370*
X102745Y264825*
X102995Y264734*
X103245Y264552*
X103370Y264279*
Y263643*
X710245Y113697D02*
X712870Y112970D01*
X710245Y113697D02*
X712870Y114425D01*
X711995Y113243D02*
Y114152D01*
X710870Y116606D02*
X710620Y116516D01*
X710370Y116334*
X710245Y116152*
Y115788*
X710370Y115606*
X710620Y115425*
X710870Y115334*
X711245Y115243*
X711870*
X712245Y115334*
X712495Y115425*
X712745Y115606*
X712870Y115788*
Y116152*
X712745Y116334*
X712495Y116516*
X712245Y116606*
X710245Y117425D02*
X712870Y118152D01*
X710245Y118879D02*
X712870Y118152D01*
X713370Y119697D02*
Y121606D01*
X710620Y123425D02*
X710370Y123243D01*
X710245Y122970*
Y122606*
X710370Y122334*
X710620Y122152*
X710870*
X711120Y122243*
X711245Y122334*
X711370Y122516*
X711620Y123061*
X711745Y123243*
X711870Y123334*
X712120Y123425*
X712495*
X712745Y123243*
X712870Y122970*
Y122606*
X712745Y122334*
X712495Y122152*
X710145Y75897D02*
X712770Y75170D01*
X710145Y75897D02*
X712770Y76625D01*
X711895Y75443D02*
Y76352D01*
X710770Y78806D02*
X710520Y78716D01*
X710270Y78534*
X710145Y78352*
Y77988*
X710270Y77806*
X710520Y77625*
X710770Y77534*
X711145Y77443*
X711770*
X712145Y77534*
X712395Y77625*
X712645Y77806*
X712770Y77988*
Y78352*
X712645Y78534*
X712395Y78716*
X712145Y78806*
X710145Y79625D02*
X712770Y80352D01*
X710145Y81079D02*
X712770Y80352D01*
X713270Y81897D02*
Y83806D01*
X710145Y84988D02*
X712770D01*
X710145Y84352D02*
Y85625D01*
X711070Y172434D02*
X710820Y172343D01*
X710570Y172161*
X710445Y171979*
Y171616*
X710570Y171434*
X710820Y171252*
X711070Y171161*
X711445Y171070*
X712070*
X712445Y171161*
X712695Y171252*
X712945Y171434*
X713070Y171616*
Y171979*
X712945Y172161*
X712695Y172343*
X712445Y172434*
X712070*
Y171979D02*
Y172434D01*
X710445Y173252D02*
X713070D01*
X710445D02*
X713070Y174525D01*
X710445D02*
X713070D01*
X710445Y175343D02*
X713070D01*
X710445D02*
Y175979D01*
X710570Y176252*
X710820Y176434*
X711070Y176525*
X711445Y176616*
X712070*
X712445Y176525*
X712695Y176434*
X712945Y176252*
X713070Y175979*
Y175343*
G74*
X0Y0D02*
M02*
