*
*
G04 PADS VX.2 Build Number: 5060570 generated Gerber (RS-274-X) file*
G04 PC Version=2.1*
*
%IN "HFC3100D_Main Control_2"*%
*
%MOIN*%
*
%FSLAX35Y35*%
*
*
*
*
G04 PC Standard Apertures*
*
*
G04 Thermal Relief Aperture macro.*
%AMTER*
1,1,$1,0,0*
1,0,$1-$2,0,0*
21,0,$3,$4,0,0,45*
21,0,$3,$4,0,0,135*
%
*
*
G04 Annular Aperture macro.*
%AMANN*
1,1,$1,0,0*
1,0,$2,0,0*
%
*
*
G04 Odd Aperture macro.*
%AMODD*
1,1,$1,0,0*
1,0,$1-0.005,0,0*
%
*
*
G04 PC Custom Aperture Macros*
*
*
*
*
*
*
G04 PC Aperture Table*
*
%ADD010C,0.001*%
%ADD014C,0.01*%
%ADD046C,0.01969*%
*
*
*
*
G04 PC Circuitry*
G04 Layer Name HFC3100D_Main Control_2 - circuitry*
%LPD*%
*
*
G04 PC Custom Flashes*
G04 Layer Name HFC3100D_Main Control_2 - flashes*
%LPD*%
*
*
G04 PC Circuitry*
G04 Layer Name HFC3100D_Main Control_2 - circuitry*
%LPD*%
*
G54D10*
G01X1510447Y1174468D02*
X1510449D01*
X1506510Y1953995D02*
X1506512D01*
X2566746Y1955570D02*
X2566749D01*
X1514384Y1959507D02*
X1514386D01*
G54D14*
X2515569Y1529153D02*
X2523569D01*
X2519569Y1525153D02*
Y1533153D01*
X2523273Y1533653D02*
X2523160Y1533965D01*
X2522932Y1534278*
X2522705Y1534434*
X2522251*
X2522023Y1534278*
X2521796Y1533965*
X2521682Y1533653*
X2521569Y1533184*
Y1532403*
X2521682Y1531934*
X2521796Y1531621*
X2522023Y1531309*
X2522251Y1531153*
X2522705*
X2522932Y1531309*
X2523160Y1531621*
X2523273Y1531934*
Y1532403*
X2522705D02*
X2523273D01*
X2524569Y1529153D02*
X2532569D01*
X2528569Y1525153D02*
Y1533153D01*
X2532273Y1533653D02*
X2532160Y1533965D01*
X2531932Y1534278*
X2531705Y1534434*
X2531251*
X2531023Y1534278*
X2530796Y1533965*
X2530682Y1533653*
X2530569Y1533184*
Y1532403*
X2530682Y1531934*
X2530796Y1531621*
X2531023Y1531309*
X2531251Y1531153*
X2531705*
X2531932Y1531309*
X2532160Y1531621*
X2532273Y1531934*
Y1532403*
X2531705D02*
X2532273D01*
X2519569Y1532153D02*
G75*
G03Y1526153I-0J-3000D01*
G01X2528569*
G03Y1532153I-0J3000*
G01X2519569*
X2515569Y1509153D02*
X2523569D01*
X2519569Y1505153D02*
Y1513153D01*
X2523273Y1513653D02*
X2523160Y1513965D01*
X2522932Y1514278*
X2522705Y1514434*
X2522251*
X2522023Y1514278*
X2521796Y1513965*
X2521682Y1513653*
X2521569Y1513184*
Y1512403*
X2521682Y1511934*
X2521796Y1511621*
X2522023Y1511309*
X2522251Y1511153*
X2522705*
X2522932Y1511309*
X2523160Y1511621*
X2523273Y1511934*
Y1512403*
X2522705D02*
X2523273D01*
X2524569Y1509153D02*
X2532569D01*
X2528569Y1505153D02*
Y1513153D01*
X2532273Y1513653D02*
X2532160Y1513965D01*
X2531932Y1514278*
X2531705Y1514434*
X2531251*
X2531023Y1514278*
X2530796Y1513965*
X2530682Y1513653*
X2530569Y1513184*
Y1512403*
X2530682Y1511934*
X2530796Y1511621*
X2531023Y1511309*
X2531251Y1511153*
X2531705*
X2531932Y1511309*
X2532160Y1511621*
X2532273Y1511934*
Y1512403*
X2531705D02*
X2532273D01*
X2519569Y1512153D02*
G03Y1506153I-0J-3000D01*
G01X2528569*
G03Y1512153I-0J3000*
G01X2519569*
X2515569Y1489153D02*
X2523569D01*
X2519569Y1485153D02*
Y1493153D01*
X2523273Y1493653D02*
X2523160Y1493965D01*
X2522932Y1494278*
X2522705Y1494434*
X2522251*
X2522023Y1494278*
X2521796Y1493965*
X2521682Y1493653*
X2521569Y1493184*
Y1492403*
X2521682Y1491934*
X2521796Y1491621*
X2522023Y1491309*
X2522251Y1491153*
X2522705*
X2522932Y1491309*
X2523160Y1491621*
X2523273Y1491934*
Y1492403*
X2522705D02*
X2523273D01*
X2524569Y1489153D02*
X2532569D01*
X2528569Y1485153D02*
Y1493153D01*
X2532273Y1493653D02*
X2532160Y1493965D01*
X2531932Y1494278*
X2531705Y1494434*
X2531251*
X2531023Y1494278*
X2530796Y1493965*
X2530682Y1493653*
X2530569Y1493184*
Y1492403*
X2530682Y1491934*
X2530796Y1491621*
X2531023Y1491309*
X2531251Y1491153*
X2531705*
X2531932Y1491309*
X2532160Y1491621*
X2532273Y1491934*
Y1492403*
X2531705D02*
X2532273D01*
X2519569Y1492153D02*
G03Y1486153I-0J-3000D01*
G01X2528569*
G03Y1492153I-0J3000*
G01X2519569*
X2515569Y1469153D02*
X2523569D01*
X2519569Y1465153D02*
Y1473153D01*
X2523273Y1473653D02*
X2523160Y1473965D01*
X2522932Y1474278*
X2522705Y1474434*
X2522251*
X2522023Y1474278*
X2521796Y1473965*
X2521682Y1473653*
X2521569Y1473184*
Y1472403*
X2521682Y1471934*
X2521796Y1471621*
X2522023Y1471309*
X2522251Y1471153*
X2522705*
X2522932Y1471309*
X2523160Y1471621*
X2523273Y1471934*
Y1472403*
X2522705D02*
X2523273D01*
X2524569Y1469153D02*
X2532569D01*
X2528569Y1465153D02*
Y1473153D01*
X2532273Y1473653D02*
X2532160Y1473965D01*
X2531932Y1474278*
X2531705Y1474434*
X2531251*
X2531023Y1474278*
X2530796Y1473965*
X2530682Y1473653*
X2530569Y1473184*
Y1472403*
X2530682Y1471934*
X2530796Y1471621*
X2531023Y1471309*
X2531251Y1471153*
X2531705*
X2531932Y1471309*
X2532160Y1471621*
X2532273Y1471934*
Y1472403*
X2531705D02*
X2532273D01*
X2519569Y1472153D02*
G03Y1466153I-0J-3000D01*
G01X2528569*
G03Y1472153I-0J3000*
G01X2519569*
X2210384Y1296718D02*
X2218384D01*
Y1304718*
X2210384*
Y1296718*
X2214384Y1300718D02*
Y1304718D01*
X2190384Y1296718D02*
X2198384D01*
Y1304718*
X2190384*
Y1296718*
X2194384Y1300718D02*
Y1304718D01*
X2107884Y1319218D02*
X2115884D01*
Y1327218*
X2107884*
Y1319218*
X2111884Y1323218D02*
Y1327218D01*
X2127884Y1319218D02*
X2135884D01*
Y1327218*
X2127884*
Y1319218*
X2131884Y1323218D02*
Y1327218D01*
X2263509Y1228593D02*
X2271509D01*
Y1236593*
X2263509*
Y1228593*
X2267509Y1232593D02*
Y1236593D01*
X2263509Y1244293D02*
X2271509D01*
Y1252293*
X2263509*
Y1244293*
X2267509Y1248293D02*
Y1252293D01*
X2207884Y1214218D02*
X2215884D01*
Y1222218*
X2207884*
Y1214218*
X2211884Y1218218D02*
Y1222218D01*
X2227884Y1214218D02*
X2235884D01*
Y1222218*
X2227884*
Y1214218*
X2231884Y1218218D02*
Y1222218D01*
X2312884Y1240718D02*
X2320884D01*
X2316884Y1236718D02*
Y1244718D01*
X2320588Y1245218D02*
X2320475Y1245530D01*
X2320247Y1245843*
X2320020Y1245999*
X2319566*
X2319338Y1245843*
X2319111Y1245530*
X2318997Y1245218*
X2318884Y1244749*
Y1243968*
X2318997Y1243499*
X2319111Y1243186*
X2319338Y1242874*
X2319566Y1242718*
X2320020*
X2320247Y1242874*
X2320475Y1243186*
X2320588Y1243499*
X2312884Y1211218D02*
X2320884D01*
X2316884Y1207218D02*
Y1215218D01*
X2320588Y1215718D02*
X2320475Y1216030D01*
X2320247Y1216343*
X2320020Y1216499*
X2319566*
X2319338Y1216343*
X2319111Y1216030*
X2318997Y1215718*
X2318884Y1215249*
Y1214468*
X2318997Y1213999*
X2319111Y1213686*
X2319338Y1213374*
X2319566Y1213218*
X2320020*
X2320247Y1213374*
X2320475Y1213686*
X2320588Y1213999*
X2157884Y1284218D02*
X2165884D01*
Y1292218*
X2157884*
Y1284218*
X2161884Y1288218D02*
Y1292218D01*
X2157884Y1299918D02*
X2165884D01*
Y1307918*
X2157884*
Y1299918*
X2161884Y1303918D02*
Y1307918D01*
X2506634Y1244218D02*
X2514634D01*
Y1252218*
X2506634*
Y1244218*
X2510634Y1248218D02*
Y1252218D01*
X2506634Y1282968D02*
X2514634D01*
Y1290968*
X2506634*
Y1282968*
X2510634Y1286968D02*
Y1290968D01*
X2332884Y1276718D02*
X2340884D01*
Y1284718*
X2332884*
Y1276718*
X2336884Y1280718D02*
Y1284718D01*
X2294134Y1276718D02*
X2302134D01*
Y1284718*
X2294134*
Y1276718*
X2298134Y1280718D02*
Y1284718D01*
X2237884Y1341718D02*
X2245884D01*
Y1349718*
X2237884*
Y1341718*
X2241884Y1345718D02*
Y1349718D01*
X2217884Y1341718D02*
X2225884D01*
Y1349718*
X2217884*
Y1341718*
X2221884Y1345718D02*
Y1349718D01*
X1682884Y1265718D02*
X1690884D01*
X1686884Y1261718D02*
Y1269718D01*
X1689793Y1270999D02*
X1688884Y1267718D01*
X1689793Y1270999D02*
X1690702Y1267718D01*
X1689225Y1268811D02*
X1690361D01*
X1682884Y1225718D02*
X1690884D01*
X1686884Y1221718D02*
Y1229718D01*
X1689793Y1230999D02*
X1688884Y1227718D01*
X1689793Y1230999D02*
X1690702Y1227718D01*
X1689225Y1228811D02*
X1690361D01*
X1671634Y1373218D02*
X1679634D01*
X1675634Y1369218D02*
Y1377218D01*
X1678543Y1378499D02*
X1677634Y1375218D01*
X1678543Y1378499D02*
X1679452Y1375218D01*
X1677975Y1376311D02*
X1679111D01*
X1671634Y1333218D02*
X1679634D01*
X1675634Y1329218D02*
Y1337218D01*
X1678543Y1338499D02*
X1677634Y1335218D01*
X1678543Y1338499D02*
X1679452Y1335218D01*
X1677975Y1336311D02*
X1679111D01*
X2262884Y1280718D02*
X2270884D01*
X2266884Y1276718D02*
Y1284718D01*
X2269793Y1285999D02*
X2268884Y1282718D01*
X2269793Y1285999D02*
X2270702Y1282718D01*
X2269225Y1283811D02*
X2270361D01*
X2222884Y1280718D02*
X2230884D01*
X2226884Y1276718D02*
Y1284718D01*
X2229793Y1285999D02*
X2228884Y1282718D01*
X2229793Y1285999D02*
X2230702Y1282718D01*
X2229225Y1283811D02*
X2230361D01*
X1882884Y1281718D02*
X1890884D01*
X1882884Y1289718*
X1890884*
X1882884Y1281718*
X1832884D02*
X1840884D01*
X1832884Y1289718*
X1840884*
X1832884Y1281718*
X2095384Y1333218D02*
X2103384D01*
X2099384Y1329218D02*
Y1337218D01*
X2102293Y1338499D02*
X2101384Y1335218D01*
X2102293Y1338499D02*
X2103202Y1335218D01*
X2101725Y1336311D02*
X2102861D01*
X2135384Y1333218D02*
X2143384D01*
X2139384Y1329218D02*
Y1337218D01*
X2142293Y1338499D02*
X2141384Y1335218D01*
X2142293Y1338499D02*
X2143202Y1335218D01*
X2141725Y1336311D02*
X2142861D01*
X1680384Y1473218D02*
X1688384D01*
X1684384Y1469218D02*
Y1477218D01*
X1687293Y1478499D02*
X1686384Y1475218D01*
X1687293Y1478499D02*
X1688202Y1475218D01*
X1686725Y1476311D02*
X1687861D01*
X1680384Y1433218D02*
X1688384D01*
X1684384Y1429218D02*
Y1437218D01*
X1687293Y1438499D02*
X1686384Y1435218D01*
X1687293Y1438499D02*
X1688202Y1435218D01*
X1686725Y1436311D02*
X1687861D01*
X1669134Y1473218D02*
X1677134D01*
X1673134Y1469218D02*
Y1477218D01*
X1676043Y1478499D02*
X1675134Y1475218D01*
X1676043Y1478499D02*
X1676952Y1475218D01*
X1675475Y1476311D02*
X1676611D01*
X1669134Y1433218D02*
X1677134D01*
X1673134Y1429218D02*
Y1437218D01*
X1676043Y1438499D02*
X1675134Y1435218D01*
X1676043Y1438499D02*
X1676952Y1435218D01*
X1675475Y1436311D02*
X1676611D01*
X2486634Y1342968D02*
X2494634D01*
X2486634Y1350968*
X2494634*
X2486634Y1342968*
X2436634D02*
X2444634D01*
X2436634Y1350968*
X2444634*
X2436634Y1342968*
X1671634Y1265718D02*
X1679634D01*
X1675634Y1261718D02*
Y1269718D01*
X1678543Y1270999D02*
X1677634Y1267718D01*
X1678543Y1270999D02*
X1679452Y1267718D01*
X1677975Y1268811D02*
X1679111D01*
X1671634Y1225718D02*
X1679634D01*
X1675634Y1221718D02*
Y1229718D01*
X1678543Y1230999D02*
X1677634Y1227718D01*
X1678543Y1230999D02*
X1679452Y1227718D01*
X1677975Y1228811D02*
X1679111D01*
X1882884Y1191718D02*
X1890884D01*
X1882884Y1199718*
X1890884*
X1882884Y1191718*
X1832884D02*
X1840884D01*
X1832884Y1199718*
X1840884*
X1832884Y1191718*
X2112884Y1186718D02*
X2120884D01*
X2112884Y1194718*
X2120884*
X2112884Y1186718*
X2162884D02*
X2170884D01*
X2162884Y1194718*
X2170884*
X2162884Y1186718*
X1882884Y1231718D02*
X1890884D01*
X1882884Y1239718*
X1890884*
X1882884Y1231718*
X1832884D02*
X1840884D01*
X1832884Y1239718*
X1840884*
X1832884Y1231718*
X1682884Y1373218D02*
X1690884D01*
X1686884Y1369218D02*
Y1377218D01*
X1689793Y1378499D02*
X1688884Y1375218D01*
X1689793Y1378499D02*
X1690702Y1375218D01*
X1689225Y1376311D02*
X1690361D01*
X1682884Y1333218D02*
X1690884D01*
X1686884Y1329218D02*
Y1337218D01*
X1689793Y1338499D02*
X1688884Y1335218D01*
X1689793Y1338499D02*
X1690702Y1335218D01*
X1689225Y1336311D02*
X1690361D01*
X2262884Y1260718D02*
X2270884D01*
X2266884Y1256718D02*
Y1264718D01*
X2269793Y1265999D02*
X2268884Y1262718D01*
X2269793Y1265999D02*
X2270702Y1262718D01*
X2269225Y1263811D02*
X2270361D01*
X2222884Y1260718D02*
X2230884D01*
X2226884Y1256718D02*
Y1264718D01*
X2229793Y1265999D02*
X2228884Y1262718D01*
X2229793Y1265999D02*
X2230702Y1262718D01*
X2229225Y1263811D02*
X2230361D01*
X2347884Y1343218D02*
X2355884D01*
X2351884Y1339218D02*
Y1347218D01*
X2353884Y1348499D02*
Y1345218D01*
Y1348499D02*
X2355361D01*
X2353884Y1346936D02*
X2354793D01*
X2353884Y1345218D02*
X2355361D01*
X2262884Y1343218D02*
X2270884D01*
X2266884Y1339218D02*
Y1347218D01*
X2268884Y1348499D02*
Y1345218D01*
Y1348499D02*
X2270361D01*
X2268884Y1346936D02*
X2269793D01*
X2268884Y1345218D02*
X2270361D01*
X2122884Y1255718D02*
X2130884D01*
X2126884Y1251718D02*
Y1259718D01*
X2129793Y1260999D02*
X2128884Y1257718D01*
X2129793Y1260999D02*
X2130702Y1257718D01*
X2129225Y1258811D02*
X2130361D01*
X2112884Y1255718D02*
X2120884D01*
X2116884Y1251718D02*
Y1259718D01*
X2119793Y1260999D02*
X2118884Y1257718D01*
X2119793Y1260999D02*
X2120702Y1257718D01*
X2119225Y1258811D02*
X2120361D01*
X2102884Y1255718D02*
X2110884D01*
X2106884Y1251718D02*
Y1259718D01*
X2109793Y1260999D02*
X2108884Y1257718D01*
X2109793Y1260999D02*
X2110702Y1257718D01*
X2109225Y1258811D02*
X2110361D01*
X1660384Y1261718D02*
X1668384D01*
Y1269718*
X1660384*
Y1261718*
X1664384Y1265718D02*
Y1269718D01*
X1660384Y1221718D02*
X1668384D01*
Y1229718*
X1660384*
Y1221718*
X1664384Y1225718D02*
Y1229718D01*
X2096634Y1277343D02*
X2104634D01*
Y1285343*
X2096634*
Y1277343*
X2100634Y1281343D02*
Y1285343D01*
X2136634Y1277343D02*
X2144634D01*
Y1285343*
X2136634*
Y1277343*
X2140634Y1281343D02*
Y1285343D01*
X2262884Y1266718D02*
X2270884D01*
Y1274718*
X2262884*
Y1266718*
X2266884Y1270718D02*
Y1274718D01*
X2222884Y1266718D02*
X2230884D01*
Y1274718*
X2222884*
Y1266718*
X2226884Y1270718D02*
Y1274718D01*
X2136634Y1297343D02*
X2144634D01*
Y1305343*
X2136634*
Y1297343*
X2140634Y1301343D02*
Y1305343D01*
X2096634Y1297343D02*
X2104634D01*
Y1305343*
X2096634*
Y1297343*
X2100634Y1301343D02*
Y1305343D01*
X1660384Y1369218D02*
X1668384D01*
Y1377218*
X1660384*
Y1369218*
X1664384Y1373218D02*
Y1377218D01*
X1660384Y1329218D02*
X1668384D01*
Y1337218*
X1660384*
Y1329218*
X1664384Y1333218D02*
Y1337218D01*
X2096634Y1287343D02*
X2104634D01*
Y1295343*
X2096634*
Y1287343*
X2100634Y1291343D02*
Y1295343D01*
X2136634Y1287343D02*
X2144634D01*
Y1295343*
X2136634*
Y1287343*
X2140634Y1291343D02*
Y1295343D01*
X2172884Y1235468D02*
X2180884D01*
Y1243468*
X2172884*
Y1235468*
X2176884Y1239468D02*
Y1243468D01*
X2212884Y1235468D02*
X2220884D01*
Y1243468*
X2212884*
Y1235468*
X2216884Y1239468D02*
Y1243468D01*
X2212884Y1224843D02*
X2220884D01*
Y1232843*
X2212884*
Y1224843*
X2216884Y1228843D02*
Y1232843D01*
X2172884Y1224843D02*
X2180884D01*
Y1232843*
X2172884*
Y1224843*
X2176884Y1228843D02*
Y1232843D01*
X1650384Y1329218D02*
X1658384D01*
Y1337218*
X1650384*
Y1329218*
X1654384Y1333218D02*
Y1337218D01*
X1650384Y1369218D02*
X1658384D01*
Y1377218*
X1650384*
Y1369218*
X1654384Y1373218D02*
Y1377218D01*
X2197884Y1198218D02*
X2205884D01*
X2201884Y1194218D02*
Y1202218D01*
X2204793Y1203499D02*
X2203884Y1200218D01*
X2204793Y1203499D02*
X2205702Y1200218D01*
X2204225Y1201311D02*
X2205361D01*
X2197884Y1316218D02*
X2205884D01*
X2201884Y1312218D02*
Y1320218D01*
X2204793Y1321499D02*
X2203884Y1318218D01*
X2204793Y1321499D02*
X2205702Y1318218D01*
X2204225Y1319311D02*
X2205361D01*
X1996634Y1331968D02*
X2004634D01*
X2000634Y1327968D02*
Y1335968D01*
X2003543Y1337249D02*
X2002634Y1333968D01*
X2003543Y1337249D02*
X2004452Y1333968D01*
X2002975Y1335061D02*
X2004111D01*
X2079234Y1331968D02*
X2087234D01*
X2083234Y1327968D02*
Y1335968D01*
X2086143Y1337249D02*
X2085234Y1333968D01*
X2086143Y1337249D02*
X2087052Y1333968D01*
X2085575Y1335061D02*
X2086711D01*
X1659134Y1469218D02*
X1667134D01*
Y1477218*
X1659134*
Y1469218*
X1663134Y1473218D02*
Y1477218D01*
X1659134Y1429218D02*
X1667134D01*
Y1437218*
X1659134*
Y1429218*
X1663134Y1433218D02*
Y1437218D01*
X1650384Y1221718D02*
X1658384D01*
Y1229718*
X1650384*
Y1221718*
X1654384Y1225718D02*
Y1229718D01*
X1650384Y1261718D02*
X1658384D01*
Y1269718*
X1650384*
Y1261718*
X1654384Y1265718D02*
Y1269718D01*
X1649134Y1429218D02*
X1657134D01*
Y1437218*
X1649134*
Y1429218*
X1653134Y1433218D02*
Y1437218D01*
X1649134Y1469218D02*
X1657134D01*
Y1477218*
X1649134*
Y1469218*
X1653134Y1473218D02*
Y1477218D01*
X2262884Y1286718D02*
X2270884D01*
Y1294718*
X2262884*
Y1286718*
X2266884Y1290718D02*
Y1294718D01*
X2222884Y1286718D02*
X2230884D01*
Y1294718*
X2222884*
Y1286718*
X2226884Y1290718D02*
Y1294718D01*
X2376884Y1282968D02*
X2380884Y1286968D01*
X2376884Y1290968*
X2372884Y1286968*
X2376884Y1282968*
Y1286968D02*
Y1290968D01*
Y1200468D02*
X2380884Y1204468D01*
X2376884Y1208468*
X2372884Y1204468*
X2376884Y1200468*
Y1204468D02*
Y1208468D01*
X2455634Y1200468D02*
X2459634Y1204468D01*
X2455634Y1208468*
X2451634Y1204468*
X2455634Y1200468*
Y1204468D02*
Y1208468D01*
Y1282968D02*
X2459634Y1286968D01*
X2455634Y1290968*
X2451634Y1286968*
X2455634Y1282968*
Y1286968D02*
Y1290968D01*
X2177884Y1276718D02*
X2185884D01*
Y1284718*
X2177884*
Y1276718*
X2181884Y1280718D02*
Y1284718D01*
X2177884Y1266718D02*
X2185884D01*
Y1274718*
X2177884*
Y1266718*
X2181884Y1270718D02*
Y1274718D01*
X2177884Y1256718D02*
X2185884D01*
Y1264718*
X2177884*
Y1256718*
X2181884Y1260718D02*
Y1264718D01*
X2177884Y1246718D02*
X2185884D01*
Y1254718*
X2177884*
Y1246718*
X2181884Y1250718D02*
Y1254718D01*
X2207884Y1246718D02*
X2215884D01*
Y1254718*
X2207884*
Y1246718*
X2211884Y1250718D02*
Y1254718D01*
X2207884Y1256718D02*
X2215884D01*
Y1264718*
X2207884*
Y1256718*
X2211884Y1260718D02*
Y1264718D01*
X2207884Y1266718D02*
X2215884D01*
Y1274718*
X2207884*
Y1266718*
X2211884Y1270718D02*
Y1274718D01*
X2207884Y1276718D02*
X2215884D01*
Y1284718*
X2207884*
Y1276718*
X2211884Y1280718D02*
Y1284718D01*
X1710384Y1346968D02*
X1718384D01*
X1714384Y1342968D02*
Y1350968D01*
X1717293Y1352249D02*
X1716384Y1348968D01*
X1717293Y1352249D02*
X1718202Y1348968D01*
X1716725Y1350061D02*
X1717861D01*
X1710384Y1336968D02*
X1718384D01*
X1714384Y1332968D02*
Y1340968D01*
X1717293Y1342249D02*
X1716384Y1338968D01*
X1717293Y1342249D02*
X1718202Y1338968D01*
X1716725Y1340061D02*
X1717861D01*
X1710384Y1326968D02*
X1718384D01*
X1714384Y1322968D02*
Y1330968D01*
X1717293Y1332249D02*
X1716384Y1328968D01*
X1717293Y1332249D02*
X1718202Y1328968D01*
X1716725Y1330061D02*
X1717861D01*
X1710384Y1450718D02*
X1718384D01*
X1714384Y1446718D02*
Y1454718D01*
X1717293Y1455999D02*
X1716384Y1452718D01*
X1717293Y1455999D02*
X1718202Y1452718D01*
X1716725Y1453811D02*
X1717861D01*
X1710384Y1440718D02*
X1718384D01*
X1714384Y1436718D02*
Y1444718D01*
X1717293Y1445999D02*
X1716384Y1442718D01*
X1717293Y1445999D02*
X1718202Y1442718D01*
X1716725Y1443811D02*
X1717861D01*
X1710384Y1430718D02*
X1718384D01*
X1714384Y1426718D02*
Y1434718D01*
X1717293Y1435999D02*
X1716384Y1432718D01*
X1717293Y1435999D02*
X1718202Y1432718D01*
X1716725Y1433811D02*
X1717861D01*
X1710384Y1245718D02*
X1718384D01*
X1714384Y1241718D02*
Y1249718D01*
X1717293Y1250999D02*
X1716384Y1247718D01*
X1717293Y1250999D02*
X1718202Y1247718D01*
X1716725Y1248811D02*
X1717861D01*
X1710384Y1235718D02*
X1718384D01*
X1714384Y1231718D02*
Y1239718D01*
X1717293Y1240999D02*
X1716384Y1237718D01*
X1717293Y1240999D02*
X1718202Y1237718D01*
X1716725Y1238811D02*
X1717861D01*
X1710384Y1225718D02*
X1718384D01*
X1714384Y1221718D02*
Y1229718D01*
X1717293Y1230999D02*
X1716384Y1227718D01*
X1717293Y1230999D02*
X1718202Y1227718D01*
X1716725Y1228811D02*
X1717861D01*
X1657884Y1196718D02*
X1665884D01*
Y1204718*
X1657884*
Y1196718*
X1661884Y1200718D02*
Y1204718D01*
X1667884Y1196718D02*
X1675884D01*
Y1204718*
X1667884*
Y1196718*
X1671884Y1200718D02*
Y1204718D01*
X1677884Y1196718D02*
X1685884D01*
Y1204718*
X1677884*
Y1196718*
X1681884Y1200718D02*
Y1204718D01*
X1655384Y1296718D02*
X1663384D01*
Y1304718*
X1655384*
Y1296718*
X1659384Y1300718D02*
Y1304718D01*
X1665384Y1296718D02*
X1673384D01*
Y1304718*
X1665384*
Y1296718*
X1669384Y1300718D02*
Y1304718D01*
X1675384Y1296718D02*
X1683384D01*
Y1304718*
X1675384*
Y1296718*
X1679384Y1300718D02*
Y1304718D01*
X1655384Y1401718D02*
X1663384D01*
Y1409718*
X1655384*
Y1401718*
X1659384Y1405718D02*
Y1409718D01*
X1665384Y1401718D02*
X1673384D01*
Y1409718*
X1665384*
Y1401718*
X1669384Y1405718D02*
Y1409718D01*
X1675384Y1401718D02*
X1683384D01*
Y1409718*
X1675384*
Y1401718*
X1679384Y1405718D02*
Y1409718D01*
X2298584Y1656768D02*
X2306584D01*
Y1664768*
X2298584*
Y1656768*
X2302584Y1660768D02*
Y1664768D01*
X2298584Y1646768D02*
X2306584D01*
Y1654768*
X2298584*
Y1646768*
X2302584Y1650768D02*
Y1654768D01*
X2298584Y1636768D02*
X2306584D01*
Y1644768*
X2298584*
Y1636768*
X2302584Y1640768D02*
Y1644768D01*
X2067884Y1656768D02*
X2075884D01*
Y1664768*
X2067884*
Y1656768*
X2071884Y1660768D02*
Y1664768D01*
X2067884Y1646768D02*
X2075884D01*
Y1654768*
X2067884*
Y1646768*
X2071884Y1650768D02*
Y1654768D01*
X2067884Y1636768D02*
X2075884D01*
Y1644768*
X2067884*
Y1636768*
X2071884Y1640768D02*
Y1644768D01*
X1736884Y1436718D02*
X1740884Y1440718D01*
X1736884Y1444718*
X1732884Y1440718*
X1736884Y1436718*
Y1440718D02*
Y1444718D01*
Y1471118D02*
X1740884Y1475118D01*
X1736884Y1479118*
X1732884Y1475118*
X1736884Y1471118*
Y1475118D02*
Y1479118D01*
Y1402318D02*
X1740884Y1406318D01*
X1736884Y1410318*
X1732884Y1406318*
X1736884Y1402318*
Y1406318D02*
Y1410318D01*
Y1332968D02*
X1740884Y1336968D01*
X1736884Y1340968*
X1732884Y1336968*
X1736884Y1332968*
Y1336968D02*
Y1340968D01*
Y1367368D02*
X1740884Y1371368D01*
X1736884Y1375368*
X1732884Y1371368*
X1736884Y1367368*
Y1371368D02*
Y1375368D01*
Y1298568D02*
X1740884Y1302568D01*
X1736884Y1306568*
X1732884Y1302568*
X1736884Y1298568*
Y1302568D02*
Y1306568D01*
Y1231718D02*
X1740884Y1235718D01*
X1736884Y1239718*
X1732884Y1235718*
X1736884Y1231718*
Y1235718D02*
Y1239718D01*
Y1266118D02*
X1740884Y1270118D01*
X1736884Y1274118*
X1732884Y1270118*
X1736884Y1266118*
Y1270118D02*
Y1274118D01*
Y1197318D02*
X1740884Y1201318D01*
X1736884Y1205318*
X1732884Y1201318*
X1736884Y1197318*
Y1201318D02*
Y1205318D01*
X1790384Y1346718D02*
X1798384D01*
Y1354718*
X1790384*
Y1346718*
X1794384Y1350718D02*
Y1354718D01*
X1790384Y1326718D02*
X1798384D01*
Y1334718*
X1790384*
Y1326718*
X1794384Y1330718D02*
Y1334718D01*
X1790384Y1261718D02*
X1798384D01*
Y1269718*
X1790384*
Y1261718*
X1794384Y1265718D02*
Y1269718D01*
X1790384Y1241718D02*
X1798384D01*
Y1249718*
X1790384*
Y1241718*
X1794384Y1245718D02*
Y1249718D01*
X1790384Y1219218D02*
X1798384D01*
Y1227218*
X1790384*
Y1219218*
X1794384Y1223218D02*
Y1227218D01*
X1790384Y1199218D02*
X1798384D01*
Y1207218*
X1790384*
Y1199218*
X1794384Y1203218D02*
Y1207218D01*
X1625384Y1411718D02*
X1633384D01*
Y1419718*
X1625384*
Y1411718*
X1629384Y1415718D02*
Y1419718D01*
X1605384Y1411718D02*
X1613384D01*
Y1419718*
X1605384*
Y1411718*
X1609384Y1415718D02*
Y1419718D01*
X1632884Y1206718D02*
X1640884D01*
Y1214718*
X1632884*
Y1206718*
X1636884Y1210718D02*
Y1214718D01*
X1612884Y1206718D02*
X1620884D01*
Y1214718*
X1612884*
Y1206718*
X1616884Y1210718D02*
Y1214718D01*
X1632884Y1306718D02*
X1640884D01*
Y1314718*
X1632884*
Y1306718*
X1636884Y1310718D02*
Y1314718D01*
X1612884Y1306718D02*
X1620884D01*
Y1314718*
X1612884*
Y1306718*
X1616884Y1310718D02*
Y1314718D01*
X1635384Y1241718D02*
X1643384D01*
Y1249718*
X1635384*
Y1241718*
X1639384Y1245718D02*
Y1249718D01*
X1625384Y1241718D02*
X1633384D01*
Y1249718*
X1625384*
Y1241718*
X1629384Y1245718D02*
Y1249718D01*
X1632884Y1449218D02*
X1640884D01*
Y1457218*
X1632884*
Y1449218*
X1636884Y1453218D02*
Y1457218D01*
X1622884Y1449218D02*
X1630884D01*
Y1457218*
X1622884*
Y1449218*
X1626884Y1453218D02*
Y1457218D01*
X1632884Y1344218D02*
X1640884D01*
Y1352218*
X1632884*
Y1344218*
X1636884Y1348218D02*
Y1352218D01*
X1622884Y1344218D02*
X1630884D01*
Y1352218*
X1622884*
Y1344218*
X1626884Y1348218D02*
Y1352218D01*
X2032884Y1191718D02*
X2040884Y1199718D01*
Y1191718*
X2032884Y1199718*
Y1191718*
Y1211718D02*
X2040884Y1219718D01*
Y1211718*
X2032884Y1219718*
Y1211718*
Y1231718D02*
X2040884Y1239718D01*
Y1231718*
X2032884Y1239718*
Y1231718*
Y1261718D02*
X2040884Y1269718D01*
Y1261718*
X2032884Y1269718*
Y1261718*
Y1281718D02*
X2040884Y1289718D01*
Y1281718*
X2032884Y1289718*
Y1281718*
Y1301718D02*
X2040884Y1309718D01*
Y1301718*
X2032884Y1309718*
Y1301718*
X1912884D02*
X1920884Y1309718D01*
Y1301718*
X1912884Y1309718*
Y1301718*
Y1281718D02*
X1920884Y1289718D01*
Y1281718*
X1912884Y1289718*
Y1281718*
Y1261718D02*
X1920884Y1269718D01*
Y1261718*
X1912884Y1269718*
Y1261718*
Y1231718D02*
X1920884Y1239718D01*
Y1231718*
X1912884Y1239718*
Y1231718*
Y1211718D02*
X1920884Y1219718D01*
Y1211718*
X1912884Y1219718*
Y1211718*
Y1191718D02*
X1920884Y1199718D01*
Y1191718*
X1912884Y1199718*
Y1191718*
X2116884Y1229218D02*
X2120884Y1233218D01*
X2116884Y1237218*
X2112884Y1233218*
X2116884Y1229218*
Y1233218D02*
Y1237218D01*
X2151284Y1229218D02*
X2155284Y1233218D01*
X2151284Y1237218*
X2147284Y1233218*
X2151284Y1229218*
Y1233218D02*
Y1237218D01*
X2082484Y1229218D02*
X2086484Y1233218D01*
X2082484Y1237218*
X2078484Y1233218*
X2082484Y1229218*
Y1233218D02*
Y1237218D01*
X2375384Y1346968D02*
X2383384D01*
X2379384Y1342968D02*
Y1350968D01*
X2382293Y1352249D02*
X2381384Y1348968D01*
X2382293Y1352249D02*
X2383202Y1348968D01*
X2381725Y1350061D02*
X2382861D01*
X2375384Y1316968D02*
X2383384D01*
X2379384Y1312968D02*
Y1320968D01*
X2382293Y1322249D02*
X2381384Y1318968D01*
X2382293Y1322249D02*
X2383202Y1318968D01*
X2381725Y1320061D02*
X2382861D01*
X2400384Y1346968D02*
X2408384D01*
X2404384Y1342968D02*
Y1350968D01*
X2407293Y1352249D02*
X2406384Y1348968D01*
X2407293Y1352249D02*
X2408202Y1348968D01*
X2406725Y1350061D02*
X2407861D01*
X2400384Y1316968D02*
X2408384D01*
X2404384Y1312968D02*
Y1320968D01*
X2407293Y1322249D02*
X2406384Y1318968D01*
X2407293Y1322249D02*
X2408202Y1318968D01*
X2406725Y1320061D02*
X2407861D01*
X1530069Y1190153D02*
X1538069Y1198153D01*
X1530069D02*
X1538069Y1190153D01*
X2262884Y1300718D02*
X2270884D01*
X2266884Y1296718D02*
Y1304718D01*
X2269793Y1305999D02*
X2268884Y1302718D01*
X2269793Y1305999D02*
X2270702Y1302718D01*
X2269225Y1303811D02*
X2270361D01*
X2332884Y1300718D02*
X2340884D01*
X2336884Y1296718D02*
Y1304718D01*
X2339793Y1305999D02*
X2338884Y1302718D01*
X2339793Y1305999D02*
X2340702Y1302718D01*
X2339225Y1303811D02*
X2340361D01*
X2240384Y1198218D02*
X2248384D01*
X2244384Y1194218D02*
Y1202218D01*
X2247293Y1203499D02*
X2246384Y1200218D01*
X2247293Y1203499D02*
X2248202Y1200218D01*
X2246725Y1201311D02*
X2247861D01*
X2240384Y1316218D02*
X2248384D01*
X2244384Y1312218D02*
Y1320218D01*
X2247293Y1321499D02*
X2246384Y1318218D01*
X2247293Y1321499D02*
X2248202Y1318218D01*
X2246725Y1319311D02*
X2247861D01*
X2486634Y1322968D02*
X2494634D01*
X2486634Y1330968*
X2494634*
X2486634Y1322968*
X2436634D02*
X2444634D01*
X2436634Y1330968*
X2444634*
X2436634Y1322968*
X2523376Y1190153D02*
X2531376Y1198153D01*
X2523376D02*
X2531376Y1190153D01*
X1556634Y1430718D02*
X1564634D01*
X1560634Y1426718D02*
Y1434718D01*
X1563543Y1435999D02*
X1562634Y1432718D01*
X1563543Y1435999D02*
X1564452Y1432718D01*
X1562975Y1433811D02*
X1564111D01*
X1556634Y1444497D02*
X1564634D01*
X1560634Y1440497D02*
Y1448497D01*
X1563543Y1449778D02*
X1562634Y1446497D01*
X1563543Y1449778D02*
X1564452Y1446497D01*
X1562975Y1447591D02*
X1564111D01*
X1556634Y1458277D02*
X1564634D01*
X1560634Y1454277D02*
Y1462277D01*
X1563543Y1463558D02*
X1562634Y1460277D01*
X1563543Y1463558D02*
X1564452Y1460277D01*
X1562975Y1461370D02*
X1564111D01*
X1556634Y1472056D02*
X1564634D01*
X1560634Y1468056D02*
Y1476056D01*
X1563543Y1477337D02*
X1562634Y1474056D01*
X1563543Y1477337D02*
X1564452Y1474056D01*
X1562975Y1475150D02*
X1564111D01*
X1556634Y1485836D02*
X1564634D01*
X1560634Y1481836D02*
Y1489836D01*
X1563543Y1491117D02*
X1562634Y1487836D01*
X1563543Y1491117D02*
X1564452Y1487836D01*
X1562975Y1488929D02*
X1564111D01*
X1556634Y1499718D02*
X1564634D01*
X1560634Y1495718D02*
Y1503718D01*
X1563543Y1504999D02*
X1562634Y1501718D01*
X1563543Y1504999D02*
X1564452Y1501718D01*
X1562975Y1502811D02*
X1564111D01*
X1556634Y1513518D02*
X1564634D01*
X1560634Y1509518D02*
Y1517518D01*
X1563543Y1518799D02*
X1562634Y1515518D01*
X1563543Y1518799D02*
X1564452Y1515518D01*
X1562975Y1516611D02*
X1564111D01*
X1556634Y1527318D02*
X1564634D01*
X1560634Y1523318D02*
Y1531318D01*
X1563543Y1532599D02*
X1562634Y1529318D01*
X1563543Y1532599D02*
X1564452Y1529318D01*
X1562975Y1530411D02*
X1564111D01*
X2267784Y1705868D02*
X2275784D01*
X2271784Y1701868D02*
Y1709868D01*
X2274693Y1711149D02*
X2273784Y1707868D01*
X2274693Y1711149D02*
X2275602Y1707868D01*
X2274125Y1708961D02*
X2275261D01*
X2307784Y1705868D02*
X2315784D01*
X2311784Y1701868D02*
Y1709868D01*
X2314693Y1711149D02*
X2313784Y1707868D01*
X2314693Y1711149D02*
X2315602Y1707868D01*
X2314125Y1708961D02*
X2315261D01*
X2179984Y1705768D02*
X2187984D01*
X2183984Y1701768D02*
Y1709768D01*
X2186893Y1711049D02*
X2185984Y1707768D01*
X2186893Y1711049D02*
X2187802Y1707768D01*
X2186325Y1708861D02*
X2187461D01*
X2179984Y1745768D02*
X2187984D01*
X2183984Y1741768D02*
Y1749768D01*
X2186893Y1751049D02*
X2185984Y1747768D01*
X2186893Y1751049D02*
X2187802Y1747768D01*
X2186325Y1748861D02*
X2187461D01*
X2217984Y1729268D02*
X2225984D01*
Y1737268*
X2217984*
Y1729268*
X2221984Y1733268D02*
Y1737268D01*
X2227984Y1729268D02*
X2235984D01*
Y1737268*
X2227984*
Y1729268*
X2231984Y1733268D02*
Y1737268D01*
X2237984Y1729268D02*
X2245984D01*
Y1737268*
X2237984*
Y1729268*
X2241984Y1733268D02*
Y1737268D01*
X1560384Y1229468D02*
X1568384D01*
X1564384Y1225468D02*
Y1233468D01*
X1567293Y1234749D02*
X1566384Y1231468D01*
X1567293Y1234749D02*
X1568202Y1231468D01*
X1566725Y1232561D02*
X1567861D01*
X1560384Y1364468D02*
X1568384D01*
X1564384Y1360468D02*
Y1368468D01*
X1567293Y1369749D02*
X1566384Y1366468D01*
X1567293Y1369749D02*
X1568202Y1366468D01*
X1566725Y1367561D02*
X1567861D01*
X1614134Y1935718D02*
X1622134D01*
X1618134Y1931718D02*
Y1939718D01*
X1621043Y1940999D02*
X1620134Y1937718D01*
X1621043Y1940999D02*
X1621952Y1937718D01*
X1620475Y1938811D02*
X1621611D01*
X1627913Y1935718D02*
X1635913D01*
X1631913Y1931718D02*
Y1939718D01*
X1634822Y1940999D02*
X1633913Y1937718D01*
X1634822Y1940999D02*
X1635731Y1937718D01*
X1634254Y1938811D02*
X1635391D01*
X1560384Y1284468D02*
X1568384D01*
X1564384Y1280468D02*
Y1288468D01*
X1567293Y1289749D02*
X1566384Y1286468D01*
X1567293Y1289749D02*
X1568202Y1286468D01*
X1566725Y1287561D02*
X1567861D01*
X2540069Y1715153D02*
X2548069D01*
Y1723153*
X2540069*
Y1715153*
X2544069Y1719153D02*
Y1723153D01*
X2540069Y1705153D02*
X2548069D01*
Y1713153*
X2540069*
Y1705153*
X2544069Y1709153D02*
Y1713153D01*
X2540069Y1695153D02*
X2548069D01*
Y1703153*
X2540069*
Y1695153*
X2544069Y1699153D02*
Y1703153D01*
X2540069Y1685153D02*
X2548069D01*
Y1693153*
X2540069*
Y1685153*
X2544069Y1689153D02*
Y1693153D01*
X2540069Y1675153D02*
X2548069D01*
Y1683153*
X2540069*
Y1675153*
X2544069Y1679153D02*
Y1683153D01*
X2540069Y1665153D02*
X2548069D01*
Y1673153*
X2540069*
Y1665153*
X2544069Y1669153D02*
Y1673153D01*
X2540069Y1655153D02*
X2548069D01*
Y1663153*
X2540069*
Y1655153*
X2544069Y1659153D02*
Y1663153D01*
X2540069Y1645153D02*
X2548069D01*
Y1653153*
X2540069*
Y1645153*
X2544069Y1649153D02*
Y1653153D01*
X2540069Y1635153D02*
X2548069D01*
Y1643153*
X2540069*
Y1635153*
X2544069Y1639153D02*
Y1643153D01*
X2540069Y1625153D02*
X2548069D01*
Y1633153*
X2540069*
Y1625153*
X2544069Y1629153D02*
Y1633153D01*
X2540069Y1615153D02*
X2548069D01*
Y1623153*
X2540069*
Y1615153*
X2544069Y1619153D02*
Y1623153D01*
X2540069Y1605153D02*
X2548069D01*
Y1613153*
X2540069*
Y1605153*
X2544069Y1609153D02*
Y1613153D01*
X2540069Y1595153D02*
X2548069D01*
Y1603153*
X2540069*
Y1595153*
X2544069Y1599153D02*
Y1603153D01*
X2540069Y1585153D02*
X2548069D01*
Y1593153*
X2540069*
Y1585153*
X2544069Y1589153D02*
Y1593153D01*
X2540069Y1575153D02*
X2548069D01*
Y1583153*
X2540069*
Y1575153*
X2544069Y1579153D02*
Y1583153D01*
X2540069Y1565153D02*
X2548069D01*
Y1573153*
X2540069*
Y1565153*
X2544069Y1569153D02*
Y1573153D01*
X2540069Y1555153D02*
X2548069D01*
Y1563153*
X2540069*
Y1555153*
X2544069Y1559153D02*
Y1563153D01*
X2540069Y1545153D02*
X2548069D01*
Y1553153*
X2540069*
Y1545153*
X2544069Y1549153D02*
Y1553153D01*
X2540069Y1535153D02*
X2548069D01*
Y1543153*
X2540069*
Y1535153*
X2544069Y1539153D02*
Y1543153D01*
X2540069Y1525153D02*
X2548069D01*
Y1533153*
X2540069*
Y1525153*
X2544069Y1529153D02*
Y1533153D01*
X2540069Y1515153D02*
X2548069D01*
Y1523153*
X2540069*
Y1515153*
X2544069Y1519153D02*
Y1523153D01*
X2540069Y1505153D02*
X2548069D01*
Y1513153*
X2540069*
Y1505153*
X2544069Y1509153D02*
Y1513153D01*
X2540069Y1495153D02*
X2548069D01*
Y1503153*
X2540069*
Y1495153*
X2544069Y1499153D02*
Y1503153D01*
X2540069Y1485153D02*
X2548069D01*
Y1493153*
X2540069*
Y1485153*
X2544069Y1489153D02*
Y1493153D01*
X2540069Y1475153D02*
X2548069D01*
Y1483153*
X2540069*
Y1475153*
X2544069Y1479153D02*
Y1483153D01*
X2540069Y1465153D02*
X2548069D01*
Y1473153*
X2540069*
Y1465153*
X2544069Y1469153D02*
Y1473153D01*
X2540069Y1455153D02*
X2548069D01*
Y1463153*
X2540069*
Y1455153*
X2544069Y1459153D02*
Y1463153D01*
X2540069Y1445153D02*
X2548069D01*
Y1453153*
X2540069*
Y1445153*
X2544069Y1449153D02*
Y1453153D01*
X2540069Y1435153D02*
X2548069D01*
Y1443153*
X2540069*
Y1435153*
X2544069Y1439153D02*
Y1443153D01*
X2540069Y1425153D02*
X2548069D01*
Y1433153*
X2540069*
Y1425153*
X2544069Y1429153D02*
Y1433153D01*
X2540069Y1415153D02*
X2548069D01*
Y1423153*
X2540069*
Y1415153*
X2544069Y1419153D02*
Y1423153D01*
X2540069Y1405153D02*
X2548069D01*
Y1413153*
X2540069*
Y1405153*
X2544069Y1409153D02*
Y1413153D01*
X2520069Y1715153D02*
X2528069D01*
Y1723153*
X2520069*
Y1715153*
X2524069Y1719153D02*
Y1723153D01*
X2520069Y1705153D02*
X2528069D01*
Y1713153*
X2520069*
Y1705153*
X2524069Y1709153D02*
Y1713153D01*
X2520069Y1695153D02*
X2528069D01*
Y1703153*
X2520069*
Y1695153*
X2524069Y1699153D02*
Y1703153D01*
X2520069Y1685153D02*
X2528069D01*
Y1693153*
X2520069*
Y1685153*
X2524069Y1689153D02*
Y1693153D01*
X2520069Y1675153D02*
X2528069D01*
Y1683153*
X2520069*
Y1675153*
X2524069Y1679153D02*
Y1683153D01*
X2520069Y1665153D02*
X2528069D01*
Y1673153*
X2520069*
Y1665153*
X2524069Y1669153D02*
Y1673153D01*
X2520069Y1655153D02*
X2528069D01*
Y1663153*
X2520069*
Y1655153*
X2524069Y1659153D02*
Y1663153D01*
X2520069Y1645153D02*
X2528069D01*
Y1653153*
X2520069*
Y1645153*
X2524069Y1649153D02*
Y1653153D01*
X2520069Y1635153D02*
X2528069D01*
Y1643153*
X2520069*
Y1635153*
X2524069Y1639153D02*
Y1643153D01*
X2520069Y1625153D02*
X2528069D01*
Y1633153*
X2520069*
Y1625153*
X2524069Y1629153D02*
Y1633153D01*
X2520069Y1615153D02*
X2528069D01*
Y1623153*
X2520069*
Y1615153*
X2524069Y1619153D02*
Y1623153D01*
X2520069Y1605153D02*
X2528069D01*
Y1613153*
X2520069*
Y1605153*
X2524069Y1609153D02*
Y1613153D01*
X2520069Y1595153D02*
X2528069D01*
Y1603153*
X2520069*
Y1595153*
X2524069Y1599153D02*
Y1603153D01*
X2520069Y1585153D02*
X2528069D01*
Y1593153*
X2520069*
Y1585153*
X2524069Y1589153D02*
Y1593153D01*
X2520069Y1575153D02*
X2528069D01*
Y1583153*
X2520069*
Y1575153*
X2524069Y1579153D02*
Y1583153D01*
X2520069Y1565153D02*
X2528069D01*
Y1573153*
X2520069*
Y1565153*
X2524069Y1569153D02*
Y1573153D01*
X2520069Y1555153D02*
X2528069D01*
Y1563153*
X2520069*
Y1555153*
X2524069Y1559153D02*
Y1563153D01*
X2520069Y1545153D02*
X2528069D01*
Y1553153*
X2520069*
Y1545153*
X2524069Y1549153D02*
Y1553153D01*
X2520069Y1535153D02*
X2528069D01*
Y1543153*
X2520069*
Y1535153*
X2524069Y1539153D02*
Y1543153D01*
X2520069Y1515153D02*
X2528069D01*
Y1523153*
X2520069*
Y1515153*
X2524069Y1519153D02*
Y1523153D01*
X2520069Y1495153D02*
X2528069D01*
Y1503153*
X2520069*
Y1495153*
X2524069Y1499153D02*
Y1503153D01*
X2520069Y1475153D02*
X2528069D01*
Y1483153*
X2520069*
Y1475153*
X2524069Y1479153D02*
Y1483153D01*
X2520069Y1455153D02*
X2528069D01*
Y1463153*
X2520069*
Y1455153*
X2524069Y1459153D02*
Y1463153D01*
X2520069Y1445153D02*
X2528069D01*
Y1453153*
X2520069*
Y1445153*
X2524069Y1449153D02*
Y1453153D01*
X2520069Y1435153D02*
X2528069D01*
Y1443153*
X2520069*
Y1435153*
X2524069Y1439153D02*
Y1443153D01*
X2520069Y1425153D02*
X2528069D01*
Y1433153*
X2520069*
Y1425153*
X2524069Y1429153D02*
Y1433153D01*
X2520069Y1415153D02*
X2528069D01*
Y1423153*
X2520069*
Y1415153*
X2524069Y1419153D02*
Y1423153D01*
X2520069Y1405153D02*
X2528069D01*
Y1413153*
X2520069*
Y1405153*
X2524069Y1409153D02*
Y1413153D01*
X2549969Y1388653D02*
X2557969D01*
X2553969Y1384653D02*
Y1392653D01*
X2555969Y1393934D02*
Y1390653D01*
Y1393934D02*
X2557446D01*
X2555969Y1392371D02*
X2556878D01*
X2550069Y1739153D02*
X2558069D01*
X2554069Y1735153D02*
Y1743153D01*
X2556069Y1744434D02*
Y1741153D01*
Y1744434D02*
X2557546D01*
X2556069Y1742871D02*
X2556978D01*
X2523376Y1930310D02*
X2531376Y1938310D01*
X2523376D02*
X2531376Y1930310D01*
X1530069D02*
X1538069Y1938310D01*
X1530069D02*
X1538069Y1930310D01*
X1560384Y1324468D02*
X1568384D01*
X1564384Y1320468D02*
Y1328468D01*
X1567293Y1329749D02*
X1566384Y1326468D01*
X1567293Y1329749D02*
X1568202Y1326468D01*
X1566725Y1327561D02*
X1567861D01*
X1790384Y1304218D02*
X1798384D01*
Y1312218*
X1790384*
Y1304218*
X1794384Y1308218D02*
Y1312218D01*
X1790384Y1284218D02*
X1798384D01*
Y1292218*
X1790384*
Y1284218*
X1794384Y1288218D02*
Y1292218D01*
X1555384Y1689218D02*
X1563384D01*
Y1697218*
X1555384*
Y1689218*
X1559384Y1693218D02*
Y1697218D01*
X1565384Y1689218D02*
X1573384D01*
Y1697218*
X1565384*
Y1689218*
X1569384Y1693218D02*
Y1697218D01*
X1555384Y1679218D02*
X1563384D01*
Y1687218*
X1555384*
Y1679218*
X1559384Y1683218D02*
Y1687218D01*
X1565384Y1679218D02*
X1573384D01*
Y1687218*
X1565384*
Y1679218*
X1569384Y1683218D02*
Y1687218D01*
X1555384Y1669218D02*
X1563384D01*
Y1677218*
X1555384*
Y1669218*
X1559384Y1673218D02*
Y1677218D01*
X1565384Y1669218D02*
X1573384D01*
Y1677218*
X1565384*
Y1669218*
X1569384Y1673218D02*
Y1677218D01*
X1555384Y1659218D02*
X1563384D01*
Y1667218*
X1555384*
Y1659218*
X1559384Y1663218D02*
Y1667218D01*
X1565384Y1659218D02*
X1573384D01*
Y1667218*
X1565384*
Y1659218*
X1569384Y1663218D02*
Y1667218D01*
X1555384Y1649218D02*
X1563384D01*
Y1657218*
X1555384*
Y1649218*
X1559384Y1653218D02*
Y1657218D01*
X1565384Y1649218D02*
X1573384D01*
Y1657218*
X1565384*
Y1649218*
X1569384Y1653218D02*
Y1657218D01*
X1555384Y1639218D02*
X1563384D01*
Y1647218*
X1555384*
Y1639218*
X1559384Y1643218D02*
Y1647218D01*
X1565384Y1639218D02*
X1573384D01*
Y1647218*
X1565384*
Y1639218*
X1569384Y1643218D02*
Y1647218D01*
X1555384Y1629218D02*
X1563384D01*
Y1637218*
X1555384*
Y1629218*
X1559384Y1633218D02*
Y1637218D01*
X1565384Y1629218D02*
X1573384D01*
Y1637218*
X1565384*
Y1629218*
X1569384Y1633218D02*
Y1637218D01*
X1555384Y1619218D02*
X1563384D01*
Y1627218*
X1555384*
Y1619218*
X1559384Y1623218D02*
Y1627218D01*
X1565384Y1619218D02*
X1573384D01*
Y1627218*
X1565384*
Y1619218*
X1569384Y1623218D02*
Y1627218D01*
X1555384Y1609218D02*
X1563384D01*
Y1617218*
X1555384*
Y1609218*
X1559384Y1613218D02*
Y1617218D01*
X1565384Y1609218D02*
X1573384D01*
Y1617218*
X1565384*
Y1609218*
X1569384Y1613218D02*
Y1617218D01*
X1555384Y1599218D02*
X1563384D01*
Y1607218*
X1555384*
Y1599218*
X1559384Y1603218D02*
Y1607218D01*
X1565384Y1599218D02*
X1573384D01*
Y1607218*
X1565384*
Y1599218*
X1569384Y1603218D02*
Y1607218D01*
X2020484Y1729268D02*
X2028484D01*
Y1737268*
X2020484*
Y1729268*
X2024484Y1733268D02*
Y1737268D01*
X2030484Y1729268D02*
X2038484D01*
Y1737268*
X2030484*
Y1729268*
X2034484Y1733268D02*
Y1737268D01*
X2040484Y1729268D02*
X2048484D01*
Y1737268*
X2040484*
Y1729268*
X2044484Y1733268D02*
Y1737268D01*
X2021884Y1701968D02*
X2029884D01*
Y1709968*
X2021884*
Y1701968*
X2025884Y1705968D02*
Y1709968D01*
X2041884Y1701968D02*
X2049884D01*
Y1709968*
X2041884*
Y1701968*
X2045884Y1705968D02*
Y1709968D01*
X2000384Y1594468D02*
X2008384D01*
X2004384Y1590468D02*
Y1598468D01*
X2008088Y1598968D02*
X2007975Y1599280D01*
X2007747Y1599593*
X2007520Y1599749*
X2007066*
X2006838Y1599593*
X2006611Y1599280*
X2006497Y1598968*
X2006384Y1598499*
Y1597718*
X2006497Y1597249*
X2006611Y1596936*
X2006838Y1596624*
X2007066Y1596468*
X2007520*
X2007747Y1596624*
X2007975Y1596936*
X2008088Y1597249*
X1990384Y1594468D02*
X1998384D01*
X1994384Y1590468D02*
Y1598468D01*
X1998088Y1598968D02*
X1997975Y1599280D01*
X1997747Y1599593*
X1997520Y1599749*
X1997066*
X1996838Y1599593*
X1996611Y1599280*
X1996497Y1598968*
X1996384Y1598499*
Y1597718*
X1996497Y1597249*
X1996611Y1596936*
X1996838Y1596624*
X1997066Y1596468*
X1997520*
X1997747Y1596624*
X1997975Y1596936*
X1998088Y1597249*
X1980384Y1594468D02*
X1988384D01*
X1984384Y1590468D02*
Y1598468D01*
X1988088Y1598968D02*
X1987975Y1599280D01*
X1987747Y1599593*
X1987520Y1599749*
X1987066*
X1986838Y1599593*
X1986611Y1599280*
X1986497Y1598968*
X1986384Y1598499*
Y1597718*
X1986497Y1597249*
X1986611Y1596936*
X1986838Y1596624*
X1987066Y1596468*
X1987520*
X1987747Y1596624*
X1987975Y1596936*
X1988088Y1597249*
X1970384Y1594468D02*
X1978384D01*
X1974384Y1590468D02*
Y1598468D01*
X1978088Y1598968D02*
X1977975Y1599280D01*
X1977747Y1599593*
X1977520Y1599749*
X1977066*
X1976838Y1599593*
X1976611Y1599280*
X1976497Y1598968*
X1976384Y1598499*
Y1597718*
X1976497Y1597249*
X1976611Y1596936*
X1976838Y1596624*
X1977066Y1596468*
X1977520*
X1977747Y1596624*
X1977975Y1596936*
X1978088Y1597249*
X1960384Y1594468D02*
X1968384D01*
X1964384Y1590468D02*
Y1598468D01*
X1968088Y1598968D02*
X1967975Y1599280D01*
X1967747Y1599593*
X1967520Y1599749*
X1967066*
X1966838Y1599593*
X1966611Y1599280*
X1966497Y1598968*
X1966384Y1598499*
Y1597718*
X1966497Y1597249*
X1966611Y1596936*
X1966838Y1596624*
X1967066Y1596468*
X1967520*
X1967747Y1596624*
X1967975Y1596936*
X1968088Y1597249*
X2217884Y1400718D02*
X2225884D01*
X2221884Y1396718D02*
Y1404718D01*
X2223884Y1405999D02*
Y1402718D01*
Y1405999D02*
X2224906D01*
X2225247Y1405843*
X2225361Y1405686*
X2225475Y1405374*
Y1405061*
X2225361Y1404749*
X2225247Y1404593*
X2224906Y1404436*
X2223884D02*
X2224906D01*
X2225247Y1404280*
X2225361Y1404124*
X2225475Y1403811*
Y1403343*
X2225361Y1403030*
X2225247Y1402874*
X2224906Y1402718*
X2223884*
X2296624Y1400718D02*
X2304624D01*
X2300624Y1396718D02*
Y1404718D01*
X2302624Y1405999D02*
Y1402718D01*
Y1405999D02*
X2303647D01*
X2303988Y1405843*
X2304101Y1405686*
X2304215Y1405374*
Y1405061*
X2304101Y1404749*
X2303988Y1404593*
X2303647Y1404436*
X2302624D02*
X2303647D01*
X2303988Y1404280*
X2304101Y1404124*
X2304215Y1403811*
Y1403343*
X2304101Y1403030*
X2303988Y1402874*
X2303647Y1402718*
X2302624*
X2296624Y1491269D02*
X2304624D01*
X2300624Y1487269D02*
Y1495269D01*
X2302624Y1496550D02*
Y1493269D01*
Y1496550D02*
X2303647D01*
X2303988Y1496394*
X2304101Y1496237*
X2304215Y1495925*
Y1495612*
X2304101Y1495300*
X2303988Y1495144*
X2303647Y1494987*
X2302624D02*
X2303647D01*
X2303988Y1494831*
X2304101Y1494675*
X2304215Y1494362*
Y1493894*
X2304101Y1493581*
X2303988Y1493425*
X2303647Y1493269*
X2302624*
X2257884Y1400718D02*
X2265884D01*
X2261884Y1396718D02*
Y1404718D01*
X2263884Y1405999D02*
Y1402718D01*
Y1405999D02*
X2264906D01*
X2265247Y1405843*
X2265361Y1405686*
X2265475Y1405374*
Y1405061*
X2265361Y1404749*
X2265247Y1404593*
X2264906Y1404436*
X2263884D02*
X2264906D01*
X2265247Y1404280*
X2265361Y1404124*
X2265475Y1403811*
Y1403343*
X2265361Y1403030*
X2265247Y1402874*
X2264906Y1402718*
X2263884*
X2217884Y1491269D02*
X2225884D01*
X2221884Y1487269D02*
Y1495269D01*
X2223884Y1496550D02*
Y1493269D01*
Y1496550D02*
X2224906D01*
X2225247Y1496394*
X2225361Y1496237*
X2225475Y1495925*
Y1495612*
X2225361Y1495300*
X2225247Y1495144*
X2224906Y1494987*
X2223884D02*
X2224906D01*
X2225247Y1494831*
X2225361Y1494675*
X2225475Y1494362*
Y1493894*
X2225361Y1493581*
X2225247Y1493425*
X2224906Y1493269*
X2223884*
X2237884Y1401343D02*
X2245884D01*
X2241884Y1397343D02*
Y1405343D01*
X2243884Y1406624D02*
Y1403343D01*
Y1406624D02*
X2244906D01*
X2245247Y1406468*
X2245361Y1406311*
X2245475Y1405999*
Y1405686*
X2245361Y1405374*
X2245247Y1405218*
X2244906Y1405061*
X2243884D02*
X2244906D01*
X2245247Y1404905*
X2245361Y1404749*
X2245475Y1404436*
Y1403968*
X2245361Y1403655*
X2245247Y1403499*
X2244906Y1403343*
X2243884*
X2277884Y1400718D02*
X2285884D01*
X2281884Y1396718D02*
Y1404718D01*
X2283884Y1405999D02*
Y1402718D01*
Y1405999D02*
X2284906D01*
X2285247Y1405843*
X2285361Y1405686*
X2285475Y1405374*
Y1405061*
X2285361Y1404749*
X2285247Y1404593*
X2284906Y1404436*
X2283884D02*
X2284906D01*
X2285247Y1404280*
X2285361Y1404124*
X2285475Y1403811*
Y1403343*
X2285361Y1403030*
X2285247Y1402874*
X2284906Y1402718*
X2283884*
X2277884Y1490718D02*
X2285884D01*
X2281884Y1486718D02*
Y1494718D01*
X2283884Y1495999D02*
Y1492718D01*
Y1495999D02*
X2284906D01*
X2285247Y1495843*
X2285361Y1495686*
X2285475Y1495374*
Y1495061*
X2285361Y1494749*
X2285247Y1494593*
X2284906Y1494436*
X2283884D02*
X2284906D01*
X2285247Y1494280*
X2285361Y1494124*
X2285475Y1493811*
Y1493343*
X2285361Y1493030*
X2285247Y1492874*
X2284906Y1492718*
X2283884*
X2257884Y1490718D02*
X2265884D01*
X2261884Y1486718D02*
Y1494718D01*
X2263884Y1495999D02*
Y1492718D01*
Y1495999D02*
X2264906D01*
X2265247Y1495843*
X2265361Y1495686*
X2265475Y1495374*
Y1495061*
X2265361Y1494749*
X2265247Y1494593*
X2264906Y1494436*
X2263884D02*
X2264906D01*
X2265247Y1494280*
X2265361Y1494124*
X2265475Y1493811*
Y1493343*
X2265361Y1493030*
X2265247Y1492874*
X2264906Y1492718*
X2263884*
X2237884Y1490718D02*
X2245884D01*
X2241884Y1486718D02*
Y1494718D01*
X2243884Y1495999D02*
Y1492718D01*
Y1495999D02*
X2244906D01*
X2245247Y1495843*
X2245361Y1495686*
X2245475Y1495374*
Y1495061*
X2245361Y1494749*
X2245247Y1494593*
X2244906Y1494436*
X2243884D02*
X2244906D01*
X2245247Y1494280*
X2245361Y1494124*
X2245475Y1493811*
Y1493343*
X2245361Y1493030*
X2245247Y1492874*
X2244906Y1492718*
X2243884*
X2047884Y1400718D02*
X2055884D01*
X2051884Y1396718D02*
Y1404718D01*
X2053884Y1405999D02*
Y1402718D01*
Y1405999D02*
X2054906D01*
X2055247Y1405843*
X2055361Y1405686*
X2055475Y1405374*
Y1405061*
X2055361Y1404749*
X2055247Y1404593*
X2054906Y1404436*
X2053884D02*
X2054906D01*
X2055247Y1404280*
X2055361Y1404124*
X2055475Y1403811*
Y1403343*
X2055361Y1403030*
X2055247Y1402874*
X2054906Y1402718*
X2053884*
X2126624Y1400718D02*
X2134624D01*
X2130624Y1396718D02*
Y1404718D01*
X2132624Y1405999D02*
Y1402718D01*
Y1405999D02*
X2133647D01*
X2133988Y1405843*
X2134101Y1405686*
X2134215Y1405374*
Y1405061*
X2134101Y1404749*
X2133988Y1404593*
X2133647Y1404436*
X2132624D02*
X2133647D01*
X2133988Y1404280*
X2134101Y1404124*
X2134215Y1403811*
Y1403343*
X2134101Y1403030*
X2133988Y1402874*
X2133647Y1402718*
X2132624*
X2126624Y1491269D02*
X2134624D01*
X2130624Y1487269D02*
Y1495269D01*
X2132624Y1496550D02*
Y1493269D01*
Y1496550D02*
X2133647D01*
X2133988Y1496394*
X2134101Y1496237*
X2134215Y1495925*
Y1495612*
X2134101Y1495300*
X2133988Y1495144*
X2133647Y1494987*
X2132624D02*
X2133647D01*
X2133988Y1494831*
X2134101Y1494675*
X2134215Y1494362*
Y1493894*
X2134101Y1493581*
X2133988Y1493425*
X2133647Y1493269*
X2132624*
X2087884Y1400718D02*
X2095884D01*
X2091884Y1396718D02*
Y1404718D01*
X2093884Y1405999D02*
Y1402718D01*
Y1405999D02*
X2094906D01*
X2095247Y1405843*
X2095361Y1405686*
X2095475Y1405374*
Y1405061*
X2095361Y1404749*
X2095247Y1404593*
X2094906Y1404436*
X2093884D02*
X2094906D01*
X2095247Y1404280*
X2095361Y1404124*
X2095475Y1403811*
Y1403343*
X2095361Y1403030*
X2095247Y1402874*
X2094906Y1402718*
X2093884*
X2047884Y1491269D02*
X2055884D01*
X2051884Y1487269D02*
Y1495269D01*
X2053884Y1496550D02*
Y1493269D01*
Y1496550D02*
X2054906D01*
X2055247Y1496394*
X2055361Y1496237*
X2055475Y1495925*
Y1495612*
X2055361Y1495300*
X2055247Y1495144*
X2054906Y1494987*
X2053884D02*
X2054906D01*
X2055247Y1494831*
X2055361Y1494675*
X2055475Y1494362*
Y1493894*
X2055361Y1493581*
X2055247Y1493425*
X2054906Y1493269*
X2053884*
X2067884Y1401343D02*
X2075884D01*
X2071884Y1397343D02*
Y1405343D01*
X2073884Y1406624D02*
Y1403343D01*
Y1406624D02*
X2074906D01*
X2075247Y1406468*
X2075361Y1406311*
X2075475Y1405999*
Y1405686*
X2075361Y1405374*
X2075247Y1405218*
X2074906Y1405061*
X2073884D02*
X2074906D01*
X2075247Y1404905*
X2075361Y1404749*
X2075475Y1404436*
Y1403968*
X2075361Y1403655*
X2075247Y1403499*
X2074906Y1403343*
X2073884*
X2107884Y1400718D02*
X2115884D01*
X2111884Y1396718D02*
Y1404718D01*
X2113884Y1405999D02*
Y1402718D01*
Y1405999D02*
X2114906D01*
X2115247Y1405843*
X2115361Y1405686*
X2115475Y1405374*
Y1405061*
X2115361Y1404749*
X2115247Y1404593*
X2114906Y1404436*
X2113884D02*
X2114906D01*
X2115247Y1404280*
X2115361Y1404124*
X2115475Y1403811*
Y1403343*
X2115361Y1403030*
X2115247Y1402874*
X2114906Y1402718*
X2113884*
X2107884Y1490718D02*
X2115884D01*
X2111884Y1486718D02*
Y1494718D01*
X2113884Y1495999D02*
Y1492718D01*
Y1495999D02*
X2114906D01*
X2115247Y1495843*
X2115361Y1495686*
X2115475Y1495374*
Y1495061*
X2115361Y1494749*
X2115247Y1494593*
X2114906Y1494436*
X2113884D02*
X2114906D01*
X2115247Y1494280*
X2115361Y1494124*
X2115475Y1493811*
Y1493343*
X2115361Y1493030*
X2115247Y1492874*
X2114906Y1492718*
X2113884*
X2087884Y1490718D02*
X2095884D01*
X2091884Y1486718D02*
Y1494718D01*
X2093884Y1495999D02*
Y1492718D01*
Y1495999D02*
X2094906D01*
X2095247Y1495843*
X2095361Y1495686*
X2095475Y1495374*
Y1495061*
X2095361Y1494749*
X2095247Y1494593*
X2094906Y1494436*
X2093884D02*
X2094906D01*
X2095247Y1494280*
X2095361Y1494124*
X2095475Y1493811*
Y1493343*
X2095361Y1493030*
X2095247Y1492874*
X2094906Y1492718*
X2093884*
X2067884Y1490718D02*
X2075884D01*
X2071884Y1486718D02*
Y1494718D01*
X2073884Y1495999D02*
Y1492718D01*
Y1495999D02*
X2074906D01*
X2075247Y1495843*
X2075361Y1495686*
X2075475Y1495374*
Y1495061*
X2075361Y1494749*
X2075247Y1494593*
X2074906Y1494436*
X2073884D02*
X2074906D01*
X2075247Y1494280*
X2075361Y1494124*
X2075475Y1493811*
Y1493343*
X2075361Y1493030*
X2075247Y1492874*
X2074906Y1492718*
X2073884*
X1877884Y1400718D02*
X1885884D01*
X1881884Y1396718D02*
Y1404718D01*
X1883884Y1405999D02*
Y1402718D01*
Y1405999D02*
X1884906D01*
X1885247Y1405843*
X1885361Y1405686*
X1885475Y1405374*
Y1405061*
X1885361Y1404749*
X1885247Y1404593*
X1884906Y1404436*
X1883884D02*
X1884906D01*
X1885247Y1404280*
X1885361Y1404124*
X1885475Y1403811*
Y1403343*
X1885361Y1403030*
X1885247Y1402874*
X1884906Y1402718*
X1883884*
X1956624Y1400718D02*
X1964624D01*
X1960624Y1396718D02*
Y1404718D01*
X1962624Y1405999D02*
Y1402718D01*
Y1405999D02*
X1963647D01*
X1963988Y1405843*
X1964101Y1405686*
X1964215Y1405374*
Y1405061*
X1964101Y1404749*
X1963988Y1404593*
X1963647Y1404436*
X1962624D02*
X1963647D01*
X1963988Y1404280*
X1964101Y1404124*
X1964215Y1403811*
Y1403343*
X1964101Y1403030*
X1963988Y1402874*
X1963647Y1402718*
X1962624*
X1956624Y1491269D02*
X1964624D01*
X1960624Y1487269D02*
Y1495269D01*
X1962624Y1496550D02*
Y1493269D01*
Y1496550D02*
X1963647D01*
X1963988Y1496394*
X1964101Y1496237*
X1964215Y1495925*
Y1495612*
X1964101Y1495300*
X1963988Y1495144*
X1963647Y1494987*
X1962624D02*
X1963647D01*
X1963988Y1494831*
X1964101Y1494675*
X1964215Y1494362*
Y1493894*
X1964101Y1493581*
X1963988Y1493425*
X1963647Y1493269*
X1962624*
X1917884Y1400718D02*
X1925884D01*
X1921884Y1396718D02*
Y1404718D01*
X1923884Y1405999D02*
Y1402718D01*
Y1405999D02*
X1924906D01*
X1925247Y1405843*
X1925361Y1405686*
X1925475Y1405374*
Y1405061*
X1925361Y1404749*
X1925247Y1404593*
X1924906Y1404436*
X1923884D02*
X1924906D01*
X1925247Y1404280*
X1925361Y1404124*
X1925475Y1403811*
Y1403343*
X1925361Y1403030*
X1925247Y1402874*
X1924906Y1402718*
X1923884*
X1877884Y1491269D02*
X1885884D01*
X1881884Y1487269D02*
Y1495269D01*
X1883884Y1496550D02*
Y1493269D01*
Y1496550D02*
X1884906D01*
X1885247Y1496394*
X1885361Y1496237*
X1885475Y1495925*
Y1495612*
X1885361Y1495300*
X1885247Y1495144*
X1884906Y1494987*
X1883884D02*
X1884906D01*
X1885247Y1494831*
X1885361Y1494675*
X1885475Y1494362*
Y1493894*
X1885361Y1493581*
X1885247Y1493425*
X1884906Y1493269*
X1883884*
X1897884Y1401343D02*
X1905884D01*
X1901884Y1397343D02*
Y1405343D01*
X1903884Y1406624D02*
Y1403343D01*
Y1406624D02*
X1904906D01*
X1905247Y1406468*
X1905361Y1406311*
X1905475Y1405999*
Y1405686*
X1905361Y1405374*
X1905247Y1405218*
X1904906Y1405061*
X1903884D02*
X1904906D01*
X1905247Y1404905*
X1905361Y1404749*
X1905475Y1404436*
Y1403968*
X1905361Y1403655*
X1905247Y1403499*
X1904906Y1403343*
X1903884*
X1937884Y1400718D02*
X1945884D01*
X1941884Y1396718D02*
Y1404718D01*
X1943884Y1405999D02*
Y1402718D01*
Y1405999D02*
X1944906D01*
X1945247Y1405843*
X1945361Y1405686*
X1945475Y1405374*
Y1405061*
X1945361Y1404749*
X1945247Y1404593*
X1944906Y1404436*
X1943884D02*
X1944906D01*
X1945247Y1404280*
X1945361Y1404124*
X1945475Y1403811*
Y1403343*
X1945361Y1403030*
X1945247Y1402874*
X1944906Y1402718*
X1943884*
X1937884Y1490718D02*
X1945884D01*
X1941884Y1486718D02*
Y1494718D01*
X1943884Y1495999D02*
Y1492718D01*
Y1495999D02*
X1944906D01*
X1945247Y1495843*
X1945361Y1495686*
X1945475Y1495374*
Y1495061*
X1945361Y1494749*
X1945247Y1494593*
X1944906Y1494436*
X1943884D02*
X1944906D01*
X1945247Y1494280*
X1945361Y1494124*
X1945475Y1493811*
Y1493343*
X1945361Y1493030*
X1945247Y1492874*
X1944906Y1492718*
X1943884*
X1917884Y1490718D02*
X1925884D01*
X1921884Y1486718D02*
Y1494718D01*
X1923884Y1495999D02*
Y1492718D01*
Y1495999D02*
X1924906D01*
X1925247Y1495843*
X1925361Y1495686*
X1925475Y1495374*
Y1495061*
X1925361Y1494749*
X1925247Y1494593*
X1924906Y1494436*
X1923884D02*
X1924906D01*
X1925247Y1494280*
X1925361Y1494124*
X1925475Y1493811*
Y1493343*
X1925361Y1493030*
X1925247Y1492874*
X1924906Y1492718*
X1923884*
X1897884Y1490718D02*
X1905884D01*
X1901884Y1486718D02*
Y1494718D01*
X1903884Y1495999D02*
Y1492718D01*
Y1495999D02*
X1904906D01*
X1905247Y1495843*
X1905361Y1495686*
X1905475Y1495374*
Y1495061*
X1905361Y1494749*
X1905247Y1494593*
X1904906Y1494436*
X1903884D02*
X1904906D01*
X1905247Y1494280*
X1905361Y1494124*
X1905475Y1493811*
Y1493343*
X1905361Y1493030*
X1905247Y1492874*
X1904906Y1492718*
X1903884*
X2437884Y1490718D02*
X2445884D01*
X2441884Y1486718D02*
Y1494718D01*
X2443884Y1495999D02*
Y1492718D01*
Y1495999D02*
X2445361D01*
X2443884Y1494436D02*
X2444793D01*
X2443884Y1492718D02*
X2445361D01*
X2352884Y1490718D02*
X2360884D01*
X2356884Y1486718D02*
Y1494718D01*
X2358884Y1495999D02*
Y1492718D01*
Y1495999D02*
X2360361D01*
X2358884Y1494436D02*
X2359793D01*
X2358884Y1492718D02*
X2360361D01*
X2437884Y1446968D02*
X2445884D01*
X2441884Y1442968D02*
Y1450968D01*
X2443884Y1452249D02*
Y1448968D01*
Y1452249D02*
X2445361D01*
X2443884Y1450686D02*
X2444793D01*
X2443884Y1448968D02*
X2445361D01*
X2352884Y1446968D02*
X2360884D01*
X2356884Y1442968D02*
Y1450968D01*
X2358884Y1452249D02*
Y1448968D01*
Y1452249D02*
X2360361D01*
X2358884Y1450686D02*
X2359793D01*
X2358884Y1448968D02*
X2360361D01*
X2352884Y1401968D02*
X2360884D01*
X2356884Y1397968D02*
Y1405968D01*
X2358884Y1407249D02*
Y1403968D01*
Y1407249D02*
X2360361D01*
X2358884Y1405686D02*
X2359793D01*
X2358884Y1403968D02*
X2360361D01*
X2437884Y1401968D02*
X2445884D01*
X2441884Y1397968D02*
Y1405968D01*
X2443884Y1407249D02*
Y1403968D01*
Y1407249D02*
X2445361D01*
X2443884Y1405686D02*
X2444793D01*
X2443884Y1403968D02*
X2445361D01*
X2300884Y1520668D02*
X2308884D01*
X2304884Y1516668D02*
Y1524668D01*
X2307793Y1525949D02*
X2306884Y1522668D01*
X2307793Y1525949D02*
X2308702Y1522668D01*
X2307225Y1523761D02*
X2308361D01*
X2300884Y1560668D02*
X2308884D01*
X2304884Y1556668D02*
Y1564668D01*
X2307793Y1565949D02*
X2306884Y1562668D01*
X2307793Y1565949D02*
X2308702Y1562668D01*
X2307225Y1563761D02*
X2308361D01*
X2097884Y1520668D02*
X2105884D01*
X2101884Y1516668D02*
Y1524668D01*
X2104793Y1525949D02*
X2103884Y1522668D01*
X2104793Y1525949D02*
X2105702Y1522668D01*
X2104225Y1523761D02*
X2105361D01*
X2097884Y1560668D02*
X2105884D01*
X2101884Y1556668D02*
Y1564668D01*
X2104793Y1565949D02*
X2103884Y1562668D01*
X2104793Y1565949D02*
X2105702Y1562668D01*
X2104225Y1563761D02*
X2105361D01*
X1927884Y1520668D02*
X1935884D01*
X1931884Y1516668D02*
Y1524668D01*
X1934793Y1525949D02*
X1933884Y1522668D01*
X1934793Y1525949D02*
X1935702Y1522668D01*
X1934225Y1523761D02*
X1935361D01*
X1927884Y1560668D02*
X1935884D01*
X1931884Y1556668D02*
Y1564668D01*
X1934793Y1565949D02*
X1933884Y1562668D01*
X1934793Y1565949D02*
X1935702Y1562668D01*
X1934225Y1563761D02*
X1935361D01*
X2077884Y1531718D02*
X2085884D01*
Y1539718*
X2077884*
Y1531718*
X2081884Y1535718D02*
Y1539718D01*
X2077884Y1521718D02*
X2085884D01*
Y1529718*
X2077884*
Y1521718*
X2081884Y1525718D02*
Y1529718D01*
X1907884Y1531718D02*
X1915884D01*
Y1539718*
X1907884*
Y1531718*
X1911884Y1535718D02*
Y1539718D01*
X1907884Y1521718D02*
X1915884D01*
Y1529718*
X1907884*
Y1521718*
X1911884Y1525718D02*
Y1529718D01*
X2280884Y1532468D02*
X2288884D01*
Y1540468*
X2280884*
Y1532468*
X2284884Y1536468D02*
Y1540468D01*
X2280884Y1522468D02*
X2288884D01*
Y1530468*
X2280884*
Y1522468*
X2284884Y1526468D02*
Y1530468D01*
X2350384Y1546668D02*
X2358384D01*
Y1554668*
X2350384*
Y1546668*
X2354384Y1550668D02*
Y1554668D01*
X2350384Y1536668D02*
X2358384D01*
Y1544668*
X2350384*
Y1536668*
X2354384Y1540668D02*
Y1544668D01*
X2350384Y1526668D02*
X2358384D01*
Y1534668*
X2350384*
Y1526668*
X2354384Y1530668D02*
Y1534668D01*
X2148384Y1546668D02*
X2156384D01*
Y1554668*
X2148384*
Y1546668*
X2152384Y1550668D02*
Y1554668D01*
X2148384Y1536668D02*
X2156384D01*
Y1544668*
X2148384*
Y1536668*
X2152384Y1540668D02*
Y1544668D01*
X2148384Y1526668D02*
X2156384D01*
Y1534668*
X2148384*
Y1526668*
X2152384Y1530668D02*
Y1534668D01*
X1978384Y1546668D02*
X1986384D01*
Y1554668*
X1978384*
Y1546668*
X1982384Y1550668D02*
Y1554668D01*
X1978384Y1536668D02*
X1986384D01*
Y1544668*
X1978384*
Y1536668*
X1982384Y1540668D02*
Y1544668D01*
X1978384Y1526668D02*
X1986384D01*
Y1534668*
X1978384*
Y1526668*
X1982384Y1530668D02*
Y1534668D01*
X1775084Y1540368D02*
X1783084D01*
X1779084Y1536368D02*
Y1544368D01*
X1781993Y1545649D02*
X1781084Y1542368D01*
X1781993Y1545649D02*
X1782902Y1542368D01*
X1781425Y1543461D02*
X1782561D01*
X1805084Y1540368D02*
X1813084D01*
X1809084Y1536368D02*
Y1544368D01*
X1811993Y1545649D02*
X1811084Y1542368D01*
X1811993Y1545649D02*
X1812902Y1542368D01*
X1811425Y1543461D02*
X1812561D01*
X1669984Y1818968D02*
X1677984D01*
Y1826968*
X1669984*
Y1818968*
X1673984Y1822968D02*
Y1826968D01*
X1669984Y1828968D02*
X1677984D01*
Y1836968*
X1669984*
Y1828968*
X1673984Y1832968D02*
Y1836968D01*
X1739684Y1876168D02*
X1743684Y1880168D01*
X1739684Y1884168*
X1735684Y1880168*
X1739684Y1876168*
Y1880168D02*
Y1884168D01*
Y1856168D02*
X1743684Y1860168D01*
X1739684Y1864168*
X1735684Y1860168*
X1739684Y1856168*
Y1860168D02*
Y1864168D01*
X1759134Y1939468D02*
X1767134D01*
X1763134Y1935468D02*
Y1943468D01*
X1766838Y1943968D02*
X1766725Y1944280D01*
X1766497Y1944593*
X1766270Y1944749*
X1765816*
X1765588Y1944593*
X1765361Y1944280*
X1765247Y1943968*
X1765134Y1943499*
Y1942718*
X1765247Y1942249*
X1765361Y1941936*
X1765588Y1941624*
X1765816Y1941468*
X1766270*
X1766497Y1941624*
X1766725Y1941936*
X1766838Y1942249*
X1769134Y1939468D02*
X1777134D01*
X1773134Y1935468D02*
Y1943468D01*
X1776838Y1943968D02*
X1776725Y1944280D01*
X1776497Y1944593*
X1776270Y1944749*
X1775816*
X1775588Y1944593*
X1775361Y1944280*
X1775247Y1943968*
X1775134Y1943499*
Y1942718*
X1775247Y1942249*
X1775361Y1941936*
X1775588Y1941624*
X1775816Y1941468*
X1776270*
X1776497Y1941624*
X1776725Y1941936*
X1776838Y1942249*
X1779134Y1939468D02*
X1787134D01*
X1783134Y1935468D02*
Y1943468D01*
X1786838Y1943968D02*
X1786725Y1944280D01*
X1786497Y1944593*
X1786270Y1944749*
X1785816*
X1785588Y1944593*
X1785361Y1944280*
X1785247Y1943968*
X1785134Y1943499*
Y1942718*
X1785247Y1942249*
X1785361Y1941936*
X1785588Y1941624*
X1785816Y1941468*
X1786270*
X1786497Y1941624*
X1786725Y1941936*
X1786838Y1942249*
X1789134Y1939468D02*
X1797134D01*
X1793134Y1935468D02*
Y1943468D01*
X1796838Y1943968D02*
X1796725Y1944280D01*
X1796497Y1944593*
X1796270Y1944749*
X1795816*
X1795588Y1944593*
X1795361Y1944280*
X1795247Y1943968*
X1795134Y1943499*
Y1942718*
X1795247Y1942249*
X1795361Y1941936*
X1795588Y1941624*
X1795816Y1941468*
X1796270*
X1796497Y1941624*
X1796725Y1941936*
X1796838Y1942249*
X1799134Y1939468D02*
X1807134D01*
X1803134Y1935468D02*
Y1943468D01*
X1806838Y1943968D02*
X1806725Y1944280D01*
X1806497Y1944593*
X1806270Y1944749*
X1805816*
X1805588Y1944593*
X1805361Y1944280*
X1805247Y1943968*
X1805134Y1943499*
Y1942718*
X1805247Y1942249*
X1805361Y1941936*
X1805588Y1941624*
X1805816Y1941468*
X1806270*
X1806497Y1941624*
X1806725Y1941936*
X1806838Y1942249*
X2415384Y1584468D02*
X2423384D01*
X2419384Y1580468D02*
Y1588468D01*
X2422293Y1589749D02*
X2421384Y1586468D01*
X2422293Y1589749D02*
X2423202Y1586468D01*
X2421725Y1587561D02*
X2422861D01*
X2375384Y1584468D02*
X2383384D01*
X2379384Y1580468D02*
Y1588468D01*
X2382293Y1589749D02*
X2381384Y1586468D01*
X2382293Y1589749D02*
X2383202Y1586468D01*
X2381725Y1587561D02*
X2382861D01*
X2307884Y1590468D02*
X2315884D01*
Y1598468*
X2307884*
Y1590468*
X2311884Y1594468D02*
Y1598468D01*
X2317884Y1590468D02*
X2325884D01*
Y1598468*
X2317884*
Y1590468*
X2321884Y1594468D02*
Y1598468D01*
X2327884Y1590468D02*
X2335884D01*
Y1598468*
X2327884*
Y1590468*
X2331884Y1594468D02*
Y1598468D01*
X2355384Y1592968D02*
X2363384D01*
Y1600968*
X2355384*
Y1592968*
X2359384Y1596968D02*
Y1600968D01*
X2355384Y1582968D02*
X2363384D01*
Y1590968*
X2355384*
Y1582968*
X2359384Y1586968D02*
Y1590968D01*
X2280384Y1584468D02*
X2288384D01*
X2284384Y1580468D02*
Y1588468D01*
X2287293Y1589749D02*
X2286384Y1586468D01*
X2287293Y1589749D02*
X2288202Y1586468D01*
X2286725Y1587561D02*
X2287861D01*
X2240384Y1584468D02*
X2248384D01*
X2244384Y1580468D02*
Y1588468D01*
X2247293Y1589749D02*
X2246384Y1586468D01*
X2247293Y1589749D02*
X2248202Y1586468D01*
X2246725Y1587561D02*
X2247861D01*
X2172884Y1590468D02*
X2180884D01*
Y1598468*
X2172884*
Y1590468*
X2176884Y1594468D02*
Y1598468D01*
X2182884Y1590468D02*
X2190884D01*
Y1598468*
X2182884*
Y1590468*
X2186884Y1594468D02*
Y1598468D01*
X2192884Y1590468D02*
X2200884D01*
Y1598468*
X2192884*
Y1590468*
X2196884Y1594468D02*
Y1598468D01*
X2220384Y1592968D02*
X2228384D01*
Y1600968*
X2220384*
Y1592968*
X2224384Y1596968D02*
Y1600968D01*
X2220384Y1582968D02*
X2228384D01*
Y1590968*
X2220384*
Y1582968*
X2224384Y1586968D02*
Y1590968D01*
X2147884Y1586968D02*
X2155884D01*
X2151884Y1582968D02*
Y1590968D01*
X2154793Y1592249D02*
X2153884Y1588968D01*
X2154793Y1592249D02*
X2155702Y1588968D01*
X2154225Y1590061D02*
X2155361D01*
X2107884Y1586968D02*
X2115884D01*
X2111884Y1582968D02*
Y1590968D01*
X2114793Y1592249D02*
X2113884Y1588968D01*
X2114793Y1592249D02*
X2115702Y1588968D01*
X2114225Y1590061D02*
X2115361D01*
X2040384Y1592968D02*
X2048384D01*
Y1600968*
X2040384*
Y1592968*
X2044384Y1596968D02*
Y1600968D01*
X2050384Y1592968D02*
X2058384D01*
Y1600968*
X2050384*
Y1592968*
X2054384Y1596968D02*
Y1600968D01*
X2060384Y1592968D02*
X2068384D01*
Y1600968*
X2060384*
Y1592968*
X2064384Y1596968D02*
Y1600968D01*
X2087884Y1592968D02*
X2095884D01*
Y1600968*
X2087884*
Y1592968*
X2091884Y1596968D02*
Y1600968D01*
X2087884Y1582968D02*
X2095884D01*
Y1590968*
X2087884*
Y1582968*
X2091884Y1586968D02*
Y1590968D01*
X1976684Y1710268D02*
X1984684D01*
Y1718268*
X1976684*
Y1710268*
X1980684Y1714268D02*
Y1718268D01*
X1976684Y1690268D02*
X1984684D01*
Y1698268*
X1976684*
Y1690268*
X1980684Y1694268D02*
Y1698268D01*
X2041880Y1544483D02*
X2049880Y1552483D01*
X2041880D02*
X2049880Y1544483D01*
X2375384Y1550068D02*
X2383384D01*
X2379384Y1546068D02*
Y1554068D01*
X2382293Y1555349D02*
X2381384Y1552068D01*
X2382293Y1555349D02*
X2383202Y1552068D01*
X2381725Y1553161D02*
X2382861D01*
X2457984Y1550068D02*
X2465984D01*
X2461984Y1546068D02*
Y1554068D01*
X2464893Y1555349D02*
X2463984Y1552068D01*
X2464893Y1555349D02*
X2465802Y1552068D01*
X2464325Y1553161D02*
X2465461D01*
X2257384Y1550468D02*
X2265384D01*
X2261384Y1546468D02*
Y1554468D01*
X2264293Y1555749D02*
X2263384Y1552468D01*
X2264293Y1555749D02*
X2265202Y1552468D01*
X2263725Y1553561D02*
X2264861D01*
X2174784Y1550468D02*
X2182784D01*
X2178784Y1546468D02*
Y1554468D01*
X2181693Y1555749D02*
X2180784Y1552468D01*
X2181693Y1555749D02*
X2182602Y1552468D01*
X2181125Y1553561D02*
X2182261D01*
X2257384Y1527968D02*
X2265384D01*
X2261384Y1523968D02*
Y1531968D01*
X2264293Y1533249D02*
X2263384Y1529968D01*
X2264293Y1533249D02*
X2265202Y1529968D01*
X2263725Y1531061D02*
X2264861D01*
X2174784Y1527968D02*
X2182784D01*
X2178784Y1523968D02*
Y1531968D01*
X2181693Y1533249D02*
X2180784Y1529968D01*
X2181693Y1533249D02*
X2182602Y1529968D01*
X2181125Y1531061D02*
X2182261D01*
X2147884Y1666768D02*
X2155884D01*
Y1674768*
X2147884*
Y1666768*
X2151884Y1670768D02*
Y1674768D01*
X2147884Y1646768D02*
X2155884D01*
Y1654768*
X2147884*
Y1646768*
X2151884Y1650768D02*
Y1654768D01*
X2218584Y1666768D02*
X2226584D01*
Y1674768*
X2218584*
Y1666768*
X2222584Y1670768D02*
Y1674768D01*
X2218584Y1646768D02*
X2226584D01*
Y1654768*
X2218584*
Y1646768*
X2222584Y1650768D02*
Y1654768D01*
X1716984Y1553268D02*
X1724984D01*
X1720984Y1549268D02*
Y1557268D01*
X1723893Y1558549D02*
X1722984Y1555268D01*
X1723893Y1558549D02*
X1724802Y1555268D01*
X1723325Y1556361D02*
X1724461D01*
X1716984Y1543268D02*
X1724984D01*
X1720984Y1539268D02*
Y1547268D01*
X1723893Y1548549D02*
X1722984Y1545268D01*
X1723893Y1548549D02*
X1724802Y1545268D01*
X1723325Y1546361D02*
X1724461D01*
X1716984Y1533268D02*
X1724984D01*
X1720984Y1529268D02*
Y1537268D01*
X1723893Y1538549D02*
X1722984Y1535268D01*
X1723893Y1538549D02*
X1724802Y1535268D01*
X1723325Y1536361D02*
X1724461D01*
X1739784Y1543268D02*
X1747784D01*
X1743784Y1539268D02*
Y1547268D01*
X1745784Y1548549D02*
Y1545268D01*
X1747375Y1548549D02*
Y1545268D01*
X1745784Y1546986D02*
X1747375D01*
X1669484Y1529768D02*
X1677484D01*
X1673484Y1525768D02*
Y1533768D01*
X1675484Y1535049D02*
Y1531768D01*
Y1535049D02*
X1676279D01*
X1676620Y1534893*
X1676847Y1534580*
X1676961Y1534268*
X1677075Y1533799*
Y1533018*
X1676961Y1532549*
X1676847Y1532236*
X1676620Y1531924*
X1676279Y1531768*
X1675484*
X1655484Y1529768D02*
X1663484D01*
X1659484Y1525768D02*
Y1533768D01*
X1661484Y1535049D02*
Y1531768D01*
Y1535049D02*
X1662279D01*
X1662620Y1534893*
X1662847Y1534580*
X1662961Y1534268*
X1663075Y1533799*
Y1533018*
X1662961Y1532549*
X1662847Y1532236*
X1662620Y1531924*
X1662279Y1531768*
X1661484*
X1669484Y1565768D02*
X1677484D01*
X1673484Y1561768D02*
Y1569768D01*
X1675484Y1571049D02*
Y1567768D01*
Y1571049D02*
X1676279D01*
X1676620Y1570893*
X1676847Y1570580*
X1676961Y1570268*
X1677075Y1569799*
Y1569018*
X1676961Y1568549*
X1676847Y1568236*
X1676620Y1567924*
X1676279Y1567768*
X1675484*
X1655484Y1565768D02*
X1663484D01*
X1659484Y1561768D02*
Y1569768D01*
X1661484Y1571049D02*
Y1567768D01*
Y1571049D02*
X1662279D01*
X1662620Y1570893*
X1662847Y1570580*
X1662961Y1570268*
X1663075Y1569799*
Y1569018*
X1662961Y1568549*
X1662847Y1568236*
X1662620Y1567924*
X1662279Y1567768*
X1661484*
X2415384Y1720368D02*
X2423384D01*
X2419384Y1716368D02*
Y1724368D01*
X2421384Y1725649D02*
Y1722368D01*
Y1725649D02*
X2422179D01*
X2422520Y1725493*
X2422747Y1725180*
X2422861Y1724868*
X2422975Y1724399*
Y1723618*
X2422861Y1723149*
X2422747Y1722836*
X2422520Y1722524*
X2422179Y1722368*
X2421384*
X2415384Y1700368D02*
X2423384D01*
X2419384Y1696368D02*
Y1704368D01*
X2421384Y1705649D02*
Y1702368D01*
Y1705649D02*
X2422179D01*
X2422520Y1705493*
X2422747Y1705180*
X2422861Y1704868*
X2422975Y1704399*
Y1703618*
X2422861Y1703149*
X2422747Y1702836*
X2422520Y1702524*
X2422179Y1702368*
X2421384*
X1676884Y1800868D02*
X1684884D01*
X1680884Y1796868D02*
Y1804868D01*
X1684020Y1806149D02*
Y1803649D01*
X1683906Y1803180*
X1683793Y1803024*
X1683566Y1802868*
X1683338*
X1683111Y1803024*
X1682997Y1803180*
X1682884Y1803649*
Y1803961*
X1676884Y1810868D02*
X1684884D01*
X1680884Y1806868D02*
Y1814868D01*
X1684020Y1816149D02*
Y1813649D01*
X1683906Y1813180*
X1683793Y1813024*
X1683566Y1812868*
X1683338*
X1683111Y1813024*
X1682997Y1813180*
X1682884Y1813649*
Y1813961*
X1621384Y1732568D02*
X1629384D01*
X1625384Y1728568D02*
Y1736568D01*
X1628293Y1737849D02*
X1627384Y1734568D01*
X1628293Y1737849D02*
X1629202Y1734568D01*
X1627725Y1735661D02*
X1628861D01*
X1977384Y1748468D02*
X1985384D01*
X1981384Y1744468D02*
Y1752468D01*
X1984293Y1753749D02*
X1983384Y1750468D01*
X1984293Y1753749D02*
X1985202Y1750468D01*
X1983725Y1751561D02*
X1984861D01*
X2347384Y1638468D02*
X2355384D01*
X2351384Y1634468D02*
Y1642468D01*
X2354293Y1643749D02*
X2353384Y1640468D01*
X2354293Y1643749D02*
X2355202Y1640468D01*
X2353725Y1641561D02*
X2354861D01*
X2157884Y1335168D02*
X2165884D01*
X2161884Y1331168D02*
Y1339168D01*
X2163884Y1340449D02*
Y1337168D01*
Y1340449D02*
X2164679D01*
X2165020Y1340293*
X2165247Y1339980*
X2165361Y1339668*
X2165475Y1339199*
Y1338418*
X2165361Y1337949*
X2165247Y1337636*
X2165020Y1337324*
X2164679Y1337168*
X2163884*
X2157884Y1321168D02*
X2165884D01*
X2161884Y1317168D02*
Y1325168D01*
X2163884Y1326449D02*
Y1323168D01*
Y1326449D02*
X2164679D01*
X2165020Y1326293*
X2165247Y1325980*
X2165361Y1325668*
X2165475Y1325199*
Y1324418*
X2165361Y1323949*
X2165247Y1323636*
X2165020Y1323324*
X2164679Y1323168*
X2163884*
X1605384Y1184468D02*
X1613384D01*
X1609384Y1180468D02*
Y1188468D01*
X1630384Y1184468D02*
X1638384D01*
X1634384Y1180468D02*
Y1188468D01*
X1655384Y1184468D02*
X1663384D01*
X1659384Y1180468D02*
Y1188468D01*
X1680384Y1184468D02*
X1688384D01*
X1684384Y1180468D02*
Y1188468D01*
X1705384Y1184468D02*
X1713384D01*
X1709384Y1180468D02*
Y1188468D01*
X1730384Y1184468D02*
X1738384D01*
X1734384Y1180468D02*
Y1188468D01*
X1755384Y1184468D02*
X1763384D01*
X1759384Y1180468D02*
Y1188468D01*
X1780384Y1184468D02*
X1788384D01*
X1784384Y1180468D02*
Y1188468D01*
X1805384Y1184468D02*
X1813384D01*
X1809384Y1180468D02*
Y1188468D01*
X1585384Y1194468D02*
X1593384D01*
X1589384Y1190468D02*
Y1198468D01*
X1605384Y1194468D02*
X1613384D01*
X1609384Y1190468D02*
Y1198468D01*
X1705384Y1209468D02*
X1713384D01*
X1709384Y1205468D02*
Y1213468D01*
X1565384Y1214468D02*
X1573384D01*
X1569384Y1210468D02*
Y1218468D01*
X1585384Y1214468D02*
X1593384D01*
X1589384Y1210468D02*
Y1218468D01*
X1545384Y1234468D02*
X1553384D01*
X1549384Y1230468D02*
Y1238468D01*
X1585384Y1234468D02*
X1593384D01*
X1589384Y1230468D02*
Y1238468D01*
X1525384Y1254468D02*
X1533384D01*
X1529384Y1250468D02*
Y1258468D01*
X1545384Y1254468D02*
X1553384D01*
X1549384Y1250468D02*
Y1258468D01*
X1585384Y1254468D02*
X1593384D01*
X1589384Y1250468D02*
Y1258468D01*
X1605384Y1254468D02*
X1613384D01*
X1609384Y1250468D02*
Y1258468D01*
X1705384Y1269468D02*
X1713384D01*
X1709384Y1265468D02*
Y1273468D01*
X1525384Y1274468D02*
X1533384D01*
X1529384Y1270468D02*
Y1278468D01*
X1545384Y1274468D02*
X1553384D01*
X1549384Y1270468D02*
Y1278468D01*
X1565384Y1274468D02*
X1573384D01*
X1569384Y1270468D02*
Y1278468D01*
X1585384Y1274468D02*
X1593384D01*
X1589384Y1270468D02*
Y1278468D01*
X1605384Y1274468D02*
X1613384D01*
X1609384Y1270468D02*
Y1278468D01*
X1685384Y1284468D02*
X1693384D01*
X1689384Y1280468D02*
Y1288468D01*
X1520384Y1299468D02*
X1528384D01*
X1524384Y1295468D02*
Y1303468D01*
X1605384Y1294468D02*
X1613384D01*
X1609384Y1290468D02*
Y1298468D01*
X1555384Y1309468D02*
X1563384D01*
X1559384Y1305468D02*
Y1313468D01*
X1590384Y1314468D02*
X1598384D01*
X1594384Y1310468D02*
Y1318468D01*
X1520384Y1324468D02*
X1528384D01*
X1524384Y1320468D02*
Y1328468D01*
X1525384Y1324468D02*
X1533384D01*
X1529384Y1320468D02*
Y1328468D01*
X1545384Y1329468D02*
X1553384D01*
X1549384Y1325468D02*
Y1333468D01*
X1590384Y1339468D02*
X1598384D01*
X1594384Y1335468D02*
Y1343468D01*
X1520384Y1349468D02*
X1528384D01*
X1524384Y1345468D02*
Y1353468D01*
X1525384Y1349468D02*
X1533384D01*
X1529384Y1345468D02*
Y1353468D01*
X1560384Y1344468D02*
X1568384D01*
X1564384Y1340468D02*
Y1348468D01*
X1545384Y1354468D02*
X1553384D01*
X1549384Y1350468D02*
Y1358468D01*
X1846634Y1366968D02*
X1854634D01*
X1850634Y1362968D02*
Y1370968D01*
X1520384Y1374468D02*
X1528384D01*
X1524384Y1370468D02*
Y1378468D01*
X1525384Y1374468D02*
X1533384D01*
X1529384Y1370468D02*
Y1378468D01*
X1545384Y1379468D02*
X1553384D01*
X1549384Y1375468D02*
Y1383468D01*
X1575384Y1379468D02*
X1583384D01*
X1579384Y1375468D02*
Y1383468D01*
X1600384Y1374468D02*
X1608384D01*
X1604384Y1370468D02*
Y1378468D01*
X1600384Y1379468D02*
X1608384D01*
X1604384Y1375468D02*
Y1383468D01*
X1610384Y1374468D02*
X1618384D01*
X1614384Y1370468D02*
Y1378468D01*
X1605384Y1374468D02*
X1613384D01*
X1609384Y1370468D02*
Y1378468D01*
X1605384Y1379468D02*
X1613384D01*
X1609384Y1375468D02*
Y1383468D01*
X1610384Y1379468D02*
X1618384D01*
X1614384Y1375468D02*
Y1383468D01*
X1600384Y1384468D02*
X1608384D01*
X1604384Y1380468D02*
Y1388468D01*
X1610384Y1384468D02*
X1618384D01*
X1614384Y1380468D02*
Y1388468D01*
X1605384Y1384468D02*
X1613384D01*
X1609384Y1380468D02*
Y1388468D01*
X1520384Y1399468D02*
X1528384D01*
X1524384Y1395468D02*
Y1403468D01*
X1525384Y1399468D02*
X1533384D01*
X1529384Y1395468D02*
Y1403468D01*
X1560384Y1394468D02*
X1568384D01*
X1564384Y1390468D02*
Y1398468D01*
X1575384Y1394468D02*
X1583384D01*
X1579384Y1390468D02*
Y1398468D01*
X1775384Y1519468D02*
X1783384D01*
X1779384Y1515468D02*
Y1523468D01*
X1815384Y1519468D02*
X1823384D01*
X1819384Y1515468D02*
Y1523468D01*
X1840384Y1519468D02*
X1848384D01*
X1844384Y1515468D02*
Y1523468D01*
X1865384Y1519468D02*
X1873384D01*
X1869384Y1515468D02*
Y1523468D01*
X1890384Y1519468D02*
X1898384D01*
X1894384Y1515468D02*
Y1523468D01*
X2459134Y1388218D02*
X2467134D01*
X2463134Y1384218D02*
Y1392218D01*
X2015384Y1519468D02*
X2023384D01*
X2019384Y1515468D02*
Y1523468D01*
X2025384Y1519468D02*
X2033384D01*
X2029384Y1515468D02*
Y1523468D01*
X2025384Y1529468D02*
X2033384D01*
X2029384Y1525468D02*
Y1533468D01*
X2065384Y1529468D02*
X2073384D01*
X2069384Y1525468D02*
Y1533468D01*
X2065384Y1519468D02*
X2073384D01*
X2069384Y1515468D02*
Y1523468D01*
X2055384Y1519468D02*
X2063384D01*
X2059384Y1515468D02*
Y1523468D01*
X2045384Y1519468D02*
X2053384D01*
X2049384Y1515468D02*
Y1523468D01*
X2035384Y1519468D02*
X2043384D01*
X2039384Y1515468D02*
Y1523468D01*
X2497884Y1473218D02*
X2505884D01*
X2501884Y1469218D02*
Y1477218D01*
X2497884Y1494468D02*
X2505884D01*
X2501884Y1490468D02*
Y1498468D01*
X2497884Y1515718D02*
X2505884D01*
X2501884Y1511718D02*
Y1519718D01*
X1583384Y1556468D02*
X1591384D01*
X1587384Y1552468D02*
Y1560468D01*
Y1552468D02*
X1595384D01*
X1591384Y1548468D02*
Y1556468D01*
X1784584Y1574568D02*
X1792584D01*
X1788584Y1570568D02*
Y1578568D01*
X1784784Y1586568D02*
X1792784D01*
X1788784Y1582568D02*
Y1590568D01*
X1783984Y1610568D02*
X1791984D01*
X1787984Y1606568D02*
Y1614568D01*
X1784384Y1598568D02*
X1792384D01*
X1788384Y1594568D02*
Y1602568D01*
X1855384Y1564468D02*
X1863384D01*
X1859384Y1560468D02*
Y1568468D01*
X1864384Y1602468D02*
X1872384D01*
X1868384Y1598468D02*
Y1606468D01*
X1864384Y1610468D02*
X1872384D01*
X1868384Y1606468D02*
Y1614468D01*
X1815384Y1549468D02*
X1823384D01*
X1819384Y1545468D02*
Y1553468D01*
X1840384Y1564468D02*
X1848384D01*
X1844384Y1560468D02*
Y1568468D01*
X1815384Y1564468D02*
X1823384D01*
X1819384Y1560468D02*
Y1568468D01*
X1840484Y1581068D02*
X1848484D01*
X1844484Y1577068D02*
Y1585068D01*
X1835684Y1552468D02*
X1843684D01*
X1839684Y1548468D02*
Y1556468D01*
X1824984Y1601068D02*
X1832984D01*
X1828984Y1597068D02*
Y1605068D01*
X1824984Y1596068D02*
X1832984D01*
X1828984Y1592068D02*
Y1600068D01*
X1839084Y1606068D02*
X1847084D01*
X1843084Y1602068D02*
Y1610068D01*
X1868784Y1546368D02*
X1876784D01*
X1872784Y1542368D02*
Y1550368D01*
X1823984Y1611068D02*
X1831984D01*
X1827984Y1607068D02*
Y1615068D01*
X1861984Y1585968D02*
X1869984D01*
X1865984Y1581968D02*
Y1589968D01*
X1811784Y1610568D02*
X1819784D01*
X1815784Y1606568D02*
Y1614568D01*
X1861984Y1596068D02*
X1869984D01*
X1865984Y1592068D02*
Y1600068D01*
X1907084Y1580668D02*
X1915084D01*
X1911084Y1576668D02*
Y1584668D01*
X1920384Y1544468D02*
X1928384D01*
X1924384Y1540468D02*
Y1548468D01*
X1910384Y1544468D02*
X1918384D01*
X1914384Y1540468D02*
Y1548468D01*
X1910384Y1564468D02*
X1918384D01*
X1914384Y1560468D02*
Y1568468D01*
X1900384Y1564468D02*
X1908384D01*
X1904384Y1560468D02*
Y1568468D01*
X1900384Y1544468D02*
X1908384D01*
X1904384Y1540468D02*
Y1548468D01*
X1880384Y1544468D02*
X1888384D01*
X1884384Y1540468D02*
Y1548468D01*
X1880384Y1564468D02*
X1888384D01*
X1884384Y1560468D02*
Y1568468D01*
X1890384Y1564468D02*
X1898384D01*
X1894384Y1560468D02*
Y1568468D01*
X1890384Y1544468D02*
X1898384D01*
X1894384Y1540468D02*
Y1548468D01*
X1899584Y1576468D02*
X1907584D01*
X1903584Y1572468D02*
Y1580468D01*
X1936384Y1596468D02*
X1944384D01*
X1940384Y1592468D02*
Y1600468D01*
X1948384*
X1944384Y1596468D02*
Y1604468D01*
X1888384Y1572468D02*
X1896384D01*
X1892384Y1568468D02*
Y1576468D01*
X1945384Y1570468D02*
X1953384D01*
X1949384Y1566468D02*
Y1574468D01*
X1941384D02*
X1949384D01*
X1945384Y1570468D02*
Y1578468D01*
X1937384D02*
X1945384D01*
X1941384Y1574468D02*
Y1582468D01*
X2000384Y1534468D02*
X2008384D01*
X2004384Y1530468D02*
Y1538468D01*
X2000384Y1544468D02*
X2008384D01*
X2004384Y1540468D02*
Y1548468D01*
X2010384Y1544468D02*
X2018384D01*
X2014384Y1540468D02*
Y1548468D01*
X2010384Y1564468D02*
X2018384D01*
X2014384Y1560468D02*
Y1568468D01*
X1990384Y1564468D02*
X1998384D01*
X1994384Y1560468D02*
Y1568468D01*
X2010384Y1599468D02*
X2018384D01*
X2014384Y1595468D02*
Y1603468D01*
X2005384Y1584468D02*
X2013384D01*
X2009384Y1580468D02*
Y1588468D01*
X1958584Y1563568D02*
X1966584D01*
X1962584Y1559568D02*
Y1567568D01*
X1950984Y1534868D02*
X1958984D01*
X1954984Y1530868D02*
Y1538868D01*
X2085384Y1564468D02*
X2093384D01*
X2089384Y1560468D02*
Y1568468D01*
X2085384Y1549468D02*
X2093384D01*
X2089384Y1545468D02*
Y1553468D01*
X2065384Y1549468D02*
X2073384D01*
X2069384Y1545468D02*
Y1553468D01*
X2065384Y1564468D02*
X2073384D01*
X2069384Y1560468D02*
Y1568468D01*
X2055384Y1584468D02*
X2063384D01*
X2059384Y1580468D02*
Y1588468D01*
X2030384Y1584468D02*
X2038384D01*
X2034384Y1580468D02*
Y1588468D01*
X2128584Y1563368D02*
X2136584D01*
X2132584Y1559368D02*
Y1567368D01*
X2141284Y1601968D02*
X2149284D01*
X2145284Y1597968D02*
Y1605968D01*
X2120984Y1534868D02*
X2128984D01*
X2124984Y1530868D02*
Y1538868D01*
X2239384Y1571068D02*
X2247384D01*
X2243384Y1567068D02*
Y1575068D01*
X2338184Y1556868D02*
X2346184D01*
X2342184Y1552868D02*
Y1560868D01*
X2324084Y1534868D02*
X2332084D01*
X2328084Y1530868D02*
Y1538868D01*
X2425384Y1574468D02*
X2433384D01*
X2429384Y1570468D02*
Y1578468D01*
X2425384Y1594468D02*
X2433384D01*
X2429384Y1590468D02*
Y1598468D01*
X2411584Y1611268D02*
X2419584D01*
X2415584Y1607268D02*
Y1615268D01*
X2480384Y1599468D02*
X2488384D01*
X2484384Y1595468D02*
Y1603468D01*
X2500384Y1539468D02*
X2508384D01*
X2504384Y1535468D02*
Y1543468D01*
X2495384Y1539468D02*
X2503384D01*
X2499384Y1535468D02*
Y1543468D01*
X2445384Y1574468D02*
X2453384D01*
X2449384Y1570468D02*
Y1578468D01*
X2489384Y1550468D02*
X2497384D01*
X2493384Y1546468D02*
Y1554468D01*
Y1605868D02*
X2501384D01*
X2497384Y1601868D02*
Y1609868D01*
X2457784Y1611268D02*
X2465784D01*
X2461784Y1607268D02*
Y1615268D01*
X1622384Y1663468D02*
X1630384D01*
X1626384Y1659468D02*
Y1667468D01*
X1602384Y1663468D02*
X1610384D01*
X1606384Y1659468D02*
Y1667468D01*
X1603284Y1675668D02*
X1611284D01*
X1607284Y1671668D02*
Y1679668D01*
X1599284D02*
X1607284D01*
X1603284Y1675668D02*
Y1683668D01*
X1595284D02*
X1603284D01*
X1599284Y1679668D02*
Y1687668D01*
X1669484Y1632468D02*
X1677484D01*
X1673484Y1628468D02*
Y1636468D01*
X1675484Y1637749D02*
Y1634468D01*
X1700384Y1663468D02*
X1708384D01*
X1704384Y1659468D02*
Y1667468D01*
X1680384Y1663468D02*
X1688384D01*
X1684384Y1659468D02*
Y1667468D01*
X1642384Y1663468D02*
X1650384D01*
X1646384Y1659468D02*
Y1667468D01*
X1696184Y1633168D02*
X1704184D01*
X1700184Y1629168D02*
Y1637168D01*
X1665384Y1688468D02*
X1673384D01*
X1669384Y1684468D02*
Y1692468D01*
X1686384Y1685468D02*
X1694384D01*
X1690384Y1681468D02*
Y1689468D01*
X1748584Y1694068D02*
X1756584D01*
X1752584Y1690068D02*
Y1698068D01*
X1754584Y1699349D02*
Y1696068D01*
X1760384Y1663468D02*
X1768384D01*
X1764384Y1659468D02*
Y1667468D01*
X1740384Y1663468D02*
X1748384D01*
X1744384Y1659468D02*
Y1667468D01*
X1720384Y1663468D02*
X1728384D01*
X1724384Y1659468D02*
Y1667468D01*
X1784884Y1662468D02*
X1792884D01*
X1788884Y1658468D02*
Y1666468D01*
X1714784Y1691468D02*
X1722784D01*
X1718784Y1687468D02*
Y1695468D01*
X1783384Y1622568D02*
X1791384D01*
X1787384Y1618568D02*
Y1626568D01*
X1842784Y1691268D02*
X1850784D01*
X1846784Y1687268D02*
Y1695268D01*
X1826384Y1693468D02*
X1834384D01*
X1830384Y1689468D02*
Y1697468D01*
X1864384Y1618468D02*
X1872384D01*
X1868384Y1614468D02*
Y1622468D01*
X1827384Y1662468D02*
X1835384D01*
X1831384Y1658468D02*
Y1666468D01*
X1848584Y1635668D02*
X1856584D01*
X1852584Y1631668D02*
Y1639668D01*
X1848584Y1662468D02*
X1856584D01*
X1852584Y1658468D02*
Y1666468D01*
X1814684Y1686568D02*
X1822684D01*
X1818684Y1682568D02*
Y1690568D01*
X1826684*
X1822684Y1686568D02*
Y1694568D01*
X1866484Y1625768D02*
X1874484D01*
X1870484Y1621768D02*
Y1629768D01*
X1862484D02*
X1870484D01*
X1866484Y1625768D02*
Y1633768D01*
X1874484*
X1870484Y1629768D02*
Y1637768D01*
X1811884Y1622568D02*
X1819884D01*
X1815884Y1618568D02*
Y1626568D01*
X1911784Y1626068D02*
X1919784D01*
X1915784Y1622068D02*
Y1630068D01*
X1900384Y1684468D02*
X1908384D01*
X1904384Y1680468D02*
Y1688468D01*
X1888384Y1684468D02*
X1896384D01*
X1892384Y1680468D02*
Y1688468D01*
X1888384Y1672468D02*
X1896384D01*
X1892384Y1668468D02*
Y1676468D01*
X1900384Y1672468D02*
X1908384D01*
X1904384Y1668468D02*
Y1676468D01*
X1912384Y1672468D02*
X1920384D01*
X1916384Y1668468D02*
Y1676468D01*
X1912384Y1684468D02*
X1920384D01*
X1916384Y1680468D02*
Y1688468D01*
X1878384Y1662468D02*
X1886384D01*
X1882384Y1658468D02*
Y1666468D01*
X1890284Y1626068D02*
X1898284D01*
X1894284Y1622068D02*
Y1630068D01*
X1941384Y1665468D02*
X1949384D01*
X1945384Y1661468D02*
Y1669468D01*
X1883984Y1637768D02*
X1891984D01*
X1887984Y1633768D02*
Y1641768D01*
X1923384Y1644468D02*
X1931384D01*
X1927384Y1640468D02*
Y1648468D01*
X1935384*
X1931384Y1644468D02*
Y1652468D01*
Y1644468D02*
X1939384D01*
X1935384Y1640468D02*
Y1648468D01*
X1990384Y1675868D02*
X1998384D01*
X1994384Y1671868D02*
Y1679868D01*
X1996384Y1681149D02*
Y1677868D01*
X1981884Y1647268D02*
X1989884D01*
X1985884Y1643268D02*
Y1651268D01*
X1955384Y1624468D02*
X1963384D01*
X1959384Y1620468D02*
Y1628468D01*
X1950384Y1624468D02*
X1958384D01*
X1954384Y1620468D02*
Y1628468D01*
X1950384Y1639468D02*
X1958384D01*
X1954384Y1635468D02*
Y1643468D01*
X1955384Y1639468D02*
X1963384D01*
X1959384Y1635468D02*
Y1643468D01*
X1975384Y1639468D02*
X1983384D01*
X1979384Y1635468D02*
Y1643468D01*
X1980384Y1639468D02*
X1988384D01*
X1984384Y1635468D02*
Y1643468D01*
X1980384Y1624468D02*
X1988384D01*
X1984384Y1620468D02*
Y1628468D01*
X1975384Y1624468D02*
X1983384D01*
X1979384Y1620468D02*
Y1628468D01*
X2010384Y1624468D02*
X2018384D01*
X2014384Y1620468D02*
Y1628468D01*
X2010384Y1639468D02*
X2018384D01*
X2014384Y1635468D02*
Y1643468D01*
X2010384Y1664468D02*
X2018384D01*
X2014384Y1660468D02*
Y1668468D01*
X1972184Y1682768D02*
X1980184D01*
X1976184Y1678768D02*
Y1686768D01*
X1972284Y1655868D02*
X1980284D01*
X1976284Y1651868D02*
Y1659868D01*
X1954484Y1675268D02*
X1962484D01*
X1958484Y1671268D02*
Y1679268D01*
X1959284Y1686668D02*
X1967284D01*
X1963284Y1682668D02*
Y1690668D01*
X2010984Y1683368D02*
X2018984D01*
X2014984Y1679368D02*
Y1687368D01*
X2022984*
X2018984Y1683368D02*
Y1691368D01*
X2050684Y1673268D02*
X2058684D01*
X2054684Y1669268D02*
Y1677268D01*
X2056684Y1678549D02*
Y1675268D01*
X2060384Y1624468D02*
X2068384D01*
X2064384Y1620468D02*
Y1628468D01*
X2040384Y1624468D02*
X2048384D01*
X2044384Y1620468D02*
Y1628468D01*
X2050384Y1624468D02*
X2058384D01*
X2054384Y1620468D02*
Y1628468D01*
X2050384Y1644468D02*
X2058384D01*
X2054384Y1640468D02*
Y1648468D01*
X2050384Y1634468D02*
X2058384D01*
X2054384Y1630468D02*
Y1638468D01*
X2030384Y1624468D02*
X2038384D01*
X2034384Y1620468D02*
Y1628468D01*
X2040384Y1634468D02*
X2048384D01*
X2044384Y1630468D02*
Y1638468D01*
X2035384Y1664468D02*
X2043384D01*
X2039384Y1660468D02*
Y1668468D01*
X2077984Y1628268D02*
X2085984D01*
X2081984Y1624268D02*
Y1632268D01*
X2044984Y1691368D02*
X2052984D01*
X2048984Y1687368D02*
Y1695368D01*
X2102884Y1678968D02*
X2110884D01*
X2106884Y1674968D02*
Y1682968D01*
X2041684Y1679268D02*
X2049684D01*
X2045684Y1675268D02*
Y1683268D01*
X2102884Y1623168D02*
X2110884D01*
X2106884Y1619168D02*
Y1627168D01*
X2117884Y1621868D02*
X2125884D01*
X2121884Y1617868D02*
Y1625868D01*
X2178384Y1677468D02*
X2186384D01*
X2182384Y1673468D02*
Y1681468D01*
X2132784Y1650468D02*
X2140784D01*
X2136784Y1646468D02*
Y1654468D01*
X2163384Y1650368D02*
X2171384D01*
X2167384Y1646368D02*
Y1654368D01*
X2147884Y1621968D02*
X2155884D01*
X2151884Y1617968D02*
Y1625968D01*
X2117884Y1678768D02*
X2125884D01*
X2121884Y1674768D02*
Y1682768D01*
X2169684Y1621668D02*
X2177684D01*
X2173684Y1617668D02*
Y1625668D01*
X2132884Y1678968D02*
X2140884D01*
X2136884Y1674968D02*
Y1682968D01*
X2162284Y1645368D02*
X2170284D01*
X2166284Y1641368D02*
Y1649368D01*
X2117884Y1650668D02*
X2125884D01*
X2121884Y1646668D02*
Y1654668D01*
X2248584Y1622068D02*
X2256584D01*
X2252584Y1618068D02*
Y1626068D01*
X2193884Y1670168D02*
X2201884D01*
X2197884Y1666168D02*
Y1674168D01*
X2248584Y1650768D02*
X2256584D01*
X2252584Y1646768D02*
Y1654768D01*
X2204384Y1640368D02*
X2212384D01*
X2208384Y1636368D02*
Y1644368D01*
X2233584Y1679968D02*
X2241584D01*
X2237584Y1675968D02*
Y1683968D01*
X2263584Y1623668D02*
X2271584D01*
X2267584Y1619668D02*
Y1627668D01*
X2263584Y1678568D02*
X2271584D01*
X2267584Y1674568D02*
Y1682568D01*
X2218584Y1621868D02*
X2226584D01*
X2222584Y1617868D02*
Y1625868D01*
X2196584Y1687368D02*
X2204584D01*
X2200584Y1683368D02*
Y1691368D01*
X2248584Y1677768D02*
X2256584D01*
X2252584Y1673768D02*
Y1681768D01*
X2268784Y1684068D02*
X2276784D01*
X2272784Y1680068D02*
Y1688068D01*
X2201884Y1645368D02*
X2209884D01*
X2205884Y1641368D02*
Y1649368D01*
X2233584Y1650868D02*
X2241584D01*
X2237584Y1646868D02*
Y1654868D01*
X2213084Y1615768D02*
X2221084D01*
X2217084Y1611768D02*
Y1619768D01*
X2288984Y1673168D02*
X2296984D01*
X2292984Y1669168D02*
Y1677168D01*
X2294984Y1678449D02*
Y1675168D01*
X2300384Y1624468D02*
X2308384D01*
X2304384Y1620468D02*
Y1628468D01*
X2325384Y1649468D02*
X2333384D01*
X2329384Y1645468D02*
Y1653468D01*
X2325384Y1624468D02*
X2333384D01*
X2329384Y1620468D02*
Y1628468D01*
X2286484Y1628268D02*
X2294484D01*
X2290484Y1624268D02*
Y1632268D01*
X2321784Y1691868D02*
X2329784D01*
X2325784Y1687868D02*
Y1695868D01*
X2400384Y1674468D02*
X2408384D01*
X2404384Y1670468D02*
Y1678468D01*
X2425384Y1674468D02*
X2433384D01*
X2429384Y1670468D02*
Y1678468D01*
X2425384Y1649468D02*
X2433384D01*
X2429384Y1645468D02*
Y1653468D01*
X2350384Y1624468D02*
X2358384D01*
X2354384Y1620468D02*
Y1628468D01*
X2375384Y1624468D02*
X2383384D01*
X2379384Y1620468D02*
Y1628468D01*
X2425384Y1624468D02*
X2433384D01*
X2429384Y1620468D02*
Y1628468D01*
X2400384Y1624468D02*
X2408384D01*
X2404384Y1620468D02*
Y1628468D01*
X2400384Y1649468D02*
X2408384D01*
X2404384Y1645468D02*
Y1653468D01*
X2375384Y1649468D02*
X2383384D01*
X2379384Y1645468D02*
Y1653468D01*
X2350384Y1649468D02*
X2358384D01*
X2354384Y1645468D02*
Y1653468D01*
X2350384Y1674468D02*
X2358384D01*
X2354384Y1670468D02*
Y1678468D01*
X2375384Y1674468D02*
X2383384D01*
X2379384Y1670468D02*
Y1678468D01*
X2450384Y1644468D02*
X2458384D01*
X2454384Y1640468D02*
Y1648468D01*
X2450384Y1629468D02*
X2458384D01*
X2454384Y1625468D02*
Y1633468D01*
X2465384Y1629468D02*
X2473384D01*
X2469384Y1625468D02*
Y1633468D01*
X2465384Y1614468D02*
X2473384D01*
X2469384Y1610468D02*
Y1618468D01*
X2480384Y1614468D02*
X2488384D01*
X2484384Y1610468D02*
Y1618468D01*
X1530384Y1699468D02*
X1538384D01*
X1534384Y1695468D02*
Y1703468D01*
X1530384Y1724468D02*
X1538384D01*
X1534384Y1720468D02*
Y1728468D01*
X1530384Y1749468D02*
X1538384D01*
X1534384Y1745468D02*
Y1753468D01*
X1605384Y1699468D02*
X1613384D01*
X1609384Y1695468D02*
Y1703468D01*
X1580384Y1699468D02*
X1588384D01*
X1584384Y1695468D02*
Y1703468D01*
X1580384Y1724468D02*
X1588384D01*
X1584384Y1720468D02*
Y1728468D01*
X1605384Y1724468D02*
X1613384D01*
X1609384Y1720468D02*
Y1728468D01*
X1580384Y1749468D02*
X1588384D01*
X1584384Y1745468D02*
Y1753468D01*
X1605384Y1749468D02*
X1613384D01*
X1609384Y1745468D02*
Y1753468D01*
X1555384Y1724468D02*
X1563384D01*
X1559384Y1720468D02*
Y1728468D01*
X1555384Y1749468D02*
X1563384D01*
X1559384Y1745468D02*
Y1753468D01*
X1657384Y1718068D02*
X1665384D01*
X1661384Y1714068D02*
Y1722068D01*
X1663384Y1723349D02*
Y1720068D01*
X1630384Y1724468D02*
X1638384D01*
X1634384Y1720468D02*
Y1728468D01*
X1630384Y1699468D02*
X1638384D01*
X1634384Y1695468D02*
Y1703468D01*
X1630384Y1749468D02*
X1638384D01*
X1634384Y1745468D02*
Y1753468D01*
X1657384Y1744468D02*
X1665384D01*
X1661384Y1740468D02*
Y1748468D01*
X1692184Y1744468D02*
X1700184D01*
X1696184Y1740468D02*
Y1748468D01*
X1686384Y1713568D02*
X1694384D01*
X1690384Y1709568D02*
Y1717568D01*
X1749084Y1756068D02*
X1757084D01*
X1753084Y1752068D02*
Y1760068D01*
X1755084Y1761349D02*
Y1758068D01*
X1721184Y1753568D02*
X1729184D01*
X1725184Y1749568D02*
Y1757568D01*
X1749384Y1736968D02*
X1757384D01*
X1753384Y1732968D02*
Y1740968D01*
X1778384Y1708468D02*
X1786384D01*
X1782384Y1704468D02*
Y1712468D01*
X1778384Y1722468D02*
X1786384D01*
X1782384Y1718468D02*
Y1726468D01*
X1770384Y1744468D02*
X1778384D01*
X1774384Y1740468D02*
Y1748468D01*
X1765384Y1744468D02*
X1773384D01*
X1769384Y1740468D02*
Y1748468D01*
X1761284Y1768068D02*
X1769284D01*
X1765284Y1764068D02*
Y1772068D01*
X1778084Y1696168D02*
X1786084D01*
X1782084Y1692168D02*
Y1700168D01*
X1748584Y1718068D02*
X1756584D01*
X1752584Y1714068D02*
Y1722068D01*
X1766984Y1725968D02*
X1774984D01*
X1770984Y1721968D02*
Y1729968D01*
X1788984Y1725468D02*
X1796984D01*
X1792984Y1721468D02*
Y1729468D01*
X1771984Y1764668D02*
X1779984D01*
X1775984Y1760668D02*
Y1768668D01*
X1783984*
X1779984Y1764668D02*
Y1772668D01*
X1842184Y1758668D02*
X1850184D01*
X1846184Y1754668D02*
Y1762668D01*
X1848184Y1763949D02*
Y1760668D01*
X1868384Y1759468D02*
X1876384D01*
X1872384Y1755468D02*
Y1763468D01*
X1798384Y1725468D02*
X1806384D01*
X1802384Y1721468D02*
Y1729468D01*
X1825384Y1727468D02*
X1833384D01*
X1829384Y1723468D02*
Y1731468D01*
X1836384Y1727468D02*
X1844384D01*
X1840384Y1723468D02*
Y1731468D01*
X1835384Y1744468D02*
X1843384D01*
X1839384Y1740468D02*
Y1748468D01*
X1825384Y1744468D02*
X1833384D01*
X1829384Y1740468D02*
Y1748468D01*
X1800384Y1744468D02*
X1808384D01*
X1804384Y1740468D02*
Y1748468D01*
X1790384Y1744468D02*
X1798384D01*
X1794384Y1740468D02*
Y1748468D01*
X1843284Y1699998D02*
X1851284D01*
X1847284Y1695998D02*
Y1703998D01*
X1806684Y1717268D02*
X1814684D01*
X1810684Y1713268D02*
Y1721268D01*
Y1713268D02*
X1818684D01*
X1814684Y1709268D02*
Y1717268D01*
X1866484Y1699368D02*
X1874484D01*
X1870484Y1695368D02*
Y1703368D01*
X1851184Y1764668D02*
X1859184D01*
X1855184Y1760668D02*
Y1768668D01*
X1863184*
X1859184Y1764668D02*
Y1772668D01*
X1851184D02*
X1859184D01*
X1855184Y1768668D02*
Y1776668D01*
X1900684Y1739568D02*
X1908684D01*
X1904684Y1735568D02*
Y1743568D01*
X1910384Y1759468D02*
X1918384D01*
X1914384Y1755468D02*
Y1763468D01*
X1905384Y1759468D02*
X1913384D01*
X1909384Y1755468D02*
Y1763468D01*
X1905384Y1764468D02*
X1913384D01*
X1909384Y1760468D02*
Y1768468D01*
X1910384Y1764468D02*
X1918384D01*
X1914384Y1760468D02*
Y1768468D01*
X1945384Y1739468D02*
X1953384D01*
X1949384Y1735468D02*
Y1743468D01*
X1945384Y1759468D02*
X1953384D01*
X1949384Y1755468D02*
Y1763468D01*
X1912384Y1696468D02*
X1920384D01*
X1916384Y1692468D02*
Y1700468D01*
X1900384Y1696468D02*
X1908384D01*
X1904384Y1692468D02*
Y1700468D01*
X1888384Y1696468D02*
X1896384D01*
X1892384Y1692468D02*
Y1700468D01*
X1915084Y1746168D02*
X1923084D01*
X1919084Y1742168D02*
Y1750168D01*
X1935284Y1727868D02*
X1943284D01*
X1939284Y1723868D02*
Y1731868D01*
X1938984Y1767168D02*
X1946984D01*
X1942984Y1763168D02*
Y1771168D01*
X1887284Y1719468D02*
X1895284D01*
X1891284Y1715468D02*
Y1723468D01*
X1894284Y1771168D02*
X1902284D01*
X1898284Y1767168D02*
Y1775168D01*
X1881884Y1742868D02*
X1889884D01*
X1885884Y1738868D02*
Y1746868D01*
Y1738868D02*
X1893884D01*
X1889884Y1734868D02*
Y1742868D01*
X1920184Y1711468D02*
X1928184D01*
X1924184Y1707468D02*
Y1715468D01*
X1942984Y1716068D02*
X1950984D01*
X1946984Y1712068D02*
Y1720068D01*
Y1712068D02*
X1954984D01*
X1950984Y1708068D02*
Y1716068D01*
X1877884Y1738868D02*
X1885884D01*
X1881884Y1734868D02*
Y1742868D01*
X1873884D02*
X1881884D01*
X1877884Y1738868D02*
Y1746868D01*
X1931284Y1731868D02*
X1939284D01*
X1935284Y1727868D02*
Y1735868D01*
X1927284D02*
X1935284D01*
X1931284Y1731868D02*
Y1739868D01*
X1923284D02*
X1931284D01*
X1927284Y1735868D02*
Y1743868D01*
X2020384Y1714468D02*
X2028384D01*
X2024384Y1710468D02*
Y1718468D01*
X1970384Y1739468D02*
X1978384D01*
X1974384Y1735468D02*
Y1743468D01*
X1985384Y1739468D02*
X1993384D01*
X1989384Y1735468D02*
Y1743468D01*
X1985384Y1759468D02*
X1993384D01*
X1989384Y1755468D02*
Y1763468D01*
X1970384Y1759468D02*
X1978384D01*
X1974384Y1755468D02*
Y1763468D01*
X2010384Y1749468D02*
X2018384D01*
X2014384Y1745468D02*
Y1753468D01*
X2010384Y1759468D02*
X2018384D01*
X2014384Y1755468D02*
Y1763468D01*
X2020384Y1759468D02*
X2028384D01*
X2024384Y1755468D02*
Y1763468D01*
X1991684Y1704268D02*
X1999684D01*
X1995684Y1700268D02*
Y1708268D01*
X2008484Y1728568D02*
X2016484D01*
X2012484Y1724568D02*
Y1732568D01*
X2014884Y1695368D02*
X2022884D01*
X2018884Y1691368D02*
Y1699368D01*
X2003984Y1724468D02*
X2011984D01*
X2007984Y1720468D02*
Y1728468D01*
X1955684Y1707268D02*
X1963684D01*
X1959684Y1703268D02*
Y1711268D01*
Y1711668D02*
X1967684D01*
X1963684Y1707668D02*
Y1715668D01*
X2053384Y1734468D02*
X2061384D01*
X2057384Y1730468D02*
Y1738468D01*
X2105384Y1704468D02*
X2113384D01*
X2109384Y1700468D02*
Y1708468D01*
X2090384Y1704468D02*
X2098384D01*
X2094384Y1700468D02*
Y1708468D01*
X2040384Y1714468D02*
X2048384D01*
X2044384Y1710468D02*
Y1718468D01*
X2094784Y1743668D02*
X2102784D01*
X2098784Y1739668D02*
Y1747668D01*
X2086184Y1716168D02*
X2094184D01*
X2090184Y1712168D02*
Y1720168D01*
X2059684Y1771168D02*
X2067684D01*
X2063684Y1767168D02*
Y1775168D01*
X2087784Y1731168D02*
X2095784D01*
X2091784Y1727168D02*
Y1735168D01*
X2078784Y1763168D02*
X2086784D01*
X2082784Y1759168D02*
Y1767168D01*
X2164984Y1756568D02*
X2172984D01*
X2168984Y1752568D02*
Y1760568D01*
X2170984Y1761849D02*
Y1758568D01*
X2140384Y1749468D02*
X2148384D01*
X2144384Y1745468D02*
Y1753468D01*
X2155384Y1749468D02*
X2163384D01*
X2159384Y1745468D02*
Y1753468D01*
X2155384Y1734468D02*
X2163384D01*
X2159384Y1730468D02*
Y1738468D01*
X2140384Y1734468D02*
X2148384D01*
X2144384Y1730468D02*
Y1738468D01*
X2140384Y1719468D02*
X2148384D01*
X2144384Y1715468D02*
Y1723468D01*
X2155384Y1719468D02*
X2163384D01*
X2159384Y1715468D02*
Y1723468D01*
X2155384Y1704468D02*
X2163384D01*
X2159384Y1700468D02*
Y1708468D01*
X2140384Y1704468D02*
X2148384D01*
X2144384Y1700468D02*
Y1708468D01*
X2120384Y1704468D02*
X2128384D01*
X2124384Y1700468D02*
Y1708468D01*
X2116084Y1743668D02*
X2124084D01*
X2120084Y1739668D02*
Y1747668D01*
X2123084Y1759168D02*
X2131084D01*
X2127084Y1755168D02*
Y1763168D01*
X2123284Y1726168D02*
X2131284D01*
X2127284Y1722168D02*
Y1730168D01*
X2123184Y1731168D02*
X2131184D01*
X2127184Y1727168D02*
Y1735168D01*
X2119084Y1755168D02*
X2127084D01*
X2123084Y1751168D02*
Y1759168D01*
X2225384Y1714468D02*
X2233384D01*
X2229384Y1710468D02*
Y1718468D01*
X2240384Y1714468D02*
X2248384D01*
X2244384Y1710468D02*
Y1718468D01*
X2255384Y1714468D02*
X2263384D01*
X2259384Y1710468D02*
Y1718468D01*
X2255384Y1734468D02*
X2263384D01*
X2259384Y1730468D02*
Y1738468D01*
X2255384Y1749468D02*
X2263384D01*
X2259384Y1745468D02*
Y1753468D01*
X2240384Y1749468D02*
X2248384D01*
X2244384Y1745468D02*
Y1753468D01*
X2229184Y1699568D02*
X2237184D01*
X2233184Y1695568D02*
Y1703568D01*
X2202884Y1704368D02*
X2210884D01*
X2206884Y1700368D02*
Y1708368D01*
X2339984Y1757068D02*
X2347984D01*
X2343984Y1753068D02*
Y1761068D01*
X2345984Y1762349D02*
Y1759068D01*
X2285384Y1754468D02*
X2293384D01*
X2289384Y1750468D02*
Y1758468D01*
X2315384Y1769468D02*
X2323384D01*
X2319384Y1765468D02*
Y1773468D01*
X2330384Y1729468D02*
X2338384D01*
X2334384Y1725468D02*
Y1733468D01*
X2325384Y1714468D02*
X2333384D01*
X2329384Y1710468D02*
Y1718468D01*
X2300384Y1719468D02*
X2308384D01*
X2304384Y1715468D02*
Y1723468D01*
X2329184Y1703268D02*
X2337184D01*
X2333184Y1699268D02*
Y1707268D01*
X2294384Y1753068D02*
X2302384D01*
X2298384Y1749068D02*
Y1757068D01*
X2294384Y1721268D02*
X2302384D01*
X2298384Y1717268D02*
Y1725268D01*
X2316984Y1746168D02*
X2324984D01*
X2320984Y1742168D02*
Y1750168D01*
X2316984Y1707968D02*
X2324984D01*
X2320984Y1703968D02*
Y1711968D01*
X2296284Y1764568D02*
X2304284D01*
X2300284Y1760568D02*
Y1768568D01*
X2322384Y1725468D02*
X2330384D01*
X2326384Y1721468D02*
Y1729468D01*
X2405384Y1754468D02*
X2413384D01*
X2409384Y1750468D02*
Y1758468D01*
X2405384Y1729468D02*
X2413384D01*
X2409384Y1725468D02*
Y1733468D01*
X2380384Y1729468D02*
X2388384D01*
X2384384Y1725468D02*
Y1733468D01*
X2380384Y1754468D02*
X2388384D01*
X2384384Y1750468D02*
Y1758468D01*
X2400384Y1694468D02*
X2408384D01*
X2404384Y1690468D02*
Y1698468D01*
X2369984Y1725868D02*
X2377984D01*
X2373984Y1721868D02*
Y1729868D01*
X2430384Y1729468D02*
X2438384D01*
X2434384Y1725468D02*
Y1733468D01*
X2430384Y1754468D02*
X2438384D01*
X2434384Y1750468D02*
Y1758468D01*
X2435384Y1694468D02*
X2443384D01*
X2439384Y1690468D02*
Y1698468D01*
X1520384Y1789468D02*
X1528384D01*
X1524384Y1785468D02*
Y1793468D01*
X1520384Y1814468D02*
X1528384D01*
X1524384Y1810468D02*
Y1818468D01*
X1520384Y1839468D02*
X1528384D01*
X1524384Y1835468D02*
Y1843468D01*
X1545384Y1839468D02*
X1553384D01*
X1549384Y1835468D02*
Y1843468D01*
X1545384Y1814468D02*
X1553384D01*
X1549384Y1810468D02*
Y1818468D01*
X1605384Y1799468D02*
X1613384D01*
X1609384Y1795468D02*
Y1803468D01*
X1605384Y1774468D02*
X1613384D01*
X1609384Y1770468D02*
Y1778468D01*
X1580384Y1774468D02*
X1588384D01*
X1584384Y1770468D02*
Y1778468D01*
X1555384Y1774468D02*
X1563384D01*
X1559384Y1770468D02*
Y1778468D01*
X1570384Y1839468D02*
X1578384D01*
X1574384Y1835468D02*
Y1843468D01*
X1685384Y1789468D02*
X1693384D01*
X1689384Y1785468D02*
Y1793468D01*
X1660384Y1789468D02*
X1668384D01*
X1664384Y1785468D02*
Y1793468D01*
X1680384Y1849468D02*
X1688384D01*
X1684384Y1845468D02*
Y1853468D01*
X1655384Y1849468D02*
X1663384D01*
X1659384Y1845468D02*
Y1853468D01*
X1655384Y1824468D02*
X1663384D01*
X1659384Y1820468D02*
Y1828468D01*
X1630384Y1824468D02*
X1638384D01*
X1634384Y1820468D02*
Y1828468D01*
X1630384Y1799468D02*
X1638384D01*
X1634384Y1795468D02*
Y1803468D01*
X1630384Y1774468D02*
X1638384D01*
X1634384Y1770468D02*
Y1778468D01*
X1692184Y1792868D02*
X1700184D01*
X1696184Y1788868D02*
Y1796868D01*
X1717384Y1776068D02*
X1725384D01*
X1721384Y1772068D02*
Y1780068D01*
X1723384Y1781349D02*
Y1778068D01*
X1741784Y1785668D02*
X1749784D01*
X1745784Y1781668D02*
Y1789668D01*
X1747784Y1790949D02*
Y1787668D01*
X1741784Y1827268D02*
X1749784D01*
X1745784Y1823268D02*
Y1831268D01*
X1755384Y1814468D02*
X1763384D01*
X1759384Y1810468D02*
Y1818468D01*
X1755384Y1829468D02*
X1763384D01*
X1759384Y1825468D02*
Y1833468D01*
X1770384Y1829468D02*
X1778384D01*
X1774384Y1825468D02*
Y1833468D01*
X1770384Y1794468D02*
X1778384D01*
X1774384Y1790468D02*
Y1798468D01*
X1771684Y1813268D02*
X1779684D01*
X1775684Y1809268D02*
Y1817268D01*
X1720584Y1826068D02*
X1728584D01*
X1724584Y1822068D02*
Y1830068D01*
X1714784Y1818168D02*
X1722784D01*
X1718784Y1814168D02*
Y1822168D01*
X1720984Y1808568D02*
X1728984D01*
X1724984Y1804568D02*
Y1812568D01*
X1720984Y1803568D02*
X1728984D01*
X1724984Y1799568D02*
Y1807568D01*
X1839184Y1811268D02*
X1847184D01*
X1843184Y1807268D02*
Y1815268D01*
X1845184Y1816549D02*
Y1813268D01*
X1800384Y1779468D02*
X1808384D01*
X1804384Y1775468D02*
Y1783468D01*
X1795384Y1779468D02*
X1803384D01*
X1799384Y1775468D02*
Y1783468D01*
X1830384Y1799468D02*
X1838384D01*
X1834384Y1795468D02*
Y1803468D01*
X1830384Y1784468D02*
X1838384D01*
X1834384Y1780468D02*
Y1788468D01*
X1860384Y1784468D02*
X1868384D01*
X1864384Y1780468D02*
Y1788468D01*
X1860384Y1799468D02*
X1868384D01*
X1864384Y1795468D02*
Y1803468D01*
X1860384Y1819468D02*
X1868384D01*
X1864384Y1815468D02*
Y1823468D01*
X1850384Y1844468D02*
X1858384D01*
X1854384Y1840468D02*
Y1848468D01*
X1838384Y1851268D02*
X1846384D01*
X1842384Y1847268D02*
Y1855268D01*
X1803384Y1844068D02*
X1811384D01*
X1807384Y1840068D02*
Y1848068D01*
X1798384Y1844068D02*
X1806384D01*
X1802384Y1840068D02*
Y1848068D01*
X1813384Y1792868D02*
X1821384D01*
X1817384Y1788868D02*
Y1796868D01*
X1798384Y1804868D02*
X1806384D01*
X1802384Y1800868D02*
Y1808868D01*
X1803384Y1800868D02*
X1811384D01*
X1807384Y1796868D02*
Y1804868D01*
X1808384Y1796868D02*
X1816384D01*
X1812384Y1792868D02*
Y1800868D01*
X1794384Y1788868D02*
X1802384D01*
X1798384Y1784868D02*
Y1792868D01*
X1790384Y1784868D02*
X1798384D01*
X1794384Y1780868D02*
Y1788868D01*
X1898284Y1805668D02*
X1906284D01*
X1902284Y1801668D02*
Y1809668D01*
X1945384Y1804468D02*
X1953384D01*
X1949384Y1800468D02*
Y1808468D01*
X1945384Y1779468D02*
X1953384D01*
X1949384Y1775468D02*
Y1783468D01*
X1900384Y1818468D02*
X1908384D01*
X1904384Y1814468D02*
Y1822468D01*
X1900384Y1828468D02*
X1908384D01*
X1904384Y1824468D02*
Y1832468D01*
X1911384Y1828468D02*
X1919384D01*
X1915384Y1824468D02*
Y1832468D01*
X1911384Y1818468D02*
X1919384D01*
X1915384Y1814468D02*
Y1822468D01*
X1911384Y1808468D02*
X1919384D01*
X1915384Y1804468D02*
Y1812468D01*
X1904384Y1789468D02*
X1912384D01*
X1908384Y1785468D02*
Y1793468D01*
X1911384Y1799468D02*
X1919384D01*
X1915384Y1795468D02*
Y1803468D01*
X1911384Y1789468D02*
X1919384D01*
X1915384Y1785468D02*
Y1793468D01*
X1911384Y1779468D02*
X1919384D01*
X1915384Y1775468D02*
Y1783468D01*
X1904384Y1779468D02*
X1912384D01*
X1908384Y1775468D02*
Y1783468D01*
X1892384Y1798468D02*
X1900384D01*
X1896384Y1794468D02*
Y1802468D01*
X1892384Y1784468D02*
X1900384D01*
X1896384Y1780468D02*
Y1788468D01*
X1877884Y1826868D02*
X1885884D01*
X1881884Y1822868D02*
Y1830868D01*
X1873884D02*
X1881884D01*
X1877884Y1826868D02*
Y1834868D01*
X1938884Y1814768D02*
X1946884D01*
X1942884Y1810768D02*
Y1818768D01*
X1934884D02*
X1942884D01*
X1938884Y1814768D02*
Y1822768D01*
X1930884D02*
X1938884D01*
X1934884Y1818768D02*
Y1826768D01*
X1998384Y1846468D02*
X2006384D01*
X2002384Y1842468D02*
Y1850468D01*
X2004384Y1851749D02*
Y1848468D01*
X2010384Y1784468D02*
X2018384D01*
X2014384Y1780468D02*
Y1788468D01*
X2020384Y1784468D02*
X2028384D01*
X2024384Y1780468D02*
Y1788468D01*
X2020384Y1804468D02*
X2028384D01*
X2024384Y1800468D02*
Y1808468D01*
X2010384Y1804468D02*
X2018384D01*
X2014384Y1800468D02*
Y1808468D01*
X1970384Y1784468D02*
X1978384D01*
X1974384Y1780468D02*
Y1788468D01*
X1985384Y1784468D02*
X1993384D01*
X1989384Y1780468D02*
Y1788468D01*
X1985384Y1804468D02*
X1993384D01*
X1989384Y1800468D02*
Y1808468D01*
X1970384Y1804468D02*
X1978384D01*
X1974384Y1800468D02*
Y1808468D01*
X2020384Y1844468D02*
X2028384D01*
X2024384Y1840468D02*
Y1848468D01*
X2015384Y1849468D02*
X2023384D01*
X2019384Y1845468D02*
Y1853468D01*
X2010384Y1844468D02*
X2018384D01*
X2014384Y1840468D02*
Y1848468D01*
X1955684Y1830768D02*
X1963684D01*
X1959684Y1826768D02*
Y1834768D01*
Y1826768D02*
X1967684D01*
X1963684Y1822768D02*
Y1830768D01*
X2072384Y1774468D02*
X2080384D01*
X2076384Y1770468D02*
Y1778468D01*
X2095384Y1794468D02*
X2103384D01*
X2099384Y1790468D02*
Y1798468D01*
X2050384Y1784468D02*
X2058384D01*
X2054384Y1780468D02*
Y1788468D01*
X2040384Y1784468D02*
X2048384D01*
X2044384Y1780468D02*
Y1788468D01*
X2040384Y1804468D02*
X2048384D01*
X2044384Y1800468D02*
Y1808468D01*
X2050784Y1812668D02*
X2058784D01*
X2054784Y1808668D02*
Y1816668D01*
X2050784Y1850268D02*
X2058784D01*
X2054784Y1846268D02*
Y1854268D01*
X2107684Y1792768D02*
X2115684D01*
X2111684Y1788768D02*
Y1796768D01*
X2068384Y1837368D02*
X2076384D01*
X2072384Y1833368D02*
Y1841368D01*
X2074384Y1842649D02*
Y1839368D01*
X2075975Y1842649D02*
X2074384Y1840461D01*
X2074952Y1841243D02*
X2075975Y1839368D01*
X2080184Y1813368D02*
X2088184D01*
X2084184Y1809368D02*
Y1817368D01*
X2086184Y1818649D02*
Y1815368D01*
X2087775Y1818649D02*
X2086184Y1816461D01*
X2086752Y1817243D02*
X2087775Y1815368D01*
X2103184Y1827468D02*
X2111184D01*
X2107184Y1823468D02*
Y1831468D01*
X2109184Y1832749D02*
Y1829468D01*
X2110775Y1832749D02*
X2109184Y1830561D01*
X2109752Y1831343D02*
X2110775Y1829468D01*
X2080184Y1841368D02*
X2088184D01*
X2084184Y1837368D02*
Y1845368D01*
X2086184Y1846649D02*
Y1843368D01*
X2087775Y1846649D02*
X2086184Y1844461D01*
X2086752Y1845243D02*
X2087775Y1843368D01*
X2084184Y1837368D02*
X2092184D01*
X2088184Y1833368D02*
Y1841368D01*
X2090184Y1842649D02*
Y1839368D01*
X2091775Y1842649D02*
X2090184Y1840461D01*
X2090752Y1841243D02*
X2091775Y1839368D01*
X2088184Y1833368D02*
X2096184D01*
X2092184Y1829368D02*
Y1837368D01*
X2094184Y1838649D02*
Y1835368D01*
X2095775Y1838649D02*
X2094184Y1836461D01*
X2094752Y1837243D02*
X2095775Y1835368D01*
X2092184Y1829368D02*
X2100184D01*
X2096184Y1825368D02*
Y1833368D01*
X2098184Y1834649D02*
Y1831368D01*
X2099775Y1834649D02*
X2098184Y1832461D01*
X2098752Y1833243D02*
X2099775Y1831368D01*
X2088184Y1821368D02*
X2096184D01*
X2092184Y1817368D02*
Y1825368D01*
X2094184Y1826649D02*
Y1823368D01*
X2095775Y1826649D02*
X2094184Y1824461D01*
X2094752Y1825243D02*
X2095775Y1823368D01*
X2084184Y1817368D02*
X2092184D01*
X2088184Y1813368D02*
Y1821368D01*
X2090184Y1822649D02*
Y1819368D01*
X2091775Y1822649D02*
X2090184Y1820461D01*
X2090752Y1821243D02*
X2091775Y1819368D01*
X2170384Y1794468D02*
X2178384D01*
X2174384Y1790468D02*
Y1798468D01*
X2145384Y1794468D02*
X2153384D01*
X2149384Y1790468D02*
Y1798468D01*
X2120384Y1794468D02*
X2128384D01*
X2124384Y1790468D02*
Y1798468D01*
X2187784Y1792268D02*
X2195784D01*
X2191784Y1788268D02*
Y1796268D01*
X2193784Y1797549D02*
Y1794268D01*
X2195375Y1797549D02*
X2193784Y1795361D01*
X2194352Y1796143D02*
X2195375Y1794268D01*
X2175184Y1827468D02*
X2183184D01*
X2179184Y1823468D02*
Y1831468D01*
X2181184Y1832749D02*
Y1829468D01*
X2182775Y1832749D02*
X2181184Y1830561D01*
X2181752Y1831343D02*
X2182775Y1829468D01*
X2187884Y1852268D02*
X2195884D01*
X2191884Y1848268D02*
Y1856268D01*
X2193884Y1857549D02*
Y1854268D01*
X2195475Y1857549D02*
X2193884Y1855361D01*
X2194452Y1856143D02*
X2195475Y1854268D01*
X2115184Y1827468D02*
X2123184D01*
X2119184Y1823468D02*
Y1831468D01*
X2121184Y1832749D02*
Y1829468D01*
X2122775Y1832749D02*
X2121184Y1830561D01*
X2121752Y1831343D02*
X2122775Y1829468D01*
X2127184Y1827468D02*
X2135184D01*
X2131184Y1823468D02*
Y1831468D01*
X2133184Y1832749D02*
Y1829468D01*
X2134775Y1832749D02*
X2133184Y1830561D01*
X2133752Y1831343D02*
X2134775Y1829468D01*
X2187884Y1840268D02*
X2195884D01*
X2191884Y1836268D02*
Y1844268D01*
X2193884Y1845549D02*
Y1842268D01*
X2195475Y1845549D02*
X2193884Y1843361D01*
X2194452Y1844143D02*
X2195475Y1842268D01*
X2187784Y1828268D02*
X2195784D01*
X2191784Y1824268D02*
Y1832268D01*
X2193784Y1833549D02*
Y1830268D01*
X2195375Y1833549D02*
X2193784Y1831361D01*
X2194352Y1832143D02*
X2195375Y1830268D01*
X2139184Y1827468D02*
X2147184D01*
X2143184Y1823468D02*
Y1831468D01*
X2145184Y1832749D02*
Y1829468D01*
X2146775Y1832749D02*
X2145184Y1830561D01*
X2145752Y1831343D02*
X2146775Y1829468D01*
X2151184Y1827468D02*
X2159184D01*
X2155184Y1823468D02*
Y1831468D01*
X2157184Y1832749D02*
Y1829468D01*
X2158775Y1832749D02*
X2157184Y1830561D01*
X2157752Y1831343D02*
X2158775Y1829468D01*
X2187484Y1816268D02*
X2195484D01*
X2191484Y1812268D02*
Y1820268D01*
X2193484Y1821549D02*
Y1818268D01*
X2195075Y1821549D02*
X2193484Y1819361D01*
X2194052Y1820143D02*
X2195075Y1818268D01*
X2163184Y1827468D02*
X2171184D01*
X2167184Y1823468D02*
Y1831468D01*
X2169184Y1832749D02*
Y1829468D01*
X2170775Y1832749D02*
X2169184Y1830561D01*
X2169752Y1831343D02*
X2170775Y1829468D01*
X2187884Y1804268D02*
X2195884D01*
X2191884Y1800268D02*
Y1808268D01*
X2193884Y1809549D02*
Y1806268D01*
X2195475Y1809549D02*
X2193884Y1807361D01*
X2194452Y1808143D02*
X2195475Y1806268D01*
X2235384Y1844468D02*
X2243384D01*
X2239384Y1840468D02*
Y1848468D01*
X2255384Y1809468D02*
X2263384D01*
X2259384Y1805468D02*
Y1813468D01*
X2255384Y1799468D02*
X2263384D01*
X2259384Y1795468D02*
Y1803468D01*
X2250784Y1850268D02*
X2258784D01*
X2254784Y1846268D02*
Y1854268D01*
X2250784Y1811968D02*
X2258784D01*
X2254784Y1807968D02*
Y1815968D01*
X2325384Y1784468D02*
X2333384D01*
X2329384Y1780468D02*
Y1788468D01*
X2300384Y1784468D02*
X2308384D01*
X2304384Y1780468D02*
Y1788468D01*
X2275384Y1784468D02*
X2283384D01*
X2279384Y1780468D02*
Y1788468D01*
X2275384Y1794468D02*
X2283384D01*
X2279384Y1790468D02*
Y1798468D01*
X2300384Y1794468D02*
X2308384D01*
X2304384Y1790468D02*
Y1798468D01*
X2325384Y1794468D02*
X2333384D01*
X2329384Y1790468D02*
Y1798468D01*
X2280184Y1813368D02*
X2288184D01*
X2284184Y1809368D02*
Y1817368D01*
X2286184Y1818649D02*
Y1815368D01*
X2287775Y1818649D02*
X2286184Y1816461D01*
X2286752Y1817243D02*
X2287775Y1815368D01*
X2284184Y1817368D02*
X2292184D01*
X2288184Y1813368D02*
Y1821368D01*
X2290184Y1822649D02*
Y1819368D01*
X2291775Y1822649D02*
X2290184Y1820461D01*
X2290752Y1821243D02*
X2291775Y1819368D01*
X2288184Y1821368D02*
X2296184D01*
X2292184Y1817368D02*
Y1825368D01*
X2294184Y1826649D02*
Y1823368D01*
X2295775Y1826649D02*
X2294184Y1824461D01*
X2294752Y1825243D02*
X2295775Y1823368D01*
X2339184Y1827468D02*
X2347184D01*
X2343184Y1823468D02*
Y1831468D01*
X2345184Y1832749D02*
Y1829468D01*
X2346775Y1832749D02*
X2345184Y1830561D01*
X2345752Y1831343D02*
X2346775Y1829468D01*
X2292184Y1829368D02*
X2300184D01*
X2296184Y1825368D02*
Y1833368D01*
X2298184Y1834649D02*
Y1831368D01*
X2299775Y1834649D02*
X2298184Y1832461D01*
X2298752Y1833243D02*
X2299775Y1831368D01*
X2327184Y1827468D02*
X2335184D01*
X2331184Y1823468D02*
Y1831468D01*
X2333184Y1832749D02*
Y1829468D01*
X2334775Y1832749D02*
X2333184Y1830561D01*
X2333752Y1831343D02*
X2334775Y1829468D01*
X2288184Y1833368D02*
X2296184D01*
X2292184Y1829368D02*
Y1837368D01*
X2294184Y1838649D02*
Y1835368D01*
X2295775Y1838649D02*
X2294184Y1836461D01*
X2294752Y1837243D02*
X2295775Y1835368D01*
X2284184Y1837368D02*
X2292184D01*
X2288184Y1833368D02*
Y1841368D01*
X2290184Y1842649D02*
Y1839368D01*
X2291775Y1842649D02*
X2290184Y1840461D01*
X2290752Y1841243D02*
X2291775Y1839368D01*
X2315184Y1827468D02*
X2323184D01*
X2319184Y1823468D02*
Y1831468D01*
X2321184Y1832749D02*
Y1829468D01*
X2322775Y1832749D02*
X2321184Y1830561D01*
X2321752Y1831343D02*
X2322775Y1829468D01*
X2303184Y1827468D02*
X2311184D01*
X2307184Y1823468D02*
Y1831468D01*
X2280184Y1841368D02*
X2288184D01*
X2284184Y1837368D02*
Y1845368D01*
X2286184Y1846649D02*
Y1843368D01*
X2287775Y1846649D02*
X2286184Y1844461D01*
X2286752Y1845243D02*
X2287775Y1843368D01*
X2375384Y1794468D02*
X2383384D01*
X2379384Y1790468D02*
Y1798468D01*
X2350384Y1794468D02*
X2358384D01*
X2354384Y1790468D02*
Y1798468D01*
X2350384Y1779468D02*
X2358384D01*
X2354384Y1775468D02*
Y1783468D01*
X2375384Y1779468D02*
X2383384D01*
X2379384Y1775468D02*
Y1783468D01*
X2400384Y1779468D02*
X2408384D01*
X2404384Y1775468D02*
Y1783468D01*
X2425384Y1779468D02*
X2433384D01*
X2429384Y1775468D02*
Y1783468D01*
X2387784Y1792268D02*
X2395784D01*
X2391784Y1788268D02*
Y1796268D01*
X2393784Y1797549D02*
Y1794268D01*
X2395375Y1797549D02*
X2393784Y1795361D01*
X2394352Y1796143D02*
X2395375Y1794268D01*
X2375184Y1827468D02*
X2383184D01*
X2379184Y1823468D02*
Y1831468D01*
X2381184Y1832749D02*
Y1829468D01*
X2382775Y1832749D02*
X2381184Y1830561D01*
X2381752Y1831343D02*
X2382775Y1829468D01*
X2363184Y1827468D02*
X2371184D01*
X2367184Y1823468D02*
Y1831468D01*
X2369184Y1832749D02*
Y1829468D01*
X2370775Y1832749D02*
X2369184Y1830561D01*
X2369752Y1831343D02*
X2370775Y1829468D01*
X2387884Y1804268D02*
X2395884D01*
X2391884Y1800268D02*
Y1808268D01*
X2393884Y1809549D02*
Y1806268D01*
X2395475Y1809549D02*
X2393884Y1807361D01*
X2394452Y1808143D02*
X2395475Y1806268D01*
X2387484Y1816268D02*
X2395484D01*
X2391484Y1812268D02*
Y1820268D01*
X2393484Y1821549D02*
Y1818268D01*
X2395075Y1821549D02*
X2393484Y1819361D01*
X2394052Y1820143D02*
X2395075Y1818268D01*
X2351184Y1827468D02*
X2359184D01*
X2355184Y1823468D02*
Y1831468D01*
X2357184Y1832749D02*
Y1829468D01*
X2358775Y1832749D02*
X2357184Y1830561D01*
X2357752Y1831343D02*
X2358775Y1829468D01*
X2387784Y1828268D02*
X2395784D01*
X2391784Y1824268D02*
Y1832268D01*
X2393784Y1833549D02*
Y1830268D01*
X2395375Y1833549D02*
X2393784Y1831361D01*
X2394352Y1832143D02*
X2395375Y1830268D01*
X2387884Y1840268D02*
X2395884D01*
X2391884Y1836268D02*
Y1844268D01*
X2393884Y1845549D02*
Y1842268D01*
X2395475Y1845549D02*
X2393884Y1843361D01*
X2394452Y1844143D02*
X2395475Y1842268D01*
X2387884Y1852268D02*
X2395884D01*
X2391884Y1848268D02*
Y1856268D01*
X2393884Y1857549D02*
Y1854268D01*
X2395475Y1857549D02*
X2393884Y1855361D01*
X2394452Y1856143D02*
X2395475Y1854268D01*
X2550384Y1834468D02*
X2558384D01*
X2554384Y1830468D02*
Y1838468D01*
X2545384Y1834468D02*
X2553384D01*
X2549384Y1830468D02*
Y1838468D01*
X2540384Y1834468D02*
X2548384D01*
X2544384Y1830468D02*
Y1838468D01*
X2550384Y1839468D02*
X2558384D01*
X2554384Y1835468D02*
Y1843468D01*
X2545384Y1839468D02*
X2553384D01*
X2549384Y1835468D02*
Y1843468D01*
X2540384Y1839468D02*
X2548384D01*
X2544384Y1835468D02*
Y1843468D01*
X2550384Y1844468D02*
X2558384D01*
X2554384Y1840468D02*
Y1848468D01*
X2545384Y1844468D02*
X2553384D01*
X2549384Y1840468D02*
Y1848468D01*
X2540384Y1844468D02*
X2548384D01*
X2544384Y1840468D02*
Y1848468D01*
X2540384Y1849468D02*
X2548384D01*
X2544384Y1845468D02*
Y1853468D01*
X2545384Y1849468D02*
X2553384D01*
X2549384Y1845468D02*
Y1853468D01*
X2550384Y1849468D02*
X2558384D01*
X2554384Y1845468D02*
Y1853468D01*
X2540384Y1809468D02*
X2548384D01*
X2544384Y1805468D02*
Y1813468D01*
X2545384Y1809468D02*
X2553384D01*
X2549384Y1805468D02*
Y1813468D01*
X2550384Y1809468D02*
X2558384D01*
X2554384Y1805468D02*
Y1813468D01*
X2550384Y1804468D02*
X2558384D01*
X2554384Y1800468D02*
Y1808468D01*
X2545384Y1804468D02*
X2553384D01*
X2549384Y1800468D02*
Y1808468D01*
X2540384Y1804468D02*
X2548384D01*
X2544384Y1800468D02*
Y1808468D01*
X2540384Y1799468D02*
X2548384D01*
X2544384Y1795468D02*
Y1803468D01*
X2545384Y1799468D02*
X2553384D01*
X2549384Y1795468D02*
Y1803468D01*
X2550384Y1799468D02*
X2558384D01*
X2554384Y1795468D02*
Y1803468D01*
X2550384Y1794468D02*
X2558384D01*
X2554384Y1790468D02*
Y1798468D01*
X2545384Y1794468D02*
X2553384D01*
X2549384Y1790468D02*
Y1798468D01*
X2540384Y1794468D02*
X2548384D01*
X2544384Y1790468D02*
Y1798468D01*
X2540384Y1789468D02*
X2548384D01*
X2544384Y1785468D02*
Y1793468D01*
X2545384Y1789468D02*
X2553384D01*
X2549384Y1785468D02*
Y1793468D01*
X2550384Y1789468D02*
X2558384D01*
X2554384Y1785468D02*
Y1793468D01*
X2550384Y1784468D02*
X2558384D01*
X2554384Y1780468D02*
Y1788468D01*
X2545384Y1784468D02*
X2553384D01*
X2549384Y1780468D02*
Y1788468D01*
X2540384Y1784468D02*
X2548384D01*
X2544384Y1780468D02*
Y1788468D01*
X2516634Y1845718D02*
X2524634D01*
X2520634Y1841718D02*
Y1849718D01*
X1545384Y1889468D02*
X1553384D01*
X1549384Y1885468D02*
Y1893468D01*
X1520384Y1864468D02*
X1528384D01*
X1524384Y1860468D02*
Y1868468D01*
X1545384Y1864468D02*
X1553384D01*
X1549384Y1860468D02*
Y1868468D01*
X1570384Y1864468D02*
X1578384D01*
X1574384Y1860468D02*
Y1868468D01*
X1595384Y1864468D02*
X1603384D01*
X1599384Y1860468D02*
Y1868468D01*
X1595384Y1889468D02*
X1603384D01*
X1599384Y1885468D02*
Y1893468D01*
X1595384Y1914468D02*
X1603384D01*
X1599384Y1910468D02*
Y1918468D01*
X1570384Y1914468D02*
X1578384D01*
X1574384Y1910468D02*
Y1918468D01*
X1570384Y1889468D02*
X1578384D01*
X1574384Y1885468D02*
Y1893468D01*
X1619884Y1875168D02*
X1627884D01*
X1623884Y1871168D02*
Y1879168D01*
X1619884Y1855968D02*
X1627884D01*
X1623884Y1851968D02*
Y1859968D01*
X1607884Y1909168D02*
X1615884D01*
X1611884Y1905168D02*
Y1913168D01*
X1680384Y1874468D02*
X1688384D01*
X1684384Y1870468D02*
Y1878468D01*
X1639384Y1876468D02*
X1647384D01*
X1643384Y1872468D02*
Y1880468D01*
X1650884Y1892568D02*
X1658884D01*
X1654884Y1888568D02*
Y1896568D01*
X1651084Y1917868D02*
X1659084D01*
X1655084Y1913868D02*
Y1921868D01*
X1781284Y1917368D02*
X1789284D01*
X1785284Y1913368D02*
Y1921368D01*
Y1913368D02*
X1793284D01*
X1789284Y1909368D02*
Y1917368D01*
X1850384Y1859468D02*
X1858384D01*
X1854384Y1855468D02*
Y1863468D01*
X1850384Y1884468D02*
X1858384D01*
X1854384Y1880468D02*
Y1888468D01*
X1859884Y1903968D02*
X1867884D01*
X1863884Y1899968D02*
Y1907968D01*
X1843884Y1903968D02*
X1851884D01*
X1847884Y1899968D02*
Y1907968D01*
X1807384Y1903968D02*
X1815384D01*
X1811384Y1899968D02*
Y1907968D01*
X1862384Y1916468D02*
X1870384D01*
X1866384Y1912468D02*
Y1920468D01*
X1799684Y1879368D02*
X1807684D01*
X1803684Y1875368D02*
Y1883368D01*
X1823684Y1878068D02*
X1831684D01*
X1827684Y1874068D02*
Y1882068D01*
X1824584Y1925368D02*
X1832584D01*
X1828584Y1921368D02*
Y1929368D01*
X1833984Y1924768D02*
X1841984D01*
X1837984Y1920768D02*
Y1928768D01*
X1925384Y1914468D02*
X1933384D01*
X1929384Y1910468D02*
Y1918468D01*
X1875384Y1859468D02*
X1883384D01*
X1879384Y1855468D02*
Y1863468D01*
X1875384Y1884468D02*
X1883384D01*
X1879384Y1880468D02*
Y1888468D01*
X1906884Y1903968D02*
X1914884D01*
X1910884Y1899968D02*
Y1907968D01*
X1892384Y1903968D02*
X1900384D01*
X1896384Y1899968D02*
Y1907968D01*
X1876884Y1903968D02*
X1884884D01*
X1880884Y1899968D02*
Y1907968D01*
X1902384Y1916468D02*
X1910384D01*
X1906384Y1912468D02*
Y1920468D01*
X1882384Y1916468D02*
X1890384D01*
X1886384Y1912468D02*
Y1920468D01*
X1892184Y1885368D02*
X1900184D01*
X1896184Y1881368D02*
Y1889368D01*
X1914684Y1876268D02*
X1922684D01*
X1918684Y1872268D02*
Y1880268D01*
X1898584Y1867868D02*
X1906584D01*
X1902584Y1863868D02*
Y1871868D01*
X1884384Y1857868D02*
X1892384D01*
X1888384Y1853868D02*
Y1861868D01*
X1885184Y1872868D02*
X1893184D01*
X1889184Y1868868D02*
Y1876868D01*
X1915784Y1909368D02*
X1923784D01*
X1919784Y1905368D02*
Y1913368D01*
X1929084Y1873268D02*
X1937084D01*
X1933084Y1869268D02*
Y1877268D01*
X1941684Y1873168D02*
X1949684D01*
X1945684Y1869168D02*
Y1877168D01*
X2015384Y1894468D02*
X2023384D01*
X2019384Y1890468D02*
Y1898468D01*
X2010384Y1909468D02*
X2018384D01*
X2014384Y1905468D02*
Y1913468D01*
X1985384Y1909468D02*
X1993384D01*
X1989384Y1905468D02*
Y1913468D01*
X1960384Y1909468D02*
X1968384D01*
X1964384Y1905468D02*
Y1913468D01*
X2000384Y1859468D02*
X2008384D01*
X2004384Y1855468D02*
Y1863468D01*
X1980384Y1884468D02*
X1988384D01*
X1984384Y1880468D02*
Y1888468D01*
X1980384Y1859468D02*
X1988384D01*
X1984384Y1855468D02*
Y1863468D01*
X1955384Y1859468D02*
X1963384D01*
X1959384Y1855468D02*
Y1863468D01*
X1955384Y1884468D02*
X1963384D01*
X1959384Y1880468D02*
Y1888468D01*
X1967084Y1896368D02*
X1975084D01*
X1971084Y1892368D02*
Y1900368D01*
X1973084Y1901649D02*
Y1898368D01*
X2066584Y1865768D02*
X2074584D01*
X2070584Y1861768D02*
Y1869768D01*
X2072584Y1871049D02*
Y1867768D01*
X2045384Y1869468D02*
X2053384D01*
X2049384Y1865468D02*
Y1873468D01*
X2080384Y1864468D02*
X2088384D01*
X2084384Y1860468D02*
Y1868468D01*
X2105384Y1864468D02*
X2113384D01*
X2109384Y1860468D02*
Y1868468D01*
X2060384Y1884468D02*
X2068384D01*
X2064384Y1880468D02*
Y1888468D01*
X2085384Y1884468D02*
X2093384D01*
X2089384Y1880468D02*
Y1888468D01*
X2085384Y1909468D02*
X2093384D01*
X2089384Y1905468D02*
Y1913468D01*
X2060384Y1909468D02*
X2068384D01*
X2064384Y1905468D02*
Y1913468D01*
X2035384Y1884468D02*
X2043384D01*
X2039384Y1880468D02*
Y1888468D01*
X2035384Y1909468D02*
X2043384D01*
X2039384Y1905468D02*
Y1913468D01*
X2130384Y1864468D02*
X2138384D01*
X2134384Y1860468D02*
Y1868468D01*
X2185384Y1884468D02*
X2193384D01*
X2189384Y1880468D02*
Y1888468D01*
X2185384Y1909468D02*
X2193384D01*
X2189384Y1905468D02*
Y1913468D01*
X2160384Y1909468D02*
X2168384D01*
X2164384Y1905468D02*
Y1913468D01*
X2160384Y1884468D02*
X2168384D01*
X2164384Y1880468D02*
Y1888468D01*
X2135384Y1884468D02*
X2143384D01*
X2139384Y1880468D02*
Y1888468D01*
X2135384Y1909468D02*
X2143384D01*
X2139384Y1905468D02*
Y1913468D01*
X2110384Y1909468D02*
X2118384D01*
X2114384Y1905468D02*
Y1913468D01*
X2110384Y1884468D02*
X2118384D01*
X2114384Y1880468D02*
Y1888468D01*
X2187884Y1864168D02*
X2195884D01*
X2191884Y1860168D02*
Y1868168D01*
X2193884Y1869449D02*
Y1866168D01*
X2195475Y1869449D02*
X2193884Y1867261D01*
X2194452Y1868043D02*
X2195475Y1866168D01*
X2266484Y1860968D02*
X2274484D01*
X2270484Y1856968D02*
Y1864968D01*
X2272484Y1866249D02*
Y1862968D01*
X2235384Y1864468D02*
X2243384D01*
X2239384Y1860468D02*
Y1868468D01*
X2250384Y1864468D02*
X2258384D01*
X2254384Y1860468D02*
Y1868468D01*
X2250384Y1859468D02*
X2258384D01*
X2254384Y1855468D02*
Y1863468D01*
X2210384Y1909468D02*
X2218384D01*
X2214384Y1905468D02*
Y1913468D01*
X2295384Y1861468D02*
X2303384D01*
X2299384Y1857468D02*
Y1865468D01*
X2285384Y1861468D02*
X2293384D01*
X2289384Y1857468D02*
Y1865468D01*
X2275384Y1861468D02*
X2283384D01*
X2279384Y1857468D02*
Y1865468D01*
X2275384Y1871468D02*
X2283384D01*
X2279384Y1867468D02*
Y1875468D01*
X2300384Y1871468D02*
X2308384D01*
X2304384Y1867468D02*
Y1875468D01*
X2325384Y1871468D02*
X2333384D01*
X2329384Y1867468D02*
Y1875468D01*
X2350384Y1871468D02*
X2358384D01*
X2354384Y1867468D02*
Y1875468D01*
X2375384Y1871468D02*
X2383384D01*
X2379384Y1867468D02*
Y1875468D01*
X2419134Y1915718D02*
X2427134D01*
X2423134Y1911718D02*
Y1919718D01*
X2387884Y1864268D02*
X2395884D01*
X2391884Y1860268D02*
Y1868268D01*
X2393884Y1869549D02*
Y1866268D01*
X2395475Y1869549D02*
X2393884Y1867361D01*
X2394452Y1868143D02*
X2395475Y1866268D01*
X2488384Y1885468D02*
X2496384D01*
X2492384Y1881468D02*
Y1889468D01*
X2550384Y1854468D02*
X2558384D01*
X2554384Y1850468D02*
Y1858468D01*
X2545384Y1854468D02*
X2553384D01*
X2549384Y1850468D02*
Y1858468D01*
X2540384Y1854468D02*
X2548384D01*
X2544384Y1850468D02*
Y1858468D01*
X1595384Y1939468D02*
X1603384D01*
X1599384Y1935468D02*
Y1943468D01*
X1695384Y1939468D02*
X1703384D01*
X1699384Y1935468D02*
Y1943468D01*
X1670384Y1939468D02*
X1678384D01*
X1674384Y1935468D02*
Y1943468D01*
X1645384Y1939468D02*
X1653384D01*
X1649384Y1935468D02*
Y1943468D01*
X1745384Y1939468D02*
X1753384D01*
X1749384Y1935468D02*
Y1943468D01*
X1720384Y1939468D02*
X1728384D01*
X1724384Y1935468D02*
Y1943468D01*
X1815384Y1934468D02*
X1823384D01*
X1819384Y1930468D02*
Y1938468D01*
X1815384Y1944468D02*
X1823384D01*
X1819384Y1940468D02*
Y1948468D01*
X1830384Y1944468D02*
X1838384D01*
X1834384Y1940468D02*
Y1948468D01*
X2566746Y1174468D02*
X1514384D01*
Y1953995*
X2566746*
Y1174468*
X1450784D02*
Y1557481D01*
Y1174468D02*
X1448284Y1184468D01*
X1453284*
X1450784Y1174468*
Y1953995D02*
Y1578245D01*
Y1953995D02*
X1453284Y1943995D01*
X1448284*
X1450784Y1953995*
X1505447Y1174468D02*
X1445784D01*
X1501510Y1953995D02*
X1445784D01*
X2566746Y2009113D02*
X2079132D01*
X2566746D02*
X2556746Y2006613D01*
Y2011613*
X2566746Y2009113*
X1514384D02*
X2001998D01*
X1514384D02*
X1524384Y2011613D01*
Y2006613*
X1514384Y2009113*
X2566746Y1960570D02*
Y2014113D01*
X1514384Y1964507D02*
Y2014113D01*
X1519384Y1606468D02*
X1777384D01*
X1519384Y1582468D02*
X1777384D01*
X1519384Y1558468D02*
X1777384D01*
X1519384Y1534468D02*
X1777384D01*
X1519384Y1510468D02*
X1777384D01*
X1519384Y1486468D02*
X1777384D01*
X1519384Y1462468D02*
X1777384D01*
X1519384Y1438468D02*
X1777384D01*
X1519384Y1414468D02*
X1777384D01*
X1519384Y1390468D02*
X1777384D01*
X1519384Y1366468D02*
X1777384D01*
X1519384Y1342468D02*
X1777384D01*
X1519384Y1318468D02*
X1777384D01*
X1519384Y1294468D02*
X1777384D01*
X1519384Y1270468D02*
X1777384D01*
X1519384Y1246468D02*
X1777384D01*
X1519384Y1222468D02*
X1777384D01*
X1519384Y1198468D02*
X1777384D01*
X1519384Y1174468D02*
X1777384D01*
X1519384Y1606468D02*
Y1174468D01*
X1603384Y1606468D02*
Y1174468D01*
X1639384Y1606468D02*
Y1174468D01*
X1675384Y1606468D02*
Y1174468D01*
X1729384Y1606468D02*
Y1174468D01*
X1777384Y1606468D02*
Y1174468D01*
X1554884Y1595218D02*
X1554338Y1595968D01*
X1553520Y1596343*
X1552429*
X1551611Y1595968*
X1551066Y1595218*
Y1594468*
X1551338Y1593718*
X1551611Y1593343*
X1552156Y1592968*
X1553793Y1592218*
X1554338Y1591843*
X1554611Y1591468*
X1554884Y1590718*
Y1589593*
X1554338Y1588843*
X1553520Y1588468*
X1552429*
X1551611Y1588843*
X1551066Y1589593*
X1557338Y1596343D02*
Y1588468D01*
X1563611Y1596343D02*
X1559793Y1588468D01*
Y1596343D02*
X1563611D01*
X1559793Y1588468D02*
X1563611D01*
X1566066Y1596343D02*
Y1588468D01*
Y1596343D02*
X1569611D01*
X1566066Y1592593D02*
X1568247D01*
X1566066Y1588468D02*
X1569611D01*
X1613247Y1596343D02*
X1612702Y1595968D01*
X1612156Y1595218*
X1611884Y1594468*
X1611611Y1593343*
Y1591468*
X1611884Y1590343*
X1612156Y1589593*
X1612702Y1588843*
X1613247Y1588468*
X1614338*
X1614884Y1588843*
X1615429Y1589593*
X1615702Y1590343*
X1615975Y1591468*
Y1593343*
X1615702Y1594468*
X1615429Y1595218*
X1614884Y1595968*
X1614338Y1596343*
X1613247*
X1614066Y1589968D02*
X1615702Y1587718D01*
X1620338Y1596343D02*
Y1588468D01*
X1618429Y1596343D02*
X1622247D01*
X1624702D02*
X1626884Y1592593D01*
Y1588468*
X1629066Y1596343D02*
X1626884Y1592593D01*
X1651429Y1595218D02*
X1650884Y1595968D01*
X1650066Y1596343*
X1648975*
X1648156Y1595968*
X1647611Y1595218*
Y1594468*
X1647884Y1593718*
X1648156Y1593343*
X1648702Y1592968*
X1650338Y1592218*
X1650884Y1591843*
X1651156Y1591468*
X1651429Y1590718*
Y1589593*
X1650884Y1588843*
X1650066Y1588468*
X1648975*
X1648156Y1588843*
X1647611Y1589593*
X1653884Y1596343D02*
X1656066Y1592593D01*
Y1588468*
X1658247Y1596343D02*
X1656066Y1592593D01*
X1660702Y1596343D02*
Y1588468D01*
Y1596343D02*
X1662884Y1588468D01*
X1665066Y1596343D02*
X1662884Y1588468D01*
X1665066Y1596343D02*
Y1588468D01*
X1686884Y1596343D02*
Y1588468D01*
Y1596343D02*
X1689338D01*
X1690156Y1595968*
X1690429Y1595593*
X1690702Y1594843*
Y1593718*
X1690429Y1592968*
X1690156Y1592593*
X1689338Y1592218*
X1686884*
X1693156Y1596343D02*
Y1588468D01*
X1696429*
X1701066Y1596343D02*
X1698884Y1588468D01*
X1701066Y1596343D02*
X1703247Y1588468D01*
X1699702Y1591093D02*
X1702429D01*
X1707611Y1596343D02*
Y1588468D01*
X1705702Y1596343D02*
X1709520D01*
X1711975D02*
Y1588468D01*
Y1596343D02*
X1715520D01*
X1711975Y1592593D02*
X1714156D01*
X1711975Y1588468D02*
X1715520D01*
X1717975Y1596343D02*
Y1588468D01*
Y1596343D02*
X1719884D01*
X1720702Y1595968*
X1721247Y1595218*
X1721520Y1594468*
X1721793Y1593343*
Y1591468*
X1721520Y1590343*
X1721247Y1589593*
X1720702Y1588843*
X1719884Y1588468*
X1717975*
X1746066Y1596343D02*
Y1588468D01*
X1744156Y1596343D02*
X1747975D01*
X1752066D02*
X1751520Y1595968D01*
X1750975Y1595218*
X1750702Y1594468*
X1750429Y1593343*
Y1591468*
X1750702Y1590343*
X1750975Y1589593*
X1751520Y1588843*
X1752066Y1588468*
X1753156*
X1753702Y1588843*
X1754247Y1589593*
X1754520Y1590343*
X1754793Y1591468*
Y1593343*
X1754520Y1594468*
X1754247Y1595218*
X1753702Y1595968*
X1753156Y1596343*
X1752066*
X1757247D02*
Y1588468D01*
X1760520*
X1525384Y1570843D02*
X1525929Y1571218D01*
X1526747Y1572343*
Y1564468*
X1533020Y1572343D02*
X1530293Y1564468D01*
X1529202Y1572343D02*
X1533020D01*
X1615702Y1571218D02*
X1615429Y1571968D01*
X1614611Y1572343*
X1614066*
X1613247Y1571968*
X1612702Y1570843*
X1612429Y1568968*
Y1567093*
X1612702Y1565593*
X1613247Y1564843*
X1614066Y1564468*
X1614338*
X1615156Y1564843*
X1615702Y1565593*
X1615975Y1566718*
Y1567093*
X1615702Y1568218*
X1615156Y1568968*
X1614338Y1569343*
X1614066*
X1613247Y1568968*
X1612702Y1568218*
X1612429Y1567093*
X1618975Y1572343D02*
X1621975D01*
X1620338Y1569343*
X1621156*
X1621702Y1568968*
X1621975Y1568593*
X1622247Y1567468*
Y1566718*
X1621975Y1565593*
X1621429Y1564843*
X1620611Y1564468*
X1619793*
X1618975Y1564843*
X1618702Y1565218*
X1618429Y1565968*
X1627975Y1571218D02*
X1627702Y1571968D01*
X1626884Y1572343*
X1626338*
X1625520Y1571968*
X1624975Y1570843*
X1624702Y1568968*
Y1567093*
X1624975Y1565593*
X1625520Y1564843*
X1626338Y1564468*
X1626611*
X1627429Y1564843*
X1627975Y1565593*
X1628247Y1566718*
Y1567093*
X1627975Y1568218*
X1627429Y1568968*
X1626611Y1569343*
X1626338*
X1625520Y1568968*
X1624975Y1568218*
X1624702Y1567093*
X1651384Y1570468D02*
X1663384D01*
X1657384Y1564468D02*
Y1576468D01*
X1684020Y1572343D02*
X1686202Y1568593D01*
Y1564468*
X1688384Y1572343D02*
X1686202Y1568593D01*
X1690838Y1572343D02*
Y1564468D01*
Y1572343D02*
X1694384D01*
X1690838Y1568593D02*
X1693020D01*
X1690838Y1564468D02*
X1694384D01*
X1700656Y1571218D02*
X1700111Y1571968D01*
X1699293Y1572343*
X1698202*
X1697384Y1571968*
X1696838Y1571218*
Y1570468*
X1697111Y1569718*
X1697384Y1569343*
X1697929Y1568968*
X1699566Y1568218*
X1700111Y1567843*
X1700384Y1567468*
X1700656Y1566718*
Y1565593*
X1700111Y1564843*
X1699293Y1564468*
X1698202*
X1697384Y1564843*
X1696838Y1565593*
X1737202Y1571218D02*
Y1564468D01*
X1734747Y1567843D02*
X1739656D01*
X1747020Y1573843D02*
X1742111Y1561843D01*
X1749475Y1567843D02*
X1754384D01*
X1758475Y1572343D02*
X1757656Y1571968D01*
X1757111Y1570843*
X1756838Y1568968*
Y1567843*
X1757111Y1565968*
X1757656Y1564843*
X1758475Y1564468*
X1759020*
X1759838Y1564843*
X1760384Y1565968*
X1760656Y1567843*
Y1568968*
X1760384Y1570843*
X1759838Y1571968*
X1759020Y1572343*
X1758475*
X1763384Y1565218D02*
X1763111Y1564843D01*
X1763384Y1564468*
X1763656Y1564843*
X1763384Y1565218*
X1767747Y1572343D02*
X1766929Y1571968D01*
X1766384Y1570843*
X1766111Y1568968*
Y1567843*
X1766384Y1565968*
X1766929Y1564843*
X1767747Y1564468*
X1768293*
X1769111Y1564843*
X1769656Y1565968*
X1769929Y1567843*
Y1568968*
X1769656Y1570843*
X1769111Y1571968*
X1768293Y1572343*
X1767747*
X1525384Y1546843D02*
X1525929Y1547218D01*
X1526747Y1548343*
Y1540468*
X1531929Y1548343D02*
X1529202Y1543093D01*
X1533293*
X1531929Y1548343D02*
Y1540468D01*
X1537384Y1548343D02*
X1536566Y1547968D01*
X1536020Y1546843*
X1535747Y1544968*
Y1543843*
X1536020Y1541968*
X1536566Y1540843*
X1537384Y1540468*
X1537929*
X1538747Y1540843*
X1539293Y1541968*
X1539566Y1543843*
Y1544968*
X1539293Y1546843*
X1538747Y1547968*
X1537929Y1548343*
X1537384*
X1621838D02*
X1619111D01*
X1618838Y1544968*
X1619111Y1545343*
X1619929Y1545718*
X1620747*
X1621566Y1545343*
X1622111Y1544593*
X1622384Y1543468*
X1622111Y1542718*
X1621838Y1541593*
X1621293Y1540843*
X1620475Y1540468*
X1619656*
X1618838Y1540843*
X1618566Y1541218*
X1618293Y1541968*
X1651384Y1540468D02*
X1663384Y1552468D01*
X1651384D02*
X1663384Y1540468D01*
X1684020Y1548343D02*
X1686202Y1544593D01*
Y1540468*
X1688384Y1548343D02*
X1686202Y1544593D01*
X1690838Y1548343D02*
Y1540468D01*
Y1548343D02*
X1694384D01*
X1690838Y1544593D02*
X1693020D01*
X1690838Y1540468D02*
X1694384D01*
X1700656Y1547218D02*
X1700111Y1547968D01*
X1699293Y1548343*
X1698202*
X1697384Y1547968*
X1696838Y1547218*
Y1546468*
X1697111Y1545718*
X1697384Y1545343*
X1697929Y1544968*
X1699566Y1544218*
X1700111Y1543843*
X1700384Y1543468*
X1700656Y1542718*
Y1541593*
X1700111Y1540843*
X1699293Y1540468*
X1698202*
X1697384Y1540843*
X1696838Y1541593*
X1737202Y1547218D02*
Y1540468D01*
X1734747Y1543843D02*
X1739656D01*
X1747020Y1549843D02*
X1742111Y1537843D01*
X1749475Y1543843D02*
X1754384D01*
X1758475Y1548343D02*
X1757656Y1547968D01*
X1757111Y1546843*
X1756838Y1544968*
Y1543843*
X1757111Y1541968*
X1757656Y1540843*
X1758475Y1540468*
X1759020*
X1759838Y1540843*
X1760384Y1541968*
X1760656Y1543843*
Y1544968*
X1760384Y1546843*
X1759838Y1547968*
X1759020Y1548343*
X1758475*
X1763384Y1541218D02*
X1763111Y1540843D01*
X1763384Y1540468*
X1763656Y1540843*
X1763384Y1541218*
X1767747Y1548343D02*
X1766929Y1547968D01*
X1766384Y1546843*
X1766111Y1544968*
Y1543843*
X1766384Y1541968*
X1766929Y1540843*
X1767747Y1540468*
X1768293*
X1769111Y1540843*
X1769656Y1541968*
X1769929Y1543843*
Y1544968*
X1769656Y1546843*
X1769111Y1547968*
X1768293Y1548343*
X1767747*
X1525929Y1524343D02*
X1528929D01*
X1527293Y1521343*
X1528111*
X1528656Y1520968*
X1528929Y1520593*
X1529202Y1519468*
Y1518718*
X1528929Y1517593*
X1528384Y1516843*
X1527566Y1516468*
X1526747*
X1525929Y1516843*
X1525656Y1517218*
X1525384Y1517968*
X1535475Y1524343D02*
X1532747Y1516468D01*
X1531656Y1524343D02*
X1535475D01*
X1614884Y1522468D02*
Y1522843D01*
X1615156Y1523593*
X1615429Y1523968*
X1615975Y1524343*
X1617066*
X1617611Y1523968*
X1617884Y1523593*
X1618156Y1522843*
Y1522093*
X1617884Y1521343*
X1617338Y1520218*
X1614611Y1516468*
X1618429*
X1620884Y1522843D02*
X1621429Y1523218D01*
X1622247Y1524343*
Y1516468*
X1624702Y1522843D02*
X1625247Y1523218D01*
X1626066Y1524343*
Y1516468*
X1651384D02*
X1663384D01*
Y1528468*
X1651384*
Y1516468*
X1657384Y1522468D02*
Y1528468D01*
X1684020Y1524343D02*
X1686202Y1520593D01*
Y1516468*
X1688384Y1524343D02*
X1686202Y1520593D01*
X1690838Y1524343D02*
Y1516468D01*
Y1524343D02*
X1694384D01*
X1690838Y1520593D02*
X1693020D01*
X1690838Y1516468D02*
X1694384D01*
X1700656Y1523218D02*
X1700111Y1523968D01*
X1699293Y1524343*
X1698202*
X1697384Y1523968*
X1696838Y1523218*
Y1522468*
X1697111Y1521718*
X1697384Y1521343*
X1697929Y1520968*
X1699566Y1520218*
X1700111Y1519843*
X1700384Y1519468*
X1700656Y1518718*
Y1517593*
X1700111Y1516843*
X1699293Y1516468*
X1698202*
X1697384Y1516843*
X1696838Y1517593*
X1737202Y1523218D02*
Y1516468D01*
X1734747Y1519843D02*
X1739656D01*
X1747020Y1525843D02*
X1742111Y1513843D01*
X1749475Y1519843D02*
X1754384D01*
X1758475Y1524343D02*
X1757656Y1523968D01*
X1757111Y1522843*
X1756838Y1520968*
Y1519843*
X1757111Y1517968*
X1757656Y1516843*
X1758475Y1516468*
X1759020*
X1759838Y1516843*
X1760384Y1517968*
X1760656Y1519843*
Y1520968*
X1760384Y1522843*
X1759838Y1523968*
X1759020Y1524343*
X1758475*
X1763384Y1517218D02*
X1763111Y1516843D01*
X1763384Y1516468*
X1763656Y1516843*
X1763384Y1517218*
X1767747Y1524343D02*
X1766929Y1523968D01*
X1766384Y1522843*
X1766111Y1520968*
Y1519843*
X1766384Y1517968*
X1766929Y1516843*
X1767747Y1516468*
X1768293*
X1769111Y1516843*
X1769656Y1517968*
X1769929Y1519843*
Y1520968*
X1769656Y1522843*
X1769111Y1523968*
X1768293Y1524343*
X1767747*
X1528656Y1499218D02*
X1528384Y1499968D01*
X1527566Y1500343*
X1527020*
X1526202Y1499968*
X1525656Y1498843*
X1525384Y1496968*
Y1495093*
X1525656Y1493593*
X1526202Y1492843*
X1527020Y1492468*
X1527293*
X1528111Y1492843*
X1528656Y1493593*
X1528929Y1494718*
Y1495093*
X1528656Y1496218*
X1528111Y1496968*
X1527293Y1497343*
X1527020*
X1526202Y1496968*
X1525656Y1496218*
X1525384Y1495093*
X1535202Y1500343D02*
X1532475Y1492468D01*
X1531384Y1500343D02*
X1535202D01*
X1616520Y1498843D02*
X1617066Y1499218D01*
X1617884Y1500343*
Y1492468*
X1621702Y1500343D02*
X1620884Y1499968D01*
X1620611Y1499218*
Y1498468*
X1620884Y1497718*
X1621429Y1497343*
X1622520Y1496968*
X1623338Y1496593*
X1623884Y1495843*
X1624156Y1495093*
Y1493968*
X1623884Y1493218*
X1623611Y1492843*
X1622793Y1492468*
X1621702*
X1620884Y1492843*
X1620611Y1493218*
X1620338Y1493968*
Y1495093*
X1620611Y1495843*
X1621156Y1496593*
X1621975Y1496968*
X1623066Y1497343*
X1623611Y1497718*
X1623884Y1498468*
Y1499218*
X1623611Y1499968*
X1622793Y1500343*
X1621702*
X1657384Y1492468D02*
X1663384Y1498468D01*
X1657384Y1504468*
X1651384Y1498468*
X1657384Y1492468*
Y1498468D02*
Y1504468D01*
X1684020Y1500343D02*
X1686202Y1496593D01*
Y1492468*
X1688384Y1500343D02*
X1686202Y1496593D01*
X1690838Y1500343D02*
Y1492468D01*
Y1500343D02*
X1694384D01*
X1690838Y1496593D02*
X1693020D01*
X1690838Y1492468D02*
X1694384D01*
X1700656Y1499218D02*
X1700111Y1499968D01*
X1699293Y1500343*
X1698202*
X1697384Y1499968*
X1696838Y1499218*
Y1498468*
X1697111Y1497718*
X1697384Y1497343*
X1697929Y1496968*
X1699566Y1496218*
X1700111Y1495843*
X1700384Y1495468*
X1700656Y1494718*
Y1493593*
X1700111Y1492843*
X1699293Y1492468*
X1698202*
X1697384Y1492843*
X1696838Y1493593*
X1737202Y1499218D02*
Y1492468D01*
X1734747Y1495843D02*
X1739656D01*
X1747020Y1501843D02*
X1742111Y1489843D01*
X1749475Y1495843D02*
X1754384D01*
X1758475Y1500343D02*
X1757656Y1499968D01*
X1757111Y1498843*
X1756838Y1496968*
Y1495843*
X1757111Y1493968*
X1757656Y1492843*
X1758475Y1492468*
X1759020*
X1759838Y1492843*
X1760384Y1493968*
X1760656Y1495843*
Y1496968*
X1760384Y1498843*
X1759838Y1499968*
X1759020Y1500343*
X1758475*
X1763384Y1493218D02*
X1763111Y1492843D01*
X1763384Y1492468*
X1763656Y1492843*
X1763384Y1493218*
X1767747Y1500343D02*
X1766929Y1499968D01*
X1766384Y1498843*
X1766111Y1496968*
Y1495843*
X1766384Y1493968*
X1766929Y1492843*
X1767747Y1492468*
X1768293*
X1769111Y1492843*
X1769656Y1493968*
X1769929Y1495843*
Y1496968*
X1769656Y1498843*
X1769111Y1499968*
X1768293Y1500343*
X1767747*
X1528656Y1475218D02*
X1528384Y1475968D01*
X1527566Y1476343*
X1527020*
X1526202Y1475968*
X1525656Y1474843*
X1525384Y1472968*
Y1471093*
X1525656Y1469593*
X1526202Y1468843*
X1527020Y1468468*
X1527293*
X1528111Y1468843*
X1528656Y1469593*
X1528929Y1470718*
Y1471093*
X1528656Y1472218*
X1528111Y1472968*
X1527293Y1473343*
X1527020*
X1526202Y1472968*
X1525656Y1472218*
X1525384Y1471093*
X1531929Y1476343D02*
X1534929D01*
X1533293Y1473343*
X1534111*
X1534656Y1472968*
X1534929Y1472593*
X1535202Y1471468*
Y1470718*
X1534929Y1469593*
X1534384Y1468843*
X1533566Y1468468*
X1532747*
X1531929Y1468843*
X1531656Y1469218*
X1531384Y1469968*
X1616520Y1474843D02*
X1617066Y1475218D01*
X1617884Y1476343*
Y1468468*
X1620611Y1474468D02*
Y1474843D01*
X1620884Y1475593*
X1621156Y1475968*
X1621702Y1476343*
X1622793*
X1623338Y1475968*
X1623611Y1475593*
X1623884Y1474843*
Y1474093*
X1623611Y1473343*
X1623066Y1472218*
X1620338Y1468468*
X1624156*
X1651384D02*
X1663384D01*
X1651384Y1480468*
X1663384*
X1651384Y1468468*
X1684020Y1476343D02*
X1686202Y1472593D01*
Y1468468*
X1688384Y1476343D02*
X1686202Y1472593D01*
X1690838Y1476343D02*
Y1468468D01*
Y1476343D02*
X1694384D01*
X1690838Y1472593D02*
X1693020D01*
X1690838Y1468468D02*
X1694384D01*
X1700656Y1475218D02*
X1700111Y1475968D01*
X1699293Y1476343*
X1698202*
X1697384Y1475968*
X1696838Y1475218*
Y1474468*
X1697111Y1473718*
X1697384Y1473343*
X1697929Y1472968*
X1699566Y1472218*
X1700111Y1471843*
X1700384Y1471468*
X1700656Y1470718*
Y1469593*
X1700111Y1468843*
X1699293Y1468468*
X1698202*
X1697384Y1468843*
X1696838Y1469593*
X1737202Y1475218D02*
Y1468468D01*
X1734747Y1471843D02*
X1739656D01*
X1747020Y1477843D02*
X1742111Y1465843D01*
X1749475Y1471843D02*
X1754384D01*
X1758475Y1476343D02*
X1757656Y1475968D01*
X1757111Y1474843*
X1756838Y1472968*
Y1471843*
X1757111Y1469968*
X1757656Y1468843*
X1758475Y1468468*
X1759020*
X1759838Y1468843*
X1760384Y1469968*
X1760656Y1471843*
Y1472968*
X1760384Y1474843*
X1759838Y1475968*
X1759020Y1476343*
X1758475*
X1763384Y1469218D02*
X1763111Y1468843D01*
X1763384Y1468468*
X1763656Y1468843*
X1763384Y1469218*
X1767747Y1476343D02*
X1766929Y1475968D01*
X1766384Y1474843*
X1766111Y1472968*
Y1471843*
X1766384Y1469968*
X1766929Y1468843*
X1767747Y1468468*
X1768293*
X1769111Y1468843*
X1769656Y1469968*
X1769929Y1471843*
Y1472968*
X1769656Y1474843*
X1769111Y1475968*
X1768293Y1476343*
X1767747*
X1528929Y1452343D02*
X1526202D01*
X1525929Y1448968*
X1526202Y1449343*
X1527020Y1449718*
X1527838*
X1528656Y1449343*
X1529202Y1448593*
X1529475Y1447468*
X1529202Y1446718*
X1528929Y1445593*
X1528384Y1444843*
X1527566Y1444468*
X1526747*
X1525929Y1444843*
X1525656Y1445218*
X1525384Y1445968*
X1532202Y1450468D02*
Y1450843D01*
X1532475Y1451593*
X1532747Y1451968*
X1533293Y1452343*
X1534384*
X1534929Y1451968*
X1535202Y1451593*
X1535475Y1450843*
Y1450093*
X1535202Y1449343*
X1534656Y1448218*
X1531929Y1444468*
X1535747*
X1616520Y1450843D02*
X1617066Y1451218D01*
X1617884Y1452343*
Y1444468*
X1620611Y1450468D02*
Y1450843D01*
X1620884Y1451593*
X1621156Y1451968*
X1621702Y1452343*
X1622793*
X1623338Y1451968*
X1623611Y1451593*
X1623884Y1450843*
Y1450093*
X1623611Y1449343*
X1623066Y1448218*
X1620338Y1444468*
X1624156*
X1651384D02*
X1663384Y1456468D01*
Y1444468*
X1651384Y1456468*
Y1444468*
X1684020Y1452343D02*
X1686202Y1448593D01*
Y1444468*
X1688384Y1452343D02*
X1686202Y1448593D01*
X1690838Y1452343D02*
Y1444468D01*
Y1452343D02*
X1694384D01*
X1690838Y1448593D02*
X1693020D01*
X1690838Y1444468D02*
X1694384D01*
X1700656Y1451218D02*
X1700111Y1451968D01*
X1699293Y1452343*
X1698202*
X1697384Y1451968*
X1696838Y1451218*
Y1450468*
X1697111Y1449718*
X1697384Y1449343*
X1697929Y1448968*
X1699566Y1448218*
X1700111Y1447843*
X1700384Y1447468*
X1700656Y1446718*
Y1445593*
X1700111Y1444843*
X1699293Y1444468*
X1698202*
X1697384Y1444843*
X1696838Y1445593*
X1737202Y1451218D02*
Y1444468D01*
X1734747Y1447843D02*
X1739656D01*
X1747020Y1453843D02*
X1742111Y1441843D01*
X1749475Y1447843D02*
X1754384D01*
X1758475Y1452343D02*
X1757656Y1451968D01*
X1757111Y1450843*
X1756838Y1448968*
Y1447843*
X1757111Y1445968*
X1757656Y1444843*
X1758475Y1444468*
X1759020*
X1759838Y1444843*
X1760384Y1445968*
X1760656Y1447843*
Y1448968*
X1760384Y1450843*
X1759838Y1451968*
X1759020Y1452343*
X1758475*
X1763384Y1445218D02*
X1763111Y1444843D01*
X1763384Y1444468*
X1763656Y1444843*
X1763384Y1445218*
X1767747Y1452343D02*
X1766929Y1451968D01*
X1766384Y1450843*
X1766111Y1448968*
Y1447843*
X1766384Y1445968*
X1766929Y1444843*
X1767747Y1444468*
X1768293*
X1769111Y1444843*
X1769656Y1445968*
X1769929Y1447843*
Y1448968*
X1769656Y1450843*
X1769111Y1451968*
X1768293Y1452343*
X1767747*
X1528111Y1428343D02*
X1525384Y1423093D01*
X1529475*
X1528111Y1428343D02*
Y1420468D01*
X1535747Y1428343D02*
X1533020Y1420468D01*
X1531929Y1428343D02*
X1535747D01*
X1616793D02*
X1615975Y1427968D01*
X1615702Y1427218*
Y1426468*
X1615975Y1425718*
X1616520Y1425343*
X1617611Y1424968*
X1618429Y1424593*
X1618975Y1423843*
X1619247Y1423093*
Y1421968*
X1618975Y1421218*
X1618702Y1420843*
X1617884Y1420468*
X1616793*
X1615975Y1420843*
X1615702Y1421218*
X1615429Y1421968*
Y1423093*
X1615702Y1423843*
X1616247Y1424593*
X1617066Y1424968*
X1618156Y1425343*
X1618702Y1425718*
X1618975Y1426468*
Y1427218*
X1618702Y1427968*
X1617884Y1428343*
X1616793*
X1624975Y1427218D02*
X1624702Y1427968D01*
X1623884Y1428343*
X1623338*
X1622520Y1427968*
X1621975Y1426843*
X1621702Y1424968*
Y1423093*
X1621975Y1421593*
X1622520Y1420843*
X1623338Y1420468*
X1623611*
X1624429Y1420843*
X1624975Y1421593*
X1625247Y1422718*
Y1423093*
X1624975Y1424218*
X1624429Y1424968*
X1623611Y1425343*
X1623338*
X1622520Y1424968*
X1621975Y1424218*
X1621702Y1423093*
X1651384Y1426468D02*
X1663384D01*
X1657384Y1420468D02*
Y1432468D01*
X1662129Y1435768D02*
X1660384Y1429468D01*
X1662129Y1435768D02*
X1663875Y1429468D01*
X1661038Y1431568D02*
X1663220D01*
X1684020Y1428343D02*
X1686202Y1424593D01*
Y1420468*
X1688384Y1428343D02*
X1686202Y1424593D01*
X1690838Y1428343D02*
Y1420468D01*
Y1428343D02*
X1694384D01*
X1690838Y1424593D02*
X1693020D01*
X1690838Y1420468D02*
X1694384D01*
X1700656Y1427218D02*
X1700111Y1427968D01*
X1699293Y1428343*
X1698202*
X1697384Y1427968*
X1696838Y1427218*
Y1426468*
X1697111Y1425718*
X1697384Y1425343*
X1697929Y1424968*
X1699566Y1424218*
X1700111Y1423843*
X1700384Y1423468*
X1700656Y1422718*
Y1421593*
X1700111Y1420843*
X1699293Y1420468*
X1698202*
X1697384Y1420843*
X1696838Y1421593*
X1737202Y1427218D02*
Y1420468D01*
X1734747Y1423843D02*
X1739656D01*
X1747020Y1429843D02*
X1742111Y1417843D01*
X1749475Y1423843D02*
X1754384D01*
X1758475Y1428343D02*
X1757656Y1427968D01*
X1757111Y1426843*
X1756838Y1424968*
Y1423843*
X1757111Y1421968*
X1757656Y1420843*
X1758475Y1420468*
X1759020*
X1759838Y1420843*
X1760384Y1421968*
X1760656Y1423843*
Y1424968*
X1760384Y1426843*
X1759838Y1427968*
X1759020Y1428343*
X1758475*
X1763384Y1421218D02*
X1763111Y1420843D01*
X1763384Y1420468*
X1763656Y1420843*
X1763384Y1421218*
X1767747Y1428343D02*
X1766929Y1427968D01*
X1766384Y1426843*
X1766111Y1424968*
Y1423843*
X1766384Y1421968*
X1766929Y1420843*
X1767747Y1420468*
X1768293*
X1769111Y1420843*
X1769656Y1421968*
X1769929Y1423843*
Y1424968*
X1769656Y1426843*
X1769111Y1427968*
X1768293Y1428343*
X1767747*
X1526747Y1404343D02*
X1525929Y1403968D01*
X1525656Y1403218*
Y1402468*
X1525929Y1401718*
X1526475Y1401343*
X1527566Y1400968*
X1528384Y1400593*
X1528929Y1399843*
X1529202Y1399093*
Y1397968*
X1528929Y1397218*
X1528656Y1396843*
X1527838Y1396468*
X1526747*
X1525929Y1396843*
X1525656Y1397218*
X1525384Y1397968*
Y1399093*
X1525656Y1399843*
X1526202Y1400593*
X1527020Y1400968*
X1528111Y1401343*
X1528656Y1401718*
X1528929Y1402468*
Y1403218*
X1528656Y1403968*
X1527838Y1404343*
X1526747*
X1533293D02*
X1532475Y1403968D01*
X1531929Y1402843*
X1531656Y1400968*
Y1399843*
X1531929Y1397968*
X1532475Y1396843*
X1533293Y1396468*
X1533838*
X1534656Y1396843*
X1535202Y1397968*
X1535475Y1399843*
Y1400968*
X1535202Y1402843*
X1534656Y1403968*
X1533838Y1404343*
X1533293*
X1615838D02*
X1618838D01*
X1617202Y1401343*
X1618020*
X1618566Y1400968*
X1618838Y1400593*
X1619111Y1399468*
Y1398718*
X1618838Y1397593*
X1618293Y1396843*
X1617475Y1396468*
X1616656*
X1615838Y1396843*
X1615566Y1397218*
X1615293Y1397968*
X1623202Y1404343D02*
X1622384Y1403968D01*
X1621838Y1402843*
X1621566Y1400968*
Y1399843*
X1621838Y1397968*
X1622384Y1396843*
X1623202Y1396468*
X1623747*
X1624566Y1396843*
X1625111Y1397968*
X1625384Y1399843*
Y1400968*
X1625111Y1402843*
X1624566Y1403968*
X1623747Y1404343*
X1623202*
X1651384Y1402468D02*
X1663384D01*
X1657384Y1396468D02*
Y1408468D01*
X1660384Y1411768D02*
Y1405468D01*
Y1411768D02*
X1662347D01*
X1663002Y1411468*
X1663220Y1411168*
X1663438Y1410568*
Y1409968*
X1663220Y1409368*
X1663002Y1409068*
X1662347Y1408768*
X1660384D02*
X1662347D01*
X1663002Y1408468*
X1663220Y1408168*
X1663438Y1407568*
Y1406668*
X1663220Y1406068*
X1663002Y1405768*
X1662347Y1405468*
X1660384*
X1684020Y1404343D02*
X1686202Y1400593D01*
Y1396468*
X1688384Y1404343D02*
X1686202Y1400593D01*
X1690838Y1404343D02*
Y1396468D01*
Y1404343D02*
X1694384D01*
X1690838Y1400593D02*
X1693020D01*
X1690838Y1396468D02*
X1694384D01*
X1700656Y1403218D02*
X1700111Y1403968D01*
X1699293Y1404343*
X1698202*
X1697384Y1403968*
X1696838Y1403218*
Y1402468*
X1697111Y1401718*
X1697384Y1401343*
X1697929Y1400968*
X1699566Y1400218*
X1700111Y1399843*
X1700384Y1399468*
X1700656Y1398718*
Y1397593*
X1700111Y1396843*
X1699293Y1396468*
X1698202*
X1697384Y1396843*
X1696838Y1397593*
X1737202Y1403218D02*
Y1396468D01*
X1734747Y1399843D02*
X1739656D01*
X1747020Y1405843D02*
X1742111Y1393843D01*
X1749475Y1399843D02*
X1754384D01*
X1758475Y1404343D02*
X1757656Y1403968D01*
X1757111Y1402843*
X1756838Y1400968*
Y1399843*
X1757111Y1397968*
X1757656Y1396843*
X1758475Y1396468*
X1759020*
X1759838Y1396843*
X1760384Y1397968*
X1760656Y1399843*
Y1400968*
X1760384Y1402843*
X1759838Y1403968*
X1759020Y1404343*
X1758475*
X1763384Y1397218D02*
X1763111Y1396843D01*
X1763384Y1396468*
X1763656Y1396843*
X1763384Y1397218*
X1767747Y1404343D02*
X1766929Y1403968D01*
X1766384Y1402843*
X1766111Y1400968*
Y1399843*
X1766384Y1397968*
X1766929Y1396843*
X1767747Y1396468*
X1768293*
X1769111Y1396843*
X1769656Y1397968*
X1769929Y1399843*
Y1400968*
X1769656Y1402843*
X1769111Y1403968*
X1768293Y1404343*
X1767747*
X1528111Y1380343D02*
X1525384Y1375093D01*
X1529475*
X1528111Y1380343D02*
Y1372468D01*
X1532202Y1378468D02*
Y1378843D01*
X1532475Y1379593*
X1532747Y1379968*
X1533293Y1380343*
X1534384*
X1534929Y1379968*
X1535202Y1379593*
X1535475Y1378843*
Y1378093*
X1535202Y1377343*
X1534656Y1376218*
X1531929Y1372468*
X1535747*
X1616520Y1378843D02*
X1617066Y1379218D01*
X1617884Y1380343*
Y1372468*
X1620611Y1378468D02*
Y1378843D01*
X1620884Y1379593*
X1621156Y1379968*
X1621702Y1380343*
X1622793*
X1623338Y1379968*
X1623611Y1379593*
X1623884Y1378843*
Y1378093*
X1623611Y1377343*
X1623066Y1376218*
X1620338Y1372468*
X1624156*
X1651384Y1378468D02*
X1663384D01*
X1657384Y1372468D02*
Y1384468D01*
X1663656Y1386268D02*
X1663438Y1386868D01*
X1663002Y1387468*
X1662566Y1387768*
X1661693*
X1661256Y1387468*
X1660820Y1386868*
X1660602Y1386268*
X1660384Y1385368*
Y1383868*
X1660602Y1382968*
X1660820Y1382368*
X1661256Y1381768*
X1661693Y1381468*
X1662566*
X1663002Y1381768*
X1663438Y1382368*
X1663656Y1382968*
X1684020Y1380343D02*
X1686202Y1376593D01*
Y1372468*
X1688384Y1380343D02*
X1686202Y1376593D01*
X1690838Y1380343D02*
Y1372468D01*
Y1380343D02*
X1694384D01*
X1690838Y1376593D02*
X1693020D01*
X1690838Y1372468D02*
X1694384D01*
X1700656Y1379218D02*
X1700111Y1379968D01*
X1699293Y1380343*
X1698202*
X1697384Y1379968*
X1696838Y1379218*
Y1378468*
X1697111Y1377718*
X1697384Y1377343*
X1697929Y1376968*
X1699566Y1376218*
X1700111Y1375843*
X1700384Y1375468*
X1700656Y1374718*
Y1373593*
X1700111Y1372843*
X1699293Y1372468*
X1698202*
X1697384Y1372843*
X1696838Y1373593*
X1737202Y1379218D02*
Y1372468D01*
X1734747Y1375843D02*
X1739656D01*
X1747020Y1381843D02*
X1742111Y1369843D01*
X1749475Y1375843D02*
X1754384D01*
X1758475Y1380343D02*
X1757656Y1379968D01*
X1757111Y1378843*
X1756838Y1376968*
Y1375843*
X1757111Y1373968*
X1757656Y1372843*
X1758475Y1372468*
X1759020*
X1759838Y1372843*
X1760384Y1373968*
X1760656Y1375843*
Y1376968*
X1760384Y1378843*
X1759838Y1379968*
X1759020Y1380343*
X1758475*
X1763384Y1373218D02*
X1763111Y1372843D01*
X1763384Y1372468*
X1763656Y1372843*
X1763384Y1373218*
X1767747Y1380343D02*
X1766929Y1379968D01*
X1766384Y1378843*
X1766111Y1376968*
Y1375843*
X1766384Y1373968*
X1766929Y1372843*
X1767747Y1372468*
X1768293*
X1769111Y1372843*
X1769656Y1373968*
X1769929Y1375843*
Y1376968*
X1769656Y1378843*
X1769111Y1379968*
X1768293Y1380343*
X1767747*
X1528111Y1356343D02*
X1525384Y1351093D01*
X1529475*
X1528111Y1356343D02*
Y1348468D01*
X1533566Y1356343D02*
X1532747Y1355968D01*
X1532202Y1354843*
X1531929Y1352968*
Y1351843*
X1532202Y1349968*
X1532747Y1348843*
X1533566Y1348468*
X1534111*
X1534929Y1348843*
X1535475Y1349968*
X1535747Y1351843*
Y1352968*
X1535475Y1354843*
X1534929Y1355968*
X1534111Y1356343*
X1533566*
X1619793D02*
X1618975Y1355968D01*
X1618702Y1355218*
Y1354468*
X1618975Y1353718*
X1619520Y1353343*
X1620611Y1352968*
X1621429Y1352593*
X1621975Y1351843*
X1622247Y1351093*
Y1349968*
X1621975Y1349218*
X1621702Y1348843*
X1620884Y1348468*
X1619793*
X1618975Y1348843*
X1618702Y1349218*
X1618429Y1349968*
Y1351093*
X1618702Y1351843*
X1619247Y1352593*
X1620066Y1352968*
X1621156Y1353343*
X1621702Y1353718*
X1621975Y1354468*
Y1355218*
X1621702Y1355968*
X1620884Y1356343*
X1619793*
X1651384Y1354468D02*
X1663384D01*
X1657384Y1348468D02*
Y1360468D01*
X1660384Y1363768D02*
Y1357468D01*
Y1363768D02*
X1661911D01*
X1662566Y1363468*
X1663002Y1362868*
X1663220Y1362268*
X1663438Y1361368*
Y1359868*
X1663220Y1358968*
X1663002Y1358368*
X1662566Y1357768*
X1661911Y1357468*
X1660384*
X1684020Y1356343D02*
X1686202Y1352593D01*
Y1348468*
X1688384Y1356343D02*
X1686202Y1352593D01*
X1690838Y1356343D02*
Y1348468D01*
Y1356343D02*
X1694384D01*
X1690838Y1352593D02*
X1693020D01*
X1690838Y1348468D02*
X1694384D01*
X1700656Y1355218D02*
X1700111Y1355968D01*
X1699293Y1356343*
X1698202*
X1697384Y1355968*
X1696838Y1355218*
Y1354468*
X1697111Y1353718*
X1697384Y1353343*
X1697929Y1352968*
X1699566Y1352218*
X1700111Y1351843*
X1700384Y1351468*
X1700656Y1350718*
Y1349593*
X1700111Y1348843*
X1699293Y1348468*
X1698202*
X1697384Y1348843*
X1696838Y1349593*
X1737202Y1355218D02*
Y1348468D01*
X1734747Y1351843D02*
X1739656D01*
X1747020Y1357843D02*
X1742111Y1345843D01*
X1749475Y1351843D02*
X1754384D01*
X1758475Y1356343D02*
X1757656Y1355968D01*
X1757111Y1354843*
X1756838Y1352968*
Y1351843*
X1757111Y1349968*
X1757656Y1348843*
X1758475Y1348468*
X1759020*
X1759838Y1348843*
X1760384Y1349968*
X1760656Y1351843*
Y1352968*
X1760384Y1354843*
X1759838Y1355968*
X1759020Y1356343*
X1758475*
X1763384Y1349218D02*
X1763111Y1348843D01*
X1763384Y1348468*
X1763656Y1348843*
X1763384Y1349218*
X1767747Y1356343D02*
X1766929Y1355968D01*
X1766384Y1354843*
X1766111Y1352968*
Y1351843*
X1766384Y1349968*
X1766929Y1348843*
X1767747Y1348468*
X1768293*
X1769111Y1348843*
X1769656Y1349968*
X1769929Y1351843*
Y1352968*
X1769656Y1354843*
X1769111Y1355968*
X1768293Y1356343*
X1767747*
X1528929Y1332343D02*
X1526202D01*
X1525929Y1328968*
X1526202Y1329343*
X1527020Y1329718*
X1527838*
X1528656Y1329343*
X1529202Y1328593*
X1529475Y1327468*
X1529202Y1326718*
X1528929Y1325593*
X1528384Y1324843*
X1527566Y1324468*
X1526747*
X1525929Y1324843*
X1525656Y1325218*
X1525384Y1325968*
X1535747Y1332343D02*
X1533020Y1324468D01*
X1531929Y1332343D02*
X1535747D01*
X1619793D02*
X1618975Y1331968D01*
X1618702Y1331218*
Y1330468*
X1618975Y1329718*
X1619520Y1329343*
X1620611Y1328968*
X1621429Y1328593*
X1621975Y1327843*
X1622247Y1327093*
Y1325968*
X1621975Y1325218*
X1621702Y1324843*
X1620884Y1324468*
X1619793*
X1618975Y1324843*
X1618702Y1325218*
X1618429Y1325968*
Y1327093*
X1618702Y1327843*
X1619247Y1328593*
X1620066Y1328968*
X1621156Y1329343*
X1621702Y1329718*
X1621975Y1330468*
Y1331218*
X1621702Y1331968*
X1620884Y1332343*
X1619793*
X1651384Y1330468D02*
X1663384D01*
X1657384Y1324468D02*
Y1336468D01*
X1660384Y1339768D02*
Y1333468D01*
Y1339768D02*
X1663220D01*
X1660384Y1336768D02*
X1662129D01*
X1660384Y1333468D02*
X1663220D01*
X1684020Y1332343D02*
X1686202Y1328593D01*
Y1324468*
X1688384Y1332343D02*
X1686202Y1328593D01*
X1690838Y1332343D02*
Y1324468D01*
Y1332343D02*
X1694384D01*
X1690838Y1328593D02*
X1693020D01*
X1690838Y1324468D02*
X1694384D01*
X1700656Y1331218D02*
X1700111Y1331968D01*
X1699293Y1332343*
X1698202*
X1697384Y1331968*
X1696838Y1331218*
Y1330468*
X1697111Y1329718*
X1697384Y1329343*
X1697929Y1328968*
X1699566Y1328218*
X1700111Y1327843*
X1700384Y1327468*
X1700656Y1326718*
Y1325593*
X1700111Y1324843*
X1699293Y1324468*
X1698202*
X1697384Y1324843*
X1696838Y1325593*
X1737202Y1331218D02*
Y1324468D01*
X1734747Y1327843D02*
X1739656D01*
X1747020Y1333843D02*
X1742111Y1321843D01*
X1749475Y1327843D02*
X1754384D01*
X1758475Y1332343D02*
X1757656Y1331968D01*
X1757111Y1330843*
X1756838Y1328968*
Y1327843*
X1757111Y1325968*
X1757656Y1324843*
X1758475Y1324468*
X1759020*
X1759838Y1324843*
X1760384Y1325968*
X1760656Y1327843*
Y1328968*
X1760384Y1330843*
X1759838Y1331968*
X1759020Y1332343*
X1758475*
X1763384Y1325218D02*
X1763111Y1324843D01*
X1763384Y1324468*
X1763656Y1324843*
X1763384Y1325218*
X1767747Y1332343D02*
X1766929Y1331968D01*
X1766384Y1330843*
X1766111Y1328968*
Y1327843*
X1766384Y1325968*
X1766929Y1324843*
X1767747Y1324468*
X1768293*
X1769111Y1324843*
X1769656Y1325968*
X1769929Y1327843*
Y1328968*
X1769656Y1330843*
X1769111Y1331968*
X1768293Y1332343*
X1767747*
X1525384Y1306843D02*
X1525929Y1307218D01*
X1526747Y1308343*
Y1300468*
X1529202Y1306843D02*
X1529747Y1307218D01*
X1530566Y1308343*
Y1300468*
X1534656Y1308343D02*
X1533838Y1307968D01*
X1533293Y1306843*
X1533020Y1304968*
Y1303843*
X1533293Y1301968*
X1533838Y1300843*
X1534656Y1300468*
X1535202*
X1536020Y1300843*
X1536566Y1301968*
X1536838Y1303843*
Y1304968*
X1536566Y1306843*
X1536020Y1307968*
X1535202Y1308343*
X1534656*
X1618702Y1306468D02*
Y1306843D01*
X1618975Y1307593*
X1619247Y1307968*
X1619793Y1308343*
X1620884*
X1621429Y1307968*
X1621702Y1307593*
X1621975Y1306843*
Y1306093*
X1621702Y1305343*
X1621156Y1304218*
X1618429Y1300468*
X1622247*
X1651384Y1306468D02*
X1663384D01*
X1657384Y1300468D02*
Y1312468D01*
X1660384Y1315768D02*
Y1309468D01*
Y1315768D02*
X1663220D01*
X1660384Y1312768D02*
X1662129D01*
X1684020Y1308343D02*
X1686202Y1304593D01*
Y1300468*
X1688384Y1308343D02*
X1686202Y1304593D01*
X1690838Y1308343D02*
Y1300468D01*
Y1308343D02*
X1694384D01*
X1690838Y1304593D02*
X1693020D01*
X1690838Y1300468D02*
X1694384D01*
X1700656Y1307218D02*
X1700111Y1307968D01*
X1699293Y1308343*
X1698202*
X1697384Y1307968*
X1696838Y1307218*
Y1306468*
X1697111Y1305718*
X1697384Y1305343*
X1697929Y1304968*
X1699566Y1304218*
X1700111Y1303843*
X1700384Y1303468*
X1700656Y1302718*
Y1301593*
X1700111Y1300843*
X1699293Y1300468*
X1698202*
X1697384Y1300843*
X1696838Y1301593*
X1737202Y1307218D02*
Y1300468D01*
X1734747Y1303843D02*
X1739656D01*
X1747020Y1309843D02*
X1742111Y1297843D01*
X1749475Y1303843D02*
X1754384D01*
X1758475Y1308343D02*
X1757656Y1307968D01*
X1757111Y1306843*
X1756838Y1304968*
Y1303843*
X1757111Y1301968*
X1757656Y1300843*
X1758475Y1300468*
X1759020*
X1759838Y1300843*
X1760384Y1301968*
X1760656Y1303843*
Y1304968*
X1760384Y1306843*
X1759838Y1307968*
X1759020Y1308343*
X1758475*
X1763384Y1301218D02*
X1763111Y1300843D01*
X1763384Y1300468*
X1763656Y1300843*
X1763384Y1301218*
X1767747Y1308343D02*
X1766929Y1307968D01*
X1766384Y1306843*
X1766111Y1304968*
Y1303843*
X1766384Y1301968*
X1766929Y1300843*
X1767747Y1300468*
X1768293*
X1769111Y1300843*
X1769656Y1301968*
X1769929Y1303843*
Y1304968*
X1769656Y1306843*
X1769111Y1307968*
X1768293Y1308343*
X1767747*
X1528656Y1283218D02*
X1528384Y1283968D01*
X1527566Y1284343*
X1527020*
X1526202Y1283968*
X1525656Y1282843*
X1525384Y1280968*
Y1279093*
X1525656Y1277593*
X1526202Y1276843*
X1527020Y1276468*
X1527293*
X1528111Y1276843*
X1528656Y1277593*
X1528929Y1278718*
Y1279093*
X1528656Y1280218*
X1528111Y1280968*
X1527293Y1281343*
X1527020*
X1526202Y1280968*
X1525656Y1280218*
X1525384Y1279093*
X1533020Y1284343D02*
X1532202Y1283968D01*
X1531656Y1282843*
X1531384Y1280968*
Y1279843*
X1531656Y1277968*
X1532202Y1276843*
X1533020Y1276468*
X1533566*
X1534384Y1276843*
X1534929Y1277968*
X1535202Y1279843*
Y1280968*
X1534929Y1282843*
X1534384Y1283968*
X1533566Y1284343*
X1533020*
X1543929Y1281718D02*
X1546929Y1276468D01*
Y1281718D02*
X1543929Y1276468D01*
X1555656Y1282843D02*
X1556202Y1283218D01*
X1557020Y1284343*
Y1276468*
X1563020Y1284343D02*
X1560293D01*
X1560020Y1280968*
X1560293Y1281343*
X1561111Y1281718*
X1561929*
X1562747Y1281343*
X1563293Y1280593*
X1563566Y1279468*
X1563293Y1278718*
X1563020Y1277593*
X1562475Y1276843*
X1561656Y1276468*
X1560838*
X1560020Y1276843*
X1559747Y1277218*
X1559475Y1277968*
X1567656Y1284343D02*
X1566838Y1283968D01*
X1566293Y1282843*
X1566020Y1280968*
Y1279843*
X1566293Y1277968*
X1566838Y1276843*
X1567656Y1276468*
X1568202*
X1569020Y1276843*
X1569566Y1277968*
X1569838Y1279843*
Y1280968*
X1569566Y1282843*
X1569020Y1283968*
X1568202Y1284343*
X1567656*
X1621020D02*
X1618293Y1279093D01*
X1622384*
X1621020Y1284343D02*
Y1276468D01*
X1651384Y1282468D02*
X1663384D01*
X1657384Y1276468D02*
Y1288468D01*
X1663656Y1290268D02*
X1663438Y1290868D01*
X1663002Y1291468*
X1662566Y1291768*
X1661693*
X1661256Y1291468*
X1660820Y1290868*
X1660602Y1290268*
X1660384Y1289368*
Y1287868*
X1660602Y1286968*
X1660820Y1286368*
X1661256Y1285768*
X1661693Y1285468*
X1662566*
X1663002Y1285768*
X1663438Y1286368*
X1663656Y1286968*
Y1287868*
X1662566D02*
X1663656D01*
X1684020Y1284343D02*
X1686202Y1280593D01*
Y1276468*
X1688384Y1284343D02*
X1686202Y1280593D01*
X1690838Y1284343D02*
Y1276468D01*
Y1284343D02*
X1694384D01*
X1690838Y1280593D02*
X1693020D01*
X1690838Y1276468D02*
X1694384D01*
X1700656Y1283218D02*
X1700111Y1283968D01*
X1699293Y1284343*
X1698202*
X1697384Y1283968*
X1696838Y1283218*
Y1282468*
X1697111Y1281718*
X1697384Y1281343*
X1697929Y1280968*
X1699566Y1280218*
X1700111Y1279843*
X1700384Y1279468*
X1700656Y1278718*
Y1277593*
X1700111Y1276843*
X1699293Y1276468*
X1698202*
X1697384Y1276843*
X1696838Y1277593*
X1737202Y1283218D02*
Y1276468D01*
X1734747Y1279843D02*
X1739656D01*
X1747020Y1285843D02*
X1742111Y1273843D01*
X1749475Y1279843D02*
X1754384D01*
X1758475Y1284343D02*
X1757656Y1283968D01*
X1757111Y1282843*
X1756838Y1280968*
Y1279843*
X1757111Y1277968*
X1757656Y1276843*
X1758475Y1276468*
X1759020*
X1759838Y1276843*
X1760384Y1277968*
X1760656Y1279843*
Y1280968*
X1760384Y1282843*
X1759838Y1283968*
X1759020Y1284343*
X1758475*
X1763384Y1277218D02*
X1763111Y1276843D01*
X1763384Y1276468*
X1763656Y1276843*
X1763384Y1277218*
X1767747Y1284343D02*
X1766929Y1283968D01*
X1766384Y1282843*
X1766111Y1280968*
Y1279843*
X1766384Y1277968*
X1766929Y1276843*
X1767747Y1276468*
X1768293*
X1769111Y1276843*
X1769656Y1277968*
X1769929Y1279843*
Y1280968*
X1769656Y1282843*
X1769111Y1283968*
X1768293Y1284343*
X1767747*
X1525384Y1258843D02*
X1525929Y1259218D01*
X1526747Y1260343*
Y1252468*
X1530838Y1260343D02*
X1530020Y1259968D01*
X1529475Y1258843*
X1529202Y1256968*
Y1255843*
X1529475Y1253968*
X1530020Y1252843*
X1530838Y1252468*
X1531384*
X1532202Y1252843*
X1532747Y1253968*
X1533020Y1255843*
Y1256968*
X1532747Y1258843*
X1532202Y1259968*
X1531384Y1260343*
X1530838*
X1537111D02*
X1536293Y1259968D01*
X1535747Y1258843*
X1535475Y1256968*
Y1255843*
X1535747Y1253968*
X1536293Y1252843*
X1537111Y1252468*
X1537656*
X1538475Y1252843*
X1539020Y1253968*
X1539293Y1255843*
Y1256968*
X1539020Y1258843*
X1538475Y1259968*
X1537656Y1260343*
X1537111*
X1619656Y1258843D02*
X1620202Y1259218D01*
X1621020Y1260343*
Y1252468*
X1651384Y1258468D02*
X1663384D01*
X1657384Y1252468D02*
Y1264468D01*
X1660384Y1267768D02*
Y1261468D01*
X1663438Y1267768D02*
Y1261468D01*
X1660384Y1264768D02*
X1663438D01*
X1684020Y1260343D02*
X1686202Y1256593D01*
Y1252468*
X1688384Y1260343D02*
X1686202Y1256593D01*
X1690838Y1260343D02*
Y1252468D01*
Y1260343D02*
X1694384D01*
X1690838Y1256593D02*
X1693020D01*
X1690838Y1252468D02*
X1694384D01*
X1700656Y1259218D02*
X1700111Y1259968D01*
X1699293Y1260343*
X1698202*
X1697384Y1259968*
X1696838Y1259218*
Y1258468*
X1697111Y1257718*
X1697384Y1257343*
X1697929Y1256968*
X1699566Y1256218*
X1700111Y1255843*
X1700384Y1255468*
X1700656Y1254718*
Y1253593*
X1700111Y1252843*
X1699293Y1252468*
X1698202*
X1697384Y1252843*
X1696838Y1253593*
X1737202Y1259218D02*
Y1252468D01*
X1734747Y1255843D02*
X1739656D01*
X1747020Y1261843D02*
X1742111Y1249843D01*
X1749475Y1255843D02*
X1754384D01*
X1758475Y1260343D02*
X1757656Y1259968D01*
X1757111Y1258843*
X1756838Y1256968*
Y1255843*
X1757111Y1253968*
X1757656Y1252843*
X1758475Y1252468*
X1759020*
X1759838Y1252843*
X1760384Y1253968*
X1760656Y1255843*
Y1256968*
X1760384Y1258843*
X1759838Y1259968*
X1759020Y1260343*
X1758475*
X1763384Y1253218D02*
X1763111Y1252843D01*
X1763384Y1252468*
X1763656Y1252843*
X1763384Y1253218*
X1767747Y1260343D02*
X1766929Y1259968D01*
X1766384Y1258843*
X1766111Y1256968*
Y1255843*
X1766384Y1253968*
X1766929Y1252843*
X1767747Y1252468*
X1768293*
X1769111Y1252843*
X1769656Y1253968*
X1769929Y1255843*
Y1256968*
X1769656Y1258843*
X1769111Y1259968*
X1768293Y1260343*
X1767747*
X1525929Y1236343D02*
X1528929D01*
X1527293Y1233343*
X1528111*
X1528656Y1232968*
X1528929Y1232593*
X1529202Y1231468*
Y1230718*
X1528929Y1229593*
X1528384Y1228843*
X1527566Y1228468*
X1526747*
X1525929Y1228843*
X1525656Y1229218*
X1525384Y1229968*
X1533293Y1236343D02*
X1532475Y1235968D01*
X1531929Y1234843*
X1531656Y1232968*
Y1231843*
X1531929Y1229968*
X1532475Y1228843*
X1533293Y1228468*
X1533838*
X1534656Y1228843*
X1535202Y1229968*
X1535475Y1231843*
Y1232968*
X1535202Y1234843*
X1534656Y1235968*
X1533838Y1236343*
X1533293*
X1616520Y1234843D02*
X1617066Y1235218D01*
X1617884Y1236343*
Y1228468*
X1624156Y1236343D02*
X1621429Y1228468D01*
X1620338Y1236343D02*
X1624156D01*
X1651384Y1234468D02*
X1663384D01*
X1657384Y1228468D02*
Y1240468D01*
X1660384Y1243768D02*
Y1237468D01*
X1684020Y1236343D02*
X1686202Y1232593D01*
Y1228468*
X1688384Y1236343D02*
X1686202Y1232593D01*
X1690838Y1236343D02*
Y1228468D01*
Y1236343D02*
X1694384D01*
X1690838Y1232593D02*
X1693020D01*
X1690838Y1228468D02*
X1694384D01*
X1700656Y1235218D02*
X1700111Y1235968D01*
X1699293Y1236343*
X1698202*
X1697384Y1235968*
X1696838Y1235218*
Y1234468*
X1697111Y1233718*
X1697384Y1233343*
X1697929Y1232968*
X1699566Y1232218*
X1700111Y1231843*
X1700384Y1231468*
X1700656Y1230718*
Y1229593*
X1700111Y1228843*
X1699293Y1228468*
X1698202*
X1697384Y1228843*
X1696838Y1229593*
X1737202Y1235218D02*
Y1228468D01*
X1734747Y1231843D02*
X1739656D01*
X1747020Y1237843D02*
X1742111Y1225843D01*
X1749475Y1231843D02*
X1754384D01*
X1758475Y1236343D02*
X1757656Y1235968D01*
X1757111Y1234843*
X1756838Y1232968*
Y1231843*
X1757111Y1229968*
X1757656Y1228843*
X1758475Y1228468*
X1759020*
X1759838Y1228843*
X1760384Y1229968*
X1760656Y1231843*
Y1232968*
X1760384Y1234843*
X1759838Y1235968*
X1759020Y1236343*
X1758475*
X1763384Y1229218D02*
X1763111Y1228843D01*
X1763384Y1228468*
X1763656Y1228843*
X1763384Y1229218*
X1767747Y1236343D02*
X1766929Y1235968D01*
X1766384Y1234843*
X1766111Y1232968*
Y1231843*
X1766384Y1229968*
X1766929Y1228843*
X1767747Y1228468*
X1768293*
X1769111Y1228843*
X1769656Y1229968*
X1769929Y1231843*
Y1232968*
X1769656Y1234843*
X1769111Y1235968*
X1768293Y1236343*
X1767747*
X1525656Y1210468D02*
Y1210843D01*
X1525929Y1211593*
X1526202Y1211968*
X1526747Y1212343*
X1527838*
X1528384Y1211968*
X1528656Y1211593*
X1528929Y1210843*
Y1210093*
X1528656Y1209343*
X1528111Y1208218*
X1525384Y1204468*
X1529202*
X1535475Y1212343D02*
X1532747Y1204468D01*
X1531656Y1212343D02*
X1535475D01*
X1618702Y1210468D02*
Y1210843D01*
X1618975Y1211593*
X1619247Y1211968*
X1619793Y1212343*
X1620884*
X1621429Y1211968*
X1621702Y1211593*
X1621975Y1210843*
Y1210093*
X1621702Y1209343*
X1621156Y1208218*
X1618429Y1204468*
X1622247*
X1651384Y1210468D02*
X1663384D01*
X1657384Y1204468D02*
Y1216468D01*
X1662566Y1219768D02*
Y1214968D01*
X1662347Y1214068*
X1662129Y1213768*
X1661693Y1213468*
X1661256*
X1660820Y1213768*
X1660602Y1214068*
X1660384Y1214968*
Y1215568*
X1684020Y1212343D02*
X1686202Y1208593D01*
Y1204468*
X1688384Y1212343D02*
X1686202Y1208593D01*
X1690838Y1212343D02*
Y1204468D01*
Y1212343D02*
X1694384D01*
X1690838Y1208593D02*
X1693020D01*
X1690838Y1204468D02*
X1694384D01*
X1700656Y1211218D02*
X1700111Y1211968D01*
X1699293Y1212343*
X1698202*
X1697384Y1211968*
X1696838Y1211218*
Y1210468*
X1697111Y1209718*
X1697384Y1209343*
X1697929Y1208968*
X1699566Y1208218*
X1700111Y1207843*
X1700384Y1207468*
X1700656Y1206718*
Y1205593*
X1700111Y1204843*
X1699293Y1204468*
X1698202*
X1697384Y1204843*
X1696838Y1205593*
X1737202Y1211218D02*
Y1204468D01*
X1734747Y1207843D02*
X1739656D01*
X1747020Y1213843D02*
X1742111Y1201843D01*
X1749475Y1207843D02*
X1754384D01*
X1758475Y1212343D02*
X1757656Y1211968D01*
X1757111Y1210843*
X1756838Y1208968*
Y1207843*
X1757111Y1205968*
X1757656Y1204843*
X1758475Y1204468*
X1759020*
X1759838Y1204843*
X1760384Y1205968*
X1760656Y1207843*
Y1208968*
X1760384Y1210843*
X1759838Y1211968*
X1759020Y1212343*
X1758475*
X1763384Y1205218D02*
X1763111Y1204843D01*
X1763384Y1204468*
X1763656Y1204843*
X1763384Y1205218*
X1767747Y1212343D02*
X1766929Y1211968D01*
X1766384Y1210843*
X1766111Y1208968*
Y1207843*
X1766384Y1205968*
X1766929Y1204843*
X1767747Y1204468*
X1768293*
X1769111Y1204843*
X1769656Y1205968*
X1769929Y1207843*
Y1208968*
X1769656Y1210843*
X1769111Y1211968*
X1768293Y1212343*
X1767747*
X1525384Y1186843D02*
X1525929Y1187218D01*
X1526747Y1188343*
Y1180468*
X1532747Y1188343D02*
X1530020D01*
X1529747Y1184968*
X1530020Y1185343*
X1530838Y1185718*
X1531656*
X1532475Y1185343*
X1533020Y1184593*
X1533293Y1183468*
X1533020Y1182718*
X1532747Y1181593*
X1532202Y1180843*
X1531384Y1180468*
X1530566*
X1529747Y1180843*
X1529475Y1181218*
X1529202Y1181968*
X1617884Y1188343D02*
X1615156Y1183093D01*
X1619247*
X1617884Y1188343D02*
Y1180468D01*
X1621975Y1186468D02*
Y1186843D01*
X1622247Y1187593*
X1622520Y1187968*
X1623066Y1188343*
X1624156*
X1624702Y1187968*
X1624975Y1187593*
X1625247Y1186843*
Y1186093*
X1624975Y1185343*
X1624429Y1184218*
X1621702Y1180468*
X1625520*
X1651384Y1186468D02*
X1663384D01*
X1657384Y1180468D02*
Y1192468D01*
X1660384Y1195768D02*
Y1189468D01*
X1663438Y1195768D02*
X1660384Y1191568D01*
X1661475Y1193068D02*
X1663438Y1189468D01*
X1684020Y1188343D02*
X1686202Y1184593D01*
Y1180468*
X1688384Y1188343D02*
X1686202Y1184593D01*
X1690838Y1188343D02*
Y1180468D01*
Y1188343D02*
X1694384D01*
X1690838Y1184593D02*
X1693020D01*
X1690838Y1180468D02*
X1694384D01*
X1700656Y1187218D02*
X1700111Y1187968D01*
X1699293Y1188343*
X1698202*
X1697384Y1187968*
X1696838Y1187218*
Y1186468*
X1697111Y1185718*
X1697384Y1185343*
X1697929Y1184968*
X1699566Y1184218*
X1700111Y1183843*
X1700384Y1183468*
X1700656Y1182718*
Y1181593*
X1700111Y1180843*
X1699293Y1180468*
X1698202*
X1697384Y1180843*
X1696838Y1181593*
X1737202Y1187218D02*
Y1180468D01*
X1734747Y1183843D02*
X1739656D01*
X1747020Y1189843D02*
X1742111Y1177843D01*
X1749475Y1183843D02*
X1754384D01*
X1758475Y1188343D02*
X1757656Y1187968D01*
X1757111Y1186843*
X1756838Y1184968*
Y1183843*
X1757111Y1181968*
X1757656Y1180843*
X1758475Y1180468*
X1759020*
X1759838Y1180843*
X1760384Y1181968*
X1760656Y1183843*
Y1184968*
X1760384Y1186843*
X1759838Y1187968*
X1759020Y1188343*
X1758475*
X1763384Y1181218D02*
X1763111Y1180843D01*
X1763384Y1180468*
X1763656Y1180843*
X1763384Y1181218*
X1767747Y1188343D02*
X1766929Y1187968D01*
X1766384Y1186843*
X1766111Y1184968*
Y1183843*
X1766384Y1181968*
X1766929Y1180843*
X1767747Y1180468*
X1768293*
X1769111Y1180843*
X1769656Y1181968*
X1769929Y1183843*
Y1184968*
X1769656Y1186843*
X1769111Y1187968*
X1768293Y1188343*
X1767747*
G54D46*
X1434723Y1570877D02*
X1435617Y1571431D01*
X1436959Y1573092*
Y1561466*
X1446802Y1569217D02*
X1446355Y1567556D01*
X1445460Y1566448*
X1444118Y1565895*
X1443670*
X1442328Y1566448*
X1441433Y1567556*
X1440986Y1569217*
Y1569770*
X1441433Y1571431*
X1442328Y1572538*
X1443670Y1573092*
X1444118*
X1445460Y1572538*
X1446355Y1571431*
X1446802Y1569217*
Y1566448*
X1446355Y1563680*
X1445460Y1562019*
X1444118Y1561466*
X1443223*
X1441881Y1562019*
X1441433Y1563126*
X1453065Y1573092D02*
X1451723Y1572538D01*
X1451276Y1571431*
Y1570324*
X1451723Y1569217*
X1452618Y1568663*
X1454408Y1568109*
X1455750Y1567556*
X1456645Y1566448*
X1457092Y1565341*
Y1563680*
X1456645Y1562573*
X1456197Y1562019*
X1454855Y1561466*
X1453065*
X1451723Y1562019*
X1451276Y1562573*
X1450828Y1563680*
Y1565341*
X1451276Y1566448*
X1452171Y1567556*
X1453513Y1568109*
X1455302Y1568663*
X1456197Y1569217*
X1456645Y1570324*
Y1571431*
X1456197Y1572538*
X1454855Y1573092*
X1453065*
X1461566Y1562573D02*
X1461118Y1562019D01*
X1461566Y1561466*
X1462013Y1562019*
X1461566Y1562573*
X1468724Y1573092D02*
X1467382Y1572538D01*
X1466487Y1570877*
X1466040Y1568109*
Y1566448*
X1466487Y1563680*
X1467382Y1562019*
X1468724Y1561466*
X1469619*
X1470961Y1562019*
X1471856Y1563680*
X1472303Y1566448*
Y1568109*
X1471856Y1570877*
X1470961Y1572538*
X1469619Y1573092*
X1468724*
X1476330Y1569217D02*
Y1561466D01*
Y1567002D02*
X1477672Y1568663D01*
X1478566Y1569217*
X1478566D02*
X1479909D01*
X1480803Y1568663*
X1481251Y1567002*
Y1561466*
Y1567002D02*
X1482593Y1568663D01*
X1483488Y1569217*
X1484830*
X1485725Y1568663*
X1486172Y1567002*
Y1561466*
X1490199Y1569217D02*
Y1561466D01*
Y1567002D02*
X1491541Y1568663D01*
X1492436Y1569217*
X1493778*
X1494672Y1568663*
X1495120Y1567002*
Y1561466*
Y1567002D02*
X1496462Y1568663D01*
X1497357Y1569217*
X1498699*
X1499594Y1568663*
X1500041Y1567002*
Y1561466*
X2006429Y2015206D02*
Y2015759D01*
X2006877Y2016867*
X2007324Y2017420*
X2008219Y2017974*
X2010008*
X2010903Y2017420*
X2011350Y2016867*
X2011798Y2015759*
Y2014652*
X2011350Y2013545*
X2010456Y2011884*
X2005982Y2006347*
X2012245*
X2021640Y2016313D02*
X2021193Y2017420D01*
X2019851Y2017974*
X2018956*
X2017614Y2017420*
X2016719Y2015759*
X2016272Y2012991*
Y2010223*
X2016719Y2008008*
X2017614Y2006901*
X2018956Y2006347*
X2019403*
X2020746Y2006901*
X2021640Y2008008*
X2022088Y2009669*
Y2010223*
X2021640Y2011884*
X2020746Y2012991*
X2019403Y2013545*
X2018956*
X2017614Y2012991*
X2016719Y2011884*
X2016272Y2010223*
X2032378Y2017974D02*
X2027904Y2006347D01*
X2026114Y2017974D02*
X2032378D01*
X2036852Y2007455D02*
X2036404Y2006901D01*
X2036852Y2006347*
X2037299Y2006901*
X2036852Y2007455*
X2042220Y2017974D02*
X2047141D01*
X2044457Y2013545*
X2045799*
X2046694Y2012991*
X2047141Y2012438*
X2047141D02*
X2047589Y2010777D01*
Y2009669*
X2047141Y2008008*
X2046247Y2006901*
X2044905Y2006347*
X2043562*
X2042220Y2006901*
X2041773Y2007455*
X2041325Y2008562*
X2051615Y2014098D02*
Y2006347D01*
Y2011884D02*
X2052957Y2013545D01*
X2053852Y2014098*
X2055194*
X2056089Y2013545*
X2056537Y2011884*
Y2006347*
Y2011884D02*
X2057879Y2013545D01*
X2058774Y2014098*
X2060116*
X2061010Y2013545*
X2061458Y2011884*
Y2006347*
X2065484Y2014098D02*
Y2006347D01*
Y2011884D02*
X2066826Y2013545D01*
X2067721Y2014098*
X2069063*
X2069958Y2013545*
X2070406Y2011884*
Y2006347*
Y2011884D02*
X2071748Y2013545D01*
X2072643Y2014098*
X2073985*
X2074879Y2013545*
X2075327Y2011884*
Y2006347*
G74*
X0Y0D02*
M02*
