M48
;FILE_FORMAT=2:4
INCH,LZ
FMAT,2
ICI,OFF
;TYPE=PLATED
T1C.015
T2C.017
T3C.027
T4C.03
T5C.037
T6C.04
T7C.042
T8C.047
T9C.052
T10C.057
T11C.06
T12C.063
T13C.067
T14C.08
T15C.1
T16C.11
T17C.14
%
M72
G90
G93X0Y0
T1C.015F095S3
X060917Y067827
X061317Y068227
X061717Y068627
X062117Y069427
X061717Y069827
X061317Y070227
X059737Y070227
X060917Y070627
X071687Y072907
X071687Y071717
X071687Y070517
X071677Y069317
X068017Y069237
X069217Y069237
X065617Y069237
X066817Y069237
X064417Y069237
X070417Y069237
X063217Y069237
X071647Y068117
X071687Y066917
X071677Y065717
X080917Y067827
X081317Y068227
X081717Y068627
X084417Y069237
X082117Y069427
X081717Y069827
X081317Y070227
X080917Y070627
X091687Y072917
X091687Y071717
X091687Y070517
X091677Y069317
X090417Y069237
X088017Y069237
X089217Y069237
X085617Y069237
X086817Y069237
X091647Y068117
X091687Y066917
X091677Y065717
T2C.017F095S3
X009437Y007937
X007437Y009937
X005437Y011937
X007437Y011937
X007437Y013937
X009437Y013937
X005437Y013937
X004937Y016437
X008437Y017437
X005437Y018937
X004937Y018937
X007437Y019437
X008937Y020937
X004937Y021437
X005437Y021437
X007437Y021937
X005437Y023937
X004937Y023937
X007437Y024437
X008937Y025937
X004937Y026437
X005437Y026437
X005937Y056437
X008437Y058937
X005937Y058937
X005937Y061437
X008437Y061437
X008437Y063937
X004937Y065437
X007437Y067937
X004937Y067937
X007437Y070437
X004937Y070437
X004937Y072937
X007437Y072937
X007437Y075437
X012437Y080437
X009937Y077937
X012437Y077937
X013687Y077407
X009937Y075437
X012437Y075437
X014887Y074007
X009937Y072937
X012437Y072937
X014887Y072087
X009937Y070437
X013437Y066437
X010937Y063937
X013437Y063937
X013437Y061437
X010937Y061437
X013437Y058937
X010937Y058937
X013437Y056437
X010937Y056437
X012427Y054857
X012827Y054457
X013227Y054057
X013137Y052837
X011237Y042137
X011637Y041737
X010437Y025937
X012937Y024937
X013937Y024937
X013437Y024937
X013437Y024437
X013937Y024437
X010437Y024437
X012937Y024437
X013937Y023937
X013437Y023937
X012937Y023937
X011937Y020437
X011937Y017937
X013437Y015937
X013437Y013937
X011437Y013937
X013437Y011937
X011437Y011937
X011437Y009937
X011437Y007937
X011437Y005937
X013437Y005937
X013437Y004937
X015937Y004937
X018437Y004937
X015137Y052837
X017137Y052837
X019437Y055337
X015937Y056437
X015937Y058937
X018637Y060937
X015937Y061437
X015937Y063937
X018937Y065437
X015937Y066437
X015937Y068937
X018437Y068937
X018437Y071437
X016837Y074137
X017987Y075747
X018007Y078277
X017437Y080437
X019937Y080437
X022437Y080437
X020937Y073937
X020937Y071437
X024377Y068307
X022117Y065777
X021437Y065437
X022117Y060937
X021537Y057847
X024377Y055637
X021537Y055037
X022937Y052837
X020937Y052837
X022517Y049807
X021437Y014937
X023437Y013437
X023437Y007437
X020937Y004937
X023437Y004937
X025937Y004937
X028437Y004937
X026937Y052837
X028937Y052837
X024937Y052837
X027757Y058297
X029597Y059087
X027837Y060187
X029437Y060937
X025017Y061847
X029027Y063297
X024997Y066847
X024997Y067347
X028437Y067937
X024957Y069097
X027077Y069217
X028437Y069437
X024937Y080437
X027437Y080437
X034437Y080937
X034437Y079937
X031027Y078227
X031427Y077827
X033637Y076887
X032867Y074427
X033237Y070897
X032737Y070897
X029937Y069437
X030067Y067817
X032737Y066977
X033237Y066577
X033737Y066177
X029937Y065937
X034237Y065777
X032337Y065377
X031937Y064977
X032937Y064437
X032437Y064437
X030497Y063357
X030097Y062957
X032937Y060937
X029937Y060937
X031937Y060937
X032737Y059037
X031797Y059037
X030737Y058737
X033567Y058217
X033967Y057817
X030737Y057337
X030707Y056107
X034767Y055547
X034367Y055147
X031387Y052737
X031237Y048747
X034087Y048747
X031297Y047547
X034077Y047547
X031337Y046347
X031377Y045147
X031357Y043947
X034437Y042937
X034437Y041437
X034437Y038437
X030437Y038437
X033437Y004937
X030937Y004937
X037562Y023187
X036937Y038437
X039437Y038437
X039777Y041127
X036467Y041737
X036937Y042937
X038437Y042937
X036947Y044597
X039097Y045087
X035397Y046097
X039097Y046097
X035397Y046597
X039337Y046737
X036807Y047097
X039337Y047537
X035297Y047597
X039337Y048337
X039547Y049067
X039147Y049467
X039547Y049867
X037757Y050057
X037757Y052737
X035637Y052737
X037177Y055617
X035537Y055837
X039547Y056427
X037227Y05649
X035437Y059237
X036537Y059237
X035437Y060937
X036437Y060937
X039737Y062437
X038017Y062957
X038417Y063357
X038017Y063757
X038937Y064937
X035937Y064937
X038937Y066437
X035937Y066437
X038937Y068437
X037937Y070937
X036737Y071617
X037937Y072437
X035267Y074297
X037937Y074937
X037287Y076887
X038887Y076887
X039137Y078137
X036297Y078967
X035357Y079027
X035937Y080937
X041137Y078137
X043137Y078137
X044477Y077427
X042137Y076887
X040587Y076887
X043587Y076887
X042117Y075027
X040437Y074937
X044367Y074117
X041417Y073777
X042757Y073277
X040437Y072437
X041337Y072277
X040287Y069577
X042937Y069337
X044037Y069337
X040687Y069177
X042937Y068337
X044037Y068337
X044037Y067337
X042727Y067057
X044037Y066437
X042137Y066337
X043337Y065437
X044037Y065437
X042137Y064937
X044037Y064437
X043337Y064437
X042327Y063607
X043437Y062937
X043937Y062937
X043937Y062437
X043437Y062437
X044407Y061107
X041087Y060777
X040287Y060777
X042967Y060447
X040687Y060377
X041487Y060377
X041627Y058437
X044917Y057637
X042937Y056137
X044137Y056137
X041737Y056137
X042937Y054937
X044137Y054937
X041737Y054937
X042937Y053737
X044137Y053737
X041737Y053737
X040737Y052737
X041297Y050267
X041927Y049097
X044077Y049097
X043607Y044557
X042857Y044137
X041737Y043737
X043937Y042937
X040937Y042937
X041937Y042937
X042937Y042937
X042937Y040937
X040937Y040937
X043937Y040937
X041937Y040937
X041937Y038437
X047997Y039977
X044937Y040937
X048757Y042847
X047437Y043537
X047037Y043937
X046637Y044337
X046537Y046137
X046937Y046537
X047937Y048937
X048437Y048937
X047937Y050437
X048437Y050437
X045237Y050937
X046037Y050937
X045637Y051337
X047037Y053037
X048347Y054017
X048827Y055157
X048467Y057217
X048867Y057657
X047597Y057697
X047197Y058097
X046427Y059277
X046027Y059677
X045627Y060077
X047437Y060437
X045227Y060477
X047437Y062437
X046797Y063207
X047437Y064437
X047437Y066937
X046787Y067967
X046387Y068367
X045987Y068767
X048867Y069167
X048467Y069567
X048437Y072437
X047067Y073807
X045807Y073817
X048437Y074937
X048937Y077437
X045437Y077937
X051437Y077437
X053937Y077437
X054437Y075937
X050937Y074937
X050937Y072437
X052937Y072437
X054437Y071437
X053937Y070937
X051437Y066937
X049937Y066937
X053937Y066937
X051437Y064937
X053937Y064937
X049937Y064937
X051437Y062437
X053937Y062437
X049937Y062437
X053937Y061437
X051437Y060437
X049937Y060437
X053747Y059347
X053297Y058937
X052067Y056917
X054387Y056027
X054397Y055227
X053997Y054827
X050117Y054767
X053937Y052937
X050127Y052077
X051087Y051217
X050937Y050437
X053937Y050437
X050437Y050437
X050937Y048937
X050437Y048937
X053937Y048937
X053937Y046437
X053437Y044937
X051937Y042937
X053937Y042937
X053937Y040937
X052937Y040937
X052937Y039937
X054437Y038437
X056437Y038437
X055437Y038437
X058437Y038437
X057437Y038437
X059437Y038437
X055437Y039437
X059437Y039437
X059437Y041437
X059437Y042937
X058437Y044937
X055937Y044937
X056937Y048937
X055937Y048937
X058937Y048937
X057937Y048937
X056937Y049937
X057937Y049937
X057937Y050937
X056437Y052937
X057067Y054417
X057397Y055627
X054937Y057937
X056937Y057937
X058237Y059937
X054937Y062437
X058867Y063607
X057937Y064937
X056937Y064937
X054937Y064937
X056937Y066937
X054937Y066937
X057977Y067757
X054937Y070937
X057977Y071517
X057437Y073437
X056437Y074937
X058937Y074937
X056437Y077437
X058937Y077437
X061437Y077437
X063937Y077437
X061437Y074937
X063937Y074937
X060937Y072937
X063437Y072937
X062437Y065937
X063667Y065767
X060137Y063937
X060777Y062807
X064807Y062007
X062377Y060857
X064507Y060857
X061677Y059607
X061517Y058107
X063437Y056937
X061937Y056937
X063187Y054387
X064687Y054367
X064687Y051557
X060697Y049317
X063187Y048807
X064687Y048677
X061437Y042937
X061437Y041437
X064997Y039977
X065757Y042827
X067027Y046687
X069867Y048657
X067687Y048687
X069127Y051027
X069237Y051527
X066177Y051537
X066187Y054387
X066937Y056937
X064937Y056937
X068437Y056937
X068437Y058437
X066937Y058437
X065227Y059107
X065217Y059607
X066937Y059937
X068437Y059937
X066937Y061437
X068437Y061437
X065207Y062407
X067437Y065937
X064937Y065937
X065937Y072937
X068937Y074937
X066437Y074937
X068937Y077437
X066437Y077437
X071437Y077437
X073937Y077437
X071437Y074937
X076437Y072937
X076437Y070937
X069937Y065937
X076937Y061437
X075437Y057937
X076937Y057937
X073187Y056927
X075817Y056447
X072557Y055227
X076257Y054487
X070737Y054237
X072287Y053507
X076257Y051577
X073087Y051027
X073337Y050527
X074757Y048677
X074207Y048067
X076837Y043597
X077757Y048697
X079257Y048857
X081547Y049317
X077757Y051567
X077757Y054267
X079257Y054347
X079777Y054897
X078437Y057937
X082337Y058617
X078437Y059937
X078437Y061437
X082337Y061797
X081437Y061937
X080437Y064937
X080437Y065937
X078437Y066437
X078437Y067437
X077977Y067687
X077977Y071517
X077937Y072437
X081437Y072637
X080437Y072637
X077937Y072937
X080437Y073637
X082937Y073637
X085437Y073637
X082437Y072637
X083217Y069237
X082937Y065937
X085437Y065937
X082937Y064937
X085437Y064937
X084437Y063437
X082527Y062947
X084597Y061107
X085937Y059437
X085137Y059037
X082937Y058437
X085437Y057937
X084597Y057287
X085817Y056817
X085077Y055677
X085437Y051437
X082937Y048937
X085437Y048937
X086717Y042177
X085307Y039977
X094057Y047617
X090437Y048937
X087937Y048937
X092937Y048937
X090437Y051437
X092937Y051437
X087937Y051437
X090437Y053937
X087937Y053937
X092937Y053937
X092937Y055937
X089897Y059077
X090937Y059437
X093437Y059437
X090937Y061937
X093437Y061937
X087937Y064437
X092937Y064437
X090437Y064437
X087937Y065937
X090437Y065937
X090437Y073637
X087937Y073637
X094812Y078062
X095437Y064437
X095937Y061937
X095937Y059437
X096437Y055937
X095437Y053937
X095437Y051437
X097937Y050937
X099437Y049437
X097937Y049437
X095437Y048937
X099437Y047937
X098677Y047617
X095437Y045937
X095437Y043937
X097437Y043937
X098812Y025312
X102687Y033812
X102687Y035937
X102687Y038062
X102437Y040437
X102937Y040437
X101837Y041537
X100937Y046437
X102237Y047077
X100937Y047937
X106937Y064937
X106937Y065437
X106937Y065937
X106937Y066437
X106937Y066937
X106937Y067437
X106937Y069937
X106937Y070437
X106937Y070937
X104562Y071062
X106937Y071437
X106937Y071937
X101737Y075037
X107937Y071937
X107437Y071937
X107437Y071437
X107937Y071437
X107437Y070937
X107937Y070937
X107937Y070437
X107437Y070437
X107937Y069937
X107437Y069937
X107437Y067437
X107937Y067437
X107437Y066937
X107937Y066937
X107437Y066437
X107937Y066437
X107937Y065937
X107437Y065937
X107937Y065437
X107437Y065437
X107937Y064937
X107437Y064937
T3C.027F197S55
X020587Y066577
X020587Y067577
T4C.03F197S55
X019847Y049737
X018637Y058297
X024637Y064097
X027077Y065057
X036817Y067617
X037117Y062357
X027807Y062097
X027757Y055897
X057967Y053817
X051937Y054077
X052737Y071137
X059557Y073067
X049607Y076127
X079547Y072587
X086897Y062197
X069397Y062147
X081797Y053807
T5C.037F197S55
X008437Y046812
X009437Y046812
X008437Y047812
X009437Y047812
X008437Y048812
X009437Y048812
X008437Y049812
X009437Y049812
X008437Y050812
X009437Y050812
X008437Y051812
X009437Y051812
X008437Y052812
X009437Y052812
X008437Y053812
X009437Y053812
X008437Y054812
X009437Y054812
X008437Y055812
X009437Y055812
X016187Y031812
X015187Y031812
X015437Y028062
X013437Y028062
X016187Y021312
X015187Y021312
X014187Y017562
X016187Y017562
X016437Y011062
X015437Y011062
X016187Y007562
X014187Y007562
X018687Y006562
X019687Y006562
X020687Y006562
X017937Y009062
X018937Y009062
X017937Y013062
X018937Y013062
X018437Y016562
X019437Y016562
X020437Y016562
X017937Y019812
X018937Y019812
X018937Y023812
X017937Y023812
X018437Y027062
X019437Y027062
X020437Y027062
X018812Y029812
X017812Y029812
X018812Y033812
X017812Y033812
X019897Y068787
X019897Y069787
X031937Y021562
X031937Y019562
X031937Y017312
X031937Y015312
X031937Y013062
X031937Y011062
X031937Y008812
X031937Y006812
X043687Y039062
X050737Y039557
X043687Y040062
X050737Y040557
X050737Y041557
X050567Y055917
X050567Y057917
X054947Y059817
X055947Y059817
X056947Y059817
X055087Y057087
X057087Y057087
X059687Y052567
X059687Y051567
X059687Y050567
X056937Y046187
X057937Y046187
X058937Y046187
X062562Y014625
X066562Y014625
X062562Y015625
X066562Y015625
X062562Y016625
X066562Y016625
X063687Y018812
X065687Y018812
X060687Y039062
X060687Y040062
X061687Y045187
X061687Y046187
X067687Y053567
X067687Y051567
X070187Y045937
X071187Y045937
X072187Y045937
X067737Y041557
X067737Y040557
X067737Y039557
X068687Y016882
X071937Y016562
X068687Y015312
X070687Y014562
X070687Y013562
X070687Y012562
X070687Y011562
X070187Y010437
X070187Y009375
X073687Y008312
X075687Y008312
X074187Y009375
X074187Y010437
X073687Y011562
X073687Y012562
X073687Y013562
X075187Y013562
X073687Y014562
X075187Y015562
X073937Y016562
X076687Y021062
X074687Y021062
X074937Y045187
X074937Y046187
X074757Y051567
X074757Y053567
X076697Y059817
X074697Y059817
X075697Y059817
X082757Y052567
X082757Y051567
X082757Y050567
X083687Y045937
X084687Y045937
X080987Y040137
X080987Y039137
X079187Y015562
X082312Y014562
X079187Y013562
X07925Y01132
X07925Y00975
X086187Y014562
X087937Y039557
X087937Y040557
X087937Y041557
X088437Y045187
X085687Y045937
X088437Y046187
X104906Y058406
X104906Y057406
X104906Y056406
X104906Y055406
X104906Y054406
X104906Y053406
X104906Y052406
X104906Y051406
X104906Y050406
X104906Y049406
X104906Y048406
X104906Y047406
X104906Y046406
X104906Y045406
X104906Y044406
X104906Y043406
X104906Y042406
X104906Y041406
X104906Y040406
X104906Y038406
X104906Y036406
X104906Y034406
X104906Y032406
X104906Y031406
X104906Y030406
X104906Y029406
X104906Y028406
X104906Y027406
X103562Y015187
X103562Y011312
X106906Y027406
X106906Y028406
X106906Y029406
X106906Y030406
X106906Y031406
X106906Y032406
X106906Y033406
X106906Y034406
X106906Y035406
X106906Y036406
X106906Y037406
X106906Y038406
X106906Y039406
X106906Y040406
X106906Y041406
X106906Y042406
X106906Y043406
X106906Y044406
X106906Y045406
X106906Y046406
X106906Y047406
X106906Y048406
X106906Y049406
X106906Y050406
X106906Y051406
X106906Y052406
X106906Y053406
X106906Y054406
X106906Y055406
X106906Y056406
X106906Y057406
X106906Y058406
T6C.04F139S55
X019847Y039467
X018447Y039467
X019847Y043067
X018447Y043067
X068687Y020007
X068687Y018607
X094437Y056527
X094437Y058527
T7C.042F139S55
X028812Y080437
X029812Y080437
X030812Y080437
X031812Y080437
X032812Y080437
X048937Y045937
X049937Y045937
X051937Y045937
X050937Y045937
X084187Y007612
X084187Y010562
X052937Y045937
T8C.047F139S55
X008937Y009437
X008937Y014937
X008937Y018937
X008937Y022937
X008562Y029562
X008562Y03094
X008562Y032318
X008562Y033696
X008562Y035074
X008562Y036462
X008562Y037842
X008562Y039222
X014312Y080062
X01569Y080062
X015037Y059747
X019812Y033812
X020937Y033812
X019812Y029812
X020937Y029812
X020062Y023812
X021187Y023812
X021187Y019812
X020062Y019812
X020062Y013062
X021187Y013062
X020062Y009062
X021187Y009062
X023937Y009062
X023937Y010062
X023937Y011062
X023937Y019187
X023937Y020187
X023937Y021187
X023937Y029562
X023937Y030562
X023937Y031562
X024597Y039817
X024597Y040817
X024597Y041817
X045687Y042557
X033407Y040527
X030407Y040527
X045687Y038557
X064187Y012062
X063187Y012062
X060822Y019687
X052562Y019687
X062437Y019812
X062687Y038557
X062687Y042557
X063687Y045187
X050637Y061337
X070897Y061067
X070897Y057067
X067687Y045187
X070377Y041537
X070377Y039287
X066437Y019812
X072687Y018112
X065187Y012062
X072687Y006312
X076937Y006312
X075187Y012562
X079187Y012562
X075187Y014562
X079187Y014562
X079187Y016562
X076937Y018112
X078637Y039287
X078637Y041537
X076937Y044937
X080937Y044937
X079677Y057077
X083677Y057077
X087637Y050337
X090437Y044937
X082987Y042557
X090437Y041497
X082987Y038557
X090437Y021187
X090437Y018187
X086187Y016562
X092937Y018187
X092937Y021187
X098697Y041497
X094437Y044937
T9C.052F107S55
X044187Y006062
X044187Y008062
X044187Y010062
X044187Y013062
X044187Y015062
X044187Y017062
X056187Y017062
X056187Y015062
X056187Y013062
X056187Y010062
X056187Y008062
X056187Y006062
T10C.057F107S55
X079187Y020812
X088187Y035562
X096687Y035562
X088187Y031187
X096687Y031187
X088187Y026687
X096687Y026687
X087687Y020812
T11C.06F089S55
X104456Y039406G85X105356Y039406
X104456Y037406G85X105356Y037406
X104456Y035406G85X105356Y035406
X104456Y033406G85X105356Y033406
T12C.063F089S55
X036187Y006062
X036187Y010062
X036187Y015062
X041187Y015062
X041187Y010062
X041187Y006062
X064187Y005562
X069187Y005562
X096562Y019187
X096562Y021187
X101562Y021187
X101562Y019187
T13C.067F089S55
X026187Y006622
X026187Y010062
X026187Y013502
X026187Y016747
X026187Y020187
X026187Y023627
X026187Y027122
X026187Y030562
X026187Y034002
X026467Y072507
X026467Y074507
X060747Y009812
X064187Y009812
X090187Y006937
X067627Y009812
X090187Y015187
X098062Y015187
X098062Y006937
T14C.08F074S55
X040687Y026562
X044687Y026562
X042687Y026625
X044687Y035562
X042687Y035562
X040687Y035617
X048561Y035617
X057687Y035617
X046687Y035562
X059687Y035562
X059687Y026625
X048561Y026562
X057687Y026562
X046687Y026562
X061687Y026562
X063687Y026562
X065561Y026562
X074687Y026562
X061687Y035562
X063687Y035562
X065561Y035617
X074687Y035617
X082561Y035617
X078687Y035562
X080687Y035562
X076687Y035562
X076687Y026625
X078687Y026562
X082561Y026562
X080687Y026562
T15C.1F069S658
X026877Y040817
T16C.11F069S658
X107896Y025356
X107906Y060406
T17C.14F035S9
X005906Y005906
X005906Y079921
X105236Y079921
X057087Y041339
X105236Y005906
M30
