*
*
G04 PADS VX.2 Build Number: 5060570 generated Gerber (RS-274-X) file*
G04 PC Version=2.1*
*
%IN "HFC3100D_Main Control_2"*%
*
%MOIN*%
*
%FSLAX35Y35*%
*
*
*
*
G04 PC Standard Apertures*
*
*
G04 Thermal Relief Aperture macro.*
%AMTER*
1,1,$1,0,0*
1,0,$1-$2,0,0*
21,0,$3,$4,0,0,45*
21,0,$3,$4,0,0,135*
%
*
*
G04 Annular Aperture macro.*
%AMANN*
1,1,$1,0,0*
1,0,$2,0,0*
%
*
*
G04 Odd Aperture macro.*
%AMODD*
1,1,$1,0,0*
1,0,$1-0.005,0,0*
%
*
*
G04 PC Custom Aperture Macros*
*
*
*
*
*
*
G04 PC Aperture Table*
*
%ADD010C,0.001*%
%ADD014C,0.01*%
%ADD019C,0.06*%
%ADD020C,0.07*%
%ADD033C,0.12*%
%ADD038C,0.08*%
%ADD052O,0.08X0.11*%
%ADD060O,0.09X0.07*%
%ADD061O,0.11X0.08*%
%ADD066C,0.09*%
%ADD079R,0.07X0.07*%
%ADD086C,0.1*%
%ADD090C,0.11*%
%ADD098C,0.15*%
%ADD120R,0.09X0.09*%
%ADD135C,0.16*%
%ADD136C,0.13*%
%ADD137R,0.08X0.11*%
%ADD138R,0.11X0.08*%
%ADD139R,0.1X0.1*%
%ADD140O,0.09X0.06*%
%ADD141R,0.16X0.16*%
%ADD147C,0.17*%
*
*
*
*
G04 PC Circuitry*
G04 Layer Name HFC3100D_Main Control_2 - circuitry*
%LPD*%
*
*
G04 PC Custom Flashes*
G04 Layer Name HFC3100D_Main Control_2 - flashes*
%LPD*%
*
*
G04 PC Circuitry*
G04 Layer Name HFC3100D_Main Control_2 - circuitry*
%LPD*%
*
G54D10*
G54D14*
G01X1091732Y39370D02*
X39370D01*
Y818898*
X1091732*
Y39370*
G54D19*
X205870Y665770D03*
Y675770D03*
G54D20*
X739370Y165620D03*
X719370D03*
X636870Y188120D03*
X656870D03*
X736870Y83120D03*
X756870D03*
X1035620Y113120D03*
Y151870D03*
X861870Y145620D03*
X823120D03*
X766870Y210620D03*
X746870D03*
X706870Y145620D03*
Y135620D03*
Y125620D03*
Y115620D03*
X736870D03*
Y125620D03*
Y135620D03*
Y145620D03*
X94370Y558120D03*
X84370Y548120D03*
X94370D03*
X84370Y538120D03*
X94370D03*
X84370Y528120D03*
X94370D03*
X84370Y518120D03*
X94370D03*
X84370Y508120D03*
X94370D03*
X84370Y498120D03*
X94370D03*
X84370Y488120D03*
X94370D03*
X84370Y478120D03*
X94370D03*
X84370Y468120D03*
X94370D03*
X550870Y570870D03*
X570870D03*
X198970Y687870D03*
Y697870D03*
X676870Y535670D03*
Y515670D03*
X747570Y535670D03*
Y515670D03*
G54D33*
X1078955Y253555D03*
X1079055Y604055D03*
G54D38*
X792495Y97495D03*
Y113195D03*
X686870Y153120D03*
Y168820D03*
X189370Y130620D03*
Y90620D03*
X625620Y146245D03*
X665620D03*
X791870Y135620D03*
X751870D03*
X665620Y166245D03*
X625620D03*
X189370Y238120D03*
Y198120D03*
X625620Y156245D03*
X665620D03*
X701870Y104370D03*
X741870D03*
Y93745D03*
X701870D03*
X179370Y198120D03*
Y238120D03*
X188120Y338120D03*
Y298120D03*
X179370Y90620D03*
Y130620D03*
X178120Y298120D03*
Y338120D03*
X791870Y155620D03*
X751870D03*
X186870Y65620D03*
X196870D03*
X206870D03*
X184370Y165620D03*
X194370D03*
X204370D03*
X184370Y270620D03*
X194370D03*
X204370D03*
X827570Y525670D03*
Y515670D03*
Y505670D03*
X596870Y525670D03*
Y515670D03*
Y505670D03*
X319370Y215620D03*
Y195620D03*
Y130620D03*
Y110620D03*
Y88120D03*
Y68120D03*
X154370Y280620D03*
X134370D03*
X161870Y75620D03*
X141870D03*
X161870Y175620D03*
X141870D03*
X746970Y598170D03*
X756970D03*
X766970D03*
X319370Y173120D03*
Y153120D03*
X549470Y598170D03*
X559470D03*
X569470D03*
X529370Y459370D03*
X519370D03*
X509370D03*
X499370D03*
X489370D03*
X879370Y415570D03*
Y405570D03*
Y395570D03*
X677370Y415570D03*
Y405570D03*
Y395570D03*
X507370Y415570D03*
Y405570D03*
Y395570D03*
X288120Y804370D03*
X298120D03*
X308120D03*
X318120D03*
X328120D03*
X836870Y459370D03*
X846870D03*
X856870D03*
X701870D03*
X711870D03*
X721870D03*
X569370Y461870D03*
X579370D03*
X589370D03*
X505670Y579170D03*
Y559170D03*
G54D52*
X164370Y110620D03*
X154370D03*
X161870Y318120D03*
X151870D03*
X161870Y213120D03*
X151870D03*
G54D60*
X1069055Y574055D03*
Y564055D03*
Y554055D03*
Y544055D03*
Y534055D03*
Y524055D03*
Y514055D03*
Y504055D03*
Y494055D03*
Y484055D03*
Y474055D03*
Y464055D03*
Y454055D03*
Y444055D03*
Y434055D03*
Y424055D03*
Y414055D03*
Y404055D03*
Y394055D03*
Y384055D03*
Y374055D03*
Y364055D03*
Y354055D03*
Y344055D03*
Y334055D03*
Y324055D03*
Y314055D03*
Y304055D03*
Y294055D03*
Y284055D03*
Y274055D03*
X1049055Y584055D03*
Y574055D03*
Y564055D03*
Y554055D03*
Y544055D03*
Y534055D03*
Y524055D03*
Y514055D03*
Y504055D03*
Y494055D03*
Y484055D03*
Y474055D03*
Y464055D03*
Y454055D03*
Y444055D03*
Y434055D03*
Y424055D03*
Y414055D03*
Y404055D03*
Y384055D03*
Y364055D03*
Y344055D03*
Y324055D03*
Y314055D03*
Y304055D03*
Y294055D03*
Y284055D03*
Y274055D03*
G54D61*
X606870Y400620D03*
Y390620D03*
X436870Y400620D03*
Y390620D03*
X809870Y401370D03*
Y391370D03*
X884370Y461870D03*
Y451870D03*
X749370Y461870D03*
Y451870D03*
X616870Y461870D03*
Y451870D03*
G54D66*
X841870Y105620D03*
Y76120D03*
X211870Y130620D03*
Y90620D03*
X200620Y238120D03*
Y198120D03*
X791870Y145620D03*
X751870D03*
X624370Y198120D03*
X664370D03*
X209370Y338120D03*
Y298120D03*
X198120Y338120D03*
Y298120D03*
X200620Y130620D03*
Y90620D03*
X211870Y238120D03*
Y198120D03*
X791870Y125620D03*
X751870D03*
X796770Y570770D03*
X836770D03*
X708970Y570670D03*
Y610670D03*
X829870Y385570D03*
Y425570D03*
X626870Y385570D03*
Y425570D03*
X456870Y385570D03*
Y425570D03*
X944370Y449370D03*
X904370D03*
X809370D03*
X769370D03*
X676870Y451870D03*
X636870D03*
X184470Y394670D03*
Y430670D03*
X944370Y565270D03*
X686870Y186070D03*
G54D79*
X1069055Y584055D03*
X84370Y558120D03*
G54D86*
X561870Y80620D03*
Y100620D03*
Y130620D03*
Y150620D03*
Y170620D03*
X441870D03*
Y150620D03*
Y130620D03*
Y100620D03*
Y80620D03*
Y60620D03*
X85620Y295620D03*
Y309400D03*
Y323179D03*
Y336959D03*
Y350738D03*
Y364620D03*
Y378420D03*
Y392220D03*
X334070Y405270D03*
G54D90*
X411870Y150620D03*
X361870D03*
X1015620Y211870D03*
X965620D03*
X411870Y60620D03*
X361870D03*
X641870Y55620D03*
X691870D03*
X411870Y100620D03*
X361870D03*
X726870Y63120D03*
Y181120D03*
X525620Y196870D03*
X608220D03*
X791870Y165620D03*
X861870D03*
X769370Y63120D03*
Y181120D03*
X1015620Y191870D03*
X965620D03*
X89370Y94370D03*
Y229370D03*
X143120Y800620D03*
X156900D03*
X89370Y149370D03*
Y189370D03*
X904370Y414970D03*
X986970D03*
X786370Y415370D03*
X703770D03*
X786370Y392870D03*
X703770D03*
X150370Y597470D03*
X506370Y613370D03*
X876370Y503370D03*
G54D98*
X59055Y59055D03*
X1052362D03*
Y799213D03*
X59055D03*
X570866Y413386D03*
G54D120*
X198470Y394670D03*
Y430670D03*
X944370Y585270D03*
X686870Y200070D03*
G54D135*
X825610Y265620D03*
Y356171D03*
X786870Y265620D03*
X746870Y356171D03*
X655610Y265620D03*
Y356171D03*
X616870Y265620D03*
X576870Y356171D03*
X485610Y265620D03*
Y356171D03*
X446870Y265620D03*
X406870Y356171D03*
X268770Y408170D03*
G54D136*
X876870Y208120D03*
X791870D03*
X901870Y151870D03*
Y69370D03*
X980620D03*
Y151870D03*
X261870Y305620D03*
Y340020D03*
Y271220D03*
Y201870D03*
Y236270D03*
Y167470D03*
Y100620D03*
Y135020D03*
Y66220D03*
X641870Y98120D03*
X676270D03*
X607470D03*
X904370Y211870D03*
Y181870D03*
X929370Y211870D03*
Y181870D03*
X766870Y266245D03*
X806870Y265620D03*
Y355620D03*
X786870D03*
X766870D03*
X596870Y266245D03*
X636870Y265620D03*
Y355620D03*
X616870D03*
X596870D03*
X426870Y266245D03*
X466870Y265620D03*
Y355620D03*
X446870D03*
X426870D03*
X966870D03*
X881870D03*
X966870Y311870D03*
X881870D03*
Y266870D03*
X966870D03*
G54D137*
X651870Y120620D03*
X641870D03*
X631870D03*
G54D138*
X239370Y211870D03*
Y201870D03*
Y191870D03*
Y315620D03*
Y305620D03*
Y295620D03*
Y110620D03*
Y100620D03*
Y90620D03*
X245970Y418170D03*
Y408170D03*
Y398170D03*
G54D139*
X561870Y60620D03*
X304070Y405270D03*
G54D140*
X1049055Y394055D03*
Y374055D03*
Y354055D03*
Y334055D03*
G54D141*
X746870Y265620D03*
X576870D03*
X406870D03*
G54D147*
X264670Y745070D03*
Y725070D03*
X0Y0D02*
M02*
