*
*
G04 PADS VX.2 Build Number: 5060570 generated Gerber (RS-274-X) file*
G04 PC Version=2.1*
*
%IN "HFC3100D_Main Control_2"*%
*
%MOIN*%
*
%FSLAX35Y35*%
*
*
*
*
G04 PC Standard Apertures*
*
*
G04 Thermal Relief Aperture macro.*
%AMTER*
1,1,$1,0,0*
1,0,$1-$2,0,0*
21,0,$3,$4,0,0,45*
21,0,$3,$4,0,0,135*
%
*
*
G04 Annular Aperture macro.*
%AMANN*
1,1,$1,0,0*
1,0,$2,0,0*
%
*
*
G04 Odd Aperture macro.*
%AMODD*
1,1,$1,0,0*
1,0,$1-0.005,0,0*
%
*
*
G04 PC Custom Aperture Macros*
*
*
*
*
*
*
G04 PC Aperture Table*
*
%ADD010C,0.001*%
%ADD014C,0.01*%
%ADD103R,0.04724X0.07087*%
%ADD104R,0.07087X0.04724*%
%ADD105R,0.04X0.04*%
%ADD106R,0.04921X0.03937*%
%ADD107R,0.03937X0.04921*%
%ADD108O,0.0252X0.08504*%
%ADD109O,0.074X0.024*%
%ADD123R,0.08X0.075*%
%ADD124O,0.01181X0.05906*%
%ADD125O,0.05906X0.01181*%
%ADD126R,0.06X0.05*%
%ADD127O,0.05X0.0142*%
*
*
*
*
G04 PC Circuitry*
G04 Layer Name HFC3100D_Main Control_2 - circuitry*
%LPD*%
*
*
G04 PC Custom Flashes*
G04 Layer Name HFC3100D_Main Control_2 - flashes*
%LPD*%
*
*
G04 PC Circuitry*
G04 Layer Name HFC3100D_Main Control_2 - circuitry*
%LPD*%
*
G54D10*
G54D14*
G01X1091732Y39370D02*
X39370D01*
Y818898*
X1091732*
Y39370*
G54D103*
X378871Y411270D03*
X391469D03*
Y399270D03*
X378871D03*
X258171Y682970D03*
X270769D03*
X258171Y670970D03*
X270769D03*
X258171Y658970D03*
X270769D03*
X470669Y730270D03*
X458071D03*
X735469Y717170D03*
X722871D03*
X735469Y705170D03*
X722871D03*
X735469Y693170D03*
X722871D03*
X735469Y681170D03*
X722871D03*
X735469Y669170D03*
X722871D03*
X735469Y729170D03*
X722871D03*
X735469Y657170D03*
X722871D03*
X935469Y717170D03*
X922871D03*
X935469Y705170D03*
X922871D03*
X935469Y693170D03*
X922871D03*
X935469Y681170D03*
X922871D03*
X935469Y669170D03*
X922871D03*
X935469Y657170D03*
X922871D03*
X935469Y729170D03*
X922871D03*
X194171Y582970D03*
X206769D03*
X194171Y570970D03*
X206769D03*
X258171Y582970D03*
X270769D03*
Y570970D03*
X258171D03*
X270769Y558970D03*
X258171D03*
X334569Y439470D03*
X321971D03*
X334569Y451470D03*
X321971D03*
Y463470D03*
X334569D03*
X321971Y475470D03*
X334569D03*
X321971Y487470D03*
X334569D03*
X796371Y609870D03*
X808969D03*
Y597870D03*
X796371D03*
X930169Y466870D03*
X917571D03*
X795169D03*
X782571D03*
X662669D03*
X650071D03*
X441821Y445620D03*
X454419D03*
X206769Y608970D03*
X194171D03*
X206769Y620970D03*
X194171D03*
X206769Y632970D03*
X194171D03*
X258171Y608970D03*
X270769D03*
X258171Y620970D03*
X270769D03*
X258171Y632970D03*
X270769D03*
G54D104*
X762570Y536969D03*
Y524371D03*
X777570Y536969D03*
Y524371D03*
X762570Y494371D03*
Y506969D03*
X792570D03*
Y494371D03*
Y536969D03*
Y524371D03*
X777570Y494371D03*
Y506969D03*
X661870Y524371D03*
Y536969D03*
Y494371D03*
Y506969D03*
X646870Y536969D03*
Y524371D03*
Y494371D03*
Y506969D03*
X631870D03*
Y494371D03*
Y536969D03*
Y524371D03*
X883970Y569371D03*
Y581969D03*
Y599371D03*
Y611969D03*
X606470D03*
Y599371D03*
X591470D03*
Y611969D03*
X136870Y755571D03*
Y768169D03*
X148870D03*
Y755571D03*
X160870Y768169D03*
Y755571D03*
X632170Y701871D03*
Y714469D03*
X656170Y701871D03*
Y714469D03*
X644170Y701871D03*
Y714469D03*
X668170Y701871D03*
Y714469D03*
X704170Y701871D03*
Y714469D03*
X692170Y701871D03*
Y714469D03*
X680170Y701871D03*
Y714469D03*
X832170Y701871D03*
Y714469D03*
X844170Y701871D03*
Y714469D03*
X856170Y701871D03*
Y714469D03*
X868170Y701871D03*
Y714469D03*
X880170Y701871D03*
Y714469D03*
X892170Y701871D03*
Y714469D03*
X904170Y701871D03*
Y714469D03*
X591470Y581969D03*
Y569371D03*
X723970Y599371D03*
Y611969D03*
Y569371D03*
Y581969D03*
X845570Y399769D03*
Y387171D03*
Y423769D03*
Y411171D03*
X860570Y399769D03*
Y387171D03*
X657570Y399769D03*
Y387171D03*
X642570Y399769D03*
Y387171D03*
Y423769D03*
Y411171D03*
X487570Y399769D03*
Y387171D03*
X472570Y399769D03*
Y387171D03*
Y423769D03*
Y411171D03*
G54D105*
X364670Y409601D03*
Y400939D03*
X355170Y405270D03*
G54D106*
X676870Y502501D03*
Y493839D03*
X747570Y502501D03*
Y493839D03*
X172870Y766201D03*
Y757539D03*
X364670Y737101D03*
Y728439D03*
X352670Y737101D03*
Y728439D03*
X340670Y737101D03*
Y728439D03*
X328670Y737101D03*
Y728439D03*
X374870Y691839D03*
Y700501D03*
X632170Y682501D03*
Y673839D03*
X644170Y682501D03*
Y673839D03*
X656170Y682501D03*
Y673839D03*
X668170Y682501D03*
Y673839D03*
X692170Y682501D03*
Y673839D03*
X704170Y682501D03*
Y673839D03*
X680170Y682501D03*
Y673839D03*
X832170Y682501D03*
Y673839D03*
X844170Y682501D03*
Y673839D03*
X856170Y682501D03*
Y673839D03*
X868170Y682501D03*
Y673839D03*
X892170Y682501D03*
Y673839D03*
X904170Y682501D03*
Y673839D03*
X880170Y682501D03*
Y673839D03*
X364370Y564901D03*
Y556239D03*
X475770Y512139D03*
Y520801D03*
X520670Y583501D03*
Y574839D03*
Y554839D03*
Y563501D03*
X898970Y571339D03*
Y580001D03*
Y610001D03*
Y601339D03*
X657570Y413139D03*
Y421801D03*
X860570Y413139D03*
Y421801D03*
X487570Y413139D03*
Y421801D03*
X219470Y435001D03*
Y426339D03*
X738970Y577501D03*
Y568839D03*
G54D107*
X428039Y750270D03*
X436701D03*
X236801Y690970D03*
X228139D03*
X236801Y590970D03*
X228139D03*
X434201Y490970D03*
X425539D03*
X509801Y540770D03*
X501139D03*
X435439Y604470D03*
X444101D03*
X368939Y493470D03*
X377601D03*
X715901Y535070D03*
X707239D03*
X638701Y608570D03*
X630039D03*
X839001Y617970D03*
X830339D03*
X807001Y585870D03*
X798339D03*
X228139Y640970D03*
X236801D03*
X795501Y715170D03*
X786839D03*
X595501D03*
X586839D03*
G54D108*
X362370Y716170D03*
X357370D03*
X352370D03*
X347370D03*
X342370D03*
X337370D03*
X332370D03*
X327370D03*
Y676170D03*
X332370D03*
X337370D03*
X342370D03*
X347370D03*
X352370D03*
X357370D03*
X362370D03*
G54D109*
X221170Y678470D03*
Y673470D03*
Y668470D03*
Y663470D03*
X243770D03*
Y668470D03*
Y673470D03*
Y678470D03*
X421070Y737770D03*
Y732770D03*
Y727770D03*
Y722770D03*
X443670D03*
Y727770D03*
Y732770D03*
Y737770D03*
X221170Y578470D03*
Y573470D03*
Y568470D03*
Y563470D03*
X243770D03*
Y568470D03*
Y573470D03*
Y578470D03*
X361970Y480970D03*
Y475970D03*
Y470970D03*
Y465970D03*
Y460970D03*
Y455970D03*
Y450970D03*
Y445970D03*
X384570D03*
Y450970D03*
Y455970D03*
Y460970D03*
Y465970D03*
Y470970D03*
Y475970D03*
Y480970D03*
X700270Y520270D03*
Y515270D03*
Y510270D03*
Y505270D03*
X722870D03*
Y510270D03*
Y515270D03*
Y520270D03*
X623070Y596070D03*
Y591070D03*
Y586070D03*
Y581070D03*
X645670D03*
Y586070D03*
Y591070D03*
Y596070D03*
X823370Y605370D03*
Y600370D03*
Y595370D03*
Y590370D03*
X845970D03*
Y595370D03*
Y600370D03*
Y605370D03*
X221170Y628470D03*
Y623470D03*
Y618470D03*
Y613470D03*
X243770D03*
Y618470D03*
Y623470D03*
Y628470D03*
G54D123*
X295970Y580620D03*
Y561120D03*
X317970Y580620D03*
Y561120D03*
G54D124*
X414606Y526929D03*
X416575D03*
X418543D03*
X420512D03*
X422480D03*
X424449D03*
X426417D03*
X428386D03*
X430354D03*
X432323D03*
X434291D03*
X436260D03*
X438228D03*
X440197D03*
X442165D03*
X444134D03*
Y571811D03*
X442165D03*
X440197D03*
X438228D03*
X436260D03*
X434291D03*
X432323D03*
X430354D03*
X428386D03*
X426417D03*
X424449D03*
X422480D03*
X420512D03*
X418543D03*
X416575D03*
X414606D03*
G54D125*
X451811Y534606D03*
Y536575D03*
Y538543D03*
Y540512D03*
Y542480D03*
Y544449D03*
Y546417D03*
Y548386D03*
Y550354D03*
Y552323D03*
Y554291D03*
Y556260D03*
Y558228D03*
Y560197D03*
Y562165D03*
Y564134D03*
X406929D03*
Y562165D03*
Y560197D03*
Y558228D03*
Y556260D03*
Y554291D03*
Y552323D03*
Y550354D03*
Y548386D03*
Y546417D03*
Y544449D03*
Y542480D03*
Y540512D03*
Y538543D03*
Y536575D03*
Y534606D03*
G54D126*
X616870Y508170D03*
Y493170D03*
Y538170D03*
Y523170D03*
X807570Y508170D03*
Y493170D03*
Y538170D03*
Y523170D03*
X868970Y613170D03*
Y598170D03*
Y583170D03*
Y568170D03*
X693970Y583170D03*
Y568170D03*
Y613170D03*
Y598170D03*
G54D127*
X579770Y704870D03*
Y702270D03*
Y699670D03*
Y697070D03*
Y694470D03*
Y691870D03*
Y689270D03*
Y686670D03*
Y684070D03*
Y681470D03*
X602570D03*
Y684070D03*
Y686670D03*
Y689270D03*
Y691870D03*
Y694470D03*
Y697070D03*
Y699670D03*
Y702270D03*
Y704870D03*
X779770D03*
Y702270D03*
Y699670D03*
Y697070D03*
Y694470D03*
Y691870D03*
Y689270D03*
Y686670D03*
Y684070D03*
Y681470D03*
X802570D03*
Y684070D03*
Y686670D03*
Y689270D03*
Y691870D03*
Y694470D03*
Y697070D03*
Y699670D03*
Y702270D03*
Y704870D03*
X0Y0D02*
M02*
