*
*
G04 PADS VX.2 Build Number: 5060570 generated Gerber (RS-274-X) file*
G04 PC Version=2.1*
*
%IN "HFC3100D_Main LCD Displ"*%
*
%MOIN*%
*
%FSLAX35Y35*%
*
*
*
*
G04 PC Standard Apertures*
*
*
G04 Thermal Relief Aperture macro.*
%AMTER*
1,1,$1,0,0*
1,0,$1-$2,0,0*
21,0,$3,$4,0,0,45*
21,0,$3,$4,0,0,135*
%
*
*
G04 Annular Aperture macro.*
%AMANN*
1,1,$1,0,0*
1,0,$2,0,0*
%
*
*
G04 Odd Aperture macro.*
%AMODD*
1,1,$1,0,0*
1,0,$1-0.005,0,0*
%
*
*
G04 PC Custom Aperture Macros*
*
*
*
*
*
*
G04 PC Aperture Table*
*
%ADD010C,0.001*%
%ADD014C,0.01*%
*
*
*
*
G04 PC Circuitry*
G04 Layer Name HFC3100D_Main LCD Displ - circuitry*
%LPD*%
*
*
G04 PC Custom Flashes*
G04 Layer Name HFC3100D_Main LCD Displ - flashes*
%LPD*%
*
*
G04 PC Circuitry*
G04 Layer Name HFC3100D_Main LCD Displ - circuitry*
%LPD*%
*
G54D10*
G01X39370Y533570D02*
X39373D01*
X799170D02*
X799173D01*
X809170Y39370D02*
X809173D01*
X809170Y523570D02*
X809173D01*
G54D14*
X725370Y183970D02*
X729370Y187970D01*
X725370Y191970*
X721370Y187970*
X725370Y183970*
Y187970D02*
Y191970D01*
X715370Y183970D02*
X719370Y187970D01*
X715370Y191970*
X711370Y187970*
X715370Y183970*
Y187970D02*
Y191970D01*
X92170Y429970D02*
X96170Y433970D01*
X92170Y437970*
X88170Y433970*
X92170Y429970*
Y433970D02*
Y437970D01*
Y439970D02*
X96170Y443970D01*
X92170Y447970*
X88170Y443970*
X92170Y439970*
Y443970D02*
Y447970D01*
X759370Y465370D02*
X763370Y469370D01*
X759370Y473370*
X755370Y469370*
X759370Y465370*
Y469370D02*
Y473370D01*
X657370Y413670D02*
X661370Y417670D01*
X657370Y421670*
X653370Y417670*
X657370Y413670*
Y417670D02*
Y421670D01*
X637370Y413670D02*
X641370Y417670D01*
X637370Y421670*
X633370Y417670*
X637370Y413670*
Y417670D02*
Y421670D01*
X484870Y108070D02*
X488870Y112070D01*
X484870Y116070*
X480870Y112070*
X484870Y108070*
Y112070D02*
Y116070D01*
Y98070D02*
X488870Y102070D01*
X484870Y106070*
X480870Y102070*
X484870Y98070*
Y102070D02*
Y106070D01*
Y88070D02*
X488870Y92070D01*
X484870Y96070*
X480870Y92070*
X484870Y88070*
Y92070D02*
Y96070D01*
X442870Y237670D02*
X450870D01*
Y245670*
X442870*
Y237670*
X446870Y241670D02*
Y245670D01*
X442870Y220070D02*
X450870D01*
Y228070*
X442870*
Y220070*
X446870Y224070D02*
Y228070D01*
X468470Y237670D02*
X476470D01*
Y245670*
X468470*
Y237670*
X472470Y241670D02*
Y245670D01*
X468470Y220070D02*
X476470D01*
Y228070*
X468470*
Y220070*
X472470Y224070D02*
Y228070D01*
X628970Y170070D02*
X636970D01*
Y178070*
X628970*
Y170070*
X632970Y174070D02*
Y178070D01*
X628970Y187670D02*
X636970D01*
Y195670*
X628970*
Y187670*
X632970Y191670D02*
Y195670D01*
X654570Y170070D02*
X662570D01*
Y178070*
X654570*
Y170070*
X658570Y174070D02*
Y178070D01*
X654570Y187670D02*
X662570D01*
Y195670*
X654570*
Y187670*
X658570Y191670D02*
Y195670D01*
X102570Y100770D02*
X110570D01*
Y108770*
X102570*
Y100770*
X106570Y104770D02*
Y108770D01*
X102570Y83170D02*
X110570D01*
Y91170*
X102570*
Y83170*
X106570Y87170D02*
Y91170D01*
X128170Y100770D02*
X136170D01*
Y108770*
X128170*
Y100770*
X132170Y104770D02*
Y108770D01*
X128170Y83170D02*
X136170D01*
Y91170*
X128170*
Y83170*
X132170Y87170D02*
Y91170D01*
X160470Y100770D02*
X168470D01*
Y108770*
X160470*
Y100770*
X164470Y104770D02*
Y108770D01*
X160470Y83170D02*
X168470D01*
Y91170*
X160470*
Y83170*
X164470Y87170D02*
Y91170D01*
X186070Y100770D02*
X194070D01*
Y108770*
X186070*
Y100770*
X190070Y104770D02*
Y108770D01*
X186070Y83170D02*
X194070D01*
Y91170*
X186070*
Y83170*
X190070Y87170D02*
Y91170D01*
X333370Y100770D02*
X341370D01*
Y108770*
X333370*
Y100770*
X337370Y104770D02*
Y108770D01*
X333370Y83170D02*
X341370D01*
Y91170*
X333370*
Y83170*
X337370Y87170D02*
Y91170D01*
X358970Y100770D02*
X366970D01*
Y108770*
X358970*
Y100770*
X362970Y104770D02*
Y108770D01*
X358970Y83170D02*
X366970D01*
Y91170*
X358970*
Y83170*
X362970Y87170D02*
Y91170D01*
X275470Y100770D02*
X283470D01*
Y108770*
X275470*
Y100770*
X279470Y104770D02*
Y108770D01*
X275470Y83170D02*
X283470D01*
Y91170*
X275470*
Y83170*
X279470Y87170D02*
Y91170D01*
X301070Y100770D02*
X309070D01*
Y108770*
X301070*
Y100770*
X305070Y104770D02*
Y108770D01*
X301070Y83170D02*
X309070D01*
Y91170*
X301070*
Y83170*
X305070Y87170D02*
Y91170D01*
X217570Y100770D02*
X225570D01*
Y108770*
X217570*
Y100770*
X221570Y104770D02*
Y108770D01*
X217570Y83170D02*
X225570D01*
Y91170*
X217570*
Y83170*
X221570Y87170D02*
Y91170D01*
X243170Y100770D02*
X251170D01*
Y108770*
X243170*
Y100770*
X247170Y104770D02*
Y108770D01*
X243170Y83170D02*
X251170D01*
Y91170*
X243170*
Y83170*
X247170Y87170D02*
Y91170D01*
X628970Y237670D02*
X636970D01*
Y245670*
X628970*
Y237670*
X632970Y241670D02*
Y245670D01*
X628970Y220070D02*
X636970D01*
Y228070*
X628970*
Y220070*
X632970Y224070D02*
Y228070D01*
X654570Y237670D02*
X662570D01*
Y245670*
X654570*
Y237670*
X658570Y241670D02*
Y245670D01*
X654570Y220070D02*
X662570D01*
Y228070*
X654570*
Y220070*
X658570Y224070D02*
Y228070D01*
X122470Y404009D02*
X130470D01*
X126470Y400009D02*
Y408009D01*
X128470Y409291D02*
Y406009D01*
Y409291D02*
X129947D01*
X128470Y407728D02*
X129379D01*
X122470Y433931D02*
X130470D01*
X126470Y429931D02*
Y437931D01*
X128470Y439212D02*
Y435931D01*
Y439212D02*
X129947D01*
X128470Y437649D02*
X129379D01*
X54970Y377811D02*
X62970D01*
X58970Y373811D02*
Y381811D01*
X60970Y383092D02*
Y379811D01*
Y383092D02*
X62447D01*
X60970Y381530D02*
X61879D01*
X60970Y379811D02*
X62447D01*
X54970Y391590D02*
X62970D01*
X58970Y387590D02*
Y395590D01*
X60970Y396872D02*
Y393590D01*
Y396872D02*
X62447D01*
X60970Y395309D02*
X61879D01*
X60970Y393590D02*
X62447D01*
X54970Y405370D02*
X62970D01*
X58970Y401370D02*
Y409370D01*
X60970Y410651D02*
Y407370D01*
Y410651D02*
X62447D01*
X60970Y409089D02*
X61879D01*
X60970Y407370D02*
X62447D01*
X54970Y419150D02*
X62970D01*
X58970Y415150D02*
Y423150D01*
X60970Y424431D02*
Y421150D01*
Y424431D02*
X62447D01*
X60970Y422868D02*
X61879D01*
X60970Y421150D02*
X62447D01*
X54970Y432929D02*
X62970D01*
X58970Y428929D02*
Y436929D01*
X60970Y438210D02*
Y434929D01*
Y438210D02*
X62447D01*
X60970Y436648D02*
X61879D01*
X60970Y434929D02*
X62447D01*
X55170Y458480D02*
X63170D01*
X59170Y454480D02*
Y462480D01*
X61170Y463761D02*
Y460480D01*
Y463761D02*
X62647D01*
X61170Y462199D02*
X62079D01*
X61170Y460480D02*
X62647D01*
X55170Y472260D02*
X63170D01*
X59170Y468260D02*
Y476260D01*
X61170Y477541D02*
Y474260D01*
Y477541D02*
X62647D01*
X61170Y475979D02*
X62079D01*
X61170Y474260D02*
X62647D01*
X54970Y54970D02*
X62970Y62970D01*
X54970D02*
X62970Y54970D01*
X415370Y55070D02*
X423370Y63070D01*
X415370D02*
X423370Y55070D01*
X775570D02*
X783570Y63070D01*
X775570D02*
X783570Y55070D01*
X775570Y499970D02*
X783570Y507970D01*
X775570D02*
X783570Y499970D01*
X113470Y461470D02*
X121470D01*
X117470Y457470D02*
Y465470D01*
X119470Y466751D02*
Y463470D01*
Y466751D02*
X120493D01*
X120834Y466595*
X120947Y466439*
X121061Y466126*
Y465814*
X120947Y465501*
X120834Y465345*
X120493Y465189*
X119470D02*
X120493D01*
X120834Y465033*
X120834D02*
X120947Y464876D01*
X121061Y464564*
Y464095*
X120947Y463783*
X120947D02*
X120834Y463626D01*
X120493Y463470*
X119470*
X123470Y461470D02*
X131470D01*
X127470Y457470D02*
Y465470D01*
X129470Y466751D02*
Y463470D01*
Y466751D02*
X130493D01*
X130834Y466595*
X130947Y466439*
X131061Y466126*
Y465814*
X130947Y465501*
X130834Y465345*
X130493Y465189*
X129470D02*
X130493D01*
X130834Y465033*
X130834D02*
X130947Y464876D01*
X131061Y464564*
Y464095*
X130947Y463783*
X130947D02*
X130834Y463626D01*
X130493Y463470*
X129470*
X113470Y382770D02*
X121470D01*
X117470Y378770D02*
Y386770D01*
X119470Y388051D02*
Y384770D01*
Y388051D02*
X120493D01*
X120834Y387895*
X120947Y387739*
X121061Y387426*
Y387114*
X120947Y386801*
X120834Y386645*
X120493Y386489*
X119470D02*
X120493D01*
X120834Y386333*
X120834D02*
X120947Y386176D01*
X121061Y385864*
Y385395*
X120947Y385083*
X120947D02*
X120834Y384926D01*
X120493Y384770*
X119470*
X123470Y382770D02*
X131470D01*
X127470Y378770D02*
Y386770D01*
X129470Y388051D02*
Y384770D01*
Y388051D02*
X130493D01*
X130834Y387895*
X130947Y387739*
X131061Y387426*
Y387114*
X130947Y386801*
X130834Y386645*
X130493Y386489*
X129470D02*
X130493D01*
X130834Y386333*
X130834D02*
X130947Y386176D01*
X131061Y385864*
Y385395*
X130947Y385083*
X130947D02*
X130834Y384926D01*
X130493Y384770*
X129470*
X298470Y382770D02*
X306470D01*
X302470Y378770D02*
Y386770D01*
X304470Y388051D02*
Y384770D01*
Y388051D02*
X305493D01*
X305834Y387895*
X305947Y387739*
X306061Y387426*
Y387114*
X305947Y386801*
X305834Y386645*
X305493Y386489*
X304470D02*
X305493D01*
X305834Y386333*
X305834D02*
X305947Y386176D01*
X306061Y385864*
Y385395*
X305947Y385083*
X305947D02*
X305834Y384926D01*
X305493Y384770*
X304470*
X308470Y382770D02*
X316470D01*
X312470Y378770D02*
Y386770D01*
X314470Y388051D02*
Y384770D01*
Y388051D02*
X315493D01*
X315834Y387895*
X315947Y387739*
X316061Y387426*
Y387114*
X315947Y386801*
X315834Y386645*
X315493Y386489*
X314470D02*
X315493D01*
X315834Y386333*
X315834D02*
X315947Y386176D01*
X316061Y385864*
Y385395*
X315947Y385083*
X315947D02*
X315834Y384926D01*
X315493Y384770*
X314470*
X298470Y461470D02*
X306470D01*
X302470Y457470D02*
Y465470D01*
X304470Y466751D02*
Y463470D01*
Y466751D02*
X305493D01*
X305834Y466595*
X305947Y466439*
X306061Y466126*
Y465814*
X305947Y465501*
X305834Y465345*
X305493Y465189*
X304470D02*
X305493D01*
X305834Y465033*
X305834D02*
X305947Y464876D01*
X306061Y464564*
Y464095*
X305947Y463783*
X305947D02*
X305834Y463626D01*
X305493Y463470*
X304470*
X308470Y461470D02*
X316470D01*
X312470Y457470D02*
Y465470D01*
X314470Y466751D02*
Y463470D01*
Y466751D02*
X315493D01*
X315834Y466595*
X315947Y466439*
X316061Y466126*
Y465814*
X315947Y465501*
X315834Y465345*
X315493Y465189*
X314470D02*
X315493D01*
X315834Y465033*
X315834D02*
X315947Y464876D01*
X316061Y464564*
Y464095*
X315947Y463783*
X315947D02*
X315834Y463626D01*
X315493Y463470*
X314470*
X371370Y461470D02*
X379370D01*
X375370Y457470D02*
Y465470D01*
X377370Y466751D02*
Y463470D01*
Y466751D02*
X378393D01*
X378734Y466595*
X378847Y466439*
X378961Y466126*
Y465814*
X378847Y465501*
X378734Y465345*
X378393Y465189*
X377370D02*
X378393D01*
X378734Y465033*
X378734D02*
X378847Y464876D01*
X378961Y464564*
Y464095*
X378847Y463783*
X378847D02*
X378734Y463626D01*
X378393Y463470*
X377370*
X381370Y461470D02*
X389370D01*
X385370Y457470D02*
Y465470D01*
X387370Y466751D02*
Y463470D01*
Y466751D02*
X388393D01*
X388734Y466595*
X388847Y466439*
X388961Y466126*
Y465814*
X388847Y465501*
X388734Y465345*
X388393Y465189*
X387370D02*
X388393D01*
X388734Y465033*
X388734D02*
X388847Y464876D01*
X388961Y464564*
Y464095*
X388847Y463783*
X388847D02*
X388734Y463626D01*
X388393Y463470*
X387370*
X371370Y382770D02*
X379370D01*
X375370Y378770D02*
Y386770D01*
X377370Y388051D02*
Y384770D01*
Y388051D02*
X378393D01*
X378734Y387895*
X378847Y387739*
X378961Y387426*
Y387114*
X378847Y386801*
X378734Y386645*
X378393Y386489*
X377370D02*
X378393D01*
X378734Y386333*
X378734D02*
X378847Y386176D01*
X378961Y385864*
Y385395*
X378847Y385083*
X378847D02*
X378734Y384926D01*
X378393Y384770*
X377370*
X381370Y382770D02*
X389370D01*
X385370Y378770D02*
Y386770D01*
X387370Y388051D02*
Y384770D01*
Y388051D02*
X388393D01*
X388734Y387895*
X388847Y387739*
X388961Y387426*
Y387114*
X388847Y386801*
X388734Y386645*
X388393Y386489*
X387370D02*
X388393D01*
X388734Y386333*
X388734D02*
X388847Y386176D01*
X388961Y385864*
Y385395*
X388847Y385083*
X388847D02*
X388734Y384926D01*
X388393Y384770*
X387370*
X418570Y422170D02*
X426570D01*
X422570Y418170D02*
Y426170D01*
X424570Y427451D02*
Y424170D01*
Y427451D02*
X425593D01*
X425934Y427295*
X426047Y427139*
X426161Y426826*
Y426514*
X426047Y426201*
X425934Y426045*
X425593Y425889*
X424570D02*
X425593D01*
X425934Y425733*
X425934D02*
X426047Y425576D01*
X426161Y425264*
Y424795*
X426047Y424483*
X426047D02*
X425934Y424326D01*
X425593Y424170*
X424570*
X428570Y422170D02*
X436570D01*
X432570Y418170D02*
Y426170D01*
X434570Y427451D02*
Y424170D01*
Y427451D02*
X435593D01*
X435934Y427295*
X436047Y427139*
X436161Y426826*
Y426514*
X436047Y426201*
X435934Y426045*
X435593Y425889*
X434570D02*
X435593D01*
X435934Y425733*
X435934D02*
X436047Y425576D01*
X436161Y425264*
Y424795*
X436047Y424483*
X436047D02*
X435934Y424326D01*
X435593Y424170*
X434570*
X733370Y202670D02*
X741370D01*
X737370Y198670D02*
Y206670D01*
X739370Y207951D02*
Y204670D01*
Y207951D02*
X740393D01*
X740734Y207795*
X740847Y207639*
X740961Y207326*
Y207014*
X740847Y206701*
X740734Y206545*
X740393Y206389*
X739370D02*
X740393D01*
X740734Y206233*
X740734D02*
X740847Y206076D01*
X740961Y205764*
Y205295*
X740847Y204983*
X740847D02*
X740734Y204826D01*
X740393Y204670*
X739370*
X743370Y202670D02*
X751370D01*
X747370Y198670D02*
Y206670D01*
X749370Y207951D02*
Y204670D01*
Y207951D02*
X750393D01*
X750734Y207795*
X750847Y207639*
X750961Y207326*
Y207014*
X750847Y206701*
X750734Y206545*
X750393Y206389*
X749370D02*
X750393D01*
X750734Y206233*
X750734D02*
X750847Y206076D01*
X750961Y205764*
Y205295*
X750847Y204983*
X750847D02*
X750734Y204826D01*
X750393Y204670*
X749370*
X733370Y261770D02*
X741370D01*
X737370Y257770D02*
Y265770D01*
X739370Y267051D02*
Y263770D01*
Y267051D02*
X740393D01*
X740734Y266895*
X740847Y266739*
X740961Y266426*
Y266114*
X740847Y265801*
X740734Y265645*
X740393Y265489*
X739370D02*
X740393D01*
X740734Y265333*
X740734D02*
X740847Y265176D01*
X740961Y264864*
Y264395*
X740847Y264083*
X740847D02*
X740734Y263926D01*
X740393Y263770*
X739370*
X743370Y261770D02*
X751370D01*
X747370Y257770D02*
Y265770D01*
X749370Y267051D02*
Y263770D01*
Y267051D02*
X750393D01*
X750734Y266895*
X750847Y266739*
X750961Y266426*
Y266114*
X750847Y265801*
X750734Y265645*
X750393Y265489*
X749370D02*
X750393D01*
X750734Y265333*
X750734D02*
X750847Y265176D01*
X750961Y264864*
Y264395*
X750847Y264083*
X750847D02*
X750734Y263926D01*
X750393Y263770*
X749370*
X678470Y449670D02*
X686470D01*
X682470Y445670D02*
Y453670D01*
X684470Y454951D02*
Y451670D01*
Y454951D02*
X685493D01*
X685834Y454795*
X685947Y454639*
X686061Y454326*
Y454014*
X685947Y453701*
X685834Y453545*
X685493Y453389*
X684470D02*
X685493D01*
X685834Y453233*
X685834D02*
X685947Y453076D01*
X686061Y452764*
Y452295*
X685947Y451983*
X685947D02*
X685834Y451826D01*
X685493Y451670*
X684470*
X688470Y449670D02*
X696470D01*
X692470Y445670D02*
Y453670D01*
X694470Y454951D02*
Y451670D01*
Y454951D02*
X695493D01*
X695834Y454795*
X695947Y454639*
X696061Y454326*
Y454014*
X695947Y453701*
X695834Y453545*
X695493Y453389*
X694470D02*
X695493D01*
X695834Y453233*
X695834D02*
X695947Y453076D01*
X696061Y452764*
Y452295*
X695947Y451983*
X695947D02*
X695834Y451826D01*
X695493Y451670*
X694470*
X678470Y394570D02*
X686470D01*
X682470Y390570D02*
Y398570D01*
X684470Y399851D02*
Y396570D01*
Y399851D02*
X685493D01*
X685834Y399695*
X685947Y399539*
X686061Y399226*
Y398914*
X685947Y398601*
X685834Y398445*
X685493Y398289*
X684470D02*
X685493D01*
X685834Y398133*
X685834D02*
X685947Y397976D01*
X686061Y397664*
Y397195*
X685947Y396883*
X685947D02*
X685834Y396726D01*
X685493Y396570*
X684470*
X688470Y394570D02*
X696470D01*
X692470Y390570D02*
Y398570D01*
X694470Y399851D02*
Y396570D01*
Y399851D02*
X695493D01*
X695834Y399695*
X695947Y399539*
X696061Y399226*
Y398914*
X695947Y398601*
X695834Y398445*
X695493Y398289*
X694470D02*
X695493D01*
X695834Y398133*
X695834D02*
X695947Y397976D01*
X696061Y397664*
Y397195*
X695947Y396883*
X695947D02*
X695834Y396726D01*
X695493Y396570*
X694470*
X497370Y382770D02*
X505370D01*
X501370Y378770D02*
Y386770D01*
X503370Y388051D02*
Y384770D01*
Y388051D02*
X504393D01*
X504734Y387895*
X504847Y387739*
X504961Y387426*
Y387114*
X504847Y386801*
X504734Y386645*
X504393Y386489*
X503370D02*
X504393D01*
X504734Y386333*
X504734D02*
X504847Y386176D01*
X504961Y385864*
Y385395*
X504847Y385083*
X504847D02*
X504734Y384926D01*
X504393Y384770*
X503370*
X507370Y382770D02*
X515370D01*
X511370Y378770D02*
Y386770D01*
X513370Y388051D02*
Y384770D01*
Y388051D02*
X514393D01*
X514734Y387895*
X514847Y387739*
X514961Y387426*
Y387114*
X514847Y386801*
X514734Y386645*
X514393Y386489*
X513370D02*
X514393D01*
X514734Y386333*
X514734D02*
X514847Y386176D01*
X514961Y385864*
Y385395*
X514847Y385083*
X514847D02*
X514734Y384926D01*
X514393Y384770*
X513370*
X497370Y461470D02*
X505370D01*
X501370Y457470D02*
Y465470D01*
X503370Y466751D02*
Y463470D01*
Y466751D02*
X504393D01*
X504734Y466595*
X504847Y466439*
X504961Y466126*
Y465814*
X504847Y465501*
X504734Y465345*
X504393Y465189*
X503370D02*
X504393D01*
X504734Y465033*
X504734D02*
X504847Y464876D01*
X504961Y464564*
Y464095*
X504847Y463783*
X504847D02*
X504734Y463626D01*
X504393Y463470*
X503370*
X507370Y461470D02*
X515370D01*
X511370Y457470D02*
Y465470D01*
X513370Y466751D02*
Y463470D01*
Y466751D02*
X514393D01*
X514734Y466595*
X514847Y466439*
X514961Y466126*
Y465814*
X514847Y465501*
X514734Y465345*
X514393Y465189*
X513370D02*
X514393D01*
X514734Y465033*
X514734D02*
X514847Y464876D01*
X514961Y464564*
Y464095*
X514847Y463783*
X514847D02*
X514734Y463626D01*
X514393Y463470*
X513370*
X661455Y118070D02*
X669455D01*
X661455Y126070*
X669455*
X661455Y118070*
X651613D02*
X659613D01*
X651613Y126070*
X659613*
X651613Y118070*
X641770D02*
X649770D01*
X641770Y126070*
X649770*
X641770Y118070*
X631928D02*
X639928D01*
X631928Y126070*
X639928*
X631928Y118070*
X622085D02*
X630085D01*
X622085Y126070*
X630085*
X622085Y118070*
X546270Y261670D02*
X554270D01*
X550270Y257670D02*
Y265670D01*
X552270Y266951D02*
Y263670D01*
Y266951D02*
X553293D01*
X553634Y266795*
X553747Y266639*
X553861Y266326*
Y266014*
X553747Y265701*
X553634Y265545*
X553293Y265389*
X552270D02*
X553293D01*
X553634Y265233*
X553634D02*
X553747Y265076D01*
X553861Y264764*
Y264295*
X553747Y263983*
X553747D02*
X553634Y263826D01*
X553293Y263670*
X552270*
X556270Y261670D02*
X564270D01*
X560270Y257670D02*
Y265670D01*
X562270Y266951D02*
Y263670D01*
Y266951D02*
X563293D01*
X563634Y266795*
X563747Y266639*
X563861Y266326*
Y266014*
X563747Y265701*
X563634Y265545*
X563293Y265389*
X562270D02*
X563293D01*
X563634Y265233*
X563634D02*
X563747Y265076D01*
X563861Y264764*
Y264295*
X563747Y263983*
X563747D02*
X563634Y263826D01*
X563293Y263670*
X562270*
X546270Y202670D02*
X554270D01*
X550270Y198670D02*
Y206670D01*
X552270Y207951D02*
Y204670D01*
Y207951D02*
X553293D01*
X553634Y207795*
X553747Y207639*
X553861Y207326*
Y207014*
X553747Y206701*
X553634Y206545*
X553293Y206389*
X552270D02*
X553293D01*
X553634Y206233*
X553634D02*
X553747Y206076D01*
X553861Y205764*
Y205295*
X553747Y204983*
X553747D02*
X553634Y204826D01*
X553293Y204670*
X552270*
X556270Y202670D02*
X564270D01*
X560270Y198670D02*
Y206670D01*
X562270Y207951D02*
Y204670D01*
Y207951D02*
X563293D01*
X563634Y207795*
X563747Y207639*
X563861Y207326*
Y207014*
X563747Y206701*
X563634Y206545*
X563293Y206389*
X562270D02*
X563293D01*
X563634Y206233*
X563634D02*
X563747Y206076D01*
X563861Y205764*
Y205295*
X563747Y204983*
X563747D02*
X563634Y204826D01*
X563293Y204670*
X562270*
X54970Y499970D02*
X62970Y507970D01*
X54970D02*
X62970Y499970D01*
X503470Y228970D02*
X511470Y236970D01*
X503470D02*
X511470Y228970D01*
X740370Y222970D02*
X748370D01*
X744370Y218970D02*
Y226970D01*
X748075Y227470D02*
X747961Y227783D01*
X747961D02*
X747734Y228095D01*
X747506Y228251*
X747052*
X746825Y228095*
X746597Y227783*
X746597D02*
X746484Y227470D01*
X746370Y227001*
Y226220*
X746484Y225751*
X746597Y225439*
X746825Y225126*
X747052Y224970*
X747506*
X747734Y225126*
X747961Y225439*
X748075Y225751*
X740370Y232970D02*
X748370D01*
X744370Y228970D02*
Y236970D01*
X748075Y237470D02*
X747961Y237783D01*
X747961D02*
X747734Y238095D01*
X747506Y238251*
X747052*
X746825Y238095*
X746597Y237783*
X746597D02*
X746484Y237470D01*
X746370Y237001*
Y236220*
X746484Y235751*
X746597Y235439*
X746825Y235126*
X747052Y234970*
X747506*
X747734Y235126*
X747961Y235439*
X748075Y235751*
X688170Y323170D02*
X692170Y327170D01*
X688170Y331170*
X684170Y327170*
X688170Y323170*
Y327170D02*
Y331170D01*
X540370Y364270D02*
X544370Y368270D01*
X540370Y372270*
X536370Y368270*
X540370Y364270*
Y368270D02*
Y372270D01*
X521370Y360470D02*
X525370Y364470D01*
X521370Y368470*
X517370Y364470*
X521370Y360470*
Y364470D02*
Y368470D01*
X496070Y358470D02*
X500070Y362470D01*
X496070Y366470*
X492070Y362470*
X496070Y358470*
Y362470D02*
Y366470D01*
X507770Y348870D02*
X511770Y352870D01*
X507770Y356870*
X503770Y352870*
X507770Y348870*
Y352870D02*
Y356870D01*
X729370Y465370D02*
X733370Y469370D01*
X729370Y473370*
X725370Y469370*
X729370Y465370*
Y469370D02*
Y473370D01*
X576970Y400470D02*
X580970Y404470D01*
X576970Y408470*
X572970Y404470*
X576970Y400470*
Y404470D02*
Y408470D01*
X514870Y426070D02*
X522870D01*
X518870Y422070D02*
Y430070D01*
X520870Y431351D02*
Y428070D01*
Y431351D02*
X521893D01*
X522234Y431195*
X522347Y431039*
X522461Y430726*
Y430414*
X522347Y430101*
X522234Y429945*
X521893Y429789*
X520870D02*
X521893D01*
X522234Y429633*
X522234D02*
X522347Y429476D01*
X522461Y429164*
Y428695*
X522347Y428383*
X522347D02*
X522234Y428226D01*
X521893Y428070*
X520870*
X524870Y426070D02*
X532870D01*
X528870Y422070D02*
Y430070D01*
X530870Y431351D02*
Y428070D01*
Y431351D02*
X531893D01*
X532234Y431195*
X532347Y431039*
X532461Y430726*
Y430414*
X532347Y430101*
X532234Y429945*
X531893Y429789*
X530870D02*
X531893D01*
X532234Y429633*
X532234D02*
X532347Y429476D01*
X532461Y429164*
Y428695*
X532347Y428383*
X532347D02*
X532234Y428226D01*
X531893Y428070*
X530870*
X633070Y444170D02*
X637070Y448170D01*
X633070Y452170*
X629070Y448170*
X633070Y444170*
Y448170D02*
Y452170D01*
X219470Y381370D02*
X227470D01*
X223470Y377370D02*
Y385370D01*
X227175Y385870D02*
X227061Y386183D01*
X227061D02*
X226834Y386495D01*
X226606Y386651*
X226152*
X225925Y386495*
X225697Y386183*
X225697D02*
X225584Y385870D01*
X225470Y385401*
Y384620*
X225584Y384151*
X225697Y383839*
X225925Y383526*
X226152Y383370*
X226606*
X226834Y383526*
X227061Y383839*
X227175Y384151*
Y384620*
X226606D02*
X227175D01*
X266670Y381370D02*
X274670D01*
X270670Y377370D02*
Y385370D01*
X274375Y385870D02*
X274261Y386183D01*
X274261D02*
X274034Y386495D01*
X273806Y386651*
X273352*
X273125Y386495*
X272897Y386183*
X272897D02*
X272784Y385870D01*
X272670Y385401*
Y384620*
X272784Y384151*
X272897Y383839*
X273125Y383526*
X273352Y383370*
X273806*
X274034Y383526*
X274261Y383839*
X274375Y384151*
Y384620*
X273806D02*
X274375D01*
X582170Y429970D02*
X586170Y433970D01*
X582170Y437970*
X578170Y433970*
X582170Y429970*
Y433970D02*
Y437970D01*
X320970Y478670D02*
X324970Y482670D01*
X320970Y486670*
X316970Y482670*
X320970Y478670*
Y482670D02*
Y486670D01*
X721770Y318270D02*
X725770Y322270D01*
X721770Y326270*
X717770Y322270*
X721770Y318270*
Y322270D02*
Y326270D01*
X734028Y127570D02*
X742028Y135570D01*
Y127570*
X734028Y135570*
Y127570*
X753713D02*
X761713Y135570D01*
Y127570*
X753713Y135570*
Y127570*
X100170Y349970D02*
X108170D01*
Y357970*
X100170*
Y349970*
X104170Y353970D02*
Y357970D01*
X110170Y349970D02*
X118170D01*
Y357970*
X110170*
Y349970*
X114170Y353970D02*
Y357970D01*
X120170Y349970D02*
X128170D01*
Y357970*
X120170*
Y349970*
X124170Y353970D02*
Y357970D01*
X130170Y349970D02*
X138170D01*
Y357970*
X130170*
Y349970*
X134170Y353970D02*
Y357970D01*
X140170Y349970D02*
X148170D01*
Y357970*
X140170*
Y349970*
X144170Y353970D02*
Y357970D01*
X150170Y349970D02*
X158170D01*
Y357970*
X150170*
Y349970*
X154170Y353970D02*
Y357970D01*
X160170Y349970D02*
X168170D01*
Y357970*
X160170*
Y349970*
X164170Y353970D02*
Y357970D01*
X170170Y349970D02*
X178170D01*
Y357970*
X170170*
Y349970*
X174170Y353970D02*
Y357970D01*
X180170Y349970D02*
X188170D01*
Y357970*
X180170*
Y349970*
X184170Y353970D02*
Y357970D01*
X190170Y349970D02*
X198170D01*
Y357970*
X190170*
Y349970*
X194170Y353970D02*
Y357970D01*
X200170Y349970D02*
X208170D01*
Y357970*
X200170*
Y349970*
X204170Y353970D02*
Y357970D01*
X210170Y349970D02*
X218170D01*
Y357970*
X210170*
Y349970*
X214170Y353970D02*
Y357970D01*
X220170Y349970D02*
X228170D01*
Y357970*
X220170*
Y349970*
X224170Y353970D02*
Y357970D01*
X230170Y349970D02*
X238170D01*
Y357970*
X230170*
Y349970*
X234170Y353970D02*
Y357970D01*
X240170Y349970D02*
X248170D01*
Y357970*
X240170*
Y349970*
X244170Y353970D02*
Y357970D01*
X250170Y349970D02*
X258170D01*
Y357970*
X250170*
Y349970*
X254170Y353970D02*
Y357970D01*
X70670Y353970D02*
X78670D01*
X74670Y349970D02*
Y357970D01*
X77579Y359251D02*
X76670Y355970D01*
X77579Y359251D02*
X78488Y355970D01*
X77011Y357064D02*
X78147D01*
X393570Y353970D02*
X401570D01*
X397570Y349970D02*
Y357970D01*
X400479Y359251D02*
X399570Y355970D01*
X400479Y359251D02*
X401388Y355970D01*
X399911Y357064D02*
X401047D01*
X393570Y137370D02*
X401570D01*
X397570Y133370D02*
Y141370D01*
X400479Y142651D02*
X399570Y139370D01*
X400479Y142651D02*
X401388Y139370D01*
X399911Y140464D02*
X401047D01*
X70670Y137370D02*
X78670D01*
X74670Y133370D02*
Y141370D01*
X77579Y142651D02*
X76670Y139370D01*
X77579Y142651D02*
X78488Y139370D01*
X77011Y140464D02*
X78147D01*
X95370Y49370D02*
X103370D01*
X99370Y45370D02*
Y53370D01*
X120370Y49370D02*
X128370D01*
X124370Y45370D02*
Y53370D01*
X145370Y49370D02*
X153370D01*
X149370Y45370D02*
Y53370D01*
X170370Y49370D02*
X178370D01*
X174370Y45370D02*
Y53370D01*
X195370Y49370D02*
X203370D01*
X199370Y45370D02*
Y53370D01*
X220370Y49370D02*
X228370D01*
X224370Y45370D02*
Y53370D01*
X245370Y49370D02*
X253370D01*
X249370Y45370D02*
Y53370D01*
X270370Y49370D02*
X278370D01*
X274370Y45370D02*
Y53370D01*
X295370Y49370D02*
X303370D01*
X299370Y45370D02*
Y53370D01*
X320370Y49370D02*
X328370D01*
X324370Y45370D02*
Y53370D01*
X345370Y49370D02*
X353370D01*
X349370Y45370D02*
Y53370D01*
X370370Y49370D02*
X378370D01*
X374370Y45370D02*
Y53370D01*
X395370Y49370D02*
X403370D01*
X399370Y45370D02*
Y53370D01*
X435370Y49370D02*
X443370D01*
X439370Y45370D02*
Y53370D01*
X460370Y49370D02*
X468370D01*
X464370Y45370D02*
Y53370D01*
X510370Y49370D02*
X518370D01*
X514370Y45370D02*
Y53370D01*
X485370Y49370D02*
X493370D01*
X489370Y45370D02*
Y53370D01*
X535370Y49370D02*
X543370D01*
X539370Y45370D02*
Y53370D01*
X560370Y49370D02*
X568370D01*
X564370Y45370D02*
Y53370D01*
X585370Y49370D02*
X593370D01*
X589370Y45370D02*
Y53370D01*
X635370Y49370D02*
X643370D01*
X639370Y45370D02*
Y53370D01*
X610370Y49370D02*
X618370D01*
X614370Y45370D02*
Y53370D01*
X660370Y49370D02*
X668370D01*
X664370Y45370D02*
Y53370D01*
X685370Y49370D02*
X693370D01*
X689370Y45370D02*
Y53370D01*
X710370Y49370D02*
X718370D01*
X714370Y45370D02*
Y53370D01*
X735370Y49370D02*
X743370D01*
X739370Y45370D02*
Y53370D01*
X95370Y74370D02*
X103370D01*
X99370Y70370D02*
Y78370D01*
X145370Y74370D02*
X153370D01*
X149370Y70370D02*
Y78370D01*
X120370Y74370D02*
X128370D01*
X124370Y70370D02*
Y78370D01*
X195370Y64370D02*
X203370D01*
X199370Y60370D02*
Y68370D01*
X170370Y74370D02*
X178370D01*
X174370Y70370D02*
Y78370D01*
X220370Y64370D02*
X228370D01*
X224370Y60370D02*
Y68370D01*
X270370Y64370D02*
X278370D01*
X274370Y60370D02*
Y68370D01*
X245370Y64370D02*
X253370D01*
X249370Y60370D02*
Y68370D01*
X295370Y64370D02*
X303370D01*
X299370Y60370D02*
Y68370D01*
X345370Y64370D02*
X353370D01*
X349370Y60370D02*
Y68370D01*
X320370Y64370D02*
X328370D01*
X324370Y60370D02*
Y68370D01*
X375370Y84370D02*
X383370D01*
X379370Y80370D02*
Y88370D01*
X370370Y64370D02*
X378370D01*
X374370Y60370D02*
Y68370D01*
X418470Y94170D02*
X426470D01*
X422470Y90170D02*
Y98170D01*
X400370Y84370D02*
X408370D01*
X404370Y80370D02*
Y88370D01*
X435370Y74370D02*
X443370D01*
X439370Y70370D02*
Y78370D01*
X460370Y74370D02*
X468370D01*
X464370Y70370D02*
Y78370D01*
X485370Y74370D02*
X493370D01*
X489370Y70370D02*
Y78370D01*
X510370Y74370D02*
X518370D01*
X514370Y70370D02*
Y78370D01*
X535370Y74370D02*
X543370D01*
X539370Y70370D02*
Y78370D01*
X577870Y84870D02*
X585870D01*
X581870Y80870D02*
Y88870D01*
Y80870D02*
X589870D01*
X585870Y76870D02*
Y84870D01*
X560370Y74370D02*
X568370D01*
X564370Y70370D02*
Y78370D01*
X585370Y74370D02*
X593370D01*
X589370Y70370D02*
Y78370D01*
X610370Y74370D02*
X618370D01*
X614370Y70370D02*
Y78370D01*
X635370Y74370D02*
X643370D01*
X639370Y70370D02*
Y78370D01*
X660370Y74370D02*
X668370D01*
X664370Y70370D02*
Y78370D01*
X685370Y74370D02*
X693370D01*
X689370Y70370D02*
Y78370D01*
X710370Y74370D02*
X718370D01*
X714370Y70370D02*
Y78370D01*
X753713Y81870D02*
X761713D01*
X757713Y77870D02*
Y85870D01*
X735370Y74370D02*
X743370D01*
X739370Y70370D02*
Y78370D01*
X760370Y84370D02*
X768370D01*
X764370Y80370D02*
Y88370D01*
X785370Y84370D02*
X793370D01*
X789370Y80370D02*
Y88370D01*
X393370Y101370D02*
X401370D01*
X397370Y97370D02*
Y105370D01*
X385370Y94370D02*
X393370D01*
X389370Y90370D02*
Y98370D01*
X430370Y124370D02*
X438370D01*
X434370Y120370D02*
Y128370D01*
X405370Y101370D02*
X413370D01*
X409370Y97370D02*
Y105370D01*
X455370Y124370D02*
X463370D01*
X459370Y120370D02*
Y128370D01*
X505370Y124370D02*
X513370D01*
X509370Y120370D02*
Y128370D01*
X480370Y124370D02*
X488370D01*
X484370Y120370D02*
Y128370D01*
X555370Y124370D02*
X563370D01*
X559370Y120370D02*
Y128370D01*
X575370Y124370D02*
X583370D01*
X579370Y120370D02*
Y128370D01*
X615370Y114370D02*
X623370D01*
X619370Y110370D02*
Y118370D01*
X605370Y114370D02*
X613370D01*
X609370Y110370D02*
Y118370D01*
X635370Y94370D02*
X643370D01*
X639370Y90370D02*
Y98370D01*
X610370Y94370D02*
X618370D01*
X614370Y90370D02*
Y98370D01*
X670370Y114370D02*
X678370D01*
X674370Y110370D02*
Y118370D01*
X660370Y94370D02*
X668370D01*
X664370Y90370D02*
Y98370D01*
X685370Y94370D02*
X693370D01*
X689370Y90370D02*
Y98370D01*
X785370Y104370D02*
X793370D01*
X789370Y100370D02*
Y108370D01*
X415370Y159370D02*
X423370D01*
X419370Y155370D02*
Y163370D01*
X455370Y149370D02*
X463370D01*
X459370Y145370D02*
Y153370D01*
X505370Y149370D02*
X513370D01*
X509370Y145370D02*
Y153370D01*
X480370Y149370D02*
X488370D01*
X484370Y145370D02*
Y153370D01*
X555370Y149370D02*
X563370D01*
X559370Y145370D02*
Y153370D01*
X530370Y149370D02*
X538370D01*
X534370Y145370D02*
Y153370D01*
X595370Y149370D02*
X603370D01*
X599370Y145370D02*
Y153370D01*
X575370Y149370D02*
X583370D01*
X579370Y145370D02*
Y153370D01*
X630370Y154370D02*
X638370D01*
X634370Y150370D02*
Y158370D01*
X610370Y149370D02*
X618370D01*
X614370Y145370D02*
Y153370D01*
X610470Y174070D02*
X618470D01*
X614470Y170070D02*
Y178070D01*
X653670Y157270D02*
X661670D01*
X657670Y153270D02*
Y161270D01*
X670370Y139370D02*
X678370D01*
X674370Y135370D02*
Y143370D01*
X653370Y144670D02*
X661370D01*
X657370Y140670D02*
Y148670D01*
X685370Y139370D02*
X693370D01*
X689370Y135370D02*
Y143370D01*
X685370Y164370D02*
X693370D01*
X689370Y160370D02*
Y168370D01*
X705370Y164370D02*
X713370D01*
X709370Y160370D02*
Y168370D01*
X415370Y209370D02*
X423370D01*
X419370Y205370D02*
Y213370D01*
X415370Y184370D02*
X423370D01*
X419370Y180370D02*
Y188370D01*
X455370Y199370D02*
X463370D01*
X459370Y195370D02*
Y203370D01*
X455370Y174370D02*
X463370D01*
X459370Y170370D02*
Y178370D01*
X480370Y174370D02*
X488370D01*
X484370Y170370D02*
Y178370D01*
X505370Y174370D02*
X513370D01*
X509370Y170370D02*
Y178370D01*
X505370Y199370D02*
X513370D01*
X509370Y195370D02*
Y203370D01*
X480370Y199370D02*
X488370D01*
X484370Y195370D02*
Y203370D01*
X555370Y174370D02*
X563370D01*
X559370Y170370D02*
Y178370D01*
X530370Y174370D02*
X538370D01*
X534370Y170370D02*
Y178370D01*
X530370Y199370D02*
X538370D01*
X534370Y195370D02*
Y203370D01*
X568270Y191670D02*
X576270D01*
X572270Y187670D02*
Y195670D01*
X595370Y174370D02*
X603370D01*
X599370Y170370D02*
Y178370D01*
X575370Y174370D02*
X583370D01*
X579370Y170370D02*
Y178370D01*
X651170Y210170D02*
X659170D01*
X655170Y206170D02*
Y214170D01*
X665370Y199370D02*
X673370D01*
X669370Y195370D02*
Y203370D01*
X690370Y184370D02*
X698370D01*
X694370Y180370D02*
Y188370D01*
X690370Y204370D02*
X698370D01*
X694370Y200370D02*
Y208370D01*
X680370Y204370D02*
X688370D01*
X684370Y200370D02*
Y208370D01*
X680370Y184370D02*
X688370D01*
X684370Y180370D02*
Y188370D01*
X705370Y199370D02*
X713370D01*
X709370Y195370D02*
Y203370D01*
X431670Y245470D02*
X439670D01*
X435670Y241470D02*
Y249470D01*
X415370Y234370D02*
X423370D01*
X419370Y230370D02*
Y238370D01*
X569970Y224070D02*
X577970D01*
X573970Y220070D02*
Y228070D01*
X593970Y231770D02*
X601970D01*
X597970Y227770D02*
Y235770D01*
X601570Y248870D02*
X609570D01*
X605570Y244870D02*
Y252870D01*
X613570*
X609570Y248870D02*
Y256870D01*
X620470Y215970D02*
X628470D01*
X624470Y211970D02*
Y219970D01*
X690870Y227970D02*
X698870D01*
X694870Y223970D02*
Y231970D01*
X690870Y239970D02*
X698870D01*
X694870Y235970D02*
Y243970D01*
X690870Y215970D02*
X698870D01*
X694870Y211970D02*
Y219970D01*
X698870Y235470D02*
X706870D01*
X702870Y231470D02*
Y239470D01*
X703370Y242370D02*
X711370D01*
X707370Y238370D02*
Y246370D01*
X715370Y219370D02*
X723370D01*
X719370Y215370D02*
Y223370D01*
X715370Y229370D02*
X723370D01*
X719370Y225370D02*
Y233370D01*
X725370Y242370D02*
X733370D01*
X729370Y238370D02*
Y246370D01*
X750370Y239370D02*
X758370D01*
X754370Y235370D02*
Y243370D01*
X750370Y214370D02*
X758370D01*
X754370Y210370D02*
Y218370D01*
X733370Y240370D02*
X741370D01*
X737370Y236370D02*
Y244370D01*
X770370Y239370D02*
X778370D01*
X774370Y235370D02*
Y243370D01*
X775370Y214370D02*
X783370D01*
X779370Y210370D02*
Y218370D01*
X785370Y244370D02*
X793370D01*
X789370Y240370D02*
Y248370D01*
X415370Y284370D02*
X423370D01*
X419370Y280370D02*
Y288370D01*
X415370Y259370D02*
X423370D01*
X419370Y255370D02*
Y263370D01*
X440470Y260670D02*
X448470D01*
X444470Y256670D02*
Y264670D01*
X452670D02*
X460670D01*
X456670Y260670D02*
Y268670D01*
X465370Y284370D02*
X473370D01*
X469370Y280370D02*
Y288370D01*
X440370Y284370D02*
X448370D01*
X444370Y280370D02*
Y288370D01*
X515370Y284370D02*
X523370D01*
X519370Y280370D02*
Y288370D01*
X490370Y284370D02*
X498370D01*
X494370Y280370D02*
Y288370D01*
X555370Y274370D02*
X563370D01*
X559370Y270370D02*
Y278370D01*
X553570Y293970D02*
X561570D01*
X557570Y289970D02*
Y297970D01*
X570370Y274370D02*
X578370D01*
X574370Y270370D02*
Y278370D01*
X571370Y285870D02*
X579370D01*
X575370Y281870D02*
Y289870D01*
X605370Y269370D02*
X613370D01*
X609370Y265370D02*
Y273370D01*
X606270Y286170D02*
X614270D01*
X610270Y282170D02*
Y290170D01*
X620270Y290070D02*
X628270D01*
X624270Y286070D02*
Y294070D01*
X629870Y286370D02*
X637870D01*
X633870Y282370D02*
Y290370D01*
X621870Y261670D02*
X629870D01*
X625870Y257670D02*
Y265670D01*
X629870Y274370D02*
X637870D01*
X633870Y270370D02*
Y278370D01*
X652870Y262370D02*
X660870D01*
X656870Y258370D02*
Y266370D01*
X652270Y274370D02*
X660270D01*
X656270Y270370D02*
Y278370D01*
X685370Y289370D02*
X693370D01*
X689370Y285370D02*
Y293370D01*
X687770Y263970D02*
X695770D01*
X691770Y259970D02*
Y267970D01*
X735370Y289370D02*
X743370D01*
X739370Y285370D02*
Y293370D01*
X723770Y262370D02*
X731770D01*
X727770Y258370D02*
Y266370D01*
X785370Y264370D02*
X793370D01*
X789370Y260370D02*
Y268370D01*
X785370Y289370D02*
X793370D01*
X789370Y285370D02*
Y293370D01*
X760370Y289370D02*
X768370D01*
X764370Y285370D02*
Y293370D01*
X415370Y309370D02*
X423370D01*
X419370Y305370D02*
Y313370D01*
X440370Y309370D02*
X448370D01*
X444370Y305370D02*
Y313370D01*
X465370Y309370D02*
X473370D01*
X469370Y305370D02*
Y313370D01*
X506070Y321570D02*
X514070D01*
X510070Y317570D02*
Y325570D01*
X488070Y329570D02*
X496070D01*
X492070Y325570D02*
Y333570D01*
X502070Y325570D02*
X510070D01*
X506070Y321570D02*
Y329570D01*
X484070Y333570D02*
X492070D01*
X488070Y329570D02*
Y337570D01*
X490370Y309370D02*
X498370D01*
X494370Y305370D02*
Y313370D01*
X515370Y309370D02*
X523370D01*
X519370Y305370D02*
Y313370D01*
X548270Y308570D02*
X556270D01*
X552270Y304570D02*
Y312570D01*
X590670Y321670D02*
X598670D01*
X594670Y317670D02*
Y325670D01*
X596670Y326951D02*
Y323670D01*
Y326951D02*
X597466D01*
X597806Y326795*
X598034Y326483*
X598034D02*
X598147Y326170D01*
X598261Y325701*
Y324920*
X598147Y324451*
X598034Y324139*
X597806Y323826*
X597466Y323670*
X596670*
X594570Y317670D02*
X602570D01*
X598570Y313670D02*
Y321670D01*
X600570Y322951D02*
Y319670D01*
Y322951D02*
X601366D01*
X601706Y322795*
X601934Y322483*
X601934D02*
X602047Y322170D01*
X602161Y321701*
Y320920*
X602047Y320451*
X601934Y320139*
X601706Y319826*
X601366Y319670*
X600570*
X594570Y333670D02*
X602570D01*
X598570Y329670D02*
Y337670D01*
X600570Y338951D02*
Y335670D01*
Y338951D02*
X601366D01*
X601706Y338795*
X601934Y338483*
X601934D02*
X602047Y338170D01*
X602161Y337701*
Y336920*
X602047Y336451*
X601934Y336139*
X601706Y335826*
X601366Y335670*
X600570*
X590570Y329670D02*
X598570D01*
X594570Y325670D02*
Y333670D01*
X596570Y334951D02*
Y331670D01*
Y334951D02*
X597366D01*
X597706Y334795*
X597934Y334483*
X597934D02*
X598047Y334170D01*
X598161Y333701*
Y332920*
X598047Y332451*
X597934Y332139*
X597706Y331826*
X597366Y331670*
X596570*
X594570Y325670D02*
X602570D01*
X598570Y321670D02*
Y329670D01*
X600570Y330951D02*
Y327670D01*
Y330951D02*
X601366D01*
X601706Y330795*
X601934Y330483*
X601934D02*
X602047Y330170D01*
X602161Y329701*
Y328920*
X602047Y328451*
X601934Y328139*
X601706Y327826*
X601366Y327670*
X600570*
X623070Y319470D02*
X631070D01*
X627070Y315470D02*
Y323470D01*
X629070Y324751D02*
Y321470D01*
Y324751D02*
X629866D01*
X630206Y324595*
X630434Y324283*
X630434D02*
X630547Y323970D01*
X630661Y323501*
Y322720*
X630547Y322251*
X630434Y321939*
X630206Y321626*
X629866Y321470*
X629070*
X614370Y319470D02*
X622370D01*
X618370Y315470D02*
Y323470D01*
X620370Y324751D02*
Y321470D01*
Y324751D02*
X621166D01*
X621506Y324595*
X621734Y324283*
X621734D02*
X621847Y323970D01*
X621961Y323501*
Y322720*
X621847Y322251*
X621734Y321939*
X621506Y321626*
X621166Y321470*
X620370*
X658970Y307970D02*
X666970D01*
X662970Y303970D02*
Y311970D01*
X664970Y313251D02*
Y309970D01*
Y313251D02*
X665766D01*
X666106Y313095*
X666334Y312783*
X666334D02*
X666447Y312470D01*
X666561Y312001*
Y311220*
X666447Y310751*
X666334Y310439*
X666106Y310126*
X665766Y309970*
X664970*
X638970Y325970D02*
X646970D01*
X642970Y321970D02*
Y329970D01*
X644970Y331251D02*
Y327970D01*
Y331251D02*
X645766D01*
X646106Y331095*
X646334Y330783*
X646334D02*
X646447Y330470D01*
X646561Y330001*
Y329220*
X646447Y328751*
X646334Y328439*
X646106Y328126*
X645766Y327970*
X644970*
X685370Y309370D02*
X693370D01*
X689370Y305370D02*
Y313370D01*
X710370Y309370D02*
X718370D01*
X714370Y305370D02*
Y313370D01*
X735370Y309370D02*
X743370D01*
X739370Y305370D02*
Y313370D01*
X760370Y309370D02*
X768370D01*
X764370Y305370D02*
Y313370D01*
X785370Y309370D02*
X793370D01*
X789370Y305370D02*
Y313370D01*
X265370Y339370D02*
X273370D01*
X269370Y335370D02*
Y343370D01*
X315370Y359370D02*
X323370D01*
X319370Y355370D02*
Y363370D01*
X290370Y359370D02*
X298370D01*
X294370Y355370D02*
Y363370D01*
X290370Y339370D02*
X298370D01*
X294370Y335370D02*
Y343370D01*
X315370Y339370D02*
X323370D01*
X319370Y335370D02*
Y343370D01*
X294970Y366670D02*
X302970D01*
X298970Y362670D02*
Y370670D01*
X340370Y359370D02*
X348370D01*
X344370Y355370D02*
Y363370D01*
X340370Y339370D02*
X348370D01*
X344370Y335370D02*
Y343370D01*
X365370Y359370D02*
X373370D01*
X369370Y355370D02*
Y363370D01*
X365370Y339370D02*
X373370D01*
X369370Y335370D02*
Y343370D01*
X390370Y339370D02*
X398370D01*
X394370Y335370D02*
Y343370D01*
X415370Y334370D02*
X423370D01*
X419370Y330370D02*
Y338370D01*
X428670Y359870D02*
X436670D01*
X432670Y355870D02*
Y363870D01*
X461670Y357870D02*
X469670D01*
X465670Y353870D02*
Y361870D01*
X457670Y353870D02*
X465670D01*
X461670Y349870D02*
Y357870D01*
X440370Y334370D02*
X448370D01*
X444370Y330370D02*
Y338370D01*
X465670Y361870D02*
X473670D01*
X469670Y357870D02*
Y365870D01*
X548970Y367570D02*
X556970D01*
X552970Y363570D02*
Y371570D01*
X594570Y341570D02*
X602570D01*
X598570Y337570D02*
Y345570D01*
X566570Y363470D02*
X574570D01*
X570570Y359470D02*
Y367470D01*
X572570Y368751D02*
Y365470D01*
Y368751D02*
X573366D01*
X573706Y368595*
X573934Y368283*
X573934D02*
X574047Y367970D01*
X574161Y367501*
Y366720*
X574047Y366251*
X573934Y365939*
X573706Y365626*
X573366Y365470*
X572570*
X590670Y337570D02*
X598670D01*
X594670Y333570D02*
Y341570D01*
X596670Y342851D02*
Y339570D01*
Y342851D02*
X597466D01*
X597806Y342695*
X598034Y342383*
X598034D02*
X598147Y342070D01*
X598261Y341601*
Y340820*
X598147Y340351*
X598034Y340039*
X597806Y339726*
X597466Y339570*
X596670*
X625370Y359370D02*
X633370D01*
X629370Y355370D02*
Y363370D01*
X615370Y359370D02*
X623370D01*
X619370Y355370D02*
Y363370D01*
X605370Y359370D02*
X613370D01*
X609370Y355370D02*
Y363370D01*
X605370Y369370D02*
X613370D01*
X609370Y365370D02*
Y373370D01*
X615370Y369370D02*
X623370D01*
X619370Y365370D02*
Y373370D01*
X625370Y369370D02*
X633370D01*
X629370Y365370D02*
Y373370D01*
X654970Y341170D02*
X662970D01*
X658970Y337170D02*
Y345170D01*
X660970Y346451D02*
Y343170D01*
Y346451D02*
X661766D01*
X662106Y346295*
X662334Y345983*
X662334D02*
X662447Y345670D01*
X662561Y345201*
Y344420*
X662447Y343951*
X662334Y343639*
X662106Y343326*
X661766Y343170*
X660970*
X647070Y353870D02*
X655070D01*
X651070Y349870D02*
Y357870D01*
X653070Y359151D02*
Y355870D01*
Y359151D02*
X653866D01*
X654206Y358995*
X654434Y358683*
X654434D02*
X654547Y358370D01*
X654661Y357901*
Y357120*
X654547Y356651*
X654434Y356339*
X654206Y356026*
X653866Y355870*
X653070*
X658870Y351570D02*
X666870D01*
X662870Y347570D02*
Y355570D01*
X664870Y356851D02*
Y353570D01*
Y356851D02*
X665666D01*
X666006Y356695*
X666234Y356383*
X666234D02*
X666347Y356070D01*
X666461Y355601*
Y354820*
X666347Y354351*
X666234Y354039*
X666006Y353726*
X665666Y353570*
X664870*
X656970Y362370D02*
X664970D01*
X660970Y358370D02*
Y366370D01*
X662970Y367651D02*
Y364370D01*
Y367651D02*
X663766D01*
X664106Y367495*
X664334Y367183*
X664334D02*
X664447Y366870D01*
X664561Y366401*
Y365620*
X664447Y365151*
X664334Y364839*
X664106Y364526*
X663766Y364370*
X662970*
X670970Y362370D02*
X678970D01*
X674970Y358370D02*
Y366370D01*
X676970Y367651D02*
Y364370D01*
Y367651D02*
X677766D01*
X678106Y367495*
X678334Y367183*
X678334D02*
X678447Y366870D01*
X678561Y366401*
Y365620*
X678447Y365151*
X678334Y364839*
X678106Y364526*
X677766Y364370*
X676970*
X636370Y348370D02*
X644370D01*
X640370Y344370D02*
Y352370D01*
X648370Y334370D02*
X656370D01*
X652370Y330370D02*
Y338370D01*
X653570Y348070D02*
X661570D01*
X657570Y344070D02*
Y352070D01*
X659570Y353351D02*
Y350070D01*
Y353351D02*
X660366D01*
X660706Y353195*
X660934Y352883*
X660934D02*
X661047Y352570D01*
X661161Y352101*
Y351320*
X661047Y350851*
X660934Y350539*
X660706Y350226*
X660366Y350070*
X659570*
X710370Y334370D02*
X718370D01*
X714370Y330370D02*
Y338370D01*
X710370Y359370D02*
X718370D01*
X714370Y355370D02*
Y363370D01*
X700370Y364370D02*
X708370D01*
X704370Y360370D02*
Y368370D01*
X689270Y354670D02*
X697270D01*
X693270Y350670D02*
Y358670D01*
X735370Y334370D02*
X743370D01*
X739370Y330370D02*
Y338370D01*
X735370Y359370D02*
X743370D01*
X739370Y355370D02*
Y363370D01*
X785370Y334370D02*
X793370D01*
X789370Y330370D02*
Y338370D01*
X760370Y334370D02*
X768370D01*
X764370Y330370D02*
Y338370D01*
X785370Y359370D02*
X793370D01*
X789370Y355370D02*
Y363370D01*
X760370Y359370D02*
X768370D01*
X764370Y355370D02*
Y363370D01*
X75370Y399370D02*
X83370D01*
X79370Y395370D02*
Y403370D01*
X149770Y389570D02*
X157770D01*
X153770Y385570D02*
Y393570D01*
X170370Y400370D02*
X178370D01*
X174370Y396370D02*
Y404370D01*
X192270Y390870D02*
X200270D01*
X196270Y386870D02*
Y394870D01*
X210170Y403970D02*
X218170D01*
X214170Y399970D02*
Y407970D01*
X205170Y408970D02*
X213170D01*
X209170Y404970D02*
Y412970D01*
X219470Y399670D02*
X227470D01*
X223470Y395670D02*
Y403670D01*
X206870Y381670D02*
X214870D01*
X210870Y377670D02*
Y385670D01*
X274070Y404870D02*
X282070D01*
X278070Y400870D02*
Y408870D01*
X274070Y387370D02*
X282070D01*
X278070Y383370D02*
Y391370D01*
X282070Y387370D02*
X290070D01*
X286070Y383370D02*
Y391370D01*
Y404870D02*
X294070D01*
X290070Y400870D02*
Y408870D01*
X286070Y383370D02*
X294070D01*
X290070Y379370D02*
Y387370D01*
X278070Y383370D02*
X286070D01*
X282070Y379370D02*
Y387370D01*
X315270Y396070D02*
X323270D01*
X319270Y392070D02*
Y400070D01*
X290070Y395370D02*
X298070D01*
X294070Y391370D02*
Y399370D01*
X355070Y399170D02*
X363070D01*
X359070Y395170D02*
Y403170D01*
X326170Y404270D02*
X334170D01*
X330170Y400270D02*
Y408270D01*
X345070Y396770D02*
X353070D01*
X349070Y392770D02*
Y400770D01*
X335070Y396770D02*
X343070D01*
X339070Y392770D02*
Y400770D01*
X360070Y396070D02*
X368070D01*
X364070Y392070D02*
Y400070D01*
X365070Y398170D02*
X373070D01*
X369070Y394170D02*
Y402170D01*
X390370Y394370D02*
X398370D01*
X394370Y390370D02*
Y398370D01*
X413870Y382770D02*
X421870D01*
X417870Y378770D02*
Y386770D01*
X420370Y394370D02*
X428370D01*
X424370Y390370D02*
Y398370D01*
X401170Y398270D02*
X409170D01*
X405170Y394270D02*
Y402270D01*
X450370Y404370D02*
X458370D01*
X454370Y400370D02*
Y408370D01*
X443670Y382770D02*
X451670D01*
X447670Y378770D02*
Y386770D01*
X481670Y375470D02*
X489670D01*
X485670Y371470D02*
Y379470D01*
X566870Y378770D02*
X574870D01*
X570870Y374770D02*
Y382770D01*
X572870Y384051D02*
Y380770D01*
Y384051D02*
X573666D01*
X574006Y383895*
X574234Y383583*
X574234D02*
X574347Y383270D01*
X574461Y382801*
Y382020*
X574347Y381551*
X574234Y381239*
X574006Y380926*
X573666Y380770*
X572870*
X625370Y379370D02*
X633370D01*
X629370Y375370D02*
Y383370D01*
X615370Y379370D02*
X623370D01*
X619370Y375370D02*
Y383370D01*
X605370Y379370D02*
X613370D01*
X609370Y375370D02*
Y383370D01*
X674970Y384270D02*
X682970D01*
X678970Y380270D02*
Y388270D01*
X680970Y389551D02*
Y386270D01*
Y389551D02*
X681766D01*
X682106Y389395*
X682334Y389083*
X682334D02*
X682447Y388770D01*
X682561Y388301*
Y387520*
X682447Y387051*
X682334Y386739*
X682106Y386426*
X681766Y386270*
X680970*
X636770Y406270D02*
X644770D01*
X640770Y402270D02*
Y410270D01*
X642770Y411551D02*
Y408270D01*
Y411551D02*
X643566D01*
X643906Y411395*
X644134Y411083*
X644134D02*
X644247Y410770D01*
X644361Y410301*
Y409520*
X644247Y409051*
X644134Y408739*
X643906Y408426*
X643566Y408270*
X642770*
X656170Y387270D02*
X664170D01*
X660170Y383270D02*
Y391270D01*
X662170Y392551D02*
Y389270D01*
Y392551D02*
X662966D01*
X663306Y392395*
X663534Y392083*
X663534D02*
X663647Y391770D01*
X663761Y391301*
Y390520*
X663647Y390051*
X663534Y389739*
X663306Y389426*
X662966Y389270*
X662170*
X652170Y383270D02*
X660170D01*
X656170Y379270D02*
Y387270D01*
X658170Y388551D02*
Y385270D01*
Y388551D02*
X658966D01*
X659306Y388395*
X659534Y388083*
X659534D02*
X659647Y387770D01*
X659761Y387301*
Y386520*
X659647Y386051*
X659534Y385739*
X659306Y385426*
X658966Y385270*
X658170*
X651670Y402270D02*
X659670D01*
X655670Y398270D02*
Y406270D01*
X657670Y407551D02*
Y404270D01*
Y407551D02*
X658466D01*
X658806Y407395*
X659034Y407083*
X659034D02*
X659147Y406770D01*
X659261Y406301*
Y405520*
X659147Y405051*
X659034Y404739*
X658806Y404426*
X658466Y404270*
X657670*
X678970Y378370D02*
X686970D01*
X682970Y374370D02*
Y382370D01*
X684970Y383651D02*
Y380370D01*
Y383651D02*
X685766D01*
X686106Y383495*
X686334Y383183*
X686334D02*
X686447Y382870D01*
X686561Y382401*
Y381620*
X686447Y381151*
X686334Y380839*
X686106Y380526*
X685766Y380370*
X684970*
X735370Y404370D02*
X743370D01*
X739370Y400370D02*
Y408370D01*
X735370Y379370D02*
X743370D01*
X739370Y375370D02*
Y383370D01*
X760370Y404370D02*
X768370D01*
X764370Y400370D02*
Y408370D01*
X785370Y404370D02*
X793370D01*
X789370Y400370D02*
Y408370D01*
X760370Y379370D02*
X768370D01*
X764370Y375370D02*
Y383370D01*
X785370Y379370D02*
X793370D01*
X789370Y375370D02*
Y383370D01*
X110770Y443970D02*
X118770D01*
X114770Y439970D02*
Y447970D01*
X152770Y418970D02*
X160770D01*
X156770Y414970D02*
Y422970D01*
X152870Y433270D02*
X160870D01*
X156870Y429270D02*
Y437270D01*
X171970Y428170D02*
X179970D01*
X175970Y424170D02*
Y432170D01*
X210370Y434370D02*
X218370D01*
X214370Y430370D02*
Y438370D01*
X195970Y428070D02*
X203970D01*
X199970Y424070D02*
Y432070D01*
X248270Y421070D02*
X256270D01*
X252270Y417070D02*
Y425070D01*
X261870Y446670D02*
X269870D01*
X265870Y442670D02*
Y450670D01*
X275370Y434370D02*
X283370D01*
X279370Y430370D02*
Y438370D01*
X275370Y449370D02*
X283370D01*
X279370Y445370D02*
Y453370D01*
X282070Y422370D02*
X290070D01*
X286070Y418370D02*
Y426370D01*
X306070Y437770D02*
X314070D01*
X310070Y433770D02*
Y441770D01*
X290370Y449370D02*
X298370D01*
X294370Y445370D02*
Y453370D01*
X355070Y438070D02*
X363070D01*
X359070Y434070D02*
Y442070D01*
X345070Y439470D02*
X353070D01*
X349070Y435470D02*
Y443470D01*
X340070Y433370D02*
X348070D01*
X344070Y429370D02*
Y437370D01*
X330070Y433370D02*
X338070D01*
X334070Y429370D02*
Y437370D01*
X360070Y433370D02*
X368070D01*
X364070Y429370D02*
Y437370D01*
X390370Y414370D02*
X398370D01*
X394370Y410370D02*
Y418370D01*
X382270Y419570D02*
X390270D01*
X386270Y415570D02*
Y423570D01*
X372270Y438470D02*
X380270D01*
X376270Y434470D02*
Y442470D01*
X384270Y435470D02*
X392270D01*
X388270Y431470D02*
Y439470D01*
X372270Y431470D02*
X380270D01*
X376270Y427470D02*
Y435470D01*
X405370Y414370D02*
X413370D01*
X409370Y410370D02*
Y418370D01*
X454870Y415770D02*
X462870D01*
X458870Y411770D02*
Y419770D01*
X590370Y444370D02*
X598370D01*
X594370Y440370D02*
Y448370D01*
X570370Y444370D02*
X578370D01*
X574370Y440370D02*
Y448370D01*
X592070Y416270D02*
X600070D01*
X596070Y412270D02*
Y420270D01*
X613770Y439970D02*
X621770D01*
X617770Y435970D02*
Y443970D01*
X605170Y440070D02*
X613170D01*
X609170Y436070D02*
Y444070D01*
X660370Y444370D02*
X668370D01*
X664370Y440370D02*
Y448370D01*
X640370Y444370D02*
X648370D01*
X644370Y440370D02*
Y448370D01*
X735370Y429370D02*
X743370D01*
X739370Y425370D02*
Y433370D01*
X785370Y429370D02*
X793370D01*
X789370Y425370D02*
Y433370D01*
X760370Y429370D02*
X768370D01*
X764370Y425370D02*
Y433370D01*
X81970Y478770D02*
X89970D01*
X85970Y474770D02*
Y482770D01*
X92370D02*
X100370D01*
X96370Y478770D02*
Y486770D01*
X80370Y489370D02*
X88370D01*
X84370Y485370D02*
Y493370D01*
X105370Y489370D02*
X113370D01*
X109370Y485370D02*
Y493370D01*
X149770Y484270D02*
X157770D01*
X153770Y480270D02*
Y488270D01*
X149770Y467770D02*
X157770D01*
X153770Y463770D02*
Y471770D01*
X130370Y489370D02*
X138370D01*
X134370Y485370D02*
Y493370D01*
X182770Y480270D02*
X190770D01*
X186770Y476270D02*
Y484270D01*
X166670Y454470D02*
X174670D01*
X170670Y450470D02*
Y458470D01*
X166670Y477070D02*
X174670D01*
X170670Y473070D02*
Y481070D01*
X197370Y463270D02*
X205370D01*
X201370Y459270D02*
Y467270D01*
X197370Y458270D02*
X205370D01*
X201370Y454270D02*
Y462270D01*
X216470Y492070D02*
X224470D01*
X220470Y488070D02*
Y496070D01*
X197770Y480670D02*
X205770D01*
X201770Y476670D02*
Y484670D01*
X210370Y454370D02*
X218370D01*
X214370Y450370D02*
Y458370D01*
X242970Y479570D02*
X250970D01*
X246970Y475570D02*
Y483570D01*
X247970Y479570D02*
X255970D01*
X251970Y475570D02*
Y483570D01*
X275370Y484370D02*
X283370D01*
X279370Y480370D02*
Y488370D01*
X269970Y456370D02*
X277970D01*
X273970Y452370D02*
Y460370D01*
X261970Y486670D02*
X269970D01*
X265970Y482670D02*
Y490670D01*
X300370Y484370D02*
X308370D01*
X304370Y480370D02*
Y488370D01*
X350370Y484370D02*
X358370D01*
X354370Y480370D02*
Y488370D01*
X325370Y484370D02*
X333370D01*
X329370Y480370D02*
Y488370D01*
X375370Y484370D02*
X383370D01*
X379370Y480370D02*
Y488370D01*
X425370Y484370D02*
X433370D01*
X429370Y480370D02*
Y488370D01*
X400370Y484370D02*
X408370D01*
X404370Y480370D02*
Y488370D01*
X469670Y493170D02*
X477670D01*
X473670Y489170D02*
Y497170D01*
Y481170D02*
X481670D01*
X477670Y477170D02*
Y485170D01*
X450370Y484370D02*
X458370D01*
X454370Y480370D02*
Y488370D01*
X465670Y467470D02*
X473670D01*
X469670Y463470D02*
Y471470D01*
X481670Y481170D02*
X489670D01*
X485670Y477170D02*
Y485170D01*
X477670D02*
X485670D01*
X481670Y481170D02*
Y489170D01*
X485670Y485170D02*
X493670D01*
X489670Y481170D02*
Y489170D01*
X515370Y489370D02*
X523370D01*
X519370Y485370D02*
Y493370D01*
X550370Y464370D02*
X558370D01*
X554370Y460370D02*
Y468370D01*
X540370Y489370D02*
X548370D01*
X544370Y485370D02*
Y493370D01*
X539470Y461470D02*
X547470D01*
X543470Y457470D02*
Y465470D01*
X595370Y464370D02*
X603370D01*
X599370Y460370D02*
Y468370D01*
X575370Y464370D02*
X583370D01*
X579370Y460370D02*
Y468370D01*
X565370Y489370D02*
X573370D01*
X569370Y485370D02*
Y493370D01*
X590370Y489370D02*
X598370D01*
X594370Y485370D02*
Y493370D01*
X615370Y464370D02*
X623370D01*
X619370Y460370D02*
Y468370D01*
X615370Y489370D02*
X623370D01*
X619370Y485370D02*
Y493370D01*
X666970Y465070D02*
X674970D01*
X670970Y461070D02*
Y469070D01*
X650770Y471970D02*
X658770D01*
X654770Y467970D02*
Y475970D01*
X640370Y464370D02*
X648370D01*
X644370Y460370D02*
Y468370D01*
X640370Y489370D02*
X648370D01*
X644370Y485370D02*
Y493370D01*
X665370Y489370D02*
X673370D01*
X669370Y485370D02*
Y493370D01*
X690370Y489370D02*
X698370D01*
X694370Y485370D02*
Y493370D01*
X715370Y489370D02*
X723370D01*
X719370Y485370D02*
Y493370D01*
X740370Y489370D02*
X748370D01*
X744370Y485370D02*
Y493370D01*
X760370Y454370D02*
X768370D01*
X764370Y450370D02*
Y458370D01*
X785370Y454370D02*
X793370D01*
X789370Y450370D02*
Y458370D01*
X105370Y514370D02*
X113370D01*
X109370Y510370D02*
Y518370D01*
X80370Y514370D02*
X88370D01*
X84370Y510370D02*
Y518370D01*
X155370Y514370D02*
X163370D01*
X159370Y510370D02*
Y518370D01*
X130370Y514370D02*
X138370D01*
X134370Y510370D02*
Y518370D01*
X212470Y496070D02*
X220470D01*
X216470Y492070D02*
Y500070D01*
X208470D02*
X216470D01*
X212470Y496070D02*
Y504070D01*
X205970Y507970D02*
X213970D01*
X209970Y503970D02*
Y511970D01*
X201970D02*
X209970D01*
X205970Y507970D02*
Y515970D01*
X270370Y515370D02*
X278370D01*
X274370Y511370D02*
Y519370D01*
X245370Y515370D02*
X253370D01*
X249370Y511370D02*
Y519370D01*
X295370Y515370D02*
X303370D01*
X299370Y511370D02*
Y519370D01*
X345370Y515370D02*
X353370D01*
X349370Y511370D02*
Y519370D01*
X320370Y515370D02*
X328370D01*
X324370Y511370D02*
Y519370D01*
X395370Y515370D02*
X403370D01*
X399370Y511370D02*
Y519370D01*
X370370Y515370D02*
X378370D01*
X374370Y511370D02*
Y519370D01*
X420370Y515370D02*
X428370D01*
X424370Y511370D02*
Y519370D01*
X470370Y515370D02*
X478370D01*
X474370Y511370D02*
Y519370D01*
X445370Y515370D02*
X453370D01*
X449370Y511370D02*
Y519370D01*
X515370Y514370D02*
X523370D01*
X519370Y510370D02*
Y518370D01*
X490370Y514370D02*
X498370D01*
X494370Y510370D02*
Y518370D01*
X540370Y514370D02*
X548370D01*
X544370Y510370D02*
Y518370D01*
X565370Y514370D02*
X573370D01*
X569370Y510370D02*
Y518370D01*
X590370Y514370D02*
X598370D01*
X594370Y510370D02*
Y518370D01*
X615370Y514370D02*
X623370D01*
X619370Y510370D02*
Y518370D01*
X665370Y514370D02*
X673370D01*
X669370Y510370D02*
Y518370D01*
X640370Y514370D02*
X648370D01*
X644370Y510370D02*
Y518370D01*
X715370Y514370D02*
X723370D01*
X719370Y510370D02*
Y518370D01*
X690370Y514370D02*
X698370D01*
X694370Y510370D02*
Y518370D01*
X740370Y514370D02*
X748370D01*
X744370Y510370D02*
Y518370D01*
X789170Y39370D02*
X49370D01*
X39370Y49370D02*
G75*
G03X49370Y39370I10000J0D01*
G01X39370Y49370D02*
Y513570D01*
X49370Y523570D02*
G03X39370Y513570I0J-10000D01*
G01X49370Y523570D02*
X789170D01*
X799170Y513570D02*
G03X789170Y523570I-10000J0D01*
G01X799170Y513570D02*
Y49370D01*
X789170Y39370D02*
G03X799170Y49370I0J10000D01*
G01X64470Y327248D02*
X407770D01*
Y161048*
X64470*
Y327248*
X240070Y76770D02*
Y79270D01*
X232570*
Y80520*
X228820Y78020*
X232570Y75520*
Y76770*
X240070*
X355164Y74754D02*
Y81629D01*
X352664*
Y77254*
X348289*
Y78504*
X344539Y76004*
X348289Y73504*
Y74754*
X355164*
X287770Y79070D02*
Y76570D01*
X295270*
Y75320*
X299020Y77820*
X295270Y80320*
Y79070*
X287770*
X117970Y72270D02*
X120470D01*
Y79770*
X121720*
X119220Y83520*
X116720Y79770*
X117970*
Y72270*
X178848Y83354D02*
X176348D01*
Y75854*
X175098*
X177598Y72104*
X180098Y75854*
X178848*
Y83354*
X39370Y533570D02*
X799170D01*
X39370D02*
X49370Y536070D01*
Y531070*
X39370Y533570*
X799170D02*
X789170Y531070D01*
Y536070*
X799170Y533570*
X402070Y541083D02*
X402525Y541395D01*
X403206Y542333*
X403206D02*
Y535770D01*
X408206Y540145D02*
X407979Y539208D01*
X407979D02*
X407525Y538583D01*
X407525D02*
X406843Y538270D01*
X406616*
X405934Y538583*
X405934D02*
X405479Y539208D01*
X405479D02*
X405252Y540145D01*
Y540458*
X405252D02*
X405479Y541395D01*
X405934Y542020*
X406616Y542333*
X406616D02*
X406843D01*
X406843D02*
X407525Y542020D01*
X407979Y541395*
X408206Y540145*
Y538583*
X408206D02*
X407979Y537020D01*
X407525Y536083*
X407525D02*
X406843Y535770D01*
X406388*
X405706Y536083*
X405706D02*
X405479Y536708D01*
X410706Y542333D02*
X413206D01*
X413206D02*
X411843Y539833D01*
X411843D02*
X412525D01*
X412525D02*
X412979Y539520D01*
X413206Y539208*
X413206D02*
X413434Y538270D01*
Y537645*
X413206Y536708*
X413206D02*
X412752Y536083D01*
X412752D02*
X412070Y535770D01*
X411388*
X410706Y536083*
X410706D02*
X410479Y536395D01*
X410252Y537020*
X415706Y536395D02*
X415479Y536083D01*
X415479D02*
X415706Y535770D01*
X415934Y536083*
X415934D02*
X415706Y536395D01*
X419343Y542333D02*
X418661Y542020D01*
X418206Y541083*
X418206D02*
X417979Y539520D01*
Y538583*
X417979D02*
X418206Y537020D01*
X418661Y536083*
X418661D02*
X419343Y535770D01*
X419797*
X420479Y536083*
X420479D02*
X420934Y537020D01*
X421161Y538583*
X421161D02*
Y539520D01*
X420934Y541083*
X420934D02*
X420479Y542020D01*
X419797Y542333*
X419797D02*
X419343D01*
X423206Y540145D02*
Y535770D01*
Y538895D02*
X423888Y539833D01*
X423888D02*
X424343Y540145D01*
X425025*
X425479Y539833*
X425479D02*
X425706Y538895D01*
Y535770*
Y538895D02*
X426388Y539833D01*
X426388D02*
X426843Y540145D01*
X427525*
X427979Y539833*
X427979D02*
X428206Y538895D01*
Y535770*
X430252Y540145D02*
Y535770D01*
Y538895D02*
X430934Y539833D01*
X430934D02*
X431388Y540145D01*
X432070*
X432525Y539833*
X432525D02*
X432752Y538895D01*
Y535770*
Y538895D02*
X433434Y539833D01*
X433434D02*
X433888Y540145D01*
X434570*
X435025Y539833*
X435025D02*
X435252Y538895D01*
Y535770*
X809170Y39370D02*
Y523570D01*
Y39370D02*
X806670Y49370D01*
X811670*
X809170Y39370*
Y523570D02*
X811670Y513570D01*
X806670*
X809170Y523570*
X813758Y273970D02*
X813445Y274425D01*
X812508Y275106*
X819070*
X814070Y277379D02*
X813758D01*
X813133Y277606*
X812820Y277834*
X812508Y278288*
Y279197*
X812820Y279652*
X813133Y279879*
X813758Y280106*
X814383*
X815008Y279879*
X815945Y279425*
X819070Y277152*
Y280334*
X812508Y282834D02*
Y285334D01*
X815008Y283970*
Y284652*
X815320Y285106*
X815633Y285334*
X816570Y285561*
X817195*
X818133Y285334*
X818758Y284879*
X819070Y284197*
Y283515*
X818758Y282834*
X818445Y282606*
X817820Y282379*
X818445Y287834D02*
X818758Y287606D01*
X819070Y287834*
X818758Y288061*
X818445Y287834*
X812508Y291470D02*
X812820Y290788D01*
X813758Y290334*
X815320Y290106*
X816258*
X817820Y290334*
X818758Y290788*
X819070Y291470*
Y291925*
X818758Y292606*
X817820Y293061*
X816258Y293288*
X815320*
X813758Y293061*
X812820Y292606*
X812508Y291925*
Y291470*
X814695Y295334D02*
X819070D01*
X815945D02*
X815008Y296015D01*
X814695Y296470*
Y297152*
X815008Y297606*
X815945Y297834*
X819070*
X815945D02*
X815008Y298515D01*
X814695Y298970*
Y299652*
X815008Y300106*
X815945Y300334*
X819070*
X814695Y302379D02*
X819070D01*
X815945D02*
X815008Y303061D01*
X814695Y303515*
Y304197*
X815008Y304652*
X815945Y304879*
X819070*
X815945D02*
X815008Y305561D01*
X814695Y306015*
Y306697*
X815008Y307152*
X815945Y307379*
X819070*
X44370Y375370D02*
X302370D01*
X44370Y351370D02*
X302370D01*
X44370Y327370D02*
X302370D01*
X44370Y303370D02*
X302370D01*
X44370Y279370D02*
X302370D01*
X44370Y255370D02*
X302370D01*
X44370Y231370D02*
X302370D01*
X44370Y207370D02*
X302370D01*
X44370Y183370D02*
X302370D01*
X44370Y159370D02*
X302370D01*
X44370Y135370D02*
X302370D01*
X44370Y111370D02*
X302370D01*
X44370Y87370D02*
X302370D01*
X44370Y63370D02*
X302370D01*
X44370Y39370D02*
X302370D01*
X44370Y375370D02*
Y39370D01*
X128370Y375370D02*
Y39370D01*
X164370Y375370D02*
Y39370D01*
X200370Y375370D02*
Y39370D01*
X254370Y375370D02*
Y39370D01*
X302370Y375370D02*
Y39370D01*
X79870Y364120D02*
X79325Y364870D01*
X78506Y365245*
X77416*
X76597Y364870*
X76052Y364120*
Y363370*
X76325Y362620*
X76597Y362245*
X77143Y361870*
X78779Y361120*
X79325Y360745*
X79597Y360370*
X79870Y359620*
Y358495*
X79325Y357745*
X78506Y357370*
X77416*
X76597Y357745*
X76052Y358495*
X82325Y365245D02*
Y357370D01*
X88597Y365245D02*
X84779Y357370D01*
Y365245D02*
X88597D01*
X84779Y357370D02*
X88597D01*
X91052Y365245D02*
Y357370D01*
Y365245D02*
X94597D01*
X91052Y361495D02*
X93234D01*
X91052Y357370D02*
X94597D01*
X138234Y365245D02*
X137688Y364870D01*
X137143Y364120*
X136870Y363370*
X136597Y362245*
Y360370*
X136870Y359245*
X137143Y358495*
X137688Y357745*
X138234Y357370*
X139325*
X139870Y357745*
X140416Y358495*
X140688Y359245*
X140961Y360370*
Y362245*
X140688Y363370*
X140416Y364120*
X139870Y364870*
X139325Y365245*
X138234*
X139052Y358870D02*
X140688Y356620D01*
X145325Y365245D02*
Y357370D01*
X143416Y365245D02*
X147234D01*
X149688D02*
X151870Y361495D01*
Y357370*
X154052Y365245D02*
X151870Y361495D01*
X176416Y364120D02*
X175870Y364870D01*
X175052Y365245*
X173961*
X173143Y364870*
X172597Y364120*
Y363370*
X172870Y362620*
X173143Y362245*
X173688Y361870*
X175325Y361120*
X175870Y360745*
X176143Y360370*
X176416Y359620*
Y358495*
X175870Y357745*
X175052Y357370*
X173961*
X173143Y357745*
X172597Y358495*
X178870Y365245D02*
X181052Y361495D01*
Y357370*
X183234Y365245D02*
X181052Y361495D01*
X185688Y365245D02*
Y357370D01*
Y365245D02*
X187870Y357370D01*
X190052Y365245D02*
X187870Y357370D01*
X190052Y365245D02*
Y357370D01*
X211870Y365245D02*
Y357370D01*
Y365245D02*
X214325D01*
X215143Y364870*
X215416Y364495*
X215688Y363745*
Y362620*
X215416Y361870*
X215143Y361495*
X214325Y361120*
X211870*
X218143Y365245D02*
Y357370D01*
X221416*
X226052Y365245D02*
X223870Y357370D01*
X226052Y365245D02*
X228234Y357370D01*
X224688Y359995D02*
X227416D01*
X232597Y365245D02*
Y357370D01*
X230688Y365245D02*
X234506D01*
X236961D02*
Y357370D01*
Y365245D02*
X240506D01*
X236961Y361495D02*
X239143D01*
X236961Y357370D02*
X240506D01*
X242961Y365245D02*
Y357370D01*
Y365245D02*
X244870D01*
X245688Y364870*
X246234Y364120*
X246506Y363370*
X246779Y362245*
Y360370*
X246506Y359245*
X246234Y358495*
X245688Y357745*
X244870Y357370*
X242961*
X271052Y365245D02*
Y357370D01*
X269143Y365245D02*
X272961D01*
X277052D02*
X276506Y364870D01*
X275961Y364120*
X275688Y363370*
X275416Y362245*
Y360370*
X275688Y359245*
X275961Y358495*
X276506Y357745*
X277052Y357370*
X278143*
X278688Y357745*
X279234Y358495*
X279506Y359245*
X279779Y360370*
Y362245*
X279506Y363370*
X279234Y364120*
X278688Y364870*
X278143Y365245*
X277052*
X282234D02*
Y357370D01*
X285506*
X50370Y339745D02*
X50916Y340120D01*
X51734Y341245*
Y333370*
X57734Y341245D02*
X55006D01*
X54734Y337870*
X55006Y338245*
X55825Y338620*
X56643*
X57461Y338245*
X58006Y337495*
X58279Y336370*
X58006Y335620*
X57734Y334495*
X57188Y333745*
X56370Y333370*
X55552*
X54734Y333745*
X54461Y334120*
X54188Y334870*
X61006Y334120D02*
X60734Y333745D01*
X61006Y333370*
X61279Y333745*
X61006Y334120*
X67552Y341245D02*
X64825Y333370D01*
X63734Y341245D02*
X67552D01*
X73552D02*
X70825D01*
X70552Y337870*
X70825Y338245*
X71643Y338620*
X72461*
X73279Y338245*
X73825Y337495*
X74097Y336370*
X73825Y335620*
X73552Y334495*
X73006Y333745*
X72188Y333370*
X71370*
X70552Y333745*
X70279Y334120*
X70006Y334870*
X137961Y341245D02*
X140961D01*
X139325Y338245*
X140143*
X140688Y337870*
X140961Y337495*
X141234Y336370*
Y335620*
X140961Y334495*
X140416Y333745*
X139597Y333370*
X138779*
X137961Y333745*
X137688Y334120*
X137416Y334870*
X146961Y340120D02*
X146688Y340870D01*
X145870Y341245*
X145325*
X144506Y340870*
X143961Y339745*
X143688Y337870*
Y335995*
X143961Y334495*
X144506Y333745*
X145325Y333370*
X145597*
X146416Y333745*
X146961Y334495*
X147234Y335620*
Y335995*
X146961Y337120*
X146416Y337870*
X145597Y338245*
X145325*
X144506Y337870*
X143961Y337120*
X143688Y335995*
X153234Y338620D02*
X152961Y337495D01*
X152416Y336745*
X151597Y336370*
X151325*
X150506Y336745*
X149961Y337495*
X149688Y338620*
Y338995*
X149961Y340120*
X150506Y340870*
X151325Y341245*
X151597*
X152416Y340870*
X152961Y340120*
X153234Y338620*
Y336745*
X152961Y334870*
X152416Y333745*
X151597Y333370*
X151052*
X150234Y333745*
X149961Y334495*
X176370Y339370D02*
X188370D01*
X182370Y333370D02*
Y345370D01*
X209006Y341245D02*
X211188Y337495D01*
Y333370*
X213370Y341245D02*
X211188Y337495D01*
X215825Y341245D02*
Y333370D01*
Y341245D02*
X219370D01*
X215825Y337495D02*
X218006D01*
X215825Y333370D02*
X219370D01*
X225643Y340120D02*
X225097Y340870D01*
X224279Y341245*
X223188*
X222370Y340870*
X221825Y340120*
Y339370*
X222097Y338620*
X222370Y338245*
X222916Y337870*
X224552Y337120*
X225097Y336745*
X225370Y336370*
X225643Y335620*
Y334495*
X225097Y333745*
X224279Y333370*
X223188*
X222370Y333745*
X221825Y334495*
X262188Y340120D02*
Y333370D01*
X259734Y336745D02*
X264643D01*
X272006Y342745D02*
X267097Y330745D01*
X274461Y336745D02*
X279370D01*
X283461Y341245D02*
X282643Y340870D01*
X282097Y339745*
X281825Y337870*
Y336745*
X282097Y334870*
X282643Y333745*
X283461Y333370*
X284006*
X284825Y333745*
X285370Y334870*
X285643Y336745*
Y337870*
X285370Y339745*
X284825Y340870*
X284006Y341245*
X283461*
X288370Y334120D02*
X288097Y333745D01*
X288370Y333370*
X288643Y333745*
X288370Y334120*
X292734Y341245D02*
X291916Y340870D01*
X291370Y339745*
X291097Y337870*
Y336745*
X291370Y334870*
X291916Y333745*
X292734Y333370*
X293279*
X294097Y333745*
X294643Y334870*
X294916Y336745*
Y337870*
X294643Y339745*
X294097Y340870*
X293279Y341245*
X292734*
X50370Y315745D02*
X50916Y316120D01*
X51734Y317245*
Y309370*
X54461Y315370D02*
Y315745D01*
X54734Y316495*
X55006Y316870*
X55552Y317245*
X56643*
X57188Y316870*
X57461Y316495*
X57734Y315745*
Y314995*
X57461Y314245*
X56916Y313120*
X54188Y309370*
X58006*
X64006Y317245D02*
X61279D01*
X61006Y313870*
X61279Y314245*
X62097Y314620*
X62916*
X63734Y314245*
X64279Y313495*
X64552Y312370*
X64279Y311620*
X64006Y310495*
X63461Y309745*
X62643Y309370*
X61825*
X61006Y309745*
X60734Y310120*
X60461Y310870*
X67279Y310120D02*
X67006Y309745D01*
X67279Y309370*
X67552Y309745*
X67279Y310120*
X73552Y314620D02*
X73279Y313495D01*
X72734Y312745*
X71916Y312370*
X71643*
X70825Y312745*
X70279Y313495*
X70006Y314620*
Y314995*
X70279Y316120*
X70825Y316870*
X71643Y317245*
X71916*
X72734Y316870*
X73279Y316120*
X73552Y314620*
Y312745*
X73279Y310870*
X72734Y309745*
X71916Y309370*
X71370*
X70552Y309745*
X70279Y310495*
X77370Y317245D02*
X76552Y316870D01*
X76279Y316120*
Y315370*
X76552Y314620*
X77097Y314245*
X78188Y313870*
X79006Y313495*
X79552Y312745*
X79825Y311995*
Y310870*
X79552Y310120*
X79279Y309745*
X78461Y309370*
X77370*
X76552Y309745*
X76279Y310120*
X76006Y310870*
Y311995*
X76279Y312745*
X76825Y313495*
X77643Y313870*
X78734Y314245*
X79279Y314620*
X79552Y315370*
Y316120*
X79279Y316870*
X78461Y317245*
X77370*
X146825Y316120D02*
X146552Y316870D01*
X145734Y317245*
X145188*
X144370Y316870*
X143825Y315745*
X143552Y313870*
Y311995*
X143825Y310495*
X144370Y309745*
X145188Y309370*
X145461*
X146279Y309745*
X146825Y310495*
X147097Y311620*
Y311995*
X146825Y313120*
X146279Y313870*
X145461Y314245*
X145188*
X144370Y313870*
X143825Y313120*
X143552Y311995*
X176370Y309370D02*
X188370Y321370D01*
X176370D02*
X188370Y309370D01*
X209006Y317245D02*
X211188Y313495D01*
Y309370*
X213370Y317245D02*
X211188Y313495D01*
X215825Y317245D02*
Y309370D01*
Y317245D02*
X219370D01*
X215825Y313495D02*
X218006D01*
X215825Y309370D02*
X219370D01*
X225643Y316120D02*
X225097Y316870D01*
X224279Y317245*
X223188*
X222370Y316870*
X221825Y316120*
Y315370*
X222097Y314620*
X222370Y314245*
X222916Y313870*
X224552Y313120*
X225097Y312745*
X225370Y312370*
X225643Y311620*
Y310495*
X225097Y309745*
X224279Y309370*
X223188*
X222370Y309745*
X221825Y310495*
X262188Y316120D02*
Y309370D01*
X259734Y312745D02*
X264643D01*
X272006Y318745D02*
X267097Y306745D01*
X274461Y312745D02*
X279370D01*
X283461Y317245D02*
X282643Y316870D01*
X282097Y315745*
X281825Y313870*
Y312745*
X282097Y310870*
X282643Y309745*
X283461Y309370*
X284006*
X284825Y309745*
X285370Y310870*
X285643Y312745*
Y313870*
X285370Y315745*
X284825Y316870*
X284006Y317245*
X283461*
X288370Y310120D02*
X288097Y309745D01*
X288370Y309370*
X288643Y309745*
X288370Y310120*
X292734Y317245D02*
X291916Y316870D01*
X291370Y315745*
X291097Y313870*
Y312745*
X291370Y310870*
X291916Y309745*
X292734Y309370*
X293279*
X294097Y309745*
X294643Y310870*
X294916Y312745*
Y313870*
X294643Y315745*
X294097Y316870*
X293279Y317245*
X292734*
X53097Y293245D02*
X50370Y287995D01*
X54461*
X53097Y293245D02*
Y285370D01*
X60734Y293245D02*
X58006Y285370D01*
X56916Y293245D02*
X60734D01*
X142870D02*
X140143Y287995D01*
X144234*
X142870Y293245D02*
Y285370D01*
X148052Y293245D02*
X147234Y292870D01*
X146961Y292120*
Y291370*
X147234Y290620*
X147779Y290245*
X148870Y289870*
X149688Y289495*
X150234Y288745*
X150506Y287995*
Y286870*
X150234Y286120*
X149961Y285745*
X149143Y285370*
X148052*
X147234Y285745*
X146961Y286120*
X146688Y286870*
Y287995*
X146961Y288745*
X147506Y289495*
X148325Y289870*
X149416Y290245*
X149961Y290620*
X150234Y291370*
Y292120*
X149961Y292870*
X149143Y293245*
X148052*
X176370Y285370D02*
X188370D01*
Y297370*
X176370*
Y285370*
X182370Y291370D02*
Y297370D01*
X209006Y293245D02*
X211188Y289495D01*
Y285370*
X213370Y293245D02*
X211188Y289495D01*
X215825Y293245D02*
Y285370D01*
Y293245D02*
X219370D01*
X215825Y289495D02*
X218006D01*
X215825Y285370D02*
X219370D01*
X225643Y292120D02*
X225097Y292870D01*
X224279Y293245*
X223188*
X222370Y292870*
X221825Y292120*
Y291370*
X222097Y290620*
X222370Y290245*
X222916Y289870*
X224552Y289120*
X225097Y288745*
X225370Y288370*
X225643Y287620*
Y286495*
X225097Y285745*
X224279Y285370*
X223188*
X222370Y285745*
X221825Y286495*
X262188Y292120D02*
Y285370D01*
X259734Y288745D02*
X264643D01*
X272006Y294745D02*
X267097Y282745D01*
X274461Y288745D02*
X279370D01*
X283461Y293245D02*
X282643Y292870D01*
X282097Y291745*
X281825Y289870*
Y288745*
X282097Y286870*
X282643Y285745*
X283461Y285370*
X284006*
X284825Y285745*
X285370Y286870*
X285643Y288745*
Y289870*
X285370Y291745*
X284825Y292870*
X284006Y293245*
X283461*
X288370Y286120D02*
X288097Y285745D01*
X288370Y285370*
X288643Y285745*
X288370Y286120*
X292734Y293245D02*
X291916Y292870D01*
X291370Y291745*
X291097Y289870*
Y288745*
X291370Y286870*
X291916Y285745*
X292734Y285370*
X293279*
X294097Y285745*
X294643Y286870*
X294916Y288745*
Y289870*
X294643Y291745*
X294097Y292870*
X293279Y293245*
X292734*
X50916Y269245D02*
X53916D01*
X52279Y266245*
X53097*
X53643Y265870*
X53916Y265495*
X54188Y264370*
Y263620*
X53916Y262495*
X53370Y261745*
X52552Y261370*
X51734*
X50916Y261745*
X50643Y262120*
X50370Y262870*
X60188Y269245D02*
X57461D01*
X57188Y265870*
X57461Y266245*
X58279Y266620*
X59097*
X59916Y266245*
X60461Y265495*
X60734Y264370*
X60461Y263620*
X60188Y262495*
X59643Y261745*
X58825Y261370*
X58006*
X57188Y261745*
X56916Y262120*
X56643Y262870*
X63461Y262120D02*
X63188Y261745D01*
X63461Y261370*
X63734Y261745*
X63461Y262120*
X68916Y269245D02*
X66188Y263995D01*
X70279*
X68916Y269245D02*
Y261370D01*
X73279Y269245D02*
X76279D01*
X74643Y266245*
X75461*
X76006Y265870*
X76279Y265495*
X76552Y264370*
Y263620*
X76279Y262495*
X75734Y261745*
X74916Y261370*
X74097*
X73279Y261745*
X73006Y262120*
X72734Y262870*
X141779Y267370D02*
Y267745D01*
X142052Y268495*
X142325Y268870*
X142870Y269245*
X143961*
X144506Y268870*
X144779Y268495*
X145052Y267745*
Y266995*
X144779Y266245*
X144234Y265120*
X141506Y261370*
X145325*
X147779Y267745D02*
X148325Y268120D01*
X149143Y269245*
Y261370*
X182370D02*
X188370Y267370D01*
X182370Y273370*
X176370Y267370*
X182370Y261370*
Y267370D02*
Y273370D01*
X209006Y269245D02*
X211188Y265495D01*
Y261370*
X213370Y269245D02*
X211188Y265495D01*
X215825Y269245D02*
Y261370D01*
Y269245D02*
X219370D01*
X215825Y265495D02*
X218006D01*
X215825Y261370D02*
X219370D01*
X225643Y268120D02*
X225097Y268870D01*
X224279Y269245*
X223188*
X222370Y268870*
X221825Y268120*
Y267370*
X222097Y266620*
X222370Y266245*
X222916Y265870*
X224552Y265120*
X225097Y264745*
X225370Y264370*
X225643Y263620*
Y262495*
X225097Y261745*
X224279Y261370*
X223188*
X222370Y261745*
X221825Y262495*
X262188Y268120D02*
Y261370D01*
X259734Y264745D02*
X264643D01*
X272006Y270745D02*
X267097Y258745D01*
X274461Y264745D02*
X279370D01*
X283461Y269245D02*
X282643Y268870D01*
X282097Y267745*
X281825Y265870*
Y264745*
X282097Y262870*
X282643Y261745*
X283461Y261370*
X284006*
X284825Y261745*
X285370Y262870*
X285643Y264745*
Y265870*
X285370Y267745*
X284825Y268870*
X284006Y269245*
X283461*
X288370Y262120D02*
X288097Y261745D01*
X288370Y261370*
X288643Y261745*
X288370Y262120*
X292734Y269245D02*
X291916Y268870D01*
X291370Y267745*
X291097Y265870*
Y264745*
X291370Y262870*
X291916Y261745*
X292734Y261370*
X293279*
X294097Y261745*
X294643Y262870*
X294916Y264745*
Y265870*
X294643Y267745*
X294097Y268870*
X293279Y269245*
X292734*
X50916Y245245D02*
X53916D01*
X52279Y242245*
X53097*
X53643Y241870*
X53916Y241495*
X54188Y240370*
Y239620*
X53916Y238495*
X53370Y237745*
X52552Y237370*
X51734*
X50916Y237745*
X50643Y238120*
X50370Y238870*
X60188Y242620D02*
X59916Y241495D01*
X59370Y240745*
X58552Y240370*
X58279*
X57461Y240745*
X56916Y241495*
X56643Y242620*
Y242995*
X56916Y244120*
X57461Y244870*
X58279Y245245*
X58552*
X59370Y244870*
X59916Y244120*
X60188Y242620*
Y240745*
X59916Y238870*
X59370Y237745*
X58552Y237370*
X58006*
X57188Y237745*
X56916Y238495*
X62916Y238120D02*
X62643Y237745D01*
X62916Y237370*
X63188Y237745*
X62916Y238120*
X66188Y245245D02*
X69188D01*
X67552Y242245*
X68370*
X68916Y241870*
X69188Y241495*
X69461Y240370*
Y239620*
X69188Y238495*
X68643Y237745*
X67825Y237370*
X67006*
X66188Y237745*
X65916Y238120*
X65643Y238870*
X75734Y245245D02*
X73006Y237370D01*
X71916Y245245D02*
X75734D01*
X146825D02*
X144097D01*
X143825Y241870*
X144097Y242245*
X144916Y242620*
X145734*
X146552Y242245*
X147097Y241495*
X147370Y240370*
X147097Y239620*
X146825Y238495*
X146279Y237745*
X145461Y237370*
X144643*
X143825Y237745*
X143552Y238120*
X143279Y238870*
X176370Y237370D02*
X188370D01*
X176370Y249370*
X188370*
X176370Y237370*
X209006Y245245D02*
X211188Y241495D01*
Y237370*
X213370Y245245D02*
X211188Y241495D01*
X215825Y245245D02*
Y237370D01*
Y245245D02*
X219370D01*
X215825Y241495D02*
X218006D01*
X215825Y237370D02*
X219370D01*
X225643Y244120D02*
X225097Y244870D01*
X224279Y245245*
X223188*
X222370Y244870*
X221825Y244120*
Y243370*
X222097Y242620*
X222370Y242245*
X222916Y241870*
X224552Y241120*
X225097Y240745*
X225370Y240370*
X225643Y239620*
Y238495*
X225097Y237745*
X224279Y237370*
X223188*
X222370Y237745*
X221825Y238495*
X262188Y244120D02*
Y237370D01*
X259734Y240745D02*
X264643D01*
X272006Y246745D02*
X267097Y234745D01*
X274461Y240745D02*
X279370D01*
X283461Y245245D02*
X282643Y244870D01*
X282097Y243745*
X281825Y241870*
Y240745*
X282097Y238870*
X282643Y237745*
X283461Y237370*
X284006*
X284825Y237745*
X285370Y238870*
X285643Y240745*
Y241870*
X285370Y243745*
X284825Y244870*
X284006Y245245*
X283461*
X288370Y238120D02*
X288097Y237745D01*
X288370Y237370*
X288643Y237745*
X288370Y238120*
X292734Y245245D02*
X291916Y244870D01*
X291370Y243745*
X291097Y241870*
Y240745*
X291370Y238870*
X291916Y237745*
X292734Y237370*
X293279*
X294097Y237745*
X294643Y238870*
X294916Y240745*
Y241870*
X294643Y243745*
X294097Y244870*
X293279Y245245*
X292734*
X53097Y221245D02*
X50370Y215995D01*
X54461*
X53097Y221245D02*
Y213370D01*
X60461Y218620D02*
X60188Y217495D01*
X59643Y216745*
X58825Y216370*
X58552*
X57734Y216745*
X57188Y217495*
X56916Y218620*
Y218995*
X57188Y220120*
X57734Y220870*
X58552Y221245*
X58825*
X59643Y220870*
X60188Y220120*
X60461Y218620*
Y216745*
X60188Y214870*
X59643Y213745*
X58825Y213370*
X58279*
X57461Y213745*
X57188Y214495*
X63188Y214120D02*
X62916Y213745D01*
X63188Y213370*
X63461Y213745*
X63188Y214120*
X66188Y219370D02*
Y219745D01*
X66461Y220495*
X66734Y220870*
X67279Y221245*
X68370*
X68916Y220870*
X69188Y220495*
X69461Y219745*
Y218995*
X69188Y218245*
X68643Y217120*
X65916Y213370*
X69734*
X72188Y219745D02*
X72734Y220120D01*
X73552Y221245*
Y213370*
X143688Y219370D02*
Y219745D01*
X143961Y220495*
X144234Y220870*
X144779Y221245*
X145870*
X146416Y220870*
X146688Y220495*
X146961Y219745*
Y218995*
X146688Y218245*
X146143Y217120*
X143416Y213370*
X147234*
X176370D02*
X188370Y225370D01*
Y213370*
X176370Y225370*
Y213370*
X209006Y221245D02*
X211188Y217495D01*
Y213370*
X213370Y221245D02*
X211188Y217495D01*
X215825Y221245D02*
Y213370D01*
Y221245D02*
X219370D01*
X215825Y217495D02*
X218006D01*
X215825Y213370D02*
X219370D01*
X225643Y220120D02*
X225097Y220870D01*
X224279Y221245*
X223188*
X222370Y220870*
X221825Y220120*
Y219370*
X222097Y218620*
X222370Y218245*
X222916Y217870*
X224552Y217120*
X225097Y216745*
X225370Y216370*
X225643Y215620*
Y214495*
X225097Y213745*
X224279Y213370*
X223188*
X222370Y213745*
X221825Y214495*
X262188Y220120D02*
Y213370D01*
X259734Y216745D02*
X264643D01*
X272006Y222745D02*
X267097Y210745D01*
X274461Y216745D02*
X279370D01*
X283461Y221245D02*
X282643Y220870D01*
X282097Y219745*
X281825Y217870*
Y216745*
X282097Y214870*
X282643Y213745*
X283461Y213370*
X284006*
X284825Y213745*
X285370Y214870*
X285643Y216745*
Y217870*
X285370Y219745*
X284825Y220870*
X284006Y221245*
X283461*
X288370Y214120D02*
X288097Y213745D01*
X288370Y213370*
X288643Y213745*
X288370Y214120*
X292734Y221245D02*
X291916Y220870D01*
X291370Y219745*
X291097Y217870*
Y216745*
X291370Y214870*
X291916Y213745*
X292734Y213370*
X293279*
X294097Y213745*
X294643Y214870*
X294916Y216745*
Y217870*
X294643Y219745*
X294097Y220870*
X293279Y221245*
X292734*
X50370Y195745D02*
X50916Y196120D01*
X51734Y197245*
Y189370*
X55825Y197245D02*
X55006Y196870D01*
X54461Y195745*
X54188Y193870*
Y192745*
X54461Y190870*
X55006Y189745*
X55825Y189370*
X56370*
X57188Y189745*
X57734Y190870*
X58006Y192745*
Y193870*
X57734Y195745*
X57188Y196870*
X56370Y197245*
X55825*
X62097D02*
X61279Y196870D01*
X60734Y195745*
X60461Y193870*
Y192745*
X60734Y190870*
X61279Y189745*
X62097Y189370*
X62643*
X63461Y189745*
X64006Y190870*
X64279Y192745*
Y193870*
X64006Y195745*
X63461Y196870*
X62643Y197245*
X62097*
X146006D02*
X143279Y191995D01*
X147370*
X146006Y197245D02*
Y189370D01*
X176370Y195370D02*
X188370D01*
X182370Y189370D02*
Y201370D01*
X187116Y204670D02*
X185370Y198370D01*
X187116Y204670D02*
X188861Y198370D01*
X186025Y200470D02*
X188206D01*
X209006Y197245D02*
X211188Y193495D01*
Y189370*
X213370Y197245D02*
X211188Y193495D01*
X215825Y197245D02*
Y189370D01*
Y197245D02*
X219370D01*
X215825Y193495D02*
X218006D01*
X215825Y189370D02*
X219370D01*
X225643Y196120D02*
X225097Y196870D01*
X224279Y197245*
X223188*
X222370Y196870*
X221825Y196120*
Y195370*
X222097Y194620*
X222370Y194245*
X222916Y193870*
X224552Y193120*
X225097Y192745*
X225370Y192370*
X225643Y191620*
Y190495*
X225097Y189745*
X224279Y189370*
X223188*
X222370Y189745*
X221825Y190495*
X262188Y196120D02*
Y189370D01*
X259734Y192745D02*
X264643D01*
X272006Y198745D02*
X267097Y186745D01*
X274461Y192745D02*
X279370D01*
X283461Y197245D02*
X282643Y196870D01*
X282097Y195745*
X281825Y193870*
Y192745*
X282097Y190870*
X282643Y189745*
X283461Y189370*
X284006*
X284825Y189745*
X285370Y190870*
X285643Y192745*
Y193870*
X285370Y195745*
X284825Y196870*
X284006Y197245*
X283461*
X288370Y190120D02*
X288097Y189745D01*
X288370Y189370*
X288643Y189745*
X288370Y190120*
X292734Y197245D02*
X291916Y196870D01*
X291370Y195745*
X291097Y193870*
Y192745*
X291370Y190870*
X291916Y189745*
X292734Y189370*
X293279*
X294097Y189745*
X294643Y190870*
X294916Y192745*
Y193870*
X294643Y195745*
X294097Y196870*
X293279Y197245*
X292734*
X50916Y173245D02*
X53916D01*
X52279Y170245*
X53097*
X53643Y169870*
X53916Y169495*
X54188Y168370*
Y167620*
X53916Y166495*
X53370Y165745*
X52552Y165370*
X51734*
X50916Y165745*
X50643Y166120*
X50370Y166870*
X60461Y173245D02*
X57734Y165370D01*
X56643Y173245D02*
X60461D01*
X140825D02*
X143825D01*
X142188Y170245*
X143006*
X143552Y169870*
X143825Y169495*
X144097Y168370*
Y167620*
X143825Y166495*
X143279Y165745*
X142461Y165370*
X141643*
X140825Y165745*
X140552Y166120*
X140279Y166870*
X146825Y171370D02*
Y171745D01*
X147097Y172495*
X147370Y172870*
X147916Y173245*
X149006*
X149552Y172870*
X149825Y172495*
X150097Y171745*
Y170995*
X149825Y170245*
X149279Y169120*
X146552Y165370*
X150370*
X176370Y171370D02*
X188370D01*
X182370Y165370D02*
Y177370D01*
X185370Y180670D02*
Y174370D01*
Y180670D02*
X187334D01*
X187988Y180370*
X188206Y180070*
X188425Y179470*
Y178870*
X188206Y178270*
X187988Y177970*
X187334Y177670*
X185370D02*
X187334D01*
X187988Y177370*
X188206Y177070*
X188425Y176470*
Y175570*
X188206Y174970*
X187988Y174670*
X187334Y174370*
X185370*
X209006Y173245D02*
X211188Y169495D01*
Y165370*
X213370Y173245D02*
X211188Y169495D01*
X215825Y173245D02*
Y165370D01*
Y173245D02*
X219370D01*
X215825Y169495D02*
X218006D01*
X215825Y165370D02*
X219370D01*
X225643Y172120D02*
X225097Y172870D01*
X224279Y173245*
X223188*
X222370Y172870*
X221825Y172120*
Y171370*
X222097Y170620*
X222370Y170245*
X222916Y169870*
X224552Y169120*
X225097Y168745*
X225370Y168370*
X225643Y167620*
Y166495*
X225097Y165745*
X224279Y165370*
X223188*
X222370Y165745*
X221825Y166495*
X262188Y172120D02*
Y165370D01*
X259734Y168745D02*
X264643D01*
X272006Y174745D02*
X267097Y162745D01*
X274461Y168745D02*
X279370D01*
X283461Y173245D02*
X282643Y172870D01*
X282097Y171745*
X281825Y169870*
Y168745*
X282097Y166870*
X282643Y165745*
X283461Y165370*
X284006*
X284825Y165745*
X285370Y166870*
X285643Y168745*
Y169870*
X285370Y171745*
X284825Y172870*
X284006Y173245*
X283461*
X288370Y166120D02*
X288097Y165745D01*
X288370Y165370*
X288643Y165745*
X288370Y166120*
X292734Y173245D02*
X291916Y172870D01*
X291370Y171745*
X291097Y169870*
Y168745*
X291370Y166870*
X291916Y165745*
X292734Y165370*
X293279*
X294097Y165745*
X294643Y166870*
X294916Y168745*
Y169870*
X294643Y171745*
X294097Y172870*
X293279Y173245*
X292734*
X50643Y147370D02*
Y147745D01*
X50916Y148495*
X51188Y148870*
X51734Y149245*
X52825*
X53370Y148870*
X53643Y148495*
X53916Y147745*
Y146995*
X53643Y146245*
X53097Y145120*
X50370Y141370*
X54188*
X60461Y149245D02*
X57734Y141370D01*
X56643Y149245D02*
X60461D01*
X143688Y147370D02*
Y147745D01*
X143961Y148495*
X144234Y148870*
X144779Y149245*
X145870*
X146416Y148870*
X146688Y148495*
X146961Y147745*
Y146995*
X146688Y146245*
X146143Y145120*
X143416Y141370*
X147234*
X176370Y147370D02*
X188370D01*
X182370Y141370D02*
Y153370D01*
X188643Y155170D02*
X188425Y155770D01*
X187988Y156370*
X187552Y156670*
X186679*
X186243Y156370*
X185806Y155770*
X185588Y155170*
X185370Y154270*
Y152770*
X185588Y151870*
X185806Y151270*
X186243Y150670*
X186679Y150370*
X187552*
X187988Y150670*
X188425Y151270*
X188643Y151870*
X209006Y149245D02*
X211188Y145495D01*
Y141370*
X213370Y149245D02*
X211188Y145495D01*
X215825Y149245D02*
Y141370D01*
Y149245D02*
X219370D01*
X215825Y145495D02*
X218006D01*
X215825Y141370D02*
X219370D01*
X225643Y148120D02*
X225097Y148870D01*
X224279Y149245*
X223188*
X222370Y148870*
X221825Y148120*
Y147370*
X222097Y146620*
X222370Y146245*
X222916Y145870*
X224552Y145120*
X225097Y144745*
X225370Y144370*
X225643Y143620*
Y142495*
X225097Y141745*
X224279Y141370*
X223188*
X222370Y141745*
X221825Y142495*
X262188Y148120D02*
Y141370D01*
X259734Y144745D02*
X264643D01*
X272006Y150745D02*
X267097Y138745D01*
X274461Y144745D02*
X279370D01*
X283461Y149245D02*
X282643Y148870D01*
X282097Y147745*
X281825Y145870*
Y144745*
X282097Y142870*
X282643Y141745*
X283461Y141370*
X284006*
X284825Y141745*
X285370Y142870*
X285643Y144745*
Y145870*
X285370Y147745*
X284825Y148870*
X284006Y149245*
X283461*
X288370Y142120D02*
X288097Y141745D01*
X288370Y141370*
X288643Y141745*
X288370Y142120*
X292734Y149245D02*
X291916Y148870D01*
X291370Y147745*
X291097Y145870*
Y144745*
X291370Y142870*
X291916Y141745*
X292734Y141370*
X293279*
X294097Y141745*
X294643Y142870*
X294916Y144745*
Y145870*
X294643Y147745*
X294097Y148870*
X293279Y149245*
X292734*
X50370Y123745D02*
X50916Y124120D01*
X51734Y125245*
Y117370*
X57734Y125245D02*
X55006D01*
X54734Y121870*
X55006Y122245*
X55825Y122620*
X56643*
X57461Y122245*
X58006Y121495*
X58279Y120370*
X58006Y119620*
X57734Y118495*
X57188Y117745*
X56370Y117370*
X55552*
X54734Y117745*
X54461Y118120*
X54188Y118870*
X140416Y123370D02*
Y123745D01*
X140688Y124495*
X140961Y124870*
X141506Y125245*
X142597*
X143143Y124870*
X143416Y124495*
X143688Y123745*
Y122995*
X143416Y122245*
X142870Y121120*
X140143Y117370*
X143961*
X149143Y125245D02*
X146416Y119995D01*
X150506*
X149143Y125245D02*
Y117370D01*
X176370Y123370D02*
X188370D01*
X182370Y117370D02*
Y129370D01*
X185370Y132670D02*
Y126370D01*
Y132670D02*
X186897D01*
X187552Y132370*
X187988Y131770*
X188206Y131170*
X188425Y130270*
Y128770*
X188206Y127870*
X187988Y127270*
X187552Y126670*
X186897Y126370*
X185370*
X209006Y125245D02*
X211188Y121495D01*
Y117370*
X213370Y125245D02*
X211188Y121495D01*
X215825Y125245D02*
Y117370D01*
Y125245D02*
X219370D01*
X215825Y121495D02*
X218006D01*
X215825Y117370D02*
X219370D01*
X225643Y124120D02*
X225097Y124870D01*
X224279Y125245*
X223188*
X222370Y124870*
X221825Y124120*
Y123370*
X222097Y122620*
X222370Y122245*
X222916Y121870*
X224552Y121120*
X225097Y120745*
X225370Y120370*
X225643Y119620*
Y118495*
X225097Y117745*
X224279Y117370*
X223188*
X222370Y117745*
X221825Y118495*
X262188Y124120D02*
Y117370D01*
X259734Y120745D02*
X264643D01*
X272006Y126745D02*
X267097Y114745D01*
X274461Y120745D02*
X279370D01*
X283461Y125245D02*
X282643Y124870D01*
X282097Y123745*
X281825Y121870*
Y120745*
X282097Y118870*
X282643Y117745*
X283461Y117370*
X284006*
X284825Y117745*
X285370Y118870*
X285643Y120745*
Y121870*
X285370Y123745*
X284825Y124870*
X284006Y125245*
X283461*
X288370Y118120D02*
X288097Y117745D01*
X288370Y117370*
X288643Y117745*
X288370Y118120*
X292734Y125245D02*
X291916Y124870D01*
X291370Y123745*
X291097Y121870*
Y120745*
X291370Y118870*
X291916Y117745*
X292734Y117370*
X293279*
X294097Y117745*
X294643Y118870*
X294916Y120745*
Y121870*
X294643Y123745*
X294097Y124870*
X293279Y125245*
X292734*
X53097Y101245D02*
X50370Y95995D01*
X54461*
X53097Y101245D02*
Y93370D01*
X60734Y101245D02*
X58006Y93370D01*
X56916Y101245D02*
X60734D01*
X63461Y94120D02*
X63188Y93745D01*
X63461Y93370*
X63734Y93745*
X63461Y94120*
X66461Y99370D02*
Y99745D01*
X66734Y100495*
X67006Y100870*
X67552Y101245*
X68643*
X69188Y100870*
X69461Y100495*
X69734Y99745*
Y98995*
X69461Y98245*
X68916Y97120*
X66188Y93370*
X70006*
X75188Y101245D02*
X72461Y95995D01*
X76552*
X75188Y101245D02*
Y93370D01*
X147234Y101245D02*
X144506Y93370D01*
X143416Y101245D02*
X147234D01*
X176370Y99370D02*
X188370D01*
X182370Y93370D02*
Y105370D01*
X185370Y108670D02*
Y102370D01*
Y108670D02*
X188206D01*
X185370Y105670D02*
X187116D01*
X185370Y102370D02*
X188206D01*
X209006Y101245D02*
X211188Y97495D01*
Y93370*
X213370Y101245D02*
X211188Y97495D01*
X215825Y101245D02*
Y93370D01*
Y101245D02*
X219370D01*
X215825Y97495D02*
X218006D01*
X215825Y93370D02*
X219370D01*
X225643Y100120D02*
X225097Y100870D01*
X224279Y101245*
X223188*
X222370Y100870*
X221825Y100120*
Y99370*
X222097Y98620*
X222370Y98245*
X222916Y97870*
X224552Y97120*
X225097Y96745*
X225370Y96370*
X225643Y95620*
Y94495*
X225097Y93745*
X224279Y93370*
X223188*
X222370Y93745*
X221825Y94495*
X262188Y100120D02*
Y93370D01*
X259734Y96745D02*
X264643D01*
X272006Y102745D02*
X267097Y90745D01*
X274461Y96745D02*
X279370D01*
X283461Y101245D02*
X282643Y100870D01*
X282097Y99745*
X281825Y97870*
Y96745*
X282097Y94870*
X282643Y93745*
X283461Y93370*
X284006*
X284825Y93745*
X285370Y94870*
X285643Y96745*
Y97870*
X285370Y99745*
X284825Y100870*
X284006Y101245*
X283461*
X288370Y94120D02*
X288097Y93745D01*
X288370Y93370*
X288643Y93745*
X288370Y94120*
X292734Y101245D02*
X291916Y100870D01*
X291370Y99745*
X291097Y97870*
Y96745*
X291370Y94870*
X291916Y93745*
X292734Y93370*
X293279*
X294097Y93745*
X294643Y94870*
X294916Y96745*
Y97870*
X294643Y99745*
X294097Y100870*
X293279Y101245*
X292734*
X50916Y77245D02*
X53916D01*
X52279Y74245*
X53097*
X53643Y73870*
X53916Y73495*
X54188Y72370*
Y71620*
X53916Y70495*
X53370Y69745*
X52552Y69370*
X51734*
X50916Y69745*
X50643Y70120*
X50370Y70870*
X56643Y75745D02*
X57188Y76120D01*
X58006Y77245*
Y69370*
X60734Y70120D02*
X60461Y69745D01*
X60734Y69370*
X61006Y69745*
X60734Y70120*
X67006Y77245D02*
X64279D01*
X64006Y73870*
X64279Y74245*
X65097Y74620*
X65916*
X66734Y74245*
X67279Y73495*
X67552Y72370*
X67279Y71620*
X67006Y70495*
X66461Y69745*
X65643Y69370*
X64825*
X64006Y69745*
X63734Y70120*
X63461Y70870*
X143688Y75370D02*
Y75745D01*
X143961Y76495*
X144234Y76870*
X144779Y77245*
X145870*
X146416Y76870*
X146688Y76495*
X146961Y75745*
Y74995*
X146688Y74245*
X146143Y73120*
X143416Y69370*
X147234*
X176370Y75370D02*
X188370D01*
X182370Y69370D02*
Y81370D01*
X185370Y84670D02*
Y78370D01*
Y84670D02*
X188206D01*
X185370Y81670D02*
X187116D01*
X209006Y77245D02*
X211188Y73495D01*
Y69370*
X213370Y77245D02*
X211188Y73495D01*
X215825Y77245D02*
Y69370D01*
Y77245D02*
X219370D01*
X215825Y73495D02*
X218006D01*
X215825Y69370D02*
X219370D01*
X225643Y76120D02*
X225097Y76870D01*
X224279Y77245*
X223188*
X222370Y76870*
X221825Y76120*
Y75370*
X222097Y74620*
X222370Y74245*
X222916Y73870*
X224552Y73120*
X225097Y72745*
X225370Y72370*
X225643Y71620*
Y70495*
X225097Y69745*
X224279Y69370*
X223188*
X222370Y69745*
X221825Y70495*
X262188Y76120D02*
Y69370D01*
X259734Y72745D02*
X264643D01*
X272006Y78745D02*
X267097Y66745D01*
X274461Y72745D02*
X279370D01*
X283461Y77245D02*
X282643Y76870D01*
X282097Y75745*
X281825Y73870*
Y72745*
X282097Y70870*
X282643Y69745*
X283461Y69370*
X284006*
X284825Y69745*
X285370Y70870*
X285643Y72745*
Y73870*
X285370Y75745*
X284825Y76870*
X284006Y77245*
X283461*
X288370Y70120D02*
X288097Y69745D01*
X288370Y69370*
X288643Y69745*
X288370Y70120*
X292734Y77245D02*
X291916Y76870D01*
X291370Y75745*
X291097Y73870*
Y72745*
X291370Y70870*
X291916Y69745*
X292734Y69370*
X293279*
X294097Y69745*
X294643Y70870*
X294916Y72745*
Y73870*
X294643Y75745*
X294097Y76870*
X293279Y77245*
X292734*
X53097Y53245D02*
X50370Y47995D01*
X54461*
X53097Y53245D02*
Y45370D01*
X58552Y53245D02*
X57734Y52870D01*
X57188Y51745*
X56916Y49870*
Y48745*
X57188Y46870*
X57734Y45745*
X58552Y45370*
X59097*
X59916Y45745*
X60461Y46870*
X60734Y48745*
Y49870*
X60461Y51745*
X59916Y52870*
X59097Y53245*
X58552*
X143688Y51370D02*
Y51745D01*
X143961Y52495*
X144234Y52870*
X144779Y53245*
X145870*
X146416Y52870*
X146688Y52495*
X146961Y51745*
Y50995*
X146688Y50245*
X146143Y49120*
X143416Y45370*
X147234*
X176370Y51370D02*
X188370D01*
X182370Y45370D02*
Y57370D01*
X188643Y59170D02*
X188425Y59770D01*
X187988Y60370*
X187552Y60670*
X186679*
X186243Y60370*
X185806Y59770*
X185588Y59170*
X185370Y58270*
Y56770*
X185588Y55870*
X185806Y55270*
X186243Y54670*
X186679Y54370*
X187552*
X187988Y54670*
X188425Y55270*
X188643Y55870*
Y56770*
X187552D02*
X188643D01*
X209006Y53245D02*
X211188Y49495D01*
Y45370*
X213370Y53245D02*
X211188Y49495D01*
X215825Y53245D02*
Y45370D01*
Y53245D02*
X219370D01*
X215825Y49495D02*
X218006D01*
X215825Y45370D02*
X219370D01*
X225643Y52120D02*
X225097Y52870D01*
X224279Y53245*
X223188*
X222370Y52870*
X221825Y52120*
Y51370*
X222097Y50620*
X222370Y50245*
X222916Y49870*
X224552Y49120*
X225097Y48745*
X225370Y48370*
X225643Y47620*
Y46495*
X225097Y45745*
X224279Y45370*
X223188*
X222370Y45745*
X221825Y46495*
X262188Y52120D02*
Y45370D01*
X259734Y48745D02*
X264643D01*
X272006Y54745D02*
X267097Y42745D01*
X274461Y48745D02*
X279370D01*
X283461Y53245D02*
X282643Y52870D01*
X282097Y51745*
X281825Y49870*
Y48745*
X282097Y46870*
X282643Y45745*
X283461Y45370*
X284006*
X284825Y45745*
X285370Y46870*
X285643Y48745*
Y49870*
X285370Y51745*
X284825Y52870*
X284006Y53245*
X283461*
X288370Y46120D02*
X288097Y45745D01*
X288370Y45370*
X288643Y45745*
X288370Y46120*
X292734Y53245D02*
X291916Y52870D01*
X291370Y51745*
X291097Y49870*
Y48745*
X291370Y46870*
X291916Y45745*
X292734Y45370*
X293279*
X294097Y45745*
X294643Y46870*
X294916Y48745*
Y49870*
X294643Y51745*
X294097Y52870*
X293279Y53245*
X292734*
G74*
X0Y0D02*
M02*
