M48
;FILE_FORMAT=2:4
INCH,LZ
FMAT,2
ICI,OFF
;TYPE=PLATED
T1C.015
T2C.01575
T3C.027
T4C.0315
T5C.03543
T6C.037
T7C.03937
T8C.04
T9C.047
T10C.04724
T11C.04921
T12C.1
T13C.12598
%
M72
G90
G93X0Y0
T1C.015F095S3
X059467Y032167
X059857Y031767
X061837Y031947
X062707Y031947
X066297Y030797
X068297Y037837
X067897Y038427
X067497Y036237
X066287Y035157
X066097Y036237
X066017Y038727
X065897Y034117
X065757Y034807
X065617Y038327
X065107Y035387
X064297Y032597
X059857Y032567
X059857Y033367
X059467Y033757
X059457Y032967
X057087Y037877
X057057Y036347
X064077Y040627
X065567Y040227
T2C.01575F095S3
X009937Y004937
X012437Y004937
X014937Y004937
X017437Y004937
X019937Y004937
X019937Y006437
X022437Y004937
X022437Y006437
X024937Y004937
X024937Y006437
X027437Y004937
X027437Y006437
X029937Y004937
X029937Y006437
X032437Y004937
X032437Y006437
X034937Y004937
X034937Y006437
X037437Y004937
X037437Y006437
X039937Y004937
X043937Y004937
X046437Y004937
X048937Y004937
X051437Y004937
X053937Y004937
X056437Y004937
X058937Y004937
X061437Y004937
X063937Y004937
X066437Y004937
X068937Y004937
X071437Y004937
X073937Y004937
X078937Y008437
X076437Y008437
X075771Y008187
X073937Y007437
X071437Y007437
X068937Y007437
X068937Y009437
X066437Y007437
X066437Y009437
X063937Y007437
X063937Y009437
X061437Y007437
X061437Y009437
X058937Y007437
X058587Y008087
X058187Y008487
X056437Y007437
X053937Y007437
X051437Y007437
X048937Y007437
X046437Y007437
X043937Y007437
X042247Y009417
X040437Y008437
X038937Y009437
X037937Y008437
X017437Y007437
X014937Y007437
X012437Y007437
X009937Y007437
X039737Y010137
X040937Y010137
X043437Y012437
X045937Y012437
X048437Y012437
X050937Y012437
X055937Y012437
X057937Y012437
X060937Y011437
X061937Y011437
X065737Y014467
X067437Y013937
X067437Y011437
X068937Y013937
X078937Y010437
X070937Y016437
X069437Y018437
X068937Y016437
X068437Y018437
X065767Y015727
X063437Y015437
X061447Y017407
X061437Y014937
X059937Y017437
X059937Y014937
X057937Y014937
X057937Y017437
X057227Y019167
X055937Y017437
X055937Y014937
X053437Y017437
X053437Y014937
X050937Y017437
X050937Y014937
X048437Y017437
X048437Y014937
X045937Y014937
X045937Y017437
X041937Y018437
X041937Y015937
X041937Y020937
X041937Y023437
X043567Y024547
X045937Y019937
X048437Y019937
X050937Y019937
X053437Y019937
X057397Y022407
X059797Y023177
X060557Y024887
X062447Y021597
X065517Y021017
X066937Y019937
X068437Y020437
X069437Y020437
X069487Y021597
X069487Y022797
X069487Y023997
X070287Y023547
X070737Y024237
X070937Y019937
X071937Y021937
X071937Y022937
X072937Y024237
X073737Y024037
X075437Y023937
X075437Y021437
X077437Y023937
X077937Y021437
X078937Y024437
X078937Y026437
X078937Y028937
X076437Y028937
X073937Y028937
X072777Y026237
X069177Y026397
X068937Y028937
X065687Y026237
X065627Y027437
X063387Y028637
X063387Y027437
X062587Y026167
X062427Y029007
X061027Y028617
X060957Y025287
X060937Y026937
X057537Y028587
X057437Y027437
X055937Y027437
X055757Y029397
X051937Y028437
X049437Y028437
X046937Y028437
X045667Y026467
X044447Y026067
X044437Y028437
X041937Y025937
X041937Y028437
X026937Y033937
X029437Y033937
X031937Y033937
X034437Y033937
X036937Y033937
X039437Y033937
X041937Y030937
X041937Y033437
X044437Y030937
X044437Y033437
X046937Y030937
X048807Y033357
X049207Y032957
X049437Y030937
X050607Y032557
X051007Y032157
X051937Y030937
X055227Y030857
X059857Y034157
X064037Y034837
X065237Y033437
X068937Y030937
X071437Y030937
X071437Y033437
X073937Y030937
X073937Y033437
X076437Y030937
X076437Y033437
X078937Y033437
X078937Y030937
X078937Y035937
X078937Y037937
X076437Y035937
X076437Y037937
X073937Y035937
X073937Y037937
X071437Y035937
X070437Y036437
X069327Y035467
X062937Y036937
X062937Y035937
X062937Y037937
X061937Y036937
X061937Y037937
X061937Y035937
X060937Y035937
X060937Y037937
X060937Y036937
X055297Y036757
X048567Y037547
X046967Y036187
X046567Y035787
X046167Y035387
X044767Y038277
X043267Y035987
X042437Y039437
X041787Y038277
X040517Y039827
X039437Y039437
X036937Y035937
X036907Y039817
X036407Y039607
X035907Y039917
X034907Y039677
X034437Y035937
X033907Y039677
X031937Y035937
X031927Y039607
X029897Y036667
X029437Y035937
X029407Y039537
X029007Y038337
X028607Y038737
X028207Y038337
X027807Y038737
X021087Y038167
X019627Y039087
X015377Y038957
X007937Y039937
X011477Y044397
X015677Y041897
X015687Y043327
X017437Y040037
X017597Y042817
X019997Y042807
X020917Y040897
X021417Y040397
X021437Y043437
X022347Y039967
X025227Y042107
X026587Y044667
X027807Y040487
X027937Y043437
X028607Y042237
X029007Y040487
X031007Y043777
X033017Y040427
X033407Y043337
X034407Y043337
X034907Y043947
X035907Y043807
X036407Y043337
X037627Y043847
X037627Y043147
X038627Y041957
X038827Y043547
X039437Y041437
X040937Y041437
X045437Y040437
X045887Y041577
X057437Y044437
X059437Y044437
X059607Y041627
X060917Y044007
X061777Y043997
X064437Y044437
X066437Y044437
X073937Y040437
X073937Y042937
X076437Y040437
X076437Y042937
X078937Y042937
X078937Y040437
X078937Y045437
X076437Y045437
X074437Y048937
X071937Y048937
X069437Y048937
X067097Y046507
X066937Y048937
X065477Y047197
X064437Y046437
X064437Y048937
X061937Y046437
X061937Y048937
X059937Y046437
X059437Y048937
X057937Y046437
X056937Y048937
X055437Y046437
X054437Y048937
X054347Y046147
X051937Y048937
X048967Y048517
X048567Y048117
X048167Y048517
X047767Y048117
X047367Y049317
X046967Y046747
X045437Y048437
X042937Y048437
X040437Y048437
X037937Y048437
X035437Y048437
X032937Y048437
X030437Y048437
X029437Y044937
X027937Y048437
X027937Y044937
X027397Y045637
X026597Y048667
X025197Y047957
X024697Y047957
X022047Y049207
X021647Y049607
X021437Y045437
X020177Y048067
X020137Y045827
X020137Y046327
X018677Y048027
X017067Y045447
X017067Y047707
X015377Y048427
X015377Y046777
X013437Y048937
X010937Y048937
X009637Y048277
X008597Y047877
X008437Y048937
X008437Y051437
X010937Y051437
X013437Y051437
X015937Y051437
X020597Y051197
X020997Y050797
X021247Y050007
X024937Y051537
X027437Y051537
X029937Y051537
X032437Y051537
X034937Y051537
X037437Y051537
X039937Y051537
X042437Y051537
X044937Y051537
X047437Y051537
X049437Y051437
X051937Y051437
X054437Y051437
X056937Y051437
X059437Y051437
X061937Y051437
X064437Y051437
X066937Y051437
X069437Y051437
X071937Y051437
X074437Y051437
T3C.027F197S55
X074437Y022297
X074437Y023297
T4C.0315F197S55
X012647Y040401
X012647Y043393
T5C.03543F197S55
X048487Y009207
X048487Y011207
X048487Y010207
X071537Y018797
X072537Y018797
X072177Y032227
X068817Y032717
X054037Y036827
X052137Y036447
X050777Y035287
X049607Y036247
X009217Y044397
X009217Y043397
X057697Y040447
X058217Y043397
X063307Y044817
X063737Y041767
X065737Y041767
X072937Y046937
X075937Y046937
X032097Y048267
T6C.037F197S55
X055027Y020267
X056027Y020267
X073737Y020267
X074737Y020267
X074737Y026177
X073737Y026177
X069247Y039457
X068247Y039457
X056027Y026167
X055027Y026167
X051137Y038277
X050137Y038277
X038537Y038277
X037537Y038277
X031247Y038277
X030247Y038277
X012747Y038277
X011747Y038277
X011747Y046147
X012747Y046147
X030247Y046147
X031247Y046147
X037537Y046147
X038537Y046147
X042257Y042217
X043257Y042217
X050137Y046147
X051137Y046147
X051887Y042607
X052887Y042607
X068247Y044967
X069247Y044967
T7C.03937F197S55
X062608Y012207
X063593Y012207
X064577Y012207
X065561Y012207
X066546Y012207
T8C.04F139S55
X022347Y038137
X027067Y038137
T9C.047F139S55
X010657Y008717
X010657Y010477
X013217Y010477
X013217Y008717
X016447Y008717
X016447Y010477
X019007Y010477
X019007Y008717
X022157Y008717
X022157Y010477
X024717Y008717
X024717Y010477
X027947Y008717
X027947Y010477
X030507Y010477
X030507Y008717
X033737Y008717
X033737Y010477
X036297Y010477
X036297Y008717
X065857Y017407
X065857Y019167
X065857Y022407
X063297Y019167
X063297Y022407
X063297Y017407
X047247Y022407
X044687Y022407
X010417Y035397
X011417Y035397
X012417Y035397
X013417Y035397
X014417Y035397
X015417Y035397
X016417Y035397
X017417Y035397
X018417Y035397
X019417Y035397
X020417Y035397
X021417Y035397
X022417Y035397
X023417Y035397
X024417Y035397
X025417Y035397
X044687Y024167
X047247Y024167
X063297Y024167
X065857Y024167
T10C.04724F139S55
X005897Y037781
X005897Y039159
X005897Y040537
X005897Y041915
X005917Y045848
X005917Y047226
X005897Y043293
T11C.04921F139S55
X073803Y013157
X075771Y013157
T12C.1F069S658
X007467Y013737
X007467Y035397
X039757Y013737
X039757Y035397
T13C.12598F035S794
X005897Y005897
X041937Y005907
X050747Y023297
X077957Y005907
X077957Y050397
X005897Y050397
M30
