*
*
G04 PADS VX.2 Build Number: 5060570 generated Gerber (RS-274-X) file*
G04 PC Version=2.1*
*
%IN "HFC3100D_Main LCD Displ"*%
*
%MOIN*%
*
%FSLAX35Y35*%
*
*
*
*
G04 PC Standard Apertures*
*
*
G04 Thermal Relief Aperture macro.*
%AMTER*
1,1,$1,0,0*
1,0,$1-$2,0,0*
21,0,$3,$4,0,0,45*
21,0,$3,$4,0,0,135*
%
*
*
G04 Annular Aperture macro.*
%AMANN*
1,1,$1,0,0*
1,0,$2,0,0*
%
*
*
G04 Odd Aperture macro.*
%AMODD*
1,1,$1,0,0*
1,0,$1-0.005,0,0*
%
*
*
G04 PC Custom Aperture Macros*
*
*
*
*
*
*
G04 PC Aperture Table*
*
%ADD010C,0.001*%
%ADD014C,0.01*%
%ADD019C,0.06*%
%ADD038C,0.08*%
%ADD051O,0.07X0.09*%
%ADD053C,0.07299*%
%ADD059C,0.12811*%
%ADD060O,0.09X0.07*%
%ADD066C,0.09*%
%ADD067R,0.07299X0.07299*%
%ADD069R,0.12811X0.12811*%
%ADD082C,0.09661*%
%ADD090C,0.11*%
%ADD099C,0.13598*%
%ADD110O,0.08X0.13*%
%ADD111R,0.05724X0.08087*%
%ADD112R,0.08087X0.05724*%
%ADD113R,0.05X0.05*%
%ADD114R,0.05921X0.04937*%
%ADD115R,0.04937X0.05921*%
%ADD116O,0.0352X0.09504*%
%ADD117O,0.084X0.034*%
%ADD124O,0.06906X0.02181*%
%ADD125O,0.02181X0.06906*%
%ADD126O,0.034X0.084*%
*
*
*
*
G04 PC Circuitry*
G04 Layer Name HFC3100D_Main LCD Displ - circuitry*
%LPD*%
*
*
G04 PC Custom Flashes*
G04 Layer Name HFC3100D_Main LCD Displ - flashes*
%LPD*%
*
*
G04 PC Circuitry*
G04 Layer Name HFC3100D_Main LCD Displ - circuitry*
%LPD*%
*
G54D10*
G54D14*
G01X789170Y39370D02*
X49370D01*
X39370Y49370D02*
G75*
G03X49370Y39370I10000J0D01*
G01X39370Y49370D02*
Y513570D01*
X49370Y523570D02*
G03X39370Y513570I0J-10000D01*
G01X49370Y523570D02*
X789170D01*
X799170Y513570D02*
G03X789170Y523570I-10000J0D01*
G01X799170Y513570D02*
Y49370D01*
X789170Y39370D02*
G03X799170Y49370I0J10000D01*
G01X64470Y327248D02*
X407770D01*
Y161048*
X64470*
Y327248*
G54D19*
X744370Y222970D03*
Y232970D03*
G54D38*
X117470Y461470D03*
X127470D03*
X117470Y382770D03*
X127470D03*
X302470D03*
X312470D03*
X302470Y461470D03*
X312470D03*
X375370D03*
X385370D03*
X375370Y382770D03*
X385370D03*
X422570Y422170D03*
X432570D03*
X737370Y202670D03*
X747370D03*
X737370Y261770D03*
X747370D03*
X682470Y449670D03*
X692470D03*
X682470Y394570D03*
X692470D03*
X501370Y382770D03*
X511370D03*
X501370Y461470D03*
X511370D03*
X550270Y261670D03*
X560270D03*
X550270Y202670D03*
X560270D03*
X518870Y426070D03*
X528870D03*
X223470Y381370D03*
X270670D03*
G54D51*
X725370Y187970D03*
X715370D03*
G54D53*
X759370Y469370D03*
X657370Y417670D03*
X637370D03*
X484870Y112070D03*
Y102070D03*
Y92070D03*
X126470Y404009D03*
Y433931D03*
X655613Y122070D03*
X645770D03*
X635928D03*
X626085D03*
X688170Y327170D03*
X540370Y368270D03*
X521370Y364470D03*
X496070Y362470D03*
X507770Y352870D03*
X729370Y469370D03*
X576970Y404470D03*
X633070Y448170D03*
X582170Y433970D03*
X320970Y482670D03*
X721770Y322270D03*
G54D59*
X757713Y131570D03*
G54D60*
X92170Y433970D03*
Y443970D03*
G54D66*
X446870Y241670D03*
Y224070D03*
X472470Y241670D03*
Y224070D03*
X632970Y174070D03*
Y191670D03*
X658570Y174070D03*
Y191670D03*
X106570Y104770D03*
Y87170D03*
X132170Y104770D03*
Y87170D03*
X164470Y104770D03*
Y87170D03*
X190070Y104770D03*
Y87170D03*
X337370Y104770D03*
Y87170D03*
X362970Y104770D03*
Y87170D03*
X279470Y104770D03*
Y87170D03*
X305070Y104770D03*
Y87170D03*
X221570Y104770D03*
Y87170D03*
X247170Y104770D03*
Y87170D03*
X632970Y241670D03*
Y224070D03*
X658570Y241670D03*
Y224070D03*
G54D67*
X665455Y122070D03*
G54D69*
X738028Y131570D03*
G54D82*
X58970Y377811D03*
Y391591D03*
Y405370D03*
Y419150D03*
Y432929D03*
X59170Y458480D03*
Y472260D03*
G54D90*
X74670Y353970D03*
X397570D03*
Y137370D03*
X74670D03*
G54D99*
X58970Y58970D03*
X419370Y59070D03*
X779570D03*
Y503970D03*
X58970D03*
X507470Y232970D03*
G54D110*
X104170Y353970D03*
X114170D03*
X124170D03*
X134170D03*
X144170D03*
X154170D03*
X164170D03*
X174170D03*
X184170D03*
X194170D03*
X204170D03*
X214170D03*
X224170D03*
X234170D03*
X244170D03*
X254170D03*
G54D111*
X141171Y382770D03*
X153769D03*
X102969Y377870D03*
X90371D03*
Y392270D03*
X102969D03*
X326171Y382770D03*
X338769D03*
X326171Y461470D03*
X338769D03*
X573971Y202670D03*
X586569D03*
X399071Y382770D03*
X411669D03*
X399071Y461470D03*
X411669D03*
X173571Y375770D03*
X186169D03*
X173571Y387770D03*
X186169D03*
X446271Y422170D03*
X458869D03*
X761071Y261770D03*
X773669D03*
X761071Y202670D03*
X773669D03*
X525071Y382770D03*
X537669D03*
X525071Y461470D03*
X537669D03*
X706171Y394570D03*
X718769D03*
X706171Y449670D03*
X718769D03*
X573971Y261670D03*
X586569D03*
X573971Y231770D03*
X586569D03*
X427871Y94170D03*
X440469D03*
X427871Y109170D03*
X440469D03*
X676571Y215970D03*
X689169D03*
X676571Y227970D03*
X689169D03*
X676571Y239970D03*
X689169D03*
X709171Y286370D03*
X721769D03*
X709171Y274370D03*
X721769D03*
X709171Y262370D03*
X721769D03*
X651769Y286370D03*
X639171D03*
Y262370D03*
X651769D03*
X639171Y274370D03*
X651769D03*
X555169Y426070D03*
X542571D03*
X141171Y461470D03*
X153769D03*
G54D112*
X163970Y433271D03*
Y445869D03*
X175970D03*
Y433271D03*
X187970D03*
Y445869D03*
X649170Y157269D03*
Y144671D03*
X461870Y97071D03*
Y109669D03*
X193270Y400371D03*
Y412969D03*
X181270Y400371D03*
Y412969D03*
X199970Y445869D03*
Y433271D03*
X201770Y498469D03*
Y485871D03*
G54D113*
X196270Y386001D03*
Y377339D03*
X205770Y381670D03*
X165870Y402339D03*
Y411001D03*
X156370Y406670D03*
G54D114*
X217370Y475401D03*
Y466739D03*
X512170Y103201D03*
Y94539D03*
X557570Y299939D03*
Y308601D03*
X240270Y425739D03*
Y434401D03*
X228270Y425739D03*
Y434401D03*
X264270Y425739D03*
Y434401D03*
X252270Y425739D03*
Y434401D03*
X687570Y354739D03*
Y363401D03*
X559270Y376201D03*
Y367539D03*
X273970Y471001D03*
Y462339D03*
X379470Y419601D03*
Y410939D03*
G54D115*
X178139Y485870D03*
X186801D03*
X723701Y207970D03*
X715039D03*
X688239Y121670D03*
X696901D03*
X652039Y432170D03*
X660701D03*
X633039D03*
X641701D03*
X609139D03*
X617801D03*
X580739Y416270D03*
X589401D03*
X618339Y314170D03*
X627001D03*
X676139Y298370D03*
X684801D03*
G54D116*
X261970Y446670D03*
X256970D03*
X251970D03*
X246970D03*
X241970D03*
X236970D03*
X231970D03*
X226970D03*
Y486670D03*
X231970D03*
X236970D03*
X241970D03*
X246970D03*
X251970D03*
X256970D03*
X261970D03*
G54D117*
X193270Y473270D03*
Y468270D03*
Y463270D03*
Y458270D03*
X170670D03*
Y463270D03*
Y468270D03*
Y473270D03*
X691770Y281870D03*
Y276870D03*
Y271870D03*
Y266870D03*
X669170D03*
Y271870D03*
Y276870D03*
Y281870D03*
X730570Y235470D03*
Y230470D03*
Y225470D03*
Y220470D03*
X707970D03*
Y225470D03*
Y230470D03*
Y235470D03*
G54D124*
X596929Y354606D03*
Y356575D03*
Y358543D03*
Y360512D03*
Y362480D03*
Y364449D03*
Y366417D03*
Y368386D03*
Y370354D03*
Y372323D03*
Y374291D03*
Y376260D03*
Y378228D03*
Y380197D03*
Y382165D03*
Y384134D03*
X641811D03*
Y382165D03*
Y380197D03*
Y378228D03*
Y376260D03*
Y374291D03*
Y372323D03*
Y370354D03*
Y368386D03*
Y366417D03*
Y364449D03*
Y362480D03*
Y360512D03*
Y358543D03*
Y356575D03*
Y354606D03*
G54D125*
X604606Y391811D03*
X606575D03*
X608543D03*
X610512D03*
X612480D03*
X614449D03*
X616417D03*
X618386D03*
X620354D03*
X622323D03*
X624291D03*
X626260D03*
X628228D03*
X630197D03*
X632165D03*
X634134D03*
Y346929D03*
X632165D03*
X630197D03*
X628228D03*
X626260D03*
X624291D03*
X622323D03*
X620354D03*
X618386D03*
X616417D03*
X614449D03*
X612480D03*
X610512D03*
X608543D03*
X606575D03*
X604606D03*
G54D126*
X369070Y404270D03*
X364070D03*
X359070D03*
X354070D03*
X349070D03*
X344070D03*
X339070D03*
X334070D03*
Y426870D03*
X339070D03*
X344070D03*
X349070D03*
X354070D03*
X359070D03*
X364070D03*
X369070D03*
G74*
X0Y0D02*
M02*
