M48
;FILE_FORMAT=2:4
INCH,LZ
FMAT,2
ICI,OFF
;TYPE=PLATED
T1C.01575
T2C.027
T3C.0315
T4C.03543
T5C.037
T6C.03937
T7C.04
T8C.047
T9C.04724
T10C.04921
T11C.1
T12C.12598
%
M72
G90
G93X0Y0
T1C.01575F095S3
X009937Y004937
X012437Y004937
X014937Y004937
X017437Y004937
X019937Y004937
X022437Y004937
X024937Y004937
X027437Y004937
X029937Y004937
X032437Y004937
X034937Y004937
X037437Y004937
X037437Y006437
X039937Y006437
X039937Y004937
X042437Y004937
X042437Y006437
X046437Y004937
X048937Y004937
X051437Y004937
X053937Y004937
X056437Y004937
X058937Y004937
X066437Y004937
X068937Y004937
X071437Y004937
X073937Y004937
X076437Y004937
X078937Y004937
X079937Y006437
X081437Y004937
X082437Y006437
X083937Y004937
X084937Y006437
X086437Y004937
X087437Y006437
X088937Y004937
X091387Y004637
X099737Y005237
X100737Y005637
X103937Y004937
X104937Y006937
X106437Y004937
X106437Y006937
X108937Y004937
X112937Y004937
X115437Y004937
X117937Y004937
X120437Y009937
X117937Y007437
X117937Y009937
X115437Y007437
X115437Y009937
X105467Y009337
X105237Y011437
X101937Y009937
X100447Y010467
X100047Y010867
X099837Y012037
X099737Y009637
X098707Y010067
X098397Y011907
X096437Y009437
X094437Y008437
X094437Y009437
X093867Y012067
X093437Y008437
X091937Y011937
X090307Y010477
X090167Y011347
X087437Y007937
X084937Y007937
X083437Y010437
X083437Y011937
X082437Y007937
X080937Y010437
X080937Y011937
X079937Y007937
X077437Y007937
X075637Y010437
X074437Y008177
X074037Y008577
X073937Y007437
X073437Y010937
X071437Y007437
X070937Y010937
X068937Y007437
X068387Y011307
X066437Y007437
X063067Y010807
X061937Y009937
X059437Y009937
X058937Y007437
X056437Y010437
X056437Y007437
X054437Y010437
X054237Y008037
X053437Y011937
X050937Y011937
X048437Y011937
X046737Y010037
X046737Y007337
X045937Y011937
X045437Y008737
X043437Y011937
X043257Y008017
X042037Y010137
X039937Y008937
X039937Y010437
X037437Y008937
X037437Y010437
X034937Y007437
X032437Y007437
X029937Y007437
X028937Y010437
X027437Y007437
X024937Y007437
X023437Y010437
X022437Y007437
X019937Y007437
X019937Y009937
X017437Y009937
X017437Y007437
X014937Y009937
X014937Y007437
X012437Y007437
X012437Y009937
X009937Y009937
X009937Y007437
X007437Y009937
X004937Y009937
X004937Y012437
X004937Y014937
X007437Y012437
X007437Y014937
X009937Y012437
X009937Y014937
X012437Y014937
X014937Y014937
X017137Y012337
X017437Y015437
X019937Y015437
X022437Y015437
X023037Y012337
X024937Y015437
X027187Y015377
X028837Y012437
X034637Y012337
X039737Y012237
X040937Y014437
X043437Y014437
X045937Y014437
X051437Y014437
X065167Y012237
X069937Y016137
X070937Y013437
X071937Y016137
X073437Y013437
X074677Y013287
X075037Y016337
X075077Y012887
X075637Y012237
X077437Y012937
X078037Y016237
X079937Y012937
X080437Y016237
X082167Y012867
X093107Y015067
X093907Y015067
X093907Y014267
X094267Y012467
X095937Y016137
X097137Y016137
X097957Y013437
X098337Y016137
X098357Y013837
X098757Y013437
X099157Y013837
X100467Y016127
X100867Y015727
X101267Y016317
X101297Y015327
X101667Y016717
X101937Y012137
X103647Y013397
X104047Y012997
X105237Y012937
X105257Y016827
X106437Y012937
X112047Y015907
X112447Y016307
X112847Y017107
X113247Y016707
X113437Y014437
X115437Y012437
X117937Y012437
X117937Y014937
X120437Y012437
X120437Y014937
X120437Y017437
X117937Y017437
X113217Y019357
X103247Y019107
X102847Y018707
X098337Y018537
X098337Y017337
X097137Y018537
X097137Y017337
X095937Y018537
X095937Y017337
X093387Y018917
X092987Y018517
X092587Y018117
X091047Y017277
X090417Y018947
X090397Y018087
X089437Y018737
X088677Y018167
X087837Y018837
X085337Y018837
X083137Y017437
X083077Y019477
X081677Y019427
X080797Y019057
X080397Y017177
X079237Y017937
X075037Y017737
X074667Y018867
X074267Y018467
X072737Y017737
X069937Y017437
X069397Y018297
X067437Y017437
X064937Y017437
X062437Y017437
X061767Y017177
X054937Y017437
X052437Y017437
X049937Y017437
X047437Y017437
X044937Y017437
X042437Y017437
X039937Y017437
X037437Y017437
X034937Y017437
X032437Y017437
X029937Y017437
X027437Y017437
X024937Y017437
X022437Y017437
X019937Y017437
X017437Y017437
X014937Y017437
X012437Y017437
X009937Y017437
X007437Y017437
X004937Y017437
X004937Y019937
X004937Y022437
X007437Y019937
X007437Y022437
X044937Y019937
X044937Y022437
X047437Y019937
X049937Y019937
X052437Y019937
X054937Y022437
X057437Y019937
X057437Y024537
X057437Y022437
X059937Y019937
X059937Y024537
X059937Y022437
X062437Y019937
X062437Y024537
X062437Y022437
X064937Y019937
X068437Y024537
X069437Y020437
X069437Y022437
X070937Y024537
X071937Y022437
X071937Y020437
X074937Y022337
X074937Y024537
X074937Y019837
X078037Y024537
X078137Y023037
X079577Y019957
X080077Y022537
X080577Y021497
X080577Y024137
X081077Y019827
X081077Y022537
X082077Y024137
X082077Y019827
X082577Y024137
X084717Y022427
X085337Y021237
X086937Y020137
X087577Y022487
X087977Y022087
X089337Y021237
X090127Y022117
X090787Y022687
X090837Y021237
X094137Y022737
X095027Y022387
X096077Y024257
X096937Y024247
X099837Y024537
X100647Y020477
X102847Y020077
X103247Y019677
X106437Y022937
X108937Y022937
X108937Y020437
X113237Y023157
X113257Y024357
X113277Y020557
X114457Y020487
X116717Y020517
X116937Y021437
X119437Y021437
X121937Y023937
X121937Y021437
X121937Y026437
X121937Y028937
X119437Y026437
X119437Y028937
X116937Y026437
X116937Y028937
X116547Y026747
X114437Y028937
X111457Y026237
X108937Y025437
X106437Y025437
X104247Y025147
X103847Y026347
X103447Y025147
X103047Y026347
X102647Y025147
X102247Y026347
X096077Y027027
X093087Y028117
X092987Y026347
X082077Y025417
X081007Y024967
X079937Y028937
X077437Y028937
X073317Y026347
X054837Y024637
X052337Y024637
X044937Y027437
X044937Y024937
X007437Y024937
X007437Y027437
X004937Y024937
X004937Y027437
X004937Y029937
X004937Y032437
X007437Y029937
X007437Y032437
X044937Y029937
X044937Y032437
X046437Y030647
X047237Y032437
X049437Y029937
X049437Y032437
X051437Y029937
X051437Y032437
X053937Y032437
X053937Y029937
X055937Y034437
X056437Y029937
X057937Y032437
X057937Y034437
X058937Y029937
X060437Y032437
X060437Y034437
X061437Y029937
X062937Y032437
X062937Y034437
X063937Y029937
X065437Y032437
X065437Y034437
X066437Y029937
X067937Y032437
X069737Y029937
X069737Y032137
X072237Y029937
X072237Y032137
X072917Y034227
X074437Y034437
X074937Y032137
X074937Y029937
X077437Y032437
X077437Y030937
X079937Y030937
X079937Y032437
X080937Y032437
X082577Y032567
X082977Y032967
X083377Y032567
X083777Y032967
X085937Y034437
X087437Y033237
X087437Y034437
X090537Y033137
X092907Y034227
X094437Y033137
X094437Y034437
X096657Y032957
X096927Y032157
X097327Y032557
X099937Y032437
X102437Y029937
X102437Y032437
X104937Y029937
X104937Y032437
X109437Y029937
X111937Y031437
X111937Y033937
X114437Y031437
X114437Y033937
X116937Y031437
X116937Y033937
X119437Y033937
X119437Y031437
X121937Y031437
X121937Y033937
X121937Y036437
X121937Y038937
X119437Y036437
X119437Y038937
X116937Y036437
X116937Y038937
X114437Y036437
X114437Y038937
X111937Y036437
X111937Y038937
X108437Y037437
X105437Y037437
X104937Y034937
X104437Y039437
X102937Y037437
X102437Y034937
X101937Y039437
X100437Y037437
X099937Y034937
X099437Y039437
X097937Y035937
X097937Y037437
X096937Y039437
X095437Y037437
X095437Y035937
X094437Y039437
X092937Y037437
X092937Y035937
X090937Y037437
X090937Y035937
X089437Y037437
X089437Y039437
X089437Y035937
X087617Y038717
X086217Y036117
X082817Y036477
X082737Y037437
X082737Y039337
X082417Y035677
X080987Y036787
X078587Y036787
X078037Y039437
X076717Y037377
X074217Y039577
X073817Y039177
X073417Y038777
X072937Y036437
X070437Y036437
X067937Y036437
X065437Y036437
X062937Y036437
X060437Y036437
X057937Y036437
X055937Y036437
X053937Y036437
X051437Y036437
X049437Y037437
X049437Y034937
X047237Y037437
X047237Y034937
X044937Y037437
X044937Y039437
X044937Y034937
X007437Y034937
X007437Y037437
X004937Y034937
X004937Y037437
X004937Y039937
X007437Y039937
X008937Y042437
X008937Y044437
X011437Y042437
X011437Y044437
X020937Y044277
X022357Y043267
X023437Y043937
X043637Y043537
X045437Y043937
X046937Y042937
X046937Y043937
X056437Y040937
X059437Y041937
X059437Y044437
X065437Y041937
X065437Y044437
X067937Y041937
X067937Y044437
X070437Y041937
X070437Y044437
X072937Y044437
X072937Y041937
X075117Y039977
X075437Y044437
X075437Y041937
X077467Y041377
X077937Y044437
X079677Y042037
X080487Y043287
X080937Y040377
X080937Y039877
X080967Y041377
X081947Y043897
X083037Y043737
X085687Y043437
X086187Y043437
X088107Y044237
X088137Y043237
X089107Y043837
X090337Y041137
X091237Y040237
X091937Y043937
X094437Y043937
X094437Y041437
X096937Y043937
X096937Y041437
X099437Y041437
X099437Y043937
X101937Y043937
X101937Y041437
X104437Y043937
X104437Y041437
X106937Y043937
X106937Y041437
X109437Y043937
X109437Y041437
X111937Y043937
X111937Y041437
X114437Y043937
X114437Y041437
X116937Y043937
X116937Y041437
X119437Y041437
X121937Y041437
T2C.027F197S55
X118097Y018857
X118097Y019857
T3C.0315F197S55
X048177Y026217
X066257Y020811
X066257Y023803
X088667Y028987
X103857Y008647
X104687Y015327
X089067Y041157
X082727Y042247
X076057Y030287
X012667Y043087
T4C.03543F197S55
X049877Y008807
X049877Y007807
X049877Y009807
X084937Y017537
X086437Y017537
X086647Y011337
X087937Y017537
X089437Y017537
X106187Y015167
X106327Y016877
X107897Y016817
X115197Y015357
X116197Y015357
X106107Y023707
X100867Y022257
X098867Y022257
X094667Y020777
X094117Y024557
X077177Y022207
X051257Y038227
X050257Y038227
T5C.037F197S55
X057527Y011267
X057527Y017177
X058527Y011267
X058527Y017177
X076247Y017177
X076247Y011277
X077247Y011277
X077247Y017177
X107797Y027527
X106797Y027527
X089667Y026347
X088667Y026347
X081787Y030287
X080787Y030287
X077057Y026347
X076057Y026347
X069767Y026347
X068767Y026347
X051257Y026347
X050257Y026347
X050257Y034227
X051257Y034227
X068767Y034227
X069767Y034227
X076057Y034227
X077057Y034227
X088667Y034227
X089667Y034227
X106797Y033047
X106797Y038557
X107797Y033047
X107797Y038557
T6C.03937F197S55
X088518Y006857
X089503Y006857
X090487Y006857
X091471Y006857
X092456Y006857
T7C.04F139S55
X024647Y043737
X029367Y043737
T8C.047F139S55
X013037Y011437
X013037Y013197
X015597Y011437
X015597Y013197
X018837Y011437
X018837Y013197
X021397Y011437
X021397Y013197
X024627Y011437
X024627Y013197
X027187Y011437
X027187Y013197
X030427Y011437
X030427Y013197
X032987Y013197
X032987Y011437
X036217Y013197
X036217Y011437
X038777Y013197
X038777Y011437
X047187Y013427
X049747Y013427
X065807Y013427
X068367Y013427
X097067Y006757
X097067Y008517
X099627Y006757
X099627Y008517
X068367Y015187
X065807Y015187
X049747Y015187
X047187Y015187
X027677Y040787
X026677Y040787
X025677Y040787
X024677Y040787
X023677Y040787
X022677Y040787
X021677Y040787
X020677Y040787
X019677Y040787
X018677Y040787
X017677Y040787
X016677Y040787
X015677Y040787
X014677Y040787
X013677Y040787
X012677Y040787
T9C.04724F139S55
X048181Y043637
X049559Y043637
X050937Y043637
X052315Y043637
X053693Y043637
X056248Y043637
X057626Y043637
T10C.04921F139S55
X109583Y009637
X111551Y009637
T11C.1F069S658
X009727Y019127
X009727Y040787
X042017Y019127
X042017Y040787
T12C.12598F035S794
X005897Y005897
X048467Y021937
X062407Y005897
X120877Y005897
X120877Y043707
X062407Y043707
X005897Y043707
M30
