*
*
G04 PADS VX.2 Build Number: 5060570 generated Gerber (RS-274-X) file*
G04 PC Version=2.1*
*
%IN "HFC3100D_Main LCD Displ"*%
*
%MOIN*%
*
%FSLAX35Y35*%
*
*
*
*
G04 PC Standard Apertures*
*
*
G04 Thermal Relief Aperture macro.*
%AMTER*
1,1,$1,0,0*
1,0,$1-$2,0,0*
21,0,$3,$4,0,0,45*
21,0,$3,$4,0,0,135*
%
*
*
G04 Annular Aperture macro.*
%AMANN*
1,1,$1,0,0*
1,0,$2,0,0*
%
*
*
G04 Odd Aperture macro.*
%AMODD*
1,1,$1,0,0*
1,0,$1-0.005,0,0*
%
*
*
G04 PC Custom Aperture Macros*
*
*
*
*
*
*
G04 PC Aperture Table*
*
%ADD010C,0.001*%
%ADD014C,0.01*%
%ADD019C,0.06*%
%ADD038C,0.08*%
%ADD051O,0.07X0.09*%
%ADD053C,0.07299*%
%ADD057C,0.07693*%
%ADD059C,0.12811*%
%ADD064C,0.08087*%
%ADD066C,0.09*%
%ADD067R,0.07299X0.07299*%
%ADD069R,0.12811X0.12811*%
%ADD082C,0.09661*%
%ADD090C,0.11*%
%ADD099C,0.13598*%
%ADD110O,0.08X0.13*%
*
*
*
*
G04 PC Circuitry*
G04 Layer Name HFC3100D_Main LCD Displ - circuitry*
%LPD*%
*
*
G04 PC Custom Flashes*
G04 Layer Name HFC3100D_Main LCD Displ - flashes*
%LPD*%
*
*
G04 PC Circuitry*
G04 Layer Name HFC3100D_Main LCD Displ - circuitry*
%LPD*%
*
G54D10*
G54D14*
G01X1218370Y39370D02*
G75*
G03X1228370Y49370I0J10000D01*
G01X1218370Y39370D02*
X49370D01*
X39370Y49370D02*
G03X49370Y39370I10000J0D01*
G01X39370Y49370D02*
Y446670D01*
X49370Y456670D02*
G03X39370Y446670I0J-10000D01*
G01X49370Y456670D02*
X1218370D01*
X1228370Y446670D02*
G03X1218370Y456670I-10000J0D01*
G01X1228370Y446670D02*
Y49370D01*
X87070Y381315D02*
X430370D01*
Y215115*
X87070*
Y381315*
G54D19*
X1180970Y188570D03*
Y198570D03*
G54D38*
X502570Y342270D03*
X512570D03*
X502570Y263470D03*
X512570D03*
X687670D03*
X697670D03*
X687670Y342270D03*
X697670D03*
X760570D03*
X770570D03*
X760570Y263470D03*
X770570D03*
X807870Y302870D03*
X817870D03*
X762470Y112770D03*
X772470D03*
X762470Y171770D03*
X772470D03*
X1067970Y330470D03*
X1077970D03*
X1067970Y275270D03*
X1077970D03*
X886670Y263470D03*
X896670D03*
X886670Y342270D03*
X896670D03*
X575270Y171770D03*
X585270D03*
X575270Y112670D03*
X585270D03*
X1067970Y385570D03*
X1077970D03*
X246470Y437370D03*
X293670D03*
G54D51*
X1161970Y153570D03*
X1151970D03*
X502570Y382270D03*
X512570D03*
G54D53*
X1063270Y168770D03*
X1008670Y222570D03*
X988670D03*
X914713Y68570D03*
X904870D03*
X895028D03*
X885185D03*
X1061870Y151670D03*
X894370Y175370D03*
X879370D03*
X864370D03*
X849370D03*
X1078970Y168170D03*
X946670Y207770D03*
X1061070Y237070D03*
X941170Y245570D03*
X866470Y113370D03*
X771770Y222070D03*
G54D57*
X662570Y238031D03*
Y208109D03*
G54D59*
X1115513Y96370D03*
G54D64*
X498770Y98070D03*
Y88070D03*
Y78070D03*
G54D66*
X471870Y151870D03*
Y134270D03*
X497470Y151870D03*
Y134270D03*
X970670Y67570D03*
Y85170D03*
X996270Y67570D03*
Y85170D03*
X130370Y131970D03*
Y114370D03*
X155970Y131970D03*
Y114370D03*
X188370Y131970D03*
Y114370D03*
X213970Y131970D03*
Y114370D03*
X362170Y131970D03*
Y114370D03*
X387770Y131970D03*
Y114370D03*
X304270Y131970D03*
Y114370D03*
X329870Y131970D03*
Y114370D03*
X246270Y131970D03*
Y114370D03*
X271870Y131970D03*
Y114370D03*
X658070Y151870D03*
Y134270D03*
X683670Y151870D03*
Y134270D03*
G54D67*
X924555Y68570D03*
G54D69*
X1095828Y96370D03*
G54D82*
X481811Y436370D03*
X495591D03*
X509370D03*
X523150D03*
X536929D03*
X562480D03*
X576260D03*
G54D90*
X97270Y407870D03*
X420170D03*
Y191270D03*
X97270D03*
G54D99*
X58970Y58970D03*
X624070D03*
X1208770D03*
Y437070D03*
X58970D03*
X484670Y219370D03*
X624070Y437070D03*
G54D110*
X126770Y407870D03*
X136770D03*
X146770D03*
X156770D03*
X166770D03*
X176770D03*
X186770D03*
X196770D03*
X206770D03*
X216770D03*
X226770D03*
X236770D03*
X246770D03*
X256770D03*
X266770D03*
X276770D03*
G74*
X0Y0D02*
M02*
