*
*
G04 PADS VX.2 Build Number: 5060570 generated Gerber (RS-274-X) file*
G04 PC Version=2.1*
*
%IN "HFC3100D_Main LCD Displ"*%
*
%MOIN*%
*
%FSLAX35Y35*%
*
*
*
*
G04 PC Standard Apertures*
*
*
G04 Thermal Relief Aperture macro.*
%AMTER*
1,1,$1,0,0*
1,0,$1-$2,0,0*
21,0,$3,$4,0,0,45*
21,0,$3,$4,0,0,135*
%
*
*
G04 Annular Aperture macro.*
%AMANN*
1,1,$1,0,0*
1,0,$2,0,0*
%
*
*
G04 Odd Aperture macro.*
%AMODD*
1,1,$1,0,0*
1,0,$1-0.005,0,0*
%
*
*
G04 PC Custom Aperture Macros*
*
*
*
*
*
*
G04 PC Aperture Table*
*
%ADD010C,0.001*%
%ADD014C,0.01*%
%ADD103R,0.04724X0.07087*%
%ADD104R,0.07087X0.04724*%
%ADD105R,0.04X0.04*%
%ADD106R,0.04921X0.03937*%
%ADD107R,0.03937X0.04921*%
%ADD108O,0.0252X0.08504*%
%ADD109O,0.074X0.024*%
%ADD120O,0.05906X0.01181*%
%ADD121O,0.01181X0.05906*%
%ADD122O,0.024X0.074*%
*
*
*
*
G04 PC Circuitry*
G04 Layer Name HFC3100D_Main LCD Displ - circuitry*
%LPD*%
*
*
G04 PC Custom Flashes*
G04 Layer Name HFC3100D_Main LCD Displ - flashes*
%LPD*%
*
*
G04 PC Circuitry*
G04 Layer Name HFC3100D_Main LCD Displ - circuitry*
%LPD*%
*
G54D10*
G54D14*
G01X1218370Y39370D02*
G75*
G03X1228370Y49370I0J10000D01*
G01X1218370Y39370D02*
X49370D01*
X39370Y49370D02*
G03X49370Y39370I10000J0D01*
G01X39370Y49370D02*
Y446670D01*
X49370Y456670D02*
G03X39370Y446670I0J-10000D01*
G01X49370Y456670D02*
X1218370D01*
X1228370Y446670D02*
G03X1218370Y456670I-10000J0D01*
G01X1228370Y446670D02*
Y49370D01*
X87070Y381315D02*
X430370D01*
Y215115*
X87070*
Y381315*
G54D103*
X526271Y263470D03*
X538869D03*
X145969Y430870D03*
X133371D03*
Y445270D03*
X145969D03*
X711371Y263470D03*
X723969D03*
X711371Y342270D03*
X723969D03*
X598971Y112670D03*
X611569D03*
X784271Y263470D03*
X796869D03*
X784271Y342270D03*
X796869D03*
X186671Y426770D03*
X199269D03*
X186671Y438770D03*
X199269D03*
X831571Y302870D03*
X844169D03*
X786171Y171770D03*
X798769D03*
X786171Y112770D03*
X798769D03*
X910371Y263470D03*
X922969D03*
X910371Y342270D03*
X922969D03*
X1091671Y275270D03*
X1104269D03*
X1091671Y330470D03*
X1104269D03*
X598971Y171770D03*
X611569D03*
X1012371Y85070D03*
X1024969D03*
X664571Y113070D03*
X677169D03*
X441771Y80170D03*
X454369D03*
X441771Y95170D03*
X454369D03*
X1113171Y181570D03*
X1125769D03*
X1113171Y193570D03*
X1125769D03*
X1113171Y205570D03*
X1125769D03*
X1184571Y255570D03*
X1197169D03*
X1184571Y243570D03*
X1197169D03*
X1184571Y231570D03*
X1197169D03*
X1127169Y255570D03*
X1114571D03*
Y231570D03*
X1127169D03*
X1114571Y243570D03*
X1127169D03*
X1104269Y385570D03*
X1091671D03*
X526271Y342270D03*
X538869D03*
G54D104*
X773870Y373771D03*
Y386369D03*
X785870D03*
Y373771D03*
X797870D03*
Y386369D03*
X475770Y83071D03*
Y95669D03*
X714170Y182971D03*
Y195569D03*
X702170Y182971D03*
Y195569D03*
X809870Y386369D03*
Y373771D03*
X811670Y438969D03*
Y426371D03*
G54D105*
X209370Y437001D03*
Y428339D03*
X218870Y432670D03*
X686770Y184939D03*
Y193601D03*
X677270Y189270D03*
G54D106*
X827270Y415901D03*
Y407239D03*
X526070Y89201D03*
Y80539D03*
X908870Y104839D03*
Y113501D03*
X850170Y366239D03*
Y374901D03*
X838170Y366239D03*
Y374901D03*
X874170Y366239D03*
Y374901D03*
X862170Y366239D03*
Y374901D03*
X1046870Y159639D03*
Y168301D03*
X910570Y189501D03*
Y180839D03*
X883870Y411501D03*
Y402839D03*
X841170Y224201D03*
Y215539D03*
G54D107*
X788039Y426370D03*
X796701D03*
X1160301Y173570D03*
X1151639D03*
X1046039Y86470D03*
X1054701D03*
X1003339Y237070D03*
X1012001D03*
X984339D03*
X993001D03*
X960739D03*
X969401D03*
X932039Y221170D03*
X940701D03*
X969639Y119070D03*
X978301D03*
X1151539Y267570D03*
X1160201D03*
G54D108*
X871870Y387170D03*
X866870D03*
X861870D03*
X856870D03*
X851870D03*
X846870D03*
X841870D03*
X836870D03*
Y427170D03*
X841870D03*
X846870D03*
X851870D03*
X856870D03*
X861870D03*
X866870D03*
X871870D03*
G54D109*
X803170Y413770D03*
Y408770D03*
Y403770D03*
Y398770D03*
X780570D03*
Y403770D03*
Y408770D03*
Y413770D03*
X1167170Y251070D03*
Y246070D03*
Y241070D03*
Y236070D03*
X1144570D03*
Y241070D03*
Y246070D03*
Y251070D03*
X1167170Y201070D03*
Y196070D03*
Y191070D03*
Y186070D03*
X1144570D03*
Y191070D03*
Y196070D03*
Y201070D03*
G54D120*
X948229Y159506D03*
Y161475D03*
Y163443D03*
Y165412D03*
Y167380D03*
Y169349D03*
Y171317D03*
Y173286D03*
Y175254D03*
Y177223D03*
Y179191D03*
Y181160D03*
Y183128D03*
Y185097D03*
Y187065D03*
Y189034D03*
X993111D03*
Y187065D03*
Y185097D03*
Y183128D03*
Y181160D03*
Y179191D03*
Y177223D03*
Y175254D03*
Y173286D03*
Y171317D03*
Y169349D03*
Y167380D03*
Y165412D03*
Y163443D03*
Y161475D03*
Y159506D03*
G54D121*
X955906Y196711D03*
X957875D03*
X959843D03*
X961812D03*
X963780D03*
X965749D03*
X967717D03*
X969686D03*
X971654D03*
X973623D03*
X975591D03*
X977560D03*
X979528D03*
X981497D03*
X983465D03*
X985434D03*
Y151829D03*
X983465D03*
X981497D03*
X979528D03*
X977560D03*
X975591D03*
X973623D03*
X971654D03*
X969686D03*
X967717D03*
X965749D03*
X963780D03*
X961812D03*
X959843D03*
X957875D03*
X955906D03*
G54D122*
X830770Y205370D03*
X825770D03*
X820770D03*
X815770D03*
X810770D03*
X805770D03*
X800770D03*
X795770D03*
Y234970D03*
X800770D03*
X805770D03*
X810770D03*
X815770D03*
X820770D03*
X825770D03*
X830770D03*
G74*
X0Y0D02*
M02*
