*
*
G04 PADS VX.2 Build Number: 5060570 generated Gerber (RS-274-X) file*
G04 PC Version=2.1*
*
%IN "HFC3100D_Main LCD Displ"*%
*
%MOIN*%
*
%FSLAX35Y35*%
*
*
*
*
G04 PC Standard Apertures*
*
*
G04 Thermal Relief Aperture macro.*
%AMTER*
1,1,$1,0,0*
1,0,$1-$2,0,0*
21,0,$3,$4,0,0,45*
21,0,$3,$4,0,0,135*
%
*
*
G04 Annular Aperture macro.*
%AMANN*
1,1,$1,0,0*
1,0,$2,0,0*
%
*
*
G04 Odd Aperture macro.*
%AMODD*
1,1,$1,0,0*
1,0,$1-0.005,0,0*
%
*
*
G04 PC Custom Aperture Macros*
*
*
*
*
*
*
G04 PC Aperture Table*
*
%ADD010C,0.001*%
%ADD011C,0.012*%
%ADD014C,0.01*%
%ADD016C,0.01181*%
%ADD038C,0.08*%
%ADD085C,0.00591*%
%ADD091C,0.00787*%
*
*
*
*
G04 PC Circuitry*
G04 Layer Name HFC3100D_Main LCD Displ - circuitry*
%LPD*%
*
*
G04 PC Custom Flashes*
G04 Layer Name HFC3100D_Main LCD Displ - flashes*
%LPD*%
*
*
G04 PC Circuitry*
G04 Layer Name HFC3100D_Main LCD Displ - circuitry*
%LPD*%
*
G54D10*
G54D11*
G01X72750Y58970D02*
G75*
G03X72750I-13780J0D01*
G01X637850D02*
G03X637850I-13780J0D01*
G01X1222550D02*
G03X1222550I-13780J0D01*
G01Y437070D02*
G03X1222550I-13780J0D01*
G01X72750D02*
G03X72750I-13780J0D01*
G01X498450Y219370D02*
G03X498450I-13780J0D01*
G01X637850Y437070D02*
G03X637850I-13780J0D01*
G54D14*
G01X488471Y143070D02*
G03X488471I-3801J0D01*
G01X478670Y152070D02*
G03X475670Y149070I288J-3288D01*
G01X478670Y152070D02*
X490670D01*
X493670Y149070D02*
G03X490670Y152070I-3288J-288D01*
G01X493670Y149070D02*
Y137070D01*
X490670Y134070D02*
G03X493670Y137070I-288J3288D01*
G01X490670Y134070D02*
X478670D01*
X475670Y137070D02*
G03X478670Y134070I3288J288D01*
G01X475670Y137070D02*
Y149070D01*
X146971Y123170D02*
G03X146971I-3801J0D01*
G01X137170Y132170D02*
G03X134170Y129170I288J-3288D01*
G01X137170Y132170D02*
X149170D01*
X152170Y129170D02*
G03X149170Y132170I-3288J-288D01*
G01X152170Y129170D02*
Y117170D01*
X149170Y114170D02*
G03X152170Y117170I-288J3288D01*
G01X149170Y114170D02*
X137170D01*
X134170Y117170D02*
G03X137170Y114170I3288J288D01*
G01X134170Y117170D02*
Y129170D01*
X204971Y123170D02*
G03X204971I-3801J0D01*
G01X195170Y132170D02*
G03X192170Y129170I288J-3288D01*
G01X195170Y132170D02*
X207170D01*
X210170Y129170D02*
G03X207170Y132170I-3288J-288D01*
G01X210170Y129170D02*
Y117170D01*
X207170Y114170D02*
G03X210170Y117170I-288J3288D01*
G01X207170Y114170D02*
X195170D01*
X192170Y117170D02*
G03X195170Y114170I3288J288D01*
G01X192170Y117170D02*
Y129170D01*
X378771Y123170D02*
G03X378771I-3801J0D01*
G01X368970Y132170D02*
G03X365970Y129170I288J-3288D01*
G01X368970Y132170D02*
X380970D01*
X383970Y129170D02*
G03X380970Y132170I-3288J-288D01*
G01X383970Y129170D02*
Y117170D01*
X380970Y114170D02*
G03X383970Y117170I-288J3288D01*
G01X380970Y114170D02*
X368970D01*
X365970Y117170D02*
G03X368970Y114170I3288J288D01*
G01X365970Y117170D02*
Y129170D01*
X320871Y123170D02*
G03X320871I-3801J0D01*
G01X311070Y132170D02*
G03X308070Y129170I288J-3288D01*
G01X311070Y132170D02*
X323070D01*
X326070Y129170D02*
G03X323070Y132170I-3288J-288D01*
G01X326070Y129170D02*
Y117170D01*
X323070Y114170D02*
G03X326070Y117170I-288J3288D01*
G01X323070Y114170D02*
X311070D01*
X308070Y117170D02*
G03X311070Y114170I3288J288D01*
G01X308070Y117170D02*
Y129170D01*
X262871Y123170D02*
G03X262871I-3801J0D01*
G01X253070Y132170D02*
G03X250070Y129170I288J-3288D01*
G01X253070Y132170D02*
X265070D01*
X268070Y129170D02*
G03X265070Y132170I-3288J-288D01*
G01X268070Y129170D02*
Y117170D01*
X265070Y114170D02*
G03X268070Y117170I-288J3288D01*
G01X265070Y114170D02*
X253070D01*
X250070Y117170D02*
G03X253070Y114170I3288J288D01*
G01X250070Y117170D02*
Y129170D01*
X674671Y143070D02*
G03X674671I-3801J0D01*
G01X664870Y152070D02*
G03X661870Y149070I288J-3288D01*
G01X664870Y152070D02*
X676870D01*
X679870Y149070D02*
G03X676870Y152070I-3288J-288D01*
G01X679870Y149070D02*
Y137070D01*
X676870Y134070D02*
G03X679870Y137070I-288J3288D01*
G01X676870Y134070D02*
X664870D01*
X661870Y137070D02*
G03X664870Y134070I3288J288D01*
G01X661870Y137070D02*
Y149070D01*
X515570Y342270D02*
G03X515570I-8000J0D01*
G01X515577Y348260D02*
G03X515567Y336266I-8007J-5990D01*
G01X515570Y348270D02*
Y336270D01*
X503570Y346270D02*
X511570D01*
X506570Y348270D02*
Y344270D01*
X508570Y346270*
X506570Y348270*
X508570D02*
Y344270D01*
X506570Y347270D02*
Y345270D01*
X507570Y346270*
X506570Y347270*
X515570Y263470D02*
G03X515570I-8000J0D01*
G01X515577Y269460D02*
G03X515567Y257466I-8007J-5990D01*
G01X515570Y269470D02*
Y257470D01*
X503570Y267470D02*
X511570D01*
X506570Y269470D02*
Y265470D01*
X508570Y267470*
X506570Y269470*
X508570D02*
Y265470D01*
X506570Y268470D02*
Y266470D01*
X507570Y267470*
X506570Y268470*
X700670Y263470D02*
G03X700670I-8000J0D01*
G01X700677Y269460D02*
G03X700667Y257466I-8007J-5990D01*
G01X700670Y269470D02*
Y257470D01*
X688670Y267470D02*
X696670D01*
X691670Y269470D02*
Y265470D01*
X693670Y267470*
X691670Y269470*
X693670D02*
Y265470D01*
X691670Y268470D02*
Y266470D01*
X692670Y267470*
X691670Y268470*
X700670Y342270D02*
G03X700670I-8000J0D01*
G01X700677Y348260D02*
G03X700667Y336266I-8007J-5990D01*
G01X700670Y348270D02*
Y336270D01*
X688670Y346270D02*
X696670D01*
X691670Y348270D02*
Y344270D01*
X693670Y346270*
X691670Y348270*
X693670D02*
Y344270D01*
X691670Y347270D02*
Y345270D01*
X692670Y346270*
X691670Y347270*
X773570Y342270D02*
G03X773570I-8000J0D01*
G01X773577Y348260D02*
G03X773567Y336266I-8007J-5990D01*
G01X773570Y348270D02*
Y336270D01*
X761570Y346270D02*
X769570D01*
X764570Y348270D02*
Y344270D01*
X766570Y346270*
X764570Y348270*
X766570D02*
Y344270D01*
X764570Y347270D02*
Y345270D01*
X765570Y346270*
X764570Y347270*
X773570Y263470D02*
G03X773570I-8000J0D01*
G01X773577Y269460D02*
G03X773567Y257466I-8007J-5990D01*
G01X773570Y269470D02*
Y257470D01*
X761570Y267470D02*
X769570D01*
X764570Y269470D02*
Y265470D01*
X766570Y267470*
X764570Y269470*
X766570D02*
Y265470D01*
X764570Y268470D02*
Y266470D01*
X765570Y267470*
X764570Y268470*
X820870Y302870D02*
G03X820870I-8000J0D01*
G01X820877Y308860D02*
G03X820867Y296866I-8007J-5990D01*
G01X820870Y308870D02*
Y296870D01*
X808870Y306870D02*
X816870D01*
X811870Y308870D02*
Y304870D01*
X813870Y306870*
X811870Y308870*
X813870D02*
Y304870D01*
X811870Y307870D02*
Y305870D01*
X812870Y306870*
X811870Y307870*
X775470Y112770D02*
G03X775470I-8000J0D01*
G01X775477Y118760D02*
G03X775467Y106766I-8007J-5990D01*
G01X775470Y118770D02*
Y106770D01*
X763470Y116770D02*
X771470D01*
X766470Y118770D02*
Y114770D01*
X768470Y116770*
X766470Y118770*
X768470D02*
Y114770D01*
X766470Y117770D02*
Y115770D01*
X767470Y116770*
X766470Y117770*
X775470Y171770D02*
G03X775470I-8000J0D01*
G01X775477Y177760D02*
G03X775467Y165766I-8007J-5990D01*
G01X775470Y177770D02*
Y165770D01*
X763470Y175770D02*
X771470D01*
X766470Y177770D02*
Y173770D01*
X768470Y175770*
X766470Y177770*
X768470D02*
Y173770D01*
X766470Y176770D02*
Y174770D01*
X767470Y175770*
X766470Y176770*
X1080970Y330470D02*
G03X1080970I-8000J0D01*
G01X1080977Y336460D02*
G03X1080967Y324466I-8007J-5990D01*
G01X1080970Y336470D02*
Y324470D01*
X1068970Y334470D02*
X1076970D01*
X1071970Y336470D02*
Y332470D01*
X1073970Y334470*
X1071970Y336470*
X1073970D02*
Y332470D01*
X1071970Y335470D02*
Y333470D01*
X1072970Y334470*
X1071970Y335470*
X1080970Y275270D02*
G03X1080970I-8000J0D01*
G01X1080977Y281260D02*
G03X1080967Y269266I-8007J-5990D01*
G01X1080970Y281270D02*
Y269270D01*
X1068970Y279270D02*
X1076970D01*
X1071970Y281270D02*
Y277270D01*
X1073970Y279270*
X1071970Y281270*
X1073970D02*
Y277270D01*
X1071970Y280270D02*
Y278270D01*
X1072970Y279270*
X1071970Y280270*
X899670Y263470D02*
G03X899670I-8000J0D01*
G01X899677Y269460D02*
G03X899667Y257466I-8007J-5990D01*
G01X899670Y269470D02*
Y257470D01*
X887670Y267470D02*
X895670D01*
X890670Y269470D02*
Y265470D01*
X892670Y267470*
X890670Y269470*
X892670D02*
Y265470D01*
X890670Y268470D02*
Y266470D01*
X891670Y267470*
X890670Y268470*
X899670Y342270D02*
G03X899670I-8000J0D01*
G01X899677Y348260D02*
G03X899667Y336266I-8007J-5990D01*
G01X899670Y348270D02*
Y336270D01*
X887670Y346270D02*
X895670D01*
X890670Y348270D02*
Y344270D01*
X892670Y346270*
X890670Y348270*
X892670D02*
Y344270D01*
X890670Y347270D02*
Y345270D01*
X891670Y346270*
X890670Y347270*
X588270Y171770D02*
G03X588270I-8000J0D01*
G01X588277Y177760D02*
G03X588267Y165766I-8007J-5990D01*
G01X588270Y177770D02*
Y165770D01*
X576270Y175770D02*
X584270D01*
X579270Y177770D02*
Y173770D01*
X581270Y175770*
X579270Y177770*
X581270D02*
Y173770D01*
X579270Y176770D02*
Y174770D01*
X580270Y175770*
X579270Y176770*
X588270Y112670D02*
G03X588270I-8000J0D01*
G01X588277Y118660D02*
G03X588267Y106666I-8007J-5990D01*
G01X588270Y118670D02*
Y106670D01*
X576270Y116670D02*
X584270D01*
X579270Y118670D02*
Y114670D01*
X581270Y116670*
X579270Y118670*
X581270D02*
Y114670D01*
X579270Y117670D02*
Y115670D01*
X580270Y116670*
X579270Y117670*
X480552Y162995D02*
X480097Y163620D01*
X479416Y163933*
X478506*
X477825Y163620*
X477370Y162995*
Y162370*
X477597Y161745*
X477825Y161433*
X478279Y161120*
X479643Y160495*
X480097Y160183*
X480325Y159870*
X480552Y159245*
Y158308*
X480097Y157683*
X479416Y157370*
X478506*
X477825Y157683*
X477370Y158308*
X482597Y163933D02*
X483734Y157370D01*
X484870Y163933D02*
X483734Y157370D01*
X484870Y163933D02*
X486006Y157370D01*
X487143Y163933D02*
X486006Y157370D01*
X491916Y162995D02*
X491688Y163620D01*
X491006Y163933*
X490552*
X489870Y163620*
X489416Y162683*
X489188Y161120*
Y159558*
X489416Y158308*
X489870Y157683*
X490552Y157370*
X490779*
X491461Y157683*
X491916Y158308*
X492143Y159245*
Y159558*
X491916Y160495*
X491461Y161120*
X490779Y161433*
X490552*
X489870Y161120*
X489416Y160495*
X489188Y159558*
X139652Y141895D02*
X139197Y142520D01*
X138516Y142833*
X137606*
X136925Y142520*
X136470Y141895*
Y141270*
X136697Y140645*
X136925Y140333*
X137379Y140020*
X138743Y139395*
X139197Y139083*
X139425Y138770*
X139652Y138145*
Y137208*
X139197Y136583*
X138516Y136270*
X137606*
X136925Y136583*
X136470Y137208*
X141697Y142833D02*
X142834Y136270D01*
X143970Y142833D02*
X142834Y136270D01*
X143970Y142833D02*
X145106Y136270D01*
X146243Y142833D02*
X145106Y136270D01*
X148288Y141583D02*
X148743Y141895D01*
X149425Y142833*
Y136270*
X196552Y141895D02*
X196097Y142520D01*
X195416Y142833*
X194506*
X193825Y142520*
X193370Y141895*
Y141270*
X193597Y140645*
X193825Y140333*
X194279Y140020*
X195643Y139395*
X196097Y139083*
X196325Y138770*
X196552Y138145*
Y137208*
X196097Y136583*
X195416Y136270*
X194506*
X193825Y136583*
X193370Y137208*
X198597Y142833D02*
X199734Y136270D01*
X200870Y142833D02*
X199734Y136270D01*
X200870Y142833D02*
X202006Y136270D01*
X203143Y142833D02*
X202006Y136270D01*
X205416Y141270D02*
Y141583D01*
X205643Y142208*
X205870Y142520*
X206325Y142833*
X207234*
X207688Y142520*
X207916Y142208*
X208143Y141583*
Y140958*
X207916Y140333*
X207461Y139395*
X205188Y136270*
X208370*
X371352Y140795D02*
X370897Y141420D01*
X370216Y141733*
X369306*
X368625Y141420*
X368170Y140795*
Y140170*
X368397Y139545*
X368625Y139233*
X369079Y138920*
X370443Y138295*
X370897Y137983*
X371125Y137670*
X371352Y137045*
Y136108*
X370897Y135483*
X370216Y135170*
X369306*
X368625Y135483*
X368170Y136108*
X373397Y141733D02*
X374534Y135170D01*
X375670Y141733D02*
X374534Y135170D01*
X375670Y141733D02*
X376806Y135170D01*
X377943Y141733D02*
X376806Y135170D01*
X380443Y141733D02*
X382943D01*
X381579Y139233*
X382261*
X382716Y138920*
X382943Y138608*
X383170Y137670*
Y137045*
X382943Y136108*
X382488Y135483*
X381806Y135170*
X381125*
X380443Y135483*
X380216Y135795*
X379988Y136420*
X313452Y140795D02*
X312997Y141420D01*
X312316Y141733*
X311406*
X310725Y141420*
X310270Y140795*
Y140170*
X310497Y139545*
X310725Y139233*
X311179Y138920*
X312543Y138295*
X312997Y137983*
X313225Y137670*
X313452Y137045*
Y136108*
X312997Y135483*
X312316Y135170*
X311406*
X310725Y135483*
X310270Y136108*
X315497Y141733D02*
X316634Y135170D01*
X317770Y141733D02*
X316634Y135170D01*
X317770Y141733D02*
X318906Y135170D01*
X320043Y141733D02*
X318906Y135170D01*
X324361Y141733D02*
X322088Y137358D01*
X325497*
X324361Y141733D02*
Y135170D01*
X255452Y140795D02*
X254997Y141420D01*
X254316Y141733*
X253406*
X252725Y141420*
X252270Y140795*
Y140170*
X252497Y139545*
X252725Y139233*
X253179Y138920*
X254543Y138295*
X254997Y137983*
X255225Y137670*
X255452Y137045*
Y136108*
X254997Y135483*
X254316Y135170*
X253406*
X252725Y135483*
X252270Y136108*
X257497Y141733D02*
X258634Y135170D01*
X259770Y141733D02*
X258634Y135170D01*
X259770Y141733D02*
X260906Y135170D01*
X262043Y141733D02*
X260906Y135170D01*
X267043Y141733D02*
X264770D01*
X264543Y138920*
X264770Y139233*
X265452Y139545*
X266134*
X266816Y139233*
X267270Y138608*
X267497Y137670*
X267270Y137045*
X267043Y136108*
X266588Y135483*
X265906Y135170*
X265225*
X264543Y135483*
X264316Y135795*
X264088Y136420*
X666752Y161695D02*
X666297Y162320D01*
X665616Y162633*
X664706*
X664025Y162320*
X663570Y161695*
Y161070*
X663797Y160445*
X664025Y160133*
X664479Y159820*
X665843Y159195*
X666297Y158883*
X666525Y158570*
X666752Y157945*
Y157008*
X666297Y156383*
X665616Y156070*
X664706*
X664025Y156383*
X663570Y157008*
X668797Y162633D02*
X669934Y156070D01*
X671070Y162633D02*
X669934Y156070D01*
X671070Y162633D02*
X672206Y156070D01*
X673343Y162633D02*
X672206Y156070D01*
X678570Y162633D02*
X676297Y156070D01*
X675388Y162633D02*
X678570D01*
X909370Y395933D02*
Y389370D01*
Y395933D02*
X911416D01*
X912097Y395620*
X912325Y395308*
X912552Y394683*
Y393745*
X912325Y393120*
X912097Y392808*
X911416Y392495*
X909370*
X916416Y395933D02*
X914597Y389370D01*
X916416Y395933D02*
X918234Y389370D01*
X915279Y391558D02*
X917552D01*
X920279Y395933D02*
Y389370D01*
Y395933D02*
X922325D01*
X923006Y395620*
X923234Y395308*
X923461Y394683*
Y394058*
X923234Y393433*
X923006Y393120*
X922325Y392808*
X920279*
X921870D02*
X923461Y389370D01*
X927097Y395933D02*
Y389370D01*
X925506Y395933D02*
X928688D01*
X941416Y393745D02*
X941188Y393433D01*
X941416Y393120*
X941643Y393433*
X941416Y393745*
Y389995D02*
X941188Y389683D01*
X941416Y389370*
X941643Y389683*
X941416Y389995*
X948916Y395933D02*
Y389370D01*
Y395933D02*
X950734Y389370D01*
X952552Y395933D02*
X950734Y389370D01*
X952552Y395933D02*
Y389370D01*
X957325Y393745D02*
Y389370D01*
Y392808D02*
X956870Y393433D01*
X956416Y393745*
X955734*
X955279Y393433*
X954825Y392808*
X954597Y391870*
Y391245*
X954825Y390308*
X955279Y389683*
X955734Y389370*
X956416*
X956870Y389683*
X957325Y390308*
X959370Y395933D02*
X959597Y395620D01*
X959825Y395933*
X959597Y396245*
X959370Y395933*
X959597Y393745D02*
Y389370D01*
X961870Y393745D02*
Y389370D01*
Y392495D02*
X962552Y393433D01*
X963006Y393745*
X963688*
X964143Y393433*
X964370Y392495*
Y389370*
X971643Y395933D02*
Y389370D01*
X974370*
X979825Y394370D02*
X979597Y394995D01*
X979143Y395620*
X978688Y395933*
X977779*
X977325Y395620*
X976870Y394995*
X976643Y394370*
X976416Y393433*
Y391870*
X976643Y390933*
X976870Y390308*
X977325Y389683*
X977779Y389370*
X978688*
X979143Y389683*
X979597Y390308*
X979825Y390933*
X981870Y395933D02*
Y389370D01*
Y395933D02*
X983461D01*
X984143Y395620*
X984597Y394995*
X984825Y394370*
X985052Y393433*
Y391870*
X984825Y390933*
X984597Y390308*
X984143Y389683*
X983461Y389370*
X981870*
X992325Y395933D02*
Y389370D01*
Y395933D02*
X993916D01*
X994597Y395620*
X995052Y394995*
X995279Y394370*
X995506Y393433*
Y391870*
X995279Y390933*
X995052Y390308*
X994597Y389683*
X993916Y389370*
X992325*
X997552Y395933D02*
X997779Y395620D01*
X998006Y395933*
X997779Y396245*
X997552Y395933*
X997779Y393745D02*
Y389370D01*
X1002552Y392808D02*
X1002325Y393433D01*
X1001643Y393745*
X1000961*
X1000279Y393433*
X1000052Y392808*
X1000279Y392183*
X1000734Y391870*
X1001870Y391558*
X1002325Y391245*
X1002552Y390620*
Y390308*
X1002325Y389683*
X1001643Y389370*
X1000961*
X1000279Y389683*
X1000052Y390308*
X1004597Y393745D02*
Y387183D01*
Y392808D02*
X1005052Y393433D01*
X1005506Y393745*
X1006188*
X1006643Y393433*
X1007097Y392808*
X1007325Y391870*
Y391245*
X1007097Y390308*
X1006643Y389683*
X1006188Y389370*
X1005506*
X1005052Y389683*
X1004597Y390308*
X1009370Y395933D02*
Y389370D01*
X1014143Y393745D02*
Y389370D01*
Y392808D02*
X1013688Y393433D01*
X1013234Y393745*
X1012552*
X1012097Y393433*
X1011643Y392808*
X1011416Y391870*
Y391245*
X1011643Y390308*
X1012097Y389683*
X1012552Y389370*
X1013234*
X1013688Y389683*
X1014143Y390308*
X1016416Y393745D02*
X1017779Y389370D01*
X1019143Y393745D02*
X1017779Y389370D01*
X1017325Y388120*
X1016870Y387495*
X1016416Y387183*
X1016188*
X1026416Y395933D02*
Y389370D01*
Y395933D02*
X1028461D01*
X1029143Y395620*
X1029370Y395308*
X1029597Y394683*
Y394058*
X1029370Y393433*
X1029143Y393120*
X1028461Y392808*
X1026416D02*
X1028461D01*
X1029143Y392495*
X1029370Y392183*
X1029597Y391558*
Y390620*
X1029370Y389995*
X1029143Y389683*
X1028461Y389370*
X1026416*
X1035734Y397183D02*
X1031643Y387183D01*
X1037779Y395933D02*
Y389370D01*
Y395933D02*
X1039370D01*
X1040052Y395620*
X1040506Y394995*
X1040734Y394370*
X1040961Y393433*
Y391870*
X1040734Y390933*
X1040506Y390308*
X1040052Y389683*
X1039370Y389370*
X1037779*
X909370Y405933D02*
Y399370D01*
Y405933D02*
X911188Y399370D01*
X913006Y405933D02*
X911188Y399370D01*
X913006Y405933D02*
Y399370D01*
X916416Y405933D02*
X915961Y405620D01*
X915506Y404995*
X915279Y404370*
X915052Y403433*
Y401870*
X915279Y400933*
X915506Y400308*
X915961Y399683*
X916416Y399370*
X917325*
X917779Y399683*
X918234Y400308*
X918461Y400933*
X918688Y401870*
Y403433*
X918461Y404370*
X918234Y404995*
X917779Y405620*
X917325Y405933*
X916416*
X920734D02*
Y399370D01*
Y405933D02*
X922325D01*
X923006Y405620*
X923461Y404995*
X923688Y404370*
X923916Y403433*
Y401870*
X923688Y400933*
X923461Y400308*
X923006Y399683*
X922325Y399370*
X920734*
X925961Y405933D02*
Y399370D01*
Y405933D02*
X928916D01*
X925961Y402808D02*
X927779D01*
X925961Y399370D02*
X928916D01*
X930961Y405933D02*
Y399370D01*
X933688*
X941188Y403745D02*
X940961Y403433D01*
X941188Y403120*
X941416Y403433*
X941188Y403745*
Y399995D02*
X940961Y399683D01*
X941188Y399370*
X941416Y399683*
X941188Y399995*
X948688Y405933D02*
Y399370D01*
X951870Y405933D02*
Y399370D01*
X948688Y402808D02*
X951870D01*
X953916Y405933D02*
Y399370D01*
Y405933D02*
X956870D01*
X953916Y402808D02*
X955734D01*
X962325Y404370D02*
X962097Y404995D01*
X961643Y405620*
X961188Y405933*
X960279*
X959825Y405620*
X959370Y404995*
X959143Y404370*
X958916Y403433*
Y401870*
X959143Y400933*
X959370Y400308*
X959825Y399683*
X960279Y399370*
X961188*
X961643Y399683*
X962097Y400308*
X962325Y400933*
X964370Y402183D02*
X968461D01*
X970961Y405933D02*
X973461D01*
X972097Y403433*
X972779*
X973234Y403120*
X973461Y402808*
X973688Y401870*
Y401245*
X973461Y400308*
X973006Y399683*
X972325Y399370*
X971643*
X970961Y399683*
X970734Y399995*
X970506Y400620*
X975734Y404683D02*
X976188Y404995D01*
X976870Y405933*
Y399370*
X980279Y405933D02*
X979597Y405620D01*
X979143Y404683*
X978916Y403120*
Y402183*
X979143Y400620*
X979597Y399683*
X980279Y399370*
X980734*
X981416Y399683*
X981870Y400620*
X982097Y402183*
Y403120*
X981870Y404683*
X981416Y405620*
X980734Y405933*
X980279*
X985506D02*
X984825Y405620D01*
X984370Y404683*
X984143Y403120*
Y402183*
X984370Y400620*
X984825Y399683*
X985506Y399370*
X985961*
X986643Y399683*
X987097Y400620*
X987325Y402183*
Y403120*
X987097Y404683*
X986643Y405620*
X985961Y405933*
X985506*
X989370D02*
Y399370D01*
Y405933D02*
X990961D01*
X991643Y405620*
X992097Y404995*
X992325Y404370*
X992552Y403433*
Y401870*
X992325Y400933*
X992097Y400308*
X991643Y399683*
X990961Y399370*
X989370*
X953128Y431014D02*
X952591Y431752D01*
X951786Y432121*
X950712*
X949907Y431752*
X949370Y431014*
Y430276*
X949639Y429537*
X949907Y429168*
X950444Y428799*
X952054Y428061*
X952591Y427692*
X952860Y427323*
X953128Y426585*
Y425477*
X952591Y424739*
X951786Y424370*
X950712*
X949907Y424739*
X949370Y425477*
X955544Y427323D02*
X958765D01*
Y428061*
X958497Y428799*
X958228Y429168*
X957691Y429537*
X956886*
X956349Y429168*
X955812Y428430*
X955544Y427323*
Y426585*
X955812Y425477*
X956349Y424739*
X956886Y424370*
X957691*
X958228Y424739*
X958765Y425477*
X962523Y429537D02*
X961986Y429168D01*
X961450Y428430*
X961181Y427323*
Y426585*
X961450Y425477*
X961986Y424739*
X962523Y424370*
X963329*
X963865Y424739*
X964402Y425477*
X964671Y426585*
Y427323*
X964402Y428430*
X963865Y429168*
X963329Y429537*
X962523*
X967087D02*
Y425846D01*
X967355Y424739*
X967892Y424370*
X968697*
X969234Y424739*
X970039Y425846*
Y429537D02*
Y424370D01*
X972455Y432121D02*
Y424370D01*
X981045Y432121D02*
Y424370D01*
Y432121D02*
X984535D01*
X981045Y428430D02*
X983193D01*
X981045Y424370D02*
X984535D01*
X986951Y432121D02*
Y424370D01*
X989366Y427323D02*
X992588D01*
Y428061*
X992319Y428799*
X992051Y429168*
X991514Y429537*
X990709*
X990172Y429168*
X989635Y428430*
X989366Y427323*
X989366D02*
Y426585D01*
X989366D02*
X989635Y425477D01*
X990172Y424739*
X990709Y424370*
X991514*
X992051Y424739*
X992588Y425477*
X998225Y428430D02*
X997688Y429168D01*
X997151Y429537*
X996346*
X995809Y429168*
X995272Y428430*
X995004Y427323*
Y426585*
X995272Y425477*
X995809Y424739*
X996346Y424370*
X997151*
X997688Y424739*
X998225Y425477*
X1001446Y432121D02*
Y425846D01*
X1001714Y424739*
X1002251Y424370*
X1002788*
X1000641Y429537D02*
X1002520D01*
X1005204D02*
Y424370D01*
Y427323D02*
X1005472Y428430D01*
X1006009Y429168*
X1006546Y429537*
X1007351*
X1009767Y432121D02*
X1010036Y431752D01*
X1010304Y432121*
X1010036Y432490*
X1009767Y432121*
X1010036Y429537D02*
Y424370D01*
X1015941Y428430D02*
X1015404Y429168D01*
X1014868Y429537*
X1014062*
X1013525Y429168*
X1012989Y428430*
X1012720Y427323*
Y426585*
X1012989Y425477*
X1013525Y424739*
X1014062Y424370*
X1014868*
X1015404Y424739*
X1015941Y425477*
X1024531Y432121D02*
Y424370D01*
Y432121D02*
X1026947D01*
X1027752Y431752*
X1028021Y431383*
X1028289Y430645*
Y429537*
X1028021Y428799*
X1027752Y428430*
X1026947Y428061*
X1024531*
X1032047Y429537D02*
X1031510Y429168D01*
X1030974Y428430*
X1030705Y427323*
Y426585*
X1030974Y425477*
X1031510Y424739*
X1032047Y424370*
X1032853*
X1033389Y424739*
X1033926Y425477*
X1034195Y426585*
Y427323*
X1033926Y428430*
X1033389Y429168*
X1032853Y429537*
X1032047*
X1036611D02*
X1037684Y424370D01*
X1038758Y429537D02*
X1037684Y424370D01*
X1038758Y429537D02*
X1039832Y424370D01*
X1040906Y429537D02*
X1039832Y424370D01*
X1043321Y427323D02*
X1046543D01*
Y428061*
X1046274Y428799*
X1046006Y429168*
X1045469Y429537*
X1044664*
X1044127Y429168*
X1043590Y428430*
X1043321Y427323*
Y426585*
X1043590Y425477*
X1044127Y424739*
X1044664Y424370*
X1045469*
X1046006Y424739*
X1046543Y425477*
X1048958Y429537D02*
Y424370D01*
Y427323D02*
X1049227Y428430D01*
X1049764Y429168*
X1050301Y429537*
X1051106*
X953128Y421014D02*
X952591Y421752D01*
X951786Y422121*
X950712*
X949907Y421752*
X949370Y421014*
Y420276*
X949639Y419537*
X949907Y419168*
X950444Y418799*
X952054Y418061*
X952591Y417692*
X952860Y417323*
X953128Y416585*
Y415477*
X952591Y414739*
X951786Y414370*
X950712*
X949907Y414739*
X949370Y415477*
X955812Y419537D02*
X957423Y414370D01*
X959034Y419537D02*
X957423Y414370D01*
X956886Y412894*
X956349Y412156*
X955812Y411786*
X955544*
X964402Y418430D02*
X964134Y419168D01*
X963329Y419537*
X962523*
X961718Y419168*
X961450Y418430*
X961718Y417692*
X962255Y417323*
X963597Y416954*
X964134Y416585*
X964402Y415846*
Y415477*
X964134Y414739*
X963329Y414370*
X962523*
X961718Y414739*
X961450Y415477*
X967623Y422121D02*
Y415846D01*
X967892Y414739*
X968429Y414370*
X968966*
X966818Y419537D02*
X968697D01*
X971382Y417323D02*
X974603D01*
Y418061*
X974334Y418799*
X974066Y419168*
X973529Y419537*
X972724*
X972187Y419168*
X971650Y418430*
X971382Y417323*
Y416585*
X971650Y415477*
X972187Y414739*
X972724Y414370*
X973529*
X974066Y414739*
X974603Y415477*
X977019Y419537D02*
Y414370D01*
Y418061D02*
X977824Y419168D01*
X978361Y419537*
X979166*
X979703Y419168*
X979971Y418061*
Y414370*
Y418061D02*
X980777Y419168D01*
X981314Y419537*
X982119*
X982656Y419168*
X982924Y418061*
Y414370*
X995540Y420276D02*
X995272Y421014D01*
X994735Y421752*
X994198Y422121*
X993125*
X992588Y421752*
X992051Y421014*
X991782Y420276*
X991514Y419168*
Y417323*
X991782Y416216*
X992051Y415477*
X992588Y414739*
X993125Y414370*
X994198*
X994735Y414739*
X995272Y415477*
X995540Y416216*
X999298Y419537D02*
X998762Y419168D01*
X998225Y418430*
X997956Y417323*
Y416585*
X998225Y415477*
X998762Y414739*
X999298Y414370*
X1000104*
X1000641Y414739*
X1001178Y415477*
X1001446Y416585*
Y417323*
X1001178Y418430*
X1000641Y419168*
X1000104Y419537*
X999298*
X1004130Y415108D02*
X1003862Y414739D01*
X1004130Y414370*
X1004399Y414739*
X1004130Y415108*
X1012989Y422121D02*
Y414370D01*
X1016210Y422121D02*
Y415846D01*
X1016478Y414739*
X1017015Y414370*
X1017552*
X1015404Y419537D02*
X1017283D01*
X1023189Y422121D02*
Y414370D01*
Y418430D02*
X1022652Y419168D01*
X1022115Y419537*
X1021310*
X1020773Y419168*
X1020236Y418430*
X1019968Y417323*
Y416585*
X1020236Y415477*
X1020773Y414739*
X1021310Y414370*
X1022115*
X1022652Y414739*
X1023189Y415477*
X1025873Y415108D02*
X1025605Y414739D01*
X1025873Y414370*
X1026142Y414739*
X1025873Y415108*
X1029094Y414739D02*
X1028826Y414370D01*
X1028558Y414739*
X1028826Y415108*
X1029094Y414739*
Y414001*
X1028826Y413263*
X1028558Y412894*
X912870Y370558D02*
X912370Y371245D01*
X911620Y371589*
X910620*
X909870Y371245*
X909370Y370558*
Y369870*
X909620Y369183*
X909870Y368839*
X910370Y368495*
X911870Y367808*
X912370Y367464*
X912620Y367120*
X912870Y366433*
Y365401*
X912370Y364714*
X911620Y364370*
X910620*
X909870Y364714*
X909370Y365401*
X919620Y372964D02*
X915120Y361964D01*
X921870Y371589D02*
Y364370D01*
Y371589D02*
X925370Y364370D01*
Y371589D02*
Y364370D01*
X909370Y385933D02*
Y379370D01*
Y385933D02*
X912552Y379370D01*
Y385933D02*
Y379370D01*
X915961Y385933D02*
X915506Y385620D01*
X915052Y384995*
X914825Y384370*
X914597Y383433*
Y381870*
X914825Y380933*
X915052Y380308*
X915506Y379683*
X915961Y379370*
X916870*
X917325Y379683*
X917779Y380308*
X918006Y380933*
X918234Y381870*
Y383433*
X918006Y384370*
X917779Y384995*
X917325Y385620*
X916870Y385933*
X915961*
X941416Y383745D02*
X941188Y383433D01*
X941416Y383120*
X941643Y383433*
X941416Y383745*
Y379995D02*
X941188Y379683D01*
X941416Y379370*
X941643Y379683*
X941416Y379995*
X949143Y384370D02*
Y384683D01*
X949370Y385308*
X949597Y385620*
X950052Y385933*
X950961*
X951416Y385620*
X951643Y385308*
X951870Y384683*
Y384058*
X951643Y383433*
X951188Y382495*
X948916Y379370*
X952097*
X954370Y384370D02*
Y384683D01*
X954597Y385308*
X954825Y385620*
X955279Y385933*
X956188*
X956643Y385620*
X956870Y385308*
X957097Y384683*
Y384058*
X956870Y383433*
X956416Y382495*
X954143Y379370*
X957325*
X959370Y382183D02*
X963461D01*
X966870Y385933D02*
X966188Y385620D01*
X965734Y384683*
X965506Y383120*
Y382183*
X965734Y380620*
X966188Y379683*
X966870Y379370*
X967325*
X968006Y379683*
X968461Y380620*
X968688Y382183*
Y383120*
X968461Y384683*
X968006Y385620*
X967325Y385933*
X966870*
X973688D02*
X971416D01*
X971188Y383120*
X971416Y383433*
X972097Y383745*
X972779*
X973461Y383433*
X973916Y382808*
X974143Y381870*
X973916Y381245*
X973688Y380308*
X973234Y379683*
X972552Y379370*
X971870*
X971188Y379683*
X970961Y379995*
X970734Y380620*
X976188Y382183D02*
X980279D01*
X982779Y385933D02*
X985279D01*
X983916Y383433*
X984597*
X985052Y383120*
X985279Y382808*
X985506Y381870*
Y381245*
X985279Y380308*
X984825Y379683*
X984143Y379370*
X983461*
X982779Y379683*
X982552Y379995*
X982325Y380620*
X988916Y385933D02*
X988234Y385620D01*
X987779Y384683*
X987552Y383120*
Y382183*
X987779Y380620*
X988234Y379683*
X988916Y379370*
X989370*
X990052Y379683*
X990506Y380620*
X990734Y382183*
Y383120*
X990506Y384683*
X990052Y385620*
X989370Y385933*
X988916*
X998006D02*
Y379370D01*
Y385933D02*
X1000052D01*
X1000734Y385620*
X1000961Y385308*
X1001188Y384683*
Y384058*
X1000961Y383433*
X1000734Y383120*
X1000052Y382808*
X998006*
X999597D02*
X1001188Y379370D01*
X1003234Y381870D02*
X1005961D01*
Y382495*
X1005734Y383120*
X1005506Y383433*
X1005052Y383745*
X1004370*
X1003916Y383433*
X1003461Y382808*
X1003234Y381870*
Y381245*
X1003461Y380308*
X1003916Y379683*
X1004370Y379370*
X1005052*
X1005506Y379683*
X1005961Y380308*
X1008006Y383745D02*
X1009370Y379370D01*
X1010734Y383745D02*
X1009370Y379370D01*
X1013234Y385933D02*
X1015734D01*
X1014370Y383433*
X1015052*
X1015506Y383120*
X1015734Y382808*
X1015961Y381870*
Y381245*
X1015734Y380308*
X1015279Y379683*
X1014597Y379370*
X1013916*
X1013234Y379683*
X1013006Y379995*
X1012779Y380620*
X1018234Y379995D02*
X1018006Y379683D01*
X1018234Y379370*
X1018461Y379683*
X1018234Y379995*
X1021870Y385933D02*
X1021188Y385620D01*
X1020734Y384683*
X1020506Y383120*
Y382183*
X1020734Y380620*
X1021188Y379683*
X1021870Y379370*
X1022325*
X1023006Y379683*
X1023461Y380620*
X1023688Y382183*
Y383120*
X1023461Y384683*
X1023006Y385620*
X1022325Y385933*
X1021870*
X1218370Y39370D02*
G03X1228370Y49370I0J10000D01*
G01X1218370Y39370D02*
X49370D01*
X39370Y49370D02*
G03X49370Y39370I10000J0D01*
G01X39370Y49370D02*
Y446670D01*
X49370Y456670D02*
G03X39370Y446670I0J-10000D01*
G01X49370Y456670D02*
X1218370D01*
X1228370Y446670D02*
G03X1218370Y456670I-10000J0D01*
G01X1228370Y446670D02*
Y49370D01*
X87070Y381315D02*
X430370D01*
Y215115*
X87070*
Y381315*
X929370Y419370D02*
X929757Y418725D01*
X934532Y420015D02*
X934144Y419241D01*
X934403Y421435D02*
X934661Y420402D01*
X932338Y422983D02*
X934144Y421822D01*
X929757Y424273D02*
X931822Y422983D01*
X929628Y426725D02*
X929241Y424532D01*
X933628Y427112D02*
X933886Y426725D01*
X926144Y418983D02*
X925499Y418596D01*
X921757Y418725D02*
X921886Y418596D01*
X925370Y427241D02*
X925886Y426854D01*
X924080Y422983D02*
X924596D01*
X921112Y427112D02*
X922015D01*
X921112Y426854D02*
Y418854D01*
X911692Y419499D02*
X912208Y418725D01*
X916983Y419886D02*
X916725Y419370D01*
X916854Y421177D02*
X916983Y420531D01*
X915434Y422725D02*
X916854Y421693D01*
X913083Y423414D02*
X914918Y422854D01*
X912079Y424273D02*
X912853Y423499D01*
X911821Y426338D02*
Y424790D01*
X917370Y413563D02*
X916983D01*
X918531Y413434D02*
X917757D01*
X915176Y414467D02*
X914918D01*
X928338Y413563D02*
X928596D01*
X926402Y413434D02*
X927951D01*
X930402Y414467D02*
X930660D01*
X918918Y413047D02*
X926273D01*
X915563Y414209D02*
X930015D01*
X914015Y415112D02*
X931435D01*
X932725Y416144D02*
X933112D01*
X912595Y416273D02*
X913370D01*
X912853Y415886D02*
X932596D01*
X915950Y426983D02*
X916337D01*
X928467Y432661D02*
X928854D01*
X925112Y433564D02*
X925628D01*
X920208D02*
X924338D01*
X917499Y432790D02*
X927951D01*
X930531Y431758D02*
X930144D01*
X932209Y430854D02*
X931693D01*
X933112Y429693D02*
X933757D01*
X914918Y431887D02*
X915434D01*
X912208Y429822D02*
X912724D01*
X915821Y432016D02*
X929628D01*
X913499Y431112D02*
X931306D01*
X913111Y430080D02*
X931306D01*
X933112*
X935108Y420553D02*
X935080Y420312D01*
X935035Y420080*
X934970Y419858*
X934886Y419645*
X934786Y419441*
X934666Y419246*
X934528Y419062*
X934370Y418886*
X934195Y418720*
X934008Y418567*
X933814Y418432*
X933614Y418315*
X933409Y418216*
X933197Y418135*
X932981Y418072*
X932757Y418027*
X932528Y418000*
X932293Y417991*
X932039Y418004*
X931762Y418042*
X931463Y418104*
X931140Y418193*
X930586Y418379*
X930309Y418473*
X930130Y418454*
X929961Y418396*
X929802Y418299*
X929722Y418229*
X929623Y418126*
X929502Y417991*
X929375*
X928464Y420673*
X928685Y420791*
X928871Y420522*
X929047Y420276*
X929218Y420051*
X929379Y419850*
X929531Y419671*
X929676Y419513*
X929813Y419379*
X929940Y419267*
X930102Y419139*
X930272Y419019*
X930450Y418909*
X930636Y418807*
X930832Y418715*
X931035Y418631*
X931246Y418556*
X931467Y418489*
X931695Y418432*
X931933Y418383*
X932178Y418343*
X932338*
X932606Y418362*
X932854Y418422*
X933081Y418520*
X933290Y418659*
X933480Y418837*
X933618Y419010*
X933734Y419202*
X933830Y419414*
X933904Y419645*
X933957Y419894*
X933988Y420164*
X933999Y420451*
X933986Y420657*
X933944Y420851*
X933877Y421035*
X933782Y421206*
X933659Y421366*
X933510Y421516*
X933333Y421654*
X933129Y421782*
X932897Y421897*
X932639Y422001*
X932427Y422073*
X932217Y422144*
X932005Y422217*
X931795Y422289*
X931583Y422361*
X931373Y422433*
X931162Y422507*
X930952Y422579*
X930743Y422653*
X930533Y422726*
X930322Y422800*
X930113Y422873*
X929925Y422983*
X929749Y423103*
X929588Y423232*
X929442Y423370*
X929309Y423516*
X929189Y423672*
X929085Y423837*
X928993Y424010*
X928917Y424193*
X928854Y424386*
X928805Y424586*
X928770Y424796*
X928748Y425015*
X928742Y425244*
X928751Y425495*
X928778Y425734*
X928824Y425963*
X928889Y426179*
X928971Y426384*
X928971D02*
X929072Y426577D01*
X929191Y426759*
X929329Y426928*
X929485Y427085*
X929640Y427215*
X929806Y427332*
X929984Y427434*
X930175Y427523*
X930378Y427597*
X930592Y427659*
X930818Y427707*
X931055Y427742*
X931304Y427763*
X931566Y427769*
X931826Y427757*
X932079Y427723*
X932328Y427665*
X932815Y427528*
X933111Y427445*
X933215Y427417*
X933350Y427434*
X933476Y427481*
X933595Y427560*
X933884Y427821*
X934010*
X934772Y425231*
X934542Y425152*
X934397Y425378*
X934253Y425591*
X934110Y425794*
X933965Y425983*
X933819Y426160*
X933675Y426326*
X933529Y426481*
X933383Y426623*
X933237Y426754*
X933028Y426919*
X932815Y427061*
X932599Y427182*
X932379Y427281*
X932156Y427357*
X931928Y427413*
X931697Y427445*
X931462Y427457*
X931195Y427436*
X930947Y427374*
X930717Y427271*
X930507Y427126*
X930315Y426942*
X930177Y426760*
X930062Y426559*
X929974Y426335*
X929911Y426092*
X929872Y425827*
X929860Y425542*
X929873Y425344*
X929915Y425157*
X929982Y424981*
X930077Y424813*
X930200Y424657*
X930349Y424511*
X930526Y424375*
X930730Y424250*
X930962Y424137*
X931220Y424032*
X931430Y423959*
X931430D02*
X931640Y423885D01*
X931850Y423812*
X932059Y423738*
X932270Y423666*
X932480Y423592*
X932690Y423520*
X932902Y423448*
X933112Y423375*
X933322Y423303*
X933534Y423232*
X933746Y423160*
X933948Y423041*
X934135Y422911*
X934306Y422770*
X934459Y422621*
X934597Y422459*
X934720Y422289*
X934824Y422107*
X934915Y421916*
X934987Y421713*
X935044Y421502*
X935085Y421280*
X935110Y421046*
X935117Y420804*
X935108Y420553*
X917575D02*
X917548Y420312D01*
X917501Y420080*
X917437Y419858*
X917354Y419645*
X917254Y419441*
X917134Y419246*
X916995Y419062*
X916838Y418886*
X916664Y418720*
X916475Y418567*
X916282Y418432*
X916083Y418315*
X915878Y418216*
X915666Y418135*
X915448Y418072*
X915225Y418027*
X914997Y418000*
X914761Y417991*
X914508Y418004*
X914230Y418042*
X913931Y418104*
X913607Y418193*
X913331Y418286*
X913053Y418379*
X912777Y418473*
X912598Y418454*
X912429Y418396*
X912270Y418299*
X912191Y418229*
X912091Y418126*
X911971Y417991*
X911843*
X910932Y420673*
X911153Y420791*
X911339Y420522*
X911515Y420276*
X911686Y420051*
X911847Y419850*
X911999Y419671*
X912144Y419513*
X912280Y419379*
X912410Y419267*
X912571Y419139*
X912740Y419019*
X912918Y418909*
X913105Y418807*
X913300Y418715*
X913502Y418631*
X913715Y418556*
X913935Y418489*
X914163Y418432*
X914401Y418383*
X914646Y418343*
X914807*
X915074Y418362*
X915322Y418422*
X915550Y418520*
X915759Y418659*
X915948Y418837*
X916086Y419010*
X916202Y419202*
X916297Y419414*
X916371Y419645*
X916424Y419894*
X916456Y420164*
X916466Y420451*
X916452Y420657*
X916412Y420851*
X916344Y421035*
X916248Y421206*
X916126Y421366*
X915977Y421516*
X915799Y421654*
X915595Y421782*
X915364Y421897*
X915106Y422001*
X914895Y422073*
X914684Y422144*
X914473Y422217*
X914262Y422289*
X914052Y422361*
X913842Y422433*
X913632Y422507*
X913421Y422579*
X913211Y422653*
X913001Y422726*
X912790Y422800*
X912581Y422873*
X912393Y422983*
X912217Y423103*
X912056Y423232*
X911909Y423370*
X911776Y423516*
X911657Y423672*
X911551Y423837*
X911461Y424010*
X911384Y424193*
X911320Y424386*
X911271Y424586*
X911237Y424796*
X911216Y425015*
X911209Y425244*
X911219Y425495*
X911246Y425734*
X911292Y425963*
X911357Y426179*
X911439Y426384*
X911439D02*
X911540Y426577D01*
X911660Y426759*
X911797Y426928*
X911953Y427085*
X912108Y427215*
X912274Y427332*
X912453Y427434*
X912643Y427523*
X912846Y427597*
X913060Y427659*
X913286Y427707*
X913523Y427742*
X913773Y427763*
X914035Y427769*
X914293Y427757*
X914546Y427723*
X914794Y427665*
X915283Y427528*
X915579Y427445*
X915683Y427417*
X915817Y427434*
X915944Y427481*
X916063Y427560*
X916352Y427821*
X916478*
X917239Y425231*
X917008Y425152*
X916865Y425378*
X916721Y425591*
X916577Y425794*
X916433Y425983*
X916288Y426160*
X916143Y426326*
X915998Y426481*
X915852Y426623*
X915706Y426754*
X915497Y426919*
X915284Y427061*
X915068Y427182*
X914847Y427281*
X914624Y427357*
X914397Y427413*
X914166Y427445*
X913931Y427457*
X913662Y427436*
X913415Y427374*
X913185Y427271*
X912975Y427126*
X912784Y426942*
X912644Y426760*
X912531Y426559*
X912442Y426335*
X912379Y426092*
X912340Y425827*
X912328Y425542*
X912341Y425344*
X912382Y425157*
X912450Y424981*
X912545Y424813*
X912668Y424657*
X912817Y424511*
X912994Y424375*
X913199Y424250*
X913430Y424137*
X913688Y424032*
X913897Y423959*
X914108Y423885*
X914317Y423812*
X914527Y423738*
X914737Y423666*
X914948Y423592*
X915158Y423520*
X915368Y423448*
X915792Y423303*
X916002Y423232*
X916214Y423160*
X916417Y423041*
X916603Y422911*
X916774Y422770*
X916928Y422621*
X917065Y422459*
X917188Y422289*
X917292Y422107*
X917381Y421916*
X917455Y421713*
X917512Y421502*
X917552Y421280*
X917576Y421046*
X917585Y420804*
X917575Y420553*
X934215Y429636D02*
X934089Y429765D01*
X933960Y429893*
X933828Y430019*
X933694Y430145*
X933557Y430267*
X933419Y430388*
X933419D02*
X933277Y430510D01*
X933134Y430627*
X932990Y430745*
X932841Y430859*
X932691Y430973*
X932539Y431085*
X932386Y431195*
X932230Y431303*
X932071Y431410*
X931911Y431515*
X931750Y431618*
X931584Y431720*
X931418Y431820*
X931250Y431916*
X931080Y432013*
X930908Y432106*
X930734Y432198*
X930559Y432288*
X930382Y432376*
X930202Y432462*
X930022Y432546*
X929838Y432629*
X929654Y432709*
X929468Y432786*
X929280Y432862*
X929091Y432936*
X928900Y433007*
X928708Y433076*
X928513Y433145*
X928318Y433209*
X928121Y433272*
X927922Y433333*
X927722Y433391*
X927521Y433448*
X927318Y433502*
X927115Y433554*
X926909Y433603*
X926702Y433649*
X926494Y433694*
X926285Y433737*
X926074Y433776*
X925863Y433813*
X925650Y433848*
X925436Y433882*
X925222Y433911*
X925005Y433938*
X924788Y433964*
X924569Y433986*
X924351Y434005*
X924130Y434023*
X923908Y434038*
X923686Y434051*
X923463Y434060*
X923240Y434066*
X923015Y434070*
X922789Y434071*
X922563Y434070*
X922339Y434066*
X922114Y434060*
X921891Y434051*
X921669Y434038*
X921447Y434023*
X921228Y434005*
X921009Y433986*
X920790Y433964*
X920572Y433938*
X920357Y433911*
X920141Y433882*
X919927Y433848*
X919714Y433813*
X919503Y433776*
X919292Y433737*
X919083Y433694*
X918876Y433649*
X918669Y433603*
X918463Y433554*
X918259Y433502*
X918056Y433448*
X917855Y433391*
X917655Y433333*
X917456Y433272*
X917260Y433209*
X917064Y433145*
X916870Y433076*
X916678Y433007*
X916487Y432936*
X916297Y432862*
X916109Y432786*
X915923Y432709*
X915739Y432629*
X915557Y432546*
X915375Y432462*
X915197Y432376*
X915019Y432288*
X914843Y432198*
X914669Y432106*
X914497Y432013*
X914327Y431916*
X914159Y431820*
X913993Y431720*
X913829Y431618*
X913666Y431515*
X913506Y431410*
X913348Y431303*
X913191Y431195*
X913038Y431085*
X912886Y430973*
X912736Y430859*
X912589Y430745*
X912443Y430627*
X912300Y430510*
X912159Y430388*
X912159D02*
X912020Y430267D01*
X911884Y430145*
X911750Y430019*
X911619Y429893*
X911490Y429765*
X911362Y429636*
X911238Y429505*
X911115Y429373*
X910997Y429239*
X934582*
X934462Y429373*
X934341Y429505*
X934215Y429636*
X933662Y416082D02*
X933525Y415960D01*
X933387Y415838*
X933246Y415720*
X933103Y415601*
X932957Y415485*
X932810Y415371*
X932661Y415258*
X932508Y415147*
X932355Y415038*
X932199Y414930*
X932041Y414824*
X931881Y414720*
X931719Y414618*
X931555Y414517*
X931389Y414419*
X931389D02*
X931222Y414322D01*
X931051Y414227*
X930880Y414134*
X930707Y414042*
X930531Y413953*
X930355Y413865*
X930175Y413780*
X929996Y413696*
X929813Y413615*
X929629Y413536*
X929444Y413459*
X929257Y413383*
X929068Y413311*
X928877Y413240*
X928686Y413170*
X928493Y413103*
X928298Y413038*
X928100Y412976*
X927903Y412916*
X927704Y412858*
X927503Y412802*
X927302Y412749*
X927098Y412698*
X926893Y412649*
X926687Y412602*
X926480Y412557*
X926272Y412516*
X926062Y412476*
X925851Y412440*
X925638Y412405*
X925425Y412372*
X925211Y412343*
X924996Y412316*
X924780Y412290*
X924562Y412268*
X924344Y412249*
X924125Y412230*
X923904Y412216*
X923682Y412205*
X923460Y412196*
X923237Y412188*
X923014Y412184*
X922789Y412183*
X922563Y412184*
X922340Y412188*
X922117Y412196*
X921895Y412205*
X921673Y412216*
X921454Y412230*
X921234Y412249*
X921015Y412268*
X920798Y412290*
X920581Y412316*
X920366Y412343*
X920152Y412372*
X919939Y412405*
X919727Y412440*
X919516Y412476*
X919307Y412516*
X919097Y412557*
X918890Y412602*
X918685Y412649*
X918479Y412698*
X918277Y412749*
X918074Y412802*
X917874Y412858*
X917674Y412916*
X917477Y412976*
X917281Y413038*
X917086Y413103*
X916892Y413170*
X916700Y413240*
X916509Y413311*
X916321Y413383*
X916134Y413459*
X915948Y413536*
X915764Y413615*
X915583Y413696*
X915402Y413780*
X915223Y413865*
X915046Y413953*
X914870Y414042*
X914697Y414134*
X914526Y414227*
X914355Y414322*
X914188Y414419*
X914022Y414517*
X913859Y414618*
X913696Y414720*
X913536Y414824*
X913379Y414930*
X913222Y415038*
X913069Y415147*
X912917Y415258*
X912767Y415371*
X912620Y415485*
X912474Y415601*
X912331Y415720*
X912190Y415838*
X912051Y415960*
X911915Y416082*
X911781Y416206*
X911650Y416331*
X911520Y416458*
X911393Y416587*
X934183*
X934057Y416458*
X933928Y416331*
X933796Y416206*
X933662Y416082*
X923224Y435236D02*
X923442Y435231D01*
X923658Y435222*
X923873Y435213*
X924087Y435200*
X924302Y435185*
X924514Y435168*
X924727Y435150*
X924938Y435128*
X925149Y435105*
X925358Y435079*
X925567Y435052*
X925775Y435022*
X925982Y434990*
X926187Y434956*
X926392Y434920*
X926596Y434882*
X926798Y434842*
X927001Y434800*
X927201Y434756*
X927401Y434710*
X927600Y434662*
X927797Y434612*
X927993Y434560*
X928188Y434506*
X928382Y434449*
X928574Y434392*
X928574D02*
X928766Y434333D01*
X928956Y434271*
X929146Y434208*
X929333Y434142*
X929518Y434075*
X929704Y434007*
X929888Y433936*
X930069Y433863*
X930251Y433790*
X930431Y433714*
X930609Y433636*
X930786Y433556*
X930961Y433475*
X931134Y433392*
X931307Y433309*
X931477Y433222*
X931646Y433134*
X931814Y433045*
X931980Y432954*
X932144Y432861*
X932308Y432767*
X932468Y432671*
X932628Y432574*
X932787Y432475*
X932943Y432374*
X933097Y432272*
X933250Y432169*
X933401Y432065*
X933551Y431959*
X933698Y431850*
X933844Y431742*
X933987Y431631*
X934129Y431519*
X934270Y431405*
X934408Y431290*
X934544Y431174*
X934679Y431057*
X934810Y430938*
X934942Y430818*
X935070Y430697*
X935196Y430573*
X935321Y430449*
X935444Y430324*
X935564Y430198*
X935683Y430070*
X935799Y429941*
X935912Y429810*
X936024Y429680*
X936134Y429547*
X936241Y429413*
X936347Y429279*
X936450Y429143*
X936551Y429005*
X936650Y428867*
X936746Y428728*
X936840Y428588*
X936933Y428447*
X936933D02*
X937022Y428305D01*
X937108Y428161*
X937194Y428017*
X937276Y427871*
X937356Y427725*
X937434Y427578*
X937508Y427430*
X937581Y427280*
X937652Y427130*
X937719Y426979*
X937785Y426828*
X937846Y426675*
X937906Y426521*
X937964Y426368*
X938018Y426212*
X938071Y426055*
X938120Y425899*
X938166Y425742*
X938212Y425583*
X938253Y425424*
X938292Y425264*
X938326Y425104*
X938326D02*
X938360Y424943D01*
X938391Y424781*
X938418Y424618*
X938443Y424455*
X938465Y424292*
X938484Y424126*
X938501Y423961*
X938514Y423796*
X938524Y423630*
X938532Y423463*
X938536Y423295*
X938537Y423128*
X938536Y422960*
X938532Y422792*
X938524Y422626*
X938514Y422459*
X938501Y422293*
X938484Y422128*
X938465Y421964*
X938443Y421800*
X938418Y421636*
X938391Y421473*
X938360Y421312*
X938326Y421151*
X938326D02*
X938292Y420991D01*
X938253Y420831*
X938212Y420671*
X938166Y420513*
X938120Y420356*
X938071Y420198*
X938018Y420042*
X937964Y419888*
X937906Y419733*
X937846Y419579*
X937785Y419427*
X937719Y419275*
X937652Y419124*
X937581Y418974*
X937508Y418826*
X937434Y418677*
X937356Y418530*
X937276Y418383*
X937194Y418238*
X937108Y418094*
X937022Y417951*
X936933Y417807*
X936840Y417667*
X936746Y417526*
X936650Y417387*
X936551Y417249*
X936450Y417112*
X936347Y416976*
X936241Y416841*
X936134Y416708*
X936024Y416575*
X935912Y416444*
X935799Y416313*
X935683Y416184*
X935564Y416056*
X935444Y415930*
X935321Y415805*
X935196Y415681*
X935070Y415558*
X934942Y415437*
X934810Y415317*
X934679Y415198*
X934544Y415081*
X934408Y414965*
X934270Y414850*
X934129Y414736*
X933987Y414624*
X933844Y414513*
X933698Y414403*
X933551Y414296*
X933401Y414191*
X933250Y414085*
X933097Y413982*
X932943Y413880*
X932787Y413779*
X932628Y413681*
X932468Y413583*
X932308Y413487*
X932144Y413393*
X931980Y413300*
X931814Y413210*
X931646Y413121*
X931477Y413033*
X931307Y412947*
X931134Y412861*
X930961Y412779*
X930786Y412698*
X930609Y412619*
X930431Y412541*
X930251Y412465*
X930069Y412390*
X930069D02*
X929888Y412318D01*
X929704Y412249*
X929518Y412179*
X929333Y412112*
X929146Y412047*
X928956Y411984*
X928766Y411922*
X928574Y411863*
X928382Y411805*
X928188Y411749*
X927993Y411695*
X927797Y411643*
X927600Y411593*
X927401Y411545*
X927201Y411499*
X927001Y411455*
X926798Y411412*
X926596Y411372*
X926392Y411335*
X926187Y411299*
X925982Y411264*
X925775Y411233*
X925567Y411203*
X925358Y411175*
X925149Y411150*
X924938Y411126*
X924727Y411105*
X924514Y411086*
X924302Y411069*
X924087Y411055*
X923873Y411042*
X923658Y411032*
X923442Y411024*
X923224Y411019*
X923007Y411015*
X922789Y411014*
X922570Y411015*
X922353Y411019*
X922136Y411024*
X921920Y411032*
X921704Y411042*
X921490Y411055*
X921276Y411069*
X921063Y411086*
X920850Y411105*
X920639Y411126*
X920429Y411150*
X920219Y411175*
X920010Y411203*
X919802Y411233*
X919596Y411264*
X919390Y411299*
X919185Y411335*
X918981Y411372*
X918779Y411412*
X918576Y411455*
X918376Y411499*
X918176Y411545*
X917977Y411593*
X917780Y411643*
X917584Y411695*
X917389Y411749*
X917195Y411805*
X917003Y411863*
X916811Y411922*
X916621Y411984*
X916432Y412047*
X916244Y412112*
X916059Y412179*
X915873Y412249*
X915690Y412318*
X915508Y412390*
X915508D02*
X915326Y412465D01*
X915146Y412541*
X914968Y412619*
X914792Y412698*
X914616Y412779*
X914443Y412861*
X914270Y412947*
X914100Y413033*
X913931Y413121*
X913763Y413210*
X913597Y413300*
X913433Y413393*
X913269Y413487*
X913108Y413583*
X912949Y413681*
X912790Y413779*
X912634Y413880*
X912481Y413982*
X912327Y414085*
X912176Y414191*
X912026Y414296*
X911879Y414403*
X911733Y414513*
X911590Y414624*
X911448Y414736*
X911308Y414850*
X911169Y414965*
X911033Y415081*
X910899Y415198*
X910767Y415317*
X910635Y415437*
X910508Y415558*
X910381Y415681*
X910256Y415805*
X910133Y415930*
X910013Y416056*
X909895Y416184*
X909778Y416313*
X909665Y416444*
X909553Y416575*
X909443Y416708*
X909336Y416841*
X909230Y416976*
X909127Y417112*
X909026Y417249*
X908927Y417387*
X908831Y417526*
X908737Y417667*
X908646Y417807*
X908555Y417951*
X908469Y418094*
X908384Y418238*
X908301Y418383*
X908221Y418530*
X908144Y418677*
X908069Y418826*
X907996Y418974*
X907926Y419124*
X907858Y419275*
X907794Y419427*
X907731Y419579*
X907671Y419733*
X907613Y419888*
X907559Y420042*
X907507Y420198*
X907457Y420356*
X907411Y420513*
X907367Y420671*
X907325Y420831*
X907325D02*
X907287Y420991D01*
X907251Y421151*
X907217Y421312*
X907187Y421473*
X907159Y421636*
X907135Y421800*
X907113Y421964*
X907093Y422128*
X907078Y422293*
X907064Y422459*
X907053Y422626*
X907047Y422792*
X907042Y422960*
X907040Y423128*
X907042Y423295*
X907047Y423463*
X907053Y423630*
X907064Y423796*
X907078Y423961*
X907093Y424126*
X907113Y424292*
X907135Y424455*
X907159Y424618*
X907187Y424781*
X907217Y424943*
X907251Y425104*
X907287Y425264*
X907325Y425424*
X907325D02*
X907367Y425583D01*
X907411Y425742*
X907457Y425899*
X907507Y426055*
X907559Y426212*
X907613Y426368*
X907671Y426521*
X907731Y426675*
X907794Y426828*
X907858Y426979*
X907926Y427130*
X907996Y427280*
X908069Y427430*
X908144Y427578*
X908221Y427725*
X908301Y427871*
X908384Y428017*
X908469Y428161*
X908555Y428305*
X908646Y428447*
X908646D02*
X908737Y428588D01*
X908831Y428728*
X908927Y428867*
X909026Y429005*
X909127Y429143*
X909230Y429279*
X909336Y429413*
X909443Y429547*
X909553Y429680*
X909665Y429810*
X909778Y429941*
X909895Y430070*
X910013Y430198*
X910133Y430324*
X910256Y430449*
X910381Y430573*
X910508Y430697*
X910635Y430818*
X910767Y430938*
X910899Y431057*
X911033Y431174*
X911169Y431290*
X911308Y431405*
X911448Y431519*
X911590Y431631*
X911733Y431742*
X911879Y431850*
X912026Y431959*
X912176Y432065*
X912327Y432169*
X912481Y432272*
X912634Y432374*
X912790Y432475*
X912949Y432574*
X913108Y432671*
X913269Y432767*
X913433Y432861*
X913597Y432954*
X913763Y433045*
X913931Y433134*
X914100Y433222*
X914270Y433309*
X914443Y433392*
X914616Y433475*
X914792Y433556*
X914968Y433636*
X915146Y433714*
X915326Y433790*
X915508Y433863*
X915690Y433936*
X915873Y434007*
X916059Y434075*
X916244Y434142*
X916432Y434208*
X916621Y434271*
X916811Y434333*
X917003Y434392*
X917003D02*
X917195Y434449D01*
X917389Y434506*
X917584Y434560*
X917780Y434612*
X917977Y434662*
X918176Y434710*
X918376Y434756*
X918576Y434800*
X918779Y434842*
X918981Y434882*
X919185Y434920*
X919390Y434956*
X919596Y434990*
X919802Y435022*
X920010Y435052*
X920219Y435079*
X920429Y435105*
X920639Y435128*
X920850Y435150*
X921063Y435168*
X921276Y435185*
X921490Y435200*
X921704Y435213*
X921920Y435222*
X922136Y435231*
X922353Y435236*
X922570Y435240*
X922789Y435242*
X923007Y435240*
X923224Y435236*
X926214Y418200D02*
X919134D01*
Y418525*
X919464Y418531*
X919718Y418548*
X919895Y418577*
X920127Y418677*
X920292Y418845*
X920392Y419082*
X920425Y419387*
Y426387*
X920402Y426652*
X920332Y426857*
X920218Y427000*
X920046Y427098*
X919808Y427166*
X919504Y427209*
X919134Y427222*
Y427560*
X926121*
X926904Y425334*
X926720Y425204*
X926579Y425410*
X926432Y425605*
X926278Y425791*
X926118Y425965*
X925952Y426129*
X925780Y426283*
X925602Y426426*
X925418Y426557*
X925222Y426684*
X925023Y426797*
X924819Y426897*
X924613Y426983*
X924402Y427057*
X924188Y427116*
X923971Y427163*
X923749Y427196*
X923525Y427215*
X923296Y427222*
X922996Y427210*
X922731Y427172*
X922500Y427108*
X922304Y427021*
X922105Y426848*
X921987Y426597*
X921947Y426272*
Y423160*
X923285*
X923597Y423183*
X923865Y423253*
X924090Y423369*
X924271Y423532*
X924370Y423671*
X924456Y423844*
X924531Y424050*
X924593Y424289*
X924643Y424561*
X924680Y424866*
X924957*
Y421051*
X924668*
X924624Y421399*
X924565Y421703*
X924491Y421964*
X924402Y422179*
X924299Y422352*
X924120Y422535*
X923892Y422666*
X923618Y422743*
X923296Y422769*
X921947*
Y419540*
X921979Y419257*
X922073Y419011*
X922230Y418805*
X922451Y418649*
X922738Y418556*
X923089Y418525*
X923745*
X923954Y418535*
X924166Y418566*
X924380Y418617*
X924598Y418686*
X924819Y418778*
X925041Y418889*
X925268Y419019*
X925446Y419137*
X925620Y419263*
X925792Y419398*
X925960Y419544*
X926124Y419700*
X926285Y419866*
X926442Y420040*
X926596Y420224*
X926747Y420418*
X926894Y420622*
X927147Y420504*
X926214Y418200*
X913699Y430112D02*
X932999D01*
X918918Y413441D02*
X926273D01*
X264770Y103970D02*
Y106470D01*
X257270*
Y107720*
X253520Y105220*
X257270Y102720*
Y103970*
X264770*
X379870Y101970D02*
Y108845D01*
X377370*
Y104470*
X372995*
Y105720*
X369245Y103220*
X372995Y100720*
Y101970*
X379870*
X312470Y106270D02*
Y103770D01*
X319970*
Y102520*
X323720Y105020*
X319970Y107520*
Y106270*
X312470*
X141970Y97770D02*
X144470D01*
Y105270*
X145720*
X143220Y109020*
X140720Y105270*
X141970*
Y97770*
X202470Y108970D02*
X199970D01*
Y101470*
X198720*
X201220Y97720*
X203720Y101470*
X202470*
Y108970*
G54D16*
X931878Y77320D02*
X934524D01*
Y81070*
X875185*
Y77320*
X877685*
Y73570*
X875185*
Y61070*
X927990*
X934240Y67320*
Y73570*
X931878*
Y77320*
X931898Y78570D02*
X877685D01*
Y68570*
X882685Y63570*
X926898*
X931898Y68570*
Y78570*
X924555Y83039D02*
X922055Y85539D01*
X927055*
X924555Y83039*
G54D38*
X944370Y371576D02*
X1043370D01*
Y365576*
X944370*
Y371576*
G54D85*
X503270Y330321D02*
Y322570D01*
Y330321D02*
X505149D01*
X505954Y329952*
X506491Y329214*
X506760Y328476*
X507028Y327368*
Y325523*
X506760Y324416*
X506491Y323677*
X505954Y322939*
X505149Y322570*
X503270*
X509444Y328845D02*
X509981Y329214D01*
X510786Y330321*
Y322570*
X502570Y252821D02*
Y245070D01*
Y252821D02*
X504449D01*
X505254Y252452*
X505791Y251714*
X506060Y250976*
X506328Y249868*
Y248023*
X506060Y246916*
X505791Y246177*
X505254Y245439*
X504449Y245070*
X502570*
X511965Y251714D02*
X511697Y252452D01*
X510891Y252821*
X510355*
X509549Y252452*
X509012Y251345*
X508744Y249499*
Y247654*
X509012Y246177*
X509549Y245439*
X510355Y245070*
X510623*
X511428Y245439*
X511965Y246177*
X512234Y247285*
Y247654*
X511965Y248761*
X511428Y249499*
X510623Y249868*
X510355*
X509549Y249499*
X509012Y248761*
X508744Y247654*
X688070Y252921D02*
Y245170D01*
Y252921D02*
X689949D01*
X690754Y252552*
X691291Y251814*
X691560Y251076*
X691828Y249968*
Y248123*
X691560Y247016*
X691291Y246277*
X690754Y245539*
X689949Y245170*
X688070*
X698002Y252921D02*
X695318Y245170D01*
X694244Y252921D02*
X698002D01*
X688470Y330521D02*
Y322770D01*
Y330521D02*
X690349D01*
X691154Y330152*
X691691Y329414*
X691960Y328676*
X692228Y327568*
Y325723*
X691960Y324616*
X691691Y323877*
X691154Y323139*
X690349Y322770*
X688470*
X694912Y328676D02*
Y329045D01*
X695181Y329783*
X695449Y330152*
X695986Y330521*
X697060*
X697597Y330152*
X697865Y329783*
X698134Y329045*
Y328306*
X697865Y327568*
X697328Y326461*
X694644Y322770*
X698402*
X760870Y330721D02*
Y322970D01*
Y330721D02*
X762749D01*
X763554Y330352*
X764091Y329614*
X764360Y328876*
X764628Y327768*
Y325923*
X764360Y324816*
X764091Y324077*
X763554Y323339*
X762749Y322970*
X760870*
X767581Y330721D02*
X770534D01*
X768923Y327768*
X769728*
X770265Y327399*
X770534Y327030*
X770802Y325923*
Y325185*
X770534Y324077*
X769997Y323339*
X769191Y322970*
X768386*
X767581Y323339*
X767312Y323708*
X767044Y324446*
X760970Y253121D02*
Y245370D01*
Y253121D02*
X762849D01*
X763654Y252752*
X764191Y252014*
X764460Y251276*
X764728Y250168*
Y248323*
X764460Y247216*
X764191Y246477*
X763654Y245739*
X762849Y245370*
X760970*
X768486Y253121D02*
X767681Y252752D01*
X767412Y252014*
Y251276*
X767681Y250537*
X768218Y250168*
X769291Y249799*
X770097Y249430*
X770634Y248692*
X770902Y247954*
Y246846*
X770634Y246108*
X770365Y245739*
X769560Y245370*
X768486*
X767681Y245739*
X767412Y246108*
X767144Y246846*
Y247954*
X767412Y248692*
X767949Y249430*
X768755Y249799*
X769828Y250168*
X770365Y250537*
X770634Y251276*
Y252014*
X770365Y252752*
X769560Y253121*
X768486*
X807570Y291021D02*
Y283270D01*
Y291021D02*
X809449D01*
X810254Y290652*
X810791Y289914*
X811060Y289176*
X811328Y288068*
Y286223*
X811060Y285116*
X810791Y284377*
X810254Y283639*
X809449Y283270*
X807570*
X817234Y291021D02*
X814549D01*
X814281Y287699*
X814549Y288068*
X815355Y288437*
X816160*
X816965Y288068*
X817502Y287330*
X817771Y286223*
X817502Y285485*
X817234Y284377*
X816697Y283639*
X815891Y283270*
X815086*
X814281Y283639*
X814012Y284008*
X813744Y284746*
X760370Y100121D02*
Y92370D01*
Y100121D02*
X762249D01*
X763054Y99752*
X763591Y99014*
X763860Y98276*
X764128Y97168*
Y95323*
X763860Y94216*
X763591Y93477*
X763054Y92739*
X762249Y92370*
X760370*
X766544Y98645D02*
X767081Y99014D01*
X767886Y100121*
Y92370*
X773792Y100121D02*
X771107D01*
X770839Y96799*
X771107Y97168*
X771913Y97537*
X772718*
X773523Y97168*
X774060Y96430*
X774329Y95323*
X774060Y94585*
X773792Y93477*
X773255Y92739*
X772450Y92370*
X771644*
X770839Y92739*
X770571Y93108*
X770302Y93846*
X760970Y159421D02*
Y151670D01*
Y159421D02*
X762849D01*
X763654Y159052*
X764191Y158314*
X764460Y157576*
X764728Y156468*
Y154623*
X764460Y153516*
X764191Y152777*
X763654Y152039*
X762849Y151670*
X760970*
X767144Y157945D02*
X767681Y158314D01*
X768486Y159421*
Y151670*
X773586Y159421D02*
X770902Y154254D01*
X774929*
X773586Y159421D02*
Y151670D01*
X1065670Y318221D02*
Y310470D01*
Y318221D02*
X1067549D01*
X1068354Y317852*
X1068891Y317114*
X1069160Y316376*
X1069428Y315268*
Y313423*
X1069160Y312316*
X1068891Y311577*
X1068354Y310839*
X1067549Y310470*
X1065670*
X1071844Y316745D02*
X1072381Y317114D01*
X1073186Y318221*
Y310470*
X1077213Y318221D02*
X1076407Y317852D01*
X1075871Y316745*
X1075602Y314899*
Y313792*
X1075871Y311946*
X1076407Y310839*
X1077213Y310470*
X1077750*
X1078555Y310839*
X1079092Y311946*
X1079360Y313792*
Y314899*
X1079092Y316745*
X1078555Y317852*
X1077750Y318221*
X1077213*
X1066670Y263821D02*
Y256070D01*
Y263821D02*
X1068549D01*
X1069354Y263452*
X1069891Y262714*
X1070160Y261976*
X1070428Y260868*
Y259023*
X1070160Y257916*
X1069891Y257177*
X1069354Y256439*
X1068549Y256070*
X1066670*
X1072844Y262345D02*
X1073381Y262714D01*
X1074186Y263821*
Y256070*
X1076602Y262345D02*
X1077139Y262714D01*
X1077944Y263821*
Y256070*
X887070Y251221D02*
Y243470D01*
Y251221D02*
X888949D01*
X889754Y250852*
X890291Y250114*
X890560Y249376*
X890828Y248268*
Y246423*
X890560Y245316*
X890291Y244577*
X889754Y243839*
X888949Y243470*
X887070*
X896734Y248637D02*
X896465Y247530D01*
X895928Y246792*
X895123Y246423*
X894855*
X894049Y246792*
X893512Y247530*
X893244Y248637*
Y249006*
X893512Y250114*
X894049Y250852*
X894855Y251221*
X895123*
X895928Y250852*
X896465Y250114*
X896734Y248637*
Y246792*
X896465Y244946*
X895928Y243839*
X895123Y243470*
X894586*
X893781Y243839*
X893512Y244577*
X887670Y329421D02*
Y321670D01*
Y329421D02*
X889549D01*
X890354Y329052*
X890891Y328314*
X891160Y327576*
X891428Y326468*
Y324623*
X891160Y323516*
X890891Y322777*
X890354Y322039*
X889549Y321670*
X887670*
X896528Y329421D02*
X893844Y324254D01*
X897871*
X896528Y329421D02*
Y321670D01*
X900825Y57191D02*
X900602Y57806D01*
X900154Y58422*
X899707Y58729*
X898812*
X898365Y58422*
X897917Y57806*
X897694Y57191*
X897470Y56269*
Y54731*
X897694Y53808*
X897917Y53193*
X898365Y52578*
X898812Y52270*
X899707*
X900154Y52578*
X900602Y53193*
X900825Y53808*
X902839Y58729D02*
Y52270D01*
Y58729D02*
X905970Y52270D01*
Y58729D02*
Y52270D01*
X908207Y57191D02*
Y57499D01*
X908431Y58114*
X908655Y58422*
X909102Y58729*
X909997*
X910444Y58422*
X910668Y58114*
X910892Y57499*
Y56884*
X910668Y56269*
X910221Y55346*
X907984Y52270*
X911115*
X573670Y160121D02*
Y152370D01*
Y160121D02*
X575549D01*
X576354Y159752*
X576891Y159014*
X577160Y158276*
X577428Y157168*
Y155323*
X577160Y154216*
X576891Y153477*
X576354Y152739*
X575549Y152370*
X573670*
X579844Y158645D02*
X580381Y159014D01*
X581186Y160121*
Y152370*
X583871Y158276D02*
Y158645D01*
X584139Y159383*
X584407Y159752*
X584944Y160121*
X586018*
X586555Y159752*
X586823Y159383*
X587092Y158645*
Y157906*
X586823Y157168*
X586286Y156061*
X583602Y152370*
X587360*
X573370Y100921D02*
Y93170D01*
Y100921D02*
X575249D01*
X576054Y100552*
X576591Y99814*
X576860Y99076*
X577128Y97968*
Y96123*
X576860Y95016*
X576591Y94277*
X576054Y93539*
X575249Y93170*
X573370*
X579544Y99445D02*
X580081Y99814D01*
X580886Y100921*
Y93170*
X583839Y100921D02*
X586792D01*
X585181Y97968*
X585986*
X586523Y97599*
X586792Y97230*
X587060Y96123*
Y95385*
X586792Y94277*
X586255Y93539*
X585450Y93170*
X584644*
X583839Y93539*
X583571Y93908*
X583302Y94646*
G54D91*
X784670Y174933D02*
Y168370D01*
Y174933D02*
X787852Y168370D01*
Y174933D02*
Y168370D01*
X791261Y174933D02*
X790806Y174620D01*
X790352Y173995*
X790125Y173370*
X789897Y172433*
Y170870*
X790125Y169933*
X790352Y169308*
X790806Y168683*
X791261Y168370*
X792170*
X792625Y168683*
X793079Y169308*
X793306Y169933*
X793534Y170870*
Y172433*
X793306Y173370*
X793079Y173995*
X792625Y174620*
X792170Y174933*
X791261*
X795806Y168995D02*
X795579Y168683D01*
X795806Y168370*
X796034Y168683*
X795806Y168995*
X798079Y173683D02*
X798534Y173995D01*
X799216Y174933*
Y168370*
X524470Y345333D02*
Y338770D01*
Y345333D02*
X526288Y338770D01*
X528106Y345333D02*
X526288Y338770D01*
X528106Y345333D02*
Y338770D01*
X530152Y344083D02*
X530606Y344395D01*
X531288Y345333*
Y338770*
X533334Y337520D02*
X538106D01*
X539470Y345333D02*
Y338770D01*
Y345333D02*
X542652Y338770D01*
Y345333D02*
Y338770D01*
X544697Y345333D02*
Y338770D01*
Y345333D02*
X547652D01*
X544697Y342208D02*
X546516D01*
X549697Y345333D02*
Y338770D01*
Y345333D02*
X551743D01*
X552425Y345020*
X552652Y344708*
X552879Y344083*
Y343458*
X552652Y342833*
X552425Y342520*
X551743Y342208*
X549697D02*
X551743D01*
X552425Y341895*
X552652Y341583*
X552879Y340958*
Y340020*
X552652Y339395*
X552425Y339083*
X551743Y338770*
X549697*
X1089970Y333733D02*
Y327170D01*
Y333733D02*
X1093152Y327170D01*
Y333733D02*
Y327170D01*
X1096561Y333733D02*
X1096106Y333420D01*
X1095652Y332795*
X1095425Y332170*
X1095197Y331233*
Y329670*
X1095425Y328733*
X1095652Y328108*
X1096106Y327483*
X1096561Y327170*
X1097470*
X1097925Y327483*
X1098379Y328108*
X1098606Y328733*
X1098834Y329670*
Y331233*
X1098606Y332170*
X1098379Y332795*
X1097925Y333420*
X1097470Y333733*
X1096561*
X1100879D02*
Y327170D01*
Y333733D02*
X1102697Y327170D01*
X1104516Y333733D02*
X1102697Y327170D01*
X1104516Y333733D02*
Y327170D01*
X1108379Y333733D02*
X1106561Y327170D01*
X1108379Y333733D02*
X1110197Y327170D01*
X1107243Y329358D02*
X1109516D01*
X1112243Y333733D02*
Y327170D01*
X1114970*
X1089870Y278533D02*
Y271970D01*
Y278533D02*
X1092825D01*
X1089870Y275408D02*
X1091688D01*
X1096688Y278533D02*
X1094870Y271970D01*
X1096688Y278533D02*
X1098506Y271970D01*
X1095552Y274158D02*
X1097825D01*
X1100552Y278533D02*
Y271970D01*
X1102597Y278533D02*
Y271970D01*
X1105325*
X783670Y115533D02*
Y108970D01*
Y115533D02*
X786852Y108970D01*
Y115533D02*
Y108970D01*
X790261Y115533D02*
X789806Y115220D01*
X789352Y114595*
X789125Y113970*
X788897Y113033*
Y111470*
X789125Y110533*
X789352Y109908*
X789806Y109283*
X790261Y108970*
X791170*
X791625Y109283*
X792079Y109908*
X792306Y110533*
X792534Y111470*
Y113033*
X792306Y113970*
X792079Y114595*
X791625Y115220*
X791170Y115533*
X790261*
X794806Y109595D02*
X794579Y109283D01*
X794806Y108970*
X795034Y109283*
X794806Y109595*
X797306Y113970D02*
Y114283D01*
X797534Y114908*
X797761Y115220*
X798216Y115533*
X799125*
X799579Y115220*
X799806Y114908*
X800034Y114283*
Y113658*
X799806Y113033*
X799352Y112095*
X797079Y108970*
X800261*
X524470Y266733D02*
Y260170D01*
Y266733D02*
X526288Y260170D01*
X528106Y266733D02*
X526288Y260170D01*
X528106Y266733D02*
Y260170D01*
X530379Y265170D02*
Y265483D01*
X530606Y266108*
X530834Y266420*
X531288Y266733*
X532197*
X532652Y266420*
X532879Y266108*
X533106Y265483*
Y264858*
X532879Y264233*
X532425Y263295*
X530152Y260170*
X533334*
X535379Y258920D02*
X540152D01*
X541516Y266733D02*
Y260170D01*
Y266733D02*
X544697Y260170D01*
Y266733D02*
Y260170D01*
X546743Y266733D02*
Y260170D01*
Y266733D02*
X549697D01*
X546743Y263608D02*
X548561D01*
X551743Y266733D02*
Y260170D01*
Y266733D02*
X553788D01*
X554470Y266420*
X554697Y266108*
X554925Y265483*
Y264858*
X554697Y264233*
X554470Y263920*
X553788Y263608*
X551743D02*
X553788D01*
X554470Y263295*
X554697Y262983*
X554925Y262358*
Y261420*
X554697Y260795*
X554470Y260483*
X553788Y260170*
X551743*
X710570Y345633D02*
Y339070D01*
Y345633D02*
X712161D01*
X712843Y345320*
X713297Y344695*
X713525Y344070*
X713752Y343133*
Y341570*
X713525Y340633*
X713297Y340008*
X712843Y339383*
X712161Y339070*
X710570*
X719206Y344070D02*
X718979Y344695D01*
X718525Y345320*
X718070Y345633*
X717161*
X716706Y345320*
X716252Y344695*
X716025Y344070*
X715797Y343133*
Y341570*
X716025Y340633*
X716252Y340008*
X716706Y339383*
X717161Y339070*
X718070*
X718525Y339383*
X718979Y340008*
X719206Y340633*
X721252Y344383D02*
X721706Y344695D01*
X722388Y345633*
Y339070*
X724434Y337820D02*
X729206D01*
X730570Y345633D02*
Y339070D01*
Y345633D02*
X733752Y339070D01*
Y345633D02*
Y339070D01*
X735797Y345633D02*
Y339070D01*
Y345633D02*
X738752D01*
X735797Y342508D02*
X737616D01*
X740797Y345633D02*
Y339070D01*
Y345633D02*
X742843D01*
X743525Y345320*
X743752Y345008*
X743979Y344383*
Y343758*
X743752Y343133*
X743525Y342820*
X742843Y342508*
X740797D02*
X742843D01*
X743525Y342195*
X743752Y341883*
X743979Y341258*
Y340320*
X743752Y339695*
X743525Y339383*
X742843Y339070*
X740797*
X710570Y266933D02*
Y260370D01*
Y266933D02*
X712161D01*
X712843Y266620*
X713297Y265995*
X713525Y265370*
X713752Y264433*
Y262870*
X713525Y261933*
X713297Y261308*
X712843Y260683*
X712161Y260370*
X710570*
X719206Y265370D02*
X718979Y265995D01*
X718525Y266620*
X718070Y266933*
X717161*
X716706Y266620*
X716252Y265995*
X716025Y265370*
X715797Y264433*
Y262870*
X716025Y261933*
X716252Y261308*
X716706Y260683*
X717161Y260370*
X718070*
X718525Y260683*
X718979Y261308*
X719206Y261933*
X721479Y265370D02*
Y265683D01*
X721706Y266308*
X721934Y266620*
X722388Y266933*
X723297*
X723752Y266620*
X723979Y266308*
X724206Y265683*
Y265058*
X723979Y264433*
X723525Y263495*
X721252Y260370*
X724434*
X726479Y259120D02*
X731252D01*
X732616Y266933D02*
Y260370D01*
Y266933D02*
X735797Y260370D01*
Y266933D02*
Y260370D01*
X737843Y266933D02*
Y260370D01*
Y266933D02*
X740797D01*
X737843Y263808D02*
X739661D01*
X742843Y266933D02*
Y260370D01*
Y266933D02*
X744888D01*
X745570Y266620*
X745797Y266308*
X746025Y265683*
Y265058*
X745797Y264433*
X745570Y264120*
X744888Y263808*
X742843D02*
X744888D01*
X745570Y263495*
X745797Y263183*
X746025Y262558*
Y261620*
X745797Y260995*
X745570Y260683*
X744888Y260370*
X742843*
X783470Y345733D02*
Y339170D01*
Y345733D02*
X785288Y339170D01*
X787106Y345733D02*
X785288Y339170D01*
X787106Y345733D02*
Y339170D01*
X789152Y344483D02*
X789606Y344795D01*
X790288Y345733*
Y339170*
X792334Y337920D02*
X797106D01*
X798470Y345733D02*
Y339170D01*
X801197*
X803243Y345733D02*
X803470Y345420D01*
X803697Y345733*
X803470Y346045*
X803243Y345733*
X803470Y343545D02*
Y339170D01*
X805743Y343545D02*
Y339170D01*
Y342295D02*
X806425Y343233D01*
X806879Y343545*
X807561*
X808016Y343233*
X808243Y342295*
Y339170*
X810288Y341670D02*
X813016D01*
Y342295*
X812788Y342920*
X812561Y343233*
X812106Y343545*
X811425*
X810970Y343233*
X810516Y342608*
X810288Y341670*
Y341045*
X810516Y340108*
X810970Y339483*
X811425Y339170*
X812106*
X812561Y339483*
X813016Y340108*
X783470Y267133D02*
Y260570D01*
Y267133D02*
X785288Y260570D01*
X787106Y267133D02*
X785288Y260570D01*
X787106Y267133D02*
Y260570D01*
X789379Y265570D02*
Y265883D01*
X789606Y266508*
X789834Y266820*
X790288Y267133*
X791197*
X791652Y266820*
X791879Y266508*
X792106Y265883*
Y265258*
X791879Y264633*
X791425Y263695*
X789152Y260570*
X792334*
X794379Y259320D02*
X799152D01*
X800516Y267133D02*
Y260570D01*
X803243*
X805288Y267133D02*
X805516Y266820D01*
X805743Y267133*
X805516Y267445*
X805288Y267133*
X805516Y264945D02*
Y260570D01*
X807788Y264945D02*
Y260570D01*
Y263695D02*
X808470Y264633D01*
X808925Y264945*
X809606*
X810061Y264633*
X810288Y263695*
Y260570*
X812334Y263070D02*
X815061D01*
Y263695*
X814834Y264320*
X814606Y264633*
X814152Y264945*
X813470*
X813016Y264633*
X812561Y264008*
X812334Y263070*
Y262445*
X812561Y261508*
X813016Y260883*
X813470Y260570*
X814152*
X814606Y260883*
X815061Y261508*
X832234Y306433D02*
X831779Y306120D01*
X831325Y305495*
X831097Y304870*
X830870Y303933*
Y302370*
X831097Y301433*
X831325Y300808*
X831779Y300183*
X832234Y299870*
X833143*
X833597Y300183*
X834052Y300808*
X834279Y301433*
X834506Y302370*
Y303933*
X834279Y304870*
X834052Y305495*
X833597Y306120*
X833143Y306433*
X832234*
X836552D02*
Y301745D01*
X836779Y300808*
X837234Y300183*
X837916Y299870*
X838370*
X839052Y300183*
X839506Y300808*
X839734Y301745*
Y306433*
X843370D02*
Y299870D01*
X841779Y306433D02*
X844961D01*
X847006Y298620D02*
X851779D01*
X853143Y306433D02*
Y299870D01*
X855870*
X857916Y306433D02*
X858143Y306120D01*
X858370Y306433*
X858143Y306745*
X857916Y306433*
X858143Y304245D02*
Y299870D01*
X860416Y304245D02*
Y299870D01*
Y302995D02*
X861097Y303933D01*
X861552Y304245*
X862234*
X862688Y303933*
X862916Y302995*
Y299870*
X864961Y302370D02*
X867688D01*
Y302995*
X867461Y303620*
X867234Y303933*
X866779Y304245*
X866097*
X865643Y303933*
X865188Y303308*
X864961Y302370*
Y301745*
X865188Y300808*
X865643Y300183*
X866097Y299870*
X866779*
X867234Y300183*
X867688Y300808*
X882911Y89370D02*
X889370D01*
X882911D02*
Y91383D01*
X883218Y92055*
X883526Y92278*
X884141Y92502*
X885064*
X885679Y92278*
X885987Y92055*
X886294Y91383*
Y89370*
X884449Y97871D02*
X883833Y97647D01*
X883218Y97200*
X882911Y96752*
Y95858*
X883218Y95410*
X883833Y94963*
X884449Y94739*
X885371Y94515*
X886909*
X887832Y94739*
X888447Y94963*
X889062Y95410*
X889370Y95858*
Y96752*
X889062Y97200*
X888447Y97647*
X887832Y97871*
X886909*
Y96752D02*
Y97871D01*
X884449Y103240D02*
X883833Y103016D01*
X883218Y102569*
X882911Y102121*
Y101226*
X883218Y100779*
X883833Y100332*
X884449Y100108*
X885371Y99884*
X886909*
X887832Y100108*
X888447Y100332*
X889062Y100779*
X889370Y101226*
Y102121*
X889062Y102569*
X888447Y103016*
X887832Y103240*
X892911Y89370D02*
X899370D01*
X892911D02*
Y91383D01*
X893218Y92055*
X893526Y92278*
X894141Y92502*
X895064*
X895679Y92278*
X895987Y92055*
X896294Y91383*
Y89370*
X894449Y97871D02*
X893833Y97647D01*
X893218Y97200*
X892911Y96752*
Y95858*
X893218Y95410*
X893833Y94963*
X894449Y94739*
X895371Y94515*
X896909*
X897832Y94739*
X898447Y94963*
X899062Y95410*
X899370Y95858*
Y96752*
X899062Y97200*
X898447Y97647*
X897832Y97871*
X896909*
Y96752D02*
Y97871D01*
X892911Y99884D02*
X899370D01*
X892911D02*
Y101450D01*
X893218Y102121*
X893833Y102569*
X894449Y102792*
X895371Y103016*
X896909*
X897832Y102792*
X898447Y102569*
X899062Y102121*
X899370Y101450*
Y99884*
X904449Y92726D02*
X903833Y92502D01*
X903218Y92055*
X902911Y91607*
Y90712*
X903218Y90265*
X903833Y89817*
X904449Y89594*
X905371Y89370*
X906909*
X907832Y89594*
X908447Y89817*
X909062Y90265*
X909370Y90712*
Y91607*
X909062Y92055*
X908447Y92502*
X907832Y92726*
X906909*
Y91607D02*
Y92726D01*
X902911Y94739D02*
X909370D01*
X902911D02*
X909370Y97871D01*
X902911D02*
X909370D01*
X902911Y99884D02*
X909370D01*
X902911D02*
Y101450D01*
X903218Y102121*
X903833Y102569*
X904449Y102792*
X905371Y103016*
X906909*
X907832Y102792*
X908447Y102569*
X909062Y102121*
X909370Y101450*
Y99884*
X913833Y91383D02*
X919370D01*
X916602Y89370D02*
Y93397D01*
X912911Y95858D02*
Y98318D01*
X915371Y96976*
Y97647*
X915679Y98095*
X915987Y98318*
X916909Y98542*
X917525*
X918447Y98318*
X919062Y97871*
X919370Y97200*
Y96529*
X919062Y95858*
X918755Y95634*
X918140Y95410*
X918755Y100779D02*
X919062Y100555D01*
X919370Y100779*
X919062Y101003*
X918755Y100779*
X912911Y103463D02*
Y105924D01*
X915371Y104582*
Y105253*
X915679Y105701*
X915987Y105924*
X916909Y106148*
X917525*
X918447Y105924*
X919062Y105477*
X919370Y104806*
Y104135*
X919062Y103463*
X918755Y103240*
X918140Y103016*
X912911Y108161D02*
X919370Y109951D01*
X912911Y111741D02*
X919370Y109951D01*
X922911Y89370D02*
X929370D01*
X922911D02*
X929370Y91160D01*
X922911Y92949D02*
X929370Y91160D01*
X922911Y92949D02*
X929370D01*
X922911Y94963D02*
X929370D01*
Y97647*
X924449Y103016D02*
X923833Y102792D01*
X923218Y102345*
X922911Y101898*
Y101003*
X923218Y100555*
X923833Y100108*
X924449Y99884*
X925371Y99660*
X926909*
X927832Y99884*
X928447Y100108*
X929062Y100555*
X929370Y101003*
Y101898*
X929062Y102345*
X928447Y102792*
X927832Y103016*
X922911Y105029D02*
X929370D01*
X922911D02*
Y107043D01*
X923218Y107714*
X923526Y107938*
X924141Y108161*
X924756*
X925371Y107938*
X925679Y107714*
X925987Y107043*
Y105029*
Y106595D02*
X929370Y108161D01*
X599088Y175133D02*
X597270Y168570D01*
X599088Y175133D02*
X600906Y168570D01*
X597952Y170758D02*
X600225D01*
X602952Y175133D02*
Y170445D01*
X603179Y169508*
X603634Y168883*
X604316Y168570*
X604770*
X605452Y168883*
X605906Y169508*
X606134Y170445*
Y175133*
X609770D02*
Y168570D01*
X608179Y175133D02*
X611361D01*
X614770D02*
X614316Y174820D01*
X613861Y174195*
X613634Y173570*
X613406Y172633*
Y171070*
X613634Y170133*
X613861Y169508*
X614316Y168883*
X614770Y168570*
X615679*
X616134Y168883*
X616588Y169508*
X616816Y170133*
X617043Y171070*
Y172633*
X616816Y173570*
X616588Y174195*
X616134Y174820*
X615679Y175133*
X614770*
X597270Y116033D02*
Y109470D01*
Y116033D02*
X599088Y109470D01*
X600906Y116033D02*
X599088Y109470D01*
X600906Y116033D02*
Y109470D01*
X604770Y116033D02*
X602952Y109470D01*
X604770Y116033D02*
X606588Y109470D01*
X603634Y111658D02*
X605906D01*
X608634Y116033D02*
Y109470D01*
Y116033D02*
X611816Y109470D01*
Y116033D02*
Y109470D01*
X613861Y116033D02*
Y111345D01*
X614088Y110408*
X614543Y109783*
X615225Y109470*
X615679*
X616361Y109783*
X616816Y110408*
X617043Y111345*
Y116033*
X620906D02*
X619088Y109470D01*
X620906Y116033D02*
X622725Y109470D01*
X619770Y111658D02*
X622043D01*
X624770Y116033D02*
Y109470D01*
X627497*
X909570Y266933D02*
Y260370D01*
X912297*
X915706Y266933D02*
X915252Y266620D01*
X914797Y265995*
X914570Y265370*
X914343Y264433*
Y262870*
X914570Y261933*
X914797Y261308*
X915252Y260683*
X915706Y260370*
X916616*
X917070Y260683*
X917525Y261308*
X917752Y261933*
X917979Y262870*
Y264433*
X917752Y265370*
X917525Y265995*
X917070Y266620*
X916616Y266933*
X915706*
X921843D02*
X920025Y260370D01*
X921843Y266933D02*
X923661Y260370D01*
X920706Y262558D02*
X922979D01*
X925706Y266933D02*
Y260370D01*
Y266933D02*
X927297D01*
X927979Y266620*
X928434Y265995*
X928661Y265370*
X928888Y264433*
Y262870*
X928661Y261933*
X928434Y261308*
X927979Y260683*
X927297Y260370*
X925706*
X930934Y259120D02*
X935706D01*
X937070Y266933D02*
Y260370D01*
Y266933D02*
X940252Y260370D01*
Y266933D02*
Y260370D01*
X942297Y266933D02*
Y260370D01*
Y266933D02*
X945252D01*
X942297Y263808D02*
X944116D01*
X947297Y266933D02*
Y260370D01*
Y266933D02*
X949343D01*
X950025Y266620*
X950252Y266308*
X950479Y265683*
Y265058*
X950252Y264433*
X950025Y264120*
X949343Y263808*
X947297D02*
X949343D01*
X950025Y263495*
X950252Y263183*
X950479Y262558*
Y261620*
X950252Y260995*
X950025Y260683*
X949343Y260370*
X947297*
X909470Y345633D02*
Y339070D01*
Y345633D02*
X911516D01*
X912197Y345320*
X912425Y345008*
X912652Y344383*
Y343758*
X912425Y343133*
X912197Y342820*
X911516Y342508*
X909470D02*
X911516D01*
X912197Y342195*
X912425Y341883*
X912652Y341258*
Y340320*
X912425Y339695*
X912197Y339383*
X911516Y339070*
X909470*
X916516Y345633D02*
X914697Y339070D01*
X916516Y345633D02*
X918334Y339070D01*
X915379Y341258D02*
X917652D01*
X921970Y345633D02*
Y339070D01*
X920379Y345633D02*
X923561D01*
X927197D02*
Y339070D01*
X925606Y345633D02*
X928788D01*
X930834D02*
Y339070D01*
Y345633D02*
X933788D01*
X930834Y342508D02*
X932652D01*
X930834Y339070D02*
X933788D01*
X935834Y345633D02*
Y339070D01*
Y345633D02*
X937879D01*
X938561Y345320*
X938788Y345008*
X939016Y344383*
Y343758*
X938788Y343133*
X938561Y342820*
X937879Y342508*
X935834*
X937425D02*
X939016Y339070D01*
X941061Y345633D02*
X942879Y342508D01*
Y339070*
X944697Y345633D02*
X942879Y342508D01*
X946743Y337820D02*
X951516D01*
X952879Y345633D02*
Y339070D01*
Y345633D02*
X956061Y339070D01*
Y345633D02*
Y339070D01*
X958106Y345633D02*
Y339070D01*
Y345633D02*
X961061D01*
X958106Y342508D02*
X959925D01*
X963106Y345633D02*
Y339070D01*
Y345633D02*
X965152D01*
X965834Y345320*
X966061Y345008*
X966288Y344383*
Y343758*
X966061Y343133*
X965834Y342820*
X965152Y342508*
X963106D02*
X965152D01*
X965834Y342195*
X966061Y341883*
X966288Y341258*
Y340320*
X966061Y339695*
X965834Y339383*
X965152Y339070*
X963106*
G74*
X0Y0D02*
M02*
